<svg id="Layer_1" data-name="Layer 1" xmlns="http://www.w3.org/2000/svg" viewBox="0 0 1000 1000"><defs><style>.cls-1{fill:#fbbc04;}.cls-2{fill:#0f9d58;}.cls-3{fill:#4285f4;}.cls-4{fill:#ea4335;}</style></defs><title>01 DEVFEST Icon</title><path class="cls-1" d="M884.82,480.73a49.54,49.54,0,0,1-99.08,0l-1-79.26,0-1.28a49.54,49.54,0,0,1,99.08,0l1,79.26Z"/><circle class="cls-2" cx="835.28" cy="601.11" r="49.54"/><path class="cls-3" d="M697.14,542.26l-174,100.45a49.56,49.56,0,0,1-74.32-42.87v-201A49.56,49.56,0,0,1,523.16,356l173.3,100.06.68.39h0a49.5,49.5,0,0,1,0,85.8Z"/><path class="cls-4" d="M381.62,524.12a49.14,49.14,0,0,1-18.13,18.14l-.43.25L189.51,642.71A49.54,49.54,0,1,1,140,556.9l99.66-57.55L140,441.81A49.54,49.54,0,1,1,189.51,356l174,100.45A49.52,49.52,0,0,1,381.62,524.12Z"/></svg>