<svg id="Layer_1" data-name="Layer 1" xmlns="http://www.w3.org/2000/svg" viewBox="0 0 1600 900"><defs><style>.cls-1{fill:#fff;}.cls-2{fill:#fbbc04;}.cls-3{fill:#0f9d58;}.cls-4{fill:#4285f4;}.cls-5{fill:#ea4335;}.cls-6{fill:#676c72;}</style></defs><title>01 DEVFEST BWNTL Social Share</title><rect class="cls-1" width="1600" height="900"/><path class="cls-2" d="M1349.67,315.66a70.77,70.77,0,0,1-141.53,0l-1.4-113.21,0-1.83a70.77,70.77,0,0,1,141.53,0l1.4,113.21Z"/><circle class="cls-3" cx="1278.9" cy="487.6" r="70.77"/><path class="cls-4" d="M1081.59,403.55,833.08,547a70.8,70.8,0,0,1-106.16-61.24V198.72a70.79,70.79,0,0,1,106.16-61.23l247.53,142.93,1,.56h0a70.71,70.71,0,0,1,0,122.56Z"/><path class="cls-5" d="M630.9,377.63A70.27,70.27,0,0,1,605,403.55l-.62.35L356.5,547a70.77,70.77,0,1,1-70.77-122.57l142.36-82.21L285.73,260.06A70.77,70.77,0,1,1,356.5,137.49L605,281A70.73,70.73,0,0,1,630.9,377.63Z"/><path class="cls-6" d="M250.85,634.1h40.69q20.73,0,36.17,8.57a59.07,59.07,0,0,1,23.74,23.83q8.28,15.27,8.29,35t-8.29,35a59,59,0,0,1-23.74,23.83Q312.26,769,291.54,769H250.85Zm40.69,119.63q23.93,0,38-13.76t14-38.43q0-24.67-14-38.43t-38-13.75H266.67V753.73Z"/><path class="cls-6" d="M379.52,634.1h78v15.26H395.34V694h56.14v15.07H395.34v44.65h62.17V769h-78Z"/><path class="cls-6" d="M467.12,634.1h17.7l33.35,97.77,4.52,13.38h.75l4.71-13.38L563,634.1h17.71L531.36,769H514.78Z"/><path class="cls-6" d="M594.46,634.1h78v15.26H610.29v46.15h56.14v15.08H610.29V769H594.46Z"/><path class="cls-6" d="M690.73,634.1h78v15.26H706.55V694h56.14v15.07H706.55v44.65h62.17V769h-78Z"/><path class="cls-6" d="M799.43,762.39q-13.18-9.6-18.09-26.94l15.26-6.21A39.34,39.34,0,0,0,808.47,749a29.6,29.6,0,0,0,20.35,7.72q11.67,0,19.78-6.31t8.1-17.24a19.91,19.91,0,0,0-6.88-15.54q-6.87-6.12-22.51-11.4l-8.48-3q-14.31-5.09-23.36-13.38t-9-23a32.28,32.28,0,0,1,5.27-17.8A37.78,37.78,0,0,1,806.4,636a45.1,45.1,0,0,1,21.1-4.89q11.67,0,20.34,4.33A42.32,42.32,0,0,1,861.69,646a39.52,39.52,0,0,1,7.25,12.24l-15.07,6.41q-1.89-7-8.57-12.62t-17.61-5.65A27.54,27.54,0,0,0,810,652.19q-7.35,5.84-7.35,14.69a15.77,15.77,0,0,0,6.22,12.9q6.21,5,18.84,9.33l8.85,3q17.15,6.23,26.75,15.55T872.9,733q0,13-6.69,21.86a39.52,39.52,0,0,1-16.86,13A55,55,0,0,1,828.44,772,48.14,48.14,0,0,1,799.43,762.39Z"/><path class="cls-6" d="M918.49,649.36H880.62V634.1h91.56v15.26H934.5V769h-16Z"/><path class="cls-6" d="M1039.62,706.25l-45.4-72.15h30.33l26.94,44.65h1.5l26-44.65h30.71l-44.65,72.15V769h-25.43Z"/><path class="cls-6" d="M1155.85,706.25l-45.4-72.15h30.33l26.94,44.65h1.51l26-44.65h30.7l-44.64,72.15V769h-25.44Z"/><path class="cls-6" d="M1259.84,762.67a68.3,68.3,0,0,1-25.52-25.43,73,73,0,0,1,0-71.4,68.45,68.45,0,0,1,25.52-25.43,70.43,70.43,0,0,1,35.8-9.32q30.51,0,50.49,22l-17.9,17.33q-13-15.26-32.4-15.26a46.61,46.61,0,0,0-23,5.75,41.5,41.5,0,0,0-16.29,16.29,52.67,52.67,0,0,0,0,48.6,41.46,41.46,0,0,0,16.29,16.3,46.61,46.61,0,0,0,23,5.75q21.29,0,35.6-17.71l18.09,17.14a66.86,66.86,0,0,1-23.65,18.37,74.34,74.34,0,0,1-66-3Z"/></svg>