<svg id="Layer_1" data-name="Layer 1" xmlns="http://www.w3.org/2000/svg" viewBox="0 0 3000 500"><defs><style>.cls-1{fill:#fbbc04;}.cls-2{fill:#0f9d58;}.cls-3{fill:#4285f4;}.cls-4{fill:#ea4335;}.cls-5{fill:#676c72;}</style></defs><title>01 DEVFEST HASHTAG Logo Cropped</title><path class="cls-1" d="M847.21,230.73a49.54,49.54,0,0,1-99.08,0l-1-79.26,0-1.28a49.54,49.54,0,0,1,99.08,0l1,79.26Z"/><circle class="cls-2" cx="797.67" cy="351.11" r="49.54"/><path class="cls-3" d="M659.53,292.26l-174,100.45a49.56,49.56,0,0,1-74.32-42.87v-201A49.56,49.56,0,0,1,485.55,106l173.3,100.06.68.39h0a49.5,49.5,0,0,1,0,85.8Z"/><path class="cls-4" d="M344,274.12a49.14,49.14,0,0,1-18.13,18.14l-.43.25L151.9,392.71a49.54,49.54,0,1,1-49.54-85.81L202,249.35l-99.66-57.54A49.54,49.54,0,1,1,151.9,106l174,100.45A49.52,49.52,0,0,1,344,274.12Z"/><path class="cls-5" d="M956.6,296.84H918.39l3.69-21.57H960l6.47-43.45H927.94l3.39-21.57h38.21l8.94-60.71h22.81l-8.94,60.71h43.76l8.94-60.71h22.8l-8.94,60.71h38.22l-3.39,21.57h-37.91l-6.47,43.45h38.52l-3.39,21.57H1046l-9.55,63.49h-22.81l9.56-63.49H979.41l-9.56,63.49h-22.8Zm70-21.57,6.47-43.45H989.27l-6.47,43.45Z"/><path class="cls-5" d="M1125.17,139.67h66.56q33.9,0,59.17,14a96.5,96.5,0,0,1,38.83,39q13.56,25,13.56,57.32t-13.56,57.32a96.52,96.52,0,0,1-38.83,39q-25.26,14-59.17,14h-66.56Zm66.56,195.69q39.13,0,62.1-22.49t23-62.87q0-40.37-23-62.87t-62.1-22.49h-40.67V335.36Z"/><path class="cls-5" d="M1335.65,139.67h127.58v25H1361.54v73h91.83v24.66h-91.83v73h101.69v25H1335.65Z"/><path class="cls-5" d="M1479,139.67h29l54.54,160,7.4,21.88h1.23l7.71-21.88,57-160h29L1584,360.33h-27.12Z"/><path class="cls-5" d="M1687.27,139.67h127.59v25h-101.7v75.5H1805v24.65h-91.83v95.54h-25.89Z"/><path class="cls-5" d="M1844.75,139.67h127.58v25h-101.7v73h91.84v24.66h-91.84v73h101.7v25H1844.75Z"/><path class="cls-5" d="M2022.56,349.54Q2001,333.82,1993,305.47l25-10.17q5.24,19.72,19.41,32.36a48.39,48.39,0,0,0,33.29,12.64q19.09,0,32.35-10.33t13.26-28.2A32.58,32.58,0,0,0,2105,276.35q-11.25-10-36.83-18.65l-13.87-4.93q-23.42-8.31-38.21-21.88T2001.3,193.3a52.81,52.81,0,0,1,8.62-29.13,61.78,61.78,0,0,1,24-21.41,73.71,73.71,0,0,1,34.52-8q19.09,0,33.28,7.09t22.65,17.26q8.48,10.17,11.87,20l-24.66,10.48q-3.07-11.4-14-20.65t-28.81-9.24q-17,0-29,9.55t-12,24A25.83,25.83,0,0,0,2038,214.41q10.17,8.16,30.82,15.25l14.48,4.93q28,10.17,43.76,25.43t15.72,41.45q0,21.25-10.94,35.74a64.53,64.53,0,0,1-27.58,21.27,90.1,90.1,0,0,1-34.21,6.78A78.79,78.79,0,0,1,2022.56,349.54Z"/><path class="cls-5" d="M2217.33,164.64h-61.95v-25h149.77v25h-61.63V360.33h-26.19Z"/><path class="cls-5" d="M2415.48,257.7l-74.27-118h49.61l44.07,73h2.47l42.52-73h50.24l-73,118V360.33h-41.6Z"/><path class="cls-5" d="M2605.62,257.7l-74.27-118H2581l44.07,73h2.47l42.53-73h50.23l-73,118V360.33h-41.6Z"/><path class="cls-5" d="M2775.73,350A111.87,111.87,0,0,1,2734,308.4Q2718.73,282,2718.72,250T2734,191.6a112,112,0,0,1,41.75-41.6q26.51-15.25,58.56-15.26,49.92,0,82.59,36.06l-29.28,28.35q-21.27-25-53-25a76.13,76.13,0,0,0-37.59,9.4,67.88,67.88,0,0,0-26.66,26.66q-9.71,17.25-9.71,39.75t9.71,39.75A67.81,67.81,0,0,0,2797,316.41a76.13,76.13,0,0,0,37.59,9.4q34.83,0,58.25-29l29.58,28.05a109.31,109.31,0,0,1-38.67,30q-22.35,10.32-49.46,10.33Q2802.24,365.26,2775.73,350Z"/></svg>