<svg id="Layer_1" data-name="Layer 1" xmlns="http://www.w3.org/2000/svg" viewBox="0 0 3000 1000"><defs><style>.cls-1{fill:#fff;}</style></defs><title>02 DEVFEST BWNTL Logo (White)</title><path class="cls-1" d="M435,637.4h27.13A22.75,22.75,0,0,1,472.84,640a20.61,20.61,0,0,1,8,7.29,19.07,19.07,0,0,1,3,10.45,16.67,16.67,0,0,1-2.8,9.61,18.24,18.24,0,0,1-7.55,6.33v.42a19.09,19.09,0,0,1,9.29,6.55,17.21,17.21,0,0,1,3.59,10.87,20.2,20.2,0,0,1-3.11,11,21.64,21.64,0,0,1-8.34,7.65A23.8,23.8,0,0,1,463.61,713H435Zm27.13,32.72a12.52,12.52,0,0,0,6.7-1.79,12.75,12.75,0,0,0,4.49-4.6,11.23,11.23,0,0,0,.05-11.4,12.59,12.59,0,0,0-4.33-4.59,11.8,11.8,0,0,0-6.49-1.79H443.87v24.17Zm2,34.31a12.5,12.5,0,0,0,6.8-1.9,13.25,13.25,0,0,0,4.65-4.91,12.81,12.81,0,0,0,1.63-6.18,12.49,12.49,0,0,0-1.68-6.17,13.09,13.09,0,0,0-4.75-4.86,13.47,13.47,0,0,0-7.08-1.85H443.87v25.87Z"/><path class="cls-1" d="M499.76,709q-5.11-5.7-5.12-15.94V659.14h9v32.51q0,7.71,3.49,11.3a12.48,12.48,0,0,0,9.39,3.59,13.93,13.93,0,0,0,8.08-2.43,16.66,16.66,0,0,0,5.49-6.33,18.23,18.23,0,0,0,2-8.24v-30.4h9V713h-8.55v-7.81H532a17.83,17.83,0,0,1-7.07,6.75,20.72,20.72,0,0,1-10.35,2.75Q504.89,714.67,499.76,709Z"/><path class="cls-1" d="M552.91,647.42a6.17,6.17,0,0,1-1.9-4.54,6,6,0,0,1,1.9-4.48,6.5,6.5,0,0,1,9.08,0,6,6,0,0,1,1.9,4.48,6.28,6.28,0,0,1-1.85,4.54,6.13,6.13,0,0,1-4.59,1.9A6.19,6.19,0,0,1,552.91,647.42Zm.11,11.72h8.86V713H553Z"/><path class="cls-1" d="M573.92,637.4h9V713h-9Z"/><path class="cls-1" d="M603.32,711a25.87,25.87,0,0,1-9.24-10.18,33.66,33.66,0,0,1,0-29.4,25.71,25.71,0,0,1,9.24-10.24,23.86,23.86,0,0,1,13-3.7,21.89,21.89,0,0,1,11.09,2.8,20.51,20.51,0,0,1,7.39,6.91h.42l-.42-7.49V637.4h9V713h-8.55v-7.92h-.42a20.72,20.72,0,0,1-7.39,6.81,21.89,21.89,0,0,1-11.09,2.8A24,24,0,0,1,603.32,711Zm22.9-7a18.62,18.62,0,0,0,6.55-7.18,24.63,24.63,0,0,0,0-21.54,18.62,18.62,0,0,0-6.55-7.18,16.52,16.52,0,0,0-17.57,0,18.2,18.2,0,0,0-6.6,7.24,24.37,24.37,0,0,0,0,21.42,18.2,18.2,0,0,0,6.6,7.24,16.52,16.52,0,0,0,17.57,0Z"/><path class="cls-1" d="M668.29,637.4h9.92l13.72,55.52,1.27,5.17h.42l1.59-5.17L712.1,637.4h9.29l16.15,55.52,1.58,5.17h.42l14.89-60.69h9.92L744,713h-9.29L718.64,658.3,717,652.39h-.42l-1.79,5.91L698.06,713h-9.29Z"/><path class="cls-1" d="M770.68,637.4h9v22.27l-.42,7.39h.42a17.58,17.58,0,0,1,7-6.86,20.85,20.85,0,0,1,10.51-2.75q9.81,0,15,5.76t5.17,15.25V713h-9V679.83q0-7.27-3.7-10.77a13.42,13.42,0,0,0-9.6-3.48,13.07,13.07,0,0,0-7.76,2.53A18.66,18.66,0,0,0,779.65,683v30h-9Z"/><path class="cls-1" d="M834.23,712.34a17.31,17.31,0,0,1-7.18-6.38,17.09,17.09,0,0,1-2.53-9.24q0-8.55,6.44-13.35t16.25-4.81a36.9,36.9,0,0,1,9,1.06,23.1,23.1,0,0,1,6.39,2.43v-3.27a12.11,12.11,0,0,0-4.23-9.66,15.72,15.72,0,0,0-10.66-3.64,18,18,0,0,0-8.34,1.95,15.18,15.18,0,0,0-6,5.43l-6.76-5.06a21.52,21.52,0,0,1,8.71-7.6,27.3,27.3,0,0,1,12.3-2.75q11,0,17.26,5.76t6.28,15.67V713h-8.55v-7.71h-.43a19.16,19.16,0,0,1-7,6.65,20.16,20.16,0,0,1-10.45,2.75A23.27,23.27,0,0,1,834.23,712.34Zm19.85-7.91a17.59,17.59,0,0,0,6.22-6.23,16.39,16.39,0,0,0,2.33-8.55,22.29,22.29,0,0,0-6.23-2.75,28.49,28.49,0,0,0-7.81-1q-7.4,0-11.14,3.06a9.75,9.75,0,0,0-3.75,7.92,8.83,8.83,0,0,0,3.38,7.18,13.11,13.11,0,0,0,8.55,2.74A16.24,16.24,0,0,0,854.08,704.43Z"/><path class="cls-1" d="M895.09,713.59a13.6,13.6,0,0,1-4.7-2.9,13.19,13.19,0,0,1-3.17-4.73,18.06,18.06,0,0,1-1.05-6.55V667.27h-9.4v-8.13h9.4v-15.2h9v15.2h13.09v8.13H895.14v30q0,4.54,1.69,6.69a7.14,7.14,0,0,0,5.8,2.38,10.92,10.92,0,0,0,5.91-1.8v8.76a13.21,13.21,0,0,1-3.22,1.06,22.6,22.6,0,0,1-4.16.32A16.66,16.66,0,0,1,895.09,713.59Z"/><path class="cls-1" d="M915.51,656.4l5.17-7.92a5.76,5.76,0,0,1-3.37-2,5.83,5.83,0,0,1-1.48-4.07,6.52,6.52,0,0,1,1.95-4.8,6.41,6.41,0,0,1,4.7-1.95,6.66,6.66,0,0,1,6.75,6.75,8.14,8.14,0,0,1-.68,3.28,25.58,25.58,0,0,1-2.17,3.8l-6.65,9.6Z"/><path class="cls-1" d="M938,710.6a22.18,22.18,0,0,1-8.24-10.4l8-3.58a16.09,16.09,0,0,0,6,7.49,15.37,15.37,0,0,0,8.71,2.64,17.18,17.18,0,0,0,8.66-2.06,6.59,6.59,0,0,0,.73-11.29c-1.9-1.38-4.89-2.55-9-3.54l-6.54-1.69a23.49,23.49,0,0,1-10.56-5.38,13.58,13.58,0,0,1-1.32-18,17.92,17.92,0,0,1,7.44-5.44,26.37,26.37,0,0,1,10-1.9,25.68,25.68,0,0,1,12.62,3.06,17.41,17.41,0,0,1,7.86,8.55l-7.81,3.59q-3.58-7.17-12.77-7.17a14.43,14.43,0,0,0-7.76,2q-3.33,2.07-3.33,5.23a5.87,5.87,0,0,0,2.32,4.8,18.45,18.45,0,0,0,7,3l7.81,2q7.92,2,11.93,6a13,13,0,0,1,4,9.66,14,14,0,0,1-2.85,8.71,18.07,18.07,0,0,1-7.7,5.75,27.92,27.92,0,0,1-10.77,2Q943.81,714.67,938,710.6Z"/><path class="cls-1" d="M1005.66,637.4h11l37.9,60.17h.42l-.42-14.57V637.4h9V713h-9.29l-39.69-63h-.42l.42,14.57V713h-8.87Z"/><path class="cls-1" d="M1086.63,711a25.63,25.63,0,0,1-9.56-10.18,30.77,30.77,0,0,1-3.43-14.62,32,32,0,0,1,3.22-14.36,26.08,26.08,0,0,1,9.13-10.45,24.36,24.36,0,0,1,13.72-3.91,25.86,25.86,0,0,1,13.73,3.54,23.52,23.52,0,0,1,8.92,9.76,31.57,31.57,0,0,1,3.11,14.25,10.58,10.58,0,0,1-.31,2.75h-42.55a21.35,21.35,0,0,0,3,10.34,17.22,17.22,0,0,0,6.7,6.34,18.16,18.16,0,0,0,8.5,2.11q10.35,0,15.94-9.71l7.6,3.69a27.08,27.08,0,0,1-9.45,10.35,28.44,28.44,0,0,1-28.23.1ZM1116,680.36a17.46,17.46,0,0,0-1.9-6.76,14.47,14.47,0,0,0-5.33-5.7,16.74,16.74,0,0,0-9.13-2.32,15.23,15.23,0,0,0-10.72,4.06,19.61,19.61,0,0,0-5.75,10.72Z"/><path class="cls-1" d="M1146.48,685.64l-18.69-26.5h10.14l13.93,20,13.41-20h10.45l-18.79,26.5L1176.14,713h-10.45l-14-20.69L1137.93,713h-10.45Z"/><path class="cls-1" d="M1196.67,713.59a13.65,13.65,0,0,1-4.69-2.9,13.19,13.19,0,0,1-3.17-4.73,17.84,17.84,0,0,1-1.06-6.55V667.27h-9.39v-8.13h9.39v-15.2h9v15.2h13.09v8.13h-13.09v30q0,4.54,1.68,6.69a7.17,7.17,0,0,0,5.81,2.38,10.92,10.92,0,0,0,5.91-1.8v8.76a13.35,13.35,0,0,1-3.22,1.06,22.64,22.64,0,0,1-4.17.32A16.74,16.74,0,0,1,1196.67,713.59Z"/><path class="cls-1" d="M1219.68,711.12a6.09,6.09,0,0,1-2-4.58,6,6,0,0,1,2-4.47,6.74,6.74,0,0,1,4.81-1.87,6.6,6.6,0,0,1,4.7,1.87,6,6,0,0,1,2,4.47,6.09,6.09,0,0,1-2,4.58,6.59,6.59,0,0,1-4.7,1.86A6.73,6.73,0,0,1,1219.68,711.12Z"/><path class="cls-1" d="M1277.06,646h-21.22V637.4h51.3V646H1286v67h-9Z"/><path class="cls-1" d="M1308.2,659.14h8.55v8.66h.42a14.67,14.67,0,0,1,6.12-7.39,17.16,17.16,0,0,1,9.5-3,15.78,15.78,0,0,1,6.34,1.16v9.61a16.75,16.75,0,0,0-7.6-1.69,12.51,12.51,0,0,0-7.18,2.22,16,16,0,0,0-5.23,6,17.29,17.29,0,0,0-1.95,8.09V713h-9Z"/><path class="cls-1" d="M1350.21,712.34A17.31,17.31,0,0,1,1343,706a17.09,17.09,0,0,1-2.53-9.24q0-8.55,6.44-13.35t16.25-4.81a36.9,36.9,0,0,1,9,1.06,23.1,23.1,0,0,1,6.39,2.43v-3.27a12.11,12.11,0,0,0-4.23-9.66,15.72,15.72,0,0,0-10.66-3.64,18,18,0,0,0-8.34,1.95,15.18,15.18,0,0,0-6,5.43l-6.76-5.06a21.52,21.52,0,0,1,8.71-7.6,27.3,27.3,0,0,1,12.3-2.75q11,0,17.26,5.76t6.28,15.67V713h-8.55v-7.71h-.43a19.16,19.16,0,0,1-7,6.65,20.16,20.16,0,0,1-10.45,2.75A23.3,23.3,0,0,1,1350.21,712.34Zm19.85-7.91a17.59,17.59,0,0,0,6.22-6.23,16.39,16.39,0,0,0,2.33-8.55,22.29,22.29,0,0,0-6.23-2.75,28.49,28.49,0,0,0-7.81-1q-7.39,0-11.14,3.06a9.75,9.75,0,0,0-3.75,7.92,8.83,8.83,0,0,0,3.38,7.18,13.11,13.11,0,0,0,8.55,2.74A16.24,16.24,0,0,0,1370.06,704.43Z"/><path class="cls-1" d="M1397.5,659.14h8.55v7.92h.42a18.12,18.12,0,0,1,7.08-6.81,20.41,20.41,0,0,1,10.34-2.8q9.72,0,14.83,5.65t5.12,15.36V713h-9V679.83q0-7.49-3.59-10.87t-9.82-3.38a13.07,13.07,0,0,0-7.75,2.43,16.36,16.36,0,0,0-5.34,6.39,19,19,0,0,0-1.9,8.28V713h-9Z"/><path class="cls-1" d="M1458.41,710.6a22.1,22.1,0,0,1-8.23-10.4l8-3.58a16.15,16.15,0,0,0,6,7.49,15.39,15.39,0,0,0,8.71,2.64,17.16,17.16,0,0,0,8.66-2.06,6.59,6.59,0,0,0,.74-11.29c-1.9-1.38-4.89-2.55-9-3.54l-6.54-1.69a23.54,23.54,0,0,1-10.56-5.38,13.61,13.61,0,0,1-1.32-18,18,18,0,0,1,7.45-5.44,26.32,26.32,0,0,1,10-1.9,25.68,25.68,0,0,1,12.62,3.06,17.41,17.41,0,0,1,7.86,8.55l-7.81,3.59q-3.59-7.17-12.77-7.17a14.46,14.46,0,0,0-7.76,2q-3.33,2.07-3.33,5.23a5.85,5.85,0,0,0,2.33,4.8,18.4,18.4,0,0,0,7,3l7.82,2q7.9,2,11.92,6a13,13,0,0,1,4,9.66,14,14,0,0,1-2.85,8.71,18,18,0,0,1-7.71,5.75,27.92,27.92,0,0,1-10.77,2Q1464.22,714.67,1458.41,710.6Z"/><path class="cls-1" d="M1508.13,667.27h-9.92v-8.13h9.92v-5.8a16.64,16.64,0,0,1,2.32-8.87,15.74,15.74,0,0,1,6.23-5.86,18.3,18.3,0,0,1,8.66-2.06,22.36,22.36,0,0,1,7.91,1.27v8.76a37,37,0,0,0-3.59-1.21,14.73,14.73,0,0,0-4-.48,8.29,8.29,0,0,0-6,2.48,9.25,9.25,0,0,0-2.54,6.92v4.85h13.83v8.13H1517.1V713h-9Z"/><path class="cls-1" d="M1547.08,710.87a26.62,26.62,0,0,1-9.87-10.35,31.38,31.38,0,0,1,0-28.92,26.62,26.62,0,0,1,9.87-10.35,28.62,28.62,0,0,1,28.5,0,26.55,26.55,0,0,1,9.87,10.35,31.3,31.3,0,0,1,0,28.92,26.55,26.55,0,0,1-9.87,10.35,28.62,28.62,0,0,1-28.5,0Zm23.49-6.81a18.27,18.27,0,0,0,6.86-7.13,24.11,24.11,0,0,0,0-21.74,18.34,18.34,0,0,0-6.86-7.13,18.13,18.13,0,0,0-9.24-2.48,18.31,18.31,0,0,0-16.2,9.61,24.11,24.11,0,0,0,0,21.74,18.18,18.18,0,0,0,6.91,7.13,18.42,18.42,0,0,0,9.29,2.48A18.13,18.13,0,0,0,1570.57,704.06Z"/><path class="cls-1" d="M1596.27,659.14h8.55v8.66h.43a14.62,14.62,0,0,1,6.12-7.39,17.14,17.14,0,0,1,9.5-3,15.73,15.73,0,0,1,6.33,1.16v9.61a16.69,16.69,0,0,0-7.6-1.69,12.55,12.55,0,0,0-7.18,2.22,16,16,0,0,0-5.22,6,17.29,17.29,0,0,0-2,8.09V713h-9Z"/><path class="cls-1" d="M1633.75,659.14h8.55v7.92h.42a18.6,18.6,0,0,1,7-6.86,19,19,0,0,1,9.82-2.75,18.44,18.44,0,0,1,10.29,2.85,16,16,0,0,1,6.28,7.6,22,22,0,0,1,7.55-7.6,20.63,20.63,0,0,1,10.92-2.85q9.29,0,14,5.65t4.7,15.36V713h-8.87V679.83q0-7.49-3.06-10.87t-9.08-3.38a12.32,12.32,0,0,0-7.28,2.32,15.65,15.65,0,0,0-5.12,6.23,19.41,19.41,0,0,0-1.85,8.45V713h-9v-33q0-7.61-3.07-11t-9-3.38a12.07,12.07,0,0,0-7.28,2.38,16,16,0,0,0-5.12,6.33,19.87,19.87,0,0,0-1.85,8.5V713h-9Z"/><path class="cls-1" d="M1748.18,637.4H1757v67h33.15V713h-42Z"/><path class="cls-1" d="M1806.87,711a25.7,25.7,0,0,1-9.56-10.18,30.89,30.89,0,0,1-3.43-14.62,32.16,32.16,0,0,1,3.22-14.36,26.08,26.08,0,0,1,9.13-10.45,24.37,24.37,0,0,1,13.73-3.91,25.83,25.83,0,0,1,13.72,3.54,23.52,23.52,0,0,1,8.92,9.76,31.44,31.44,0,0,1,3.11,14.25,10.58,10.58,0,0,1-.31,2.75h-42.54a21.24,21.24,0,0,0,3,10.34,17.24,17.24,0,0,0,6.71,6.34,18.12,18.12,0,0,0,8.49,2.11q10.35,0,15.94-9.71l7.6,3.69a27.13,27.13,0,0,1-9.44,10.35,28.45,28.45,0,0,1-28.24.1Zm29.34-30.61a17.46,17.46,0,0,0-1.9-6.76,14.4,14.4,0,0,0-5.33-5.7,16.74,16.74,0,0,0-9.13-2.32,15.2,15.2,0,0,0-10.71,4.06,19.63,19.63,0,0,0-5.76,10.72Z"/><path class="cls-1" d="M1862.55,733a21.64,21.64,0,0,1-8.29-10.66l8.13-3.48a16.11,16.11,0,0,0,6,7.55,16.87,16.87,0,0,0,9.87,2.9q8.34,0,12.94-4.65t4.59-13.3v-6h-.42a19.75,19.75,0,0,1-7.45,6.7,22.7,22.7,0,0,1-10.92,2.59,23.33,23.33,0,0,1-12.72-3.63,25.62,25.62,0,0,1-9.13-10.14,34.14,34.14,0,0,1,0-29.62,25.52,25.52,0,0,1,9.13-10.2,23.33,23.33,0,0,1,12.72-3.63,22.7,22.7,0,0,1,10.92,2.59,19.37,19.37,0,0,1,7.45,6.81h.42v-7.71h8.55v51.73q0,13-7.18,19.79t-18.9,6.81Q1868.73,737.47,1862.55,733Zm24.49-29a17.53,17.53,0,0,0,6.33-7.07,26.56,26.56,0,0,0,0-22,17.16,17.16,0,0,0-6.33-7,17.23,17.23,0,0,0-17.68.06,17.38,17.38,0,0,0-6.39,7.07,23.66,23.66,0,0,0-2.37,10.94,24,24,0,0,0,2.37,11,16.62,16.62,0,0,0,15.25,9.49A16.3,16.3,0,0,0,1887,704.07Z"/><path class="cls-1" d="M1921.61,712.34a17.31,17.31,0,0,1-7.18-6.38,17.09,17.09,0,0,1-2.53-9.24q0-8.55,6.44-13.35t16.25-4.81a36.9,36.9,0,0,1,9,1.06,23.1,23.1,0,0,1,6.39,2.43v-3.27a12.11,12.11,0,0,0-4.23-9.66,15.72,15.72,0,0,0-10.66-3.64,18,18,0,0,0-8.34,1.95,15.18,15.18,0,0,0-6,5.43L1914,667.8a21.52,21.52,0,0,1,8.71-7.6,27.3,27.3,0,0,1,12.3-2.75q11,0,17.26,5.76t6.28,15.67V713H1950v-7.71h-.43a19.16,19.16,0,0,1-7,6.65,20.16,20.16,0,0,1-10.45,2.75A23.27,23.27,0,0,1,1921.61,712.34Zm19.85-7.91a17.59,17.59,0,0,0,6.22-6.23,16.39,16.39,0,0,0,2.33-8.55,22.29,22.29,0,0,0-6.23-2.75,28.49,28.49,0,0,0-7.81-1q-7.4,0-11.14,3.06a9.75,9.75,0,0,0-3.75,7.92,8.83,8.83,0,0,0,3.38,7.18,13.11,13.11,0,0,0,8.55,2.74A16.24,16.24,0,0,0,1941.46,704.43Z"/><path class="cls-1" d="M1978.72,710.92a26.14,26.14,0,0,1-9.71-10.24,32.47,32.47,0,0,1,0-29.29,25.62,25.62,0,0,1,9.71-10.24,26.92,26.92,0,0,1,14-3.7q8.76,0,14.72,4.07a22.21,22.21,0,0,1,8.5,10.82l-8.13,3.37a15.7,15.7,0,0,0-6-7.54,17,17,0,0,0-9.55-2.59,16.31,16.31,0,0,0-8.87,2.59,18.65,18.65,0,0,0-6.6,7.23,24.15,24.15,0,0,0,0,21.32,18.65,18.65,0,0,0,6.6,7.23,16.31,16.31,0,0,0,8.87,2.59,17.76,17.76,0,0,0,9.81-2.64,15.79,15.79,0,0,0,6.13-7.5l8,3.38a23.64,23.64,0,0,1-8.82,10.77,25.62,25.62,0,0,1-14.72,4.12A26.67,26.67,0,0,1,1978.72,710.92Z"/><path class="cls-1" d="M2040.37,709.6l-22.28-50.46h9.71l16.89,40h.21l16.26-40h9.71l-33.25,76.64h-9.29Z"/><path class="cls-1" d="M2070,711.12a6.06,6.06,0,0,1-2-4.58,5.93,5.93,0,0,1,2-4.47,6.7,6.7,0,0,1,4.8-1.87,6.6,6.6,0,0,1,4.7,1.87,6,6,0,0,1,1.95,4.47,6.09,6.09,0,0,1-1.95,4.58,6.59,6.59,0,0,1-4.7,1.86A6.69,6.69,0,0,1,2070,711.12Z"/><path class="cls-1" d="M2131.57,650.91h-21.11V637.4h56.47v13.51h-21.11V713h-14.25Z"/><path class="cls-1" d="M2176.75,710.92a26.66,26.66,0,0,1-10.19-10.24,31.08,31.08,0,0,1,0-29.19,26.59,26.59,0,0,1,10.19-10.29,31.2,31.2,0,0,1,29.66,0,26.52,26.52,0,0,1,10.19,10.29,31.08,31.08,0,0,1,0,29.19,26.59,26.59,0,0,1-10.19,10.24,31.2,31.2,0,0,1-29.66,0ZM2199,700a13.83,13.83,0,0,0,5.39-5.49,17.08,17.08,0,0,0,2-8.44,16.87,16.87,0,0,0-2-8.34,14,14,0,0,0-5.39-5.49,15.3,15.3,0,0,0-14.77,0,14.28,14.28,0,0,0-5.44,5.49,16.48,16.48,0,0,0-2.06,8.34,16.77,16.77,0,0,0,2.06,8.39,14.08,14.08,0,0,0,5.44,5.54,15.3,15.3,0,0,0,14.77,0Z"/><path class="cls-1" d="M2236.5,732.88a22.71,22.71,0,0,1-9.08-11l13-5.28a13.9,13.9,0,0,0,13.09,8.65q6.56,0,10.4-4t3.85-11.4v-4.22h-.84a16.46,16.46,0,0,1-6.65,5.49,22.32,22.32,0,0,1-9.4,1.9,23.85,23.85,0,0,1-12.4-3.43,25.43,25.43,0,0,1-9.24-9.71,32.47,32.47,0,0,1,0-29.25,25.43,25.43,0,0,1,9.24-9.71,23.85,23.85,0,0,1,12.4-3.43,22.32,22.32,0,0,1,9.4,1.9,16.46,16.46,0,0,1,6.65,5.49h.84v-5.7H2281v50.14a31.44,31.44,0,0,1-3.37,15,23.63,23.63,0,0,1-9.61,9.77,29.8,29.8,0,0,1-14.57,3.43Q2243.26,737.47,2236.5,732.88Zm27.13-36.53q4.11-4.07,4.11-11.13,0-7.29-4.06-11.25a14.53,14.53,0,0,0-20,.06q-4.12,4-4.12,11.19t4.12,11.18a13.79,13.79,0,0,0,10,4A13.64,13.64,0,0,0,2263.63,696.35Z"/><path class="cls-1" d="M2302.68,711a26.5,26.5,0,0,1-10.08-10.18,30.75,30.75,0,0,1,0-28.93,27.58,27.58,0,0,1,9.92-10.5,26.48,26.48,0,0,1,14.15-3.91A27.58,27.58,0,0,1,2331,661a23.43,23.43,0,0,1,9.13,9.82,30.55,30.55,0,0,1,3.11,13.83,32.93,32.93,0,0,1-.32,4.64h-40.43q1.07,6.45,5.12,9.77a15,15,0,0,0,9.77,3.32,15.56,15.56,0,0,0,8.18-2.06,15.21,15.21,0,0,0,5.44-5.54l11.18,5.49q-8.22,14.36-25,14.36A28.61,28.61,0,0,1,2302.68,711Zm27.24-31.46a10.7,10.7,0,0,0-1.85-5,13,13,0,0,0-4.54-4.12,13.62,13.62,0,0,0-6.81-1.63,13,13,0,0,0-8.49,2.9,16.27,16.27,0,0,0-5.12,7.86Z"/><path class="cls-1" d="M2366.23,713.43a14.6,14.6,0,0,1-5.49-3.39q-5-4.85-5-13.78V671h-9.39V659.14h9.39v-15.2h13.83v15.2h13.2V671h-13.2v22.91q0,4.23,1.79,6.08,1.48,1.72,5.07,1.73a8.87,8.87,0,0,0,3.33-.53,25.93,25.93,0,0,0,3.43-1.79v13.51a25.85,25.85,0,0,1-9.61,1.8A21.46,21.46,0,0,1,2366.23,713.43Z"/><path class="cls-1" d="M2392.73,637.4h13.83v19.1l-.85,9.4h.85a16.79,16.79,0,0,1,6.75-6.13,20.51,20.51,0,0,1,9.61-2.32q9.81,0,15,5.86t5.22,16.2V713h-13.82V681.2c0-3.44-.94-6.12-2.8-8a10,10,0,0,0-7.44-2.85,11.07,11.07,0,0,0-9,4.43,16.9,16.9,0,0,0-3.53,10.88V713h-13.83Z"/><path class="cls-1" d="M2464.93,711a26.5,26.5,0,0,1-10.08-10.18,30.75,30.75,0,0,1,0-28.93,27.58,27.58,0,0,1,9.92-10.5,26.42,26.42,0,0,1,14.14-3.91,27.55,27.55,0,0,1,14.36,3.59,23.43,23.43,0,0,1,9.13,9.82,30.43,30.43,0,0,1,3.12,13.83,32.93,32.93,0,0,1-.32,4.64h-40.43q1.05,6.45,5.12,9.77a15,15,0,0,0,9.76,3.32,15.51,15.51,0,0,0,8.18-2.06,15.21,15.21,0,0,0,5.44-5.54l11.19,5.49q-8.23,14.36-25,14.36A28.55,28.55,0,0,1,2464.93,711Zm27.23-31.46a10.68,10.68,0,0,0-1.84-5,13.15,13.15,0,0,0-4.54-4.12,13.67,13.67,0,0,0-6.81-1.63,13,13,0,0,0-8.5,2.9,16.34,16.34,0,0,0-5.12,7.86Z"/><path class="cls-1" d="M2514,659.14h13v7.18h.84a16.35,16.35,0,0,1,6.23-6.33,17.72,17.72,0,0,1,9.29-2.54,17.47,17.47,0,0,1,6.76,1.27v13.72a45.9,45.9,0,0,0-4.81-1.53,17.41,17.41,0,0,0-4.17-.47,11.83,11.83,0,0,0-9.71,4.44,17.29,17.29,0,0,0-3.59,11.22V713H2514Z"/><path class="cls-1" d="M2549.32,710.38a8.41,8.41,0,0,1-2.69-6.27,8.25,8.25,0,0,1,2.69-6.21,9.55,9.55,0,0,1,13,0,8.25,8.25,0,0,1,2.69,6.21,8.41,8.41,0,0,1-2.69,6.27,9.41,9.41,0,0,1-13,0Z"/><path class="cls-1" d="M925,393.91a49.54,49.54,0,1,1-99.08,0l-1-79.26,0-1.28a49.54,49.54,0,1,1,99.08,0l1,79.26Z"/><circle class="cls-1" cx="875.48" cy="514.29" r="49.54"/><path class="cls-1" d="M737.34,455.44l-174,100.45A49.56,49.56,0,0,1,489,513V312a49.56,49.56,0,0,1,74.32-42.86l173.3,100.06.68.39h0a49.5,49.5,0,0,1,0,85.8Z"/><path class="cls-1" d="M421.82,437.3a49.14,49.14,0,0,1-18.13,18.14l-.43.25L229.71,555.89a49.54,49.54,0,1,1-49.54-85.81l99.66-57.55L180.17,355a49.54,49.54,0,1,1,49.54-85.81l174,100.45A49.52,49.52,0,0,1,421.82,437.3Z"/><path class="cls-1" d="M996.19,302.85h66.57q33.9,0,59.17,14a96.56,96.56,0,0,1,38.83,39q13.56,25,13.56,57.32t-13.56,57.32a96.59,96.59,0,0,1-38.83,39q-25.28,14-59.17,14H996.19Zm66.57,195.7q39.13,0,62.1-22.5t23-62.87q0-40.37-23-62.87t-62.1-22.49h-40.68V498.55Z"/><path class="cls-1" d="M1206.67,302.85h127.59v25h-101.7v73h91.84v24.66h-91.84v73h101.7v25H1206.67Z"/><path class="cls-1" d="M1350,302.85h29l54.55,160,7.39,21.88h1.24l7.7-21.88,57-159.95h29l-80.74,220.66h-27.12Z"/><path class="cls-1" d="M1558.3,302.85h127.58v25h-101.7v75.5H1676V428h-91.84v95.54H1558.3Z"/><path class="cls-1" d="M1715.77,302.85h127.58v25H1741.66v73h91.83v24.66h-91.83v73h101.69v25H1715.77Z"/><path class="cls-1" d="M1893.59,512.72Q1872,497,1864,468.65l25-10.17q5.24,19.72,19.42,32.36a48.36,48.36,0,0,0,33.28,12.64q19.11,0,32.36-10.33t13.25-28.2A32.55,32.55,0,0,0,1976,439.53q-11.25-10-36.83-18.65L1925.33,416q-23.43-8.31-38.22-21.88t-14.79-37.59a52.82,52.82,0,0,1,8.63-29.13,61.71,61.71,0,0,1,24-21.41,73.67,73.67,0,0,1,34.51-8q19.11,0,33.29,7.09t22.65,17.26q8.47,10.17,11.86,20l-24.65,10.48q-3.09-11.4-14-20.65t-28.82-9.24q-16.95,0-29,9.55t-12,24A25.83,25.83,0,0,0,1909,377.59q10.17,8.16,30.82,15.25l14.49,4.93q28,10.17,43.76,25.43t15.71,41.45q0,21.25-10.94,35.74a64.41,64.41,0,0,1-27.58,21.27,90.06,90.06,0,0,1-34.21,6.78A78.76,78.76,0,0,1,1893.59,512.72Z"/><path class="cls-1" d="M2088.35,327.82h-61.94v-25h149.77v25h-61.64V523.51h-26.19Z"/><path class="cls-1" d="M2286.5,420.88l-74.27-118h49.62l44.07,73h2.46l42.53-73h50.23l-73,118V523.51h-41.6Z"/><path class="cls-1" d="M2476.64,420.88l-74.26-118H2452l44.07,73h2.47l42.52-73h50.24l-73,118V523.51h-41.61Z"/><path class="cls-1" d="M2646.76,513.18a111.9,111.9,0,0,1-41.76-41.6q-15.26-26.35-15.25-58.4t15.25-58.4a112,112,0,0,1,41.76-41.6q26.5-15.26,58.55-15.26,49.92,0,82.59,36.06l-29.27,28.35q-21.27-25-53-25a76.17,76.17,0,0,0-37.6,9.4,67.94,67.94,0,0,0-26.66,26.66q-9.71,17.25-9.7,39.75t9.7,39.75A67.88,67.88,0,0,0,2668,479.59a76.17,76.17,0,0,0,37.6,9.4q34.82,0,58.24-29l29.59,28.05a109.25,109.25,0,0,1-38.68,30q-22.35,10.33-49.46,10.33Q2673.26,528.44,2646.76,513.18Z"/></svg>