<svg id="Layer_1" data-name="Layer 1" xmlns="http://www.w3.org/2000/svg" viewBox="0 0 9000 600"><defs><style>.cls-1{fill:#fbbc04;}.cls-2{fill:#4285f4;}.cls-3{fill:#676c72;}.cls-4{fill:#0f9d58;}.cls-5{fill:#ea4335;}.cls-6{fill:none;}</style></defs><title>020 DevFestYYC Tracks Hz</title><path class="cls-1" d="M2226.05,162.48l-3.7,3.7A49.68,49.68,0,0,1,2226.05,162.48Z"/><path class="cls-2" d="M2308.72,199.31V400.22a49.54,49.54,0,0,1-49.54,49.54H2058.27a49.54,49.54,0,0,1-36.83-82.67l204.61-204.61a49.54,49.54,0,0,1,82.67,36.83Z"/><path class="cls-1" d="M2125.68,262.85l-3.87,3.87A50.47,50.47,0,0,1,2125.68,262.85Z"/><circle class="cls-2" cx="2058.27" cy="199.31" r="49.54"/><path class="cls-3" d="M2454.6,219.33h48.53q24.72,0,43.14,10.22A70.41,70.41,0,0,1,2574.58,258q9.89,18.21,9.89,41.8t-9.89,41.79A70.35,70.35,0,0,1,2546.27,370q-18.42,10.23-43.14,10.23H2454.6ZM2503.13,362q28.53,0,45.28-16.41t16.74-45.83q0-29.44-16.74-45.84t-45.28-16.4h-29.66V362Z"/><path class="cls-3" d="M2647.61,219.33h21.57l61.11,160.88H2709.4l-16.18-44.27h-69.43l-16.18,44.27h-20.9ZM2686.7,318l-21.34-58-6.52-17.31h-.9L2651.65,260l-21.34,58Z"/><path class="cls-3" d="M2765.57,237.53h-45.16v-18.2h109.2v18.2h-44.94V380.21h-19.1Z"/><path class="cls-3" d="M2880.84,219.33h21.57l61.12,160.88h-20.9l-16.18-44.27H2857l-16.18,44.27H2820Zm39.1,98.64-21.35-58-6.52-17.31h-.89l-6.3,17.31-21.34,58Z"/><path class="cls-3" d="M3126,353l15.28,20-14.38,10.78-11.46-15.28a52,52,0,0,1-37.53,15.28,59.45,59.45,0,0,1-29.32-7.41,55.7,55.7,0,0,1-21.12-20.34,54.59,54.59,0,0,1-7.75-28.65,51.22,51.22,0,0,1,7.64-26.85A61.58,61.58,0,0,1,3048,279.77l-.23-.23a75.1,75.1,0,0,1-8.76-14,31.31,31.31,0,0,1-2.92-13.14,34.37,34.37,0,0,1,5.17-18.32,38.62,38.62,0,0,1,33-18.31q13.47,0,22.69,7.75a41.87,41.87,0,0,1,13,19.44l-16.4,8.76a42.27,42.27,0,0,0-7.3-12.69q-4.38-5.06-12-5.06a19.25,19.25,0,0,0-13.71,5.06q-5.39,5.06-5.39,13.37a24.66,24.66,0,0,0,5.62,15.5L3115,338.64l14.83-25.39,15,9Zm-21.12,1.57-46.29-60.89a41.17,41.17,0,0,0-15.5,14.27,35,35,0,0,0-5.85,19.21,38.49,38.49,0,0,0,5.4,20.22,38,38,0,0,0,14.71,14.05,42.45,42.45,0,0,0,20.56,5.05Q3094.29,366.5,3104.86,354.59Z"/><path class="cls-3" d="M3251.8,219.33h21.57l61.12,160.88h-20.9l-16.18-44.27H3228l-16.18,44.27h-20.9ZM3290.9,318l-21.35-58L3263,242.69h-.9L3255.85,260l-21.35,58Z"/><path class="cls-3" d="M3351.34,219.33h18.87V380.21h-18.87Z"/><circle class="cls-4" cx="6395.89" cy="199.31" r="49.54"/><circle class="cls-1" cx="6496.34" cy="199.31" r="49.54"/><circle class="cls-2" cx="6596.8" cy="199.31" r="49.54"/><circle class="cls-2" cx="6395.89" cy="400.22" r="49.54"/><circle class="cls-5" cx="6496.34" cy="400.22" r="49.54"/><circle class="cls-5" cx="6596.8" cy="400.22" r="49.54"/><circle class="cls-1" cx="6395.89" cy="299.77" r="49.54"/><circle class="cls-2" cx="6496.34" cy="299.77" r="49.54"/><circle class="cls-5" cx="6596.8" cy="299.77" r="49.54"/><path class="cls-3" d="M6792.21,219.33h48.54q24.7,0,43.14,10.22A70.44,70.44,0,0,1,6912.2,258q9.89,18.19,9.89,41.79t-9.89,41.79A70.44,70.44,0,0,1,6883.89,370q-18.44,10.22-43.14,10.22h-48.54ZM6840.75,362q28.53,0,45.27-16.4t16.74-45.84q0-29.43-16.74-45.84t-45.27-16.4h-29.66V362Z"/><path class="cls-3" d="M6945.67,219.33h93v18.2h-74.15v53.25h67v18h-67V362h74.15v18.2h-93Z"/><path class="cls-3" d="M7050.16,219.33h21.12L7111.05,336l5.39,15.95h.9L7123,336l41.57-116.62h21.12l-58.87,160.88H7107Z"/><path class="cls-3" d="M7249.68,219.33h54.15a52.41,52.41,0,0,1,24.94,6.07,47.61,47.61,0,0,1,18.32,17,47.62,47.62,0,0,1,0,49.21,47.53,47.53,0,0,1-18.32,17,52.41,52.41,0,0,1-24.94,6.07h-35.28v65.61h-18.87Zm54.6,77.07a29.3,29.3,0,0,0,15.84-4.27,30.66,30.66,0,0,0,10.68-11,28.14,28.14,0,0,0,0-28.31,30.66,30.66,0,0,0-10.68-11,29.3,29.3,0,0,0-15.84-4.27h-35.73V296.4Z"/><path class="cls-3" d="M7374.61,219.33H7429a52,52,0,0,1,24.72,6.07,47.51,47.51,0,0,1,18.31,17,45.26,45.26,0,0,1,6.86,24.6,44.39,44.39,0,0,1-5.06,20.9A46.63,46.63,0,0,1,7459.88,304a50.08,50.08,0,0,1-19.66,8.76l-.45.68,45.39,65.83v.9h-22.47l-43.82-65.61h-25.39v65.61h-18.87Zm53.25,77.52a33.19,33.19,0,0,0,15.62-3.82,30.32,30.32,0,0,0,11.68-10.67,28.71,28.71,0,0,0,.56-29.55,30.63,30.63,0,0,0-10.67-11,29.3,29.3,0,0,0-15.84-4.27h-35.73v59.32Z"/><path class="cls-3" d="M7534.37,372.57a80.88,80.88,0,0,1-29.66-30.45,88.29,88.29,0,0,1,0-84.59A82.92,82.92,0,0,1,7618.4,227a81.62,81.62,0,0,1,29.77,30.56,87.9,87.9,0,0,1,.11,84.59,83.28,83.28,0,0,1-113.91,30.45Zm73.81-15.39a61.41,61.41,0,0,0,22.92-23.37q8.41-14.94,8.42-34t-8.42-34a61.41,61.41,0,0,0-22.92-23.37,62.56,62.56,0,0,0-86.4,23.48,71.67,71.67,0,0,0,0,67.86,62.15,62.15,0,0,0,22.92,23.48,64,64,0,0,0,63.48,0Z"/><path class="cls-3" d="M7714.12,372.79a81.74,81.74,0,0,1-30.33-30.33,86.69,86.69,0,0,1,0-85.38,82.51,82.51,0,0,1,72.12-41.35,88.33,88.33,0,0,1,33.37,6.3A67,67,0,0,1,7815,239.78l-13.71,13.7A49.57,49.57,0,0,0,7781.75,239a66.41,66.41,0,0,0-57.41,3.15,62.49,62.49,0,0,0-23.59,23.14q-8.88,14.94-8.87,34.49t8.87,34.49a62.17,62.17,0,0,0,23.71,23.14,64.39,64.39,0,0,0,31.68,8.2q16.17,0,27.07-5.05A60.77,60.77,0,0,0,7802,347.18a49.18,49.18,0,0,0,9.43-15.17,66.78,66.78,0,0,0,4.5-19.66h-59.55V294.6h77.3a66.69,66.69,0,0,1,1.12,11.69,90,90,0,0,1-4.72,28.87,63.69,63.69,0,0,1-15.05,24.6q-22.24,24-59.1,24A82.09,82.09,0,0,1,7714.12,372.79Z"/><path class="cls-3" d="M7858.6,219.33H7913a52,52,0,0,1,24.72,6.07,47.51,47.51,0,0,1,18.31,17,45.25,45.25,0,0,1,6.85,24.6,44.38,44.38,0,0,1-5.05,20.9A46.73,46.73,0,0,1,7943.87,304a50.08,50.08,0,0,1-19.66,8.76l-.45.68,45.39,65.83v.9h-22.47l-43.82-65.61h-25.39v65.61H7858.6Zm53.25,77.52a33.22,33.22,0,0,0,15.62-3.82,30.32,30.32,0,0,0,11.68-10.67,28.71,28.71,0,0,0,.56-29.55,30.63,30.63,0,0,0-10.67-11,29.3,29.3,0,0,0-15.84-4.27h-35.73v59.32Z"/><path class="cls-3" d="M8032.06,219.33h21.57l61.12,160.88h-20.9L8077.67,336h-69.43l-16.18,44.26h-20.89Zm39.1,98.64-21.35-58-6.52-17.3h-.9L8036.1,260l-21.34,58Z"/><path class="cls-3" d="M8131.6,219.33h27.63l51.23,131.89h.9l51.23-131.89h27.64V380.21h-18.87V278l.9-30.55h-.9l-52.58,132.79h-15.73l-52.58-132.79h-.9l.9,30.55V380.21H8131.6Z"/><path class="cls-3" d="M8332,372.35q-15.72-11.46-21.57-32.14l18.2-7.41a46.92,46.92,0,0,0,14.16,23.59,35.26,35.26,0,0,0,24.27,9.21q13.92,0,23.59-7.52t9.66-20.56a23.77,23.77,0,0,0-8.2-18.54q-8.2-7.29-26.85-13.59l-10.11-3.6q-17.08-6.06-27.87-16t-10.78-27.41a38.54,38.54,0,0,1,6.29-21.24,44.93,44.93,0,0,1,17.53-15.61,53.63,53.63,0,0,1,25.16-5.85q13.94,0,24.27,5.17a50.46,50.46,0,0,1,16.51,12.59,46.87,46.87,0,0,1,8.65,14.6l-18,7.64q-2.25-8.31-10.22-15.06t-21-6.74q-12.36,0-21.12,7t-8.77,17.53a18.83,18.83,0,0,0,7.42,15.39q7.41,6,22.47,11.12l10.56,3.6q20.44,7.41,31.9,18.53t11.46,30.22q0,15.51-8,26.07a47,47,0,0,1-20.11,15.5,65.47,65.47,0,0,1-24.94,4.94A57.46,57.46,0,0,1,8332,372.35Z"/><rect class="cls-6" x="580.35" y="150.23" width="299.99" height="299.99" rx="49.54"/><path class="cls-1" d="M861.06,324.54a49.14,49.14,0,0,1-18.13,18.14l-.43.25L669,443.13a49.54,49.54,0,1,1-49.54-85.81l99.66-57.55-99.66-57.54A49.54,49.54,0,1,1,669,156.42l174,100.45A49.52,49.52,0,0,1,861.06,324.54Z"/><path class="cls-3" d="M1059.24,373a79.58,79.58,0,0,1-30-30.23q-10.9-19.2-10.9-42.8t10.9-42.8a79.65,79.65,0,0,1,30-30.23,83.59,83.59,0,0,1,42.47-11,78.05,78.05,0,0,1,32.92,6.86,76.69,76.69,0,0,1,25.95,19.43l-13.71,13.26q-9.21-11-20.11-16.18t-25-5.16a64.44,64.44,0,0,0-32.13,8.2,61.09,61.09,0,0,0-23.26,23.14q-8.65,14.94-8.65,34.49t8.65,34.49a61,61,0,0,0,23.26,23.14,64.44,64.44,0,0,0,32.13,8.2q29.2,0,49.66-24l13.93,13.48a81.08,81.08,0,0,1-27.64,21,87.3,87.3,0,0,1-78.42-3.25Z"/><path class="cls-3" d="M1217.2,372.8a81,81,0,0,1-29.66-30.45,88.36,88.36,0,0,1,0-84.59,82.93,82.93,0,0,1,113.7-30.56A81.62,81.62,0,0,1,1331,257.76a87.9,87.9,0,0,1,.11,84.59A83.26,83.26,0,0,1,1217.2,372.8ZM1291,357.41A61.26,61.26,0,0,0,1313.93,334q8.43-14.94,8.43-34t-8.43-34A61.26,61.26,0,0,0,1291,242.59a62.09,62.09,0,0,0-31.79-8.42,61.46,61.46,0,0,0-31.68,8.42,62.22,62.22,0,0,0-22.92,23.48q-8.55,15.06-8.54,33.93t8.54,33.93a62.15,62.15,0,0,0,22.92,23.48,61.46,61.46,0,0,0,31.68,8.42A62.09,62.09,0,0,0,1291,357.41Z"/><path class="cls-3" d="M1365.5,219.56H1414q24.72,0,43.14,10.22a70.4,70.4,0,0,1,28.32,28.43q9.88,18.19,9.88,41.79t-9.88,41.79a70.4,70.4,0,0,1-28.32,28.43q-18.42,10.23-43.14,10.22H1365.5ZM1414,362.24q28.54,0,45.28-16.4T1476.05,300q0-29.43-16.74-45.84T1414,237.76h-29.66V362.24Z"/><path class="cls-3" d="M1519,219.56h93v18.2h-74.15V291h67v18h-67v53.25H1612v18.2h-93Z"/><path class="cls-3" d="M4210.94,219.33h18.88V380.21h-18.88Z"/><path class="cls-3" d="M4261.27,219.33h23.37L4365.3,347.4h.9l-.9-31V219.33h19.1V380.21h-19.77l-84.49-134.14h-.89l.89,31V380.21h-18.87Z"/><path class="cls-3" d="M4415.86,219.33h93v18.2h-74.15v55h67v18h-67v69.66h-18.87Z"/><path class="cls-3" d="M4530.67,219.33h54.38a52,52,0,0,1,24.72,6.07,47.51,47.51,0,0,1,18.31,17,45.25,45.25,0,0,1,6.85,24.6,44.38,44.38,0,0,1-5.05,20.9A46.73,46.73,0,0,1,4616,304a50.05,50.05,0,0,1-19.67,8.76l-.44.68,45.38,65.83v.9h-22.47l-43.81-65.61h-25.39v65.61h-18.88Zm53.26,77.52a33.15,33.15,0,0,0,15.61-3.82,30.28,30.28,0,0,0,11.69-10.67,28,28,0,0,0,4.38-15.4,28.35,28.35,0,0,0-3.82-14.15,30.72,30.72,0,0,0-10.67-11,29.36,29.36,0,0,0-15.85-4.27h-35.72v59.32Z"/><path class="cls-3" d="M4704.14,219.33h21.57l61.11,160.88h-20.89L4749.75,336h-69.43l-16.18,44.26h-20.89ZM4743.23,318l-21.34-58-6.52-17.3h-.9l-6.29,17.3-21.34,58Z"/><path class="cls-3" d="M4814,372.35q-15.73-11.46-21.57-32.14l18.2-7.41a46.85,46.85,0,0,0,14.16,23.59,35.24,35.24,0,0,0,24.26,9.21q13.94,0,23.6-7.52t9.66-20.56a23.77,23.77,0,0,0-8.2-18.54q-8.21-7.29-26.85-13.59l-10.12-3.6q-17.07-6.06-27.86-16t-10.78-27.41a38.46,38.46,0,0,1,6.29-21.24,45,45,0,0,1,17.52-15.61,53.67,53.67,0,0,1,25.17-5.85q13.93,0,24.27,5.17a50.46,50.46,0,0,1,16.51,12.59,47.07,47.07,0,0,1,8.65,14.6l-18,7.64q-2.25-8.31-10.23-15.06t-21-6.74q-12.35,0-21.12,7t-8.76,17.53a18.83,18.83,0,0,0,7.42,15.39q7.41,6,22.46,11.12l10.57,3.6q20.43,7.41,31.9,18.53t11.46,30.22q0,15.51-8,26.07a46.92,46.92,0,0,1-20.11,15.5,65.4,65.4,0,0,1-24.94,4.94A57.43,57.43,0,0,1,4814,372.35Z"/><path class="cls-3" d="M4956,237.53h-45.17v-18.2h109.2v18.2h-44.94V380.21H4956Z"/><path class="cls-3" d="M5039.6,219.33H5094a52,52,0,0,1,24.71,6.07,47.51,47.51,0,0,1,18.31,17,45.26,45.26,0,0,1,6.86,24.6,44.39,44.39,0,0,1-5.06,20.9A46.63,46.63,0,0,1,5124.87,304a50.08,50.08,0,0,1-19.66,8.76l-.45.68,45.39,65.83v.9h-22.47l-43.82-65.61h-25.39v65.61H5039.6Zm53.25,77.52a33.19,33.19,0,0,0,15.62-3.82,30.32,30.32,0,0,0,11.68-10.67,28.71,28.71,0,0,0,.56-29.55,30.63,30.63,0,0,0-10.67-11,29.3,29.3,0,0,0-15.84-4.27h-35.73v59.32Z"/><path class="cls-3" d="M5192.17,375.83a54.39,54.39,0,0,1-20.9-22.25q-7.41-14.26-7.41-32.91V219.33H5183V321.56q0,19.56,10.34,31.8T5223,365.6q19.32,0,29.77-12.24t10.45-31.8V219.33H5282V320.67q0,18.65-7.07,33a51.65,51.65,0,0,1-20.45,22.24q-13.37,7.86-31.57,7.86Q5205.64,383.8,5192.17,375.83Z"/><path class="cls-3" d="M5341.81,372.79a79.58,79.58,0,0,1-30-30.22q-10.89-19.2-10.89-42.8t10.89-42.8a79.68,79.68,0,0,1,30-30.23,83.59,83.59,0,0,1,42.47-11,78,78,0,0,1,32.91,6.86,76.63,76.63,0,0,1,26,19.43l-13.71,13.26q-9.21-11-20.11-16.18a57.92,57.92,0,0,0-25.05-5.17,64.44,64.44,0,0,0-32.13,8.21,61,61,0,0,0-23.26,23.14q-8.66,14.94-8.65,34.49t8.65,34.49a61,61,0,0,0,23.26,23.14,64.44,64.44,0,0,0,32.13,8.2q29.21,0,49.66-24L5447.87,355a81.33,81.33,0,0,1-27.64,21,87.34,87.34,0,0,1-78.42-3.26Z"/><path class="cls-3" d="M5503.81,237.53h-45.16v-18.2h109.2v18.2h-44.94V380.21h-19.1Z"/><path class="cls-3" d="M5612.79,375.83a54.39,54.39,0,0,1-20.9-22.25q-7.41-14.26-7.41-32.91V219.33h19.09V321.56q0,19.56,10.34,31.8t29.66,12.24q19.32,0,29.77-12.24t10.45-31.8V219.33h18.87V320.67q0,18.65-7.07,33a51.65,51.65,0,0,1-20.45,22.24q-13.37,7.86-31.57,7.86Q5626.26,383.8,5612.79,375.83Z"/><path class="cls-3" d="M5729.4,219.33h54.38a51.94,51.94,0,0,1,24.71,6.07,47.54,47.54,0,0,1,18.32,17,45.34,45.34,0,0,1,6.85,24.6,44.39,44.39,0,0,1-5.06,20.9A46.63,46.63,0,0,1,5814.67,304,50.08,50.08,0,0,1,5795,312.8l-.45.68L5840,379.31v.9h-22.47l-43.81-65.61h-25.39v65.61H5729.4Zm53.25,77.52a33.19,33.19,0,0,0,15.62-3.82A30.25,30.25,0,0,0,5810,282.36a27.91,27.91,0,0,0,4.39-15.4,28.35,28.35,0,0,0-3.82-14.15,30.66,30.66,0,0,0-10.68-11,29.3,29.3,0,0,0-15.84-4.27h-35.72v59.32Z"/><path class="cls-3" d="M5856.58,219.33h93v18.2h-74.15v53.25h67v18h-67V362h74.15v18.2h-93Z"/><rect class="cls-5" x="3766.96" y="149.77" width="299.99" height="299.99" rx="49.54"/></svg>