<svg id="Layer_1" data-name="Layer 1" xmlns="http://www.w3.org/2000/svg" viewBox="0 0 4000 3874"><defs><style>.cls-1{fill:#fbbc04;}.cls-2{fill:#0f9d58;}.cls-3{fill:#4285f4;}.cls-4{fill:#ea4335;}.cls-5{fill:#676c72;}.cls-6{fill:none;}</style></defs><title>020 DevFestYYC Tracks Banner</title><path class="cls-1" d="M3156.05,567.55a148.83,148.83,0,0,1-297.65,0l-3-238.11-.06-3.84a148.83,148.83,0,1,1,297.65,0L3156,563.7Z"/><circle class="cls-2" cx="3007.22" cy="929.17" r="148.83"/><path class="cls-3" d="M2592.22,752.38l-522.66,301.77A148.89,148.89,0,0,1,1846.3,925.36V321.59a148.87,148.87,0,0,1,223.26-128.76l520.62,300.6,2,1.17-.06,0a148.7,148.7,0,0,1,.06,257.75Z"/><path class="cls-4" d="M1644.36,697.89a147.58,147.58,0,0,1-54.47,54.49c-.42.27-.87.51-1.29.75l-521.37,301A148.83,148.83,0,1,1,918.41,796.36L1217.8,623.48,918.41,450.62a148.83,148.83,0,1,1,148.82-257.79L1589.89,494.6A148.77,148.77,0,0,1,1644.36,697.89Z"/><path class="cls-1" d="M1125.06,2374.2l-3.7,3.7A49.68,49.68,0,0,1,1125.06,2374.2Z"/><path class="cls-3" d="M1207.73,2411v200.91a49.54,49.54,0,0,1-49.54,49.54H957.28a49.54,49.54,0,0,1-36.83-82.67l204.61-204.61a49.54,49.54,0,0,1,82.67,36.83Z"/><path class="cls-1" d="M1024.69,2474.57l-3.87,3.87A50.47,50.47,0,0,1,1024.69,2474.57Z"/><circle class="cls-3" cx="957.28" cy="2411.03" r="49.54"/><path class="cls-5" d="M1353.6,2431.05h48.54q24.7,0,43.14,10.22a70.41,70.41,0,0,1,28.31,28.42q9.89,18.21,9.89,41.8t-9.89,41.79a70.35,70.35,0,0,1-28.31,28.42q-18.43,10.23-43.14,10.23H1353.6Zm48.54,142.68q28.53,0,45.27-16.41t16.74-45.83q0-29.44-16.74-45.84t-45.27-16.4h-29.66v124.48Z"/><path class="cls-5" d="M1546.61,2431.05h21.57l61.12,160.88h-20.9l-16.17-44.27h-69.44l-16.17,44.27h-20.9Zm39.1,98.64-21.35-58-6.51-17.31h-.9l-6.29,17.31-21.35,58Z"/><path class="cls-5" d="M1664.58,2449.25h-45.17v-18.2h109.2v18.2h-44.93v142.68h-19.1Z"/><path class="cls-5" d="M1779.85,2431.05h21.57l61.11,160.88h-20.89l-16.18-44.27H1756l-16.18,44.27H1719Zm39.09,98.64-21.34-58-6.52-17.31h-.9l-6.29,17.31-21.35,58Z"/><path class="cls-5" d="M2025,2564.74l15.28,20-14.38,10.78-11.46-15.28a52,52,0,0,1-37.52,15.28,59.45,59.45,0,0,1-29.32-7.41,55.65,55.65,0,0,1-21.13-20.34,54.68,54.68,0,0,1-7.75-28.65,51.32,51.32,0,0,1,7.64-26.85,61.58,61.58,0,0,1,20.67-20.78l-.22-.23a74.06,74.06,0,0,1-8.76-14,31.31,31.31,0,0,1-2.92-13.14,34.45,34.45,0,0,1,5.16-18.32,38.56,38.56,0,0,1,33-18.31q13.48,0,22.7,7.75a41.94,41.94,0,0,1,13,19.44l-16.4,8.76a42.29,42.29,0,0,0-7.31-12.69q-4.38-5.05-12-5.06a19.23,19.23,0,0,0-13.7,5.06q-5.4,5.05-5.4,13.37a24.66,24.66,0,0,0,5.62,15.5l54.15,70.78L2028.8,2525l15.06,9Zm-21.12,1.57-46.29-60.89a41.17,41.17,0,0,0-15.5,14.27,34.93,34.93,0,0,0-5.84,19.21,38.57,38.57,0,0,0,5.39,20.22,37.93,37.93,0,0,0,14.72,14,42.31,42.31,0,0,0,20.56,5.06Q1993.29,2578.22,2003.86,2566.31Z"/><path class="cls-5" d="M2150.81,2431.05h21.57l61.12,160.88h-20.9l-16.18-44.27H2127l-16.18,44.27h-20.89Zm39.09,98.64-21.34-58-6.52-17.31h-.9l-6.29,17.31-21.34,58Z"/><path class="cls-5" d="M2250.35,2431.05h18.87v160.88h-18.87Z"/><circle class="cls-2" cx="957.28" cy="3303.54" r="49.54"/><circle class="cls-1" cx="1057.74" cy="3303.54" r="49.54"/><circle class="cls-3" cx="1158.19" cy="3303.54" r="49.54"/><circle class="cls-3" cx="957.28" cy="3504.46" r="49.54"/><circle class="cls-4" cx="1057.74" cy="3504.46" r="49.54"/><circle class="cls-4" cx="1158.19" cy="3504.46" r="49.54"/><circle class="cls-1" cx="957.28" cy="3404" r="49.54"/><circle class="cls-3" cx="1057.74" cy="3404" r="49.54"/><circle class="cls-4" cx="1158.19" cy="3404" r="49.54"/><path class="cls-5" d="M1353.6,3323.56h48.54q24.7,0,43.14,10.22a70.38,70.38,0,0,1,28.31,28.43q9.89,18.2,9.89,41.79t-9.89,41.79a70.38,70.38,0,0,1-28.31,28.43q-18.43,10.23-43.14,10.22H1353.6Zm48.54,142.68q28.53,0,45.27-16.4t16.74-45.84q0-29.43-16.74-45.84t-45.27-16.4h-29.66v124.48Z"/><path class="cls-5" d="M1507.07,3323.56h93v18.2h-74.15V3395h67v18h-67v53.25h74.15v18.2h-93Z"/><path class="cls-5" d="M1611.55,3323.56h21.12l39.77,116.62,5.39,16h.9l5.62-16,41.57-116.62H1747l-58.87,160.88H1668.4Z"/><path class="cls-5" d="M1811.07,3323.56h54.15a52.41,52.41,0,0,1,24.94,6.07,47.61,47.61,0,0,1,18.32,17,47.62,47.62,0,0,1,0,49.21,47.53,47.53,0,0,1-18.32,17,52.41,52.41,0,0,1-24.94,6.07H1830v65.61h-18.88Zm54.6,77.07a29.3,29.3,0,0,0,15.84-4.27,30.66,30.66,0,0,0,10.68-11,28.14,28.14,0,0,0,0-28.31,30.66,30.66,0,0,0-10.68-11,29.39,29.39,0,0,0-15.84-4.27H1830v58.87Z"/><path class="cls-5" d="M1936,3323.56h54.37a52,52,0,0,1,24.72,6.07,47.51,47.51,0,0,1,18.31,17,45.26,45.26,0,0,1,6.86,24.6,44.39,44.39,0,0,1-5.06,20.9,46.63,46.63,0,0,1-13.93,16.18,49.93,49.93,0,0,1-19.66,8.76l-.45.68,45.39,65.83v.9h-22.47l-43.82-65.61h-25.39v65.61H1936Zm53.25,77.52a33.19,33.19,0,0,0,15.62-3.82,30.32,30.32,0,0,0,11.68-10.67,28.71,28.71,0,0,0,.56-29.55,30.55,30.55,0,0,0-10.67-11,29.39,29.39,0,0,0-15.84-4.27h-35.73v59.32Z"/><path class="cls-5" d="M2095.76,3476.8a80.88,80.88,0,0,1-29.66-30.45,88.29,88.29,0,0,1,0-84.59,82.92,82.92,0,0,1,113.69-30.56,81.55,81.55,0,0,1,29.77,30.56,87.93,87.93,0,0,1,.12,84.59,83.26,83.26,0,0,1-113.92,30.45Zm73.81-15.39a61.41,61.41,0,0,0,22.92-23.37q8.41-14.94,8.42-34t-8.42-34a61.41,61.41,0,0,0-22.92-23.37,62.56,62.56,0,0,0-86.4,23.48,71.67,71.67,0,0,0,0,67.86,62.15,62.15,0,0,0,22.92,23.48,64,64,0,0,0,63.48,0Z"/><path class="cls-5" d="M2275.51,3477a81.84,81.84,0,0,1-30.33-30.34,86.69,86.69,0,0,1,0-85.38,82.51,82.51,0,0,1,72.13-41.35,88.31,88.31,0,0,1,33.36,6.3A67,67,0,0,1,2376.4,3344l-13.71,13.7a49.6,49.6,0,0,0-19.54-14.49,65,65,0,0,0-25.62-5,64.17,64.17,0,0,0-31.79,8.2,62.45,62.45,0,0,0-23.6,23.14q-8.88,14.94-8.87,34.49t8.87,34.49a62.17,62.17,0,0,0,23.71,23.14,64.39,64.39,0,0,0,31.68,8.2q16.18,0,27.08-5a60.84,60.84,0,0,0,18.76-13.37,49,49,0,0,0,9.43-15.17,66.78,66.78,0,0,0,4.5-19.66h-59.55v-17.75h77.3a66.69,66.69,0,0,1,1.12,11.69,90,90,0,0,1-4.72,28.87,63.69,63.69,0,0,1-15,24.6q-22.24,24-59.09,24.05A82.2,82.2,0,0,1,2275.51,3477Z"/><path class="cls-5" d="M2420,3323.56h54.37a52,52,0,0,1,24.72,6.07,47.51,47.51,0,0,1,18.31,17,45.25,45.25,0,0,1,6.85,24.6,44.38,44.38,0,0,1-5,20.9,46.73,46.73,0,0,1-13.93,16.18,49.93,49.93,0,0,1-19.66,8.76l-.45.68,45.39,65.83v.9h-22.47l-43.82-65.61h-25.39v65.61H2420Zm53.25,77.52a33.19,33.19,0,0,0,15.62-3.82,30.32,30.32,0,0,0,11.68-10.67,28.71,28.71,0,0,0,.56-29.55,30.63,30.63,0,0,0-10.67-11,29.39,29.39,0,0,0-15.84-4.27h-35.73v59.32Z"/><path class="cls-5" d="M2593.45,3323.56H2615l61.12,160.88h-20.9l-16.18-44.26h-69.43l-16.18,44.26h-20.89Zm39.1,98.64-21.35-58-6.51-17.3h-.9l-6.3,17.3-21.34,58Z"/><path class="cls-5" d="M2693,3323.56h27.64l51.23,131.9h.89l51.23-131.9h27.64v160.88h-18.87V3382.21l.9-30.56h-.9l-52.58,132.79h-15.73l-52.58-132.79h-.9l.9,30.56v102.23H2693Z"/><path class="cls-5" d="M2893.41,3476.58q-15.72-11.46-21.57-32.13L2890,3437a46.92,46.92,0,0,0,14.16,23.59,35.26,35.26,0,0,0,24.27,9.21q13.92,0,23.59-7.52t9.66-20.56a23.73,23.73,0,0,0-8.2-18.54q-8.2-7.29-26.85-13.59l-10.11-3.6q-17.08-6.06-27.86-15.95t-10.79-27.41a38.54,38.54,0,0,1,6.29-21.24,45,45,0,0,1,17.53-15.61,53.63,53.63,0,0,1,25.16-5.85q13.93,0,24.27,5.17a50.61,50.61,0,0,1,16.52,12.59,47.27,47.27,0,0,1,8.65,14.6l-18,7.64q-2.25-8.31-10.22-15.05t-21-6.74q-12.36,0-21.12,7t-8.77,17.53a18.85,18.85,0,0,0,7.42,15.39q7.41,6,22.47,11.12l10.56,3.6q20.45,7.41,31.91,18.53t11.45,30.22q0,15.51-8,26.07a47,47,0,0,1-20.11,15.5A65.44,65.44,0,0,1,2928,3488,57.47,57.47,0,0,1,2893.41,3476.58Z"/><rect class="cls-6" x="907.74" y="1915.23" width="299.99" height="299.99" rx="49.54"/><path class="cls-1" d="M1188.46,2089.54a49.14,49.14,0,0,1-18.13,18.14l-.43.25-173.55,100.2a49.54,49.54,0,1,1-49.54-85.81l99.66-57.55-99.66-57.54a49.54,49.54,0,1,1,49.54-85.81l174,100.45A49.52,49.52,0,0,1,1188.46,2089.54Z"/><path class="cls-5" d="M1386.63,2138a79.58,79.58,0,0,1-30-30.23q-10.91-19.2-10.9-42.8t10.9-42.8a79.65,79.65,0,0,1,30-30.23,83.59,83.59,0,0,1,42.47-11,78.05,78.05,0,0,1,32.92,6.86,76.69,76.69,0,0,1,26,19.43l-13.71,13.26q-9.21-11-20.11-16.18t-25.05-5.16a64.46,64.46,0,0,0-32.13,8.2,61.09,61.09,0,0,0-23.26,23.14q-8.65,14.94-8.65,34.49t8.65,34.49a61,61,0,0,0,23.26,23.14,64.46,64.46,0,0,0,32.13,8.2q29.2,0,49.66-24l13.93,13.48a81,81,0,0,1-27.64,21,87.3,87.3,0,0,1-78.42-3.25Z"/><path class="cls-5" d="M1544.59,2137.8a81,81,0,0,1-29.66-30.45,88.36,88.36,0,0,1,0-84.59,82.93,82.93,0,0,1,113.7-30.56,81.62,81.62,0,0,1,29.77,30.56,87.9,87.9,0,0,1,.11,84.59,83.26,83.26,0,0,1-113.92,30.45Zm73.82-15.39a61.31,61.31,0,0,0,22.91-23.37q8.43-14.94,8.43-34t-8.43-34a61.31,61.31,0,0,0-22.91-23.37,62.12,62.12,0,0,0-31.8-8.42,61.46,61.46,0,0,0-31.68,8.42,62.22,62.22,0,0,0-22.92,23.48,71.67,71.67,0,0,0,0,67.86,62.15,62.15,0,0,0,22.92,23.48,61.46,61.46,0,0,0,31.68,8.42A62.12,62.12,0,0,0,1618.41,2122.41Z"/><path class="cls-5" d="M1692.89,1984.56h48.53q24.72,0,43.15,10.22a70.44,70.44,0,0,1,28.31,28.43q9.88,18.19,9.88,41.79t-9.88,41.79a70.44,70.44,0,0,1-28.31,28.43q-18.43,10.23-43.15,10.22h-48.53Zm48.53,142.68q28.55,0,45.28-16.4t16.74-45.84q0-29.43-16.74-45.84t-45.28-16.4h-29.65v124.48Z"/><path class="cls-5" d="M1846.35,1984.56h93v18.2h-74.15V2056h67v18h-67v53.25h74.15v18.2h-93Z"/><path class="cls-5" d="M1353.6,2877.3h18.88v160.88H1353.6Z"/><path class="cls-5" d="M1403.93,2877.3h23.37L1508,3005.38h.9l-.9-31V2877.3h19.1v160.88h-19.77L1422.81,2904h-.9l.9,31v103.13h-18.88Z"/><path class="cls-5" d="M1558.52,2877.3h93v18.2h-74.15v55.05h67v18h-67v69.65h-18.87Z"/><path class="cls-5" d="M1673.34,2877.3h54.37a52,52,0,0,1,24.72,6.07,47.51,47.51,0,0,1,18.31,17,45.26,45.26,0,0,1,6.85,24.61,44.37,44.37,0,0,1-5,20.89,46.64,46.64,0,0,1-13.93,16.18,49.93,49.93,0,0,1-19.66,8.76l-.45.68,45.39,65.83v.9h-22.47l-43.82-65.61h-25.39v65.61h-18.87Zm53.25,77.52a33.15,33.15,0,0,0,15.61-3.82,30.2,30.2,0,0,0,11.69-10.67,28,28,0,0,0,4.38-15.39,28.38,28.38,0,0,0-3.82-14.16,30.8,30.8,0,0,0-10.67-11,29.39,29.39,0,0,0-15.84-4.27h-35.73v59.32Z"/><path class="cls-5" d="M1846.8,2877.3h21.57l61.12,160.88h-20.9l-16.18-44.26H1823l-16.18,44.26h-20.89Zm39.1,98.64-21.35-58-6.52-17.3h-.89l-6.3,17.3-21.34,58Z"/><path class="cls-5" d="M1956.67,3030.32q-15.72-11.46-21.57-32.13l18.2-7.42a46.92,46.92,0,0,0,14.16,23.59,35.25,35.25,0,0,0,24.26,9.22q13.93,0,23.6-7.53t9.66-20.56a23.77,23.77,0,0,0-8.2-18.54q-8.21-7.29-26.85-13.59l-10.11-3.6q-17.08-6.06-27.87-16t-10.78-27.41a38.46,38.46,0,0,1,6.29-21.24,45,45,0,0,1,17.53-15.61,53.72,53.72,0,0,1,25.16-5.84q13.93,0,24.27,5.16a50.46,50.46,0,0,1,16.51,12.59,47.07,47.07,0,0,1,8.65,14.6l-18,7.64q-2.25-8.31-10.22-15t-21-6.74q-12.36,0-21.13,7t-8.76,17.53a18.83,18.83,0,0,0,7.42,15.39q7.41,6,22.47,11.12l10.56,3.6q20.44,7.41,31.9,18.53t11.46,30.23q0,15.49-8,26.06a47,47,0,0,1-20.11,15.5,65.48,65.48,0,0,1-24.94,5A57.45,57.45,0,0,1,1956.67,3030.32Z"/><path class="cls-5" d="M2098.68,2895.5h-45.17v-18.2h109.21v18.2h-44.94v142.68h-19.1Z"/><path class="cls-5" d="M2182.26,2877.3h54.38a52,52,0,0,1,24.71,6.07,47.51,47.51,0,0,1,18.31,17,45.27,45.27,0,0,1,6.86,24.61,44.38,44.38,0,0,1-5.06,20.89,46.54,46.54,0,0,1-13.93,16.18,49.93,49.93,0,0,1-19.66,8.76l-.45.68,45.39,65.83v.9h-22.47l-43.81-65.61h-25.4v65.61h-18.87Zm53.25,77.52a33.19,33.19,0,0,0,15.62-3.82,30.24,30.24,0,0,0,11.68-10.67,28,28,0,0,0,4.38-15.39,28.28,28.28,0,0,0-3.82-14.16,30.63,30.63,0,0,0-10.67-11,29.39,29.39,0,0,0-15.84-4.27h-35.73v59.32Z"/><path class="cls-5" d="M2334.83,3033.8a54.37,54.37,0,0,1-20.9-22.24q-7.41-14.26-7.41-32.92V2877.3h19.09v102.24q0,19.55,10.34,31.79t29.66,12.25q19.32,0,29.77-12.25t10.45-31.79V2877.3h18.87v101.34q0,18.65-7.07,33a51.6,51.6,0,0,1-20.45,22.24q-13.36,7.88-31.57,7.87Q2348.3,3041.78,2334.83,3033.8Z"/><path class="cls-5" d="M2484.47,3030.77a79.63,79.63,0,0,1-30-30.22q-10.91-19.22-10.9-42.81t10.9-42.8a79.56,79.56,0,0,1,30-30.22,83.49,83.49,0,0,1,42.47-11,78,78,0,0,1,32.92,6.85,76.59,76.59,0,0,1,25.95,19.44l-13.71,13.25q-9.21-11-20.11-16.18t-25-5.16a64.44,64.44,0,0,0-32.13,8.2,61.09,61.09,0,0,0-23.26,23.14q-8.65,15-8.65,34.49t8.65,34.49a61,61,0,0,0,23.26,23.15,64.44,64.44,0,0,0,32.13,8.2q29.2,0,49.66-24l13.93,13.49a81.33,81.33,0,0,1-27.64,21,87.34,87.34,0,0,1-78.42-3.26Z"/><path class="cls-5" d="M2646.48,2895.5h-45.17v-18.2h109.2v18.2h-44.94v142.68h-19.09Z"/><path class="cls-5" d="M2755.45,3033.8a54.37,54.37,0,0,1-20.9-22.24q-7.41-14.26-7.41-32.92V2877.3h19.1v102.24q0,19.55,10.33,31.79t29.66,12.25q19.32,0,29.77-12.25t10.45-31.79V2877.3h18.88v101.34q0,18.65-7.08,33a51.6,51.6,0,0,1-20.45,22.24q-13.37,7.88-31.57,7.87Q2768.92,3041.78,2755.45,3033.8Z"/><path class="cls-5" d="M2872.06,2877.3h54.38a51.91,51.91,0,0,1,24.71,6.07,47.54,47.54,0,0,1,18.32,17,45.26,45.26,0,0,1,6.85,24.61,44.37,44.37,0,0,1-5.05,20.89,46.57,46.57,0,0,1-13.94,16.18,49.93,49.93,0,0,1-19.66,8.76l-.45.68,45.39,65.83v.9h-22.47l-43.81-65.61h-25.39v65.61h-18.88Zm53.26,77.52a33.15,33.15,0,0,0,15.61-3.82,30.27,30.27,0,0,0,11.69-10.67,28,28,0,0,0,4.38-15.39,28.38,28.38,0,0,0-3.82-14.16,30.74,30.74,0,0,0-10.68-11,29.39,29.39,0,0,0-15.84-4.27h-35.72v59.32Z"/><path class="cls-5" d="M2999.24,2877.3h93v18.2h-74.15v53.25h67v18h-67V3020h74.15v18.2h-93Z"/><rect class="cls-4" x="909.62" y="2807.74" width="299.99" height="299.99" rx="49.54"/><path class="cls-5" d="M557.61,1283.91H664.46q54.4,0,95,22.51T821.75,1369q21.76,40.07,21.77,92t-21.77,92q-21.76,40.07-62.32,62.57t-95,22.51H557.61ZM664.46,1598q62.81,0,99.67-36.11T801,1461q0-64.8-36.85-100.91T664.46,1324h-65.3v274Z"/><path class="cls-5" d="M895.45,1283.91h204.79V1324H937v117.23h147.41v39.58H937V1598h163.24v40.07H895.45Z"/><path class="cls-5" d="M1125.46,1283.91H1172l87.55,256.73,11.87,35.12h2l12.37-35.12,91.51-256.73h46.5l-129.6,354.18h-43.53Z"/><path class="cls-5" d="M1459.84,1283.91h204.79V1324H1501.39v121.19H1648.8v39.57H1501.39v153.35h-41.55Z"/><path class="cls-5" d="M1712.61,1283.91h204.78V1324H1754.16v117.23h147.4v39.58h-147.4V1598h163.23v40.07H1712.61Z"/><path class="cls-5" d="M1998,1620.77q-34.63-25.21-47.49-70.73l40.07-16.33q8.4,31.66,31.16,51.94t53.42,20.28q30.66,0,51.94-16.57t21.27-45.26q0-24.72-18-40.81t-59.12-29.92l-22.25-7.92q-37.6-13.35-61.34-35.12T1963.89,1370a84.72,84.72,0,0,1,13.84-46.74q13.85-21.51,38.59-34.38t55.4-12.86q30.66,0,53.42,11.38t36.36,27.7q13.59,16.32,19,32.15L2141,1364.05q-4.95-18.3-22.51-33.14t-46.25-14.84q-27.21,0-46.49,15.33T2006.43,1370q0,20.79,16.32,33.89t49.46,24.48l23.25,7.92q45,16.32,70.24,40.81t25.23,66.53q0,34.13-17.56,57.38a103.46,103.46,0,0,1-44.27,34.13,144.36,144.36,0,0,1-54.91,10.88Q2032.64,1646,1998,1620.77Z"/><path class="cls-5" d="M2310.63,1324h-99.42v-40.07h240.4V1324h-98.93v314.11h-42Z"/><path class="cls-5" d="M2628.69,1473.37l-119.21-189.46h79.63l70.74,117.24h4l68.26-117.24h80.63l-117.23,189.46v164.72h-66.78Z"/><path class="cls-5" d="M2933.89,1473.37l-119.21-189.46h79.63l70.74,117.24h4l68.26-117.24h80.63l-117.23,189.46v164.72h-66.78Z"/><path class="cls-5" d="M3206.94,1621.51a179.58,179.58,0,0,1-67-66.77q-24.48-42.3-24.48-93.74t24.48-93.74a179.58,179.58,0,0,1,67-66.77q42.53-24.49,94-24.49,80.13,0,132.57,57.87l-47,45.51q-34.14-40.07-85.08-40.06-33.15,0-60.35,15.08a109.09,109.09,0,0,0-42.79,42.79q-15.59,27.7-15.58,63.81t15.58,63.81a109,109,0,0,0,42.79,42.79q27.19,15.09,60.35,15.08,55.89,0,93.48-46.49l47.49,45a175.48,175.48,0,0,1-62.08,48.23q-35.86,16.56-79.39,16.57Q3249.47,1646,3206.94,1621.51Z"/></svg>