<svg id="Layer_1" data-name="Layer 1" xmlns="http://www.w3.org/2000/svg" viewBox="0 0 9000 2000"><defs><style>.cls-1{fill:#fbbc04;}.cls-2{fill:#4285f4;}.cls-3{fill:#676c72;}.cls-4{fill:#0f9d58;}.cls-5{fill:#ea4335;}.cls-6{fill:none;}</style></defs><title>020 DevFestYYC Tracks Banner Hz</title><path class="cls-1" d="M2343.75,1447.47l-3.7,3.71A48,48,0,0,1,2343.75,1447.47Z"/><path class="cls-2" d="M2426.42,1484.31v200.91a49.54,49.54,0,0,1-49.54,49.54H2176a49.54,49.54,0,0,1-36.83-82.67l204.61-204.62a49.54,49.54,0,0,1,82.67,36.84Z"/><path class="cls-1" d="M2243.38,1547.85l-3.87,3.87A47.11,47.11,0,0,1,2243.38,1547.85Z"/><circle class="cls-2" cx="2175.98" cy="1484.31" r="49.54"/><path class="cls-3" d="M2572.3,1504.32h48.53q24.72,0,43.14,10.22a70.38,70.38,0,0,1,28.31,28.43q9.88,18.19,9.89,41.79t-9.89,41.79A70.38,70.38,0,0,1,2664,1655q-18.42,10.23-43.14,10.22H2572.3ZM2620.83,1647q28.53,0,45.28-16.4t16.74-45.84q0-29.43-16.74-45.84t-45.28-16.4h-29.66V1647Z"/><path class="cls-3" d="M2765.31,1504.32h21.57L2848,1665.2H2827.1l-16.18-44.26h-69.43l-16.18,44.26h-20.89ZM2804.4,1603l-21.34-58-6.52-17.3h-.9l-6.29,17.3L2748,1603Z"/><path class="cls-3" d="M2883.27,1522.52h-45.16v-18.2h109.2v18.2h-44.94V1665.2h-19.1Z"/><path class="cls-3" d="M2998.54,1504.32h21.57l61.12,160.88h-20.9l-16.18-44.26h-69.43l-16.18,44.26h-20.89Zm39.1,98.64-21.35-58-6.52-17.3h-.89l-6.3,17.3-21.34,58Z"/><path class="cls-3" d="M3243.68,1638l15.28,20-14.38,10.79-11.46-15.28a52,52,0,0,1-37.53,15.28,59.48,59.48,0,0,1-29.32-7.42,55.67,55.67,0,0,1-21.12-20.33,54.64,54.64,0,0,1-7.75-28.65,51.17,51.17,0,0,1,7.64-26.85,61.61,61.61,0,0,1,20.67-20.79l-.23-.22a75.14,75.14,0,0,1-8.76-14,31.31,31.31,0,0,1-2.92-13.14A34.32,34.32,0,0,1,3159,1519a38.6,38.6,0,0,1,33-18.32q13.48,0,22.69,7.76a41.93,41.93,0,0,1,13,19.43l-16.41,8.77a42.33,42.33,0,0,0-7.3-12.7q-4.38-5.06-12-5a19.25,19.25,0,0,0-13.71,5q-5.39,5.05-5.39,13.37a24.66,24.66,0,0,0,5.62,15.5l54.15,70.78,14.83-25.39,15.05,9Zm-21.12,1.58-46.29-60.9a41.17,41.17,0,0,0-15.5,14.27,35,35,0,0,0-5.85,19.21,38.44,38.44,0,0,0,5.4,20.22,37.86,37.86,0,0,0,14.71,14,42.45,42.45,0,0,0,20.56,5Q3212,1651.49,3222.56,1639.59Z"/><path class="cls-3" d="M3369.5,1504.32h21.57l61.12,160.88h-20.9l-16.17-44.26h-69.43l-16.18,44.26h-20.9Zm39.1,98.64-21.35-58-6.51-17.3h-.9l-6.29,17.3-21.35,58Z"/><path class="cls-3" d="M3469,1504.32h18.87V1665.2H3469Z"/><circle class="cls-4" cx="6513.59" cy="1484.31" r="49.54"/><circle class="cls-1" cx="6614.05" cy="1484.31" r="49.54"/><circle class="cls-2" cx="6714.5" cy="1484.31" r="49.54"/><circle class="cls-2" cx="6513.59" cy="1685.22" r="49.54"/><circle class="cls-5" cx="6614.05" cy="1685.22" r="49.54"/><circle class="cls-5" cx="6714.5" cy="1685.22" r="49.54"/><circle class="cls-1" cx="6513.59" cy="1584.76" r="49.54"/><circle class="cls-2" cx="6614.05" cy="1584.76" r="49.54"/><circle class="cls-5" cx="6714.5" cy="1584.76" r="49.54"/><path class="cls-3" d="M6909.91,1504.32h48.54q24.71,0,43.14,10.23A70.35,70.35,0,0,1,7029.9,1543q9.89,18.19,9.89,41.79t-9.89,41.8a70.41,70.41,0,0,1-28.31,28.42q-18.43,10.23-43.14,10.22h-48.54ZM6958.45,1647q28.53,0,45.27-16.4t16.74-45.84q0-29.43-16.74-45.84t-45.27-16.4h-29.66V1647Z"/><path class="cls-3" d="M7063.38,1504.32h93v18.2h-74.15v53.26h67v18h-67V1647h74.15v18.2h-93Z"/><path class="cls-3" d="M7167.86,1504.32H7189l39.77,116.62,5.39,16h.9l5.62-16,41.57-116.62h21.12l-58.87,160.88h-19.77Z"/><path class="cls-3" d="M7367.38,1504.32h54.15a52.41,52.41,0,0,1,24.94,6.07,47.61,47.61,0,0,1,18.32,17,47.62,47.62,0,0,1,0,49.21,47.63,47.63,0,0,1-18.32,17,52.52,52.52,0,0,1-24.94,6.06h-35.27v65.61h-18.88Zm54.6,77.07a29.3,29.3,0,0,0,15.84-4.27,30.58,30.58,0,0,0,10.68-11,28.14,28.14,0,0,0,0-28.31,30.74,30.74,0,0,0-10.68-11,29.39,29.39,0,0,0-15.84-4.27h-35.72v58.87Z"/><path class="cls-3" d="M7492.31,1504.32h54.37a52,52,0,0,1,24.72,6.07,47.51,47.51,0,0,1,18.31,17,45.27,45.27,0,0,1,6.86,24.61,44.38,44.38,0,0,1-5.06,20.89,46.54,46.54,0,0,1-13.93,16.18,49.93,49.93,0,0,1-19.66,8.76l-.45.68,45.39,65.83v.9h-22.47l-43.82-65.61h-25.39v65.61h-18.87Zm53.25,77.52a33.19,33.19,0,0,0,15.62-3.82,30.24,30.24,0,0,0,11.68-10.67,28,28,0,0,0,4.38-15.39,28.28,28.28,0,0,0-3.82-14.16,30.63,30.63,0,0,0-10.67-11,29.39,29.39,0,0,0-15.84-4.27h-35.73v59.32Z"/><path class="cls-3" d="M7652.07,1657.56a80.92,80.92,0,0,1-29.66-30.44,88.31,88.31,0,0,1,0-84.6A82.94,82.94,0,0,1,7736.1,1512a81.55,81.55,0,0,1,29.77,30.56,88,88,0,0,1,.12,84.6,83.27,83.27,0,0,1-113.92,30.44Zm73.81-15.39a61.34,61.34,0,0,0,22.92-23.37q8.41-14.94,8.42-34t-8.42-34a61.41,61.41,0,0,0-22.92-23.37,62.56,62.56,0,0,0-86.4,23.48,71.67,71.67,0,0,0,0,67.86,62.15,62.15,0,0,0,22.92,23.48,64,64,0,0,0,63.48,0Z"/><path class="cls-3" d="M7831.82,1657.79a81.84,81.84,0,0,1-30.33-30.34,86.69,86.69,0,0,1,0-85.38,82.53,82.53,0,0,1,72.13-41.34A88.5,88.5,0,0,1,7907,1507a67,67,0,0,1,25.73,17.75L7919,1538.48a49.53,49.53,0,0,0-19.54-14.5,65,65,0,0,0-25.62-5,64.23,64.23,0,0,0-31.8,8.2,62.49,62.49,0,0,0-23.59,23.14q-8.88,15-8.87,34.49t8.87,34.49a62.19,62.19,0,0,0,23.71,23.15,64.39,64.39,0,0,0,31.68,8.2q16.17,0,27.08-5.06a60.67,60.67,0,0,0,18.76-13.37,48.94,48.94,0,0,0,9.43-15.16,66.85,66.85,0,0,0,4.5-19.66h-59.55v-17.76h77.3a66.69,66.69,0,0,1,1.12,11.69,90,90,0,0,1-4.72,28.87,63.66,63.66,0,0,1-15.05,24.61q-22.24,24-59.09,24A82.2,82.2,0,0,1,7831.82,1657.79Z"/><path class="cls-3" d="M7976.3,1504.32h54.37a52,52,0,0,1,24.72,6.07,47.51,47.51,0,0,1,18.31,17,45.26,45.26,0,0,1,6.85,24.61,44.37,44.37,0,0,1-5.05,20.89,46.64,46.64,0,0,1-13.93,16.18,49.93,49.93,0,0,1-19.66,8.76l-.45.68,45.39,65.83v.9h-22.47l-43.82-65.61h-25.39v65.61H7976.3Zm53.25,77.52a33.19,33.19,0,0,0,15.62-3.82,30.24,30.24,0,0,0,11.68-10.67,28,28,0,0,0,4.38-15.39,28.28,28.28,0,0,0-3.82-14.16,30.71,30.71,0,0,0-10.67-11,29.39,29.39,0,0,0-15.84-4.27h-35.73v59.32Z"/><path class="cls-3" d="M8149.76,1504.32h21.57l61.12,160.88h-20.9l-16.18-44.26h-69.43l-16.18,44.26h-20.89Zm39.1,98.64-21.35-58-6.51-17.3h-.9l-6.3,17.3-21.34,58Z"/><path class="cls-3" d="M8249.3,1504.32h27.64l51.23,131.9h.89l51.23-131.9h27.64V1665.2h-18.87V1563l.9-30.56h-.9l-52.58,132.79h-15.73l-52.58-132.79h-.9l.9,30.56V1665.2H8249.3Z"/><path class="cls-3" d="M8449.72,1657.34q-15.72-11.46-21.57-32.13l18.2-7.42a47,47,0,0,0,14.16,23.6,35.31,35.31,0,0,0,24.27,9.21q13.92,0,23.59-7.53t9.66-20.56a23.73,23.73,0,0,0-8.2-18.54q-8.2-7.29-26.85-13.59l-10.11-3.6q-17.09-6.06-27.86-16t-10.79-27.41a38.48,38.48,0,0,1,6.29-21.23,45,45,0,0,1,17.53-15.62,53.75,53.75,0,0,1,25.16-5.84q13.93,0,24.27,5.17a50.45,50.45,0,0,1,16.52,12.58,47.27,47.27,0,0,1,8.65,14.6l-18,7.64q-2.25-8.31-10.22-15t-21-6.74q-12.36,0-21.12,7t-8.77,17.53a18.85,18.85,0,0,0,7.42,15.39q7.41,6,22.47,11.12l10.56,3.6q20.45,7.41,31.91,18.54t11.45,30.22q0,15.49-8,26.06a47,47,0,0,1-20.11,15.5,65.44,65.44,0,0,1-24.94,5A57.47,57.47,0,0,1,8449.72,1657.34Z"/><rect class="cls-6" x="698.05" y="1435.23" width="299.99" height="299.99" rx="49.54"/><path class="cls-1" d="M978.77,1609.53a49.14,49.14,0,0,1-18.13,18.14l-.43.25-173.55,100.2a49.54,49.54,0,1,1-49.54-85.81l99.66-57.55-99.66-57.54a49.54,49.54,0,1,1,49.54-85.81l174,100.45A49.52,49.52,0,0,1,978.77,1609.53Z"/><path class="cls-3" d="M1176.94,1658a79.63,79.63,0,0,1-30-30.22q-10.9-19.21-10.9-42.81t10.9-42.8a79.56,79.56,0,0,1,30-30.22,83.49,83.49,0,0,1,42.47-11,78,78,0,0,1,32.92,6.85,76.59,76.59,0,0,1,26,19.44l-13.71,13.25q-9.21-11-20.11-16.17t-25-5.17a64.46,64.46,0,0,0-32.13,8.2A61.09,61.09,0,0,0,1164,1550.5q-8.65,15-8.65,34.49t8.65,34.49a61,61,0,0,0,23.26,23.15,64.46,64.46,0,0,0,32.13,8.2q29.21,0,49.66-24l13.93,13.48a81.23,81.23,0,0,1-27.64,21,87.34,87.34,0,0,1-78.42-3.26Z"/><path class="cls-3" d="M1334.9,1657.79a80.85,80.85,0,0,1-29.66-30.44,88.38,88.38,0,0,1,0-84.6,83,83,0,0,1,113.7-30.56,81.62,81.62,0,0,1,29.77,30.56,87.92,87.92,0,0,1,.11,84.6,83.27,83.27,0,0,1-113.92,30.44Zm73.82-15.39a61.17,61.17,0,0,0,22.91-23.37q8.43-14.94,8.43-34t-8.43-34a61.31,61.31,0,0,0-22.91-23.37,62.22,62.22,0,0,0-31.8-8.42,61.55,61.55,0,0,0-31.68,8.42,62.22,62.22,0,0,0-22.92,23.48,71.67,71.67,0,0,0,0,67.86,63.14,63.14,0,0,0,86.4,23.48Z"/><path class="cls-3" d="M1483.2,1504.55h48.53q24.72,0,43.15,10.23a70.41,70.41,0,0,1,28.31,28.42q9.88,18.19,9.88,41.79t-9.88,41.8a70.41,70.41,0,0,1-28.31,28.42q-18.44,10.23-43.15,10.22H1483.2Zm48.53,142.68q28.55,0,45.28-16.4t16.74-45.84q0-29.43-16.74-45.83t-45.28-16.41h-29.65v124.48Z"/><path class="cls-3" d="M1636.66,1504.55h93v18.2h-74.15V1576h67v18h-67v53.25h74.15v18.2h-93Z"/><path class="cls-3" d="M4328.64,1504.32h18.88V1665.2h-18.88Z"/><path class="cls-3" d="M4379,1504.32h23.37L4483,1632.4h.9l-.9-31v-97.07h19.1V1665.2h-19.77l-84.48-134.14h-.9l.9,31V1665.2H4379Z"/><path class="cls-3" d="M4533.56,1504.32h93v18.2h-74.15v55h67v18h-67v69.65h-18.87Z"/><path class="cls-3" d="M4648.38,1504.32h54.37a52,52,0,0,1,24.72,6.07,47.51,47.51,0,0,1,18.31,17,45.26,45.26,0,0,1,6.85,24.61,44.37,44.37,0,0,1-5.05,20.89,46.64,46.64,0,0,1-13.93,16.18,49.93,49.93,0,0,1-19.66,8.76l-.45.68,45.39,65.83v.9h-22.47l-43.82-65.61h-25.39v65.61h-18.87Zm53.25,77.52a33.15,33.15,0,0,0,15.61-3.82,30.2,30.2,0,0,0,11.69-10.67,28,28,0,0,0,4.38-15.39,28.38,28.38,0,0,0-3.82-14.16,30.8,30.8,0,0,0-10.67-11,29.39,29.39,0,0,0-15.84-4.27h-35.73v59.32Z"/><path class="cls-3" d="M4821.84,1504.32h21.57l61.12,160.88h-20.9l-16.18-44.26H4798l-16.18,44.26H4761Zm39.09,98.64-21.34-58-6.52-17.3h-.89l-6.3,17.3-21.34,58Z"/><path class="cls-3" d="M4931.71,1657.34q-15.72-11.46-21.57-32.13l18.2-7.42a46.92,46.92,0,0,0,14.16,23.6,35.29,35.29,0,0,0,24.26,9.21q13.93,0,23.6-7.53t9.66-20.56a23.77,23.77,0,0,0-8.2-18.54q-8.2-7.29-26.85-13.59l-10.12-3.6q-17.07-6.06-27.86-16t-10.78-27.41a38.4,38.4,0,0,1,6.29-21.23,45,45,0,0,1,17.53-15.62,53.72,53.72,0,0,1,25.16-5.84q13.94,0,24.27,5.17a50.3,50.3,0,0,1,16.51,12.58,47.07,47.07,0,0,1,8.65,14.6l-18,7.64q-2.25-8.31-10.22-15t-21-6.74q-12.36,0-21.13,7t-8.76,17.53a18.83,18.83,0,0,0,7.42,15.39q7.41,6,22.47,11.12l10.56,3.6q20.44,7.41,31.9,18.54t11.46,30.22q0,15.49-8,26.06a47,47,0,0,1-20.11,15.5,65.49,65.49,0,0,1-24.95,5A57.44,57.44,0,0,1,4931.71,1657.34Z"/><path class="cls-3" d="M5073.72,1522.52h-45.17v-18.2h109.21v18.2h-44.94V1665.2h-19.1Z"/><path class="cls-3" d="M5157.3,1504.32h54.38a52,52,0,0,1,24.71,6.07,47.51,47.51,0,0,1,18.31,17,45.27,45.27,0,0,1,6.86,24.61,44.38,44.38,0,0,1-5.06,20.89,46.54,46.54,0,0,1-13.93,16.18,49.93,49.93,0,0,1-19.66,8.76l-.45.68,45.39,65.83v.9h-22.47l-43.82-65.61h-25.39v65.61H5157.3Zm53.25,77.52a33.19,33.19,0,0,0,15.62-3.82,30.24,30.24,0,0,0,11.68-10.67,28,28,0,0,0,4.38-15.39,28.28,28.28,0,0,0-3.82-14.16,30.63,30.63,0,0,0-10.67-11,29.39,29.39,0,0,0-15.84-4.27h-35.73v59.32Z"/><path class="cls-3" d="M5309.87,1660.82a54.37,54.37,0,0,1-20.9-22.24q-7.41-14.26-7.41-32.92V1504.32h19.09v102.24q0,19.55,10.34,31.79t29.66,12.25q19.32,0,29.77-12.25t10.45-31.79V1504.32h18.87v101.34q0,18.64-7.07,33a51.6,51.6,0,0,1-20.45,22.24q-13.36,7.88-31.57,7.87Q5323.34,1668.8,5309.87,1660.82Z"/><path class="cls-3" d="M5459.51,1657.79a79.63,79.63,0,0,1-30-30.22q-10.91-19.21-10.9-42.81t10.9-42.8a79.56,79.56,0,0,1,30-30.22,83.49,83.49,0,0,1,42.47-11,78,78,0,0,1,32.92,6.85,76.59,76.59,0,0,1,26,19.44l-13.71,13.25q-9.21-11-20.11-16.17t-25.05-5.17a64.44,64.44,0,0,0-32.13,8.2,61.09,61.09,0,0,0-23.26,23.14q-8.66,15-8.65,34.49t8.65,34.49a61,61,0,0,0,23.26,23.15,64.44,64.44,0,0,0,32.13,8.2q29.2,0,49.66-24l13.93,13.48a81.33,81.33,0,0,1-27.64,21,87.34,87.34,0,0,1-78.42-3.26Z"/><path class="cls-3" d="M5621.52,1522.52h-45.17v-18.2h109.2v18.2h-44.94V1665.2h-19.09Z"/><path class="cls-3" d="M5730.49,1660.82a54.37,54.37,0,0,1-20.9-22.24q-7.41-14.26-7.41-32.92V1504.32h19.1v102.24q0,19.55,10.33,31.79t29.66,12.25q19.32,0,29.77-12.25t10.45-31.79V1504.32h18.88v101.34q0,18.64-7.08,33a51.6,51.6,0,0,1-20.45,22.24q-13.36,7.88-31.57,7.87Q5744,1668.8,5730.49,1660.82Z"/><path class="cls-3" d="M5847.1,1504.32h54.38a51.91,51.91,0,0,1,24.71,6.07,47.54,47.54,0,0,1,18.32,17,45.26,45.26,0,0,1,6.85,24.61,44.37,44.37,0,0,1-5,20.89,46.67,46.67,0,0,1-13.94,16.18,49.93,49.93,0,0,1-19.66,8.76l-.45.68,45.39,65.83v.9h-22.47l-43.81-65.61H5866v65.61H5847.1Zm53.25,77.52A33.16,33.16,0,0,0,5916,1578a30.27,30.27,0,0,0,11.69-10.67A28,28,0,0,0,5932,1552a28.38,28.38,0,0,0-3.82-14.16,30.74,30.74,0,0,0-10.68-11,29.39,29.39,0,0,0-15.84-4.27H5866v59.32Z"/><path class="cls-3" d="M5974.28,1504.32h93v18.2h-74.15v53.26h67v18h-67V1647h74.15v18.2h-93Z"/><rect class="cls-5" x="3884.66" y="1434.76" width="299.99" height="300" rx="49.54"/><path class="cls-3" d="M2428.39,994h52.77a44.11,44.11,0,0,1,20.84,5.13,40.13,40.13,0,0,1,15.5,14.17,37.08,37.08,0,0,1,5.75,20.33,32.43,32.43,0,0,1-5.44,18.68,35.45,35.45,0,0,1-14.68,12.32v.82a37.24,37.24,0,0,1,18.07,12.73,33.65,33.65,0,0,1,7,21.15,39.19,39.19,0,0,1-6.06,21.46,41.93,41.93,0,0,1-16.22,14.89A46.32,46.32,0,0,1,2484,1141h-55.64Zm52.77,63.65a24.27,24.27,0,0,0,13-3.49,24.75,24.75,0,0,0,8.72-8.93A22.39,22.39,0,0,0,2506,1034a22.73,22.73,0,0,0-3-11,24.63,24.63,0,0,0-8.42-8.93,22.86,22.86,0,0,0-12.63-3.49h-36.35v47Zm3.9,66.73a24.29,24.29,0,0,0,13.24-3.69,25.83,25.83,0,0,0,9-9.55,24.88,24.88,0,0,0,3.18-12,24.24,24.24,0,0,0-3.29-12,25.44,25.44,0,0,0-9.24-9.45,26.13,26.13,0,0,0-13.75-3.59h-38.61v50.3Z"/><path class="cls-3" d="M2554.36,1133.17q-10-11.09-10-31v-65.92h17.45v63.25q0,15,6.78,22t18.27,7a27.08,27.08,0,0,0,15.71-4.72,32.17,32.17,0,0,0,10.68-12.32,35.39,35.39,0,0,0,3.8-16v-59.14h17.45V1141h-16.63v-15.2h-.82q-4.32,7.82-13.76,13.14a40.27,40.27,0,0,1-20.12,5.34Q2564.31,1144.26,2554.36,1133.17Z"/><path class="cls-3" d="M2657.74,1013.46a12,12,0,0,1-3.69-8.83,11.71,11.71,0,0,1,3.69-8.72,12.63,12.63,0,0,1,17.66,0,11.72,11.72,0,0,1,3.7,8.72,12.19,12.19,0,0,1-3.6,8.83,11.92,11.92,0,0,1-8.93,3.7A12,12,0,0,1,2657.74,1013.46Zm.21,22.79h17.24V1141H2658Z"/><path class="cls-3" d="M2698.6,994h17.46v147H2698.6Z"/><path class="cls-3" d="M2755.79,1137.07a50.33,50.33,0,0,1-18-19.81,65.51,65.51,0,0,1,0-57.19,50.21,50.21,0,0,1,18-19.91,46.59,46.59,0,0,1,25.36-7.19,42.48,42.48,0,0,1,21.56,5.44,39.63,39.63,0,0,1,14.37,13.45h.82l-.82-14.58V994h17.46v147H2817.9v-15.4h-.82a40.37,40.37,0,0,1-14.37,13.24,42.38,42.38,0,0,1-21.56,5.44A46.59,46.59,0,0,1,2755.79,1137.07Zm44.56-13.55a35.94,35.94,0,0,0,12.73-14,47.92,47.92,0,0,0,0-41.89,36,36,0,0,0-12.73-14,32.1,32.1,0,0,0-34.19,0,35.46,35.46,0,0,0-12.83,14.06,47.4,47.4,0,0,0,0,41.69,35.46,35.46,0,0,0,12.83,14.06,32.1,32.1,0,0,0,34.19,0Z"/><path class="cls-3" d="M2882.17,994h19.3l26.7,108,2.46,10.06h.82l3.08-10.06,32.86-108h18.07l31.41,108L3020,1112h.83L3049.73,994H3069l-39.63,147h-18.07l-31.21-106.37-3.29-11.5H2976l-3.49,11.5L2940.08,1141H2922Z"/><path class="cls-3" d="M3081.35,994h17.45v43.32l-.82,14.37h.82q4.3-8,13.65-13.34a40.47,40.47,0,0,1,20.43-5.34q19.11,0,29.16,11.19t10.06,29.67V1141h-17.45V1076.5q0-14.16-7.19-20.94t-18.68-6.78a25.29,25.29,0,0,0-15.09,4.93,36.24,36.24,0,0,0-14.89,29V1141h-17.45Z"/><path class="cls-3" d="M3205,1139.74a33.74,33.74,0,0,1-14-12.42,33.22,33.22,0,0,1-4.93-18q0-16.62,12.52-26t31.63-9.34a71.35,71.35,0,0,1,17.55,2,45.3,45.3,0,0,1,12.42,4.72v-6.36q0-11.71-8.21-18.79t-20.74-7.09a35,35,0,0,0-16.22,3.8,29.63,29.63,0,0,0-11.7,10.58l-13.15-9.86a42.09,42.09,0,0,1,16.94-14.78A53.16,53.16,0,0,1,3231,1033q21.35,0,33.57,11.19t12.22,30.49V1141h-16.64v-15h-.82a37.48,37.48,0,0,1-13.55,12.93,39.19,39.19,0,0,1-20.33,5.34A45.28,45.28,0,0,1,3205,1139.74Zm38.6-15.4a34.21,34.21,0,0,0,12.12-12.11,32,32,0,0,0,4.51-16.63,43.05,43.05,0,0,0-12.11-5.34,55,55,0,0,0-15.2-2.06q-14.37,0-21.66,6a19,19,0,0,0-7.29,15.4,17.13,17.13,0,0,0,6.57,14q6.57,5.34,16.64,5.34A31.48,31.48,0,0,0,3243.56,1124.34Z"/><path class="cls-3" d="M3323.33,1142.17a26.84,26.84,0,0,1-9.13-5.64,25.7,25.7,0,0,1-6.16-9.2,35,35,0,0,1-2.06-12.76v-62.5h-18.27v-15.82H3306v-29.56h17.46v29.56h25.46v15.82h-25.46v58.34q0,8.82,3.28,13,3.9,4.62,11.3,4.62a21.25,21.25,0,0,0,11.49-3.49v17a27.17,27.17,0,0,1-6.26,2.06,44,44,0,0,1-8.11.61A32.77,32.77,0,0,1,3323.33,1142.17Z"/><path class="cls-3" d="M3363.07,1030.92l10.06-15.4a11.72,11.72,0,0,1-9.45-11.71,12.71,12.71,0,0,1,3.8-9.34,12.47,12.47,0,0,1,9.14-3.8,13,13,0,0,1,13.14,13.14,16.06,16.06,0,0,1-1.33,6.37,51.15,51.15,0,0,1-4.21,7.39l-12.94,18.68Z"/><path class="cls-3" d="M3406.8,1136.36a43.23,43.23,0,0,1-16-20.23l15.6-7a31.31,31.31,0,0,0,11.61,14.58,29.91,29.91,0,0,0,16.94,5.13q9.86,0,16.83-4t7-11.4a12.43,12.43,0,0,0-5.55-10.57q-5.55-4-17.45-6.88l-12.73-3.29q-12.53-3.08-20.54-10.47t-8-19.1a24.92,24.92,0,0,1,5.45-15.91,34.78,34.78,0,0,1,14.47-10.57,50.92,50.92,0,0,1,19.51-3.7,50,50,0,0,1,24.54,6,33.73,33.73,0,0,1,15.29,16.64l-15.19,7q-7-14-24.85-14a28.07,28.07,0,0,0-15.09,4q-6.46,4-6.47,10.16a11.4,11.4,0,0,0,4.52,9.35q4.52,3.59,13.55,5.85l15.2,3.9q15.39,3.9,23.2,11.6a25.4,25.4,0,0,1,7.8,18.79,27.19,27.19,0,0,1-5.54,16.94,35.25,35.25,0,0,1-15,11.19,54.39,54.39,0,0,1-20.94,3.9Q3418.1,1144.26,3406.8,1136.36Z"/><path class="cls-3" d="M3538.42,994h21.36l73.71,117h.82l-.82-28.34V994H3651v147h-18.07l-77.21-122.59h-.82l.82,28.34V1141h-17.25Z"/><path class="cls-3" d="M3695.91,1137.07a49.84,49.84,0,0,1-18.58-19.81,59.92,59.92,0,0,1-6.67-28.44,62.35,62.35,0,0,1,6.26-27.93,50.6,50.6,0,0,1,17.76-20.32q11.51-7.6,26.69-7.6,15.4,0,26.7,6.88a45.78,45.78,0,0,1,17.35,19q6.06,12.12,6.06,27.72a20.4,20.4,0,0,1-.62,5.34h-82.75q.61,11.91,5.75,20.12a33.41,33.41,0,0,0,13,12.32,35.37,35.37,0,0,0,16.53,4.11q20.12,0,31-18.89l14.79,7.19a52.77,52.77,0,0,1-18.38,20.12q-11.6,7.39-28,7.39A51.06,51.06,0,0,1,3695.91,1137.07Zm57.09-59.54a34.1,34.1,0,0,0-3.7-13.14,28.09,28.09,0,0,0-10.37-11.09q-7.08-4.52-17.76-4.52a29.52,29.52,0,0,0-20.84,7.91q-8.52,7.9-11.19,20.84Z"/><path class="cls-3" d="M3812.34,1087.79,3776,1036.25h19.72l27.1,38.81,26.08-38.81h20.33l-36.55,51.54L3870,1141h-20.33l-27.31-40.25L3795.71,1141h-20.33Z"/><path class="cls-3" d="M3910,1142.17a26.84,26.84,0,0,1-9.13-5.64,25.7,25.7,0,0,1-6.16-9.2,35,35,0,0,1-2.06-12.76v-62.5h-18.27v-15.82h18.27v-29.56h17.46v29.56h25.46v15.82h-25.46v58.34q0,8.82,3.28,13,3.9,4.62,11.3,4.62a21.22,21.22,0,0,0,11.49-3.49v17a27.17,27.17,0,0,1-6.26,2.06,44,44,0,0,1-8.11.61A32.77,32.77,0,0,1,3910,1142.17Z"/><path class="cls-3" d="M3954.74,1137.36a11.8,11.8,0,0,1-3.8-8.9,11.58,11.58,0,0,1,3.8-8.71,13,13,0,0,1,9.34-3.62,12.8,12.8,0,0,1,9.14,3.62,11.61,11.61,0,0,1,3.8,8.71,11.83,11.83,0,0,1-3.8,8.9,12.8,12.8,0,0,1-9.14,3.62A13,13,0,0,1,3954.74,1137.36Z"/><path class="cls-3" d="M4066.34,1010.59h-41.28V994h99.8v16.63h-41.07V1141h-17.45Z"/><path class="cls-3" d="M4126.91,1036.25h16.63v16.84h.82q3.07-8.62,11.91-14.37a33.38,33.38,0,0,1,18.48-5.75,30.39,30.39,0,0,1,12.32,2.26v18.68a32.73,32.73,0,0,0-14.78-3.28,24.37,24.37,0,0,0-14,4.32,31.09,31.09,0,0,0-10.16,11.63,33.54,33.54,0,0,0-3.8,15.74V1141h-17.45Z"/><path class="cls-3" d="M4208.63,1139.74a33.86,33.86,0,0,1-14-12.42,33.31,33.31,0,0,1-4.93-18q0-16.62,12.53-26t31.62-9.34a71.43,71.43,0,0,1,17.56,2,45.56,45.56,0,0,1,12.42,4.72v-6.36q0-11.71-8.21-18.79t-20.74-7.09a35,35,0,0,0-16.23,3.8A29.77,29.77,0,0,0,4207,1063l-13.14-9.86a42,42,0,0,1,16.94-14.78,53.15,53.15,0,0,1,23.92-5.34q21.36,0,33.57,11.19t12.22,30.49V1141h-16.63v-15h-.82a37.48,37.48,0,0,1-13.55,12.93,39.24,39.24,0,0,1-20.33,5.34A45.35,45.35,0,0,1,4208.63,1139.74Zm38.61-15.4a34.19,34.19,0,0,0,12.11-12.11,32,32,0,0,0,4.52-16.63,43.25,43.25,0,0,0-12.12-5.34,55,55,0,0,0-15.19-2.06q-14.37,0-21.66,6a19,19,0,0,0-7.29,15.4,17.1,17.1,0,0,0,6.57,14q6.57,5.34,16.63,5.34A31.54,31.54,0,0,0,4247.24,1124.34Z"/><path class="cls-3" d="M4300.62,1036.25h16.63v15.4h.83q4.31-7.8,13.75-13.24A39.78,39.78,0,0,1,4352,1033q18.89,0,28.85,11t9.95,29.88V1141h-17.45V1076.5q0-14.58-7-21.15t-19.1-6.57a25.55,25.55,0,0,0-15.09,4.72,31.77,31.77,0,0,0-10.37,12.43,36.82,36.82,0,0,0-3.69,16.11V1141h-17.46Z"/><path class="cls-3" d="M4419.1,1136.36a43.19,43.19,0,0,1-16-20.23l15.61-7a31.35,31.35,0,0,0,11.6,14.58,29.93,29.93,0,0,0,16.94,5.13q9.86,0,16.84-4t7-11.4a12.45,12.45,0,0,0-5.54-10.57q-5.55-4-17.46-6.88l-12.73-3.29q-12.52-3.08-20.53-10.47t-8-19.1a24.91,24.91,0,0,1,5.44-15.91,34.82,34.82,0,0,1,14.48-10.57,50.88,50.88,0,0,1,19.51-3.7,50,50,0,0,1,24.53,6,33.71,33.71,0,0,1,15.3,16.64l-15.19,7q-7-14-24.85-14a28.07,28.07,0,0,0-15.09,4q-6.46,4-6.47,10.16a11.37,11.37,0,0,0,4.52,9.35q4.52,3.59,13.55,5.85l15.19,3.9q15.41,3.9,23.21,11.6a25.4,25.4,0,0,1,7.8,18.79,27.25,27.25,0,0,1-5.54,16.94,35.31,35.31,0,0,1-15,11.19,54.41,54.41,0,0,1-21,3.9Q4430.4,1144.26,4419.1,1136.36Z"/><path class="cls-3" d="M4515.81,1052.07h-19.3v-15.82h19.3V1025a32.44,32.44,0,0,1,4.52-17.25,30.77,30.77,0,0,1,12.11-11.39,35.57,35.57,0,0,1,16.84-4,43.6,43.6,0,0,1,15.4,2.47v17q-3.69-1.44-7-2.36a28.85,28.85,0,0,0-7.8-.93,16.17,16.17,0,0,0-11.71,4.83q-4.92,4.83-4.92,13.45v9.44h26.89v15.82h-26.89V1141h-17.46Z"/><path class="cls-3" d="M4591.58,1136.87a51.74,51.74,0,0,1-19.2-20.12,61,61,0,0,1,0-56.27,51.8,51.8,0,0,1,19.2-20.12,55.68,55.68,0,0,1,55.44,0,51.73,51.73,0,0,1,19.2,20.12,61,61,0,0,1,0,56.27,51.67,51.67,0,0,1-19.2,20.12,55.68,55.68,0,0,1-55.44,0Zm45.69-13.25a35.65,35.65,0,0,0,13.35-13.86q5-9,5-21.14t-5-21.15a35.65,35.65,0,0,0-13.35-13.86,35.15,35.15,0,0,0-18-4.83,35.68,35.68,0,0,0-31.52,18.69q-5,9-5,21.15t5,21.14a35.9,35.9,0,0,0,49.49,13.86Z"/><path class="cls-3" d="M4687.27,1036.25h16.63v16.84h.82q3.09-8.62,11.91-14.37a33.4,33.4,0,0,1,18.48-5.75,30.39,30.39,0,0,1,12.32,2.26v18.68a32.73,32.73,0,0,0-14.78-3.28,24.37,24.37,0,0,0-14,4.32,31.09,31.09,0,0,0-10.16,11.63,33.66,33.66,0,0,0-3.8,15.74V1141h-17.45Z"/><path class="cls-3" d="M4760.16,1036.25h16.64v15.4h.82a36.25,36.25,0,0,1,13.55-13.34,37,37,0,0,1,19.1-5.34,36,36,0,0,1,20,5.54,31.09,31.09,0,0,1,12.21,14.79,42.85,42.85,0,0,1,14.68-14.79,40.23,40.23,0,0,1,21.26-5.54q18.06,0,27.2,11t9.14,29.88V1141h-17.25V1076.5q0-14.58-5.95-21.15t-17.66-6.57a23.93,23.93,0,0,0-14.17,4.52,30.59,30.59,0,0,0-10,12.11,38.06,38.06,0,0,0-3.59,16.43V1141h-17.45v-64.27q0-14.79-6-21.36t-17.45-6.57a23.54,23.54,0,0,0-14.17,4.62,31.09,31.09,0,0,0-10,12.32,38.55,38.55,0,0,0-3.59,16.53V1141h-17.46Z"/><path class="cls-3" d="M4982.75,994H5000v130.38h64.47V1141h-81.72Z"/><path class="cls-3" d="M5096.91,1137.07a49.84,49.84,0,0,1-18.58-19.81,59.92,59.92,0,0,1-6.67-28.44,62.35,62.35,0,0,1,6.26-27.93,50.6,50.6,0,0,1,17.76-20.32q11.49-7.6,26.69-7.6,15.41,0,26.7,6.88a45.78,45.78,0,0,1,17.35,19q6,12.12,6.06,27.72a20.4,20.4,0,0,1-.62,5.34h-82.75q.62,11.91,5.75,20.12a33.41,33.41,0,0,0,13,12.32,35.37,35.37,0,0,0,16.53,4.11q20.11,0,31-18.89l14.79,7.19a52.77,52.77,0,0,1-18.38,20.12q-11.61,7.39-28,7.39A51.06,51.06,0,0,1,5096.91,1137.07Zm57.08-59.54a33.91,33.91,0,0,0-3.69-13.14,28.09,28.09,0,0,0-10.37-11.09q-7.08-4.52-17.76-4.52a29.49,29.49,0,0,0-20.84,7.91q-8.53,7.9-11.19,20.84Z"/><path class="cls-3" d="M5205.22,1180q-12-8.62-16.12-20.74l15.81-6.78a31.37,31.37,0,0,0,11.6,14.69,32.79,32.79,0,0,0,19.2,5.64q16.23,0,25.16-9t8.93-25.85v-11.71H5269a38.28,38.28,0,0,1-14.48,13,44.15,44.15,0,0,1-21.25,5,45.39,45.39,0,0,1-24.74-7.06,49.82,49.82,0,0,1-17.77-19.72q-6.57-12.68-6.57-28.86a61.93,61.93,0,0,1,6.57-28.76,49.74,49.74,0,0,1,17.77-19.83,45.39,45.39,0,0,1,24.74-7.06,44.15,44.15,0,0,1,21.25,5,37.78,37.78,0,0,1,14.48,13.24h.82v-15h16.63v100.62q0,25.26-14,38.5t-36.76,13.24Q5217.23,1188.61,5205.22,1180Zm47.64-56.34a34.17,34.17,0,0,0,12.32-13.76q4.62-9,4.62-21.27,0-12.52-4.62-21.48a33.45,33.45,0,0,0-12.32-13.67,33.53,33.53,0,0,0-34.39.11,33.9,33.9,0,0,0-12.43,13.76q-4.62,9-4.62,21.28T5206,1110a32.33,32.33,0,0,0,29.67,18.46A31.76,31.76,0,0,0,5252.86,1123.65Z"/><path class="cls-3" d="M5320.11,1139.74a33.83,33.83,0,0,1-14-12.42,33.3,33.3,0,0,1-4.92-18q0-16.62,12.52-26t31.62-9.34a71.37,71.37,0,0,1,17.56,2,45.43,45.43,0,0,1,12.42,4.72v-6.36q0-11.71-8.21-18.79t-20.74-7.09a35,35,0,0,0-16.22,3.8,29.73,29.73,0,0,0-11.71,10.58l-13.14-9.86a42.09,42.09,0,0,1,16.94-14.78,53.15,53.15,0,0,1,23.92-5.34q21.36,0,33.58,11.19t12.21,30.49V1141h-16.63v-15h-.82a37.48,37.48,0,0,1-13.55,12.93,39.21,39.21,0,0,1-20.33,5.34A45.28,45.28,0,0,1,5320.11,1139.74Zm38.6-15.4a34.19,34.19,0,0,0,12.11-12.11,32,32,0,0,0,4.52-16.63,43.05,43.05,0,0,0-12.11-5.34,55.09,55.09,0,0,0-15.2-2.06q-14.37,0-21.66,6a19,19,0,0,0-7.29,15.4,17.13,17.13,0,0,0,6.57,14q6.57,5.34,16.63,5.34A31.52,31.52,0,0,0,5358.71,1124.34Z"/><path class="cls-3" d="M5431.19,1137a50.86,50.86,0,0,1-18.89-19.92,59.09,59.09,0,0,1-6.77-28.43,59.79,59.79,0,0,1,6.77-28.55,50,50,0,0,1,18.89-19.91,52.53,52.53,0,0,1,27.31-7.19q17,0,28.65,7.9a43.39,43.39,0,0,1,16.53,21.05l-15.81,6.57a30.72,30.72,0,0,0-11.61-14.68q-7.69-5-18.58-5a31.88,31.88,0,0,0-17.25,5,36.45,36.45,0,0,0-12.83,14.07,46.92,46.92,0,0,0,0,41.47,36.38,36.38,0,0,0,12.83,14.07,31.79,31.79,0,0,0,17.25,5q11.08,0,19.1-5.13a30.68,30.68,0,0,0,11.91-14.58l15.6,6.57a46.11,46.11,0,0,1-17.14,20.94q-11.82,8-28.65,8A51.94,51.94,0,0,1,5431.19,1137Z"/><path class="cls-3" d="M5551.11,1134.41l-43.33-98.16h18.89l32.86,77.83h.41l31.62-77.83h18.89l-64.68,149.08H5527.7Z"/><path class="cls-3" d="M5608.7,1137.36a11.83,11.83,0,0,1-3.8-8.9,11.61,11.61,0,0,1,3.8-8.71,13,13,0,0,1,9.35-3.62,12.78,12.78,0,0,1,9.13,3.62,11.58,11.58,0,0,1,3.8,8.71,11.8,11.8,0,0,1-3.8,8.9,12.78,12.78,0,0,1-9.13,3.62A13,13,0,0,1,5608.7,1137.36Z"/><path class="cls-3" d="M5728.51,1020.24h-41.06V994H5797.3v26.28h-41.06V1141h-27.73Z"/><path class="cls-3" d="M5816.4,1137a51.72,51.72,0,0,1-19.81-19.92,60.36,60.36,0,0,1,0-56.77,51.51,51.51,0,0,1,19.81-20,60.73,60.73,0,0,1,57.7,0,51.51,51.51,0,0,1,19.81,20,60.36,60.36,0,0,1,0,56.77A51.72,51.72,0,0,1,5874.1,1137a60.73,60.73,0,0,1-57.7,0Zm43.33-21.25A27,27,0,0,0,5870.2,1105a33.13,33.13,0,0,0,3.9-16.42,32.73,32.73,0,0,0-3.9-16.23,27.08,27.08,0,0,0-10.47-10.67,29.77,29.77,0,0,0-28.75,0,27.81,27.81,0,0,0-10.58,10.67,32,32,0,0,0-4,16.23,32.57,32.57,0,0,0,4,16.32,27.64,27.64,0,0,0,10.58,10.78,29.77,29.77,0,0,0,28.75,0Z"/><path class="cls-3" d="M5932.62,1179.68q-13.14-8.92-17.66-21.46l25.26-10.26a27,27,0,0,0,25.46,16.83q12.72,0,20.22-7.8t7.5-22.17v-8.22h-1.65a31.73,31.73,0,0,1-12.93,10.68,43.22,43.22,0,0,1-18.28,3.7,46.27,46.27,0,0,1-24.12-6.68,49.13,49.13,0,0,1-18-18.89q-6.78-12.21-6.78-28.44t6.78-28.44a49.27,49.27,0,0,1,18-18.89,46.35,46.35,0,0,1,24.12-6.67,43.07,43.07,0,0,1,18.28,3.7,31.78,31.78,0,0,1,12.93,10.67h1.65v-11.09h25.87v97.54q0,16.83-6.57,29.16a45.85,45.85,0,0,1-18.69,19q-12.12,6.68-28.33,6.67Q5945.76,1188.61,5932.62,1179.68Zm52.77-71q8-7.91,8-21.67,0-14.16-7.91-21.87a28.28,28.28,0,0,0-38.91.11q-8,7.8-8,21.76t8,21.77a26.91,26.91,0,0,0,19.51,7.8A26.49,26.49,0,0,0,5985.39,1108.64Z"/><path class="cls-3" d="M6061.36,1137.07a51.39,51.39,0,0,1-19.6-19.81,59.76,59.76,0,0,1-.11-56.26,53.68,53.68,0,0,1,19.3-20.43,51.36,51.36,0,0,1,27.52-7.6q16.21,0,27.92,7a45.53,45.53,0,0,1,17.77,19.1,59.41,59.41,0,0,1,6.05,26.9,63.86,63.86,0,0,1-.61,9H6061q2.05,12.52,10,19a29,29,0,0,0,19,6.47,30.34,30.34,0,0,0,15.91-4,29.53,29.53,0,0,0,10.57-10.78l21.77,10.68q-16,27.92-48.66,27.92A55.53,55.53,0,0,1,6061.36,1137.07Zm53-61.19a20.78,20.78,0,0,0-3.59-9.75,25.33,25.33,0,0,0-8.83-8,26.57,26.57,0,0,0-13.25-3.18,25.21,25.21,0,0,0-16.53,5.65,31.65,31.65,0,0,0-10,15.29Z"/><path class="cls-3" d="M6185,1141.86a28.33,28.33,0,0,1-10.67-6.6q-9.66-9.42-9.65-26.8v-49.21h-18.28v-23h18.28v-29.56h26.9v29.56h25.66v23h-25.66v44.55q0,8.23,3.49,11.83,2.86,3.38,9.85,3.38a17.65,17.65,0,0,0,6.47-1,49.78,49.78,0,0,0,6.67-3.49v26.28a50.25,50.25,0,0,1-18.68,3.49A41.6,41.6,0,0,1,6185,1141.86Z"/><path class="cls-3" d="M6236.51,994h26.9v37.16l-1.64,18.28h1.64a32.71,32.71,0,0,1,13.14-11.91,39.7,39.7,0,0,1,18.69-4.52q19.1,0,29.26,11.4t10.16,31.51V1141h-26.9v-61.81q0-10.07-5.44-15.61t-14.47-5.54a21.48,21.48,0,0,0-17.56,8.62q-6.89,8.63-6.88,21.15V1141h-26.9Z"/><path class="cls-3" d="M6377,1137.07a51.41,51.41,0,0,1-19.61-19.81,59.79,59.79,0,0,1-.1-56.26,53.61,53.61,0,0,1,19.3-20.43,51.3,51.3,0,0,1,27.51-7.6q16.23,0,27.93,7a45.57,45.57,0,0,1,17.76,19.1,59.28,59.28,0,0,1,6.06,26.9,63.83,63.83,0,0,1-.62,9h-78.64q2.05,12.52,10,19a29,29,0,0,0,19,6.47,30.34,30.34,0,0,0,15.91-4,29.56,29.56,0,0,0,10.58-10.78l21.76,10.68q-16,27.92-48.66,27.92A55.5,55.5,0,0,1,6377,1137.07Zm53-61.19a20.9,20.9,0,0,0-3.6-9.75,25.16,25.16,0,0,0-8.83-8,26.53,26.53,0,0,0-13.24-3.18,25.17,25.17,0,0,0-16.53,5.65,31.59,31.59,0,0,0-10,15.29Z"/><path class="cls-3" d="M6472.44,1036.25h25.26v14h1.64a31.62,31.62,0,0,1,12.11-12.32,35.88,35.88,0,0,1,31.21-2.47v26.7a87.67,87.67,0,0,0-9.34-3,34,34,0,0,0-8.11-.92q-11.91,0-18.89,8.64t-7,21.82V1141h-26.9Z"/><path class="cls-3" d="M6541.12,1135.92a16.32,16.32,0,0,1-5.23-12.19,16,16,0,0,1,5.23-12.09,18.59,18.59,0,0,1,25.26,0,16,16,0,0,1,5.23,12.09,16.32,16.32,0,0,1-5.23,12.19,18.29,18.29,0,0,1-25.26,0Z"/><path class="cls-1" d="M3431.33,520.34a96.37,96.37,0,0,1-192.73,0l-1.91-154.18,0-2.49a96.37,96.37,0,0,1,192.73,0l1.91,154.18Z"/><circle class="cls-4" cx="3334.96" cy="754.49" r="96.37"/><path class="cls-2" d="M3066.25,640,2727.83,835.41A96.4,96.4,0,0,1,2583.27,752V361.08a96.39,96.39,0,0,1,144.56-83.37l337.1,194.63,1.32.76,0,0a96.29,96.29,0,0,1,0,166.9Z"/><path class="cls-5" d="M2452.51,604.73A95.59,95.59,0,0,1,2417.24,640c-.27.17-.56.33-.83.48L2078.82,835.41a96.37,96.37,0,1,1-96.36-166.92l193.85-111.94L1982.46,444.62a96.36,96.36,0,1,1,96.36-166.91L2417.24,473.1A96.32,96.32,0,0,1,2452.51,604.73Z"/><path class="cls-3" d="M3569.77,343.21h129.49q65.92,0,115.09,27.28t75.53,75.83q26.37,48.56,26.38,111.5t-26.38,111.5q-26.39,48.55-75.53,75.83t-115.09,27.27H3569.77Zm129.49,380.66q76.11,0,120.79-43.76t44.66-122.29q0-78.53-44.66-122.29t-120.79-43.76h-79.13v332.1Z"/><path class="cls-3" d="M3979.19,343.21h248.18v48.56H4029.55V533.84h178.63v48H4029.55V723.87h197.82v48.55H3979.19Z"/><path class="cls-3" d="M4257.94,343.21h56.35l106.1,311.12,14.38,42.56h2.4l15-42.56,110.9-311.12h56.35L4462.35,772.42H4409.6Z"/><path class="cls-3" d="M4663.16,343.21h248.18v48.56H4713.52V538.63h178.63v48H4713.52V772.42h-50.36Z"/><path class="cls-3" d="M4969.48,343.21h248.17v48.56H5019.83V533.84h178.64v48H5019.83V723.87h197.82v48.55H4969.48Z"/><path class="cls-3" d="M5315.36,751.44q-42-30.57-57.55-85.72l48.56-19.78q10.19,38.37,37.76,62.94t64.74,24.58q37.17,0,62.95-20.09t25.77-54.84q0-30-21.88-49.46t-71.63-36.27l-27-9.59q-45.56-16.19-74.33-42.56T5274,447.52a102.64,102.64,0,0,1,16.78-56.65q16.77-26.07,46.76-41.66t67.14-15.59q37.15,0,64.74,13.79T5513.48,381q16.49,19.78,23.08,39l-48,20.38q-6-22.17-27.28-40.16t-56-18q-33,0-56.35,18.58t-23.38,46.76q0,25.17,19.78,41.06t59.95,29.67l28.17,9.59q54.54,19.78,85.12,49.46t30.57,80.63q0,41.36-21.27,69.53a125.43,125.43,0,0,1-53.66,41.37A175,175,0,0,1,5407.67,782Q5357.33,782,5315.36,751.44Z"/><path class="cls-3" d="M5694.21,391.77H5573.72V343.21h291.33v48.56H5745.16V772.42h-50.95Z"/><path class="cls-3" d="M6079.65,572.8,5935.18,343.21h96.51l85.73,142.07h4.79l82.73-142.07h97.71L6160.58,572.8V772.42h-80.93Z"/><path class="cls-3" d="M6449.51,572.8,6305.05,343.21h96.51l85.72,142.07h4.79l82.73-142.07h97.71L6530.44,572.8V772.42h-80.93Z"/><path class="cls-3" d="M6780.41,752.34a217.69,217.69,0,0,1-81.22-80.93q-29.69-51.25-29.68-113.59t29.68-113.6a217.76,217.76,0,0,1,81.22-80.93q51.56-29.67,113.9-29.67,97.11,0,160.65,70.14L6998,458.91q-41.36-48.56-103.1-48.56-40.17,0-73.14,18.28a132.13,132.13,0,0,0-51.85,51.86Q6751,514.06,6751,557.82t18.88,77.33A132,132,0,0,0,6821.77,687q33,18.29,73.14,18.28,67.73,0,113.3-56.35l57.54,54.55q-31.77,38.37-75.23,58.45T6894.31,782Q6832,782,6780.41,752.34Z"/></svg>