<svg id="Layer_1" data-name="Layer 1" xmlns="http://www.w3.org/2000/svg" viewBox="0 0 3000 500"><defs><style>.cls-1{fill:none;}.cls-2{fill:#fbbc04;}.cls-3{fill:#676c72;}</style></defs><title>021-02 Code Track Logo</title><rect class="cls-1" x="984.18" y="100.23" width="299.99" height="299.99" rx="49.54"/><path class="cls-2" d="M1264.9,274.54a49.14,49.14,0,0,1-18.13,18.14l-.43.25-173.55,100.2a49.54,49.54,0,1,1-49.54-85.81l99.66-57.55-99.66-57.54a49.54,49.54,0,1,1,49.54-85.81l174,100.45A49.52,49.52,0,0,1,1264.9,274.54Z"/><path class="cls-3" d="M1463.07,323a79.58,79.58,0,0,1-30-30.23q-10.9-19.2-10.9-42.8t10.9-42.8a79.65,79.65,0,0,1,30-30.23,83.62,83.62,0,0,1,42.47-11,78,78,0,0,1,32.92,6.86,76.69,76.69,0,0,1,26,19.43l-13.7,13.26q-9.23-11-20.11-16.18t-25.06-5.16a64.49,64.49,0,0,0-32.13,8.2,61,61,0,0,0-23.25,23.14q-8.65,14.94-8.66,34.49t8.66,34.49a60.93,60.93,0,0,0,23.25,23.14,64.49,64.49,0,0,0,32.13,8.2q29.2,0,49.66-24l13.93,13.48a80.89,80.89,0,0,1-27.64,21,87.3,87.3,0,0,1-78.42-3.25Z"/><path class="cls-3" d="M1621,322.8a80.88,80.88,0,0,1-29.66-30.45,88.29,88.29,0,0,1,0-84.59,82.92,82.92,0,0,1,113.69-30.56,81.55,81.55,0,0,1,29.77,30.56,87.93,87.93,0,0,1,.12,84.59A83.26,83.26,0,0,1,1621,322.8Zm73.81-15.39A61.41,61.41,0,0,0,1717.77,284q8.42-14.94,8.42-34t-8.42-34a61.41,61.41,0,0,0-22.92-23.37,62.56,62.56,0,0,0-86.4,23.48,71.67,71.67,0,0,0,0,67.86,62.15,62.15,0,0,0,22.92,23.48,64,64,0,0,0,63.48,0Z"/><path class="cls-3" d="M1769.33,169.56h48.54q24.7,0,43.14,10.22a70.38,70.38,0,0,1,28.31,28.43q9.89,18.19,9.89,41.79t-9.89,41.79A70.38,70.38,0,0,1,1861,320.22q-18.43,10.23-43.14,10.22h-48.54Zm48.54,142.68q28.53,0,45.27-16.4T1879.88,250q0-29.43-16.74-45.84t-45.27-16.4h-29.66V312.24Z"/><path class="cls-3" d="M1922.8,169.56h93v18.2h-74.15V241h67v18h-67v53.25h74.15v18.2h-93Z"/></svg>