<svg id="Layer_1" data-name="Layer 1" xmlns="http://www.w3.org/2000/svg" viewBox="0 0 1451 500"><defs><style>.cls-1{fill:none;}.cls-2{fill:#fbbc04;}.cls-3{fill:#676c72;}</style></defs><title>021-01 Track Code</title><rect class="cls-1" x="210.05" y="100.23" width="300" height="300" rx="49.54"/><path class="cls-2" d="M490.77,274.54a49.14,49.14,0,0,1-18.13,18.14l-.43.25L298.66,393.13a49.54,49.54,0,1,1-49.54-85.81l99.66-57.55-99.66-57.54a49.54,49.54,0,1,1,49.54-85.81l174,100.45A49.52,49.52,0,0,1,490.77,274.54Z"/><path class="cls-3" d="M688.94,323a79.58,79.58,0,0,1-30-30.23Q648,273.6,648.05,250T659,207.2a79.65,79.65,0,0,1,30-30.23,83.59,83.59,0,0,1,42.47-11,78.05,78.05,0,0,1,32.92,6.86,76.69,76.69,0,0,1,25.95,19.43l-13.71,13.26q-9.21-11-20.11-16.18t-25.05-5.16a64.46,64.46,0,0,0-32.13,8.2A61.09,61.09,0,0,0,676,215.51q-8.65,14.94-8.65,34.49T676,284.49a61,61,0,0,0,23.26,23.14,64.46,64.46,0,0,0,32.13,8.2q29.21,0,49.66-24L795,305.27a81,81,0,0,1-27.64,21A87.3,87.3,0,0,1,688.94,323Z"/><path class="cls-3" d="M846.9,322.8a81,81,0,0,1-29.66-30.45,88.36,88.36,0,0,1,0-84.59,82.93,82.93,0,0,1,113.7-30.56,81.62,81.62,0,0,1,29.77,30.56,87.9,87.9,0,0,1,.11,84.59A83.26,83.26,0,0,1,846.9,322.8Zm73.82-15.39A61.31,61.31,0,0,0,943.63,284q8.43-14.94,8.43-34t-8.43-34a61.31,61.31,0,0,0-22.91-23.37,62.12,62.12,0,0,0-31.8-8.42,61.46,61.46,0,0,0-31.68,8.42,62.22,62.22,0,0,0-22.92,23.48,71.67,71.67,0,0,0,0,67.86,62.15,62.15,0,0,0,22.92,23.48,61.46,61.46,0,0,0,31.68,8.42A62.12,62.12,0,0,0,920.72,307.41Z"/><path class="cls-3" d="M995.2,169.56h48.53q24.72,0,43.15,10.22a70.44,70.44,0,0,1,28.31,28.43q9.88,18.19,9.88,41.79t-9.88,41.79a70.44,70.44,0,0,1-28.31,28.43q-18.44,10.23-43.15,10.22H995.2Zm48.53,142.68q28.55,0,45.28-16.4T1105.75,250q0-29.43-16.74-45.84t-45.28-16.4h-29.65V312.24Z"/><path class="cls-3" d="M1148.66,169.56h93v18.2h-74.15V241h67v18h-67v53.25h74.15v18.2h-93Z"/><rect class="cls-1" y="145" width="210" height="210"/><rect class="cls-1" x="1241" y="145" width="210" height="210"/></svg>