<svg id="Layer_1" data-name="Layer 1" xmlns="http://www.w3.org/2000/svg" viewBox="0 0 1782 500"><defs><style>.cls-1{fill:#fbbc04;}.cls-2{fill:#4285f4;}.cls-3{fill:#676c72;}.cls-4{fill:none;}</style></defs><title>022-01 Data&amp;amp;AI Logo</title><path class="cls-1" d="M427.37,112.71l-3.7,3.71A48,48,0,0,1,427.37,112.71Z"/><path class="cls-2" d="M510,149.54V350.46A49.55,49.55,0,0,1,460.5,400H259.59a49.54,49.54,0,0,1-36.83-82.67L427.37,112.71A49.54,49.54,0,0,1,510,149.54Z"/><path class="cls-1" d="M327,213.08,323.13,217A48.86,48.86,0,0,1,327,213.08Z"/><circle class="cls-2" cx="259.59" cy="149.55" r="49.54"/><path class="cls-3" d="M655.91,169.56h48.54q24.7,0,43.14,10.22a70.38,70.38,0,0,1,28.31,28.43q9.89,18.19,9.89,41.79t-9.89,41.79a70.38,70.38,0,0,1-28.31,28.43q-18.44,10.23-43.14,10.22H655.91Zm48.54,142.68q28.53,0,45.27-16.4T766.46,250q0-29.43-16.74-45.84t-45.27-16.4H674.79V312.24Z"/><path class="cls-3" d="M848.92,169.56h21.57l61.12,160.88h-20.9l-16.17-44.26H825.1l-16.17,44.26H788ZM888,268.2l-21.35-58-6.51-17.3h-.9L853,210.23l-21.35,58Z"/><path class="cls-3" d="M966.89,187.76H921.72v-18.2h109.2v18.2H986V330.44h-19.1Z"/><path class="cls-3" d="M1082.16,169.56h21.57l61.11,160.88H1144l-16.18-44.26h-69.43l-16.18,44.26h-20.9Zm39.09,98.64-21.34-58-6.52-17.3h-.9l-6.29,17.3-21.35,58Z"/><path class="cls-3" d="M1327.29,303.25l15.28,20L1328.19,334l-11.46-15.28A52,52,0,0,1,1279.21,334a59.45,59.45,0,0,1-29.32-7.42,55.63,55.63,0,0,1-21.13-20.33,54.73,54.73,0,0,1-7.75-28.65,51.27,51.27,0,0,1,7.64-26.85A61.61,61.61,0,0,1,1249.32,230l-.22-.22a74.11,74.11,0,0,1-8.76-14.05,31.31,31.31,0,0,1-2.92-13.14,34.4,34.4,0,0,1,5.16-18.31,38.6,38.6,0,0,1,33-18.32q13.48,0,22.7,7.76a41.91,41.91,0,0,1,13,19.43l-16.4,8.77a42.34,42.34,0,0,0-7.31-12.7q-4.38-5.06-12-5.05a19.22,19.22,0,0,0-13.7,5.05q-5.4,5.06-5.4,13.37a24.66,24.66,0,0,0,5.62,15.5l54.15,70.78,14.83-25.39,15.06,9Zm-21.12,1.58-46.29-60.9a41.17,41.17,0,0,0-15.5,14.27,35,35,0,0,0-5.84,19.21,38.52,38.52,0,0,0,5.39,20.22,37.88,37.88,0,0,0,14.72,14.05,42.42,42.42,0,0,0,20.56,5.05Q1295.61,316.73,1306.17,304.83Z"/><path class="cls-3" d="M1453.12,169.56h21.57l61.12,160.88h-20.9l-16.18-44.26H1429.3l-16.18,44.26h-20.89Zm39.09,98.64-21.34-58-6.52-17.3h-.9l-6.29,17.3-21.34,58Z"/><path class="cls-3" d="M1552.66,169.56h18.87V330.44h-18.87Z"/><rect class="cls-4" y="145" width="210" height="210"/><rect class="cls-4" x="1572" y="145" width="210" height="210"/></svg>