<svg id="Layer_1" data-name="Layer 1" xmlns="http://www.w3.org/2000/svg" viewBox="0 0 3000 500"><defs><style>.cls-1{fill:#fbbc04;}.cls-2{fill:#4285f4;}.cls-3{fill:#676c72;}</style></defs><title>022-02 Track Data&amp;amp;AI (Center Aligned)</title><path class="cls-1" d="M1036.58,112.71l-3.7,3.71A48,48,0,0,1,1036.58,112.71Z"/><path class="cls-2" d="M1119.25,149.54V350.46A49.55,49.55,0,0,1,1069.71,400H868.8A49.54,49.54,0,0,1,832,317.33l204.61-204.62a49.54,49.54,0,0,1,82.67,36.83Z"/><path class="cls-1" d="M936.21,213.08,932.34,217A48.86,48.86,0,0,1,936.21,213.08Z"/><circle class="cls-2" cx="868.8" cy="149.55" r="49.54"/><path class="cls-3" d="M1265.12,169.56h48.54q24.71,0,43.14,10.22a70.38,70.38,0,0,1,28.31,28.43Q1395,226.41,1395,250t-9.89,41.79a70.38,70.38,0,0,1-28.31,28.43q-18.42,10.23-43.14,10.22h-48.54Zm48.54,142.68q28.53,0,45.27-16.4T1375.67,250q0-29.43-16.74-45.84t-45.27-16.4H1284V312.24Z"/><path class="cls-3" d="M1458.13,169.56h21.57l61.12,160.88h-20.9l-16.17-44.26h-69.43l-16.18,44.26h-20.9Zm39.1,98.64-21.35-58-6.51-17.3h-.9l-6.29,17.3-21.35,58Z"/><path class="cls-3" d="M1576.1,187.76h-45.16v-18.2h109.2v18.2H1595.2V330.44h-19.1Z"/><path class="cls-3" d="M1691.37,169.56h21.57l61.11,160.88h-20.89L1737,286.18h-69.43l-16.18,44.26h-20.9Zm39.09,98.64-21.34-58-6.52-17.3h-.9l-6.29,17.3-21.34,58Z"/><path class="cls-3" d="M1936.5,303.25l15.28,20L1937.4,334l-11.46-15.28A52,52,0,0,1,1888.42,334a59.45,59.45,0,0,1-29.32-7.42A55.53,55.53,0,0,1,1838,306.29a54.65,54.65,0,0,1-7.76-28.65,51.27,51.27,0,0,1,7.64-26.85A61.64,61.64,0,0,1,1858.54,230l-.23-.22a74.11,74.11,0,0,1-8.76-14.05,31.31,31.31,0,0,1-2.92-13.14,34.4,34.4,0,0,1,5.16-18.31,38.63,38.63,0,0,1,33-18.32q13.48,0,22.7,7.76a41.91,41.91,0,0,1,13,19.43l-16.4,8.77a42.33,42.33,0,0,0-7.3-12.7q-4.39-5.06-12-5.05a19.22,19.22,0,0,0-13.7,5.05q-5.4,5.06-5.39,13.37a24.7,24.7,0,0,0,5.61,15.5l54.15,70.78,14.83-25.39,15.06,9Zm-21.12,1.58-46.28-60.9a41.2,41.2,0,0,0-15.51,14.27,35,35,0,0,0-5.84,19.21,38.52,38.52,0,0,0,5.39,20.22,37.88,37.88,0,0,0,14.72,14.05,42.42,42.42,0,0,0,20.56,5.05Q1904.81,316.73,1915.38,304.83Z"/><path class="cls-3" d="M2062.33,169.56h21.57L2145,330.44h-20.9l-16.18-44.26h-69.43l-16.18,44.26h-20.89Zm39.1,98.64-21.35-58-6.52-17.3h-.89l-6.3,17.3-21.34,58Z"/><path class="cls-3" d="M2161.87,169.56h18.87V330.44h-18.87Z"/></svg>