<svg id="Layer_1" data-name="Layer 1" xmlns="http://www.w3.org/2000/svg" viewBox="0 0 2603 500"><defs><style>.cls-1{fill:#676c72;}.cls-2{fill:#ea4335;}.cls-3{fill:none;}</style></defs><title>023-01 Infrastucture Logo</title><path class="cls-1" d="M653.91,169.56h18.88V330.44H653.91Z"/><path class="cls-1" d="M704.24,169.56h23.37l80.66,128.07h.9l-.9-31V169.56h19.1V330.44H807.6L723.12,196.3h-.9l.9,31V330.44H704.24Z"/><path class="cls-1" d="M858.83,169.56h93v18.2H877.7v55.05h67v18h-67v69.65H858.83Z"/><path class="cls-1" d="M973.65,169.56H1028a52,52,0,0,1,24.72,6.07,47.51,47.51,0,0,1,18.31,17,45.25,45.25,0,0,1,6.85,24.6,44.38,44.38,0,0,1-5.05,20.9,46.73,46.73,0,0,1-13.93,16.18,49.93,49.93,0,0,1-19.66,8.76l-.45.68,45.39,65.83v.9h-22.47l-43.82-65.61H992.52v65.61H973.65Zm53.25,77.52a33.15,33.15,0,0,0,15.61-3.82,30.28,30.28,0,0,0,11.69-10.67,28,28,0,0,0,4.38-15.4,28.35,28.35,0,0,0-3.82-14.15,30.72,30.72,0,0,0-10.67-11,29.39,29.39,0,0,0-15.84-4.27H992.52v59.32Z"/><path class="cls-1" d="M1147.11,169.56h21.57l61.12,160.88h-20.9l-16.18-44.26h-69.43l-16.18,44.26h-20.89Zm39.1,98.64-21.35-58-6.52-17.3h-.89l-6.3,17.3-21.34,58Z"/><path class="cls-1" d="M1257,322.58q-15.72-11.46-21.57-32.13l18.2-7.42a46.92,46.92,0,0,0,14.16,23.59,35.24,35.24,0,0,0,24.26,9.21q13.93,0,23.6-7.52t9.66-20.56a23.77,23.77,0,0,0-8.2-18.54q-8.21-7.29-26.85-13.59l-10.12-3.6q-17.07-6.06-27.86-16t-10.78-27.41a38.46,38.46,0,0,1,6.29-21.24,44.93,44.93,0,0,1,17.53-15.61,53.6,53.6,0,0,1,25.16-5.85q13.93,0,24.27,5.17a50.46,50.46,0,0,1,16.51,12.59,47.07,47.07,0,0,1,8.65,14.6l-18,7.64q-2.25-8.31-10.22-15.05t-21-6.74q-12.36,0-21.13,7t-8.76,17.53a18.83,18.83,0,0,0,7.42,15.39q7.41,6,22.47,11.12l10.56,3.6q20.45,7.41,31.9,18.53t11.46,30.22q0,15.51-8,26.07a47,47,0,0,1-20.11,15.5,65.49,65.49,0,0,1-25,5A57.44,57.44,0,0,1,1257,322.58Z"/><path class="cls-1" d="M1399,187.76h-45.17v-18.2H1463v18.2h-44.94V330.44H1399Z"/><path class="cls-1" d="M1482.57,169.56H1537a52,52,0,0,1,24.71,6.07,47.51,47.51,0,0,1,18.31,17,45.26,45.26,0,0,1,6.86,24.6,44.39,44.39,0,0,1-5.06,20.9,46.63,46.63,0,0,1-13.93,16.18,49.93,49.93,0,0,1-19.66,8.76l-.45.68,45.39,65.83v.9h-22.47l-43.82-65.61h-25.39v65.61h-18.87Zm53.25,77.52a33.19,33.19,0,0,0,15.62-3.82,30.32,30.32,0,0,0,11.68-10.67,28.71,28.71,0,0,0,.56-29.55A30.55,30.55,0,0,0,1553,192a29.39,29.39,0,0,0-15.84-4.27h-35.73v59.32Z"/><path class="cls-1" d="M1635.14,326.06a54.39,54.39,0,0,1-20.9-22.25q-7.41-14.26-7.41-32.91V169.56h19.09V271.79q0,19.56,10.34,31.8t29.66,12.24q19.32,0,29.77-12.24t10.45-31.8V169.56H1725V270.9q0,18.64-7.07,33a51.65,51.65,0,0,1-20.45,22.24q-13.37,7.86-31.57,7.87Q1648.61,334,1635.14,326.06Z"/><path class="cls-1" d="M1784.78,323a79.58,79.58,0,0,1-30-30.23q-10.9-19.2-10.9-42.8t10.9-42.8a79.65,79.65,0,0,1,30-30.23,83.59,83.59,0,0,1,42.47-11,78.05,78.05,0,0,1,32.92,6.86,76.69,76.69,0,0,1,25.95,19.43l-13.71,13.26q-9.21-11-20.11-16.18t-25-5.16a64.44,64.44,0,0,0-32.13,8.2,61.09,61.09,0,0,0-23.26,23.14q-8.65,14.94-8.65,34.49t8.65,34.49a61,61,0,0,0,23.26,23.14,64.44,64.44,0,0,0,32.13,8.2q29.2,0,49.66-24l13.93,13.48a81.08,81.08,0,0,1-27.64,21,87.3,87.3,0,0,1-78.42-3.25Z"/><path class="cls-1" d="M1946.79,187.76h-45.17v-18.2h109.2v18.2h-44.94V330.44h-19.09Z"/><path class="cls-1" d="M2055.76,326.06a54.39,54.39,0,0,1-20.9-22.25q-7.41-14.26-7.41-32.91V169.56h19.1V271.79q0,19.56,10.33,31.8t29.66,12.24q19.32,0,29.77-12.24t10.45-31.8V169.56h18.88V270.9q0,18.64-7.08,33a51.65,51.65,0,0,1-20.45,22.24q-13.37,7.86-31.57,7.87Q2069.23,334,2055.76,326.06Z"/><path class="cls-1" d="M2172.37,169.56h54.38a51.91,51.91,0,0,1,24.71,6.07,47.54,47.54,0,0,1,18.32,17,45.25,45.25,0,0,1,6.85,24.6,44.38,44.38,0,0,1-5.05,20.9,46.66,46.66,0,0,1-13.94,16.18A49.93,49.93,0,0,1,2238,263l-.45.68,45.39,65.83v.9h-22.47l-43.81-65.61h-25.39v65.61h-18.88Zm53.25,77.52a33.16,33.16,0,0,0,15.62-3.82,30.35,30.35,0,0,0,11.69-10.67,28,28,0,0,0,4.38-15.4,28.35,28.35,0,0,0-3.82-14.15,30.66,30.66,0,0,0-10.68-11,29.39,29.39,0,0,0-15.84-4.27h-35.72v59.32Z"/><path class="cls-1" d="M2299.55,169.56h93v18.2h-74.15V241h67v18h-67v53.25h74.15v18.2h-93Z"/><rect class="cls-2" x="209.93" y="100" width="299.99" height="299.99" rx="49.54"/><rect class="cls-3" y="145" width="210" height="210"/><rect class="cls-3" x="2393" y="145" width="210" height="210"/></svg>