<svg id="Layer_1" data-name="Layer 1" xmlns="http://www.w3.org/2000/svg" viewBox="0 0 3000 500"><defs><style>.cls-1{fill:#676c72;}.cls-2{fill:#ea4335;}</style></defs><title>023-02 Track Infrastucture (Center Aligned)</title><path class="cls-1" d="M852.66,169.56h18.88V330.44H852.66Z"/><path class="cls-1" d="M903,169.56h23.37L1007,297.63h.9l-.9-31V169.56h19.1V330.44h-19.77L921.86,196.3H921l.89,31V330.44H903Z"/><path class="cls-1" d="M1057.58,169.56h93v18.2h-74.15v55.05h67v18h-67v69.65h-18.87Z"/><path class="cls-1" d="M1172.39,169.56h54.38a52,52,0,0,1,24.72,6.07,47.51,47.51,0,0,1,18.31,17,45.25,45.25,0,0,1,6.85,24.6,44.38,44.38,0,0,1-5.05,20.9,46.73,46.73,0,0,1-13.93,16.18A49.91,49.91,0,0,1,1238,263l-.44.68,45.38,65.83v.9h-22.47l-43.81-65.61h-25.39v65.61h-18.88Zm53.26,77.52a33.15,33.15,0,0,0,15.61-3.82A30.28,30.28,0,0,0,1253,232.59a28,28,0,0,0,4.38-15.4,28.35,28.35,0,0,0-3.82-14.15,30.72,30.72,0,0,0-10.67-11,29.45,29.45,0,0,0-15.85-4.27h-35.72v59.32Z"/><path class="cls-1" d="M1345.86,169.56h21.57l61.11,160.88h-20.89l-16.18-44.26H1322l-16.18,44.26H1285ZM1385,268.2l-21.34-58-6.52-17.3h-.9l-6.29,17.3-21.34,58Z"/><path class="cls-1" d="M1455.73,322.58q-15.74-11.46-21.57-32.13l18.2-7.42a46.85,46.85,0,0,0,14.16,23.59,35.24,35.24,0,0,0,24.26,9.21q13.93,0,23.6-7.52t9.66-20.56a23.77,23.77,0,0,0-8.2-18.54q-8.21-7.29-26.85-13.59l-10.12-3.6q-17.07-6.06-27.86-16t-10.78-27.41a38.46,38.46,0,0,1,6.29-21.24A45,45,0,0,1,1464,171.81a53.67,53.67,0,0,1,25.17-5.85q13.93,0,24.27,5.17A50.46,50.46,0,0,1,1530,183.72a47.07,47.07,0,0,1,8.65,14.6l-18,7.64q-2.25-8.31-10.23-15.05t-21-6.74q-12.35,0-21.12,7t-8.76,17.53a18.83,18.83,0,0,0,7.42,15.39q7.41,6,22.46,11.12l10.57,3.6q20.43,7.41,31.9,18.53t11.46,30.22q0,15.51-8,26.07a46.92,46.92,0,0,1-20.11,15.5,65.41,65.41,0,0,1-24.94,5A57.44,57.44,0,0,1,1455.73,322.58Z"/><path class="cls-1" d="M1597.74,187.76h-45.17v-18.2h109.2v18.2h-44.94V330.44h-19.09Z"/><path class="cls-1" d="M1681.32,169.56h54.38a52,52,0,0,1,24.71,6.07,47.51,47.51,0,0,1,18.31,17,45.26,45.26,0,0,1,6.86,24.6,44.39,44.39,0,0,1-5.06,20.9,46.63,46.63,0,0,1-13.93,16.18,49.93,49.93,0,0,1-19.66,8.76l-.45.68,45.39,65.83v.9H1769.4l-43.82-65.61h-25.39v65.61h-18.87Zm53.25,77.52a33.19,33.19,0,0,0,15.62-3.82,30.32,30.32,0,0,0,11.68-10.67,28.71,28.71,0,0,0,.56-29.55,30.63,30.63,0,0,0-10.67-11,29.39,29.39,0,0,0-15.84-4.27h-35.73v59.32Z"/><path class="cls-1" d="M1833.89,326.06a54.39,54.39,0,0,1-20.9-22.25q-7.41-14.26-7.42-32.91V169.56h19.1V271.79q0,19.56,10.34,31.8t29.66,12.24q19.32,0,29.77-12.24t10.45-31.8V169.56h18.87V270.9q0,18.64-7.07,33a51.65,51.65,0,0,1-20.45,22.24q-13.38,7.86-31.57,7.87Q1847.36,334,1833.89,326.06Z"/><path class="cls-1" d="M1983.53,323a79.68,79.68,0,0,1-30-30.23q-10.89-19.2-10.89-42.8t10.89-42.8a79.75,79.75,0,0,1,30-30.23A83.59,83.59,0,0,1,2026,166a78,78,0,0,1,32.91,6.86,76.63,76.63,0,0,1,26,19.43l-13.71,13.26q-9.21-11-20.11-16.18a57.92,57.92,0,0,0-25.05-5.16,64.44,64.44,0,0,0-32.13,8.2,61,61,0,0,0-23.26,23.14Q1962,230.45,1962,250t8.65,34.49a61,61,0,0,0,23.26,23.14,64.44,64.44,0,0,0,32.13,8.2q29.2,0,49.66-24l13.93,13.48a81.08,81.08,0,0,1-27.64,21,87.3,87.3,0,0,1-78.42-3.25Z"/><path class="cls-1" d="M2145.53,187.76h-45.16v-18.2h109.2v18.2h-44.94V330.44h-19.1Z"/><path class="cls-1" d="M2254.51,326.06a54.39,54.39,0,0,1-20.9-22.25q-7.41-14.26-7.41-32.91V169.56h19.09V271.79q0,19.56,10.34,31.8t29.66,12.24q19.32,0,29.77-12.24t10.45-31.8V169.56h18.87V270.9q0,18.64-7.07,33a51.65,51.65,0,0,1-20.45,22.24Q2303.5,334,2285.29,334,2268,334,2254.51,326.06Z"/><path class="cls-1" d="M2371.12,169.56h54.38a52,52,0,0,1,24.71,6.07,47.54,47.54,0,0,1,18.32,17,45.34,45.34,0,0,1,6.85,24.6,44.39,44.39,0,0,1-5.06,20.9,46.63,46.63,0,0,1-13.93,16.18,49.93,49.93,0,0,1-19.66,8.76l-.45.68,45.39,65.83v.9H2459.2l-43.81-65.61H2390v65.61h-18.88Zm53.25,77.52a33.19,33.19,0,0,0,15.62-3.82,30.25,30.25,0,0,0,11.68-10.67,27.91,27.91,0,0,0,4.39-15.4,28.35,28.35,0,0,0-3.82-14.15,30.66,30.66,0,0,0-10.68-11,29.39,29.39,0,0,0-15.84-4.27H2390v59.32Z"/><path class="cls-1" d="M2498.3,169.56h93v18.2h-74.15V241h67v18h-67v53.25h74.15v18.2h-93Z"/><rect class="cls-2" x="408.68" y="100" width="300" height="300" rx="49.54"/></svg>