<svg id="Layer_1" data-name="Layer 1" xmlns="http://www.w3.org/2000/svg" viewBox="0 0 3000 500"><defs><style>.cls-1{fill:#0f9d58;}.cls-2{fill:#fbbc04;}.cls-3{fill:#4285f4;}.cls-4{fill:#ea4335;}.cls-5{fill:#676c72;}</style></defs><title>024-02 Track Programs (Center Aligned)</title><circle class="cls-1" cx="512.89" cy="149.54" r="49.54"/><circle class="cls-2" cx="613.34" cy="149.54" r="49.54"/><circle class="cls-3" cx="713.8" cy="149.54" r="49.54"/><circle class="cls-3" cx="512.89" cy="350.46" r="49.54"/><circle class="cls-4" cx="613.34" cy="350.46" r="49.54"/><circle class="cls-4" cx="713.8" cy="350.46" r="49.54"/><circle class="cls-2" cx="512.89" cy="250" r="49.54"/><circle class="cls-3" cx="613.34" cy="250" r="49.54"/><circle class="cls-4" cx="713.8" cy="250" r="49.54"/><path class="cls-5" d="M909.21,169.56h48.54q24.71,0,43.14,10.22a70.44,70.44,0,0,1,28.31,28.43q9.88,18.19,9.89,41.79t-9.89,41.79a70.44,70.44,0,0,1-28.31,28.43q-18.43,10.23-43.14,10.22H909.21Zm48.54,142.68q28.53,0,45.27-16.4T1019.76,250q0-29.43-16.74-45.84t-45.27-16.4H928.09V312.24Z"/><path class="cls-5" d="M1062.67,169.56h93v18.2h-74.15V241h67v18h-67v53.25h74.15v18.2h-93Z"/><path class="cls-5" d="M1167.16,169.56h21.12l39.77,116.62,5.39,15.95h.9l5.62-15.95,41.57-116.62h21.12l-58.87,160.88H1224Z"/><path class="cls-5" d="M1366.68,169.56h54.15a52.41,52.41,0,0,1,24.94,6.07,47.61,47.61,0,0,1,18.32,17,47.62,47.62,0,0,1,0,49.21,47.53,47.53,0,0,1-18.32,17,52.41,52.41,0,0,1-24.94,6.07h-35.28v65.61h-18.87Zm54.6,77.07a29.3,29.3,0,0,0,15.84-4.27,30.66,30.66,0,0,0,10.68-11,28.14,28.14,0,0,0,0-28.31,30.66,30.66,0,0,0-10.68-11,29.39,29.39,0,0,0-15.84-4.27h-35.73v58.87Z"/><path class="cls-5" d="M1491.61,169.56H1546a52,52,0,0,1,24.72,6.07,47.51,47.51,0,0,1,18.31,17,45.26,45.26,0,0,1,6.86,24.6,44.39,44.39,0,0,1-5.06,20.9,46.63,46.63,0,0,1-13.93,16.18,49.93,49.93,0,0,1-19.66,8.76l-.45.68,45.39,65.83v.9h-22.47l-43.82-65.61h-25.39v65.61h-18.87Zm53.25,77.52a33.19,33.19,0,0,0,15.62-3.82,30.32,30.32,0,0,0,11.68-10.67,28.71,28.71,0,0,0,.56-29.55,30.63,30.63,0,0,0-10.67-11,29.39,29.39,0,0,0-15.84-4.27h-35.73v59.32Z"/><path class="cls-5" d="M1651.37,322.8a80.88,80.88,0,0,1-29.66-30.45,88.29,88.29,0,0,1,0-84.59A82.92,82.92,0,0,1,1735.4,177.2a81.62,81.62,0,0,1,29.77,30.56,87.9,87.9,0,0,1,.11,84.59,83.25,83.25,0,0,1-113.91,30.45Zm73.81-15.39A61.41,61.41,0,0,0,1748.1,284q8.42-14.94,8.42-34t-8.42-34a61.41,61.41,0,0,0-22.92-23.37,62.56,62.56,0,0,0-86.4,23.48,71.67,71.67,0,0,0,0,67.86,62.15,62.15,0,0,0,22.92,23.48,64,64,0,0,0,63.48,0Z"/><path class="cls-5" d="M1831.12,323a81.84,81.84,0,0,1-30.33-30.34,86.69,86.69,0,0,1,0-85.38A82.51,82.51,0,0,1,1872.91,166a88.33,88.33,0,0,1,33.37,6.3A67,67,0,0,1,1932,190l-13.71,13.7a49.57,49.57,0,0,0-19.55-14.49,66.5,66.5,0,0,0-57.41,3.15,62.49,62.49,0,0,0-23.59,23.14q-8.88,14.94-8.87,34.49t8.87,34.49a62.17,62.17,0,0,0,23.71,23.14,64.39,64.39,0,0,0,31.68,8.2q16.17,0,27.07-5.05A60.77,60.77,0,0,0,1919,297.41a49.18,49.18,0,0,0,9.43-15.17,66.78,66.78,0,0,0,4.5-19.66h-59.55V244.83h77.3a66.69,66.69,0,0,1,1.12,11.69,90,90,0,0,1-4.72,28.87,63.69,63.69,0,0,1-15,24.6q-22.24,24-59.1,24.05A82.19,82.19,0,0,1,1831.12,323Z"/><path class="cls-5" d="M1975.6,169.56H2030a52,52,0,0,1,24.72,6.07,47.51,47.51,0,0,1,18.31,17,45.25,45.25,0,0,1,6.85,24.6,44.38,44.38,0,0,1-5,20.9,46.73,46.73,0,0,1-13.93,16.18,49.93,49.93,0,0,1-19.66,8.76l-.45.68,45.39,65.83v.9h-22.47l-43.82-65.61h-25.39v65.61H1975.6Zm53.25,77.52a33.22,33.22,0,0,0,15.62-3.82,30.32,30.32,0,0,0,11.68-10.67,28.71,28.71,0,0,0,.56-29.55A30.63,30.63,0,0,0,2046,192a29.39,29.39,0,0,0-15.84-4.27h-35.73v59.32Z"/><path class="cls-5" d="M2149.06,169.56h21.57l61.12,160.88h-20.9l-16.18-44.26h-69.43l-16.18,44.26h-20.89Zm39.1,98.64-21.35-58-6.52-17.3h-.9l-6.29,17.3-21.34,58Z"/><path class="cls-5" d="M2248.6,169.56h27.63l51.23,131.9h.9l51.23-131.9h27.64V330.44h-18.87V228.21l.9-30.56h-.9l-52.58,132.79h-15.73l-52.58-132.79h-.9l.9,30.56V330.44H2248.6Z"/><path class="cls-5" d="M2449,322.58q-15.72-11.46-21.57-32.13l18.2-7.42a46.92,46.92,0,0,0,14.16,23.59,35.26,35.26,0,0,0,24.27,9.21q13.92,0,23.59-7.52t9.66-20.56a23.77,23.77,0,0,0-8.2-18.54q-8.21-7.29-26.85-13.59l-10.11-3.6q-17.09-6.06-27.87-16t-10.78-27.41a38.54,38.54,0,0,1,6.29-21.24,44.93,44.93,0,0,1,17.53-15.61A53.63,53.63,0,0,1,2482.5,166q13.93,0,24.27,5.17a50.46,50.46,0,0,1,16.51,12.59,46.87,46.87,0,0,1,8.65,14.6L2514,206q-2.25-8.31-10.22-15.05t-21-6.74q-12.36,0-21.12,7t-8.77,17.53a18.83,18.83,0,0,0,7.42,15.39q7.41,6,22.47,11.12l10.56,3.6q20.45,7.41,31.9,18.53t11.46,30.22q0,15.51-8,26.07a47,47,0,0,1-20.11,15.5,65.48,65.48,0,0,1-24.94,5A57.47,57.47,0,0,1,2449,322.58Z"/></svg>