<svg id="Layer_1" data-name="Layer 1" xmlns="http://www.w3.org/2000/svg" viewBox="0 0 3000 1000"><defs><style>.cls-1{fill:#676c72;}</style></defs><title>03 DEVFEST Logo (Black)</title><path class="cls-1" d="M950.6,480.73a49.54,49.54,0,0,1-99.08,0l-1-79.26,0-1.28a49.54,49.54,0,0,1,99.08,0l1,79.26Z"/><circle class="cls-1" cx="901.06" cy="601.11" r="49.54"/><path class="cls-1" d="M762.92,542.26l-174,100.45a49.56,49.56,0,0,1-74.32-42.87v-201A49.56,49.56,0,0,1,588.94,356l173.3,100.06.68.39h0a49.5,49.5,0,0,1,0,85.8Z"/><path class="cls-1" d="M447.4,524.12a49.14,49.14,0,0,1-18.13,18.14l-.43.25L255.29,642.71a49.54,49.54,0,1,1-49.54-85.81l99.66-57.55-99.66-57.54A49.54,49.54,0,1,1,255.29,356l174,100.45A49.52,49.52,0,0,1,447.4,524.12Z"/><path class="cls-1" d="M1021.78,389.67h66.56q33.9,0,59.17,14a96.5,96.5,0,0,1,38.83,39q13.56,25,13.56,57.32t-13.56,57.32a96.52,96.52,0,0,1-38.83,39q-25.27,14-59.17,14h-66.56Zm66.56,195.69q39.14,0,62.1-22.49t23-62.87q0-40.37-23-62.87t-62.1-22.49h-40.68V585.36Z"/><path class="cls-1" d="M1232.26,389.67h127.58v25h-101.7v73H1350v24.66h-91.84v73h101.7v25H1232.26Z"/><path class="cls-1" d="M1375.56,389.67h29l54.54,160,7.4,21.88h1.23l7.71-21.88,57-159.95h29l-80.75,220.66h-27.12Z"/><path class="cls-1" d="M1583.88,389.67h127.58v25H1609.77v75.5h91.83v24.65h-91.83v95.54h-25.89Z"/><path class="cls-1" d="M1741.35,389.67h127.59v25h-101.7v73h91.84v24.66h-91.84v73h101.7v25H1741.35Z"/><path class="cls-1" d="M1919.17,599.54q-21.57-15.72-29.59-44.07l25-10.17q5.23,19.73,19.41,32.36a48.38,48.38,0,0,0,33.28,12.64q19.11,0,32.36-10.33t13.25-28.2a32.57,32.57,0,0,0-11.24-25.42q-11.27-10-36.83-18.65l-13.87-4.93q-23.42-8.31-38.21-21.88t-14.79-37.59a52.81,52.81,0,0,1,8.62-29.13,61.78,61.78,0,0,1,24-21.41,73.71,73.71,0,0,1,34.52-8q19.1,0,33.28,7.09T2021,409.09q8.48,10.17,11.86,20l-24.65,10.48q-3.07-11.4-14-20.65t-28.82-9.24q-17,0-29,9.55t-12,24a25.83,25.83,0,0,0,10.17,21.11q10.17,8.16,30.81,15.25l14.49,4.93q28,10.17,43.76,25.43t15.72,41.45q0,21.25-10.94,35.74a64.53,64.53,0,0,1-27.58,21.27,90.1,90.1,0,0,1-34.21,6.78A78.79,78.79,0,0,1,1919.17,599.54Z"/><path class="cls-1" d="M2113.93,414.64H2052v-25h149.77v25h-61.63V610.33h-26.2Z"/><path class="cls-1" d="M2312.09,507.7l-74.27-118h49.61l44.07,73H2334l42.52-73h50.24l-73,118V610.33h-41.6Z"/><path class="cls-1" d="M2502.23,507.7l-74.27-118h49.61l44.07,73h2.47l42.53-73h50.23l-73,118V610.33h-41.6Z"/><path class="cls-1" d="M2672.34,600a111.9,111.9,0,0,1-41.76-41.6Q2615.32,532,2615.33,500t15.25-58.4a112,112,0,0,1,41.76-41.6q26.51-15.25,58.55-15.26,49.93,0,82.6,36.06l-29.28,28.35q-21.27-25-53-25a76.13,76.13,0,0,0-37.59,9.4A67.81,67.81,0,0,0,2667,460.25q-9.7,17.25-9.71,39.75t9.71,39.75a67.75,67.75,0,0,0,26.66,26.66,76.13,76.13,0,0,0,37.59,9.4q34.83,0,58.25-29l29.58,28a109.31,109.31,0,0,1-38.67,30q-22.35,10.32-49.47,10.33Q2698.84,615.26,2672.34,600Z"/></svg>