<svg id="Layer_1" data-name="Layer 1" xmlns="http://www.w3.org/2000/svg" viewBox="0 0 2500 800"><defs><style>.cls-1{fill:#4b4b4b;}</style></defs><title>01 #devfest logo black</title><path class="cls-1" d="M763.18,527.21H736l10.2-69H700l-10.2,69h-27.2l10.2-69H630.93l4.42-25.84h41.48l6.8-45.89h-42.5l4.08-25.84h42.16l9.86-66h27.2l-9.86,66H760.8l9.86-66h27.2l-9.86,66h41.82l-4.08,25.84H784.26l-6.8,45.89H820l-4.08,25.84h-42.5ZM704,432.35h46.23l6.8-45.89H710.83Z"/><path class="cls-1" d="M926.71,532.65q-32.64,0-56.1-25.84-23.11-26.18-23.12-62.9T870.61,381q23.46-25.84,56.1-25.84A71.89,71.89,0,0,1,960.2,363q15.12,7.81,23.28,20.74h1.36l-1.36-23.12V283.78h31.28V527.21H984.84V504.09h-1.36Q975.32,517,960.2,524.83A71.89,71.89,0,0,1,926.71,532.65Zm5.1-28.56q23.12,0,37.73-16.66,15.3-16.65,15.3-43.52,0-26.18-15.3-43.17-15-17-37.73-17-22.44,0-37.74,17t-15.3,43.17q0,26.52,15.3,43.18Q909.37,504.1,931.81,504.09Z"/><path class="cls-1" d="M1125.93,532.65q-36.71,0-60.51-25.16t-23.8-63.58q0-38.07,23.12-63.4t59.15-25.33q37.06,0,59,24t21.93,67.14l-.34,3.4H1073.58q.68,24.48,16.32,39.44a52.16,52.16,0,0,0,37.39,15q29.93,0,46.92-29.92l27.88,13.6a83,83,0,0,1-31.11,33Q1151.09,532.65,1125.93,532.65Zm-50-108.8h95.53a41.46,41.46,0,0,0-14.11-28.72q-12.75-11.38-34.17-11.39-17.67,0-30.42,10.88T1076,423.85Z"/><path class="cls-1" d="M1310.88,527.21h-31.27l-67.32-166.59h34l49,129.19h.67l49.64-129.19h33.32Z"/><path class="cls-1" d="M1476.11,281.06q17,0,27.88,5.78l-8.5,27.54a40.49,40.49,0,0,0-18.36-4.08q-11.57,0-18.87,8T1451,339.54v21.08h43.52v28.56H1451v138h-31.28v-138h-31.28V360.62h31.28V336.48q0-24.81,15.81-40.12T1476.11,281.06Z"/><path class="cls-1" d="M1589,532.65q-36.72,0-60.52-25.16t-23.79-63.58q0-38.07,23.11-63.4t59.16-25.33q37.05,0,59,24t21.92,67.14l-.34,3.4H1536.62q.68,24.48,16.32,39.44a52.17,52.17,0,0,0,37.4,15q29.91,0,46.92-29.92l27.87,13.6a82.94,82.94,0,0,1-31.1,33Q1614.14,532.65,1589,532.65Zm-50-108.8h95.54a41.46,41.46,0,0,0-14.11-28.72q-12.75-11.38-34.17-11.39-17.68,0-30.43,10.88T1539,423.85Z"/><path class="cls-1" d="M1825.6,481q0,21.76-19,36.72t-47.94,15q-25.15,0-44.19-13.09a72.1,72.1,0,0,1-27.2-34.51l27.88-11.9q6.12,15,17.85,23.29a43.3,43.3,0,0,0,25.66,8.33q15,0,25-6.46t10-15.3q0-16-24.48-23.46l-28.55-7.14Q1692,440.17,1692,405.5q0-22.78,18.53-36.55t47.42-13.77a77.16,77.16,0,0,1,40,10.54q17.85,10.54,25,28.22L1795,405.5A35.13,35.13,0,0,0,1779.53,389a48.48,48.48,0,0,0-24-5.95,40.19,40.19,0,0,0-21.92,6.12q-9.69,6.12-9.69,15,0,14.28,26.85,20.39L1776,431Q1825.59,443.23,1825.6,481Z"/><path class="cls-1" d="M1917.05,529.93q-20.4,0-33.82-12.58t-13.77-35V389.18h-29.24V360.62h29.24v-51h31.27v51h40.8v28.56h-40.8v82.95q0,16.67,6.46,22.61a21,21,0,0,0,14.62,5.95,31.29,31.29,0,0,0,7.31-.85,37.1,37.1,0,0,0,6.63-2.21l9.86,27.88Q1933.37,529.92,1917.05,529.93Z"/><path class="cls-1" d="M2054.4,294.66V527.21h-31.28V333.42l-45.21,19.72L1966,326.62l68.33-32Z"/><path class="cls-1" d="M2254.3,463q0,29.93-22.78,49.64-23.11,20.07-56.09,20.06t-56.1-20.06q-22.78-19.71-22.78-49.64a60.09,60.09,0,0,1,9.86-33.49q9.86-15.12,28.22-24v-1.36a73.07,73.07,0,0,1-21.93-21.76,49.43,49.43,0,0,1-8.33-27.2q0-28.21,20.06-47.26,19.71-18.69,51-18.7t51,18.7q20.07,19.05,20.06,47.26a49.35,49.35,0,0,1-8.33,27.2,73.15,73.15,0,0,1-21.92,21.76v1.36q18.36,8.83,28.21,24A60,60,0,0,1,2254.3,463Zm-125.79-1.7a38.16,38.16,0,0,0,3.57,16.66,41,41,0,0,0,9.86,13.09,44.63,44.63,0,0,0,14.79,8.67,58.67,58.67,0,0,0,37.4,0,44.83,44.83,0,0,0,14.79-8.67,41.14,41.14,0,0,0,9.86-13.09,38.16,38.16,0,0,0,3.57-16.66q0-17.67-13.6-29.24-13.61-11.89-33.32-11.9T2141.77,432Q2128.51,443.92,2128.51,461.25Zm7.82-106.75q0,16.32,10.88,26.35t28.22,10q17.34,0,28.22-10t10.88-26.35q0-16.32-10.88-25.84t-28.22-9.52q-17.34,0-28.22,9.52T2136.33,354.5Z"/><polygon class="cls-1" points="413.22 468.62 322.61 623.79 254.71 623.79 365.86 433.48 379.29 410.5 413.22 468.62"/><polygon class="cls-1" points="454.65 539.53 405.42 623.79 337.49 623.79 420.67 481.37 454.65 539.53"/><path class="cls-1" d="M532.41,397.75a31.65,31.65,0,0,1-4.32,16l-24.61,42.14-33.94-58.15-41.43-70.88L337.5,171.65h67.91l51,87.36,71.65,122.76A31.68,31.68,0,0,1,532.41,397.75Z"/><polygon class="cls-1" points="496.03 468.62 462.09 526.77 428.11 468.62 386.73 397.75 254.69 171.65 322.61 171.65 415.02 329.92 456.44 400.79 496.03 468.62"/></svg>