<svg id="Layer_1" data-name="Layer 1" xmlns="http://www.w3.org/2000/svg" viewBox="0 0 6000 1300"><defs><style>.cls-1{fill:#4b4b4b;}</style></defs><title>02 DevFest Logo Hz Black</title><path class="cls-1" d="M1008.8,953.1v-613h187.51q140.42,0,225.61,84.77t85.19,221.75q0,137.86-85.19,222.19T1196.31,953.1Zm78.77-537.7V877.75h108.74q107,0,168.67-61.22t61.65-170q0-107.88-61.65-169.52T1196.31,415.4Z"/><path class="cls-1" d="M1762.26,966.8q-92.48,0-152.41-63.36t-59.93-160.11q0-95.9,58.22-159.69t149-63.78q93.32,0,148.55,60.36t55.23,169.1l-.86,8.56H1630.4q1.71,61.65,41.1,99.32t94.18,37.67q75.35,0,118.16-75.34l70.21,34.25q-28.26,53.1-78.34,83.05T1762.26,966.8Zm-125.87-274H1877q-3.43-43.66-35.53-72.35t-86-28.68q-44.54,0-76.63,27.4T1636.39,692.81Z"/><path class="cls-1" d="M2228,953.1h-78.77L1979.74,533.55h85.62l123.29,325.36h1.71l125-325.36h83.91Z"/><path class="cls-1" d="M2644.14,333.2q42.8,0,70.21,14.56l-21.41,69.35q-20.55-10.28-46.23-10.27-29.11,0-47.52,20.12t-18.41,53.51v53.08h109.6v71.93h-109.6V953.1H2502V605.48h-78.77V533.55H2502V472.77q0-62.5,39.81-101T2644.14,333.2Z"/><path class="cls-1" d="M2928.4,966.8q-92.47,0-152.41-63.36t-59.93-160.11q0-95.9,58.22-159.69t149-63.78q93.31,0,148.55,60.36T3127,749.32l-.86,8.56H2796.54q1.71,61.65,41.1,99.32t94.18,37.67q75.34,0,118.16-75.34l70.21,34.25q-28.26,53.1-78.34,83.05T2928.4,966.8Zm-125.86-274h240.59q-3.43-43.66-35.53-72.35t-86-28.68q-44.53,0-76.63,27.4T2802.54,692.81Z"/><path class="cls-1" d="M3524.31,836.65q0,54.81-47.95,92.47T3355.63,966.8q-63.36,0-111.3-33t-68.5-86.9L3246,817q15.42,37.68,44.95,58.65t64.64,21q37.68,0,62.94-16.27t25.25-38.53q0-40.23-61.64-59.08l-71.92-18q-122.46-30.83-122.44-118.16,0-57.35,46.66-92t119.44-34.67q55.65,0,100.61,26.54t62.93,71.06l-70.21,29.11q-12-26.52-39-41.52t-60.36-15q-30.82,0-55.23,15.41t-24.4,37.67q0,36,67.64,51.37l63.36,16.27Q3524.31,741.62,3524.31,836.65Z"/><path class="cls-1" d="M3754.63,960q-51.37,0-85.2-31.68t-34.67-88.19V605.48h-73.64V533.55h73.64V405.12h78.77V533.55h102.74v71.93H3713.53V814.39q0,42,16.27,56.94t36.81,15a79,79,0,0,0,18.41-2.14,95.38,95.38,0,0,0,16.7-5.56l24.83,70.21Q3795.73,959.94,3754.63,960Z"/><path class="cls-1" d="M4439.57,877.75V953.1H4066.26V874.33l151.55-153.26q76.2-77.91,105.32-116.88t29.11-81.77q0-38.52-30-65.92t-77.06-27.4q-40.26,0-69.35,24t-37.68,58.22l-71.92-29.11q17.11-53.94,65.93-91.18t114.73-37.25q79.64,0,132.72,48.8t53.08,119.87q0,84.76-93.33,183.23l-171.24,172.1Z"/><path class="cls-1" d="M4514.91,660.27q0-133.56,65.93-220t169.52-86.48q103.59,0,169.53,87.33,65.93,86.49,65.93,219.19,0,131.87-65.93,220.05Q4854,966.81,4750.36,966.8t-169.52-86.48Q4514.89,792.15,4514.91,660.27Zm390.43,0q0-101-42.81-166.1-42-65.06-112.17-65.07T4638.2,494.17q-42.82,65.08-42.81,166.1t42.81,167q41.94,64.21,112.16,64.22t112.17-65.07Q4905.33,760.46,4905.34,660.27Z"/><path class="cls-1" d="M5271.79,367.45V953.1H5193v-488l-113.88,49.66-30-66.79,172.1-80.48Z"/><path class="cls-1" d="M5775.22,791.27q0,75.36-57.36,125-58.24,50.54-141.28,50.52t-141.27-50.52q-57.37-49.65-57.36-125,0-46.23,24.82-84.33t71.07-60.37v-3.42q-34.26-22.26-55.23-54.8t-21-68.49q0-71.07,50.51-119,49.65-47.07,128.43-47.09T5705,400.84q50.5,48,50.51,119,0,36-21,68.49t-55.22,54.8v3.42q46.23,22.27,71.07,60.37T5775.22,791.27ZM5458.43,787q0,23.13,9,42a103.36,103.36,0,0,0,24.83,33,112.47,112.47,0,0,0,37.24,21.84q21.41,7.69,47.09,7.7t47.1-7.7a112.77,112.77,0,0,0,37.24-21.84,103.51,103.51,0,0,0,24.83-33q9-18.83,9-42,0-44.5-34.25-73.63-34.24-30-83.91-30t-84.76,30Q5458.43,743.35,5458.43,787Zm19.69-268.85q0,41.1,27.4,66.36t71.06,25.26q43.68,0,71.07-25.26t27.4-66.36q0-41.1-27.4-65.07t-71.07-24q-43.66,0-71.06,24T5478.12,518.14Z"/><polygon class="cls-1" points="566.48 802.82 371.17 1137.26 224.84 1137.26 464.4 727.09 493.33 677.56 566.48 802.82"/><polygon class="cls-1" points="655.77 955.65 549.66 1137.26 403.25 1137.26 582.54 830.31 655.77 955.65"/><path class="cls-1" d="M823.37,650.07a68.2,68.2,0,0,1-9.31,34.45l-53,90.81L687.87,650,598.58,497.24,403.27,162.74H549.65L659.63,351l154.45,264.6A68.27,68.27,0,0,1,823.37,650.07Z"/><polygon class="cls-1" points="744.97 802.82 671.81 928.17 598.58 802.82 509.38 650.08 224.78 162.74 371.17 162.74 570.35 503.87 659.63 656.61 744.97 802.82"/></svg>