<svg id="Layer_1" data-name="Layer 1" xmlns="http://www.w3.org/2000/svg" viewBox="0 0 6000 1300"><defs><style>.cls-1{fill:#fbbc04;}.cls-2{fill:#34a853;}.cls-3,.cls-4{fill:#4868ed;}.cls-4{opacity:0.1;}.cls-5{fill:#ea4335;}.cls-6{fill:#4285f4;}.cls-7{fill:gray;}</style></defs><title>02 DevFest Logo Hz</title><polygon class="cls-1" points="670.99 947.58 561.41 1137.26 389.6 1137.26 585.04 798.79 670.99 947.58"/><polygon class="cls-2" points="585.04 798.79 389.6 1137.26 217.87 1137.26 455.88 725.06 499.18 650.08 585.04 798.79"/><path class="cls-3" d="M819.64,690.05,756.85,798.79,671,650,585,501.29,389.6,162.74H561.41L671,352.5l85.87,148.79,62.8,108.81A80,80,0,0,1,819.64,690.05Z"/><polygon class="cls-3" points="756.85 798.79 670.99 947.58 585.04 798.79 499.18 650.08 217.79 162.74 389.6 162.74 585.04 501.29 670.99 650 756.85 798.79"/><polygon class="cls-4" points="670.99 947.58 564.09 835.08 457.28 722.59 499.18 650.08 585.04 798.79 670.99 947.58"/><path class="cls-5" d="M819.64,690.05,756.85,798.79,671,650,585,501.29,389.6,162.74H561.41L671,352.5l85.87,148.79,62.8,108.81A80,80,0,0,1,819.64,690.05Z"/><polygon class="cls-6" points="756.85 798.79 670.99 947.58 585.04 798.79 499.18 650.08 217.79 162.74 389.6 162.74 585.04 501.29 670.99 650 756.85 798.79"/><path class="cls-7" d="M1015.78,953.1v-613h187.51q140.42,0,225.61,84.77t85.2,221.75q0,137.86-85.2,222.19T1203.29,953.1Zm78.77-537.7V877.75h108.74q107,0,168.68-61.22t61.64-170q0-107.88-61.64-169.52T1203.29,415.4Z"/><path class="cls-7" d="M1769.24,966.8q-92.48,0-152.4-63.36T1556.9,743.33q0-95.9,58.22-159.69t149-63.78q93.32,0,148.56,60.36t55.22,169.1l-.86,8.56H1637.39q1.69,61.65,41.09,99.32t94.19,37.67q75.33,0,118.15-75.34L1961,853.78q-28.24,53.1-78.34,83.05T1769.24,966.8Zm-125.86-274H1884q-3.42-43.66-35.53-72.35t-86-28.68q-44.54,0-76.63,27.4T1643.38,692.81Z"/><path class="cls-7" d="M2235,953.1h-78.77L1986.72,533.55h85.62l123.3,325.36h1.71l125-325.36h83.9Z"/><path class="cls-7" d="M2651.12,333.2q42.81,0,70.21,14.56l-21.4,69.35q-20.55-10.28-46.24-10.27-29.11,0-47.52,20.12t-18.41,53.51v53.08h109.6v71.93h-109.6V953.1H2509V605.48h-78.77V533.55H2509V472.77q0-62.5,39.82-101T2651.12,333.2Z"/><path class="cls-7" d="M2935.38,966.8q-92.48,0-152.4-63.36T2723,743.33q0-95.9,58.23-159.69t149-63.78q93.3,0,148.55,60.36T3134,749.32l-.85,8.56H2803.53q1.69,61.65,41.09,99.32t94.19,37.67q75.33,0,118.15-75.34l70.21,34.25q-28.24,53.1-78.34,83.05T2935.38,966.8Zm-125.86-274h240.59q-3.42-43.66-35.53-72.35t-86-28.68q-44.52,0-76.63,27.4T2809.52,692.81Z"/><path class="cls-7" d="M3531.29,836.65q0,54.81-47.95,92.47T3362.62,966.8q-63.37,0-111.31-33t-68.5-86.9L3253,817q15.42,37.68,45,58.65t64.64,21q37.66,0,62.93-16.27t25.26-38.53q0-40.23-61.65-59.08l-71.92-18Q3194.8,733.91,3194.8,646.57q0-57.35,46.67-92t119.44-34.67q55.64,0,100.6,26.54t62.93,71.06l-70.21,29.11q-12-26.52-38.95-41.52t-60.37-15q-30.82,0-55.22,15.41t-24.41,37.67q0,36,67.65,51.37l63.36,16.27Q3531.29,741.62,3531.29,836.65Z"/><path class="cls-7" d="M3761.61,960q-51.37,0-85.19-31.68t-34.68-88.19V605.48h-73.63V533.55h73.63V405.12h78.77V533.55h102.75v71.93H3720.51V814.39q0,42,16.27,56.94t36.82,15a79,79,0,0,0,18.4-2.14,95.1,95.1,0,0,0,16.7-5.56l24.83,70.21Q3802.71,959.94,3761.61,960Z"/><path class="cls-7" d="M4446.55,877.75V953.1h-373.3V874.33l151.54-153.26q76.2-77.91,105.32-116.88t29.11-81.77q0-38.52-30-65.92t-77.06-27.4q-40.24,0-69.35,24t-37.67,58.22l-71.92-29.11q17.11-53.94,65.92-91.18t114.74-37.25q79.62,0,132.71,48.8t53.08,119.87q0,84.76-93.32,183.23l-171.25,172.1Z"/><path class="cls-7" d="M4521.89,660.27q0-133.56,65.93-220t169.53-86.48q103.59,0,169.53,87.33,65.91,86.49,65.92,219.19,0,131.87-65.92,220.05-65.94,86.49-169.53,86.48t-169.53-86.48Q4521.88,792.15,4521.89,660.27Zm390.43,0q0-101-42.81-166.1-42-65.06-112.16-65.07t-112.16,65.07q-42.82,65.08-42.82,166.1t42.82,167q41.94,64.21,112.16,64.22t112.16-65.07Q4912.32,760.46,4912.32,660.27Z"/><path class="cls-7" d="M5278.77,367.45V953.1H5200v-488l-113.88,49.66-30-66.79,172.09-80.48Z"/><path class="cls-7" d="M5782.21,791.27q0,75.36-57.37,125-58.23,50.54-141.27,50.52t-141.28-50.52q-57.36-49.65-57.36-125,0-46.23,24.83-84.33t71.06-60.37v-3.42q-34.24-22.26-55.22-54.8t-21-68.49q0-71.07,50.52-119,49.65-47.07,128.43-47.09T5712,400.84q50.51,48,50.52,119,0,36-21,68.49t-55.23,54.8v3.42q46.24,22.27,71.07,60.37T5782.21,791.27ZM5465.41,787q0,23.13,9,42a103.36,103.36,0,0,0,24.83,33,112.52,112.52,0,0,0,37.25,21.84q21.39,7.69,47.09,7.7t47.09-7.7a112.82,112.82,0,0,0,37.25-21.84,103.62,103.62,0,0,0,24.82-33q9-18.83,9-42,0-44.5-34.25-73.63-34.26-30-83.91-30t-84.77,30Q5465.41,743.35,5465.41,787Zm19.69-268.85q0,41.1,27.4,66.36t71.07,25.26q43.67,0,71.06-25.26t27.4-66.36q0-41.1-27.4-65.07t-71.06-24q-43.66,0-71.07,24T5485.1,518.14Z"/></svg>