<svg id="Layer_1" data-name="Layer 1" xmlns="http://www.w3.org/2000/svg" viewBox="0 0 4500 1300"><defs><style>.cls-1{fill:#fbbc04;}.cls-2{fill:#34a853;}.cls-3,.cls-4{fill:#4868ed;}.cls-4{opacity:0.1;}.cls-5{fill:#ea4335;}.cls-6{fill:#4285f4;}.cls-7{fill:gray;}</style></defs><title>03 DevFest Logo Stacked</title><polygon class="cls-1" points="632.8 947.58 523.23 1137.26 351.42 1137.26 546.86 798.79 632.8 947.58"/><polygon class="cls-2" points="546.86 798.79 351.42 1137.26 179.69 1137.26 417.7 725.06 461 650.08 546.86 798.79"/><path class="cls-3" d="M781.46,690.05,718.67,798.79,632.8,650,546.86,501.29,351.42,162.74H523.23L632.8,352.5l85.87,148.79,62.8,108.81A80,80,0,0,1,781.46,690.05Z"/><polygon class="cls-3" points="718.67 798.79 632.8 947.58 546.86 798.79 461 650.08 179.61 162.74 351.42 162.74 546.86 501.29 632.8 650 718.67 798.79"/><polygon class="cls-4" points="632.8 947.58 525.91 835.08 419.1 722.59 461 650.08 546.86 798.79 632.8 947.58"/><path class="cls-5" d="M781.46,690.05,718.67,798.79,632.8,650,546.86,501.29,351.42,162.74H523.23L632.8,352.5l85.87,148.79,62.8,108.81A80,80,0,0,1,781.46,690.05Z"/><polygon class="cls-6" points="718.67 798.79 632.8 947.58 546.86 798.79 461 650.08 179.61 162.74 351.42 162.74 546.86 501.29 632.8 650 718.67 798.79"/><path class="cls-7" d="M1117.74,289.42h131.18a91.69,91.69,0,0,1,1.87,10.84,110.68,110.68,0,0,1,.74,12.71,148,148,0,0,1-7.85,48.58A112.55,112.55,0,0,1,1219,402.29a123.82,123.82,0,0,1-43,29.52q-25,10.45-57.17,10.46a144.8,144.8,0,0,1-54.94-10.46,136.69,136.69,0,0,1-44.85-29.15,140.09,140.09,0,0,1-30.27-44.29q-11.2-25.59-11.21-55.87t11.21-55.86a140.09,140.09,0,0,1,30.27-44.29,137,137,0,0,1,44.85-29.15,144.8,144.8,0,0,1,54.94-10.46q32.51,0,58.11,11.21a130.08,130.08,0,0,1,43.91,31l-34.76,34A92.9,92.9,0,0,0,1157,217.86q-16.07-7.29-38.49-7.29a93.33,93.33,0,0,0-34.75,6.54,87.09,87.09,0,0,0-28.78,18.5,88.36,88.36,0,0,0-19.62,29q-7.29,17-7.29,37.93t7.29,37.94a86.67,86.67,0,0,0,19.81,29,89,89,0,0,0,29,18.5,94.16,94.16,0,0,0,35.13,6.54q21.3,0,36.06-6.17a84.53,84.53,0,0,0,25.23-15.88,60.65,60.65,0,0,0,12.89-17,96.87,96.87,0,0,0,8.41-23h-84.09Z"/><path class="cls-7" d="M1293.39,168.72h90.44q31.76,0,57.17,9.71a123.41,123.41,0,0,1,43.35,27.47,119.34,119.34,0,0,1,27.47,42.42q9.54,24.66,9.53,54.18,0,29.91-9.53,54.57a117.52,117.52,0,0,1-27.47,42.23q-17.92,17.56-43.35,27.28t-57.17,9.71h-90.44Zm88.19,219.74q22.05,0,38.87-6.17a75.91,75.91,0,0,0,28-17.38,71.28,71.28,0,0,0,16.82-27.09,114.15,114.15,0,0,0,0-70.63,71.28,71.28,0,0,0-16.82-27.09,75.91,75.91,0,0,0-28-17.38q-16.82-6.16-38.87-6.17h-37.74V388.46Z"/><path class="cls-7" d="M1689.15,289.42h131.17a89.67,89.67,0,0,1,1.87,10.84,110.68,110.68,0,0,1,.74,12.71,148.23,148.23,0,0,1-7.84,48.58,112.71,112.71,0,0,1-24.67,40.74,123.88,123.88,0,0,1-43,29.52q-25,10.45-57.18,10.46a144.8,144.8,0,0,1-54.94-10.46,136.55,136.55,0,0,1-44.84-29.15,139.76,139.76,0,0,1-30.27-44.29Q1549,332.78,1549,302.5t11.22-55.86a139.76,139.76,0,0,1,30.27-44.29,136.86,136.86,0,0,1,44.84-29.15,144.8,144.8,0,0,1,54.94-10.46q32.51,0,58.11,11.21a130.08,130.08,0,0,1,43.91,31l-34.75,34a93,93,0,0,0-29.15-21.11q-16.08-7.29-38.5-7.29a93.33,93.33,0,0,0-34.75,6.54,87.09,87.09,0,0,0-28.78,18.5,88.36,88.36,0,0,0-19.62,29q-7.29,17-7.28,37.93t7.28,37.94a86.67,86.67,0,0,0,19.81,29,89.07,89.07,0,0,0,29,18.5,94.16,94.16,0,0,0,35.13,6.54q21.3,0,36.06-6.17a84.53,84.53,0,0,0,25.23-15.88,60.65,60.65,0,0,0,12.89-17,96.87,96.87,0,0,0,8.41-23h-84.08Z"/><path class="cls-7" d="M2173.47,393.32a133,133,0,0,1-46.71,36.43q-26.91,12.53-60.17,12.52a140.91,140.91,0,0,1-55.49-10.83,135.72,135.72,0,0,1-73.81-73.81,145.58,145.58,0,0,1,0-110.25,135.72,135.72,0,0,1,73.81-73.81,140.91,140.91,0,0,1,55.49-10.83q32.14,0,56.62,11.21a131.8,131.8,0,0,1,43.54,32.51l-35.51,34.38a95.24,95.24,0,0,0-27.46-22.05q-15.53-8.21-36.81-8.22a94.32,94.32,0,0,0-35.13,6.54,85,85,0,0,0-28.59,18.5,87.32,87.32,0,0,0-19.25,29q-7.1,17-7.1,37.93t7.1,37.94a87.12,87.12,0,0,0,19.25,29,84.82,84.82,0,0,0,28.59,18.5,94.12,94.12,0,0,0,35.13,6.54q22.41,0,39.8-9.16a97.89,97.89,0,0,0,30.83-26Z"/><path class="cls-7" d="M2204.12,436.29V168.72h49V436.29Z"/><path class="cls-7" d="M2379.76,247.2a101.87,101.87,0,0,1,39.06,7.28,90.57,90.57,0,0,1,50.82,51,109.25,109.25,0,0,1,0,78.48,90.54,90.54,0,0,1-50.82,51,108.4,108.4,0,0,1-78.11,0,90.54,90.54,0,0,1-50.82-51,109.25,109.25,0,0,1,0-78.48,90.57,90.57,0,0,1,50.82-51A101.82,101.82,0,0,1,2379.76,247.2Zm0,149.85a47.91,47.91,0,0,0,18.13-3.55,46.27,46.27,0,0,0,15.51-10.27,48.9,48.9,0,0,0,10.65-16.45,63.95,63.95,0,0,0,0-44.09,48.9,48.9,0,0,0-10.65-16.45A46.6,46.6,0,0,0,2397.89,296a48.11,48.11,0,0,0-18.13-3.55,47.6,47.6,0,0,0-18.31,3.55,47.06,47.06,0,0,0-15.32,10.28,48.9,48.9,0,0,0-10.65,16.45,63.95,63.95,0,0,0,0,44.09,48.9,48.9,0,0,0,10.65,16.45,46.71,46.71,0,0,0,15.32,10.27A47.41,47.41,0,0,0,2379.76,397.05Z"/><path class="cls-7" d="M2633.14,412.38h-3A62,62,0,0,1,2607,434.24q-14.58,8-33.26,8-34.75,0-51.76-21.3t-17-56.8v-111h48.95v105q0,19.81,8.79,29.33t25.6,9.53a35.74,35.74,0,0,0,17.75-4.29,41.66,41.66,0,0,0,13.08-11.59,52.74,52.74,0,0,0,8.22-17.19,77.13,77.13,0,0,0,2.8-21.11V253.18h49V436.29h-46Z"/><path class="cls-7" d="M2855.5,414.24h-3q-6.72,11.6-20.93,19.81t-35.13,8.22A79.34,79.34,0,0,1,2763,435a89.33,89.33,0,0,1-28-20.18A95.81,95.81,0,0,1,2715.73,384a112,112,0,0,1,0-78.48A95.88,95.88,0,0,1,2735,274.66a89.33,89.33,0,0,1,28-20.18,79.19,79.19,0,0,1,33.44-7.28q20.93,0,35.13,8.22t20.93,19.8h3l-3-26.16V168.72h49V436.29h-46Zm-49-17.19a48.81,48.81,0,0,0,18.5-3.55,46.17,46.17,0,0,0,15.51-10.27,51.22,51.22,0,0,0,10.84-16.45,61.18,61.18,0,0,0,0-44.09,51.22,51.22,0,0,0-10.84-16.45A46.5,46.5,0,0,0,2825,296a49,49,0,0,0-18.5-3.55,46.8,46.8,0,0,0-18.5,3.74,48.88,48.88,0,0,0-15.51,10.47,51,51,0,0,0-10.83,16.44,59.21,59.21,0,0,0,0,43.35,51,51,0,0,0,10.83,16.44A48.72,48.72,0,0,0,2788,393.32,46.79,46.79,0,0,0,2806.54,397.05Z"/><path class="cls-7" d="M3166.09,442.27q-59.41,0-99.4-40-39.61-40-39.62-99.79t39.62-99.4q39.6-40.36,99.4-40.36,60.54,0,98.29,43.72l-24.66,23.92q-28.78-34.75-73.63-34.76-44.48,0-74.36,29.9-29.54,29.52-29.53,77t29.53,77q29.88,29.89,74.36,29.9,46.72,0,81.1-39.24l25,24.29a129.72,129.72,0,0,1-46.72,35.31A142.33,142.33,0,0,1,3166.09,442.27Z"/><path class="cls-7" d="M3368.65,247.2q38.11,0,60.16,20.36t22.05,55.87V436.29H3418V410.88h-1.49q-21.3,31.39-56.8,31.39-30.27,0-50.64-17.93t-20.37-44.85q0-28.39,21.49-45.22t57.36-16.82q30.64,0,50.45,11.21v-7.84q0-17.94-14.2-30.46a48.69,48.69,0,0,0-33.26-12.52q-28.77,0-45.59,24.29l-30.27-19.06Q3319.69,247.19,3368.65,247.2Zm-44.48,133q0,13.45,11.4,22.42a41.93,41.93,0,0,0,26.72,9q21.67,0,38.68-16.07t17-37.75q-16.06-12.69-44.84-12.7-20.94,0-34.94,10.09T3324.17,380.24Z"/><path class="cls-7" d="M3524.11,168.72V436.29h-34.38V168.72Z"/><path class="cls-7" d="M3645.19,523a102.11,102.11,0,0,1-28.77-3.92,93.1,93.1,0,0,1-24.48-11,79.11,79.11,0,0,1-18.87-16.82,70.8,70.8,0,0,1-12-21.68l32.51-13.45a51.55,51.55,0,0,0,19.43,25.79q13.83,9.71,32.14,9.71,28,0,43.73-16.81t15.69-46.34V410.88h-1.49a67.62,67.62,0,0,1-26.35,23,78.74,78.74,0,0,1-36.06,8.41q-35.88,0-61.66-28-25.43-28.77-25.42-69.51t25.42-69.13q25.78-28.4,61.66-28.4a78.86,78.86,0,0,1,36.06,8.4,67.72,67.72,0,0,1,26.35,23h1.49V253.18h32.89V428.45q0,44.08-25,69.13Q3687,523,3645.19,523Zm1.12-112.11q25.41,0,41.49-18.31,16.82-18.3,16.81-47.84,0-28.77-16.81-47.46-16.46-18.67-41.49-18.68-24.66,0-41.48,18.68T3588,344.73q0,29.16,16.82,47.47Q3621.65,410.89,3646.31,410.88Z"/><path class="cls-7" d="M3847,247.2q38.11,0,60.16,20.36t22.05,55.87V436.29h-32.88V410.88h-1.5q-21.3,31.39-56.8,31.39-30.27,0-50.64-17.93T3767,379.49q0-28.39,21.49-45.22t57.36-16.82q30.65,0,50.46,11.21v-7.84q0-17.94-14.2-30.46a48.73,48.73,0,0,0-33.27-12.52q-28.77,0-45.59,24.29L3773,283.07Q3798,247.19,3847,247.2Zm-44.48,133q0,13.45,11.4,22.42a41.93,41.93,0,0,0,26.72,9q21.68,0,38.68-16.07t17-37.75q-16.08-12.69-44.85-12.7-20.94,0-34.94,10.09T3802.52,380.24Z"/><path class="cls-7" d="M4002.46,436.29h-34.38V253.18H4001v29.89h1.5q5.22-14.56,21.49-24.85t32-10.28q14.94,0,25.41,4.49l-10.46,33.26q-6.36-2.61-20.18-2.62-19.44,0-33.82,15.7a52.45,52.45,0,0,0-14.39,36.62Z"/><path class="cls-7" d="M4271.15,253.18,4156.42,517h-35.5l42.6-92.31L4088,253.18h37.37L4180,384.72h.74l53.07-131.54Z"/><path class="cls-7" d="M977.6,1127.65V697.72h131.51q98.48,0,158.22,59.44t59.75,155.52q0,96.69-59.75,155.83t-158.22,59.14Zm55.25-377.09v324.25h76.26q75,0,118.29-42.93t43.23-119.2q0-75.64-43.23-118.89t-118.29-43.23Z"/><path class="cls-7" d="M1506,1137.26q-64.86,0-106.89-44.43t-42-112.29q0-67.24,40.83-112t104.48-44.73q65.44,0,104.19,42.33t38.73,118.59l-.6,6H1413.54q1.2,43.23,28.83,69.65t66.05,26.42q52.83,0,82.86-52.84l49.24,24q-19.82,37.24-54.94,58.25T1506,1137.26Zm-88.27-192.15h168.73q-2.4-30.63-24.92-50.74t-60.35-20.12q-31.23,0-53.74,19.22T1417.75,945.11Z"/><path class="cls-7" d="M1832.68,1127.65h-55.25L1658.54,833.42h60l86.47,228.18h1.2l87.67-228.18h58.84Z"/><path class="cls-7" d="M2124.5,692.91q30,0,49.24,10.21l-15,48.64q-14.4-7.21-32.42-7.21-20.41,0-33.33,14.11t-12.91,37.53v37.23h76.86v50.44h-76.86v243.79h-55.24V883.86h-55.24V833.42h55.24V790.79q0-43.83,27.92-70.86T2124.5,692.91Z"/><path class="cls-7" d="M2323.86,1137.26q-64.86,0-106.89-44.43t-42-112.29q0-67.24,40.83-112t104.48-44.73q65.45,0,104.19,42.33t38.73,118.59l-.61,6H2231.38q1.2,43.23,28.82,69.65t66.06,26.42q52.83,0,82.86-52.84l49.24,24q-19.82,37.24-54.94,58.25T2323.86,1137.26Zm-88.28-192.15h168.74q-2.42-30.63-24.92-50.74t-60.35-20.12q-31.23,0-53.74,19.22T2235.58,945.11Z"/><path class="cls-7" d="M2741.78,1046q0,38.43-33.63,64.85t-84.67,26.42q-44.45,0-78.06-23.12a127.39,127.39,0,0,1-48-60.94l49.24-21q10.82,26.43,31.53,41.13a76.51,76.51,0,0,0,45.33,14.71q26.42,0,44.14-11.41t17.71-27q0-28.21-43.23-41.43l-50.44-12.61q-85.87-21.62-85.87-82.87,0-40.21,32.73-64.55t83.76-24.31q39,0,70.56,18.61T2737,892.27l-49.23,20.41q-8.43-18.6-27.33-29.12t-42.33-10.51q-21.61,0-38.73,10.81t-17.12,26.42q0,25.23,47.44,36l44.44,11.41Q2741.77,979.34,2741.78,1046Z"/><path class="cls-7" d="M2903.3,1132.46q-36,0-59.74-22.22t-24.32-61.85V883.86H2767.6V833.42h51.64V743.35h55.24v90.07h72.06v50.44h-72.06v146.52q0,29.43,11.41,39.93t25.82,10.51a55.59,55.59,0,0,0,12.91-1.5,66.21,66.21,0,0,0,11.71-3.91l17.41,49.24Q2932.13,1132.45,2903.3,1132.46Z"/><path class="cls-7" d="M3383.67,1074.81v52.84H3121.86v-55.24l106.29-107.48q53.43-54.64,73.85-82t20.42-57.34q0-27-21-46.24t-54-19.22q-28.23,0-48.64,16.82t-26.42,40.83l-50.44-20.42q12-37.83,46.24-63.95t80.46-26.12q55.84,0,93.08,34.23t37.22,84.07q0,59.45-65.45,128.5l-120.09,120.69Z"/><path class="cls-7" d="M3436.5,922.29q0-93.67,46.24-154.32t118.89-60.65q72.66,0,118.9,61.25,46.23,60.66,46.23,153.72,0,92.48-46.23,154.32-46.25,60.66-118.9,60.65t-118.89-60.65Q3436.5,1014.78,3436.5,922.29Zm273.82,0q0-70.85-30-116.49-29.43-45.63-78.67-45.64T3523,805.8q-30,45.65-30,116.49t30,117.1q29.42,45,78.66,45t78.67-45.64Q3710.31,992.55,3710.32,922.29Z"/><path class="cls-7" d="M3967.32,716.93v410.72h-55.24V785.38l-79.87,34.83-21-46.84,120.69-56.44Z"/><path class="cls-7" d="M4320.39,1014.17q0,52.85-40.23,87.66-40.84,35.45-99.08,35.43T4082,1101.83q-40.23-34.82-40.23-87.66A106.07,106.07,0,0,1,4059.18,955q17.42-26.71,49.84-42.34v-2.4a128.84,128.84,0,0,1-38.73-38.43q-14.72-22.82-14.71-48,0-49.85,35.43-83.47,34.82-33,90.07-33t90.07,33q35.43,33.63,35.43,83.47,0,25.21-14.71,48a129.07,129.07,0,0,1-38.73,38.43v2.4Q4285.56,928.31,4303,955A106.15,106.15,0,0,1,4320.39,1014.17Zm-222.18-3a67.49,67.49,0,0,0,6.31,29.43,72.4,72.4,0,0,0,17.41,23.11,79,79,0,0,0,26.12,15.32,103.72,103.72,0,0,0,66.06,0,79.22,79.22,0,0,0,26.12-15.32,72.55,72.55,0,0,0,17.41-23.11,67.49,67.49,0,0,0,6.31-29.43q0-31.21-24-51.64-24-21-58.85-21t-59.45,21Q4098.22,980.55,4098.21,1011.16ZM4112,822.61q0,28.83,19.22,46.54t49.84,17.72q30.63,0,49.84-17.72t19.21-46.54q0-28.82-19.21-45.63t-49.84-16.82q-30.63,0-49.84,16.82T4112,822.61Z"/></svg>