<svg id="Layer_1" data-name="Layer 1" xmlns="http://www.w3.org/2000/svg" viewBox="0 0 4500 1300"><defs><style>.cls-1{fill:#4b4b4b;}</style></defs><title>03 DevFest Logo Black Stacked</title><polygon class="cls-1" points="511.8 796.86 326.23 1118.27 187.19 1118.27 414.81 724.09 442.31 676.49 511.8 796.86"/><polygon class="cls-1" points="596.65 943.74 495.83 1118.27 356.71 1118.27 527.06 823.28 596.65 943.74"/><path class="cls-1" d="M755.89,650.07a66.22,66.22,0,0,1-8.84,33.1l-50.39,87.28L627.15,650,542.3,503.19,356.73,181.73H495.81l104.5,181L747.06,617A66.13,66.13,0,0,1,755.89,650.07Z"/><polygon class="cls-1" points="681.4 796.86 611.89 917.33 542.3 796.86 457.55 650.07 187.13 181.73 326.23 181.73 515.48 509.56 600.31 656.36 681.4 796.86"/><path class="cls-1" d="M1110.22,308.42H1241.4a91.48,91.48,0,0,1,1.87,10.83A110.68,110.68,0,0,1,1244,332a148.23,148.23,0,0,1-7.84,48.58,112.71,112.71,0,0,1-24.67,40.74,123.82,123.82,0,0,1-43,29.52q-25,10.45-57.17,10.46a144.8,144.8,0,0,1-54.94-10.46,136.55,136.55,0,0,1-44.84-29.15,139.9,139.9,0,0,1-30.28-44.28q-11.2-25.61-11.21-55.87t11.21-55.87a140,140,0,0,1,30.28-44.29,136.86,136.86,0,0,1,44.84-29.15,144.8,144.8,0,0,1,54.94-10.46q32.51,0,58.11,11.21a130.08,130.08,0,0,1,43.91,31l-34.76,34a92.9,92.9,0,0,0-29.15-21.11q-16.07-7.29-38.49-7.29a93.33,93.33,0,0,0-34.75,6.54,87.09,87.09,0,0,0-28.78,18.5,88.36,88.36,0,0,0-19.62,29q-7.29,17-7.29,37.94t7.29,37.93a86.67,86.67,0,0,0,19.81,29,89,89,0,0,0,29,18.5,94.16,94.16,0,0,0,35.13,6.54q21.3,0,36.06-6.17A84.53,84.53,0,0,0,1173,391.38a60.51,60.51,0,0,0,12.89-17,96.71,96.71,0,0,0,8.41-23h-84.09Z"/><path class="cls-1" d="M1285.87,187.71h90.44q31.76,0,57.17,9.71a123.55,123.55,0,0,1,43.35,27.47,119.34,119.34,0,0,1,27.47,42.42q9.54,24.66,9.53,54.19,0,29.89-9.53,54.56a117.52,117.52,0,0,1-27.47,42.23q-17.92,17.56-43.35,27.28t-57.17,9.71h-90.44Zm88.19,219.74q22.05,0,38.87-6.17a76,76,0,0,0,28-17.37,71.4,71.4,0,0,0,16.82-27.1,114.15,114.15,0,0,0,0-70.63A71.28,71.28,0,0,0,1441,259.09a75.91,75.91,0,0,0-28-17.38q-16.82-6.17-38.87-6.17h-37.74V407.45Z"/><path class="cls-1" d="M1681.63,308.42H1812.8a87.55,87.55,0,0,1,1.87,10.83,110.69,110.69,0,0,1,.75,12.71,148.23,148.23,0,0,1-7.85,48.58,112.57,112.57,0,0,1-24.67,40.74,123.88,123.88,0,0,1-43,29.52q-25,10.45-57.18,10.46a144.8,144.8,0,0,1-54.94-10.46A136.55,136.55,0,0,1,1583,421.65a139.71,139.71,0,0,1-30.27-44.28q-11.22-25.61-11.22-55.87t11.22-55.87A139.76,139.76,0,0,1,1583,221.34a136.86,136.86,0,0,1,44.84-29.15,144.8,144.8,0,0,1,54.94-10.46q32.51,0,58.11,11.21a130.08,130.08,0,0,1,43.91,31L1750,258a93,93,0,0,0-29.15-21.11q-16.08-7.29-38.5-7.29a93.33,93.33,0,0,0-34.75,6.54,87.09,87.09,0,0,0-28.78,18.5,88.36,88.36,0,0,0-19.62,29q-7.28,17-7.28,37.94t7.28,37.93a86.67,86.67,0,0,0,19.81,29,89.07,89.07,0,0,0,29,18.5,94.16,94.16,0,0,0,35.13,6.54q21.3,0,36.06-6.17a84.53,84.53,0,0,0,25.23-15.88,60.51,60.51,0,0,0,12.89-17,96.71,96.71,0,0,0,8.41-23h-84.08Z"/><path class="cls-1" d="M2166,412.31a133,133,0,0,1-46.71,36.43q-26.91,12.52-60.17,12.52a140.91,140.91,0,0,1-55.49-10.83,135.72,135.72,0,0,1-73.81-73.81,145.58,145.58,0,0,1,0-110.25,135.65,135.65,0,0,1,73.81-73.8,140.74,140.74,0,0,1,55.49-10.84q32.14,0,56.62,11.21a131.8,131.8,0,0,1,43.54,32.51l-35.51,34.38a95.24,95.24,0,0,0-27.46-22q-15.51-8.21-36.81-8.22a94.32,94.32,0,0,0-35.13,6.54,85,85,0,0,0-28.59,18.5,87.32,87.32,0,0,0-19.25,29q-7.1,17-7.1,37.94t7.1,37.93a87.12,87.12,0,0,0,19.25,29,84.82,84.82,0,0,0,28.59,18.5,94.12,94.12,0,0,0,35.13,6.54q22.41,0,39.8-9.16a97.89,97.89,0,0,0,30.83-26Z"/><path class="cls-1" d="M2196.6,455.28V187.71h49V455.28Z"/><path class="cls-1" d="M2372.25,266.19a102,102,0,0,1,39.05,7.28,90.54,90.54,0,0,1,50.82,51,109.25,109.25,0,0,1,0,78.48,90.57,90.57,0,0,1-50.82,51,108.4,108.4,0,0,1-78.11,0,90.57,90.57,0,0,1-50.82-51,109.25,109.25,0,0,1,0-78.48,90.54,90.54,0,0,1,50.82-51A102,102,0,0,1,2372.25,266.19Zm0,149.85a47.71,47.71,0,0,0,18.12-3.55,46.27,46.27,0,0,0,15.51-10.27,48.8,48.8,0,0,0,10.65-16.45,63.95,63.95,0,0,0,0-44.09,48.9,48.9,0,0,0-10.65-16.45A46.42,46.42,0,0,0,2390.37,315a48.53,48.53,0,0,0-36.44,0,46.87,46.87,0,0,0-15.32,10.27A48.9,48.9,0,0,0,2328,341.68a63.95,63.95,0,0,0,0,44.09,48.8,48.8,0,0,0,10.65,16.45,46.71,46.71,0,0,0,15.32,10.27A47.24,47.24,0,0,0,2372.25,416Z"/><path class="cls-1" d="M2625.62,431.37h-3a62,62,0,0,1-23.17,21.86q-14.58,8-33.26,8-34.75,0-51.76-21.3t-17-56.8v-111h48.95v105q0,19.81,8.79,29.34t25.6,9.52a35.74,35.74,0,0,0,17.75-4.29,41.54,41.54,0,0,0,13.08-11.59,52.64,52.64,0,0,0,8.22-17.19,77.13,77.13,0,0,0,2.8-21.11V272.17h49V455.28h-46Z"/><path class="cls-1" d="M2848,433.24h-3q-6.72,11.58-20.93,19.8t-35.13,8.22a79.34,79.34,0,0,1-33.44-7.28,89.33,89.33,0,0,1-28-20.18A95.88,95.88,0,0,1,2708.21,403a112,112,0,0,1,0-78.48,95.81,95.81,0,0,1,19.25-30.84,89.33,89.33,0,0,1,28-20.18,79.34,79.34,0,0,1,33.44-7.28q20.93,0,35.13,8.22T2845,294.22h3l-3-26.16V187.71h49V455.28h-46ZM2799,416a48.62,48.62,0,0,0,18.5-3.55A46.17,46.17,0,0,0,2833,402.22a51.11,51.11,0,0,0,10.84-16.45,61.18,61.18,0,0,0,0-44.09A51.22,51.22,0,0,0,2833,325.23,46.32,46.32,0,0,0,2817.52,315a48.81,48.81,0,0,0-18.5-3.55,47,47,0,0,0-18.5,3.73,48.73,48.73,0,0,0-15.5,10.47,50.9,50.9,0,0,0-10.84,16.44,59.21,59.21,0,0,0,0,43.35A50.9,50.9,0,0,0,2765,401.84a48.56,48.56,0,0,0,15.5,10.47A46.79,46.79,0,0,0,2799,416Z"/><path class="cls-1" d="M3158.57,461.26q-59.42,0-99.4-40-39.61-40-39.62-99.78t39.62-99.41q39.6-40.36,99.4-40.36,60.54,0,98.29,43.72l-24.66,23.92q-28.78-34.76-73.63-34.76-44.47,0-74.36,29.9-29.53,29.53-29.53,77t29.53,77q29.88,29.91,74.36,29.9,46.72,0,81.1-39.24l25,24.29A129.72,129.72,0,0,1,3218,448.74,142.33,142.33,0,0,1,3158.57,461.26Z"/><path class="cls-1" d="M3361.13,266.19q38.11,0,60.16,20.36t22.05,55.87V455.28h-32.89V429.87H3409q-21.3,31.39-56.8,31.39-30.27,0-50.64-17.93t-20.37-44.85q0-28.39,21.49-45.22T3360,336.44q30.64,0,50.45,11.22v-7.85q0-17.94-14.2-30.46A48.73,48.73,0,0,0,3363,296.83q-28.77,0-45.59,24.29l-30.27-19.06Q3312.17,266.18,3361.13,266.19Zm-44.48,133q0,13.45,11.4,22.42a41.93,41.93,0,0,0,26.72,9q21.67,0,38.68-16.07t17-37.74q-16.07-12.71-44.84-12.71-20.94,0-34.94,10.09T3316.65,399.23Z"/><path class="cls-1" d="M3516.59,187.71V455.28h-34.38V187.71Z"/><path class="cls-1" d="M3637.67,542a102.11,102.11,0,0,1-28.77-3.93,92.78,92.78,0,0,1-24.48-11,79.11,79.11,0,0,1-18.87-16.82,70.68,70.68,0,0,1-12-21.68l32.51-13.45a51.51,51.51,0,0,0,19.43,25.79q13.83,9.71,32.14,9.71,28,0,43.73-16.81t15.69-46.34V429.87h-1.49a67.62,67.62,0,0,1-26.35,23,78.74,78.74,0,0,1-36.06,8.41q-35.88,0-61.66-28-25.43-28.78-25.42-69.51t25.42-69.14q25.78-28.39,61.66-28.4a78.86,78.86,0,0,1,36.06,8.4,67.72,67.72,0,0,1,26.35,23h1.49V272.17H3730V447.44q0,44.08-25,69.13Q3679.51,542,3637.67,542Zm1.12-112.12q25.41,0,41.49-18.31,16.81-18.3,16.81-47.83,0-28.78-16.81-47.47-16.46-18.67-41.49-18.68-24.66,0-41.48,18.68t-16.82,47.47q0,29.14,16.82,47.46Q3614.13,429.88,3638.79,429.87Z"/><path class="cls-1" d="M3839.48,266.19q38.11,0,60.16,20.36t22.05,55.87V455.28h-32.88V429.87h-1.5q-21.3,31.39-56.8,31.39-30.27,0-50.64-17.93t-20.37-44.85q0-28.39,21.49-45.22t57.36-16.82q30.65,0,50.46,11.22v-7.85q0-17.94-14.2-30.46a48.78,48.78,0,0,0-33.27-12.52q-28.77,0-45.59,24.29l-30.27-19.06Q3790.52,266.18,3839.48,266.19Zm-44.48,133q0,13.45,11.4,22.42a41.93,41.93,0,0,0,26.72,9q21.68,0,38.68-16.07t17-37.74Q3872.73,364.1,3844,364.1q-20.94,0-34.94,10.09T3795,399.23Z"/><path class="cls-1" d="M3994.94,455.28h-34.38V272.17h32.88v29.89h1.5q5.22-14.56,21.49-24.85t32-10.28q14.94,0,25.41,4.49l-10.46,33.26q-6.36-2.61-20.18-2.62-19.44,0-33.82,15.7a52.45,52.45,0,0,0-14.39,36.62Z"/><path class="cls-1" d="M4263.63,272.17,4148.9,536h-35.5L4156,443.7l-75.49-171.53h37.37l54.57,131.54h.74l53.07-131.54Z"/><path class="cls-1" d="M970.08,1108.66V678.72h131.51q98.48,0,158.22,59.45t59.75,155.52q0,96.69-59.75,155.83t-158.22,59.14Zm55.25-377.09v324.25h76.26q75,0,118.29-42.93t43.23-119.2q0-75.66-43.23-118.89t-118.29-43.23Z"/><path class="cls-1" d="M1498.5,1118.27q-64.86,0-106.89-44.43t-42-112.29q0-67.24,40.83-112t104.48-44.74q65.44,0,104.19,42.34t38.73,118.59l-.6,6H1406q1.2,43.23,28.83,69.65t66.05,26.42q52.83,0,82.87-52.84l49.23,24q-19.82,37.23-54.94,58.25T1498.5,1118.27Zm-88.27-192.15H1579q-2.4-30.63-24.92-50.74t-60.35-20.12q-31.23,0-53.74,19.22T1410.23,926.12Z"/><path class="cls-1" d="M1825.16,1108.66h-55.25L1651,814.43h60l86.47,228.18h1.2l87.67-228.18h58.84Z"/><path class="cls-1" d="M2117,673.92q30,0,49.24,10.21l-15,48.64q-14.41-7.21-32.43-7.21-20.42,0-33.33,14.11t-12.91,37.53v37.23h76.86v50.44h-76.86v243.79H2017.3V864.87h-55.24V814.43h55.24V771.8q0-43.83,27.92-70.86T2117,673.92Z"/><path class="cls-1" d="M2316.34,1118.27q-64.86,0-106.89-44.43t-42-112.29q0-67.24,40.83-112t104.48-44.74q65.45,0,104.19,42.34t38.73,118.59l-.61,6H2223.86q1.2,43.23,28.82,69.65t66.06,26.42q52.83,0,82.86-52.84l49.24,24q-19.82,37.23-54.94,58.25T2316.34,1118.27Zm-88.28-192.15H2396.8q-2.41-30.63-24.92-50.74t-60.35-20.12q-31.23,0-53.74,19.22T2228.06,926.12Z"/><path class="cls-1" d="M2734.26,1027q0,38.43-33.63,64.85T2616,1118.27q-44.45,0-78.06-23.12a127.39,127.39,0,0,1-48-60.94l49.24-21q10.82,26.43,31.53,41.13A76.51,76.51,0,0,0,2616,1069q26.41,0,44.14-11.41t17.71-27q0-28.21-43.23-41.43l-50.44-12.61q-85.87-21.62-85.87-82.87,0-40.22,32.73-64.55t83.76-24.32q39,0,70.56,18.62t44.13,49.84l-49.23,20.41q-8.43-18.6-27.33-29.12t-42.33-10.51q-21.61,0-38.73,10.81t-17.11,26.42q0,25.23,47.43,36l44.44,11.41Q2734.25,960.35,2734.26,1027Z"/><path class="cls-1" d="M2895.78,1113.47q-36,0-59.74-22.22t-24.32-61.85V864.87h-51.64V814.43h51.64V724.36H2867v90.07H2939v50.44H2867v146.52q0,29.43,11.41,39.93t25.82,10.51a55.59,55.59,0,0,0,12.91-1.5,66.21,66.21,0,0,0,11.71-3.91l17.41,49.24Q2924.61,1113.46,2895.78,1113.47Z"/><path class="cls-1" d="M3376.15,1055.82v52.84H3114.34v-55.24l106.29-107.48q53.43-54.65,73.85-82t20.42-57.35q0-27-21-46.23t-54-19.22q-28.23,0-48.64,16.82t-26.42,40.83l-50.44-20.42q12-37.83,46.24-63.95T3241,688.33q55.85,0,93.08,34.23t37.23,84.06q0,59.46-65.46,128.51L3185.8,1055.82Z"/><path class="cls-1" d="M3429,903.3q0-93.67,46.24-154.32t118.89-60.65q72.66,0,118.9,61.25,46.23,60.66,46.24,153.72,0,92.48-46.24,154.32-46.25,60.66-118.9,60.65t-118.89-60.65Q3429,995.79,3429,903.3Zm273.82,0q0-70.84-30-116.49-29.43-45.63-78.67-45.64t-78.66,45.64q-30,45.65-30,116.49t30,117.09q29.41,45,78.66,45t78.67-45.64Q3702.8,973.56,3702.8,903.3Z"/><path class="cls-1" d="M3959.8,697.94v410.72h-55.24V766.39l-79.87,34.83-21-46.84,120.69-56.44Z"/><path class="cls-1" d="M4312.87,995.17q0,52.86-40.23,87.67-40.85,35.45-99.08,35.43t-99.08-35.43q-40.23-34.81-40.23-87.67A106.06,106.06,0,0,1,4051.66,936q17.41-26.71,49.84-42.34v-2.4a128.84,128.84,0,0,1-38.73-38.43q-14.71-22.82-14.71-48,0-49.83,35.43-83.46,34.82-33,90.07-33t90.07,33q35.43,33.63,35.43,83.46,0,25.23-14.71,48a129.07,129.07,0,0,1-38.73,38.43v2.4Q4278,909.32,4295.46,936A106.14,106.14,0,0,1,4312.87,995.17Zm-222.18-3a67.45,67.45,0,0,0,6.31,29.42,72.33,72.33,0,0,0,17.41,23.12,79,79,0,0,0,26.12,15.32,103.72,103.72,0,0,0,66.06,0,79.22,79.22,0,0,0,26.12-15.32,72.47,72.47,0,0,0,17.41-23.12,67.45,67.45,0,0,0,6.31-29.42q0-31.21-24-51.64-24-21-58.85-21t-59.45,21Q4090.7,961.56,4090.69,992.17Zm13.82-188.55q0,28.83,19.21,46.54t49.84,17.71q30.63,0,49.84-17.71t19.21-46.54q0-28.82-19.21-45.63t-49.84-16.82q-30.63,0-49.84,16.82T4104.51,803.62Z"/></svg>