<svg id="Layer_1" data-name="Layer 1" xmlns="http://www.w3.org/2000/svg" viewBox="0 0 9000 1000"><defs><style>.cls-1{fill:#fbbc04;}.cls-2{fill:#34a853;}.cls-3,.cls-4{fill:#4868ed;}.cls-4{opacity:0.1;}.cls-5{fill:#ea4335;}.cls-6{fill:#4285f4;}.cls-7{fill:gray;}</style></defs><title>04 DevFest Logo Details</title><polygon class="cls-1" points="4582.94 742.88 4493.5 897.71 4353.27 897.71 4512.79 621.44 4582.94 742.88"/><polygon class="cls-2" points="4512.79 621.44 4353.27 897.71 4213.1 897.71 4407.37 561.26 4442.71 500.06 4512.79 621.44"/><path class="cls-3" d="M4704.27,532.69,4653,621.44,4582.94,500l-70.15-121.38L4353.27,102.29H4493.5l89.44,154.89L4653,378.62l51.26,88.82A65.25,65.25,0,0,1,4704.27,532.69Z"/><polygon class="cls-3" points="4653.02 621.44 4582.94 742.88 4512.79 621.44 4442.71 500.06 4213.04 102.29 4353.27 102.29 4512.79 378.62 4582.94 500 4653.02 621.44"/><polygon class="cls-4" points="4582.94 742.88 4495.69 651.07 4408.51 559.25 4442.71 500.06 4512.79 621.44 4582.94 742.88"/><path class="cls-5" d="M4704.27,532.69,4653,621.44,4582.94,500l-70.15-121.38L4353.27,102.29H4493.5l89.44,154.89L4653,378.62l51.26,88.82A65.25,65.25,0,0,1,4704.27,532.69Z"/><polygon class="cls-6" points="4653.02 621.44 4582.94 742.88 4512.79 621.44 4442.71 500.06 4213.04 102.29 4353.27 102.29 4512.79 378.62 4582.94 500 4653.02 621.44"/><path class="cls-7" d="M3589,390.48h-37V193.26h35.42v32.2H3589q5.64-15.71,23.15-26.77t34.41-11.07q16.09,0,27.37,4.83l-11.27,35.82q-6.86-2.81-21.74-2.81-20.92,0-36.42,16.9T3589,281.81Z"/><path class="cls-7" d="M1893.24,390.48h-37V102.29h45.08l140.07,224.19H2043l-1.61-55.54V102.29h37V390.48h-38.64L1893.24,155.42h-1.61l1.61,55.55Z"/><path class="cls-7" d="M2118.64,291.87q0-45.48,28.57-75.27,29-29.78,72.86-29.78t72.45,29.78q29,29.79,29,75.27,0,45.88-29,75.27-28.59,29.79-72.45,29.78t-72.86-29.78Q2118.63,337.35,2118.64,291.87Zm37,0q0,31.8,18.51,51.52t45.89,19.72q27.36,0,45.88-19.72t18.52-51.52q0-31.39-18.52-51.12-18.91-20.12-45.88-20.12t-45.89,20.12Q2155.67,260.48,2155.67,291.87Z"/><path class="cls-7" d="M2447.08,390.48h-37l-79.7-197.22h40.25l58,153h.81l58.76-152.95h39.45Z"/><path class="cls-7" d="M2634.23,396.92q-43.47,0-71.64-29.78t-28.18-75.27q0-45.08,27.37-75.07t70-30q43.86,0,69.83,28.37t26,79.5l-.4,4h-155q.8,29,19.32,46.69a61.79,61.79,0,0,0,44.27,17.71q35.41,0,55.55-35.42l33,16.1a98.27,98.27,0,0,1-36.82,39Q2664,396.92,2634.23,396.92Zm-59.16-128.8h113.1a49.15,49.15,0,0,0-16.7-34q-15.1-13.49-40.46-13.48-20.93,0-36,12.88T2575.07,268.12Z"/><path class="cls-7" d="M2798.45,390.48h-37V193.26h35.42v27.37h1.61q8.46-14.49,26-24.15t34.82-9.66q21.73,0,38.24,10.06a59.4,59.4,0,0,1,24.15,27.77q24.54-37.83,68-37.83,34.2,0,52.73,20.93t18.51,59.57V390.48h-37V273q0-27.76-10.06-40T2980,220.63q-21.34,0-35.82,18.11t-14.49,42.66V390.48h-37V273q0-27.76-10.06-40t-33.81-12.27q-21.34,0-35.83,18.11t-14.49,42.66Z"/><path class="cls-7" d="M3208.6,396.92a85.08,85.08,0,0,1-39.65-9.26q-17.91-9.24-27.57-24.55h-1.61v27.37h-35.42V102.29h37v91l-1.61,27.37h1.61q9.66-15.3,27.57-24.56a85.08,85.08,0,0,1,39.65-9.25q39,0,66,30.59,27.76,31,27.77,74.46,0,43.88-27.77,74.46Q3247.64,396.93,3208.6,396.92Zm-6-33.81q26.57,0,44.68-20.12,18.11-19.73,18.11-51.12,0-31-18.11-51.12t-44.68-20.12q-27,0-45.08,20.12-17.71,20.13-17.71,51.12,0,31.39,17.71,51.52Q3175.59,363.12,3202.56,363.11Z"/><path class="cls-7" d="M3424.73,396.92q-43.47,0-71.64-29.78t-28.18-75.27q0-45.08,27.37-75.07t70-30q43.86,0,69.83,28.37t26,79.5l-.4,4h-155q.8,29,19.32,46.69a61.79,61.79,0,0,0,44.27,17.71q35.41,0,55.55-35.42l33,16.1a98.22,98.22,0,0,1-36.83,39Q3454.52,396.92,3424.73,396.92Zm-59.16-128.8h113.1a49.12,49.12,0,0,0-16.71-34q-15.09-13.49-40.45-13.48-20.93,0-36,12.88T3365.57,268.12Z"/><path class="cls-7" d="M3960.81,312.4q0,36.23-27,60.37-26.57,24.15-66,24.15a91.61,91.61,0,0,1-55.95-18.51,94.1,94.1,0,0,1-34.21-50.32L3811.48,314q6.43,22.94,21.13,35.22t35.22,12.27q22.53,0,39-14.09,16.1-14.49,16.1-35t-16.9-34.62q-16.52-14.08-39.85-14.09h-23.75V229.08h20.93q22.14,0,36.23-12.28t14.09-32q0-18.11-13.29-29.38t-35-11.27q-35,0-47.9,35.82l-34.22-14.49a85.87,85.87,0,0,1,31-41q21.73-15.71,51.12-15.7,36.61,0,61.58,21.74,24.54,20.92,24.55,54.33,0,39.85-37,59.17v1.61q21.74,9.27,34,27A68.35,68.35,0,0,1,3960.81,312.4Z"/><path class="cls-7" d="M612.47,895.31h-37V607.12h98.21q37.44,0,63.8,24.76t26.36,61q0,29.79-19.52,52.93A86.77,86.77,0,0,1,695,775.37l-.8,1.21,80.9,117.12v1.61H731.21L653.52,778.59h-41Zm0-252.77V744H672q22.53,0,38.24-14.69T726,692.86q0-20.13-14.69-35.22t-36.82-15.1Z"/><path class="cls-7" d="M849.54,630.07a26.12,26.12,0,1,1-7.65-18.52A25.24,25.24,0,0,1,849.54,630.07Zm-7.65,68V895.31h-37V698.09Z"/><path class="cls-7" d="M970.69,901.75q-38.64,0-66.41-30.59-27.37-31-27.37-74.46t27.37-74.46q27.76-30.59,66.41-30.59a85.11,85.11,0,0,1,39.65,9.26q17.89,9.26,27.57,24.55h1.61l-1.61-27.37v-91h37V895.31h-35.42V867.94h-1.61q-9.66,15.3-27.57,24.56A85.11,85.11,0,0,1,970.69,901.75Zm6-33.81q27.36,0,44.67-19.72,18.12-19.71,18.12-51.52,0-31-18.12-51.12-17.71-20.12-44.67-20.12-26.57,0-44.68,20.12T913.94,796.7q0,31.39,18.11,51.12Q950.16,868,976.73,867.94Z"/><path class="cls-7" d="M1200.52,901.75q-38.64,0-66.42-30.59-27.37-31-27.37-74.46t27.37-74.46q27.78-30.59,66.42-30.59a85,85,0,0,1,39.64,9.26q17.91,9.26,27.57,24.55h1.61l-1.61-27.37v-91h37V895.31h-35.42V867.94h-1.61q-9.66,15.3-27.57,24.56A85,85,0,0,1,1200.52,901.75Zm6-33.81q27.38,0,44.68-19.72,18.12-19.71,18.11-51.52,0-31-18.11-51.12-17.71-20.12-44.68-20.12-26.57,0-44.67,20.12t-18.12,51.12q0,31.39,18.12,51.12Q1180,868,1206.55,867.94Z"/><path class="cls-7" d="M1436.38,901.75q-43.47,0-71.65-29.78t-28.17-75.27q0-45.08,27.37-75.06t70-30q43.86,0,69.83,28.37t26,79.5l-.4,4h-155q.8,29,19.32,46.69A61.75,61.75,0,0,0,1438,867.94q35.41,0,55.54-35.42l33,16.1a98.38,98.38,0,0,1-36.83,39Q1466.16,901.75,1436.38,901.75ZM1377.21,773h113.11a49.16,49.16,0,0,0-16.71-34q-15.09-13.49-40.45-13.48-20.94,0-36,12.88T1377.21,773Z"/><path class="cls-7" d="M1600.6,607.12V895.31h-37V607.12Z"/><path class="cls-7" d="M1682.71,607.12V895.31h-37V607.12Z"/><path class="cls-7" d="M1984.57,895.31h-161.8V607.12h37V859.89h124.77Z"/><path class="cls-7" d="M2064.67,630.07a26.12,26.12,0,1,1-7.65-18.52A25.24,25.24,0,0,1,2064.67,630.07Zm-7.65,68V895.31h-37V698.09Z"/><path class="cls-7" d="M2209.56,901.75a85.08,85.08,0,0,1-39.65-9.25q-17.91-9.25-27.57-24.56h-1.61v27.37h-35.42V607.12h37v91l-1.61,27.37h1.61q9.66-15.3,27.57-24.55a85.08,85.08,0,0,1,39.65-9.26q39,0,66,30.59,27.78,31,27.77,74.46,0,43.88-27.77,74.46Q2248.6,901.76,2209.56,901.75Zm-6-33.81q26.57,0,44.68-20.12,18.11-19.73,18.11-51.12,0-31-18.11-51.12t-44.68-20.12q-27,0-45.08,20.12-17.71,20.13-17.71,51.12,0,31.39,17.71,51.52Q2176.56,867.95,2203.52,867.94Z"/><path class="cls-7" d="M2370.15,895.31h-37V698.09h35.43v32.2h1.6q5.64-15.7,23.15-26.77t34.41-11.07q16.1,0,27.37,4.83l-11.27,35.83q-6.84-2.82-21.73-2.82-20.94,0-36.43,16.9t-15.5,39.45Z"/><path class="cls-7" d="M2546.05,691.65q41.05,0,64.8,21.94t23.75,60.17V895.31h-35.42V867.94h-1.61q-23,33.81-61.18,33.81-32.61,0-54.54-19.32t-21.94-48.3q0-30.58,23.15-48.7t61.78-18.11q33,0,54.34,12.07v-8.45q0-19.32-15.3-32.8a52.45,52.45,0,0,0-35.82-13.49q-31,0-49.1,26.17l-32.61-20.53Q2493.32,691.65,2546.05,691.65Zm-47.9,143.29q0,14.49,12.28,24.15a45.15,45.15,0,0,0,28.78,9.66q23.33,0,41.65-17.31t18.32-40.65q-17.31-13.68-48.3-13.69-22.55,0-37.64,10.87T2498.15,834.94Z"/><path class="cls-7" d="M2713.49,895.31h-37V698.09h35.42v32.2h1.61q5.63-15.7,23.14-26.77T2771,692.45q16.1,0,27.37,4.83l-11.27,35.83q-6.84-2.82-21.73-2.82-20.94,0-36.43,16.9a56.54,56.54,0,0,0-15.49,39.45Z"/><path class="cls-7" d="M3002.88,698.09,2879.31,982.25h-38.24L2887,882.84l-81.31-184.75h40.25l58.77,141.68h.8l57.16-141.68Z"/><path class="cls-7" d="M3011.33,940.39,2994,929.12l21.74-33.81a24.23,24.23,0,0,1-14.29-8.45,24.53,24.53,0,0,1-5.84-16.5,26.14,26.14,0,0,1,8-19.52,27.27,27.27,0,0,1,46.69,19.52q0,10.86-8,23.75Z"/><path class="cls-7" d="M3224.24,895.31h-37V607.12h37l100.23,175.49h1.61L3426.3,607.12h37V895.31h-37V724.25l1.61-48.3h-1.61l-90.16,158.18H3314.4L3224.24,676h-1.61l1.61,48.3Z"/><path class="cls-7" d="M3558.31,895.31h-37V607.12h98.21q37.44,0,63.8,24.76t26.36,61q0,29.79-19.52,52.93a86.77,86.77,0,0,1-49.3,29.58l-.81,1.21,80.9,117.12v1.61h-43.87l-77.68-116.72h-41.06Zm0-252.77V744h59.57q22.54,0,38.24-14.69t15.7-36.42q0-20.13-14.69-35.22t-36.83-15.1Z"/><path class="cls-7" d="M3854.14,901.75q-47.89,0-77.27-31.39-29.4-31-29.39-82.11V607.12h37V789.86q0,35.42,18.52,55.95t51.11,20.52q32.61,0,51.12-20.52t18.52-55.95V607.12h37V788.25q0,52.32-29,82.91T3854.14,901.75Z"/><path class="cls-7" d="M4908.74,390.48V102.29h88.15q66,0,106,39.85T5143,246.39q0,64.8-40.05,104.45t-106,39.64Zm37-252.77V355.06h51.12q50.31,0,79.29-28.78t29-79.89q0-50.71-29-79.7t-79.29-29Z"/><path class="cls-7" d="M5262.94,396.92q-43.47,0-71.65-29.78t-28.17-75.27q0-45.08,27.37-75.07t70-30q43.86,0,69.83,28.37t26,79.5l-.41,4H5201q.81,29,19.32,46.69a61.79,61.79,0,0,0,44.28,17.71q35.4,0,55.54-35.42l33,16.1a98.36,98.36,0,0,1-36.83,39Q5292.72,396.92,5262.94,396.92Zm-59.17-128.8h113.1a49.15,49.15,0,0,0-16.7-34q-15.1-13.49-40.45-13.48-20.94,0-36,12.88T5203.77,268.12Z"/><path class="cls-7" d="M5481.9,390.48h-37l-79.7-197.22h40.25l58,153h.81L5523,193.26h39.45Z"/><path class="cls-7" d="M5630,266.92V390.48h-37V102.29h168.25v35.42H5630V232.3h118.34v34.62Z"/><path class="cls-7" d="M5873.12,396.92q-43.47,0-71.65-29.78t-28.17-75.27q0-45.08,27.37-75.07t70-30q43.88,0,69.83,28.37t26,79.5l-.41,4h-155q.81,29,19.32,46.69a61.79,61.79,0,0,0,44.28,17.71q35.42,0,55.54-35.42l33,16.1a98.29,98.29,0,0,1-36.83,39Q5902.9,396.92,5873.12,396.92ZM5814,268.12h113.1a49.11,49.11,0,0,0-16.7-34q-15.11-13.49-40.45-13.48-20.94,0-36,12.88T5814,268.12Z"/><path class="cls-7" d="M6153.25,335.74q0,25.77-22.54,43.47T6074,396.92q-29.79,0-52.33-15.49a85.41,85.41,0,0,1-32.2-40.86l33-14.09q7.25,17.73,21.13,27.58a51.39,51.39,0,0,0,30.39,9.86q17.7,0,29.58-7.65t11.88-18.11q0-18.92-29-27.78l-33.82-8.45q-57.55-14.49-57.55-55.54,0-27,21.93-43.27t56.15-16.3q26.16,0,47.3,12.48T6150,232.7l-33,13.69a41.54,41.54,0,0,0-18.31-19.52,57.48,57.48,0,0,0-28.37-7.05,47.6,47.6,0,0,0-26,7.25q-11.46,7.25-11.47,17.71,0,16.91,31.8,24.15l29.79,7.65Q6153.25,291.06,6153.25,335.74Z"/><path class="cls-7" d="M6261.52,393.7q-24.15,0-40.05-14.89t-16.3-41.46V227.07h-34.61V193.26h34.61V132.88h37v60.38h48.3v33.81h-48.3v98.21q0,19.73,7.65,26.76a24.85,24.85,0,0,0,17.31,7,37.27,37.27,0,0,0,8.65-1,45.17,45.17,0,0,0,7.85-2.61l11.67,33Q6280.84,393.69,6261.52,393.7Z"/><path class="cls-7" d="M6583.51,355.06v35.42H6408v-37l71.24-72.05q35.82-36.61,49.51-54.94T6542.46,188q0-18.12-14.09-31t-36.23-12.88q-18.92,0-32.6,11.27t-17.71,27.37L6408,169.11q8.06-25.37,31-42.87T6493,108.73q37.43,0,62.39,23T6580.29,188q0,39.84-43.87,86.13l-80.5,80.9Z"/><path class="cls-7" d="M6618.93,252.83q0-62.79,31-103.45t79.7-40.65q48.69,0,79.69,41.06,31,40.65,31,103,0,62-31,103.44-31,40.67-79.69,40.65t-79.7-40.65Q6618.92,314.83,6618.93,252.83Zm183.54,0q0-47.49-20.13-78.09-19.73-30.59-52.72-30.59t-52.73,30.59q-20.13,30.6-20.13,78.09t20.13,78.49q19.71,30.18,52.73,30.18t52.72-30.59Q6802.47,299.92,6802.47,252.83Z"/><path class="cls-7" d="M6974.73,115.17V390.48h-37V161.06l-53.53,23.34L6870.08,153,6951,115.17Z"/><path class="cls-7" d="M7211.4,314.41q0,35.43-27,58.77-27.37,23.74-66.41,23.74t-66.41-23.74q-27-23.34-27-58.77a71.14,71.14,0,0,1,11.67-39.65q11.67-17.89,33.41-28.37v-1.61a86.32,86.32,0,0,1-26-25.76,58.45,58.45,0,0,1-9.86-32.2q0-33.4,23.74-55.95Q7081,108.75,7118,108.73t60.37,22.14q23.74,22.55,23.75,55.95,0,16.91-9.86,32.2a86.55,86.55,0,0,1-26,25.76v1.61q21.74,10.47,33.41,28.37A71.14,71.14,0,0,1,7211.4,314.41Zm-148.93-2a45.17,45.17,0,0,0,4.23,19.72,48.61,48.61,0,0,0,11.67,15.5,52.9,52.9,0,0,0,17.51,10.26,69.51,69.51,0,0,0,44.28,0,53,53,0,0,0,17.5-10.26,48.64,48.64,0,0,0,11.68-15.5,45.16,45.16,0,0,0,4.22-19.72q0-20.92-16.1-34.62-16.1-14.08-39.44-14.08t-39.85,14.08Q7062.48,291.88,7062.47,312.4ZM7071.73,186q0,19.32,12.88,31.2T7118,229.08q20.52,0,33.41-11.87t12.88-31.2q0-19.32-12.88-30.59T7118,144.15q-20.54,0-33.41,11.27T7071.73,186Z"/><path class="cls-7" d="M5045.59,730.69h141.28a96.1,96.1,0,0,1,2,11.67,118.71,118.71,0,0,1,.8,13.69,159.46,159.46,0,0,1-8.45,52.32,121.23,121.23,0,0,1-26.56,43.88A133.41,133.41,0,0,1,5108.38,884q-27,11.26-61.58,11.27A155.9,155.9,0,0,1,4987.63,884a147.08,147.08,0,0,1-48.3-31.39,150.52,150.52,0,0,1-32.6-47.7q-12.07-27.56-12.08-60.17t12.08-60.18a150.7,150.7,0,0,1,32.6-47.69,147.26,147.26,0,0,1,48.3-31.4,155.9,155.9,0,0,1,59.17-11.27q35,0,62.58,12.08a140.24,140.24,0,0,1,47.3,33.41l-37.43,36.62a100.32,100.32,0,0,0-31.4-22.74q-17.31-7.85-41.46-7.85a100.46,100.46,0,0,0-37.43,7,93.91,93.91,0,0,0-31,19.92,95,95,0,0,0-21.13,31.19q-7.86,18.33-7.85,40.86t7.85,40.85a93.35,93.35,0,0,0,21.33,31.2,95.92,95.92,0,0,0,31.19,19.92,101.37,101.37,0,0,0,37.84,7q22.94,0,38.84-6.64a91.07,91.07,0,0,0,27.17-17.1,65.22,65.22,0,0,0,13.88-18.32,103.9,103.9,0,0,0,9.06-24.75h-90.56Z"/><path class="cls-7" d="M5234.76,600.68h97.41q34.2,0,61.58,10.47t46.69,29.58A128.6,128.6,0,0,1,5470,686.42q10.27,26.57,10.27,58.36,0,32.21-10.27,58.76A126.57,126.57,0,0,1,5440.44,849q-19.32,18.91-46.69,29.38t-61.58,10.46h-97.41Zm95,236.67q23.74,0,41.86-6.64T5401.8,812a76.7,76.7,0,0,0,18.11-29.18,122.81,122.81,0,0,0,0-76.08,76.7,76.7,0,0,0-18.11-29.18q-12.07-12.07-30.19-18.71t-41.86-6.65H5289.1V837.35Z"/><path class="cls-7" d="M5661,730.69h141.28a96.1,96.1,0,0,1,2,11.67,118.71,118.71,0,0,1,.8,13.69,159.46,159.46,0,0,1-8.45,52.32,121.23,121.23,0,0,1-26.56,43.88A133.41,133.41,0,0,1,5723.8,884q-27,11.26-61.58,11.27A155.9,155.9,0,0,1,5603.05,884a147.08,147.08,0,0,1-48.3-31.39,150.52,150.52,0,0,1-32.6-47.7q-12.07-27.56-12.08-60.17t12.08-60.18a150.7,150.7,0,0,1,32.6-47.69,147.26,147.26,0,0,1,48.3-31.4,155.9,155.9,0,0,1,59.17-11.27q35,0,62.58,12.08a140.24,140.24,0,0,1,47.3,33.41l-37.43,36.62a100.32,100.32,0,0,0-31.4-22.74q-17.31-7.85-41.46-7.85a100.46,100.46,0,0,0-37.43,7,93.91,93.91,0,0,0-31,19.92,95,95,0,0,0-21.13,31.19q-7.86,18.33-7.85,40.86t7.85,40.85a93.35,93.35,0,0,0,21.33,31.2,95.92,95.92,0,0,0,31.19,19.92,101.37,101.37,0,0,0,37.84,7q22.94,0,38.84-6.64a91.07,91.07,0,0,0,27.17-17.1,65.22,65.22,0,0,0,13.88-18.32,103.9,103.9,0,0,0,9.06-24.75H5661Z"/><path class="cls-7" d="M6182.65,842.59a143.45,143.45,0,0,1-50.32,39.24q-29,13.49-64.8,13.48-32.2,0-59.77-11.67a146.12,146.12,0,0,1-79.49-79.49,156.73,156.73,0,0,1,0-118.74,146,146,0,0,1,79.49-79.49q27.57-11.67,59.77-11.68,34.62,0,61,12.08a141.81,141.81,0,0,1,46.89,35l-38.24,37a102.23,102.23,0,0,0-29.58-23.75q-16.71-8.85-39.65-8.86a101.48,101.48,0,0,0-37.83,7,91.63,91.63,0,0,0-30.79,19.92,93.86,93.86,0,0,0-20.73,31.19q-7.65,18.33-7.65,40.86t7.65,40.85a93.7,93.7,0,0,0,20.73,31.2,91.33,91.33,0,0,0,30.79,19.92,101.28,101.28,0,0,0,37.83,7q24.15,0,42.87-9.86A105.4,105.4,0,0,0,6144,806Z"/><path class="cls-7" d="M6215.65,888.87V600.68h52.73V888.87Z"/><path class="cls-7" d="M6404.83,685.21a109.61,109.61,0,0,1,42.06,7.85A97.54,97.54,0,0,1,6501.63,748a117.68,117.68,0,0,1,0,84.52,97.59,97.59,0,0,1-54.74,55,116.74,116.74,0,0,1-84.12,0,97.52,97.52,0,0,1-54.74-55,117.68,117.68,0,0,1,0-84.52,97.46,97.46,0,0,1,54.74-54.94A109.54,109.54,0,0,1,6404.83,685.21Zm0,161.4a51.65,51.65,0,0,0,19.52-3.82,49.84,49.84,0,0,0,16.7-11.07A52.32,52.32,0,0,0,6452.52,814a68.79,68.79,0,0,0,0-47.5,52.42,52.42,0,0,0-11.47-17.71,49.81,49.81,0,0,0-16.7-11.06,51.66,51.66,0,0,0-19.52-3.83,51.11,51.11,0,0,0-19.72,3.83,50.25,50.25,0,0,0-16.51,11.06,52.57,52.57,0,0,0-11.47,17.71,68.94,68.94,0,0,0,0,47.5,52.47,52.47,0,0,0,11.47,17.71,50.28,50.28,0,0,0,16.51,11.07A51.1,51.1,0,0,0,6404.83,846.61Z"/><path class="cls-7" d="M6677.72,863.11h-3.22a66.84,66.84,0,0,1-24.95,23.55q-15.71,8.65-35.83,8.65-37.43,0-55.74-22.94t-18.32-61.18V691.65h52.73v113.1q0,21.35,9.46,31.6t27.57,10.26a38.36,38.36,0,0,0,19.12-4.63,44.49,44.49,0,0,0,14.09-12.48,56.58,56.58,0,0,0,8.85-18.51,82.86,82.86,0,0,0,3-22.74v-96.6h52.73V888.87h-49.51Z"/><path class="cls-7" d="M6917.21,865.13H6914q-7.24,12.48-22.54,21.33t-37.84,8.85a85.39,85.39,0,0,1-36-7.84,96.34,96.34,0,0,1-30.19-21.74,103.31,103.31,0,0,1-20.73-33.21,120.7,120.7,0,0,1,0-84.52,103.31,103.31,0,0,1,20.73-33.21,96.31,96.31,0,0,1,30.19-21.73,85.25,85.25,0,0,1,36-7.85q22.55,0,37.84,8.85T6914,715.4h3.22L6914,687.22V600.68h52.73V888.87h-49.51Zm-52.73-18.52a52.67,52.67,0,0,0,19.93-3.82,49.84,49.84,0,0,0,16.7-11.07A55,55,0,0,0,6912.78,814a65.88,65.88,0,0,0,0-47.5,55.06,55.06,0,0,0-11.67-17.71,49.81,49.81,0,0,0-16.7-11.06,52.68,52.68,0,0,0-19.93-3.83,50.37,50.37,0,0,0-19.92,4,52.22,52.22,0,0,0-16.7,11.27,54.81,54.81,0,0,0-11.68,17.71,63.86,63.86,0,0,0,0,46.69,54.81,54.81,0,0,0,11.68,17.71,52.22,52.22,0,0,0,16.7,11.27A50.36,50.36,0,0,0,6864.48,846.61Z"/><path class="cls-7" d="M7234.38,895.31q-64,0-107.07-43.06-42.68-43.07-42.66-107.47t42.66-107.07q42.66-43.47,107.07-43.47,65.21,0,105.85,47.1l-26.56,25.76q-31-37.44-79.29-37.44-47.91,0-80.1,32.2-31.8,31.8-31.8,82.92t31.8,82.91q32.19,32.22,80.1,32.2,50.29,0,87.34-42.26l27,26.16a139.73,139.73,0,0,1-50.31,38A153.34,153.34,0,0,1,7234.38,895.31Z"/><path class="cls-7" d="M7452.53,685.21q41.05,0,64.8,21.94t23.75,60.17V888.87h-35.42V861.5h-1.61q-22.94,33.81-61.18,33.81-32.59,0-54.54-19.32t-21.93-48.3q0-30.59,23.14-48.7t61.78-18.11q33,0,54.34,12.07V764.5q0-19.32-15.29-32.8a52.49,52.49,0,0,0-35.83-13.49q-31,0-49.1,26.17l-32.6-20.53Q7399.8,685.21,7452.53,685.21Zm-47.9,143.29q0,14.49,12.28,24.15a45.15,45.15,0,0,0,28.78,9.66q23.34,0,41.66-17.31t18.31-40.65q-17.31-13.68-48.3-13.69-22.54,0-37.63,10.87T7404.63,828.5Z"/><path class="cls-7" d="M7620,600.68V888.87h-37V600.68Z"/><path class="cls-7" d="M7750.38,982.25a110.1,110.1,0,0,1-31-4.22A100.31,100.31,0,0,1,7693,966.15,85.1,85.1,0,0,1,7672.7,948a76.31,76.31,0,0,1-12.88-23.34l35-14.49A55.44,55.44,0,0,0,7715.77,938q14.88,10.46,34.61,10.46,30.2,0,47.09-18.11t16.91-49.91V861.5h-1.61a72.87,72.87,0,0,1-28.38,24.76,84.82,84.82,0,0,1-38.84,9q-38.64,0-66.41-30.18-27.37-31-27.37-74.87t27.37-74.46q27.76-30.59,66.41-30.59a84.83,84.83,0,0,1,38.84,9.06A72.77,72.77,0,0,1,7812.77,719h1.61V691.65h35.42V880.42q0,47.49-27,74.46Q7795.46,982.26,7750.38,982.25Zm1.21-120.75q27.36,0,44.68-19.72,18.1-19.71,18.11-51.52,0-31-18.11-51.12Q7778.56,719,7751.59,719q-26.57,0-44.68,20.12t-18.11,51.12q0,31.4,18.11,51.12Q7725,861.51,7751.59,861.5Z"/><path class="cls-7" d="M7967.73,685.21q41.06,0,64.8,21.94t23.75,60.17V888.87h-35.42V861.5h-1.61q-23,33.81-61.18,33.81-32.61,0-54.54-19.32t-21.94-48.3q0-30.59,23.15-48.7t61.78-18.11q33,0,54.34,12.07V764.5q0-19.32-15.3-32.8a52.45,52.45,0,0,0-35.82-13.49q-31,0-49.1,26.17L7888,723.85Q7915,685.21,7967.73,685.21Zm-47.9,143.29q0,14.49,12.28,24.15a45.15,45.15,0,0,0,28.78,9.66q23.34,0,41.66-17.31t18.31-40.65q-17.31-13.68-48.3-13.69-22.55,0-37.63,10.87T7919.83,828.5Z"/><path class="cls-7" d="M8135.17,888.87h-37V691.65h35.42v32.2h1.61q5.63-15.71,23.14-26.77T8192.72,686q16.1,0,27.38,4.83l-11.28,35.83q-6.84-2.82-21.73-2.82-20.94,0-36.43,16.9a56.54,56.54,0,0,0-15.49,39.45Z"/><path class="cls-7" d="M8424.56,691.65,8301,975.81h-38.24l45.89-99.41-81.31-184.75h40.25l58.77,141.68h.8l57.16-141.68Z"/></svg>