<svg id="Layer_1" data-name="Layer 1" xmlns="http://www.w3.org/2000/svg" viewBox="0 0 3000 1000"><defs><style>.cls-1{fill:#fbbc04;}.cls-2{fill:#34a853;}.cls-3,.cls-4{fill:#4868ed;}.cls-4{opacity:0.1;}.cls-5{fill:#ea4335;}.cls-6{fill:#4285f4;}.cls-7{fill:gray;}</style></defs><title>01 Logo</title><polygon class="cls-1" points="545.96 712.25 469.38 844.81 349.31 844.81 485.9 608.26 545.96 712.25"/><polygon class="cls-2" points="485.9 608.26 349.31 844.81 229.3 844.81 395.63 556.74 425.89 504.34 485.9 608.26"/><path class="cls-3" d="M649.85,532.27l-43.88,76-60-104L485.9,400.36,349.31,163.76H469.38L546,296.38l60,104,43.88,76A55.87,55.87,0,0,1,649.85,532.27Z"/><polygon class="cls-3" points="605.97 608.26 545.96 712.25 485.9 608.26 425.89 504.34 229.24 163.76 349.31 163.76 485.9 400.36 545.96 504.28 605.97 608.26"/><polygon class="cls-4" points="545.96 712.25 471.26 633.63 396.61 555.01 425.89 504.34 485.9 608.26 545.96 712.25"/><path class="cls-5" d="M649.85,532.27l-43.88,76-60-104L485.9,400.36,349.31,163.76H469.38L546,296.38l60,104,43.88,76A55.87,55.87,0,0,1,649.85,532.27Z"/><polygon class="cls-6" points="605.97 608.26 545.96 712.25 485.9 608.26 425.89 504.34 229.24 163.76 349.31 163.76 485.9 400.36 545.96 504.28 605.97 608.26"/><path class="cls-7" d="M912.65,290h136.64a93.4,93.4,0,0,1,2,11.29,115.38,115.38,0,0,1,.77,13.24,154.4,154.4,0,0,1-8.17,50.61,117.16,117.16,0,0,1-25.69,42.43,129.05,129.05,0,0,1-44.77,30.76q-26.08,10.89-59.57,10.9a150.84,150.84,0,0,1-57.22-10.9,142.51,142.51,0,0,1-46.72-30.37,145.6,145.6,0,0,1-31.53-46.13q-11.69-26.66-11.68-58.2t11.68-58.2a145.83,145.83,0,0,1,31.53-46.13,142.51,142.51,0,0,1,46.72-30.37A150.84,150.84,0,0,1,913.81,158q33.87,0,60.54,11.68A135.79,135.79,0,0,1,1020.09,202l-36.2,35.43a96.88,96.88,0,0,0-30.37-22q-16.74-7.59-40.1-7.59a97.1,97.1,0,0,0-36.2,6.82,90.72,90.72,0,0,0-30,19.27,91.93,91.93,0,0,0-20.43,30.17q-7.59,17.71-7.59,39.51t7.59,39.51a90.11,90.11,0,0,0,20.63,30.17,92.83,92.83,0,0,0,30.17,19.28,98.1,98.1,0,0,0,36.59,6.81q22.2,0,37.57-6.43a88,88,0,0,0,26.28-16.54,63.16,63.16,0,0,0,13.43-17.71,100.76,100.76,0,0,0,8.76-23.95H912.65Z"/><path class="cls-7" d="M1095.61,164.22h94.21q33.09,0,59.57,10.12T1294.55,203a124.47,124.47,0,0,1,28.61,44.18q9.93,25.69,9.93,56.45,0,31.16-9.93,56.84a122.57,122.57,0,0,1-28.61,44q-18.69,18.3-45.16,28.42T1189.82,443h-94.21Zm91.88,228.91q23,0,40.49-6.42t29.19-18.11a74.08,74.08,0,0,0,17.52-28.22,118.8,118.8,0,0,0,0-73.58,74.08,74.08,0,0,0-17.52-28.22q-11.67-11.69-29.19-18.1t-40.49-6.43h-39.32V393.13Z"/><path class="cls-7" d="M1507.88,290h136.64a93.4,93.4,0,0,1,2,11.29,113.18,113.18,0,0,1,.78,13.24,154.4,154.4,0,0,1-8.18,50.61,117.16,117.16,0,0,1-25.69,42.43,129.05,129.05,0,0,1-44.77,30.76q-26.08,10.89-59.56,10.9a150.86,150.86,0,0,1-57.23-10.9,142.51,142.51,0,0,1-46.72-30.37,145.77,145.77,0,0,1-31.53-46.13q-11.68-26.66-11.68-58.2t11.68-58.2a146,146,0,0,1,31.53-46.13,142.51,142.51,0,0,1,46.72-30.37,150.86,150.86,0,0,1,57.23-10.9q33.87,0,60.53,11.68A135.69,135.69,0,0,1,1615.32,202l-36.2,35.43a96.88,96.88,0,0,0-30.37-22q-16.74-7.59-40.09-7.59a97.12,97.12,0,0,0-36.21,6.82,90.58,90.58,0,0,0-30,19.27A91.8,91.8,0,0,0,1422,264.08q-7.59,17.71-7.59,39.51T1422,343.1a90.11,90.11,0,0,0,20.63,30.17,92.83,92.83,0,0,0,30.17,19.28,98.16,98.16,0,0,0,36.6,6.81q22.18,0,37.56-6.43a88,88,0,0,0,26.28-16.54,63,63,0,0,0,13.43-17.71,100.76,100.76,0,0,0,8.76-23.95h-87.59Z"/><path class="cls-7" d="M2012.4,398.19a138.6,138.6,0,0,1-48.66,38q-28,13-62.67,13a146.81,146.81,0,0,1-57.81-11.29A141.34,141.34,0,0,1,1766.37,361a151.66,151.66,0,0,1,0-114.84,141.34,141.34,0,0,1,76.89-76.89A146.81,146.81,0,0,1,1901.07,158q33.47,0,59,11.68a137.37,137.37,0,0,1,45.36,33.87l-37,35.82a98.83,98.83,0,0,0-28.61-23q-16.15-8.56-38.34-8.57a98.12,98.12,0,0,0-36.6,6.82,88.45,88.45,0,0,0-29.78,19.27,90.87,90.87,0,0,0-20,30.17q-7.4,17.71-7.4,39.51t7.4,39.51a90.66,90.66,0,0,0,20,30.17,88.48,88.48,0,0,0,29.78,19.28,98.12,98.12,0,0,0,36.6,6.81q23.36,0,41.45-9.54A101.93,101.93,0,0,0,1975,362.76Z"/><path class="cls-7" d="M2044.33,443V164.22h51V443Z"/><path class="cls-7" d="M2227.3,246a106.16,106.16,0,0,1,40.68,7.6,94.39,94.39,0,0,1,52.95,53.13,113.89,113.89,0,0,1,0,81.76A94.45,94.45,0,0,1,2268,441.6a112.81,112.81,0,0,1-81.36,0,94.37,94.37,0,0,1-52.95-53.14,113.89,113.89,0,0,1,0-81.76,94.31,94.31,0,0,1,52.95-53.13A106.12,106.12,0,0,1,2227.3,246Zm0,156.11a49.88,49.88,0,0,0,18.88-3.7,48.26,48.26,0,0,0,16.16-10.7,50.65,50.65,0,0,0,11.09-17.13,66.55,66.55,0,0,0,0-45.94,50.85,50.85,0,0,0-11.09-17.13,48.41,48.41,0,0,0-16.16-10.7,50.53,50.53,0,0,0-38,0,48.72,48.72,0,0,0-16,10.7,50.85,50.85,0,0,0-11.09,17.13,66.55,66.55,0,0,0,0,45.94,50.65,50.65,0,0,0,11.09,17.13,48.56,48.56,0,0,0,16,10.7A49.41,49.41,0,0,0,2227.3,402.08Z"/><path class="cls-7" d="M2491.24,418h-3.11A64.7,64.7,0,0,1,2464,440.82q-15.18,8.37-34.65,8.37-36.2,0-53.91-22.19t-17.72-59.18V252.2h51V361.6q0,20.64,9.15,30.56t26.67,9.92a37.22,37.22,0,0,0,18.49-4.47,43.19,43.19,0,0,0,13.62-12.07,54.73,54.73,0,0,0,8.57-17.91,80.66,80.66,0,0,0,2.92-22V252.2h51V443h-47.89Z"/><path class="cls-7" d="M2722.87,420h-3.11q-7,12.08-21.8,20.63t-36.59,8.57a82.6,82.6,0,0,1-34.85-7.59,93,93,0,0,1-29.19-21,99.57,99.57,0,0,1-20-32.11,116.62,116.62,0,0,1,0-81.76,99.57,99.57,0,0,1,20-32.11,93,93,0,0,1,29.19-21,82.61,82.61,0,0,1,34.85-7.6q21.8,0,36.59,8.57t21.8,20.63h3.11l-3.11-27.25v-83.7h51V443h-47.89Zm-51-17.91a50.88,50.88,0,0,0,19.27-3.7,48.12,48.12,0,0,0,16.15-10.7,53.29,53.29,0,0,0,11.29-17.13,63.78,63.78,0,0,0,0-45.94,53.5,53.5,0,0,0-11.29-17.13,48.27,48.27,0,0,0-16.15-10.7,50.88,50.88,0,0,0-19.27-3.7,48.72,48.72,0,0,0-19.27,3.89,50.82,50.82,0,0,0-16.16,10.9A53.23,53.23,0,0,0,2625.16,325a61.7,61.7,0,0,0,0,45.16,53.12,53.12,0,0,0,11.29,17.13,50.65,50.65,0,0,0,16.16,10.9A48.55,48.55,0,0,0,2671.88,402.08Z"/><path class="cls-7" d="M913.27,843.59q-61.89,0-103.55-41.66Q768.46,760.29,768.45,698t41.27-103.55q41.26-42,103.55-42,63.08,0,102.39,45.54L990,622.86q-30-36.21-76.69-36.21-46.34,0-77.47,31.15Q805.05,648.55,805.05,698t30.75,80.2q31.14,31.14,77.47,31.14,48.66,0,84.48-40.87l26.08,25.3a135.18,135.18,0,0,1-48.66,36.79A148.41,148.41,0,0,1,913.27,843.59Z"/><path class="cls-7" d="M1124.27,640.38q39.7,0,62.68,21.21t23,58.2V837.36h-34.26V810.89h-1.56q-22.18,32.7-59.17,32.7-31.53,0-52.75-18.69T1041,778.19q0-29.58,22.39-47.11t59.75-17.52q31.92,0,52.56,11.68v-8.17q0-18.69-14.79-31.73a50.79,50.79,0,0,0-34.65-13q-30,0-47.5,25.3l-31.53-19.85Q1073.27,640.37,1124.27,640.38ZM1078,779q0,14,11.87,23.35a43.67,43.67,0,0,0,27.83,9.35q22.57,0,40.3-16.74t17.71-39.32q-16.74-13.23-46.72-13.24-21.8,0-36.4,10.51T1078,779Z"/><path class="cls-7" d="M1286.22,558.62V837.36H1250.4V558.62Z"/><path class="cls-7" d="M1412.35,927.68a106.35,106.35,0,0,1-30-4.09,96.89,96.89,0,0,1-25.5-11.48,82.65,82.65,0,0,1-19.66-17.52A73.85,73.85,0,0,1,1324.76,872l33.87-14a53.68,53.68,0,0,0,20.24,26.87q14.4,10.11,33.48,10.12,29.2,0,45.55-17.52t16.35-48.27v-18.3h-1.56a70.52,70.52,0,0,1-27.44,23.94,82.09,82.09,0,0,1-37.57,8.76q-37.37,0-64.23-29.2Q1317,784.42,1317,742t26.48-72q26.85-29.58,64.23-29.58a82.09,82.09,0,0,1,37.57,8.76,70.52,70.52,0,0,1,27.44,23.94h1.56V646.61h34.26V829.19q0,45.93-26.08,72Q1455.94,927.67,1412.35,927.68Zm1.17-116.79q26.48,0,43.21-19.08,17.52-19.06,17.52-49.83,0-30-17.52-49.44-17.13-19.45-43.21-19.46-25.69,0-43.21,19.46T1352.79,742q0,30.38,17.52,49.44Q1387.83,810.91,1413.52,810.89Z"/><path class="cls-7" d="M1622.57,640.38q39.71,0,62.68,21.21t23,58.2V837.36H1674V810.89h-1.56q-22.19,32.7-59.17,32.7-31.53,0-52.75-18.69t-21.22-46.71q0-29.58,22.39-47.11t59.75-17.52q31.92,0,52.56,11.68v-8.17q0-18.69-14.79-31.73a50.79,50.79,0,0,0-34.65-13q-30,0-47.5,25.3l-31.53-19.85Q1571.58,640.37,1622.57,640.38ZM1576.25,779q0,14,11.87,23.35a43.67,43.67,0,0,0,27.83,9.35q22.58,0,40.3-16.74T1674,755.61q-16.74-13.23-46.72-13.24-21.79,0-36.4,10.51T1576.25,779Z"/><path class="cls-7" d="M1784.52,837.36H1748.7V646.61H1783v31.14h1.56q5.45-15.18,22.38-25.89t33.29-10.7q15.55,0,26.47,4.67l-10.9,34.64q-6.63-2.72-21-2.72-20.25,0-35.23,16.35a54.65,54.65,0,0,0-15,38.15Z"/><path class="cls-7" d="M2064.42,646.61,1944.9,921.45h-37l44.38-96.16-78.64-178.68h38.93l56.84,137h.78l55.28-137Z"/></svg>