<svg id="Layer_1" data-name="Layer 1" xmlns="http://www.w3.org/2000/svg" viewBox="0 0 5000 1300"><defs><style>.cls-1{fill:#4285f4;}.cls-2{fill:#4b4b4b;}</style></defs><title>02 GDG Logo Hz Black</title><rect class="cls-1" x="820.18" y="958.81" width="3.67" height="10"/><path class="cls-2" d="M1035.1,629.29h157.52a107.11,107.11,0,0,1,2.24,13,132.36,132.36,0,0,1,.9,15.26,177.72,177.72,0,0,1-9.43,58.33,135,135,0,0,1-29.62,48.92,148.52,148.52,0,0,1-51.6,35.45q-30.08,12.56-68.66,12.56a173.86,173.86,0,0,1-66-12.56,164.14,164.14,0,0,1-53.85-35,168.07,168.07,0,0,1-36.35-53.18Q866.83,681.36,866.82,645t13.46-67.09a168.19,168.19,0,0,1,36.35-53.18,164.46,164.46,0,0,1,53.85-35,173.86,173.86,0,0,1,66-12.56q39,0,69.78,13.46A156.31,156.31,0,0,1,1159,527.87l-41.74,40.84a111.44,111.44,0,0,0-35-25.35q-19.31-8.76-46.22-8.75a112,112,0,0,0-41.73,7.85,104.68,104.68,0,0,0-34.56,22.21,106.12,106.12,0,0,0-23.56,34.78q-8.74,20.43-8.75,45.55t8.75,45.55a104.07,104.07,0,0,0,23.79,34.78,106.94,106.94,0,0,0,34.77,22.21,113,113,0,0,0,42.19,7.85q25.57,0,43.3-7.4a101.52,101.52,0,0,0,30.29-19.07A72.88,72.88,0,0,0,1126,708.5a116.07,116.07,0,0,0,10.1-27.6h-101Z"/><path class="cls-2" d="M1246,484.35h108.59q38.15,0,68.66,11.66t52.06,33a143.39,143.39,0,0,1,33,50.93q11.45,29.63,11.45,65.07,0,35.91-11.45,65.52a141.19,141.19,0,0,1-33,50.71q-21.54,21.09-52.06,32.76t-68.66,11.66H1246Zm105.9,263.86q26.47,0,46.67-7.4t33.66-20.87a85.42,85.42,0,0,0,20.19-32.53q6.74-19.08,6.73-42.41t-6.73-42.41a85.49,85.49,0,0,0-20.19-32.53q-13.47-13.47-33.66-20.87t-46.67-7.4H1306.6V748.21Z"/><path class="cls-2" d="M1721.24,629.29h157.52a107.11,107.11,0,0,1,2.24,13,130.16,130.16,0,0,1,.9,15.26,177.72,177.72,0,0,1-9.43,58.33,135.15,135.15,0,0,1-29.61,48.92,148.56,148.56,0,0,1-51.61,35.45q-30.07,12.56-68.66,12.56a173.93,173.93,0,0,1-66-12.56,164.14,164.14,0,0,1-53.85-35,168.24,168.24,0,0,1-36.35-53.18Q1553,681.36,1553,645t13.46-67.09a168.35,168.35,0,0,1,36.35-53.18,164.46,164.46,0,0,1,53.85-35,173.93,173.93,0,0,1,66-12.56q39,0,69.78,13.46a156.31,156.31,0,0,1,52.73,37.24l-41.73,40.84a111.59,111.59,0,0,0-35-25.35q-19.29-8.76-46.22-8.75a112,112,0,0,0-41.73,7.85,104.78,104.78,0,0,0-34.56,22.21,106.12,106.12,0,0,0-23.56,34.78q-8.74,20.43-8.75,45.55t8.75,45.55a104.07,104.07,0,0,0,23.79,34.78,106.87,106.87,0,0,0,34.78,22.21,113,113,0,0,0,42.18,7.85q25.57,0,43.3-7.4a101.57,101.57,0,0,0,30.3-19.07,72.88,72.88,0,0,0,15.48-20.42,116.06,116.06,0,0,0,10.09-27.6h-101Z"/><path class="cls-2" d="M2302.83,754.05a159.77,159.77,0,0,1-56.1,43.75q-32.31,15-72.25,15-35.89,0-66.64-13a163,163,0,0,1-88.63-88.63q-13-30.74-13-66.19a167.94,167.94,0,0,1,13-66.19,163,163,0,0,1,88.63-88.63q30.73-13,66.64-13,38.59,0,68,13.46a158.21,158.21,0,0,1,52.28,39L2252.12,571a114,114,0,0,0-33-26.48q-18.62-9.87-44.2-9.87a113.16,113.16,0,0,0-42.18,7.85,102.17,102.17,0,0,0-34.33,22.21,104.74,104.74,0,0,0-23.11,34.78q-8.54,20.43-8.53,45.55t8.53,45.55a104.53,104.53,0,0,0,23.11,34.78,101.87,101.87,0,0,0,34.33,22.21,113,113,0,0,0,42.18,7.85q26.93,0,47.79-11t37-31.19Z"/><path class="cls-2" d="M2339.63,805.65V484.35h58.78v321.3Z"/><path class="cls-2" d="M2550.54,578.58q25.59,0,46.9,8.75a108.77,108.77,0,0,1,61,61.26,131.25,131.25,0,0,1,0,94.24,108.71,108.71,0,0,1-61,61.25q-21.32,8.76-46.9,8.75t-46.89-8.75a108.71,108.71,0,0,1-61-61.25q-8.76-21.54-8.75-47.12t8.75-47.12a108.77,108.77,0,0,1,61-61.26Q2525,578.59,2550.54,578.58Zm0,179.95a57.46,57.46,0,0,0,21.77-4.26,55.43,55.43,0,0,0,18.62-12.34,58.31,58.31,0,0,0,12.79-19.74,76.79,76.79,0,0,0,0-53,58.41,58.41,0,0,0-12.79-19.74,55.43,55.43,0,0,0-18.62-12.34,57.67,57.67,0,0,0-21.77-4.27,57.07,57.07,0,0,0-22,4.27,55.91,55.91,0,0,0-18.39,12.34,58.41,58.41,0,0,0-12.79,19.74,76.64,76.64,0,0,0,0,53,58.31,58.31,0,0,0,12.79,19.74,55.91,55.91,0,0,0,18.39,12.34A56.87,56.87,0,0,0,2550.54,758.53Z"/><path class="cls-2" d="M2854.8,776.93h-3.59a74.54,74.54,0,0,1-27.82,26.26q-17.51,9.64-39.94,9.64-41.74,0-62.16-25.57T2700.88,719V585.76h58.78v126.1q0,23.8,10.55,35.23T2801,758.53a42.7,42.7,0,0,0,21.31-5.16A49.63,49.63,0,0,0,2838,739.46a63,63,0,0,0,9.87-20.64,92.43,92.43,0,0,0,3.37-25.35V585.76H2910V805.65h-55.2Z"/><path class="cls-2" d="M3121.81,779.18h-3.59q-8.08,13.91-25.13,23.78t-42.18,9.87a95.09,95.09,0,0,1-40.17-8.75,107.1,107.1,0,0,1-33.65-24.23,114.89,114.89,0,0,1-23.12-37,134.56,134.56,0,0,1,0-94.24,114.89,114.89,0,0,1,23.12-37,107.29,107.29,0,0,1,33.65-24.24,95.24,95.24,0,0,1,40.17-8.75q25.13,0,42.18,9.88t25.13,23.78h3.59l-3.59-31.41V484.35H3177v321.3h-55.19ZM3063,758.53a58.53,58.53,0,0,0,22.21-4.26,55.47,55.47,0,0,0,18.63-12.34,61.3,61.3,0,0,0,13-19.74,73.44,73.44,0,0,0,0-53,61.41,61.41,0,0,0-13-19.74,55.47,55.47,0,0,0-18.63-12.34,58.73,58.73,0,0,0-22.21-4.27,56.12,56.12,0,0,0-22.21,4.49,58.63,58.63,0,0,0-18.63,12.57,61.41,61.41,0,0,0-13,19.74,71,71,0,0,0,0,52.06,61.3,61.3,0,0,0,13,19.74,58.47,58.47,0,0,0,18.63,12.57A56.11,56.11,0,0,0,3063,758.53Z"/><path class="cls-2" d="M3494.77,812.83q-71.36,0-119.37-48-47.57-48-47.56-119.82t47.56-119.37q47.57-48.47,119.37-48.46,72.7,0,118,52.5l-29.61,28.72q-34.56-41.73-88.41-41.73-53.4,0-89.3,35.9Q3370,588,3370,645t35.45,92.44q35.9,35.91,89.3,35.9,56.1,0,97.38-47.12l30.07,29.17a155.76,155.76,0,0,1-56.1,42.41A171,171,0,0,1,3494.77,812.83Z"/><path class="cls-2" d="M3738,578.58q45.77,0,72.25,24.46t26.47,67.09V805.65h-39.49V775.14h-1.79q-25.59,37.7-68.21,37.69-36.36,0-60.81-21.54T3642,737.44q0-34.1,25.81-54.3T3736.65,663q36.79,0,60.58,13.46V667q0-21.54-17.05-36.57a58.46,58.46,0,0,0-39.94-15q-34.56,0-54.75,29.17l-36.35-22.89Q3679.2,578.58,3738,578.58Zm-53.4,159.76q0,16.15,13.68,26.93T3730.37,776q26,0,46.44-19.3t20.42-45.32q-19.29-15.25-53.85-15.26-25.14,0-42,12.11T3684.6,738.34Z"/><path class="cls-2" d="M3924.68,484.35v321.3h-41.29V484.35Z"/><path class="cls-2" d="M4070.08,909.77a122.57,122.57,0,0,1-34.56-4.72,111.68,111.68,0,0,1-29.39-13.24,94.66,94.66,0,0,1-22.66-20.19,84.82,84.82,0,0,1-14.36-26l39-16.15a61.82,61.82,0,0,0,23.33,31q16.61,11.67,38.6,11.67,33.65,0,52.5-20.19t18.85-55.65V775.14h-1.8a81.26,81.26,0,0,1-31.63,27.6,94.68,94.68,0,0,1-43.31,10.09q-43.08,0-74-33.65-30.53-34.56-30.52-83.47t30.52-83q31-34.1,74-34.11a94.68,94.68,0,0,1,43.31,10.1,81.26,81.26,0,0,1,31.63,27.6h1.8V585.76h39.49V796.23q0,52.95-30.07,83Q4120.33,909.76,4070.08,909.77Zm1.34-134.63q30.51,0,49.81-22,20.2-22,20.2-57.44,0-34.55-20.2-57-19.74-22.44-49.81-22.44-29.61,0-49.81,22.44t-20.19,57q0,35,20.19,57Q4041.8,775.14,4071.42,775.14Z"/><path class="cls-2" d="M4312.4,578.58q45.78,0,72.25,24.46t26.48,67.09V805.65h-39.49V775.14h-1.8q-25.58,37.7-68.21,37.69-36.35,0-60.8-21.54t-24.46-53.85q0-34.1,25.8-54.3T4311.06,663q36.78,0,60.58,13.46V667q0-21.54-17.05-36.57a58.47,58.47,0,0,0-39.94-15q-34.56,0-54.75,29.17l-36.35-22.89Q4253.61,578.58,4312.4,578.58ZM4259,738.34q0,16.15,13.69,26.93T4304.77,776q26,0,46.45-19.3t20.42-45.32q-19.3-15.25-53.85-15.26-25.14,0-42,12.11T4259,738.34Z"/><path class="cls-2" d="M4499.08,805.65H4457.8V585.76h39.49v35.9h1.79q6.29-17.49,25.81-29.84t38.37-12.34q17.94,0,30.51,5.39l-12.56,39.94q-7.65-3.13-24.24-3.15-23.34,0-40.61,18.85t-17.28,44Z"/><path class="cls-2" d="M4821.73,585.76,4684,902.59h-42.63l51.16-110.85-90.65-206h44.88l65.52,158h.89l63.73-158Z"/><polygon class="cls-2" points="516.11 797.82 323.01 1132.26 178.33 1132.26 415.18 722.09 443.79 672.56 516.11 797.82"/><polygon class="cls-2" points="604.39 950.65 499.48 1132.26 354.73 1132.26 531.99 825.31 604.39 950.65"/><path class="cls-2" d="M770.09,645.07a68.79,68.79,0,0,1-9.2,34.45l-52.43,90.81L636.13,645,547.85,492.24l-193.1-334.5H499.47L608.21,346l152.7,264.6A68.86,68.86,0,0,1,770.09,645.07Z"/><polygon class="cls-2" points="692.59 797.82 620.25 923.17 547.85 797.82 459.65 645.08 178.27 157.74 323.01 157.74 519.94 498.87 608.21 651.61 692.59 797.82"/></svg>