<svg id="Layer_1" data-name="Layer 1" xmlns="http://www.w3.org/2000/svg" viewBox="0 0 5000 1300"><defs><style>.cls-1{fill:gray;}.cls-2{fill:#fbbc04;}.cls-3{fill:#34a853;}.cls-4,.cls-5{fill:#4868ed;}.cls-5{opacity:0.1;}.cls-6{fill:#ea4335;}.cls-7{fill:#4285f4;}.cls-8{font-size:12px;font-family:ProductSans-Regular, Product Sans;}.cls-9{letter-spacing:-0.01em;}.cls-10{letter-spacing:-0.03em;}.cls-11{letter-spacing:0em;}.cls-12{letter-spacing:-0.01em;}</style></defs><title>02 GDG Logo Hz</title><path class="cls-1" d="M1083.19,634.29H1240.7a105.19,105.19,0,0,1,2.24,13,130.16,130.16,0,0,1,.9,15.26,178,178,0,0,1-9.42,58.33,135.32,135.32,0,0,1-29.62,48.92,148.56,148.56,0,0,1-51.61,35.45q-30.06,12.56-68.66,12.56a173.85,173.85,0,0,1-66-12.56,163.93,163.93,0,0,1-53.85-35,167.91,167.91,0,0,1-36.35-53.18Q914.9,686.36,914.9,650t13.47-67.09a168,168,0,0,1,36.35-53.18,164.25,164.25,0,0,1,53.85-35,173.85,173.85,0,0,1,66-12.56q39,0,69.78,13.46A156.31,156.31,0,0,1,1207,532.87l-41.73,40.84a111.55,111.55,0,0,0-35-25.35q-19.3-8.76-46.23-8.75a112,112,0,0,0-41.73,7.85,104.63,104.63,0,0,0-34.55,22.21,105.81,105.81,0,0,0-23.56,34.78q-8.76,20.43-8.75,45.55t8.75,45.55A103.9,103.9,0,0,0,1008,730.33a106.87,106.87,0,0,0,34.78,22.21,113,113,0,0,0,42.18,7.85q25.57,0,43.31-7.4a101.65,101.65,0,0,0,30.29-19.07,72.88,72.88,0,0,0,15.48-20.42,116.5,116.5,0,0,0,10.1-27.6h-101Z"/><path class="cls-1" d="M1294.1,489.35h108.6q38.13,0,68.66,11.66t52.05,33a143.42,143.42,0,0,1,33,50.93q11.44,29.63,11.44,65.07,0,35.91-11.44,65.52a141.22,141.22,0,0,1-33,50.71q-21.54,21.09-52.05,32.76t-68.66,11.66H1294.1ZM1400,753.21q26.48,0,46.67-7.4t33.65-20.87a85.44,85.44,0,0,0,20.2-32.53q6.72-19.08,6.73-42.41t-6.73-42.41a85.51,85.51,0,0,0-20.2-32.53q-13.45-13.47-33.65-20.87t-46.67-7.4h-45.33V753.21Z"/><path class="cls-1" d="M1769.33,634.29h157.51a106.92,106.92,0,0,1,2.25,13,132.35,132.35,0,0,1,.89,15.26,178,178,0,0,1-9.42,58.33,135.18,135.18,0,0,1-29.62,48.92,148.56,148.56,0,0,1-51.61,35.45q-30.06,12.56-68.65,12.56a173.86,173.86,0,0,1-66-12.56,164.14,164.14,0,0,1-53.85-35,167.91,167.91,0,0,1-36.35-53.18Q1601,686.36,1601.05,650t13.46-67.09a168,168,0,0,1,36.35-53.18,164.46,164.46,0,0,1,53.85-35,173.86,173.86,0,0,1,66-12.56q39,0,69.78,13.46a156.41,156.41,0,0,1,52.73,37.24l-41.74,40.84a111.44,111.44,0,0,0-35-25.35q-19.31-8.76-46.22-8.75a112,112,0,0,0-41.74,7.85,104.63,104.63,0,0,0-34.55,22.21,106,106,0,0,0-23.56,34.78q-8.75,20.43-8.75,45.55t8.75,45.55a104,104,0,0,0,23.78,34.78,106.87,106.87,0,0,0,34.78,22.21,113,113,0,0,0,42.18,7.85q25.59,0,43.31-7.4a101.65,101.65,0,0,0,30.29-19.07,72.88,72.88,0,0,0,15.48-20.42,116.5,116.5,0,0,0,10.1-27.6h-101Z"/><path class="cls-1" d="M2350.91,759.05a159.73,159.73,0,0,1-56.09,43.75q-32.31,15-72.25,15-35.91,0-66.64-13a162.91,162.91,0,0,1-88.63-88.63,174.76,174.76,0,0,1,0-132.38,162.91,162.91,0,0,1,88.63-88.63q30.74-13,66.64-13,38.58,0,68,13.46a158.07,158.07,0,0,1,52.27,39L2300.2,576a113.93,113.93,0,0,0-33-26.48q-18.63-9.87-44.2-9.87a113.17,113.17,0,0,0-42.19,7.85,102.27,102.27,0,0,0-34.33,22.21,104.89,104.89,0,0,0-23.11,34.78q-8.52,20.43-8.52,45.55t8.52,45.55a104.69,104.69,0,0,0,23.11,34.78,102,102,0,0,0,34.33,22.21,113,113,0,0,0,42.19,7.85q26.92,0,47.79-11t37-31.19Z"/><path class="cls-1" d="M2387.71,810.65V489.35h58.79v321.3Z"/><path class="cls-1" d="M2598.63,583.58q25.57,0,46.89,8.75a108.77,108.77,0,0,1,61,61.26q8.76,21.54,8.75,47.12t-8.75,47.12a108.71,108.71,0,0,1-61,61.25q-21.32,8.76-46.89,8.75t-46.9-8.75a108.71,108.71,0,0,1-61-61.25,131.25,131.25,0,0,1,0-94.24,108.77,108.77,0,0,1,61-61.26Q2573,583.59,2598.63,583.58Zm0,179.95a57.41,57.41,0,0,0,21.76-4.26A55.47,55.47,0,0,0,2639,746.93a58.44,58.44,0,0,0,12.78-19.74,76.64,76.64,0,0,0,0-53A58.54,58.54,0,0,0,2639,654.49a55.47,55.47,0,0,0-18.63-12.34,58.17,58.17,0,0,0-43.75,0,56,56,0,0,0-18.4,12.34,58.56,58.56,0,0,0-12.79,19.74,76.79,76.79,0,0,0,0,53,58.46,58.46,0,0,0,12.79,19.74,56,56,0,0,0,18.4,12.34A56.87,56.87,0,0,0,2598.63,763.53Z"/><path class="cls-1" d="M2902.88,781.93h-3.59a74.39,74.39,0,0,1-27.82,26.26q-17.5,9.64-39.94,9.64-41.73,0-62.15-25.57T2749,724V590.76h58.79v126.1q0,23.8,10.54,35.23T2849,763.53a42.76,42.76,0,0,0,21.32-5.16,49.59,49.59,0,0,0,15.7-13.91,63,63,0,0,0,9.88-20.64,92.82,92.82,0,0,0,3.36-25.35V590.76h58.79V810.65h-55.2Z"/><path class="cls-1" d="M3169.89,784.18h-3.59q-8.07,13.91-25.13,23.78T3099,817.83a95,95,0,0,1-40.16-8.75,107.25,107.25,0,0,1-33.66-24.23,114.87,114.87,0,0,1-23.11-37,134.41,134.41,0,0,1,0-94.24,114.87,114.87,0,0,1,23.11-37,107.44,107.44,0,0,1,33.66-24.24,95.2,95.2,0,0,1,40.16-8.75q25.13,0,42.18,9.88t25.13,23.78h3.59l-3.59-31.41V489.35h58.79v321.3h-55.2Zm-58.78-20.65a58.57,58.57,0,0,0,22.21-4.26,55.33,55.33,0,0,0,18.62-12.34,61.32,61.32,0,0,0,13-19.74,73.58,73.58,0,0,0,0-53,61.43,61.43,0,0,0-13-19.74,55.33,55.33,0,0,0-18.62-12.34,58.77,58.77,0,0,0-22.21-4.27,56.17,56.17,0,0,0-22.22,4.49,58.48,58.48,0,0,0-18.62,12.57,61.08,61.08,0,0,0-13,19.74,71,71,0,0,0,0,52.06,61,61,0,0,0,13,19.74,58.31,58.31,0,0,0,18.62,12.57A56.16,56.16,0,0,0,3111.11,763.53Z"/><path class="cls-1" d="M3542.86,817.83q-71.36,0-119.37-48-47.58-48-47.57-119.82t47.57-119.37q47.57-48.47,119.37-48.46,72.69,0,118,52.5l-29.62,28.72q-34.56-41.73-88.4-41.73-53.42,0-89.31,35.9Q3418.11,593,3418.1,650t35.45,92.44q35.91,35.91,89.31,35.9,56.08,0,97.38-47.12l30.06,29.17a155.64,155.64,0,0,1-56.09,42.41A171,171,0,0,1,3542.86,817.83Z"/><path class="cls-1" d="M3786.08,583.58q45.78,0,72.25,24.46t26.48,67.09V810.65h-39.49V780.14h-1.8q-25.58,37.7-68.21,37.69-36.34,0-60.8-21.54t-24.46-53.85q0-34.1,25.8-54.3T3784.73,668q36.8,0,60.59,13.46V672q0-21.54-17.05-36.57a58.49,58.49,0,0,0-39.94-15q-34.57,0-54.75,29.17l-36.35-22.89Q3727.29,583.58,3786.08,583.58Zm-53.4,159.76q0,16.15,13.69,26.93T3778.45,781q26,0,46.45-19.3t20.42-45.32q-19.31-15.25-53.85-15.26-25.14,0-42,12.11T3732.68,743.34Z"/><path class="cls-1" d="M3972.76,489.35v321.3h-41.28V489.35Z"/><path class="cls-1" d="M4118.16,914.77a122.5,122.5,0,0,1-34.55-4.72,111.74,111.74,0,0,1-29.4-13.24,94.85,94.85,0,0,1-22.66-20.19,85.24,85.24,0,0,1-14.36-26l39-16.15a61.84,61.84,0,0,0,23.34,31q16.59,11.67,38.59,11.67,33.66,0,52.51-20.19t18.84-55.65V780.14h-1.79a81.22,81.22,0,0,1-31.64,27.6,94.64,94.64,0,0,1-43.3,10.09q-43.08,0-74-33.65-30.53-34.56-30.51-83.47t30.51-83q31-34.1,74-34.11a94.64,94.64,0,0,1,43.3,10.1,81.22,81.22,0,0,1,31.64,27.6h1.79V590.76H4229V801.23q0,52.95-30.06,83Q4168.42,914.76,4118.16,914.77Zm1.35-134.63q30.51,0,49.81-22,20.19-22,20.19-57.44,0-34.55-20.19-57-19.76-22.44-49.81-22.44-29.62,0-49.81,22.44t-20.2,57q0,35,20.2,57Q4089.89,780.14,4119.51,780.14Z"/><path class="cls-1" d="M4360.49,583.58q45.77,0,72.25,24.46t26.47,67.09V810.65h-39.49V780.14h-1.79q-25.58,37.7-68.21,37.69-36.36,0-60.81-21.54t-24.46-53.85q0-34.1,25.81-54.3T4359.14,668q36.79,0,60.58,13.46V672q0-21.54-17.05-36.57a58.46,58.46,0,0,0-39.94-15q-34.56,0-54.75,29.17l-36.35-22.89Q4301.69,583.58,4360.49,583.58Zm-53.4,159.76q0,16.15,13.68,26.93T4352.86,781q26,0,46.45-19.3t20.41-45.32q-19.29-15.25-53.85-15.26-25.14,0-42,12.11T4307.09,743.34Z"/><path class="cls-1" d="M4547.17,810.65h-41.29V590.76h39.49v35.9h1.8q6.27-17.49,25.8-29.84t38.37-12.34q17.94,0,30.51,5.39l-12.56,39.94q-7.64-3.13-24.23-3.15-23.34,0-40.62,18.85t-17.27,44Z"/><path class="cls-1" d="M4869.82,590.76,4732.05,907.59h-42.63l51.16-110.85-90.65-206h44.87l65.52,158h.9l63.72-158Z"/><polygon class="cls-2" points="657.58 947.58 548 1137.26 376.19 1137.26 571.64 798.79 657.58 947.58"/><polygon class="cls-3" points="571.64 798.79 376.19 1137.26 204.46 1137.26 442.47 725.06 485.77 650.08 571.64 798.79"/><path class="cls-4" d="M806.23,690.05,743.44,798.79,657.58,650,571.64,501.29,376.19,162.74H548L657.58,352.5l85.86,148.79,62.8,108.81A80,80,0,0,1,806.23,690.05Z"/><polygon class="cls-4" points="743.45 798.79 657.58 947.58 571.64 798.79 485.77 650.08 204.39 162.74 376.19 162.74 571.64 501.29 657.58 650 743.45 798.79"/><polygon class="cls-5" points="657.58 947.58 550.69 835.08 443.87 722.59 485.77 650.08 571.64 798.79 657.58 947.58"/><path class="cls-6" d="M806.23,690.05,743.44,798.79,657.58,650,571.64,501.29,376.19,162.74H548L657.58,352.5l85.86,148.79,62.8,108.81A80,80,0,0,1,806.23,690.05Z"/><polygon class="cls-7" points="743.45 798.79 657.58 947.58 571.64 798.79 485.77 650.08 204.39 162.74 376.19 162.74 571.64 501.29 657.58 650 743.45 798.79"/><text class="cls-8" transform="translate(1862.96 634.29)">L<tspan class="cls-9" x="5.98" y="0">o</tspan><tspan class="cls-10" x="12.58" y="0">r</tspan><tspan class="cls-11" x="16.57" y="0">em i</tspan><tspan class="cls-12" x="38.51" y="0">p</tspan><tspan x="45.31" y="0">sum</tspan></text></svg>