<svg id="Layer_1" data-name="Layer 1" xmlns="http://www.w3.org/2000/svg" viewBox="0 0 1300 1300"><defs><style>.cls-1{fill:#4b4b4b;}</style></defs><title>04 GDG Logo SQ Black</title><path class="cls-1" d="M600.73,283.83h90.35a62.65,62.65,0,0,1,1.29,7.47,75.51,75.51,0,0,1,.51,8.75,101.88,101.88,0,0,1-5.41,33.46,77.5,77.5,0,0,1-17,28.06,85.4,85.4,0,0,1-29.61,20.34q-17.25,7.2-39.38,7.2a99.74,99.74,0,0,1-37.84-7.2,94.29,94.29,0,0,1-30.89-20.08,96.45,96.45,0,0,1-20.85-30.5,99.79,99.79,0,0,1,0-77,96.45,96.45,0,0,1,20.85-30.5,94.13,94.13,0,0,1,30.89-20.08,99.55,99.55,0,0,1,37.84-7.21q22.39,0,40,7.72a89.65,89.65,0,0,1,30.24,21.37l-23.94,23.42a63.79,63.79,0,0,0-20.08-14.54q-11.07-5-26.51-5A64.23,64.23,0,0,0,577.3,234a60.12,60.12,0,0,0-19.82,12.74A60.85,60.85,0,0,0,544,266.71,70.52,70.52,0,0,0,544,319a59.62,59.62,0,0,0,13.64,19.95,61.46,61.46,0,0,0,19.95,12.74,64.71,64.71,0,0,0,24.2,4.51q14.67,0,24.84-4.25A58.23,58.23,0,0,0,644,341a41.79,41.79,0,0,0,8.88-11.71,66.22,66.22,0,0,0,5.79-15.84H600.73Z"/><path class="cls-1" d="M721.71,200.69H784q21.88,0,39.39,6.69a85.14,85.14,0,0,1,29.86,18.92,82.22,82.22,0,0,1,18.92,29.22,110.18,110.18,0,0,1,0,74.9,80.91,80.91,0,0,1-18.92,29.09,85.86,85.86,0,0,1-29.86,18.79Q805.89,385,784,385H721.71Zm60.75,151.36q15.18,0,26.77-4.25a52.3,52.3,0,0,0,19.31-12,49,49,0,0,0,11.58-18.66,78.58,78.58,0,0,0,0-48.65,49,49,0,0,0-11.58-18.67,52.56,52.56,0,0,0-19.31-12q-11.58-4.24-26.77-4.24h-26V352.05Z"/><path class="cls-1" d="M994.31,283.83h90.35a60.69,60.69,0,0,1,1.29,7.47,75.51,75.51,0,0,1,.51,8.75,102.14,102.14,0,0,1-5.4,33.46,77.67,77.67,0,0,1-17,28.06,85.45,85.45,0,0,1-29.6,20.34q-17.25,7.2-39.39,7.2a99.77,99.77,0,0,1-37.84-7.2,94.29,94.29,0,0,1-30.89-20.08,96.45,96.45,0,0,1-20.85-30.5,99.79,99.79,0,0,1,0-77,96.45,96.45,0,0,1,20.85-30.5,94.13,94.13,0,0,1,30.89-20.08,99.59,99.59,0,0,1,37.84-7.21q22.39,0,40,7.72a89.69,89.69,0,0,1,30.25,21.37l-23.94,23.42a63.79,63.79,0,0,0-20.08-14.54q-11.07-5-26.52-5a64.14,64.14,0,0,0-23.93,4.5,60.16,60.16,0,0,0-19.83,12.74,61,61,0,0,0-13.51,19.95,70.52,70.52,0,0,0,0,52.26,59.76,59.76,0,0,0,13.64,19.95,61.46,61.46,0,0,0,19.95,12.74,64.75,64.75,0,0,0,24.2,4.51q14.67,0,24.84-4.25A58.29,58.29,0,0,0,1037.56,341a41.79,41.79,0,0,0,8.88-11.71,67.08,67.08,0,0,0,5.79-15.84H994.31Z"/><path class="cls-1" d="M674.35,651.2a91.72,91.72,0,0,1-32.18,25.1q-18.54,8.63-41.44,8.62a97.15,97.15,0,0,1-38.23-7.46,93.54,93.54,0,0,1-50.84-50.84,100.36,100.36,0,0,1,0-75.94,93.54,93.54,0,0,1,50.84-50.84,97.15,97.15,0,0,1,38.23-7.46q22.13,0,39,7.72a90.75,90.75,0,0,1,30,22.39l-24.45,23.69A65.28,65.28,0,0,0,626.34,531q-10.68-5.65-25.36-5.67a64.9,64.9,0,0,0-24.19,4.51,58.54,58.54,0,0,0-19.7,12.74,60.28,60.28,0,0,0-13.25,19.95,72.26,72.26,0,0,0,0,52.26,60.18,60.18,0,0,0,13.25,20,58.54,58.54,0,0,0,19.7,12.74A64.89,64.89,0,0,0,601,652q15.45,0,27.42-6.3a67.41,67.41,0,0,0,21.23-17.89Z"/><path class="cls-1" d="M695.46,680.8V496.49h33.72V680.8Z"/><path class="cls-1" d="M816.44,550.55a70.11,70.11,0,0,1,26.9,5,62.36,62.36,0,0,1,35,35.14,75.28,75.28,0,0,1,0,54.06,62.38,62.38,0,0,1-35,35.13,74.58,74.58,0,0,1-53.8,0,62.38,62.38,0,0,1-35-35.13,75.28,75.28,0,0,1,0-54.06,62.36,62.36,0,0,1,35-35.14A70.11,70.11,0,0,1,816.44,550.55Zm0,103.22a33.07,33.07,0,0,0,12.49-2.44,31.85,31.85,0,0,0,10.68-7.08,33.44,33.44,0,0,0,7.33-11.33,43.9,43.9,0,0,0,0-30.37,33.54,33.54,0,0,0-7.33-11.33,32,32,0,0,0-10.68-7.08,33.27,33.27,0,0,0-12.49-2.44,32.86,32.86,0,0,0-12.61,2.44,32.32,32.32,0,0,0-10.56,7.08,33.54,33.54,0,0,0-7.33,11.33,43.9,43.9,0,0,0,0,30.37,33.44,33.44,0,0,0,7.33,11.33C796.36,647.34,812,653.77,816.44,653.77Z"/><path class="cls-1" d="M991,664.33h-2.06a42.79,42.79,0,0,1-16,15.06A46.65,46.65,0,0,1,950,684.92q-23.94,0-35.65-14.67t-11.72-39.13V554.67H936.4V627q0,13.65,6,20.21t17.64,6.56a24.46,24.46,0,0,0,12.22-3,28.46,28.46,0,0,0,9-8A36.06,36.06,0,0,0,987,631a53.38,53.38,0,0,0,1.93-14.54V554.67h33.72V680.8H991Z"/><path class="cls-1" d="M1144.13,665.62h-2.06q-4.63,8-14.42,13.64t-24.19,5.66a54.54,54.54,0,0,1-23-5,61.47,61.47,0,0,1-19.31-13.9,65.81,65.81,0,0,1-13.25-21.23,77.15,77.15,0,0,1,0-54.06,65.75,65.75,0,0,1,13.25-21.24,61.63,61.63,0,0,1,19.31-13.9,54.54,54.54,0,0,1,23-5q14.41,0,24.19,5.66t14.42,13.65h2.06l-2.06-18V496.49h33.72V680.8h-31.66Zm-33.72-11.85a33.66,33.66,0,0,0,12.74-2.44,31.85,31.85,0,0,0,10.68-7.08,35.16,35.16,0,0,0,7.47-11.33,42.15,42.15,0,0,0,0-30.37,35.27,35.27,0,0,0-7.47-11.33,32,32,0,0,0-10.68-7.08,33.86,33.86,0,0,0-12.74-2.44,32.26,32.26,0,0,0-12.74,2.57,33.56,33.56,0,0,0-10.69,7.21,35.08,35.08,0,0,0-7.46,11.33,40.8,40.8,0,0,0,0,29.86A35,35,0,0,0,1087,644a33.39,33.39,0,0,0,10.69,7.21A32.09,32.09,0,0,0,1110.41,653.77Z"/><path class="cls-1" d="M241.72,1039.36q-50.22,0-84-33.8-33.48-33.79-33.48-84.34t33.48-84q33.48-34.11,84-34.12,51.18,0,83.08,37L304,860.25q-24.33-29.38-62.23-29.38-37.59,0-62.86,25.27-25,25-25,65.08t25,65.07q25.26,25.28,62.86,25.27,39.48,0,68.55-33.17l21.16,20.53A109.63,109.63,0,0,1,292,1028.77,120.32,120.32,0,0,1,241.72,1039.36Z"/><path class="cls-1" d="M412.93,874.46q32.22,0,50.86,17.22t18.63,47.23v95.39H454.63v-21.48h-1.27q-18,26.53-48,26.54-25.59,0-42.8-15.17t-17.22-37.9q0-24,18.16-38.22T412,933.85q25.9,0,42.65,9.48v-6.64q0-15.15-12-25.74a41.18,41.18,0,0,0-28.11-10.58q-24.33,0-38.54,20.53l-25.59-16.11Q371.55,874.46,412.93,874.46ZM375.34,986.92q0,11.37,9.63,19a35.43,35.43,0,0,0,22.59,7.58q18.31,0,32.69-13.58T454.63,968Q441,957.23,416.72,957.23q-17.7,0-29.53,8.53T375.34,986.92Z"/><path class="cls-1" d="M544.34,808.13V1034.3H515.28V808.13Z"/><path class="cls-1" d="M646.69,1107.59a86.54,86.54,0,0,1-24.33-3.32,78.6,78.6,0,0,1-20.69-9.32,66.89,66.89,0,0,1-15.95-14.21,60.21,60.21,0,0,1-10.11-18.32L603.09,1051a43.54,43.54,0,0,0,16.43,21.8,46.09,46.09,0,0,0,27.17,8.21q23.68,0,37-14.21t13.26-39.17v-14.85h-1.26a57.17,57.17,0,0,1-22.27,19.43,66.59,66.59,0,0,1-30.48,7.11q-30.33,0-52.12-23.69-21.49-24.33-21.49-58.76t21.49-58.44q21.79-24,52.12-24a66.59,66.59,0,0,1,30.48,7.11A57.25,57.25,0,0,1,695.65,901h1.26V879.52h27.8v148.15q0,37.27-21.16,58.44Q682.06,1107.59,646.69,1107.59Zm.94-94.77q21.48,0,35.07-15.48,14.2-15.47,14.21-40.43,0-24.31-14.21-40.12Q668.79,901,647.63,901q-20.83,0-35.06,15.79t-14.21,40.12q0,24.65,14.21,40.12Q626.79,1012.83,647.63,1012.82Z"/><path class="cls-1" d="M817.27,874.46q32.22,0,50.85,17.22t18.64,47.23v95.39H859v-21.48H857.7q-18,26.53-48,26.54-25.57,0-42.8-15.17t-17.21-37.9q0-24,18.16-38.22t48.49-14.22q25.89,0,42.64,9.48v-6.64q0-15.15-12-25.74a41.2,41.2,0,0,0-28.12-10.58q-24.32,0-38.53,20.53l-25.59-16.11Q775.89,874.46,817.27,874.46Zm-37.6,112.46q0,11.37,9.64,19a35.41,35.41,0,0,0,22.59,7.58q18.32,0,32.69-13.58T859,968q-13.59-10.74-37.9-10.74-17.7,0-29.54,8.53T779.67,986.92Z"/><path class="cls-1" d="M948.67,1034.3H919.61V879.52h27.8v25.27h1.26q4.43-12.31,18.17-21t27-8.68q12.63,0,21.48,3.79L1006.48,907q-5.37-2.21-17.06-2.21-16.42,0-28.59,13.27a44.34,44.34,0,0,0-12.16,31Z"/><path class="cls-1" d="M1175.79,879.52l-97,223h-30l36-78-63.81-145h31.58l46.12,111.19h.64l44.85-111.19Z"/><polygon class="cls-1" points="309.07 517.33 212.31 684.92 139.81 684.92 258.5 479.38 272.83 454.56 309.07 517.33"/><polygon class="cls-1" points="353.31 593.91 300.74 684.92 228.21 684.92 317.03 531.1 353.31 593.91"/><path class="cls-1" d="M436.35,440.78A34.53,34.53,0,0,1,431.74,458l-26.27,45.51-36.25-62.8L325,364.19,228.21,196.57h72.53l54.49,94.36,76.52,132.59A34.55,34.55,0,0,1,436.35,440.78Z"/><polygon class="cls-1" points="397.51 517.33 361.26 580.14 324.98 517.33 280.78 440.78 139.78 196.57 212.31 196.57 310.99 367.52 355.23 444.06 397.51 517.33"/></svg>