<svg id="Layer_1" data-name="Layer 1" xmlns="http://www.w3.org/2000/svg" viewBox="0 0 2000 800"><defs><style>.cls-1{fill:#fbbc04;}.cls-2{fill:#34a853;}.cls-3,.cls-4{fill:#4868ed;}.cls-4{opacity:0.1;}.cls-5{fill:#ea4335;}.cls-6{fill:#4285f4;}.cls-7{fill:gray;}</style></defs><title>05 #gdgyyc logo</title><polygon class="cls-1" points="374.8 540.79 322.95 630.53 241.67 630.53 334.13 470.39 374.8 540.79"/><polygon class="cls-2" points="334.13 470.39 241.67 630.53 160.42 630.53 273.03 435.51 293.51 400.04 334.13 470.39"/><path class="cls-3" d="M445.12,419l-29.7,51.44L374.79,400l-40.66-70.36L241.67,169.47H323l51.84,89.78,40.63,70.39,29.71,51.48A37.84,37.84,0,0,1,445.12,419Z"/><polygon class="cls-3" points="415.42 470.39 374.8 540.79 334.13 470.39 293.51 400.04 160.38 169.47 241.67 169.47 334.13 329.64 374.8 400 415.42 470.39"/><polygon class="cls-4" points="374.8 540.79 324.22 487.56 273.69 434.34 293.51 400.04 334.13 470.39 374.8 540.79"/><path class="cls-5" d="M445.12,419l-29.7,51.44L374.79,400l-40.66-70.36L241.67,169.47H323l51.84,89.78,40.63,70.39,29.71,51.48A37.84,37.84,0,0,1,445.12,419Z"/><polygon class="cls-6" points="415.42 470.39 374.8 540.79 334.13 470.39 293.51 400.04 160.38 169.47 241.67 169.47 334.13 329.64 374.8 400 415.42 470.39"/><path class="cls-7" d="M678.05,527.54H650.81L661,458.43h-46.3l-10.22,69.11H577.28l10.21-69.11H545.62L550,432.56h41.54l6.81-46H555.83l4.09-25.88h42.21l9.87-66h27.24l-9.87,66h46.3l9.87-66h27.23l-9.87,66h41.87l-4.08,25.88H699.16l-6.81,46H734.9l-4.08,25.87H688.26Zm-59.24-95h46.3l6.81-46h-46.3Z"/><path class="cls-7" d="M845.88,606.52A93.27,93.27,0,0,1,819.67,603a85,85,0,0,1-22.3-10.05,71.78,71.78,0,0,1-17.19-15.32,64.59,64.59,0,0,1-10.9-19.74l29.62-12.26a46.84,46.84,0,0,0,17.7,23.49q12.6,8.85,29.28,8.86,25.53,0,39.83-15.32T900,520.39v-16h-1.36a61.71,61.71,0,0,1-24,20.94A71.88,71.88,0,0,1,841.8,533q-32.68,0-56.18-25.54-23.14-26.2-23.15-63.32t23.15-63q23.49-25.87,56.18-25.87a71.75,71.75,0,0,1,32.85,7.66,61.61,61.61,0,0,1,24,20.93H900V360.72h30V520.39q0,40.17-22.81,63Q884,606.51,845.88,606.52Zm1-102.13q23.15,0,37.79-16.68Q900,471,900,444.13q0-26.2-15.32-43.23-15-17-37.79-17-22.47,0-37.79,17t-15.32,43.23q0,26.55,15.32,43.24Q824.44,504.4,846.9,504.39Z"/><path class="cls-7" d="M1036.19,533q-32.69,0-56.18-25.88-23.14-26.21-23.15-63t23.15-63q23.49-25.87,56.18-25.87a71.94,71.94,0,0,1,33.53,7.83q15.15,7.83,23.32,20.76h1.36L1093,360.72V283.78h31.32V527.54h-30V504.39H1093q-8.18,12.95-23.32,20.77A72.06,72.06,0,0,1,1036.19,533Zm5.1-28.6q23.16,0,37.79-16.68,15.33-16.68,15.32-43.58,0-26.2-15.32-43.23-15-17-37.79-17-22.47,0-37.79,17t-15.31,43.23q0,26.55,15.31,43.24Q1018.83,504.4,1041.29,504.39Z"/><path class="cls-7" d="M1234.66,606.52a93.27,93.27,0,0,1-26.21-3.57,85,85,0,0,1-22.3-10.05A71.78,71.78,0,0,1,1169,577.58a64.59,64.59,0,0,1-10.9-19.74l29.62-12.26a46.91,46.91,0,0,0,17.71,23.49q12.58,8.85,29.27,8.86,25.54,0,39.84-15.32t14.29-42.22v-16h-1.36a61.64,61.64,0,0,1-24,20.94,71.85,71.85,0,0,1-32.85,7.66q-32.68,0-56.17-25.54-23.16-26.2-23.15-63.32t23.15-63q23.49-25.87,56.17-25.87a71.72,71.72,0,0,1,32.85,7.66,61.54,61.54,0,0,1,24,20.93h1.36V360.72h30V520.39q0,40.17-22.81,63Q1272.8,606.51,1234.66,606.52Zm1-102.13q23.14,0,37.78-16.68,15.33-16.68,15.32-43.58,0-26.2-15.32-43.23-15-17-37.78-17-22.47,0-37.79,17t-15.32,43.23q0,26.55,15.32,43.24Q1213.21,504.4,1235.69,504.39Z"/><path class="cls-7" d="M1506,360.72,1401.48,601.07h-32.35L1407.94,517l-68.76-156.27h34l49.7,119.84h.68L1472,360.72Z"/><path class="cls-7" d="M1675.52,360.72,1571,601.07h-32.34L1577.48,517l-68.77-156.27h34l49.71,119.84h.68l48.34-119.84Z"/><path class="cls-7" d="M1765.4,533q-37.11,0-61.62-25.2-24.18-25.86-24.17-63.66,0-38.46,24.17-63.66,24.51-25.19,61.62-25.19,25.53,0,44.6,12.76t28.6,35.24L1810,415.19q-13.27-31.32-46.64-31.32-21.45,0-37.11,17.37-15.32,17.36-15.32,42.89t15.32,42.9q15.66,17.36,37.11,17.36,34.38,0,48.34-31.32L1839.62,485a74.75,74.75,0,0,1-28.77,35.24Q1791.28,533,1765.4,533Z"/></svg>