<?xml version="1.0" encoding="UTF-8" standalone="no"?>
<svg
   xmlns:dc="http://purl.org/dc/elements/1.1/"
   xmlns:cc="http://creativecommons.org/ns#"
   xmlns:rdf="http://www.w3.org/1999/02/22-rdf-syntax-ns#"
   xmlns:svg="http://www.w3.org/2000/svg"
   xmlns="http://www.w3.org/2000/svg"
   xmlns:sodipodi="http://sodipodi.sourceforge.net/DTD/sodipodi-0.dtd"
   xmlns:inkscape="http://www.inkscape.org/namespaces/inkscape"
   id="Layer_1"
   data-name="Layer 1"
   viewBox="0 0 2541.52 769.68939"
   version="1.1"
   sodipodi:docname="01_Logo.svg"
   width="2541.52"
   height="769.68939"
   inkscape:version="0.92.3 (2405546, 2018-03-11)">
  <metadata
     id="metadata55">
    <rdf:RDF>
      <cc:Work
         rdf:about="">
        <dc:format>image/svg+xml</dc:format>
        <dc:type
           rdf:resource="http://purl.org/dc/dcmitype/StillImage" />
      </cc:Work>
    </rdf:RDF>
  </metadata>
  <sodipodi:namedview
     pagecolor="#ffffff"
     bordercolor="#666666"
     borderopacity="1"
     objecttolerance="10"
     gridtolerance="10"
     guidetolerance="10"
     inkscape:pageopacity="0"
     inkscape:pageshadow="2"
     inkscape:window-width="1920"
     inkscape:window-height="1027"
     id="namedview53"
     showgrid="false"
     inkscape:zoom="0.37866667"
     inkscape:cx="1585.0723"
     inkscape:cy="275.83313"
     inkscape:window-x="-8"
     inkscape:window-y="-8"
     inkscape:window-maximized="1"
     inkscape:current-layer="Layer_1" />
  <defs
     id="defs4">
    <style
       id="style2">.cls-1{fill:#fbbc04;}.cls-2{fill:#34a853;}.cls-3,.cls-4{fill:#4868ed;}.cls-4{opacity:0.1;}.cls-5{fill:#ea4335;}.cls-6{fill:#4285f4;}.cls-7{fill:gray;}</style>
  </defs>
  <title
     id="title6">01 Logo</title>
  <polygon
     class="cls-1"
     points="349.31,844.81 485.9,608.26 545.96,712.25 469.38,844.81 "
     id="polygon8"
     style="fill:#fbbc04"
     transform="translate(-229.24,-157.99347)" />
  <polygon
     class="cls-2"
     points="229.3,844.81 395.63,556.74 425.89,504.34 485.9,608.26 349.31,844.81 "
     id="polygon10"
     style="fill:#34a853"
     transform="translate(-229.24,-157.99347)" />
  <path
     class="cls-3"
     d="m 420.61,374.27653 -43.88,76 -60,-104 -60.07,-103.91 L 120.07,5.766527 h 120.07 l 76.62,132.620003 60,104 43.88,76 a 55.87,55.87 0 0 1 -0.03,55.89 z"
     id="path12"
     inkscape:connector-curvature="0"
     style="fill:#4868ed" />
  <polygon
     class="cls-3"
     points="485.9,608.26 425.89,504.34 229.24,163.76 349.31,163.76 485.9,400.36 545.96,504.28 605.97,608.26 545.96,712.25 "
     id="polygon14"
     style="fill:#4868ed"
     transform="translate(-229.24,-157.99347)" />
  <polygon
     class="cls-4"
     points="396.61,555.01 425.89,504.34 485.9,608.26 545.96,712.25 471.26,633.63 "
     id="polygon16"
     style="opacity:0.1;fill:#4868ed"
     transform="translate(-229.24,-157.99347)" />
  <path
     class="cls-5"
     d="m 420.61,374.27653 -43.88,76 -60,-104 -60.07,-103.91 L 120.07,5.766527 h 120.07 l 76.62,132.620003 60,104 43.88,76 a 55.87,55.87 0 0 1 -0.03,55.89 z"
     id="path18"
     inkscape:connector-curvature="0"
     style="fill:#ea4335" />
  <polygon
     class="cls-6"
     points="485.9,608.26 425.89,504.34 229.24,163.76 349.31,163.76 485.9,400.36 545.96,504.28 605.97,608.26 545.96,712.25 "
     id="polygon20"
     style="fill:#4285f4"
     transform="translate(-229.24,-157.99347)" />
  <path
     class="cls-7"
     d="m 683.41,132.00653 h 136.64 a 93.4,93.4 0 0 1 2,11.29 115.38,115.38 0 0 1 0.77,13.24 154.4,154.4 0 0 1 -8.17,50.61 117.16,117.16 0 0 1 -25.69,42.43 129.05,129.05 0 0 1 -44.77,30.76 q -26.08,10.89 -59.57,10.9 a 150.84,150.84 0 0 1 -57.22,-10.9 142.51,142.51 0 0 1 -46.72,-30.37 145.6,145.6 0 0 1 -31.53,-46.13 q -11.69,-26.66 -11.68,-58.2 0.01,-31.54 11.68,-58.200003 a 145.83,145.83 0 0 1 31.53,-46.13 142.51,142.51 0 0 1 46.72,-30.37 150.84,150.84 0 0 1 57.17,-10.92999995 q 33.87,0 60.54,11.67999995 a 135.79,135.79 0 0 1 45.74,32.32 l -36.2,35.43 a 96.88,96.88 0 0 0 -30.37,-22 q -16.74,-7.59 -40.1,-7.59 a 97.1,97.1 0 0 0 -36.2,6.82 90.72,90.72 0 0 0 -30,19.27 91.93,91.93 0 0 0 -20.43,30.170003 q -7.59,17.71 -7.59,39.51 0,21.8 7.59,39.51 a 90.11,90.11 0 0 0 20.63,30.17 92.83,92.83 0 0 0 30.17,19.28 98.1,98.1 0 0 0 36.59,6.81 q 22.2,0 37.57,-6.43 a 88,88 0 0 0 26.28,-16.54 63.16,63.16 0 0 0 13.43,-17.71 100.76,100.76 0 0 0 8.76,-23.95 h -87.57 z"
     id="path22"
     inkscape:connector-curvature="0"
     style="fill:#808080" />
  <path
     class="cls-7"
     d="m 866.37,6.226527 h 94.21 q 33.09,0 59.57,10.12 26.48,10.12 45.16,28.66 a 124.47,124.47 0 0 1 28.61,44.18 q 9.93,25.690003 9.93,56.450003 0,31.16 -9.93,56.84 a 122.57,122.57 0 0 1 -28.61,44 q -18.69,18.3 -45.16,28.42 -26.47,10.12 -59.57,10.11 h -94.21 z m 91.88,228.910003 q 23,0 40.49,-6.42 17.49,-6.42 29.19,-18.11 a 74.08,74.08 0 0 0 17.52,-28.22 118.8,118.8 0 0 0 0,-73.58 74.08,74.08 0 0 0 -17.52,-28.220003 q -11.67,-11.69 -29.19,-18.1 -17.52,-6.41 -40.49,-6.43 H 918.93 V 235.13653 Z"
     id="path24"
     inkscape:connector-curvature="0"
     style="fill:#808080" />
  <path
     class="cls-7"
     d="m 1278.64,132.00653 h 136.64 a 93.4,93.4 0 0 1 2,11.29 113.18,113.18 0 0 1 0.78,13.24 154.4,154.4 0 0 1 -8.18,50.61 117.16,117.16 0 0 1 -25.69,42.43 129.05,129.05 0 0 1 -44.77,30.76 q -26.08,10.89 -59.56,10.9 a 150.86,150.86 0 0 1 -57.23,-10.9 142.51,142.51 0 0 1 -46.72,-30.37 145.77,145.77 0 0 1 -31.53,-46.13 q -11.68,-26.66 -11.68,-58.2 0,-31.54 11.68,-58.200003 a 146,146 0 0 1 31.53,-46.13 142.51,142.51 0 0 1 46.72,-30.37 150.86,150.86 0 0 1 57.23,-10.89999995 q 33.87,0 60.53,11.67999995 a 135.69,135.69 0 0 1 45.69,32.29 l -36.2,35.43 a 96.88,96.88 0 0 0 -30.37,-22 q -16.74,-7.59 -40.09,-7.59 a 97.12,97.12 0 0 0 -36.21,6.82 90.58,90.58 0 0 0 -30,19.27 91.8,91.8 0 0 0 -20.45,30.150003 q -7.59,17.71 -7.59,39.51 0,21.8 7.59,39.51 a 90.11,90.11 0 0 0 20.63,30.17 92.83,92.83 0 0 0 30.17,19.28 98.16,98.16 0 0 0 36.6,6.81 q 22.18,0 37.56,-6.43 a 88,88 0 0 0 26.28,-16.54 63,63 0 0 0 13.43,-17.71 100.76,100.76 0 0 0 8.76,-23.95 h -87.59 z"
     id="path26"
     inkscape:connector-curvature="0"
     style="fill:#808080" />
  <path
     class="cls-7"
     d="m 1783.16,240.19653 a 138.6,138.6 0 0 1 -48.66,38 q -28,13 -62.67,13 a 146.81,146.81 0 0 1 -57.81,-11.29 141.34,141.34 0 0 1 -76.89,-76.9 151.66,151.66 0 0 1 0,-114.840003 141.34,141.34 0 0 1 76.89,-76.89 146.81,146.81 0 0 1 57.81,-11.26999995 q 33.47,0 59,11.67999995 a 137.37,137.37 0 0 1 45.36,33.87 l -37,35.82 a 98.83,98.83 0 0 0 -28.61,-23 q -16.15,-8.56 -38.34,-8.57 a 98.12,98.12 0 0 0 -36.6,6.82 88.45,88.45 0 0 0 -29.78,19.27 90.87,90.87 0 0 0 -20,30.170003 q -7.4,17.71 -7.4,39.51 0,21.8 7.4,39.51 a 90.66,90.66 0 0 0 20,30.17 88.48,88.48 0 0 0 29.78,19.28 98.12,98.12 0 0 0 36.6,6.81 q 23.36,0 41.45,-9.54 a 101.93,101.93 0 0 0 32.07,-27.04 z"
     id="path28"
     inkscape:connector-curvature="0"
     style="fill:#808080" />
  <path
     class="cls-7"
     d="M 1815.09,285.00653 V 6.226527 h 51 V 285.00653 Z"
     id="path30"
     inkscape:connector-curvature="0"
     style="fill:#808080" />
  <path
     class="cls-7"
     d="m 1998.06,88.006527 a 106.16,106.16 0 0 1 40.68,7.6 94.39,94.39 0 0 1 52.95,53.130003 113.89,113.89 0 0 1 0,81.76 94.45,94.45 0 0 1 -52.93,53.11 112.81,112.81 0 0 1 -81.36,0 94.37,94.37 0 0 1 -52.95,-53.14 113.89,113.89 0 0 1 0,-81.76 94.31,94.31 0 0 1 52.95,-53.130003 106.12,106.12 0 0 1 40.66,-7.57 z m 0,156.110003 a 49.88,49.88 0 0 0 18.88,-3.7 48.26,48.26 0 0 0 16.16,-10.7 50.65,50.65 0 0 0 11.09,-17.13 66.55,66.55 0 0 0 0,-45.94 50.85,50.85 0 0 0 -11.09,-17.13 48.41,48.41 0 0 0 -16.16,-10.7 50.53,50.53 0 0 0 -38,0 48.72,48.72 0 0 0 -16,10.7 50.85,50.85 0 0 0 -11.09,17.13 66.55,66.55 0 0 0 0,45.94 50.65,50.65 0 0 0 11.09,17.13 48.56,48.56 0 0 0 16,10.7 49.41,49.41 0 0 0 19.12,3.67 z"
     id="path32"
     inkscape:connector-curvature="0"
     style="fill:#808080" />
  <path
     class="cls-7"
     d="m 2262,260.00653 h -3.11 a 64.7,64.7 0 0 1 -24.13,22.82 q -15.18,8.37 -34.65,8.37 -36.2,0 -53.91,-22.19 -17.71,-22.19 -17.72,-59.18 V 94.206527 h 51 V 203.60653 q 0,20.64 9.15,30.56 9.15,9.92 26.67,9.92 a 37.22,37.22 0 0 0 18.49,-4.47 43.19,43.19 0 0 0 13.62,-12.07 54.73,54.73 0 0 0 8.57,-17.91 80.66,80.66 0 0 0 2.92,-22 V 94.206527 h 51 V 285.00653 h -47.89 z"
     id="path34"
     inkscape:connector-curvature="0"
     style="fill:#808080" />
  <path
     class="cls-7"
     d="m 2493.63,262.00653 h -3.11 q -7,12.08 -21.8,20.63 -14.8,8.55 -36.59,8.57 a 82.6,82.6 0 0 1 -34.85,-7.59 93,93 0 0 1 -29.19,-21 99.57,99.57 0 0 1 -20,-32.11 116.62,116.62 0 0 1 0,-81.76 99.57,99.57 0 0 1 20,-32.11 93,93 0 0 1 29.19,-21.000003 82.61,82.61 0 0 1 34.85,-7.6 q 21.8,0 36.59,8.57 14.79,8.570003 21.8,20.630003 h 3.11 l -3.11,-27.250003 v -83.7 h 51 V 285.00653 h -47.89 z m -51,-17.91 a 50.88,50.88 0 0 0 19.27,-3.7 48.12,48.12 0 0 0 16.15,-10.7 53.29,53.29 0 0 0 11.29,-17.13 63.78,63.78 0 0 0 0,-45.94 53.5,53.5 0 0 0 -11.29,-17.13 48.27,48.27 0 0 0 -16.15,-10.7 50.88,50.88 0 0 0 -19.27,-3.7 48.72,48.72 0 0 0 -19.27,3.89 50.82,50.82 0 0 0 -16.16,10.9 53.23,53.23 0 0 0 -11.28,17.12 61.7,61.7 0 0 0 0,45.16 53.12,53.12 0 0 0 11.29,17.13 50.65,50.65 0 0 0 16.16,10.9 48.55,48.55 0 0 0 19.27,3.89 z"
     id="path36"
     inkscape:connector-curvature="0"
     style="fill:#808080" />
  <path
     class="cls-7"
     d="m 684.03,685.59653 q -61.89,0 -103.55,-41.66 -41.26,-41.64 -41.27,-103.93 -0.01,-62.29 41.27,-103.55 41.26,-42 103.55,-42 63.08,0 102.39,45.54 l -25.66,24.87 q -30,-36.21 -76.69,-36.21 -46.34,0 -77.47,31.15 -30.79,30.75 -30.79,80.2 0,49.45 30.75,80.2 31.14,31.14 77.47,31.14 48.66,0 84.48,-40.87 l 26.08,25.3 a 135.18,135.18 0 0 1 -48.66,36.79 148.41,148.41 0 0 1 -61.9,13.03 z"
     id="path38"
     inkscape:connector-curvature="0"
     style="fill:#808080" />
  <path
     class="cls-7"
     d="m 895.03,482.38653 q 39.7,0 62.68,21.21 22.98,21.21 23,58.2 v 117.57 h -34.26 v -26.47 h -1.56 q -22.18,32.7 -59.17,32.7 -31.53,0 -52.75,-18.69 -21.22,-18.69 -21.21,-46.71 0,-29.58 22.39,-47.11 22.39,-17.53 59.75,-17.52 31.92,0 52.56,11.68 v -8.17 q 0,-18.69 -14.79,-31.73 a 50.79,50.79 0 0 0 -34.65,-13 q -30,0 -47.5,25.3 l -31.53,-19.85 q 26.04,-37.42 77.04,-37.41 z m -46.27,138.62 q 0,14 11.87,23.35 a 43.67,43.67 0 0 0 27.83,9.35 q 22.57,0 40.3,-16.74 17.73,-16.74 17.71,-39.32 -16.74,-13.23 -46.72,-13.24 -21.8,0 -36.4,10.51 -14.6,10.51 -14.59,26.09 z"
     id="path40"
     inkscape:connector-curvature="0"
     style="fill:#808080" />
  <path
     class="cls-7"
     d="m 1056.98,400.62653 v 278.74 h -35.82 v -278.74 z"
     id="path42"
     inkscape:connector-curvature="0"
     style="fill:#808080" />
  <path
     class="cls-7"
     d="m 1183.11,769.68653 a 106.35,106.35 0 0 1 -30,-4.09 96.89,96.89 0 0 1 -25.5,-11.48 82.65,82.65 0 0 1 -19.66,-17.52 73.85,73.85 0 0 1 -12.43,-22.59 l 33.87,-14 a 53.68,53.68 0 0 0 20.24,26.87 q 14.4,10.11 33.48,10.12 29.2,0 45.55,-17.52 16.35,-17.52 16.35,-48.27 v -18.3 h -1.56 a 70.52,70.52 0 0 1 -27.44,23.94 82.09,82.09 0 0 1 -37.57,8.76 q -37.37,0 -64.23,-29.2 -26.45,-29.98 -26.45,-72.4 0,-42.42 26.48,-72 26.85,-29.58 64.23,-29.58 a 82.09,82.09 0 0 1 37.57,8.76 70.52,70.52 0 0 1 27.44,23.94 h 1.56 v -26.51 h 34.26 v 182.58 q 0,45.93 -26.08,72 -26.52,26.48 -70.11,26.49 z m 1.17,-116.79 q 26.48,0 43.21,-19.08 17.52,-19.06 17.52,-49.83 0,-30 -17.52,-49.44 -17.13,-19.45 -43.21,-19.46 -25.69,0 -43.21,19.46 -17.52,19.46 -17.52,49.46 0,30.38 17.52,49.44 17.52,19.47 43.21,19.45 z"
     id="path44"
     inkscape:connector-curvature="0"
     style="fill:#808080" />
  <path
     class="cls-7"
     d="m 1393.33,482.38653 q 39.71,0 62.68,21.21 22.97,21.21 23,58.2 v 117.57 h -34.25 v -26.47 h -1.56 q -22.19,32.7 -59.17,32.7 -31.53,0 -52.75,-18.69 -21.22,-18.69 -21.22,-46.71 0,-29.58 22.39,-47.11 22.39,-17.53 59.75,-17.52 31.92,0 52.56,11.68 v -8.17 q 0,-18.69 -14.79,-31.73 a 50.79,50.79 0 0 0 -34.65,-13 q -30,0 -47.5,25.3 l -31.53,-19.85 q 26.05,-37.42 77.04,-37.41 z m -46.32,138.62 q 0,14 11.87,23.35 a 43.67,43.67 0 0 0 27.83,9.35 q 22.58,0 40.3,-16.74 17.72,-16.74 17.75,-39.35 -16.74,-13.23 -46.72,-13.24 -21.79,0 -36.4,10.51 -14.61,10.51 -14.63,26.12 z"
     id="path46"
     inkscape:connector-curvature="0"
     style="fill:#808080" />
  <path
     class="cls-7"
     d="m 1555.28,679.36653 h -35.82 v -190.75 h 34.3 v 31.14 h 1.56 q 5.45,-15.18 22.38,-25.89 16.93,-10.71 33.29,-10.7 15.55,0 26.47,4.67 l -10.9,34.64 q -6.63,-2.72 -21,-2.72 -20.25,0 -35.23,16.35 a 54.65,54.65 0 0 0 -15,38.15 z"
     id="path48"
     inkscape:connector-curvature="0"
     style="fill:#808080" />
  <path
     class="cls-7"
     d="m 1835.18,488.61653 -119.52,274.84 h -37 l 44.38,-96.16 -78.64,-178.68 h 38.93 l 56.84,137 h 0.78 l 55.28,-137 z"
     id="path50"
     inkscape:connector-curvature="0"
     style="fill:#808080" />
</svg>
