<svg id="Layer_1" data-name="Layer 1" xmlns="http://www.w3.org/2000/svg" viewBox="0 0 5000 1300"><defs><style>.cls-1{fill:#4285f4;}.cls-2{fill:#fff;}</style></defs><title>02 GDG Logo Hz White</title><rect class="cls-1" x="2676.54" y="123.78" width="3.67" height="10"/><path class="cls-2" d="M1046.09,634.29H1203.6a105.19,105.19,0,0,1,2.24,13,130.16,130.16,0,0,1,.9,15.26,178,178,0,0,1-9.42,58.33,135.32,135.32,0,0,1-29.62,48.92,148.56,148.56,0,0,1-51.61,35.45q-30.08,12.56-68.66,12.56a173.85,173.85,0,0,1-66-12.56,164.08,164.08,0,0,1-53.86-35,168.24,168.24,0,0,1-36.35-53.18Q877.81,686.36,877.8,650t13.46-67.09a168.35,168.35,0,0,1,36.35-53.18,164.4,164.4,0,0,1,53.86-35,173.85,173.85,0,0,1,66-12.56q39,0,69.78,13.46a156.31,156.31,0,0,1,52.73,37.24l-41.73,40.84a111.59,111.59,0,0,0-35-25.35q-19.29-8.76-46.22-8.75a112,112,0,0,0-41.73,7.85,104.78,104.78,0,0,0-34.56,22.21,106.12,106.12,0,0,0-23.56,34.78q-8.75,20.43-8.75,45.55t8.75,45.55a104.07,104.07,0,0,0,23.79,34.78,106.87,106.87,0,0,0,34.78,22.21,113,113,0,0,0,42.18,7.85q25.57,0,43.31-7.4a101.65,101.65,0,0,0,30.29-19.07A72.88,72.88,0,0,0,1137,713.5a116.5,116.5,0,0,0,10.1-27.6h-101Z"/><path class="cls-2" d="M1257,489.35h108.6q38.13,0,68.66,11.66t52,33a143.42,143.42,0,0,1,33,50.93q11.45,29.63,11.44,65.07,0,35.91-11.44,65.52a141.22,141.22,0,0,1-33,50.71q-21.54,21.09-52,32.76t-68.66,11.66H1257Zm105.91,263.86q26.46,0,46.67-7.4t33.65-20.87a85.44,85.44,0,0,0,20.2-32.53q6.72-19.08,6.73-42.41t-6.73-42.41a85.51,85.51,0,0,0-20.2-32.53q-13.45-13.47-33.65-20.87t-46.67-7.4h-45.33V753.21Z"/><path class="cls-2" d="M1732.23,634.29h157.51a106.92,106.92,0,0,1,2.25,13,132.35,132.35,0,0,1,.89,15.26,178,178,0,0,1-9.42,58.33,135.18,135.18,0,0,1-29.62,48.92,148.56,148.56,0,0,1-51.61,35.45q-30.06,12.56-68.66,12.56a173.85,173.85,0,0,1-66-12.56,163.93,163.93,0,0,1-53.85-35,167.91,167.91,0,0,1-36.35-53.18q-13.47-30.74-13.47-67.09t13.47-67.09a168,168,0,0,1,36.35-53.18,164.25,164.25,0,0,1,53.85-35,173.85,173.85,0,0,1,66-12.56q39,0,69.79,13.46a156.37,156.37,0,0,1,52.72,37.24l-41.73,40.84a111.55,111.55,0,0,0-35-25.35q-19.3-8.76-46.22-8.75a112,112,0,0,0-41.74,7.85,104.63,104.63,0,0,0-34.55,22.21,105.81,105.81,0,0,0-23.56,34.78q-8.76,20.43-8.75,45.55t8.75,45.55a103.9,103.9,0,0,0,23.78,34.78,106.87,106.87,0,0,0,34.78,22.21,113,113,0,0,0,42.18,7.85q25.59,0,43.31-7.4a101.65,101.65,0,0,0,30.29-19.07,72.88,72.88,0,0,0,15.48-20.42,116.5,116.5,0,0,0,10.1-27.6h-101Z"/><path class="cls-2" d="M2313.81,759.05a159.73,159.73,0,0,1-56.09,43.75q-32.31,15-72.25,15-35.91,0-66.64-13a162.91,162.91,0,0,1-88.63-88.63,174.76,174.76,0,0,1,0-132.38,162.91,162.91,0,0,1,88.63-88.63q30.74-13,66.64-13,38.58,0,68,13.46a158.11,158.11,0,0,1,52.28,39L2263.1,576a114.06,114.06,0,0,0-33-26.48q-18.63-9.87-44.2-9.87a113.17,113.17,0,0,0-42.19,7.85,102.17,102.17,0,0,0-34.33,22.21,104.89,104.89,0,0,0-23.11,34.78q-8.52,20.43-8.52,45.55t8.52,45.55a104.69,104.69,0,0,0,23.11,34.78,101.87,101.87,0,0,0,34.33,22.21,113,113,0,0,0,42.19,7.85q26.92,0,47.79-11t37-31.19Z"/><path class="cls-2" d="M2350.61,810.65V489.35h58.79v321.3Z"/><path class="cls-2" d="M2561.53,583.58q25.57,0,46.89,8.75a108.77,108.77,0,0,1,61,61.26q8.76,21.54,8.75,47.12t-8.75,47.12a108.71,108.71,0,0,1-61,61.25q-21.32,8.76-46.89,8.75t-46.9-8.75a108.71,108.71,0,0,1-61-61.25,131.25,131.25,0,0,1,0-94.24,108.77,108.77,0,0,1,61-61.26Q2535.95,583.59,2561.53,583.58Zm0,179.95a57.41,57.41,0,0,0,21.76-4.26,55.47,55.47,0,0,0,18.63-12.34,58.44,58.44,0,0,0,12.78-19.74,76.64,76.64,0,0,0,0-53,58.54,58.54,0,0,0-12.78-19.74,55.47,55.47,0,0,0-18.63-12.34,57.62,57.62,0,0,0-21.76-4.27,57,57,0,0,0-22,4.27,55.85,55.85,0,0,0-18.4,12.34,58.41,58.41,0,0,0-12.79,19.74,76.79,76.79,0,0,0,0,53,58.31,58.31,0,0,0,12.79,19.74,55.85,55.85,0,0,0,18.4,12.34A56.84,56.84,0,0,0,2561.53,763.53Z"/><path class="cls-2" d="M2865.78,781.93h-3.59a74.39,74.39,0,0,1-27.82,26.26q-17.51,9.64-39.94,9.64-41.73,0-62.15-25.57T2711.86,724V590.76h58.79v126.1q0,23.8,10.54,35.23t30.74,11.44a42.76,42.76,0,0,0,21.32-5.16,49.59,49.59,0,0,0,15.7-13.91,63,63,0,0,0,9.88-20.64,92.82,92.82,0,0,0,3.36-25.35V590.76H2921V810.65h-55.2Z"/><path class="cls-2" d="M3132.79,784.18h-3.59q-8.07,13.91-25.13,23.78t-42.18,9.87a95,95,0,0,1-40.16-8.75,107.25,107.25,0,0,1-33.66-24.23,114.87,114.87,0,0,1-23.11-37,134.41,134.41,0,0,1,0-94.24,114.87,114.87,0,0,1,23.11-37,107.44,107.44,0,0,1,33.66-24.24,95.2,95.2,0,0,1,40.16-8.75q25.13,0,42.18,9.88t25.13,23.78h3.59l-3.59-31.41V489.35H3188v321.3h-55.2ZM3074,763.53a58.57,58.57,0,0,0,22.21-4.26,55.43,55.43,0,0,0,18.62-12.34,61.32,61.32,0,0,0,13-19.74,73.58,73.58,0,0,0,0-53,61.43,61.43,0,0,0-13-19.74,55.43,55.43,0,0,0-18.62-12.34,58.77,58.77,0,0,0-22.21-4.27,56.17,56.17,0,0,0-22.22,4.49,58.48,58.48,0,0,0-18.62,12.57,61.27,61.27,0,0,0-13,19.74,71.18,71.18,0,0,0,0,52.06,61.16,61.16,0,0,0,13,19.74,58.31,58.31,0,0,0,18.62,12.57A56.16,56.16,0,0,0,3074,763.53Z"/><path class="cls-2" d="M3505.76,817.83q-71.36,0-119.37-48-47.58-48-47.57-119.82t47.57-119.37q47.55-48.47,119.37-48.46,72.69,0,118,52.5l-29.62,28.72q-34.56-41.73-88.4-41.73-53.41,0-89.31,35.9Q3381,593,3381,650t35.45,92.44q35.9,35.91,89.31,35.9,56.09,0,97.38-47.12l30.06,29.17a155.81,155.81,0,0,1-56.09,42.41A171,171,0,0,1,3505.76,817.83Z"/><path class="cls-2" d="M3749,583.58q45.78,0,72.25,24.46t26.48,67.09V810.65h-39.49V780.14h-1.8q-25.58,37.7-68.21,37.69-36.35,0-60.81-21.54T3653,742.44q0-34.1,25.8-54.3T3747.63,668q36.79,0,60.59,13.46V672q0-21.54-17.06-36.57a58.46,58.46,0,0,0-39.94-15q-34.56,0-54.74,29.17l-36.35-22.89Q3690.19,583.58,3749,583.58Zm-53.4,159.76q0,16.15,13.69,26.93T3741.35,781q26,0,46.45-19.3t20.42-45.32q-19.3-15.25-53.85-15.26-25.14,0-42,12.11T3695.58,743.34Z"/><path class="cls-2" d="M3935.66,489.35v321.3h-41.28V489.35Z"/><path class="cls-2" d="M4081.06,914.77a122.5,122.5,0,0,1-34.55-4.72,111.74,111.74,0,0,1-29.4-13.24,94.66,94.66,0,0,1-22.66-20.19,85.24,85.24,0,0,1-14.36-26l39-16.15a61.84,61.84,0,0,0,23.34,31q16.59,11.67,38.59,11.67,33.66,0,52.5-20.19t18.85-55.65V780.14h-1.79a81.29,81.29,0,0,1-31.64,27.6,94.64,94.64,0,0,1-43.3,10.09q-43.09,0-74-33.65-30.52-34.56-30.51-83.47t30.51-83q31-34.1,74-34.11a94.64,94.64,0,0,1,43.3,10.1,81.29,81.29,0,0,1,31.64,27.6h1.79V590.76h39.49V801.23q0,52.95-30.06,83Q4131.31,914.76,4081.06,914.77Zm1.35-134.63q30.51,0,49.81-22,20.19-22,20.19-57.44,0-34.55-20.19-57-19.76-22.44-49.81-22.44-29.62,0-49.82,22.44t-20.19,57q0,35,20.19,57Q4052.8,780.14,4082.41,780.14Z"/><path class="cls-2" d="M4323.39,583.58q45.76,0,72.25,24.46t26.47,67.09V810.65h-39.49V780.14h-1.79q-25.59,37.7-68.21,37.69-36.36,0-60.81-21.54t-24.46-53.85q0-34.1,25.81-54.3T4322,668q36.79,0,60.58,13.46V672q0-21.54-17.05-36.57a58.46,58.46,0,0,0-39.94-15q-34.56,0-54.75,29.17l-36.35-22.89Q4264.59,583.58,4323.39,583.58ZM4270,743.34q0,16.15,13.68,26.93T4315.76,781q26,0,46.44-19.3t20.42-45.32q-19.29-15.25-53.85-15.26-25.14,0-42,12.11T4270,743.34Z"/><path class="cls-2" d="M4510.07,810.65h-41.29V590.76h39.49v35.9h1.8q6.27-17.49,25.8-29.84t38.37-12.34q17.94,0,30.51,5.39l-12.56,39.94q-7.63-3.13-24.23-3.15-23.34,0-40.62,18.85t-17.27,44Z"/><path class="cls-2" d="M4832.71,590.76,4695,907.59h-42.63l51.15-110.85-90.65-206h44.88l65.52,158h.9l63.72-158Z"/><polygon class="cls-2" points="527.09 802.82 333.99 1137.26 189.31 1137.26 426.17 727.09 454.77 677.56 527.09 802.82"/><polygon class="cls-2" points="615.38 955.65 510.47 1137.26 365.71 1137.26 542.97 830.31 615.38 955.65"/><path class="cls-2" d="M781.08,650.07a68.9,68.9,0,0,1-9.2,34.45l-52.44,90.81L647.11,650,558.83,497.24l-193.1-334.5H510.45L619.19,351l152.7,264.6A68.77,68.77,0,0,1,781.08,650.07Z"/><polygon class="cls-2" points="703.57 802.82 631.24 928.17 558.83 802.82 470.64 650.08 189.25 162.74 333.99 162.74 530.92 503.87 619.19 656.61 703.57 802.82"/></svg>