<svg id="Layer_1" data-name="Layer 1" xmlns="http://www.w3.org/2000/svg" viewBox="0 0 4500 1300"><defs><style>.cls-1{fill:#fff;}</style></defs><title>03 GDG DevFest Logo White</title><polygon class="cls-1" points="529.32 792.13 343.75 1113.54 204.71 1113.54 432.33 719.36 459.82 671.76 529.32 792.13"/><polygon class="cls-1" points="614.17 939.01 513.35 1113.54 374.23 1113.54 544.58 818.55 614.17 939.01"/><path class="cls-1" d="M773.41,645.34a66.25,66.25,0,0,1-8.84,33.11l-50.39,87.27L644.67,645.27l-84.85-146.8L374.25,177H513.33l104.5,181L764.58,612.24A66.13,66.13,0,0,1,773.41,645.34Z"/><polygon class="cls-1" points="698.92 792.13 629.41 912.6 559.82 792.13 475.07 645.34 204.65 177 343.75 177 533 504.84 617.83 651.63 698.92 792.13"/><path class="cls-1" d="M1117.74,303.69h131.18a91.32,91.32,0,0,1,1.87,10.84,110.37,110.37,0,0,1,.74,12.7,148,148,0,0,1-7.85,48.58A112.55,112.55,0,0,1,1219,416.55a123.69,123.69,0,0,1-43,29.52q-25,10.46-57.17,10.47a144.8,144.8,0,0,1-54.94-10.47,136.69,136.69,0,0,1-44.85-29.15,139.93,139.93,0,0,1-30.27-44.28Q977.61,347,977.6,316.77t11.21-55.87a140.2,140.2,0,0,1,30.27-44.29,137,137,0,0,1,44.85-29.15A144.8,144.8,0,0,1,1118.87,177q32.51,0,58.11,11.21a130.36,130.36,0,0,1,43.91,31l-34.76,34A92.78,92.78,0,0,0,1157,232.12q-16.07-7.29-38.49-7.29a93.33,93.33,0,0,0-34.75,6.54,87.25,87.25,0,0,0-28.78,18.5,88.3,88.3,0,0,0-19.62,29q-7.29,17-7.29,37.93t7.29,37.93a86.67,86.67,0,0,0,19.81,29,89,89,0,0,0,29,18.5,94.16,94.16,0,0,0,35.13,6.54q21.3,0,36.06-6.17a84.53,84.53,0,0,0,25.23-15.88,60.51,60.51,0,0,0,12.89-17,96.71,96.71,0,0,0,8.41-23h-84.09Z"/><path class="cls-1" d="M1293.39,183h90.44q31.76,0,57.17,9.72a123.39,123.39,0,0,1,43.35,27.46,119.43,119.43,0,0,1,27.47,42.42q9.54,24.66,9.53,54.19,0,29.89-9.53,54.56a117.52,117.52,0,0,1-27.47,42.23q-17.92,17.56-43.35,27.28t-57.17,9.72h-90.44Zm88.19,219.74q22.05,0,38.87-6.16a76.17,76.17,0,0,0,28-17.38,71.32,71.32,0,0,0,16.82-27.1,114.15,114.15,0,0,0,0-70.63,71.36,71.36,0,0,0-16.82-27.09,75.91,75.91,0,0,0-28-17.38q-16.82-6.16-38.87-6.17h-37.74V402.72Z"/><path class="cls-1" d="M1689.15,303.69h131.17a89.32,89.32,0,0,1,1.87,10.84,110.37,110.37,0,0,1,.74,12.7,148.23,148.23,0,0,1-7.84,48.58,112.71,112.71,0,0,1-24.67,40.74,123.74,123.74,0,0,1-43,29.52q-25,10.46-57.18,10.47a144.8,144.8,0,0,1-54.94-10.47,136.55,136.55,0,0,1-44.84-29.15,139.6,139.6,0,0,1-30.27-44.28Q1549,347,1549,316.77t11.22-55.87a139.87,139.87,0,0,1,30.27-44.29,136.86,136.86,0,0,1,44.84-29.15A144.8,144.8,0,0,1,1690.27,177q32.51,0,58.11,11.21a130.36,130.36,0,0,1,43.91,31l-34.75,34a92.89,92.89,0,0,0-29.15-21.12q-16.08-7.29-38.5-7.29a93.33,93.33,0,0,0-34.75,6.54,87.25,87.25,0,0,0-28.78,18.5,88.3,88.3,0,0,0-19.62,29q-7.29,17-7.28,37.93t7.28,37.93a86.67,86.67,0,0,0,19.81,29,89.07,89.07,0,0,0,29,18.5,94.16,94.16,0,0,0,35.13,6.54q21.3,0,36.06-6.17a84.53,84.53,0,0,0,25.23-15.88,60.51,60.51,0,0,0,12.89-17,96.71,96.71,0,0,0,8.41-23h-84.08Z"/><path class="cls-1" d="M2173.47,407.58A133,133,0,0,1,2126.76,444q-26.91,12.51-60.17,12.52a140.92,140.92,0,0,1-55.49-10.84,135.63,135.63,0,0,1-73.81-73.81,145.56,145.56,0,0,1,0-110.24,135.63,135.63,0,0,1,73.81-73.81A140.74,140.74,0,0,1,2066.59,177q32.14,0,56.62,11.21a131.94,131.94,0,0,1,43.54,32.51l-35.51,34.39a94.9,94.9,0,0,0-27.46-22.05q-15.53-8.22-36.81-8.23a94.32,94.32,0,0,0-35.13,6.54,85.12,85.12,0,0,0-28.59,18.5,87.26,87.26,0,0,0-19.25,29q-7.1,17-7.1,37.93t7.1,37.93a87.12,87.12,0,0,0,19.25,29,84.82,84.82,0,0,0,28.59,18.5A94.12,94.12,0,0,0,2067,408.7q22.41,0,39.8-9.16a97.89,97.89,0,0,0,30.83-26Z"/><path class="cls-1" d="M2204.12,450.56V183h49V450.56Z"/><path class="cls-1" d="M2379.76,261.46a101.87,101.87,0,0,1,39.06,7.29,90.57,90.57,0,0,1,50.82,51,109.25,109.25,0,0,1,0,78.48,90.57,90.57,0,0,1-50.82,51,108.26,108.26,0,0,1-78.11,0,90.57,90.57,0,0,1-50.82-51,109.25,109.25,0,0,1,0-78.48,90.57,90.57,0,0,1,50.82-51A101.82,101.82,0,0,1,2379.76,261.46Zm0,149.86a47.91,47.91,0,0,0,18.13-3.55,46.45,46.45,0,0,0,15.51-10.28,48.86,48.86,0,0,0,10.65-16.44,64,64,0,0,0,0-44.1,48.9,48.9,0,0,0-10.65-16.45,46.42,46.42,0,0,0-15.51-10.27,47.91,47.91,0,0,0-18.13-3.55,47.41,47.41,0,0,0-18.31,3.55,46.87,46.87,0,0,0-15.32,10.27A48.9,48.9,0,0,0,2335.48,337a64,64,0,0,0,0,44.1,48.86,48.86,0,0,0,10.65,16.44,46.9,46.9,0,0,0,15.32,10.28A47.41,47.41,0,0,0,2379.76,411.32Z"/><path class="cls-1" d="M2633.14,426.64h-3A62,62,0,0,1,2607,448.5q-14.58,8-33.26,8-34.75,0-51.76-21.31t-17-56.8v-111h48.95v105q0,19.82,8.79,29.34t25.6,9.53a35.64,35.64,0,0,0,17.75-4.3,41.54,41.54,0,0,0,13.08-11.59,52.54,52.54,0,0,0,8.22-17.19,77.08,77.08,0,0,0,2.8-21.11V267.44h49V450.56h-46Z"/><path class="cls-1" d="M2855.5,428.51h-3q-6.72,11.58-20.93,19.8t-35.13,8.23a79.2,79.2,0,0,1-33.44-7.29,89.33,89.33,0,0,1-28-20.18,95.77,95.77,0,0,1-19.25-30.83,112,112,0,0,1,0-78.48A95.66,95.66,0,0,1,2735,288.93a89,89,0,0,1,28-20.18,79.2,79.2,0,0,1,33.44-7.29q20.93,0,35.13,8.22t20.93,19.81h3l-3-26.16V183h49V450.56h-46Zm-49-17.19a48.81,48.81,0,0,0,18.5-3.55,46.35,46.35,0,0,0,15.51-10.28,51.17,51.17,0,0,0,10.84-16.44,61.2,61.2,0,0,0,0-44.1,51.22,51.22,0,0,0-10.84-16.45A46.32,46.32,0,0,0,2825,310.23a48.81,48.81,0,0,0-18.5-3.55,47,47,0,0,0-18.5,3.73,48.88,48.88,0,0,0-15.51,10.47,51.15,51.15,0,0,0-10.83,16.44,59.21,59.21,0,0,0,0,43.35,51.19,51.19,0,0,0,10.83,16.45A48.85,48.85,0,0,0,2788,407.58,46.8,46.8,0,0,0,2806.54,411.32Z"/><path class="cls-1" d="M3166.09,456.54q-59.41,0-99.4-40-39.61-40-39.62-99.78t39.62-99.41q39.6-40.37,99.4-40.36,60.54,0,98.29,43.72l-24.66,23.92q-28.78-34.75-73.63-34.75-44.48,0-74.36,29.89-29.54,29.54-29.53,77t29.53,77q29.88,29.91,74.36,29.9,46.72,0,81.1-39.24l25,24.29A129.86,129.86,0,0,1,3225.51,444,142.48,142.48,0,0,1,3166.09,456.54Z"/><path class="cls-1" d="M3368.65,261.46q38.11,0,60.16,20.37t22.05,55.87V450.56H3418V425.14h-1.49q-21.3,31.39-56.8,31.4-30.27,0-50.64-17.94t-20.37-44.85q0-28.39,21.49-45.22t57.36-16.81q30.64,0,50.45,11.21v-7.85q0-17.94-14.2-30.46a48.73,48.73,0,0,0-33.26-12.52q-28.77,0-45.59,24.29l-30.27-19.06Q3319.69,261.47,3368.65,261.46Zm-44.48,133q0,13.46,11.4,22.42a41.93,41.93,0,0,0,26.72,9q21.67,0,38.68-16.07t17-37.74q-16.06-12.7-44.84-12.71-20.94,0-34.94,10.09T3324.17,394.5Z"/><path class="cls-1" d="M3524.11,183V450.56h-34.38V183Z"/><path class="cls-1" d="M3645.19,537.26a102.11,102.11,0,0,1-28.77-3.93,92.78,92.78,0,0,1-24.48-11,79.11,79.11,0,0,1-18.87-16.82,70.75,70.75,0,0,1-12-21.67l32.51-13.46a51.51,51.51,0,0,0,19.43,25.79q13.83,9.72,32.14,9.72,28,0,43.73-16.82t15.69-46.34V425.14h-1.49a67.72,67.72,0,0,1-26.35,23,78.87,78.87,0,0,1-36.06,8.41q-35.88,0-61.66-28-25.43-28.77-25.42-69.51t25.42-69.14q25.78-28.39,61.66-28.4a78.74,78.74,0,0,1,36.06,8.41,67.62,67.62,0,0,1,26.35,23h1.49V267.44h32.89V442.71q0,44.09-25,69.13Q3687,537.27,3645.19,537.26Zm1.12-112.12q25.41,0,41.49-18.31,16.82-18.3,16.81-47.83,0-28.77-16.81-47.46-16.46-18.69-41.49-18.69-24.66,0-41.48,18.69T3588,359q0,29.14,16.82,47.46Q3621.65,425.15,3646.31,425.14Z"/><path class="cls-1" d="M3847,261.46q38.11,0,60.16,20.37t22.05,55.87V450.56h-32.88V425.14h-1.5q-21.3,31.39-56.8,31.4-30.27,0-50.64-17.94T3767,393.75q0-28.39,21.49-45.22t57.36-16.81q30.65,0,50.46,11.21v-7.85q0-17.94-14.2-30.46a48.78,48.78,0,0,0-33.27-12.52q-28.77,0-45.59,24.29L3773,297.33Q3798,261.47,3847,261.46Zm-44.48,133q0,13.46,11.4,22.42a41.93,41.93,0,0,0,26.72,9q21.68,0,38.68-16.07t17-37.74q-16.08-12.7-44.85-12.71-20.94,0-34.94,10.09T3802.52,394.5Z"/><path class="cls-1" d="M4002.46,450.56h-34.38V267.44H4001v29.89h1.5q5.22-14.56,21.49-24.85t32-10.27q14.94,0,25.41,4.48L4070.85,300q-6.36-2.61-20.18-2.62-19.44,0-33.82,15.7a52.45,52.45,0,0,0-14.39,36.62Z"/><path class="cls-1" d="M4271.15,267.44,4156.42,531.28h-35.5l42.6-92.31L4088,267.44h37.37L4180,399h.74l53.07-131.54Z"/><path class="cls-1" d="M977.6,1103.94V674h131.51q98.48,0,158.22,59.44T1327.08,889q0,96.67-59.75,155.82t-158.22,59.15Zm55.25-377.1v324.25h76.26q75,0,118.29-42.93T1270.63,889q0-75.66-43.23-118.9t-118.29-43.23Z"/><path class="cls-1" d="M1506,1113.54q-64.86,0-106.89-44.43t-42-112.29q0-67.24,40.83-112t104.48-44.73q65.44,0,104.19,42.33T1645.33,961l-.6,6H1413.54q1.2,43.23,28.83,69.65t66.05,26.42q52.83,0,82.86-52.84l49.24,24q-19.82,37.24-54.94,58.25T1506,1113.54Zm-88.27-192.15h168.73q-2.4-30.63-24.92-50.74t-60.35-20.11q-31.23,0-53.74,19.21T1417.75,921.39Z"/><path class="cls-1" d="M1832.68,1103.94h-55.25L1658.54,809.7h60l86.47,228.18h1.2l87.67-228.18h58.84Z"/><path class="cls-1" d="M2124.5,669.19q30,0,49.24,10.21l-15,48.64a71.51,71.51,0,0,0-32.42-7.21q-20.41,0-33.33,14.11t-12.91,37.53V809.7h76.86v50.44h-76.86v243.8h-55.24V860.14h-55.24V809.7h55.24V767.07q0-43.83,27.92-70.86T2124.5,669.19Z"/><path class="cls-1" d="M2323.86,1113.54q-64.86,0-106.89-44.43t-42-112.29q0-67.24,40.83-112t104.48-44.73q65.45,0,104.19,42.33T2463.17,961l-.61,6H2231.38q1.2,43.23,28.82,69.65t66.06,26.42q52.83,0,82.86-52.84l49.24,24q-19.82,37.24-54.94,58.25T2323.86,1113.54Zm-88.28-192.15h168.74q-2.42-30.63-24.92-50.74t-60.35-20.11q-31.23,0-53.74,19.21T2235.58,921.39Z"/><path class="cls-1" d="M2741.78,1022.27q0,38.43-33.63,64.85t-84.67,26.42q-44.45,0-78.06-23.11a127.46,127.46,0,0,1-48-61l49.24-21q10.82,26.43,31.53,41.13a76.52,76.52,0,0,0,45.33,14.72q26.42,0,44.14-11.41t17.71-27q0-28.21-43.23-41.43l-50.44-12.61q-85.87-21.62-85.87-82.86,0-40.23,32.73-64.56t83.76-24.31q39,0,70.56,18.61T2737,868.55L2687.74,889q-8.43-18.62-27.33-29.13t-42.33-10.51q-21.61,0-38.73,10.81t-17.12,26.42q0,25.23,47.44,36L2654.11,934Q2741.77,955.62,2741.78,1022.27Z"/><path class="cls-1" d="M2903.3,1108.74q-36,0-59.74-22.22t-24.32-61.85V860.14H2767.6V809.7h51.64V719.63h55.24V809.7h72.06v50.44h-72.06v146.52q0,29.43,11.41,39.93t25.82,10.51a55.59,55.59,0,0,0,12.91-1.5,66.21,66.21,0,0,0,11.71-3.91l17.41,49.24Q2932.13,1108.73,2903.3,1108.74Z"/><path class="cls-1" d="M3383.67,1051.09v52.85H3121.86v-55.25l106.29-107.48q53.43-54.63,73.85-82t20.42-57.34q0-27-21-46.24t-54-19.21q-28.23,0-48.64,16.81t-26.42,40.83l-50.44-20.42q12-37.83,46.24-63.95t80.46-26.12q55.84,0,93.08,34.23t37.22,84.07q0,59.45-65.45,128.5l-120.09,120.69Z"/><path class="cls-1" d="M3436.5,898.57q0-93.68,46.24-154.32t118.89-60.65q72.66,0,118.9,61.25,46.23,60.66,46.23,153.72,0,92.48-46.23,154.33-46.25,60.64-118.9,60.64t-118.89-60.64Q3436.5,991.05,3436.5,898.57Zm273.82,0q0-70.85-30-116.49-29.43-45.63-78.67-45.63T3523,782.08q-30,45.64-30,116.49t30,117.1q29.42,45,78.66,45t78.67-45.63Q3710.31,968.83,3710.32,898.57Z"/><path class="cls-1" d="M3967.32,693.21v410.73h-55.24V761.66l-79.87,34.83-21-46.83,120.69-56.45Z"/><path class="cls-1" d="M4320.39,990.45q0,52.85-40.23,87.67-40.84,35.43-99.08,35.42T4082,1078.12q-40.23-34.83-40.23-87.67a106.07,106.07,0,0,1,17.41-59.15Q4076.6,904.59,4109,889v-2.41a128.84,128.84,0,0,1-38.73-38.43q-14.72-22.82-14.71-48,0-49.85,35.43-83.47,34.82-33,90.07-33t90.07,33q35.43,33.63,35.43,83.47,0,25.21-14.71,48a129.07,129.07,0,0,1-38.73,38.43V889q32.41,15.62,49.84,42.33A106.15,106.15,0,0,1,4320.39,990.45Zm-222.18-3a67.49,67.49,0,0,0,6.31,29.43,72.55,72.55,0,0,0,17.41,23.12,79.17,79.17,0,0,0,26.12,15.31,103.72,103.72,0,0,0,66.06,0,79.37,79.37,0,0,0,26.12-15.31,72.69,72.69,0,0,0,17.41-23.12,67.49,67.49,0,0,0,6.31-29.43q0-31.22-24-51.64-24-21-58.85-21t-59.45,21Q4098.22,956.83,4098.21,987.44ZM4112,798.89q0,28.83,19.22,46.54t49.84,17.72q30.63,0,49.84-17.72t19.21-46.54q0-28.82-19.21-45.63t-49.84-16.81q-30.63,0-49.84,16.81T4112,798.89Z"/></svg>