<svg id="Layer_1" data-name="Layer 1" xmlns="http://www.w3.org/2000/svg" viewBox="0 0 1300 1300"><defs><style>.cls-1{fill:#fbbc04;}.cls-2{fill:#34a853;}.cls-3,.cls-4{fill:#4868ed;}.cls-4{opacity:0.1;}.cls-5{fill:#ea4335;}.cls-6{fill:#4285f4;}.cls-7{fill:gray;}</style></defs><title>04 GDG Logo SQ</title><polygon class="cls-1" points="355.14 604.34 299.31 701 211.76 701 311.35 528.52 355.14 604.34"/><polygon class="cls-2" points="311.35 528.52 211.76 701 124.25 701 245.53 490.95 267.6 452.75 311.35 528.52"/><path class="cls-3" d="M430.89,473.11l-32,55.41-43.76-75.81-43.79-75.78L211.76,204.41h87.55l55.83,96.7,43.76,75.82,32,55.45A40.73,40.73,0,0,1,430.89,473.11Z"/><polygon class="cls-3" points="398.9 528.52 355.14 604.34 311.35 528.52 267.6 452.75 124.21 204.41 211.76 204.41 311.35 376.93 355.14 452.71 398.9 528.52"/><polygon class="cls-4" points="355.14 604.34 300.68 547.02 246.25 489.7 267.6 452.75 311.35 528.52 355.14 604.34"/><path class="cls-5" d="M430.89,473.11l-32,55.41-43.76-75.81-43.79-75.78L211.76,204.41h87.55l55.83,96.7,43.76,75.82,32,55.45A40.73,40.73,0,0,1,430.89,473.11Z"/><polygon class="cls-6" points="398.9 528.52 355.14 604.34 311.35 528.52 267.6 452.75 124.21 204.41 211.76 204.41 311.35 376.93 355.14 452.71 398.9 528.52"/><path class="cls-7" d="M600.73,291.67h90.35a62.65,62.65,0,0,1,1.29,7.47,75.64,75.64,0,0,1,.51,8.75,102,102,0,0,1-5.41,33.47,77.38,77.38,0,0,1-17,28.05,85.13,85.13,0,0,1-29.61,20.34Q623.63,397,601.5,397a99.74,99.74,0,0,1-37.84-7.21,94.13,94.13,0,0,1-30.89-20.08,96.45,96.45,0,0,1-20.85-30.5,99.79,99.79,0,0,1,0-77,96.45,96.45,0,0,1,20.85-30.5,94.29,94.29,0,0,1,30.89-20.08,99.74,99.74,0,0,1,37.84-7.21q22.39,0,40,7.72a89.79,89.79,0,0,1,30.24,21.37l-23.94,23.42a64.1,64.1,0,0,0-20.08-14.54q-11.07-5-26.51-5a64,64,0,0,0-23.94,4.51,60,60,0,0,0-19.82,12.74A60.64,60.64,0,0,0,544,274.56a70.49,70.49,0,0,0,0,52.25,59.62,59.62,0,0,0,13.64,19.95,61.3,61.3,0,0,0,19.95,12.74,64.71,64.71,0,0,0,24.2,4.51q14.67,0,24.84-4.25A58,58,0,0,0,644,348.82a41.79,41.79,0,0,0,8.88-11.71,66.29,66.29,0,0,0,5.79-15.83H600.73Z"/><path class="cls-7" d="M721.71,208.53H784q21.88,0,39.39,6.69a85.14,85.14,0,0,1,29.86,18.92,82.31,82.31,0,0,1,18.92,29.22,110.21,110.21,0,0,1,0,74.91,81,81,0,0,1-18.92,29.08,85.88,85.88,0,0,1-29.86,18.8q-17.5,6.69-39.39,6.69H721.71Zm60.75,151.36q15.18,0,26.77-4.25a52.3,52.3,0,0,0,19.31-12A49,49,0,0,0,840.12,325a78.58,78.58,0,0,0,0-48.65,49,49,0,0,0-11.58-18.66,52.3,52.3,0,0,0-19.31-12q-11.58-4.26-26.77-4.25h-26V359.89Z"/><path class="cls-7" d="M994.31,291.67h90.35a60.69,60.69,0,0,1,1.29,7.47,75.64,75.64,0,0,1,.51,8.75,102.24,102.24,0,0,1-5.4,33.47,77.54,77.54,0,0,1-17,28.05,85.18,85.18,0,0,1-29.6,20.34q-17.25,7.2-39.39,7.21a99.78,99.78,0,0,1-37.84-7.21,94.13,94.13,0,0,1-30.89-20.08,96.45,96.45,0,0,1-20.85-30.5,99.79,99.79,0,0,1,0-77,96.45,96.45,0,0,1,20.85-30.5,94.29,94.29,0,0,1,30.89-20.08,99.78,99.78,0,0,1,37.84-7.21q22.39,0,40,7.72a89.83,89.83,0,0,1,30.25,21.37l-23.94,23.42a64.1,64.1,0,0,0-20.08-14.54q-11.07-5-26.52-5a64,64,0,0,0-23.93,4.51,60,60,0,0,0-19.83,12.74,60.8,60.8,0,0,0-13.51,19.95,70.49,70.49,0,0,0,0,52.25,59.76,59.76,0,0,0,13.64,19.95,61.3,61.3,0,0,0,19.95,12.74,64.75,64.75,0,0,0,24.2,4.51q14.67,0,24.84-4.25a58.09,58.09,0,0,0,17.38-10.94,41.79,41.79,0,0,0,8.88-11.71,67.17,67.17,0,0,0,5.79-15.83H994.31Z"/><path class="cls-7" d="M674.35,667.28a91.72,91.72,0,0,1-32.18,25.1Q623.63,701,600.73,701a97.15,97.15,0,0,1-38.23-7.46,93.54,93.54,0,0,1-50.84-50.84,100.36,100.36,0,0,1,0-75.94,93.54,93.54,0,0,1,50.84-50.84,97.15,97.15,0,0,1,38.23-7.46q22.13,0,39,7.72a90.75,90.75,0,0,1,30,22.39l-24.45,23.68a65.41,65.41,0,0,0-18.92-15.18Q615.66,541.4,601,541.4a64.9,64.9,0,0,0-24.19,4.51,58.54,58.54,0,0,0-19.7,12.74,60.28,60.28,0,0,0-13.25,20,72.26,72.26,0,0,0,0,52.26,60.18,60.18,0,0,0,13.25,19.95,58.54,58.54,0,0,0,19.7,12.74,64.89,64.89,0,0,0,24.19,4.5q15.45,0,27.42-6.3a67.41,67.41,0,0,0,21.23-17.89Z"/><path class="cls-7" d="M695.46,696.88V512.57h33.72V696.88Z"/><path class="cls-7" d="M816.44,566.63a70.11,70.11,0,0,1,26.9,5,62.36,62.36,0,0,1,35,35.14,75.25,75.25,0,0,1,0,54.05,62.36,62.36,0,0,1-35,35.14,74.58,74.58,0,0,1-53.8,0,62.36,62.36,0,0,1-35-35.14,75.25,75.25,0,0,1,0-54.05,62.36,62.36,0,0,1,35-35.14A70.11,70.11,0,0,1,816.44,566.63Zm0,103.22a33.07,33.07,0,0,0,12.49-2.44,31.85,31.85,0,0,0,10.68-7.08A33.44,33.44,0,0,0,846.94,649a43.9,43.9,0,0,0,0-30.37,33.54,33.54,0,0,0-7.33-11.33,32,32,0,0,0-10.68-7.08,33.07,33.07,0,0,0-12.49-2.44,32.68,32.68,0,0,0-12.61,2.44,32.32,32.32,0,0,0-10.56,7.08,33.54,33.54,0,0,0-7.33,11.33,43.9,43.9,0,0,0,0,30.37,33.44,33.44,0,0,0,7.33,11.33C796.36,663.42,812,669.85,816.44,669.85Z"/><path class="cls-7" d="M991,680.41h-2.06a42.79,42.79,0,0,1-16,15.06A46.76,46.76,0,0,1,950,701q-23.94,0-35.65-14.67T902.67,647.2V570.75H936.4v72.33q0,13.65,6,20.21t17.64,6.56a24.46,24.46,0,0,0,12.22-3,28.46,28.46,0,0,0,9-8A36.06,36.06,0,0,0,987,647.07a53.38,53.38,0,0,0,1.93-14.54V570.75h33.72V696.88H991Z"/><path class="cls-7" d="M1144.13,681.69h-2.06q-4.63,8-14.42,13.65T1103.46,701a54.54,54.54,0,0,1-23-5,61.47,61.47,0,0,1-19.31-13.9,65.75,65.75,0,0,1-13.25-21.24,77.12,77.12,0,0,1,0-54.05,65.75,65.75,0,0,1,13.25-21.24,61.63,61.63,0,0,1,19.31-13.9,54.54,54.54,0,0,1,23-5q14.41,0,24.19,5.66t14.42,13.65h2.06l-2.06-18V512.57h33.72V696.88h-31.66Zm-33.72-11.84a33.66,33.66,0,0,0,12.74-2.44,31.85,31.85,0,0,0,10.68-7.08A35.16,35.16,0,0,0,1141.3,649a42.15,42.15,0,0,0,0-30.37,35.27,35.27,0,0,0-7.47-11.33,32,32,0,0,0-10.68-7.08,33.66,33.66,0,0,0-12.74-2.44,32.26,32.26,0,0,0-12.74,2.57,33.56,33.56,0,0,0-10.69,7.21,35.08,35.08,0,0,0-7.46,11.33,40.8,40.8,0,0,0,0,29.86,35,35,0,0,0,7.46,11.32,33.39,33.39,0,0,0,10.69,7.21A32.09,32.09,0,0,0,1110.41,669.85Z"/><path class="cls-7" d="M241.72,1051.36q-50.22,0-84-33.8-33.48-33.79-33.48-84.34t33.48-84q33.48-34.11,84-34.12,51.18,0,83.08,37L304,872.25q-24.33-29.38-62.23-29.38-37.59,0-62.86,25.27-25,25-25,65.08t25,65.07q25.26,25.28,62.86,25.27,39.48,0,68.55-33.17l21.16,20.53A109.63,109.63,0,0,1,292,1040.77,120.32,120.32,0,0,1,241.72,1051.36Z"/><path class="cls-7" d="M412.93,886.46q32.22,0,50.86,17.22t18.63,47.23v95.39H454.63v-21.48h-1.27q-18,26.54-48,26.54-25.59,0-42.8-15.17t-17.22-37.9q0-24,18.16-38.22T412,945.85q25.9,0,42.65,9.48v-6.64q0-15.15-12-25.74a41.18,41.18,0,0,0-28.11-10.58q-24.33,0-38.54,20.53l-25.59-16.11Q371.55,886.46,412.93,886.46ZM375.34,998.92q0,11.37,9.63,19a35.43,35.43,0,0,0,22.59,7.58q18.31,0,32.69-13.58T454.63,980Q441,969.23,416.72,969.23q-17.7,0-29.53,8.53T375.34,998.92Z"/><path class="cls-7" d="M544.34,820.13V1046.3H515.28V820.13Z"/><path class="cls-7" d="M646.69,1119.59a86.54,86.54,0,0,1-24.33-3.32,78.6,78.6,0,0,1-20.69-9.32,66.89,66.89,0,0,1-15.95-14.21,60.21,60.21,0,0,1-10.11-18.32L603.09,1063a43.54,43.54,0,0,0,16.43,21.8,46.09,46.09,0,0,0,27.17,8.21q23.68,0,37-14.21t13.26-39.17v-14.85h-1.26a57.17,57.17,0,0,1-22.27,19.43,66.59,66.59,0,0,1-30.48,7.11q-30.33,0-52.12-23.69-21.49-24.33-21.49-58.76t21.49-58.44q21.79-24,52.12-24a66.59,66.59,0,0,1,30.48,7.11A57.25,57.25,0,0,1,695.65,913h1.26V891.52h27.8v148.15q0,37.27-21.16,58.44Q682.06,1119.59,646.69,1119.59Zm.94-94.77q21.48,0,35.07-15.48,14.2-15.47,14.21-40.43,0-24.31-14.21-40.12Q668.79,913,647.63,913q-20.83,0-35.06,15.79t-14.21,40.12q0,24.65,14.21,40.12Q626.79,1024.82,647.63,1024.82Z"/><path class="cls-7" d="M817.27,886.46q32.22,0,50.85,17.22t18.64,47.23v95.39H859v-21.48H857.7q-18,26.54-48,26.54-25.57,0-42.8-15.17t-17.21-37.9q0-24,18.16-38.22t48.49-14.22q25.89,0,42.64,9.48v-6.64q0-15.15-12-25.74a41.2,41.2,0,0,0-28.12-10.58q-24.32,0-38.53,20.53l-25.59-16.11Q775.89,886.46,817.27,886.46Zm-37.6,112.46q0,11.37,9.64,19a35.41,35.41,0,0,0,22.59,7.58q18.32,0,32.69-13.58T859,980q-13.59-10.74-37.9-10.74-17.7,0-29.54,8.53T779.67,998.92Z"/><path class="cls-7" d="M948.67,1046.3H919.61V891.52h27.8v25.27h1.26q4.43-12.31,18.17-21t27-8.68q12.63,0,21.48,3.79L1006.48,919q-5.37-2.21-17.06-2.21-16.42,0-28.59,13.27a44.34,44.34,0,0,0-12.16,31Z"/><path class="cls-7" d="M1175.79,891.52l-97,223h-30l36-78-63.81-145h31.58l46.12,111.19h.64l44.85-111.19Z"/></svg>