<svg id="Layer_1" data-name="Layer 1" xmlns="http://www.w3.org/2000/svg" viewBox="0 0 3000 500"><defs><style>.cls-1{fill:#fff;}</style></defs><title>02 DEVFESTYYC Logo Cropped (White)</title><path class="cls-1" d="M979.42,230.73a49.54,49.54,0,1,1-99.08,0l-1-79.26,0-1.28a49.54,49.54,0,1,1,99.08,0l1,79.26Z"/><circle class="cls-1" cx="929.88" cy="351.11" r="49.54"/><path class="cls-1" d="M791.74,292.26l-174,100.45a49.56,49.56,0,0,1-74.32-42.87v-201A49.56,49.56,0,0,1,617.76,106l173.3,100.06.68.39h0a49.5,49.5,0,0,1,0,85.8Z"/><path class="cls-1" d="M476.22,274.12a49.14,49.14,0,0,1-18.13,18.14l-.43.25L284.11,392.71a49.54,49.54,0,1,1-49.54-85.81l99.66-57.55-99.66-57.54A49.54,49.54,0,1,1,284.11,106l174,100.45A49.52,49.52,0,0,1,476.22,274.12Z"/><path class="cls-1" d="M1050.6,139.67h66.56q33.9,0,59.17,14a96.5,96.5,0,0,1,38.83,39q13.56,25,13.56,57.32t-13.56,57.32a96.52,96.52,0,0,1-38.83,39q-25.27,14-59.17,14H1050.6Zm66.56,195.69q39.13,0,62.1-22.49t23-62.87q0-40.37-23-62.87t-62.1-22.49h-40.68V335.36Z"/><path class="cls-1" d="M1261.08,139.67h127.58v25H1287v73h91.84v24.66H1287v73h101.7v25H1261.08Z"/><path class="cls-1" d="M1404.37,139.67h29l54.55,160,7.4,21.88h1.23l7.7-21.88,57-160h29l-80.74,220.66h-27.12Z"/><path class="cls-1" d="M1612.7,139.67h127.58v25h-101.7v75.5h91.84v24.65h-91.84v95.54H1612.7Z"/><path class="cls-1" d="M1770.17,139.67h127.59v25h-101.7v73h91.84v24.66h-91.84v73h101.7v25H1770.17Z"/><path class="cls-1" d="M1948,349.54q-21.59-15.72-29.59-44.07l25-10.17q5.25,19.72,19.42,32.36a48.38,48.38,0,0,0,33.28,12.64q19.11,0,32.36-10.33t13.25-28.2a32.55,32.55,0,0,0-11.25-25.42q-11.25-10-36.82-18.65l-13.87-4.93q-23.43-8.31-38.21-21.88t-14.8-37.59a52.82,52.82,0,0,1,8.63-29.13,61.71,61.71,0,0,1,24-21.41,73.67,73.67,0,0,1,34.51-8q19.11,0,33.29,7.09t22.65,17.26q8.47,10.17,11.86,20l-24.65,10.48Q2034,178.2,2023,169t-28.82-9.24q-16.95,0-29,9.55t-12,24a25.83,25.83,0,0,0,10.17,21.11q10.17,8.16,30.81,15.25l14.49,4.93q28,10.17,43.76,25.43t15.71,41.45q0,21.25-10.93,35.74a64.5,64.5,0,0,1-27.59,21.27,90,90,0,0,1-34.2,6.78A78.77,78.77,0,0,1,1948,349.54Z"/><path class="cls-1" d="M2142.75,164.64h-61.94v-25h149.77v25H2169V360.33h-26.2Z"/><path class="cls-1" d="M2311.94,258.32l-74.58-118.65h30.51l56.39,92.46h1.23L2381,139.67h30.51l-73.35,118.65v102h-26.19Z"/><path class="cls-1" d="M2489.13,258.32l-74.58-118.65h30.51l56.4,92.46h1.23l55.47-92.46h30.51l-73.35,118.65v102h-26.19Z"/><path class="cls-1" d="M2644.76,350.16a109.27,109.27,0,0,1-41.15-41.45q-14.94-26.35-14.94-58.71t14.94-58.71a109.27,109.27,0,0,1,41.15-41.45q26.19-15.09,58.24-15.1,24.66,0,45.15,9.4a105.18,105.18,0,0,1,35.59,26.66L2764.94,189q-12.63-15.09-27.58-22.19T2703,159.71A88.56,88.56,0,0,0,2658.93,171,83.68,83.68,0,0,0,2627,202.7q-11.88,20.49-11.87,47.3T2627,297.31a83.65,83.65,0,0,0,31.89,31.74A88.46,88.46,0,0,0,2703,340.3q40.07,0,68.11-33l19.1,18.49a111.29,111.29,0,0,1-37.9,28.82A114.07,114.07,0,0,1,2703,365.26Q2670.95,365.26,2644.76,350.16Z"/></svg>