<svg id="Layer_1" data-name="Layer 1" xmlns="http://www.w3.org/2000/svg" viewBox="0 0 1000 1000"><defs><style>.cls-1{fill:#ea4335;}.cls-2{fill:#4285f4;}.cls-3{fill:#fbbc04;}.cls-4{fill:#0f9d58;}.cls-5{fill:#676c72;}</style></defs><title>01 GDGYYC Logo SQ</title><path class="cls-1" d="M295.37,385.42l126.87-73.25a62.42,62.42,0,1,0-62.43-108.12L140.59,330.62Z"/><path class="cls-2" d="M391,573.68a62.43,62.43,0,0,0,31.27-116.49L203,330.62a62.42,62.42,0,1,0-62.42,108.12L359.81,565.31A62.11,62.11,0,0,0,391,573.68Z"/><path class="cls-3" d="M609,573.68a62.07,62.07,0,0,0,31.15-8.37L859.41,438.74,706.6,382.81,577.77,457.19A62.43,62.43,0,0,0,609,573.68Z"/><path class="cls-4" d="M828.14,447.12a62.44,62.44,0,0,0,31.27-116.5L640.19,204.05a62.42,62.42,0,1,0-62.42,108.12L797,438.74A62.09,62.09,0,0,0,828.14,447.12Z"/><path class="cls-5" d="M148.71,795.35A66.74,66.74,0,0,1,124,770.61,70.7,70.7,0,0,1,124,701a67.28,67.28,0,0,1,58.81-33.71A72.32,72.32,0,0,1,210,672.41a54.83,54.83,0,0,1,21,14.48l-11.18,11.17a40.34,40.34,0,0,0-15.94-11.81A54.14,54.14,0,0,0,157,688.81a50.9,50.9,0,0,0-19.23,18.87q-7.25,12.2-7.24,28.12t7.24,28.13a50.71,50.71,0,0,0,19.32,18.87A52.58,52.58,0,0,0,183,789.48q13.18,0,22.07-4.12a49.48,49.48,0,0,0,15.3-10.9,40,40,0,0,0,7.7-12.37,54.64,54.64,0,0,0,3.66-16H183.15V731.59h63a54.56,54.56,0,0,1,.92,9.53,73.27,73.27,0,0,1-3.85,23.54A52,52,0,0,1,231,784.72q-18.15,19.6-48.19,19.6A67.06,67.06,0,0,1,148.71,795.35Z"/><path class="cls-5" d="M266.51,670.22h39.57q20.15,0,35.17,8.33a57.44,57.44,0,0,1,23.09,23.18q8.06,14.84,8.06,34.07t-8.06,34.08a57.44,57.44,0,0,1-23.09,23.18q-15,8.34-35.17,8.33H266.51Zm39.57,116.33q23.26,0,36.91-13.37t13.65-37.38q0-24-13.65-37.37t-36.91-13.37H281.9V786.55Z"/><path class="cls-5" d="M419.12,795.35a66.74,66.74,0,0,1-24.74-24.74,70.7,70.7,0,0,1,0-69.61,67.28,67.28,0,0,1,58.81-33.71,72.32,72.32,0,0,1,27.21,5.12,54.83,54.83,0,0,1,21,14.48L490.2,698.06a40.34,40.34,0,0,0-15.94-11.81,54.14,54.14,0,0,0-46.81,2.56,51,51,0,0,0-19.24,18.87Q401,719.88,401,735.8t7.23,28.13a50.8,50.8,0,0,0,19.33,18.87,52.52,52.52,0,0,0,25.83,6.68q13.2,0,22.08-4.12a49.6,49.6,0,0,0,15.3-10.9,40,40,0,0,0,7.69-12.37,54.33,54.33,0,0,0,3.67-16H453.56V731.59h63a54.56,54.56,0,0,1,.92,9.53,73.55,73.55,0,0,1-3.85,23.54,52.16,52.16,0,0,1-12.27,20.06q-18.15,19.6-48.19,19.6A67,67,0,0,1,419.12,795.35Z"/><path class="cls-5" d="M600.85,740.75l-44.33-70.53h18.14l33.52,55h.73l33-55H660l-43.6,70.53v60.64H600.85Z"/><path class="cls-5" d="M706.19,740.75l-44.33-70.53H680l33.52,55h.74l33-55h18.14l-43.6,70.53v60.64H706.19Z"/><path class="cls-5" d="M798.71,795.35a65,65,0,0,1-24.46-24.64,73,73,0,0,1,0-69.81,65,65,0,0,1,24.46-24.64,68.11,68.11,0,0,1,34.63-9,63.72,63.72,0,0,1,26.84,5.58,62.57,62.57,0,0,1,21.16,15.85l-11.18,10.81a49,49,0,0,0-16.39-13.19,47.18,47.18,0,0,0-20.43-4.22,52.68,52.68,0,0,0-26.2,6.69,49.79,49.79,0,0,0-19,18.87q-7,12.2-7,28.12t7,28.13a49.79,49.79,0,0,0,19,18.87,52.56,52.56,0,0,0,26.2,6.68q23.8,0,40.49-19.6l11.36,11A66.1,66.1,0,0,1,862.65,798a71.24,71.24,0,0,1-63.94-2.65Z"/></svg>