<svg id="Layer_1" data-name="Layer 1" xmlns="http://www.w3.org/2000/svg" viewBox="0 0 2000 1000"><defs><style>.cls-1{fill:#ea4335;}.cls-2{fill:#4285f4;}.cls-3{fill:#fbbc04;}.cls-4{fill:#0f9d58;}.cls-5{fill:#676c72;}</style></defs><title>01 GDG Global Logo</title><path class="cls-1" d="M431.72,500.59l100.69-58.13a49.54,49.54,0,0,0-49.54-85.81l-174,100.45Z"/><path class="cls-2" d="M507.59,650a49.55,49.55,0,0,0,24.82-92.46l-174-100.44a49.54,49.54,0,1,0-49.54,85.81l174,100.44A49.25,49.25,0,0,0,507.59,650Z"/><path class="cls-3" d="M680.66,650a49.29,49.29,0,0,0,24.73-6.65l174-100.44-121.28-44.4-102.25,59A49.55,49.55,0,0,0,680.66,650Z"/><path class="cls-4" d="M854.55,549.55a49.55,49.55,0,0,0,24.82-92.45l-174-100.45a49.54,49.54,0,1,0-49.55,85.81l174,100.45A49.34,49.34,0,0,0,854.55,549.55Z"/><path class="cls-5" d="M1100.89,599.54a111.27,111.27,0,0,1-41.24-41.25q-15.29-26.26-15.28-58t15.28-58.05A112.21,112.21,0,0,1,1157.72,386a120.33,120.33,0,0,1,45.37,8.55q21.23,8.57,35,24.14l-18.64,18.64a67.28,67.28,0,0,0-26.58-19.71,88.29,88.29,0,0,0-34.83-6.88,87.31,87.31,0,0,0-43.23,11.16,84.89,84.89,0,0,0-32.08,31.47q-12.06,20.31-12.06,46.89t12.06,46.9A84.53,84.53,0,0,0,1115,578.61,87.56,87.56,0,0,0,1158,589.76q22,0,36.82-6.87a82.71,82.71,0,0,0,25.51-18.18,66.86,66.86,0,0,0,12.83-20.63,90.7,90.7,0,0,0,6.11-26.73h-81V493.22h105.1A91.46,91.46,0,0,1,1265,509.1a122.36,122.36,0,0,1-6.42,39.26,86.8,86.8,0,0,1-20.47,33.46q-30.24,32.68-80.35,32.69A111.77,111.77,0,0,1,1100.89,599.54Z"/><path class="cls-5" d="M1297.34,390.87h66q33.6,0,58.66,13.9a95.67,95.67,0,0,1,38.49,38.65q13.44,24.74,13.45,56.82t-13.45,56.83A95.67,95.67,0,0,1,1422,595.72q-25.07,13.9-58.66,13.9h-66Zm66,194q38.79,0,61.56-22.3t22.76-62.33q0-40-22.76-62.32t-61.56-22.31H1323V584.87Z"/><path class="cls-5" d="M1551.83,599.54a111.37,111.37,0,0,1-41.25-41.25q-15.27-26.26-15.27-58t15.27-58.05A112.25,112.25,0,0,1,1608.66,386a120.37,120.37,0,0,1,45.37,8.55q21.23,8.57,35,24.14l-18.64,18.64a67.42,67.42,0,0,0-26.58-19.71,88.29,88.29,0,0,0-34.83-6.88,87.31,87.31,0,0,0-43.23,11.16,84.89,84.89,0,0,0-32.08,31.47q-12.08,20.31-12.07,46.89t12.07,46.9a84.57,84.57,0,0,0,32.23,31.47A87.62,87.62,0,0,0,1609,589.76q22,0,36.82-6.87a82.83,82.83,0,0,0,25.51-18.18,66.86,66.86,0,0,0,12.83-20.63,91,91,0,0,0,6.11-26.73h-81V493.22h105.1a91.4,91.4,0,0,1,1.52,15.88,122.63,122.63,0,0,1-6.41,39.26A86.92,86.92,0,0,1,1689,581.82q-30.26,32.68-80.35,32.69A111.77,111.77,0,0,1,1551.83,599.54Z"/></svg>