<svg id="Layer_1" data-name="Layer 1" xmlns="http://www.w3.org/2000/svg" viewBox="0 0 2500 1000"><defs><style>.cls-1{fill:#ea4335;}.cls-2{fill:#4285f4;}.cls-3{fill:#fbbc04;}.cls-4{fill:#0f9d58;}.cls-5{fill:#676c72;}</style></defs><title>01 GDGYYC Logo</title><path class="cls-1" d="M375.14,500.59l100.69-58.13a49.54,49.54,0,0,0-49.54-85.81L252.3,457.1Z"/><path class="cls-2" d="M451,650a49.55,49.55,0,0,0,24.82-92.46l-174-100.44a49.54,49.54,0,1,0-49.55,85.81l174,100.44A49.25,49.25,0,0,0,451,650Z"/><path class="cls-3" d="M624.08,650a49.25,49.25,0,0,0,24.72-6.65l174-100.44-121.28-44.4-102.25,59A49.55,49.55,0,0,0,624.08,650Z"/><path class="cls-4" d="M798,549.55a49.55,49.55,0,0,0,24.82-92.45l-174-100.45a49.54,49.54,0,0,0-49.54,85.81l174,100.45A49.35,49.35,0,0,0,798,549.55Z"/><path class="cls-5" d="M1044.31,599.54a111.3,111.3,0,0,1-41.25-41.25q-15.27-26.26-15.27-58t15.27-58.05A112.25,112.25,0,0,1,1101.14,386a120.37,120.37,0,0,1,45.37,8.55q21.23,8.57,35,24.14l-18.64,18.64a67.42,67.42,0,0,0-26.58-19.71,88.29,88.29,0,0,0-34.83-6.88,87.31,87.31,0,0,0-43.23,11.16,84.82,84.82,0,0,0-32.08,31.47q-12.08,20.31-12.07,46.89t12.07,46.9a84.5,84.5,0,0,0,32.23,31.47,87.62,87.62,0,0,0,43.08,11.15q22,0,36.82-6.87a83,83,0,0,0,25.51-18.18,66.86,66.86,0,0,0,12.83-20.63,91.34,91.34,0,0,0,6.11-26.73h-81V493.22h105.1a91.4,91.4,0,0,1,1.52,15.88,122.63,122.63,0,0,1-6.41,39.26,86.92,86.92,0,0,1-20.47,33.46q-30.26,32.68-80.35,32.69A111.77,111.77,0,0,1,1044.31,599.54Z"/><path class="cls-5" d="M1240.75,390.87h66q33.6,0,58.66,13.9a95.73,95.73,0,0,1,38.49,38.65q13.44,24.74,13.44,56.82t-13.44,56.83a95.73,95.73,0,0,1-38.49,38.65q-25.07,13.9-58.66,13.9h-66Zm66,194q38.79,0,61.56-22.3t22.76-62.33q0-40-22.76-62.32t-61.56-22.31h-40.33V584.87Z"/><path class="cls-5" d="M1495.25,599.54A111.23,111.23,0,0,1,1454,558.29q-15.27-26.26-15.27-58T1454,442.19A112.25,112.25,0,0,1,1552.07,386a120.33,120.33,0,0,1,45.37,8.55q21.24,8.57,35,24.14l-18.64,18.64a67.42,67.42,0,0,0-26.58-19.71,88.29,88.29,0,0,0-34.83-6.88,87.31,87.31,0,0,0-43.23,11.16,84.82,84.82,0,0,0-32.08,31.47Q1465,473.66,1465,500.24t12.07,46.9a84.5,84.5,0,0,0,32.23,31.47,87.57,87.57,0,0,0,43.08,11.15q22,0,36.81-6.87a82.71,82.71,0,0,0,25.51-18.18,66.69,66.69,0,0,0,12.84-20.63,91.34,91.34,0,0,0,6.11-26.73h-81V493.22h105.1a90.5,90.5,0,0,1,1.53,15.88,122.36,122.36,0,0,1-6.42,39.26,86.78,86.78,0,0,1-20.46,33.46q-30.26,32.68-80.36,32.69A111.76,111.76,0,0,1,1495.25,599.54Z"/><path class="cls-5" d="M1798.32,508.49l-73.94-117.62h30.25l55.91,91.65h1.22l55-91.65H1897l-72.71,117.62V609.62h-26Z"/><path class="cls-5" d="M1974,508.49l-73.94-117.62h30.25l55.91,91.65h1.22l55-91.65h30.25L2000,508.49V609.62h-26Z"/><path class="cls-5" d="M2128.27,599.54a108.27,108.27,0,0,1-40.79-41.1q-14.82-26.12-14.81-58.2t14.81-58.2A108.31,108.31,0,0,1,2128.27,401q26-15,57.74-15,24.45,0,44.76,9.32a104.1,104.1,0,0,1,35.29,26.42l-18.64,18q-12.52-15-27.34-22t-34.07-7a87.67,87.67,0,0,0-43.69,11.16,83,83,0,0,0-31.62,31.47q-11.76,20.31-11.76,46.89t11.76,46.9a83,83,0,0,0,31.62,31.47A87.67,87.67,0,0,0,2186,589.76q39.72,0,67.52-32.69l18.95,18.33A110.52,110.52,0,0,1,2234.9,604,113.08,113.08,0,0,1,2186,614.51Q2154.24,614.51,2128.27,599.54Z"/></svg>