<svg id="Layer_1" data-name="Layer 1" xmlns="http://www.w3.org/2000/svg" viewBox="0 0 2400 500"><defs><style>.cls-1{fill:#ea4335;}.cls-2{fill:#4285f4;}.cls-3{fill:#fbbc04;}.cls-4{fill:#0f9d58;}.cls-5{fill:#676c72;}</style></defs><title>01 GDGYYC Logo Cropped</title><path class="cls-1" d="M325.14,250.59l100.69-58.13a49.54,49.54,0,0,0-49.54-85.81L202.3,207.1Z"/><path class="cls-2" d="M401,400a49.55,49.55,0,0,0,24.82-92.46l-174-100.44a49.54,49.54,0,1,0-49.55,85.81l174,100.44A49.25,49.25,0,0,0,401,400Z"/><path class="cls-3" d="M574.08,400a49.25,49.25,0,0,0,24.72-6.65l174-100.44-121.28-44.4-102.25,59A49.55,49.55,0,0,0,574.08,400Z"/><path class="cls-4" d="M748,299.55a49.55,49.55,0,0,0,24.82-92.45l-174-100.45a49.54,49.54,0,0,0-49.54,85.81l174,100.45A49.35,49.35,0,0,0,748,299.55Z"/><path class="cls-5" d="M994.31,349.54a111.3,111.3,0,0,1-41.25-41.25Q937.79,282,937.79,250.24t15.27-58.05A112.25,112.25,0,0,1,1051.14,136a120.37,120.37,0,0,1,45.37,8.55q21.23,8.57,35,24.14l-18.64,18.64a67.42,67.42,0,0,0-26.58-19.71,88.29,88.29,0,0,0-34.83-6.88,87.31,87.31,0,0,0-43.23,11.16,84.82,84.82,0,0,0-32.08,31.47q-12.07,20.31-12.07,46.89t12.07,46.9a84.5,84.5,0,0,0,32.23,31.47,87.62,87.62,0,0,0,43.08,11.15q22,0,36.82-6.87a83,83,0,0,0,25.51-18.18,66.86,66.86,0,0,0,12.83-20.63,91.34,91.34,0,0,0,6.11-26.73h-81V243.22h105.1a91.4,91.4,0,0,1,1.52,15.88,122.63,122.63,0,0,1-6.41,39.26,86.92,86.92,0,0,1-20.47,33.46q-30.26,32.69-80.35,32.69A111.77,111.77,0,0,1,994.31,349.54Z"/><path class="cls-5" d="M1190.75,140.87h66q33.6,0,58.66,13.9a95.73,95.73,0,0,1,38.49,38.65q13.44,24.74,13.44,56.82t-13.44,56.83a95.73,95.73,0,0,1-38.49,38.65q-25.07,13.9-58.66,13.9h-66Zm66,194q38.79,0,61.56-22.3t22.76-62.33q0-40-22.76-62.32t-61.56-22.31h-40.33V334.87Z"/><path class="cls-5" d="M1445.25,349.54A111.23,111.23,0,0,1,1404,308.29q-15.27-26.27-15.27-58.05T1404,192.19A112.25,112.25,0,0,1,1502.07,136a120.33,120.33,0,0,1,45.37,8.55q21.24,8.57,35,24.14l-18.64,18.64a67.42,67.42,0,0,0-26.58-19.71,88.29,88.29,0,0,0-34.83-6.88,87.31,87.31,0,0,0-43.23,11.16,84.82,84.82,0,0,0-32.08,31.47Q1415,223.66,1415,250.24t12.07,46.9a84.5,84.5,0,0,0,32.23,31.47,87.57,87.57,0,0,0,43.08,11.15q22,0,36.81-6.87a82.71,82.71,0,0,0,25.51-18.18,66.69,66.69,0,0,0,12.84-20.63,91.34,91.34,0,0,0,6.11-26.73h-81V243.22h105.1a90.5,90.5,0,0,1,1.53,15.88,122.36,122.36,0,0,1-6.42,39.26,86.78,86.78,0,0,1-20.46,33.46q-30.26,32.69-80.36,32.69A111.76,111.76,0,0,1,1445.25,349.54Z"/><path class="cls-5" d="M1748.32,258.49l-73.94-117.62h30.25l55.91,91.65h1.22l55-91.65H1847l-72.71,117.62V359.62h-26Z"/><path class="cls-5" d="M1924,258.49l-73.94-117.62h30.25l55.91,91.65h1.22l55-91.65h30.25L1950,258.49V359.62h-26Z"/><path class="cls-5" d="M2078.27,349.54a108.27,108.27,0,0,1-40.79-41.1q-14.82-26.12-14.81-58.2t14.81-58.2A108.31,108.31,0,0,1,2078.27,151q26-15,57.74-15,24.45,0,44.76,9.32a104.1,104.1,0,0,1,35.29,26.42l-18.64,18q-12.52-15-27.34-22t-34.07-7a87.67,87.67,0,0,0-43.69,11.16,83,83,0,0,0-31.62,31.47q-11.76,20.31-11.76,46.89t11.76,46.9a83,83,0,0,0,31.62,31.47A87.67,87.67,0,0,0,2136,339.76q39.72,0,67.52-32.69l18.95,18.33A110.52,110.52,0,0,1,2184.9,354,113.08,113.08,0,0,1,2136,364.51Q2104.24,364.51,2078.27,349.54Z"/></svg>