<svg id="Layer_1" data-name="Layer 1" xmlns="http://www.w3.org/2000/svg" viewBox="0 0 2500 1000"><defs><style>.cls-1{fill:#ea4335;}.cls-2{fill:#4285f4;}.cls-3{fill:#fbbc04;}.cls-4{fill:#0f9d58;}.cls-5{fill:#676c72;}.cls-6{fill:gray;}</style></defs><title>01 GDGYYC Logo LBWNT</title><path class="cls-1" d="M375.14,382.15,475.83,324a49.54,49.54,0,0,0-49.54-85.81l-174,100.45Z"/><path class="cls-2" d="M451,531.56a49.55,49.55,0,0,0,24.82-92.45l-174-100.45a49.54,49.54,0,1,0-49.55,85.81l174,100.45A49.34,49.34,0,0,0,451,531.56Z"/><path class="cls-3" d="M624.08,531.56a49.34,49.34,0,0,0,24.72-6.64l174-100.45-121.28-44.4-102.25,59a49.55,49.55,0,0,0,24.82,92.45Z"/><path class="cls-4" d="M798,431.11a49.55,49.55,0,0,0,24.82-92.45l-174-100.45A49.54,49.54,0,0,0,599.26,324l174,100.45A49.35,49.35,0,0,0,798,431.11Z"/><path class="cls-5" d="M1044.31,481.1a111.3,111.3,0,0,1-41.25-41.25q-15.27-26.27-15.27-58.05t15.27-58a112.23,112.23,0,0,1,98.08-56.22,120.37,120.37,0,0,1,45.37,8.55q21.23,8.57,35,24.14l-18.64,18.64a67.42,67.42,0,0,0-26.58-19.71,90.4,90.4,0,0,0-78.06,4.28,84.89,84.89,0,0,0-32.08,31.47q-12.08,20.31-12.07,46.89t12.07,46.9a84.5,84.5,0,0,0,32.23,31.47,87.62,87.62,0,0,0,43.08,11.15q22,0,36.82-6.87a82.78,82.78,0,0,0,25.51-18.18,66.93,66.93,0,0,0,12.83-20.62,91.48,91.48,0,0,0,6.11-26.74h-81V374.78h105.1a91.49,91.49,0,0,1,1.52,15.88,122.58,122.58,0,0,1-6.41,39.26,86.78,86.78,0,0,1-20.47,33.46q-30.26,32.69-80.35,32.69A111.77,111.77,0,0,1,1044.31,481.1Z"/><path class="cls-5" d="M1240.75,272.43h66q33.6,0,58.66,13.9A95.73,95.73,0,0,1,1403.9,325q13.44,24.75,13.44,56.82t-13.44,56.83a95.73,95.73,0,0,1-38.49,38.65q-25.07,13.91-58.66,13.9h-66Zm66,194q38.79,0,61.56-22.3t22.76-62.33q0-40-22.76-62.32t-61.56-22.3h-40.33V466.43Z"/><path class="cls-5" d="M1495.25,481.1A111.23,111.23,0,0,1,1454,439.85q-15.27-26.27-15.27-58.05t15.27-58a112.23,112.23,0,0,1,98.07-56.22,120.33,120.33,0,0,1,45.37,8.55q21.24,8.57,35,24.14l-18.64,18.64a67.42,67.42,0,0,0-26.58-19.71,90.4,90.4,0,0,0-78.06,4.28,84.89,84.89,0,0,0-32.08,31.47Q1465,355.22,1465,381.8t12.07,46.9a84.5,84.5,0,0,0,32.23,31.47,87.57,87.57,0,0,0,43.08,11.15q22,0,36.81-6.87a82.54,82.54,0,0,0,25.51-18.18,66.76,66.76,0,0,0,12.84-20.62,91.48,91.48,0,0,0,6.11-26.74h-81V374.78h105.1a90.58,90.58,0,0,1,1.53,15.88,122.31,122.31,0,0,1-6.42,39.26,86.63,86.63,0,0,1-20.46,33.46q-30.26,32.69-80.36,32.69A111.76,111.76,0,0,1,1495.25,481.1Z"/><path class="cls-5" d="M1798.32,390.05l-73.94-117.62h30.25l55.91,91.65h1.22l55-91.65H1897l-72.71,117.62V491.18h-26Z"/><path class="cls-5" d="M1974,390.05l-73.94-117.62h30.25l55.91,91.65h1.22l55-91.65h30.25L2000,390.05V491.18h-26Z"/><path class="cls-5" d="M2128.27,481.1A108.31,108.31,0,0,1,2087.48,440q-14.82-26.13-14.81-58.21t14.81-58.2a108.31,108.31,0,0,1,40.79-41.09q26-15,57.74-15,24.45,0,44.76,9.32a104,104,0,0,1,35.29,26.43l-18.64,18q-12.52-15-27.34-22t-34.07-7a87.77,87.77,0,0,0-43.69,11.15,83,83,0,0,0-31.62,31.47q-11.76,20.31-11.76,46.89t11.76,46.9a83,83,0,0,0,31.62,31.47A87.67,87.67,0,0,0,2186,471.32q39.72,0,67.52-32.69L2272.48,457a110.52,110.52,0,0,1-37.58,28.57A113.08,113.08,0,0,1,2186,496.07Q2154.24,496.07,2128.27,481.1Z"/><path class="cls-6" d="M547.9,675.33h8.25V737.7H587v7.95H547.9Z"/><path class="cls-6" d="M602.51,743.79a23.89,23.89,0,0,1-8.89-9.48,28.66,28.66,0,0,1-3.2-13.61,29.79,29.79,0,0,1,3-13.35,24.32,24.32,0,0,1,8.5-9.73A22.62,22.62,0,0,1,614.68,694a24.08,24.08,0,0,1,12.77,3.29,21.82,21.82,0,0,1,8.3,9.08,29.32,29.32,0,0,1,2.9,13.26,10.08,10.08,0,0,1-.29,2.56H598.77a19.9,19.9,0,0,0,2.75,9.62,16.08,16.08,0,0,0,6.24,5.9,16.93,16.93,0,0,0,7.91,2q9.62,0,14.83-9l7.07,3.44a25.24,25.24,0,0,1-8.79,9.63,26.53,26.53,0,0,1-26.27.1Zm27.3-28.49A16.18,16.18,0,0,0,628,709a13.42,13.42,0,0,0-5-5.31,15.51,15.51,0,0,0-8.49-2.16,14.11,14.11,0,0,0-10,3.78,18.19,18.19,0,0,0-5.36,10Z"/><path class="cls-6" d="M658.54,746.22a12.64,12.64,0,0,1-4.37-2.7,12.19,12.19,0,0,1-2.95-4.4,16.6,16.6,0,0,1-1-6.1v-29.9H641.5v-7.56h8.74V681.42h8.35v14.14h12.18v7.56H658.59V731q0,4.22,1.57,6.23a6.67,6.67,0,0,0,5.4,2.2,10.13,10.13,0,0,0,5.5-1.67V746a13.32,13.32,0,0,1-3,1,20.62,20.62,0,0,1-3.87.29A15.5,15.5,0,0,1,658.54,746.22Z"/><path class="cls-6" d="M677.54,693l4.82-7.37a5.59,5.59,0,0,1-4.52-5.6,6.09,6.09,0,0,1,1.81-4.47,6,6,0,0,1,4.38-1.81,6.2,6.2,0,0,1,6.28,6.28,7.55,7.55,0,0,1-.64,3.05,22.55,22.55,0,0,1-2,3.53l-6.19,8.94Z"/><path class="cls-6" d="M698.46,743.44a20.65,20.65,0,0,1-7.66-9.67l7.47-3.34a14.92,14.92,0,0,0,5.55,7,14.25,14.25,0,0,0,8.1,2.46,15.88,15.88,0,0,0,8.05-1.92,6.13,6.13,0,0,0,.69-10.51,24.76,24.76,0,0,0-8.35-3.29l-6.09-1.57a21.82,21.82,0,0,1-9.82-5,12.64,12.64,0,0,1-1.23-16.74,16.67,16.67,0,0,1,6.93-5.06,24.37,24.37,0,0,1,9.33-1.77,23.89,23.89,0,0,1,11.74,2.85,16.14,16.14,0,0,1,7.31,7.95l-7.27,3.34q-3.33-6.68-11.88-6.68a13.41,13.41,0,0,0-7.22,1.92q-3.09,1.92-3.09,4.86a5.46,5.46,0,0,0,2.16,4.47,17.13,17.13,0,0,0,6.48,2.8l7.27,1.87q7.37,1.86,11.1,5.54a12.16,12.16,0,0,1,3.73,9,13,13,0,0,1-2.65,8.1,16.91,16.91,0,0,1-7.17,5.36,26.07,26.07,0,0,1-10,1.86Q703.87,747.22,698.46,743.44Z"/><path class="cls-6" d="M761.42,675.33h25.24a21.16,21.16,0,0,1,10,2.45,19.33,19.33,0,0,1,7.42,6.78,17.74,17.74,0,0,1,2.75,9.72,15.47,15.47,0,0,1-2.61,8.94,16.82,16.82,0,0,1-7,5.89v.4a17.73,17.73,0,0,1,8.64,6.09,16,16,0,0,1,3.34,10.11A18.79,18.79,0,0,1,806.26,736a20.16,20.16,0,0,1-7.76,7.12A22.19,22.19,0,0,1,788,745.65H761.42Zm25.24,30.45a11.65,11.65,0,0,0,6.24-1.67,11.86,11.86,0,0,0,4.17-4.28,10.65,10.65,0,0,0,1.48-5.35,10.81,10.81,0,0,0-1.43-5.25,11.76,11.76,0,0,0-4-4.28,11,11,0,0,0-6-1.67H769.67v22.5Zm1.87,31.92a11.56,11.56,0,0,0,6.33-1.77,12.31,12.31,0,0,0,4.33-4.57,11.94,11.94,0,0,0,1.52-5.74,11.69,11.69,0,0,0-1.57-5.75,12.27,12.27,0,0,0-4.42-4.52,12.56,12.56,0,0,0-6.58-1.72H769.67V737.7Z"/><path class="cls-6" d="M821.68,741.92q-4.77-5.31-4.77-14.83V695.56h8.35v30.25q0,7.17,3.24,10.51a11.61,11.61,0,0,0,8.74,3.34,13,13,0,0,0,7.52-2.26,15.32,15.32,0,0,0,5.1-5.89,16.93,16.93,0,0,0,1.82-7.66V695.56H860v50.09h-8v-7.27h-.39a16.48,16.48,0,0,1-6.58,6.29,19.27,19.27,0,0,1-9.62,2.55Q826.44,747.22,821.68,741.92Z"/><path class="cls-6" d="M871.13,684.66a5.77,5.77,0,0,1-1.77-4.23,5.61,5.61,0,0,1,1.77-4.17,6,6,0,0,1,8.44,0,5.61,5.61,0,0,1,1.77,4.17,5.84,5.84,0,0,1-1.72,4.23,6,6,0,0,1-8.49,0Zm.1,10.9h8.25v50.09h-8.25Z"/><path class="cls-6" d="M890.67,675.33H899v70.32h-8.35Z"/><path class="cls-6" d="M918,743.79a24.21,24.21,0,0,1-8.6-9.48,31.37,31.37,0,0,1,0-27.36,24,24,0,0,1,8.6-9.52A22.26,22.26,0,0,1,930.16,694a20.33,20.33,0,0,1,10.31,2.6,19,19,0,0,1,6.87,6.43h.4l-.4-7V675.33h8.35v70.32h-8v-7.36h-.4a19.3,19.3,0,0,1-6.87,6.33,20.33,20.33,0,0,1-10.31,2.6A22.26,22.26,0,0,1,918,743.79Zm21.31-6.49a17.17,17.17,0,0,0,6.09-6.68,22.87,22.87,0,0,0,0-20,17.24,17.24,0,0,0-6.09-6.68,15.34,15.34,0,0,0-16.35,0,16.93,16.93,0,0,0-6.14,6.73,22.67,22.67,0,0,0,0,19.94A17,17,0,0,0,923,737.3a15.34,15.34,0,0,0,16.35,0Z"/><path class="cls-6" d="M978.48,675.33h9.23L1000.48,727l1.18,4.81h.39l1.47-4.81,15.72-51.66h8.64l15,51.66,1.47,4.81h.4l13.84-56.47h9.24l-19,70.32h-8.64l-14.93-50.88-1.57-5.5h-.4l-1.66,5.5-15.52,50.88h-8.65Z"/><path class="cls-6" d="M1073.75,675.33h8.35v20.72l-.4,6.88h.4a16.34,16.34,0,0,1,6.53-6.39,19.39,19.39,0,0,1,9.77-2.55q9.13,0,13.95,5.35t4.81,14.19v32.12h-8.35V714.81q0-6.78-3.43-10a12.53,12.53,0,0,0-8.94-3.24,12.13,12.13,0,0,0-7.22,2.36,17.32,17.32,0,0,0-7.12,13.85v27.89h-8.35Z"/><path class="cls-6" d="M1132.88,745.06a16.12,16.12,0,0,1-6.68-5.94,15.93,15.93,0,0,1-2.36-8.59,14.64,14.64,0,0,1,6-12.43q6-4.47,15.13-4.47a34.29,34.29,0,0,1,8.39,1,22,22,0,0,1,6,2.26v-3a11.29,11.29,0,0,0-3.93-9,14.65,14.65,0,0,0-9.92-3.39,16.74,16.74,0,0,0-7.76,1.82,14.2,14.2,0,0,0-5.6,5.06l-6.29-4.72a20.19,20.19,0,0,1,8.11-7.07,25.46,25.46,0,0,1,11.44-2.55q10.22,0,16.06,5.35t5.84,14.59v31.72h-8v-7.17h-.4a17.91,17.91,0,0,1-6.48,6.19,18.76,18.76,0,0,1-9.72,2.55A21.65,21.65,0,0,1,1132.88,745.06Zm18.46-7.36a16.44,16.44,0,0,0,5.8-5.8,15.26,15.26,0,0,0,2.16-7.95,20.74,20.74,0,0,0-5.8-2.56,26.49,26.49,0,0,0-7.27-1q-6.87,0-10.36,2.85a9.07,9.07,0,0,0-3.48,7.36,8.18,8.18,0,0,0,3.14,6.68,12.16,12.16,0,0,0,8,2.56A15.1,15.1,0,0,0,1151.34,737.7Z"/><path class="cls-6" d="M1189.5,746.22a12.64,12.64,0,0,1-4.37-2.7,12.32,12.32,0,0,1-3-4.4,16.81,16.81,0,0,1-1-6.1v-29.9h-8.74v-7.56h8.74V681.42h8.35v14.14h12.18v7.56h-12.18V731q0,4.22,1.57,6.23a6.67,6.67,0,0,0,5.4,2.2,10.13,10.13,0,0,0,5.5-1.67V746a13.41,13.41,0,0,1-3,1,20.81,20.81,0,0,1-3.88.29A15.54,15.54,0,0,1,1189.5,746.22Z"/><path class="cls-6" d="M1208.5,693l4.82-7.37a5.59,5.59,0,0,1-4.52-5.6,6.06,6.06,0,0,1,1.82-4.47,5.94,5.94,0,0,1,4.37-1.81,6.18,6.18,0,0,1,6.28,6.28,7.55,7.55,0,0,1-.64,3.05,22.55,22.55,0,0,1-2,3.53l-6.19,8.94Z"/><path class="cls-6" d="M1229.43,743.44a20.61,20.61,0,0,1-7.67-9.67l7.47-3.34a14.92,14.92,0,0,0,5.55,7,14.25,14.25,0,0,0,8.1,2.46,15.88,15.88,0,0,0,8-1.92,6.13,6.13,0,0,0,.69-10.51,24.76,24.76,0,0,0-8.35-3.29l-6.09-1.57a21.87,21.87,0,0,1-9.82-5,12.64,12.64,0,0,1-1.23-16.74,16.67,16.67,0,0,1,6.93-5.06,24.37,24.37,0,0,1,9.33-1.77,23.87,23.87,0,0,1,11.74,2.85,16.14,16.14,0,0,1,7.31,7.95l-7.26,3.34q-3.35-6.68-11.89-6.68a13.43,13.43,0,0,0-7.22,1.92q-3.09,1.92-3.09,4.86a5.46,5.46,0,0,0,2.16,4.47,17.13,17.13,0,0,0,6.48,2.8l7.27,1.87q7.36,1.86,11.1,5.54a12.16,12.16,0,0,1,3.73,9,13,13,0,0,1-2.65,8.1,16.91,16.91,0,0,1-7.17,5.36,26.07,26.07,0,0,1-10,1.86Q1234.82,747.22,1229.43,743.44Z"/><path class="cls-6" d="M1292.38,675.33h10.22l35.26,56h.39l-.39-13.55V675.33h8.34v70.32h-8.64L1300.63,687h-.39l.39,13.55v45.08h-8.25Z"/><path class="cls-6" d="M1367.71,743.79a23.93,23.93,0,0,1-8.88-9.48,28.66,28.66,0,0,1-3.2-13.61,29.79,29.79,0,0,1,3-13.35,24.37,24.37,0,0,1,8.49-9.73,22.67,22.67,0,0,1,12.77-3.63,24.1,24.1,0,0,1,12.77,3.29,21.82,21.82,0,0,1,8.3,9.08,29.32,29.32,0,0,1,2.9,13.26,9.62,9.62,0,0,1-.3,2.56H1364a19.79,19.79,0,0,0,2.75,9.62,16.08,16.08,0,0,0,6.24,5.9,16.89,16.89,0,0,0,7.9,2q9.63,0,14.84-9l7.07,3.44a25.24,25.24,0,0,1-8.79,9.63,26.54,26.54,0,0,1-26.28.1ZM1395,715.3a16.18,16.18,0,0,0-1.77-6.28,13.42,13.42,0,0,0-5-5.31,15.52,15.52,0,0,0-8.5-2.16,14.1,14.1,0,0,0-10,3.78,18.19,18.19,0,0,0-5.36,10Z"/><path class="cls-6" d="M1423.4,720.21,1406,695.56h9.43l13,18.56,12.48-18.56h9.72l-17.48,24.65L1451,745.65h-9.72l-13.06-19.25-12.77,19.25h-9.73Z"/><path class="cls-6" d="M1470.1,746.22a12.73,12.73,0,0,1-4.37-2.7,12.17,12.17,0,0,1-2.94-4.4,16.6,16.6,0,0,1-1-6.1v-29.9h-8.75v-7.56h8.75V681.42h8.34v14.14h12.18v7.56h-12.18V731q0,4.22,1.58,6.23a6.67,6.67,0,0,0,5.4,2.2,10.13,10.13,0,0,0,5.5-1.67V746a13.32,13.32,0,0,1-3,1,20.74,20.74,0,0,1-3.88.29A15.58,15.58,0,0,1,1470.1,746.22Z"/><path class="cls-6" d="M1491.52,743.92a5.61,5.61,0,0,1-1.82-4.26,5.51,5.51,0,0,1,1.82-4.16,6.2,6.2,0,0,1,4.47-1.73,6.1,6.1,0,0,1,4.37,1.73,5.53,5.53,0,0,1,1.81,4.16,5.64,5.64,0,0,1-1.81,4.26,6.14,6.14,0,0,1-4.37,1.73A6.25,6.25,0,0,1,1491.52,743.92Z"/><path class="cls-6" d="M1548.83,687.9h-19.65V675.33h52.55V687.9h-19.65v57.75h-13.25Z"/><path class="cls-6" d="M1590.86,743.74a24.7,24.7,0,0,1-9.47-9.53,28.9,28.9,0,0,1,0-27.16,24.54,24.54,0,0,1,9.47-9.57,29,29,0,0,1,27.6,0,24.63,24.63,0,0,1,9.48,9.57,28.9,28.9,0,0,1,0,27.16,24.8,24.8,0,0,1-9.48,9.53,29.1,29.1,0,0,1-27.6,0Zm20.73-10.17a13,13,0,0,0,5-5.11,15.85,15.85,0,0,0,1.86-7.85,15.66,15.66,0,0,0-1.86-7.76,13,13,0,0,0-5-5.11,14.24,14.24,0,0,0-13.75,0,13.29,13.29,0,0,0-5.06,5.11,15.27,15.27,0,0,0-1.92,7.76,15.52,15.52,0,0,0,1.92,7.8,13.22,13.22,0,0,0,5.06,5.16,14.24,14.24,0,0,0,13.75,0Z"/><path class="cls-6" d="M1646.45,764.17A21.12,21.12,0,0,1,1638,753.9l12.08-4.91a12.91,12.91,0,0,0,12.18,8q6.09,0,9.67-3.73t3.59-10.6v-3.93h-.79a15.16,15.16,0,0,1-6.19,5.1,20.58,20.58,0,0,1-8.74,1.77,22.14,22.14,0,0,1-11.54-3.19,23.54,23.54,0,0,1-8.59-9,30.16,30.16,0,0,1,0-27.2,23.54,23.54,0,0,1,8.59-9,22.14,22.14,0,0,1,11.54-3.19,20.58,20.58,0,0,1,8.74,1.77,15.24,15.24,0,0,1,6.19,5.1h.79v-5.3h12.37v46.65a29.31,29.31,0,0,1-3.14,13.95,22,22,0,0,1-8.94,9.09,27.72,27.72,0,0,1-13.55,3.19Q1652.73,768.44,1646.45,764.17Zm25.25-34q3.83-3.78,3.83-10.36,0-6.78-3.79-10.46a13.54,13.54,0,0,0-18.61,0q-3.83,3.74-3.83,10.41t3.83,10.41a12.88,12.88,0,0,0,9.33,3.73A12.7,12.7,0,0,0,1671.7,730.18Z"/><path class="cls-6" d="M1708,743.79a24.69,24.69,0,0,1-9.38-9.48,28.58,28.58,0,0,1-.05-26.91,25.67,25.67,0,0,1,9.23-9.78A24.6,24.6,0,0,1,1721,694a25.58,25.58,0,0,1,13.36,3.34,21.79,21.79,0,0,1,8.49,9.13,28.28,28.28,0,0,1,2.9,12.87,31.43,31.43,0,0,1-.29,4.32h-37.62c.65,4,2.24,7,4.76,9.09a13.9,13.9,0,0,0,9.09,3.09,14.48,14.48,0,0,0,7.61-1.92,14.12,14.12,0,0,0,5.06-5.15l10.41,5.11q-7.66,13.35-23.28,13.35A26.55,26.55,0,0,1,1708,743.79Zm25.34-29.27a10,10,0,0,0-1.72-4.67,12,12,0,0,0-4.23-3.83,12.73,12.73,0,0,0-6.33-1.52,12.08,12.08,0,0,0-7.91,2.7,15.15,15.15,0,0,0-4.76,7.32Z"/><path class="cls-6" d="M1767.16,746.07a13.57,13.57,0,0,1-5.1-3.15q-4.62-4.51-4.62-12.82V706.56h-8.74v-11h8.74V681.42h12.87v14.14h12.27v11h-12.27v21.31c0,2.63.55,4.51,1.67,5.66q1.37,1.61,4.71,1.61a8.34,8.34,0,0,0,3.09-.49A23.58,23.58,0,0,0,1783,733v12.57a24,24,0,0,1-8.94,1.67A19.83,19.83,0,0,1,1767.16,746.07Z"/><path class="cls-6" d="M1791.81,675.33h12.87v17.78l-.78,8.74h.78a15.66,15.66,0,0,1,6.29-5.7,19,19,0,0,1,8.93-2.16q9.13,0,14,5.45t4.86,15.08v31.13H1825.9V716.09q0-4.82-2.61-7.47a9.28,9.28,0,0,0-6.92-2.65,10.28,10.28,0,0,0-8.4,4.13,15.72,15.72,0,0,0-3.29,10.11v25.44h-12.87Z"/><path class="cls-6" d="M1859,743.79a24.76,24.76,0,0,1-9.38-9.48,28.62,28.62,0,0,1,0-26.91,25.67,25.67,0,0,1,9.23-9.78A24.58,24.58,0,0,1,1872,694a25.6,25.6,0,0,1,13.36,3.34,21.79,21.79,0,0,1,8.49,9.13,28.41,28.41,0,0,1,2.9,12.87,31.43,31.43,0,0,1-.29,4.32H1858.8c.65,4,2.24,7,4.76,9.09a13.9,13.9,0,0,0,9.09,3.09,14.51,14.51,0,0,0,7.61-1.92,14.12,14.12,0,0,0,5.06-5.15l10.41,5.11q-7.67,13.35-23.28,13.35A26.58,26.58,0,0,1,1859,743.79Zm25.34-29.27a10,10,0,0,0-1.71-4.67,12.1,12.1,0,0,0-4.23-3.83,12.73,12.73,0,0,0-6.33-1.52,12.06,12.06,0,0,0-7.91,2.7,15.15,15.15,0,0,0-4.76,7.32Z"/><path class="cls-6" d="M1904.67,695.56h12.08v6.68h.78a15.08,15.08,0,0,1,5.8-5.89,17.14,17.14,0,0,1,14.93-1.18v12.77a42.21,42.21,0,0,0-4.47-1.43,16.71,16.71,0,0,0-3.88-.44,11,11,0,0,0-9,4.14,16,16,0,0,0-3.34,10.43v25h-12.86Z"/><path class="cls-6" d="M1937.52,743.23a7.8,7.8,0,0,1-2.51-5.83,7.67,7.67,0,0,1,2.51-5.78,8.88,8.88,0,0,1,12.08,0,7.66,7.66,0,0,1,2.5,5.78,7.79,7.79,0,0,1-2.5,5.83,8.75,8.75,0,0,1-12.08,0Z"/></svg>