<svg id="Layer_1" data-name="Layer 1" xmlns="http://www.w3.org/2000/svg" viewBox="0 0 2400 500"><defs><style>.cls-1{fill:#fff;}</style></defs><title>02 GDGYYC Logo Cropped (White)</title><path class="cls-1" d="M425.84,192.46l-89.76,51.81-79.27-45.76a59.48,59.48,0,0,0-26-7.86l145.5-84a49.54,49.54,0,0,1,49.54,85.81Z"/><path class="cls-1" d="M401,400a49.28,49.28,0,0,1-24.71-6.64l-174-100.46a49.54,49.54,0,0,1-18.13-67.67,49,49,0,0,1,18.13-18.13l.7-.41a49.5,49.5,0,0,1,48.84.41L326.16,250l99.68,57.54A49.55,49.55,0,0,1,401,400Z"/><path class="cls-1" d="M444,375.22a49.52,49.52,0,0,1-67.67,18.14l-174-100.46a49.54,49.54,0,0,1-18.13-67.67,49,49,0,0,1,18.13-18.13l.7-.41a49.5,49.5,0,0,1,48.84.41L326.16,250l99.68,57.54A49.55,49.55,0,0,1,444,375.22Z"/><path class="cls-1" d="M744.29,309.35l-145.48,84a49.55,49.55,0,0,1-49.55-85.82L639,255.72l5,2.86,74.31,42.91A59.3,59.3,0,0,0,744.29,309.35Z"/><path class="cls-1" d="M772.77,292.89h0l-.84.48a49.47,49.47,0,0,1-48.7-.48L648.93,250l-99.67-57.54a49.54,49.54,0,1,1,49.55-85.81l174,100.45a49.51,49.51,0,0,1,0,85.79Z"/><path class="cls-1" d="M790.92,274.77a49.2,49.2,0,0,1-18.15,18.12h0l-.84.48a49.47,49.47,0,0,1-48.7-.48L648.93,250l-99.67-57.54a49.54,49.54,0,1,1,49.55-85.81l174,100.45A49.54,49.54,0,0,1,790.92,274.77Z"/><path class="cls-1" d="M994.31,349.54a111.37,111.37,0,0,1-41.25-41.25Q937.79,282,937.79,250.24t15.27-58.05A112.25,112.25,0,0,1,1051.14,136a120.37,120.37,0,0,1,45.37,8.55q21.23,8.57,35,24.14l-18.64,18.64a67.42,67.42,0,0,0-26.58-19.71,90.4,90.4,0,0,0-78.06,4.28,84.89,84.89,0,0,0-32.08,31.47q-12.07,20.31-12.07,46.89t12.07,46.9a84.5,84.5,0,0,0,32.23,31.47,87.62,87.62,0,0,0,43.08,11.15q22,0,36.82-6.87a83,83,0,0,0,25.51-18.18,66.86,66.86,0,0,0,12.83-20.63,91.34,91.34,0,0,0,6.11-26.73h-81V243.22h105.09a90.5,90.5,0,0,1,1.53,15.88,122.58,122.58,0,0,1-6.41,39.26,86.92,86.92,0,0,1-20.47,33.46q-30.26,32.69-80.35,32.69A111.77,111.77,0,0,1,994.31,349.54Z"/><path class="cls-1" d="M1190.75,140.87h66q33.62,0,58.66,13.9a95.75,95.75,0,0,1,38.5,38.65q13.44,24.74,13.44,56.82t-13.44,56.83a95.75,95.75,0,0,1-38.5,38.65q-25.05,13.9-58.66,13.9h-66Zm66,194q38.8,0,61.57-22.3t22.76-62.33q0-40-22.76-62.32t-61.57-22.3h-40.32V334.87Z"/><path class="cls-1" d="M1445.24,349.54A111.27,111.27,0,0,1,1404,308.29q-15.29-26.27-15.28-58.05T1404,192.19A112.21,112.21,0,0,1,1502.07,136a120.33,120.33,0,0,1,45.37,8.55q21.22,8.57,35,24.14l-18.63,18.64a67.42,67.42,0,0,0-26.58-19.71,88.28,88.28,0,0,0-34.83-6.87,87.35,87.35,0,0,0-43.23,11.15,84.82,84.82,0,0,0-32.08,31.47Q1415,223.66,1415,250.24t12.07,46.9a84.5,84.5,0,0,0,32.23,31.47,87.57,87.57,0,0,0,43.08,11.15q22,0,36.81-6.87a82.71,82.71,0,0,0,25.51-18.18,66.67,66.67,0,0,0,12.83-20.63,90.7,90.7,0,0,0,6.11-26.73h-81V243.22h105.1a90.5,90.5,0,0,1,1.53,15.88,122.31,122.31,0,0,1-6.42,39.26,86.8,86.8,0,0,1-20.47,33.46q-30.24,32.69-80.35,32.69A111.8,111.8,0,0,1,1445.24,349.54Z"/><path class="cls-1" d="M1748.31,258.49l-73.93-117.62h30.24l55.91,91.65h1.23l55-91.65H1847l-72.72,117.62V359.62h-26Z"/><path class="cls-1" d="M1924,258.49l-73.93-117.62h30.24l55.91,91.65h1.22l55-91.65h30.24L1950,258.49V359.62h-26Z"/><path class="cls-1" d="M2078.26,349.54a108.17,108.17,0,0,1-40.78-41.1q-14.82-26.12-14.82-58.2t14.82-58.2A108.22,108.22,0,0,1,2078.26,151q26-15,57.75-15,24.43,0,44.75,9.32a104,104,0,0,1,35.29,26.43l-18.63,18q-12.54-15-27.35-22t-34.06-7a87.74,87.74,0,0,0-43.69,11.15,83,83,0,0,0-31.62,31.47q-11.77,20.31-11.77,46.89t11.77,46.9a83,83,0,0,0,31.62,31.47A87.64,87.64,0,0,0,2136,339.76q39.7,0,67.52-32.69l18.94,18.33A110.52,110.52,0,0,1,2184.89,354,113,113,0,0,1,2136,364.51Q2104.23,364.51,2078.26,349.54Z"/></svg>