<svg id="Layer_1" data-name="Layer 1" xmlns="http://www.w3.org/2000/svg" viewBox="0 0 2000 1000"><title>03 GDG Logoe (Black)</title><path d="M532.42,442.46l-89.76,51.81-79.27-45.76a59.48,59.48,0,0,0-26-7.86l145.5-84a49.54,49.54,0,0,1,49.54,85.81Z"/><path d="M507.59,650a49.28,49.28,0,0,1-24.71-6.64l-174-100.46a49.54,49.54,0,0,1-18.13-67.67,49,49,0,0,1,18.13-18.13l.7-.41a49.5,49.5,0,0,1,48.84.41L432.74,500l99.68,57.54A49.55,49.55,0,0,1,507.59,650Z"/><path d="M550.55,625.22a49.52,49.52,0,0,1-67.67,18.14l-174-100.46a49.54,49.54,0,0,1-18.13-67.67,49,49,0,0,1,18.13-18.13l.7-.41a49.5,49.5,0,0,1,48.84.41L432.74,500l99.68,57.54A49.55,49.55,0,0,1,550.55,625.22Z"/><path d="M850.87,559.35l-145.48,84a49.55,49.55,0,0,1-49.55-85.82l89.76-51.82,5,2.86,74.31,42.91A59.3,59.3,0,0,0,850.87,559.35Z"/><path d="M879.35,542.89h0l-.84.48a49.47,49.47,0,0,1-48.7-.48L755.51,500l-99.67-57.54a49.54,49.54,0,1,1,49.55-85.81l174,100.45a49.51,49.51,0,0,1,0,85.79Z"/><path d="M897.5,524.77a49.2,49.2,0,0,1-18.15,18.12h0l-.84.48a49.47,49.47,0,0,1-48.7-.48L755.51,500l-99.67-57.54a49.54,49.54,0,1,1,49.55-85.81l174,100.45A49.54,49.54,0,0,1,897.5,524.77Z"/><path d="M1100.89,599.54a111.27,111.27,0,0,1-41.24-41.25q-15.29-26.26-15.28-58t15.28-58.05A112.21,112.21,0,0,1,1157.72,386a120.37,120.37,0,0,1,45.37,8.55q21.23,8.57,35,24.14l-18.64,18.64a67.42,67.42,0,0,0-26.58-19.71,90.4,90.4,0,0,0-78.06,4.28,85,85,0,0,0-32.08,31.47q-12.07,20.31-12.07,46.89t12.07,46.9a84.57,84.57,0,0,0,32.23,31.47A87.62,87.62,0,0,0,1158,589.76q22,0,36.82-6.87a82.83,82.83,0,0,0,25.51-18.18,66.86,66.86,0,0,0,12.83-20.63,91.34,91.34,0,0,0,6.11-26.73h-81V493.22h105.09A90.5,90.5,0,0,1,1265,509.1a122.58,122.58,0,0,1-6.41,39.26,86.92,86.92,0,0,1-20.47,33.46q-30.25,32.68-80.35,32.69A111.77,111.77,0,0,1,1100.89,599.54Z"/><path d="M1297.33,390.87h66q33.6,0,58.65,13.9a95.75,95.75,0,0,1,38.5,38.65q13.44,24.74,13.44,56.82t-13.44,56.83a95.75,95.75,0,0,1-38.5,38.65q-25.05,13.9-58.65,13.9h-66Zm66,194q38.79,0,61.56-22.3t22.76-62.33q0-40-22.76-62.32t-61.56-22.3H1323V584.87Z"/><path d="M1551.82,599.54a111.27,111.27,0,0,1-41.24-41.25q-15.28-26.26-15.28-58t15.28-58.05A112.21,112.21,0,0,1,1608.65,386a120.33,120.33,0,0,1,45.37,8.55q21.23,8.57,35,24.14l-18.63,18.64a67.42,67.42,0,0,0-26.58-19.71,88.28,88.28,0,0,0-34.83-6.87,87.38,87.38,0,0,0-43.23,11.15,84.82,84.82,0,0,0-32.08,31.47q-12.08,20.31-12.07,46.89t12.07,46.9a84.5,84.5,0,0,0,32.23,31.47A87.57,87.57,0,0,0,1609,589.76q22,0,36.81-6.87a82.71,82.71,0,0,0,25.51-18.18,66.67,66.67,0,0,0,12.83-20.63,90.7,90.7,0,0,0,6.11-26.73h-81V493.22h105.1a90.5,90.5,0,0,1,1.53,15.88,122.31,122.31,0,0,1-6.42,39.26A86.8,86.8,0,0,1,1689,581.82q-30.24,32.68-80.35,32.69A111.8,111.8,0,0,1,1551.82,599.54Z"/></svg>