<svg id="Layer_1" data-name="Layer 1" xmlns="http://www.w3.org/2000/svg" viewBox="0 0 1000 1000"><title>03 GDG Icon (Black)</title><path d="M438.29,442.46l-89.76,51.81-79.27-45.76a59.48,59.48,0,0,0-26-7.86l145.5-84a49.54,49.54,0,0,1,49.54,85.81Z"/><path d="M413.46,650a49.31,49.31,0,0,1-24.71-6.64l-174-100.46a49.54,49.54,0,0,1,0-85.8l.71-.41a49.48,49.48,0,0,1,48.83.41L338.61,500l99.68,57.54A49.55,49.55,0,0,1,413.46,650Z"/><path d="M456.42,625.22a49.52,49.52,0,0,1-67.67,18.14l-174-100.46a49.54,49.54,0,0,1,0-85.8l.71-.41a49.48,49.48,0,0,1,48.83.41L338.61,500l99.68,57.54A49.55,49.55,0,0,1,456.42,625.22Z"/><path d="M756.75,559.35l-145.49,84a49.55,49.55,0,0,1-49.55-85.82l89.76-51.82,5,2.86,74.31,42.91A59.34,59.34,0,0,0,756.75,559.35Z"/><path d="M785.22,542.89h0l-.83.48a49.75,49.75,0,0,1-24,6.17,49.25,49.25,0,0,1-24.72-6.65L661.39,500l-99.68-57.54a49.54,49.54,0,1,1,49.55-85.81l174,100.45a49.51,49.51,0,0,1,0,85.79Z"/><path d="M803.37,524.77a49.13,49.13,0,0,1-18.15,18.12h0l-.83.48a49.75,49.75,0,0,1-24,6.17,49.25,49.25,0,0,1-24.72-6.65L661.39,500l-99.68-57.54a49.54,49.54,0,1,1,49.55-85.81l174,100.45A49.54,49.54,0,0,1,803.37,524.77Z"/></svg>