<svg id="Layer_1" data-name="Layer 1" xmlns="http://www.w3.org/2000/svg" viewBox="0 0 1000 1000"><defs><style>.cls-1{fill:#fff;}</style></defs><title>03 GDGYYC Logo SQ (Black)</title><path class="cls-1" d="M422.24,312.17l-113.1,65.3-99.89-57.66a74.74,74.74,0,0,0-32.76-9.91L359.82,204.06a62.42,62.42,0,1,1,62.42,108.11Z"/><path class="cls-1" d="M391,573.69a62.14,62.14,0,0,1-31.14-8.37L140.59,438.74a62.42,62.42,0,0,1,0-108.12c.3-.17.58-.35.88-.51a62.34,62.34,0,0,1,61.54.51l93.64,54.07,125.59,72.5A62.44,62.44,0,0,1,391,573.69Z"/><path class="cls-1" d="M445.09,542.46a62.39,62.39,0,0,1-85.27,22.86L140.59,438.74a62.42,62.42,0,0,1,0-108.12c.3-.17.58-.35.88-.51a62.34,62.34,0,0,1,61.54.51l93.64,54.07,125.59,72.5A62.43,62.43,0,0,1,445.09,542.46Z"/><path class="cls-1" d="M823.51,459.46,640.19,565.32a62.43,62.43,0,0,1-62.43-108.13l113.1-65.31,6.25,3.61,93.64,54.07A74.6,74.6,0,0,0,823.51,459.46Z"/><path class="cls-1" d="M859.39,438.73h0l-1,.6a62.33,62.33,0,0,1-61.37-.6l-93.64-54.06L577.76,312.17a62.42,62.42,0,1,1,62.43-108.11L859.41,330.62a62.39,62.39,0,0,1,0,108.11Z"/><path class="cls-1" d="M882.26,415.89a62.07,62.07,0,0,1-22.87,22.84h0l-1,.6a62.33,62.33,0,0,1-61.37-.6l-93.64-54.06L577.76,312.17a62.42,62.42,0,1,1,62.43-108.11L859.41,330.62A62.42,62.42,0,0,1,882.26,415.89Z"/><path class="cls-1" d="M148.71,795.35A66.74,66.74,0,0,1,124,770.61,70.7,70.7,0,0,1,124,701a67.28,67.28,0,0,1,58.81-33.71A72.32,72.32,0,0,1,210,672.41a54.83,54.83,0,0,1,21,14.48l-11.18,11.17a40.34,40.34,0,0,0-15.94-11.81A54.23,54.23,0,0,0,157,688.81a51,51,0,0,0-19.24,18.87q-7.23,12.2-7.23,28.12t7.23,28.13a50.8,50.8,0,0,0,19.33,18.87A52.55,52.55,0,0,0,183,789.48q13.18,0,22.07-4.12a49.6,49.6,0,0,0,15.3-10.9A40,40,0,0,0,228,762.09a54.33,54.33,0,0,0,3.67-16H183.15V731.59h63a54.56,54.56,0,0,1,.92,9.53,73.27,73.27,0,0,1-3.85,23.54A52,52,0,0,1,231,784.72q-18.15,19.6-48.19,19.6A67,67,0,0,1,148.71,795.35Z"/><path class="cls-1" d="M266.51,670.22h39.57q20.15,0,35.17,8.33a57.44,57.44,0,0,1,23.09,23.18q8.06,14.84,8.06,34.07t-8.06,34.08a57.44,57.44,0,0,1-23.09,23.18q-15,8.34-35.17,8.33H266.51Zm39.57,116.33q23.26,0,36.91-13.37t13.65-37.38q0-24-13.65-37.37t-36.91-13.37H281.9V786.55Z"/><path class="cls-1" d="M419.11,795.35a66.79,66.79,0,0,1-24.73-24.74,70.7,70.7,0,0,1,0-69.61,67.25,67.25,0,0,1,58.81-33.71,72.32,72.32,0,0,1,27.21,5.12,54.72,54.72,0,0,1,21,14.48L490.2,698.06a40.34,40.34,0,0,0-15.94-11.81,54.23,54.23,0,0,0-46.81,2.56,51,51,0,0,0-19.24,18.87Q401,719.88,401,735.8t7.23,28.13a50.8,50.8,0,0,0,19.33,18.87,52.52,52.52,0,0,0,25.83,6.68q13.2,0,22.08-4.12a49.6,49.6,0,0,0,15.3-10.9,40,40,0,0,0,7.69-12.37,54.33,54.33,0,0,0,3.67-16H453.56V731.59h63a54.56,54.56,0,0,1,.92,9.53,73.55,73.55,0,0,1-3.85,23.54,52,52,0,0,1-12.28,20.06q-18.14,19.6-48.18,19.6A67.07,67.07,0,0,1,419.11,795.35Z"/><path class="cls-1" d="M600.85,740.75l-44.33-70.53h18.14l33.52,55h.74l33-55H660l-43.6,70.53v60.64H600.85Z"/><path class="cls-1" d="M706.2,740.75l-44.34-70.53H680l33.52,55h.74l33-55h18.14l-43.6,70.53v60.64H706.2Z"/><path class="cls-1" d="M798.71,795.35a64.93,64.93,0,0,1-24.45-24.64,73,73,0,0,1,0-69.81,64.93,64.93,0,0,1,24.45-24.64,68.14,68.14,0,0,1,34.63-9,63.69,63.69,0,0,1,26.84,5.58,62.57,62.57,0,0,1,21.16,15.85l-11.18,10.81a49,49,0,0,0-16.39-13.19,47.18,47.18,0,0,0-20.43-4.21,52.67,52.67,0,0,0-26.2,6.68,49.79,49.79,0,0,0-19,18.87q-7,12.2-7,28.12t7,28.13a49.79,49.79,0,0,0,19,18.87,52.56,52.56,0,0,0,26.2,6.68q23.82,0,40.49-19.6l11.36,11A66.1,66.1,0,0,1,862.65,798a71.24,71.24,0,0,1-63.94-2.65Z"/></svg>