<svg id="Layer_1" data-name="Layer 1" xmlns="http://www.w3.org/2000/svg" viewBox="0 0 4745.21 500"><defs><style>.cls-1{fill:#ea4335;}.cls-2{fill:#4285f4;}.cls-3{fill:#fbbc04;}.cls-4{fill:#0f9d58;}.cls-5{fill:#676c72;}.cls-6{fill:none;}</style></defs><title>04 GDG Global Logo</title><path class="cls-1" d="M397.9,235.21l101.56-58.64a50,50,0,0,0-50-86.55L274,191.34Z"/><path class="cls-2" d="M474.43,385.92a50,50,0,0,0,25-93.26L324,191.34a50,50,0,1,0-50,86.56L449.49,379.22A49.77,49.77,0,0,0,474.43,385.92Z"/><path class="cls-3" d="M649,385.92a49.77,49.77,0,0,0,24.94-6.7L849.44,277.9,727.11,233.12,624,292.66a50,50,0,0,0,25,93.26Z"/><path class="cls-4" d="M824.4,284.6a50,50,0,0,0,25-93.26L673.94,90a50,50,0,0,0-50,86.55L799.46,277.9A49.8,49.8,0,0,0,824.4,284.6Z"/><path class="cls-5" d="M1072.89,335a112.16,112.16,0,0,1-41.61-41.6q-15.4-26.51-15.41-58.56t15.41-58.55a113.22,113.22,0,0,1,98.93-56.7,121.56,121.56,0,0,1,45.76,8.62q21.42,8.64,35.29,24.35l-18.8,18.8a68.07,68.07,0,0,0-26.81-19.88,89.09,89.09,0,0,0-35.14-6.93,88.09,88.09,0,0,0-43.6,11.25,85.62,85.62,0,0,0-32.36,31.74q-12.18,20.49-12.17,47.3t12.17,47.31a85.3,85.3,0,0,0,32.51,31.74,88.41,88.41,0,0,0,43.45,11.25q22.2,0,37.14-6.94a83.21,83.21,0,0,0,25.73-18.33,67.49,67.49,0,0,0,12.95-20.8,92,92,0,0,0,6.16-27h-81.67V227.78h106a91.27,91.27,0,0,1,1.55,16,123.37,123.37,0,0,1-6.48,39.6,87.57,87.57,0,0,1-20.64,33.75q-30.51,33-81,33A112.69,112.69,0,0,1,1072.89,335Z"/><path class="cls-5" d="M1295.08,339a77.64,77.64,0,0,1-28.82-30.2,91.54,91.54,0,0,1,0-84.45,77.71,77.71,0,0,1,28.82-30.2q18.5-11.09,41.6-11.09t41.61,11.09a77.75,77.75,0,0,1,28.81,30.2,91.54,91.54,0,0,1,0,84.45,77.68,77.68,0,0,1-28.81,30.2q-18.49,11.09-41.61,11.09T1295.08,339Zm68.57-19.88a53.58,53.58,0,0,0,20-20.8q7.54-13.56,7.55-31.74t-7.55-31.75a53.65,53.65,0,0,0-20-20.8,52.9,52.9,0,0,0-27-7.24,53.51,53.51,0,0,0-47.3,28q-7.56,13.57-7.55,31.75t7.55,31.74a53.9,53.9,0,0,0,74.27,20.8Z"/><path class="cls-5" d="M1472.59,339a77.57,77.57,0,0,1-28.82-30.2,91.54,91.54,0,0,1,0-84.45,77.63,77.63,0,0,1,28.82-30.2q18.48-11.09,41.6-11.09t41.6,11.09a77.71,77.71,0,0,1,28.82,30.2,91.54,91.54,0,0,1,0,84.45,77.64,77.64,0,0,1-28.82,30.2q-18.48,11.09-41.6,11.09T1472.59,339Zm68.56-19.88a53.54,53.54,0,0,0,20-20.8q7.55-13.56,7.55-31.74t-7.55-31.75a53.61,53.61,0,0,0-20-20.8,52.89,52.89,0,0,0-27-7.24,53.54,53.54,0,0,0-47.31,28q-7.55,13.57-7.55,31.75t7.55,31.74a53.9,53.9,0,0,0,74.27,20.8Z"/><path class="cls-5" d="M1642.54,403.74q-18-12.94-24.19-31.12l23.73-10.17a46.9,46.9,0,0,0,17.41,22q12.16,8.47,28.82,8.48,24.33,0,37.75-13.59t13.4-38.8V323h-1.23a57.55,57.55,0,0,1-21.73,19.57q-14,7.55-31.89,7.55a68.25,68.25,0,0,1-37.14-10.59q-16.8-10.61-26.65-29.61T1611,266.61q0-24,9.87-43.16t26.65-29.76a68.17,68.17,0,0,1,37.14-10.6q17.87,0,31.89,7.55a56.67,56.67,0,0,1,21.73,19.88h1.23V188h25V339q0,37.91-21,57.78t-55.16,19.88Q1660.57,416.69,1642.54,403.74Zm71.5-84.55a51.3,51.3,0,0,0,18.49-20.65q6.93-13.47,6.93-31.93,0-18.78-6.93-32.24T1714,213.86a50.34,50.34,0,0,0-51.62.16,51,51,0,0,0-18.65,20.66q-6.93,13.47-6.93,31.93t6.93,32.08q6.95,13.62,18.65,20.66a49.2,49.2,0,0,0,25.89,7A47.71,47.71,0,0,0,1714,319.19Z"/><path class="cls-5" d="M1797.09,124.54h26.19V345.19h-26.19Z"/><path class="cls-5" d="M1884,339.33a74.91,74.91,0,0,1-27.89-29.73q-10-19-10-42.69a93.6,93.6,0,0,1,9.4-41.91,76.15,76.15,0,0,1,26.65-30.51q17.27-11.4,40.07-11.4,23.11,0,40.06,10.32a68.58,68.58,0,0,1,26,28.51q9.09,18.2,9.09,41.6a31,31,0,0,1-.92,8h-124.2q.93,17.86,8.63,30.2a50.24,50.24,0,0,0,19.57,18.49,53.11,53.11,0,0,0,24.81,6.16q30.2,0,46.53-28.35L1994,308.83a79.12,79.12,0,0,1-27.58,30.2q-17.42,11.09-42.07,11.09Q1901.88,350.12,1884,339.33ZM1969.67,250a51.34,51.34,0,0,0-5.55-19.72,42.23,42.23,0,0,0-15.56-16.64q-10.63-6.78-26.66-6.78-18.5,0-31.28,11.86T1873.82,250Z"/><path class="cls-5" d="M2092.32,124.54h66.56q33.9,0,59.17,14a96.56,96.56,0,0,1,38.83,39q13.56,25,13.56,57.32t-13.56,57.32a96.52,96.52,0,0,1-38.83,39q-25.28,14-59.17,14h-66.56Zm66.56,195.69q39.13,0,62.1-22.5t23-62.87q0-40.37-23-62.86t-62.1-22.5H2118.2V320.23Z"/><path class="cls-5" d="M2322.52,339.33a74.77,74.77,0,0,1-27.89-29.73q-10-19-10-42.69A93.6,93.6,0,0,1,2294,225a76.18,76.18,0,0,1,26.66-30.51q17.25-11.4,40.06-11.4,23.11,0,40.06,10.32a68.58,68.58,0,0,1,26,28.51q9.09,18.2,9.1,41.6a30.53,30.53,0,0,1-.93,8H2310.81q.92,17.86,8.63,30.2A50.21,50.21,0,0,0,2339,320.23a53.11,53.11,0,0,0,24.81,6.16q30.21,0,46.54-28.35l22.19,10.79A79.15,79.15,0,0,1,2405,339q-17.41,11.09-42.06,11.09Q2340.39,350.12,2322.52,339.33ZM2408.19,250a51,51,0,0,0-5.55-19.72,42.16,42.16,0,0,0-15.56-16.64q-10.64-6.78-26.66-6.78-18.48,0-31.28,11.86T2312.35,250Z"/><path class="cls-5" d="M2439.93,188h28l48.7,126.35h.61L2566.59,188H2594l-64.1,157.17h-26.51Z"/><path class="cls-5" d="M2634.39,339.33a74.77,74.77,0,0,1-27.89-29.73q-10-19-10-42.69a93.6,93.6,0,0,1,9.4-41.91,76.1,76.1,0,0,1,26.66-30.51q17.25-11.4,40.06-11.4,23.12,0,40.06,10.32a68.58,68.58,0,0,1,26,28.51q9.09,18.2,9.09,41.6a30.56,30.56,0,0,1-.92,8h-124.2q.93,17.86,8.63,30.2a50.31,50.31,0,0,0,19.57,18.49,53.11,53.11,0,0,0,24.81,6.16q30.2,0,46.53-28.35l22.19,10.79a79.12,79.12,0,0,1-27.58,30.2q-17.42,11.09-42.06,11.09Q2652.26,350.12,2634.39,339.33ZM2720.06,250a51.34,51.34,0,0,0-5.55-19.72A42.16,42.16,0,0,0,2699,213.6q-10.63-6.78-26.66-6.78-18.49,0-31.28,11.86T2624.22,250Z"/><path class="cls-5" d="M2772.14,124.54h26.19V345.19h-26.19Z"/><path class="cls-5" d="M2860.28,339a77.57,77.57,0,0,1-28.82-30.2,91.54,91.54,0,0,1,0-84.45,77.63,77.63,0,0,1,28.82-30.2q18.48-11.09,41.6-11.09t41.6,11.09a77.71,77.71,0,0,1,28.82,30.2,91.54,91.54,0,0,1,0,84.45,77.64,77.64,0,0,1-28.82,30.2q-18.48,11.09-41.6,11.09T2860.28,339Zm68.57-19.88a53.58,53.58,0,0,0,20-20.8q7.54-13.56,7.55-31.74t-7.55-31.75a53.65,53.65,0,0,0-20-20.8,52.9,52.9,0,0,0-27-7.24,53.51,53.51,0,0,0-47.3,28q-7.56,13.57-7.55,31.75t7.55,31.74a53.9,53.9,0,0,0,74.27,20.8Z"/><path class="cls-5" d="M3004.2,188h25v23.42h1.23q7.08-12,21.42-20.18a63.89,63.89,0,0,1,32.2-8.17,70.7,70.7,0,0,1,38.22,10.79,74.91,74.91,0,0,1,27.11,29.89q9.87,19.11,9.87,42.84,0,24-9.87,43a75.19,75.19,0,0,1-27.11,29.73A70.7,70.7,0,0,1,3084,350.12a63.89,63.89,0,0,1-32.2-8.17q-14.34-8.16-21.42-19.87h-1.23l1.23,21.57v68.11H3004.2Zm102.31,131a53.45,53.45,0,0,0,19.26-21.12q7.23-13.69,7.24-31.27t-7.24-31.28a53.42,53.42,0,0,0-19.26-21.11,47.91,47.91,0,0,0-51.16,0,52.47,52.47,0,0,0-19.1,20.95q-7.1,13.56-7.09,31.44t7.09,31.43a52.56,52.56,0,0,0,19.1,21,48,48,0,0,0,51.16,0Z"/><path class="cls-5" d="M3213.14,339.33a74.77,74.77,0,0,1-27.89-29.73q-10-19-10-42.69a93.6,93.6,0,0,1,9.4-41.91,76.1,76.1,0,0,1,26.66-30.51q17.25-11.4,40.06-11.4,23.12,0,40.06,10.32a68.58,68.58,0,0,1,26,28.51q9.09,18.2,9.09,41.6a30.56,30.56,0,0,1-.92,8h-124.2q.93,17.86,8.63,30.2a50.31,50.31,0,0,0,19.57,18.49,53.11,53.11,0,0,0,24.81,6.16q30.2,0,46.53-28.35l22.19,10.79a79.12,79.12,0,0,1-27.58,30.2q-17.42,11.09-42.06,11.09Q3231,350.12,3213.14,339.33ZM3298.81,250a51.34,51.34,0,0,0-5.55-19.72,42.16,42.16,0,0,0-15.56-16.64q-10.63-6.78-26.66-6.78-18.49,0-31.28,11.86T3203,250Z"/><path class="cls-5" d="M3350.89,188h25v25.27h1.23q4.62-12.94,17.88-21.57a50.06,50.06,0,0,1,27.73-8.63q10.79,0,18.49,3.39v28a49,49,0,0,0-22.19-4.93,36.53,36.53,0,0,0-20.95,6.49,46.61,46.61,0,0,0-15.26,17.45,50.49,50.49,0,0,0-5.7,23.63v88h-26.19Z"/><path class="cls-5" d="M3570.92,335a112.2,112.2,0,0,1-41.6-41.6q-15.42-26.51-15.41-58.56t15.41-58.55a113.19,113.19,0,0,1,98.92-56.7,121.58,121.58,0,0,1,45.77,8.62q21.42,8.64,35.28,24.35l-18.79,18.8a68,68,0,0,0-26.82-19.88,89,89,0,0,0-35.13-6.93,88.09,88.09,0,0,0-43.6,11.25,85.62,85.62,0,0,0-32.36,31.74q-12.18,20.49-12.17,47.3t12.17,47.31a85.3,85.3,0,0,0,32.51,31.74,88.38,88.38,0,0,0,43.45,11.25q22.18,0,37.14-6.94a83.21,83.21,0,0,0,25.73-18.33,67.28,67.28,0,0,0,12.94-20.8,92,92,0,0,0,6.17-27h-81.67V227.78h106a91.2,91.2,0,0,1,1.54,16,123.36,123.36,0,0,1-6.47,39.6,87.47,87.47,0,0,1-20.65,33.75q-30.49,33-81.05,33A112.72,112.72,0,0,1,3570.92,335Z"/><path class="cls-5" d="M3757.68,188h25v25.27h1.23q4.62-12.94,17.88-21.57a50.06,50.06,0,0,1,27.73-8.63q10.79,0,18.49,3.39v28a49,49,0,0,0-22.19-4.93,36.53,36.53,0,0,0-21,6.49,46.61,46.61,0,0,0-15.26,17.45,50.49,50.49,0,0,0-5.7,23.63v88h-26.19Z"/><path class="cls-5" d="M3888.65,339a77.61,77.61,0,0,1-28.81-30.2,91.46,91.46,0,0,1,0-84.45,77.68,77.68,0,0,1,28.81-30.2q18.49-11.09,41.61-11.09t41.6,11.09a77.61,77.61,0,0,1,28.81,30.2,91.46,91.46,0,0,1,0,84.45,77.54,77.54,0,0,1-28.81,30.2q-18.49,11.09-41.6,11.09T3888.65,339Zm68.57-19.88a53.51,53.51,0,0,0,20-20.8q7.55-13.56,7.55-31.74t-7.55-31.75a53.58,53.58,0,0,0-20-20.8,52.89,52.89,0,0,0-27-7.24,53.54,53.54,0,0,0-47.31,28q-7.56,13.57-7.55,31.75t7.55,31.74a53.9,53.9,0,0,0,74.27,20.8Z"/><path class="cls-5" d="M4047.52,333.48q-15-16.65-14.95-46.54V188h26.19v94.92q0,22.5,10.17,33t27.43,10.48a40.66,40.66,0,0,0,23.58-7.09,48.06,48.06,0,0,0,16-18.49,53,53,0,0,0,5.7-24V188h26.2V345.19h-25V322.38h-1.24q-6.46,11.73-20.64,19.73a60.47,60.47,0,0,1-30.2,8Q4062.46,350.12,4047.52,333.48Z"/><path class="cls-5" d="M4199.29,188h25v23.42h1.23q7.1-12,21.42-20.18a64,64,0,0,1,32.21-8.17,70.67,70.67,0,0,1,38.21,10.79,75,75,0,0,1,27.12,29.89q9.86,19.11,9.86,42.84,0,24-9.86,43a75.29,75.29,0,0,1-27.12,29.73,70.67,70.67,0,0,1-38.21,10.79A64,64,0,0,1,4246.9,342q-14.32-8.16-21.42-19.87h-1.23l1.23,21.57v68.11h-26.19ZM4301.6,319a53.3,53.3,0,0,0,19.26-21.12q7.24-13.69,7.25-31.27t-7.25-31.28a53.27,53.27,0,0,0-19.26-21.11,47.89,47.89,0,0,0-51.15,0,52.42,52.42,0,0,0-19.11,20.95q-7.1,13.56-7.09,31.44t7.09,31.43a52.51,52.51,0,0,0,19.11,21,47.95,47.95,0,0,0,51.15,0Z"/><path class="cls-5" d="M4389.74,338.26a64.71,64.71,0,0,1-24-30.36l23.42-10.48q5.85,14.19,17.41,21.88A44.84,44.84,0,0,0,4432,327q14.79,0,25.27-6t10.48-17.11q0-9.86-8.32-15.87T4433.2,277.7l-19.11-4.93q-18.81-4.62-30.82-15.72t-12-28.66a37.36,37.36,0,0,1,8.17-23.88,52.25,52.25,0,0,1,21.72-15.87,76.55,76.55,0,0,1,29.28-5.55q20.64,0,36.83,8.94t23,25l-22.81,10.48q-10.47-21-37.29-21-12.95,0-22.65,6t-9.71,15.26a17.06,17.06,0,0,0,6.79,14q6.77,5.38,20.33,8.78l22.81,5.86q23.11,5.85,34.82,17.41a38.09,38.09,0,0,1,11.71,28.2,40.81,40.81,0,0,1-8.32,25.42q-8.31,10.93-22.49,16.79a81.52,81.52,0,0,1-31.44,5.86Q4406.68,350.12,4389.74,338.26Z"/><rect class="cls-6" x="-1" y="125" width="250" height="250"/><rect class="cls-6" x="249" y="125" width="250" height="250"/><rect class="cls-6" x="4244.21" y="125" width="250" height="250"/><rect class="cls-6" x="4494.21" y="125" width="250" height="250"/></svg>