<svg id="Layer_1" data-name="Layer 1" xmlns="http://www.w3.org/2000/svg" viewBox="0 0 4000 1300"><defs><style>.cls-1{fill:#676c72;}</style></defs><title>05 LBWNT Bold</title><path class="cls-1" d="M476,208.18H501.9V403.87h96.77v25H476Z"/><path class="cls-1" d="M647.36,423a74.87,74.87,0,0,1-27.89-29.74q-10-19-10-42.69a93.6,93.6,0,0,1,9.4-41.91,76.08,76.08,0,0,1,26.65-30.51q17.26-11.4,40.06-11.4,23.11,0,40.07,10.33a68.56,68.56,0,0,1,26,28.5q9.09,18.19,9.09,41.61a31,31,0,0,1-.92,8H635.65q.93,17.88,8.63,30.2a50.24,50.24,0,0,0,19.57,18.49A53.11,53.11,0,0,0,688.66,410q30.2,0,46.53-28.35l22.19,10.79a79.2,79.2,0,0,1-27.58,30.2q-17.41,11.08-42.07,11.09Q665.23,433.76,647.36,423ZM733,333.61a51.14,51.14,0,0,0-5.54-19.73,42.19,42.19,0,0,0-15.57-16.64q-10.62-6.78-26.65-6.78-18.49,0-31.28,11.87t-16.8,31.28Z"/><path class="cls-1" d="M823.17,430.63a40.27,40.27,0,0,1-13.71-8.48,38.58,38.58,0,0,1-9.25-13.8q-3.08-7.85-3.08-19.14V295.39H769.7V271.66h27.43V227.28h26.2v44.38h38.21v23.73H823.33V383q0,13.23,4.93,19.53,5.85,6.93,17,6.93a32,32,0,0,0,17.25-5.24v25.58a40.71,40.71,0,0,1-9.4,3.08,66.49,66.49,0,0,1-12.17.92A49.23,49.23,0,0,1,823.17,430.63Z"/><path class="cls-1" d="M882.8,263.65l15.1-23.11A17.55,17.55,0,0,1,883.73,223a19,19,0,0,1,5.7-14,18.69,18.69,0,0,1,13.71-5.7A19.47,19.47,0,0,1,922.86,223a23.85,23.85,0,0,1-2,9.55,73.81,73.81,0,0,1-6.32,11.1l-19.41,28Z"/><path class="cls-1" d="M948.45,421.9a64.67,64.67,0,0,1-24-30.36l23.42-10.48q5.85,14.19,17.41,21.88a44.85,44.85,0,0,0,25.43,7.71q14.79,0,25.27-6t10.47-17.1q0-9.87-8.32-15.87T991.9,361.34l-19.11-4.93Q954,351.79,942,340.69T930,312a37.43,37.43,0,0,1,8.17-23.88,52.29,52.29,0,0,1,21.73-15.87,76.53,76.53,0,0,1,29.27-5.55q20.65,0,36.83,8.94t23,25l-22.8,10.48q-10.48-21-37.29-21a42.19,42.19,0,0,0-22.65,6q-9.72,6-9.71,15.26a17.08,17.08,0,0,0,6.78,14q6.78,5.38,20.34,8.78l22.8,5.86q23.11,5.85,34.83,17.41a38.13,38.13,0,0,1,11.71,28.2,40.85,40.85,0,0,1-8.32,25.42,52.87,52.87,0,0,1-22.5,16.8,81.65,81.65,0,0,1-31.43,5.85Q965.4,433.76,948.45,421.9Z"/><path class="cls-1" d="M1146,208.18h79.2a66.24,66.24,0,0,1,31.28,7.7,60.37,60.37,0,0,1,23.27,21.27,55.65,55.65,0,0,1,8.63,30.51q0,16-8.17,28a53.23,53.23,0,0,1-22,18.49v1.23a55.8,55.8,0,0,1,27.12,19.11q10.47,13.56,10.47,31.74a58.88,58.88,0,0,1-9.09,32.21,63,63,0,0,1-24.34,22.34,69.55,69.55,0,0,1-32.82,8H1146Zm79.2,95.53a36.38,36.38,0,0,0,19.57-5.24,37.16,37.16,0,0,0,13.1-13.4,33.69,33.69,0,0,0,4.62-16.8,34,34,0,0,0-4.47-16.49,36.72,36.72,0,0,0-12.63-13.4,34.38,34.38,0,0,0-18.95-5.24h-54.55v70.57ZM1231,403.87a36.46,36.46,0,0,0,19.88-5.55A38.5,38.5,0,0,0,1264.47,384a37.22,37.22,0,0,0,4.78-18,36.33,36.33,0,0,0-4.93-18,38.24,38.24,0,0,0-13.87-14.18,39.22,39.22,0,0,0-20.64-5.39h-57.94v75.5Z"/><path class="cls-1" d="M1335,417.12q-15-16.64-14.94-46.53V271.66h26.19v94.92q0,22.5,10.17,33T1383.89,410a40.61,40.61,0,0,0,23.57-7.09,48.09,48.09,0,0,0,16-18.49,53,53,0,0,0,5.7-24V271.66h26.19V428.83h-25V406h-1.23q-6.48,11.72-20.65,19.72a60.44,60.44,0,0,1-30.2,8Q1350,433.76,1335,417.12Z"/><path class="cls-1" d="M1490.2,237.45a18.09,18.09,0,0,1-5.54-13.25,17.59,17.59,0,0,1,5.54-13.09,19,19,0,0,1,26.51,0,17.57,17.57,0,0,1,5.55,13.09,18.35,18.35,0,0,1-5.4,13.25,18.78,18.78,0,0,1-26.66,0Zm.31,34.21h25.89V428.83h-25.89Z"/><path class="cls-1" d="M1551.53,208.18h26.2V428.83h-26.2Z"/><path class="cls-1" d="M1637.36,423a75.61,75.61,0,0,1-27-29.74q-9.87-19-9.87-43,0-23.73,9.87-42.84a75.3,75.3,0,0,1,27-29.89,69.9,69.9,0,0,1,38.06-10.79q18.18,0,32.36,8.17t21.57,20.18h1.23l-1.23-21.88v-65h26.19V428.83h-25V405.72h-1.23q-7.39,11.71-21.57,19.88t-32.36,8.16A69.89,69.89,0,0,1,1637.36,423Zm66.87-20.34a54.14,54.14,0,0,0,19.11-21q7.25-13.56,7.24-31.43t-7.24-31.44a54,54,0,0,0-19.11-20.95,48.17,48.17,0,0,0-51.31,0A53.42,53.42,0,0,0,1633.66,319q-7.25,13.71-7.24,31.28t7.24,31.28a53.49,53.49,0,0,0,19.26,21.11,48.23,48.23,0,0,0,51.31,0Z"/><path class="cls-1" d="M1827,208.18h29l40.06,162.1,3.7,15.1H1901l4.62-15.1,49.31-162.1h27.12l47.15,162.1,4.62,15.1h1.24l43.45-177.2h29L2048,428.83h-27.12L1974,269.2l-4.93-17.26h-1.24l-5.23,17.26-48.7,159.63h-27.12Z"/><path class="cls-1" d="M2126,208.18h26.2v65l-1.23,21.57h1.23q6.47-12,20.49-20a60.75,60.75,0,0,1,30.66-8q28.67,0,43.77,16.8t15.1,44.53V428.83H2236V332.06q0-21.26-10.79-31.43t-28-10.17a38,38,0,0,0-22.65,7.4,54.43,54.43,0,0,0-22.34,43.45v87.52H2126Z"/><path class="cls-1" d="M2311.49,427a50.72,50.72,0,0,1-21-18.64,49.93,49.93,0,0,1-7.4-27q0-25,18.8-39t47.46-14a107.41,107.41,0,0,1,26.35,3.08q12.16,3.07,18.65,7.09V329q0-17.57-12.33-28.2t-31.13-10.63a52.45,52.45,0,0,0-24.34,5.7A44.57,44.57,0,0,0,2309,311.72l-19.72-14.79a63.15,63.15,0,0,1,25.42-22.19,79.8,79.8,0,0,1,35.9-8q32.05,0,50.39,16.8t18.34,45.76v99.54h-25v-22.5h-1.24q-6.78,11.42-20.34,19.42a58.85,58.85,0,0,1-30.51,8Q2325.05,433.76,2311.49,427Zm57.93-23.11a51.51,51.51,0,0,0,18.19-18.18,48,48,0,0,0,6.78-25,65.24,65.24,0,0,0-18.19-8,82.78,82.78,0,0,0-22.8-3.08q-21.57,0-32.51,8.94a28.46,28.46,0,0,0-10.95,23.11,25.7,25.7,0,0,0,9.87,21q9.86,8,25,8A47.39,47.39,0,0,0,2369.42,403.87Z"/><path class="cls-1" d="M2489.15,430.63a40.32,40.32,0,0,1-13.72-8.48,38.56,38.56,0,0,1-9.24-13.8q-3.09-7.85-3.08-19.14V295.39h-27.43V271.66h27.43V227.28h26.19v44.38h38.22v23.73H2489.3V383q0,13.23,4.93,19.53,5.85,6.93,16.95,6.93a32,32,0,0,0,17.26-5.24v25.58a40.87,40.87,0,0,1-9.4,3.08,66.57,66.57,0,0,1-12.17.92A49.23,49.23,0,0,1,2489.15,430.63Z"/><path class="cls-1" d="M2548.78,263.65l15.1-23.11A17.57,17.57,0,0,1,2549.7,223a19.05,19.05,0,0,1,5.7-14,18.7,18.7,0,0,1,13.72-5.7A19.47,19.47,0,0,1,2588.84,223a23.85,23.85,0,0,1-2,9.55,73.81,73.81,0,0,1-6.32,11.1l-19.41,28Z"/><path class="cls-1" d="M2614.42,421.9a64.71,64.71,0,0,1-24-30.36l23.42-10.48q5.85,14.19,17.41,21.88a44.84,44.84,0,0,0,25.42,7.71q14.79,0,25.27-6t10.48-17.1q0-9.87-8.32-15.87t-26.19-10.33l-19.11-4.93Q2620,351.79,2608,340.69t-12-28.66a37.38,37.38,0,0,1,8.17-23.88,52.25,52.25,0,0,1,21.72-15.87,76.55,76.55,0,0,1,29.28-5.55q20.64,0,36.83,8.94t23,25l-22.81,10.48q-10.47-21-37.29-21a42.19,42.19,0,0,0-22.65,6q-9.7,6-9.7,15.26a17,17,0,0,0,6.78,14q6.77,5.38,20.33,8.78l22.81,5.86q23.11,5.85,34.82,17.41a38.09,38.09,0,0,1,11.71,28.2,40.78,40.78,0,0,1-8.32,25.42q-8.31,11-22.49,16.8a81.7,81.7,0,0,1-31.44,5.85Q2631.37,433.76,2614.42,421.9Z"/><path class="cls-1" d="M2812,208.18H2844l110.63,175.66h1.24l-1.24-42.53V208.18h26.2V428.83h-27.12l-115.87-184h-1.24l1.24,42.53V428.83H2812Z"/><path class="cls-1" d="M3048.33,423a74.8,74.8,0,0,1-27.89-29.74q-10-19-10-42.69a93.6,93.6,0,0,1,9.4-41.91,76.1,76.1,0,0,1,26.66-30.51q17.25-11.4,40.06-11.4,23.11,0,40.06,10.33a68.49,68.49,0,0,1,26,28.5q9.09,18.19,9.09,41.61a30.53,30.53,0,0,1-.92,8h-124.2q.93,17.88,8.63,30.2a50.31,50.31,0,0,0,19.57,18.49,53.11,53.11,0,0,0,24.81,6.16q30.2,0,46.53-28.35l22.19,10.79a79.12,79.12,0,0,1-27.58,30.2q-17.41,11.08-42.06,11.09Q3066.2,433.76,3048.33,423ZM3134,333.61a51.34,51.34,0,0,0-5.55-19.73,42.16,42.16,0,0,0-15.56-16.64q-10.63-6.78-26.66-6.78-18.49,0-31.28,11.87t-16.79,31.28Z"/><path class="cls-1" d="M3223.06,349l-54.55-77.35h29.59l40.67,58.25,39.14-58.25h30.51L3253.57,349l56.08,79.82h-30.5l-41-60.4-40.06,60.4h-30.51Z"/><path class="cls-1" d="M3369.6,430.63a40.32,40.32,0,0,1-13.72-8.48,38.56,38.56,0,0,1-9.24-13.8q-3.09-7.85-3.08-19.14V295.39h-27.43V271.66h27.43V227.28h26.19v44.38H3408v23.73h-38.21V383q0,13.23,4.93,19.53,5.85,6.93,17,6.93a32,32,0,0,0,17.26-5.24v25.58a40.87,40.87,0,0,1-9.4,3.08,66.57,66.57,0,0,1-12.17.92A49.19,49.19,0,0,1,3369.6,430.63Z"/><path class="cls-1" d="M3436.78,423.4a17.7,17.7,0,0,1-5.71-13.36,17.4,17.4,0,0,1,5.71-13.07,19.55,19.55,0,0,1,14-5.43,19.17,19.17,0,0,1,13.71,5.43,17.43,17.43,0,0,1,5.7,13.07,17.72,17.72,0,0,1-5.7,13.36,19.17,19.17,0,0,1-13.71,5.43A19.55,19.55,0,0,1,3436.78,423.4Z"/><path class="cls-1" d="M920,655.43H810V585h294.25v70.4h-110v323.4H920Z"/><path class="cls-1" d="M1155.38,968.11a138.6,138.6,0,0,1-53.08-53.35q-19-33.82-19-76.18,0-41.79,19-75.9a138.14,138.14,0,0,1,53.08-53.62q34.09-19.53,77.55-19.53,42.9,0,77,19.53A138.19,138.19,0,0,1,1363,762.68q19,34.11,19,75.9,0,42.36-19,76.18a138.65,138.65,0,0,1-53.07,53.35q-34.11,19.51-77,19.52Q1189.47,987.63,1155.38,968.11Zm116-56.93a72.63,72.63,0,0,0,28-28.6q10.44-18.69,10.45-44,0-24.75-10.45-43.45a72.7,72.7,0,0,0-28-28.6,79.81,79.81,0,0,0-77,0,74.51,74.51,0,0,0-28.33,28.6q-10.72,18.71-10.72,43.45t10.72,43.73q10.73,19,28.33,28.87a79.81,79.81,0,0,0,77,0Z"/><path class="cls-1" d="M1466.67,1082.51q-35.2-23.92-47.3-57.48l67.65-27.5a72.45,72.45,0,0,0,27,33q18.15,12.09,41.25,12.1,34.1,0,54.18-20.9t20.07-59.4v-22h-4.4a85.31,85.31,0,0,1-34.65,28.6q-21.45,9.9-49,9.9A123.93,123.93,0,0,1,1476.85,961q-30-17.88-48.13-50.6t-18.15-76.18q0-43.44,18.15-76.17t48.13-50.6a124,124,0,0,1,64.62-17.88q27.49,0,49,9.9a85.39,85.39,0,0,1,34.65,28.6h4.4v-29.7h69.3V959.58q0,45.09-17.6,78.1a122.9,122.9,0,0,1-50.05,50.88q-32.46,17.87-75.9,17.87Q1501.87,1106.43,1466.67,1082.51ZM1608,892.21q21.45-21.16,21.45-58,0-37.95-21.17-58.57t-52-20.63q-30.81,0-52.25,20.9t-21.45,58.3q0,37.41,21.45,58.3t52.25,20.9Q1586.56,913.38,1608,892.21Z"/><path class="cls-1" d="M1811.52,968.38A137.76,137.76,0,0,1,1759,915.31q-19-33.82-19-76.18a153.42,153.42,0,0,1,18.7-74.52,144,144,0,0,1,51.7-54.73q33-20.34,73.7-20.35,43.44,0,74.8,18.7a122,122,0,0,1,47.58,51.15q16.21,32.46,16.22,72a171,171,0,0,1-1.65,24.2H1810.42q5.49,33.55,26.68,50.88T1888,923.83q24.75,0,42.63-10.72a79.3,79.3,0,0,0,28.32-28.88l58.3,28.6q-42.9,74.8-130.35,74.8Q1845.07,987.63,1811.52,968.38Zm141.9-163.9q-1.11-13.2-9.62-26.12t-23.65-21.45q-15.14-8.52-35.48-8.53-25.86,0-44.27,15.13t-26.68,41Z"/><path class="cls-1" d="M2142.62,981.19q-17.61-6.45-28.6-17.67-25.86-25.24-25.85-71.8V759.93h-49v-61.6h49v-79.2h72v79.2H2229v61.6h-68.75V879.26q0,22.07,9.35,31.67,7.69,9,26.4,9.05,10.44,0,17.32-2.75a133.63,133.63,0,0,0,17.88-9.35v70.4a135,135,0,0,1-50.05,9.35A111.53,111.53,0,0,1,2142.62,981.19Z"/><path class="cls-1" d="M2280.66,585h72.05v99.55l-4.4,48.95h4.4q12.09-19.8,35.2-31.9a106.31,106.31,0,0,1,50.05-12.1q51.15,0,78.38,30.53t27.22,84.42V978.83h-72V813.28q0-26.94-14.57-41.8t-38.78-14.85q-28.6,0-47,23.1t-18.43,56.65V978.83h-72.05Z"/><path class="cls-1" d="M2656.86,968.38a137.79,137.79,0,0,1-52.53-53.07q-19-33.82-19-76.18a153.42,153.42,0,0,1,18.7-74.52,144,144,0,0,1,51.7-54.73q33-20.34,73.7-20.35,43.44,0,74.8,18.7a122,122,0,0,1,47.57,51.15q16.22,32.46,16.23,72a169.51,169.51,0,0,1-1.66,24.2H2655.76q5.49,33.55,26.67,50.88t50.88,17.32q24.75,0,42.62-10.72a79.33,79.33,0,0,0,28.33-28.88l58.3,28.6q-42.9,74.8-130.35,74.8Q2690.41,987.63,2656.86,968.38Zm141.9-163.9q-1.11-13.2-9.63-26.12t-23.65-21.45q-15.14-8.52-35.47-8.53-25.86,0-44.28,15.13t-26.67,41Z"/><path class="cls-1" d="M2912.6,698.33h67.65v37.4h4.4q10.44-19.8,32.45-33a92.3,92.3,0,0,1,48.4-13.2,91.24,91.24,0,0,1,35.2,6.6v71.5a235.09,235.09,0,0,0-25-8,91.77,91.77,0,0,0-21.73-2.48q-31.9,0-50.6,23.16t-18.7,58.45v140H2912.6Z"/><path class="cls-1" d="M3096.57,965.3q-14-13.54-14-32.66a42.89,42.89,0,0,1,14-32.38q14-13.28,33.83-13.28t33.82,13.28a42.88,42.88,0,0,1,14,32.38q0,19.11-14,32.66a49,49,0,0,1-67.65,0Z"/></svg>