<svg id="Layer_1" data-name="Layer 1" xmlns="http://www.w3.org/2000/svg" viewBox="0 0 4000 1300"><defs><style>.cls-1{fill:#676c72;}</style></defs><title>05 LTLT Bold</title><path class="cls-1" d="M447.51,208.18H473.4V403.87h96.76v25H447.51Z"/><path class="cls-1" d="M618.85,423A74.94,74.94,0,0,1,591,393.24q-10-19-10-42.69a93.6,93.6,0,0,1,9.4-41.91A76.15,76.15,0,0,1,617,278.13q17.26-11.4,40.07-11.4,23.11,0,40.06,10.33a68.49,68.49,0,0,1,26,28.5q9.09,18.19,9.09,41.61a31,31,0,0,1-.92,8H607.14q.93,17.88,8.63,30.2a50.24,50.24,0,0,0,19.57,18.49A53.11,53.11,0,0,0,660.15,410q30.2,0,46.53-28.35l22.19,10.79a79.2,79.2,0,0,1-27.58,30.2q-17.41,11.08-42.07,11.09Q636.72,433.76,618.85,423Zm85.68-89.38A51.34,51.34,0,0,0,699,313.88a42.23,42.23,0,0,0-15.56-16.64q-10.63-6.78-26.66-6.78-18.5,0-31.28,11.87t-16.8,31.27Z"/><path class="cls-1" d="M794.66,430.63A40.37,40.37,0,0,1,781,422.15a38.71,38.71,0,0,1-9.25-13.8q-3.08-7.85-3.08-19.14V295.39H741.19V271.66h27.43V227.28h26.2v44.38H833v23.73H794.82V383q0,13.23,4.93,19.53,5.85,6.93,17,6.93A32,32,0,0,0,834,404.18v25.58a40.79,40.79,0,0,1-9.39,3.08,66.69,66.69,0,0,1-12.18.92A49.26,49.26,0,0,1,794.66,430.63Z"/><path class="cls-1" d="M854.29,263.65l15.1-23.11A17.55,17.55,0,0,1,855.22,223a19.05,19.05,0,0,1,5.7-14,18.69,18.69,0,0,1,13.71-5.7A19.47,19.47,0,0,1,894.36,223a23.69,23.69,0,0,1-2,9.55,74.12,74.12,0,0,1-6.31,11.1l-19.42,28Z"/><path class="cls-1" d="M919.94,421.9a64.73,64.73,0,0,1-24-30.36l23.42-10.48q5.85,14.19,17.41,21.88a44.87,44.87,0,0,0,25.43,7.71q14.79,0,25.27-6t10.48-17.1q0-9.87-8.32-15.87t-26.2-10.33l-19.11-4.93q-18.79-4.62-30.81-15.72t-12-28.66a37.42,37.42,0,0,1,8.16-23.88,52.35,52.35,0,0,1,21.73-15.87,76.55,76.55,0,0,1,29.28-5.55q20.64,0,36.82,8.94t23,25l-22.8,10.48q-10.49-21-37.29-21a42.19,42.19,0,0,0-22.65,6q-9.7,6-9.71,15.26a17.08,17.08,0,0,0,6.78,14q6.78,5.38,20.34,8.78l22.8,5.86q23.11,5.85,34.83,17.41a38.13,38.13,0,0,1,11.71,28.2,40.78,40.78,0,0,1-8.32,25.42,52.87,52.87,0,0,1-22.5,16.8,81.65,81.65,0,0,1-31.43,5.85Q936.89,433.76,919.94,421.9Z"/><path class="cls-1" d="M1150.45,233.14h-61.94v-25h149.77v25h-61.63V428.83h-26.2Z"/><path class="cls-1" d="M1241.36,271.66h25v25.27h1.23q4.62-12.94,17.88-21.57a50.06,50.06,0,0,1,27.73-8.63q10.78,0,18.49,3.39v28.05a48.88,48.88,0,0,0-22.19-4.94,36.53,36.53,0,0,0-21,6.49,46.61,46.61,0,0,0-15.26,17.45,50.49,50.49,0,0,0-5.7,23.63v88h-26.19Z"/><path class="cls-1" d="M1364,427a50.72,50.72,0,0,1-21-18.64,49.93,49.93,0,0,1-7.4-27q0-25,18.8-39t47.46-14a107.41,107.41,0,0,1,26.35,3.08q12.17,3.07,18.64,7.09V329q0-17.57-12.32-28.2t-31.13-10.63a52.45,52.45,0,0,0-24.34,5.7,44.5,44.5,0,0,0-17.57,15.87l-19.72-14.79a63.08,63.08,0,0,1,25.42-22.19,79.8,79.8,0,0,1,35.9-8q32.05,0,50.39,16.8t18.34,45.76v99.54h-25v-22.5h-1.23q-6.78,11.42-20.34,19.42a58.85,58.85,0,0,1-30.51,8Q1377.57,433.76,1364,427ZM1422,403.87a51.4,51.4,0,0,0,18.18-18.18,48,48,0,0,0,6.78-25,65,65,0,0,0-18.18-8,82.78,82.78,0,0,0-22.8-3.08q-21.59,0-32.52,8.94a28.48,28.48,0,0,0-10.94,23.11,25.7,25.7,0,0,0,9.87,21q9.86,8,25,8A47.39,47.39,0,0,0,1422,403.87Z"/><path class="cls-1" d="M1502.07,271.66h25v23.11h1.23q6.46-11.7,20.65-19.87a59.54,59.54,0,0,1,30.2-8.17q28.35,0,43.3,16.49t14.94,44.84V428.83h-26.19V332.06q0-21.87-10.48-31.74T1572,290.46a38.27,38.27,0,0,0-22.65,7.09,47.67,47.67,0,0,0-15.56,18.64,55.24,55.24,0,0,0-5.55,24.19v88.45h-26.2Z"/><path class="cls-1" d="M1679.89,421.9a64.79,64.79,0,0,1-24-30.36l23.42-10.48q5.87,14.19,17.42,21.88a44.84,44.84,0,0,0,25.42,7.71q14.79,0,25.27-6t10.48-17.1q0-9.87-8.32-15.87t-26.2-10.33l-19.1-4.93q-18.81-4.62-30.82-15.72t-12-28.66a37.38,37.38,0,0,1,8.17-23.88,52.25,52.25,0,0,1,21.72-15.87,76.55,76.55,0,0,1,29.28-5.55q20.64,0,36.83,8.94t23,25l-22.81,10.48q-10.48-21-37.29-21a42.19,42.19,0,0,0-22.65,6q-9.7,6-9.71,15.26a17.08,17.08,0,0,0,6.78,14q6.78,5.38,20.34,8.78l22.81,5.86q23.12,5.85,34.82,17.41a38.09,38.09,0,0,1,11.71,28.2,40.78,40.78,0,0,1-8.32,25.42,52.87,52.87,0,0,1-22.5,16.8,81.65,81.65,0,0,1-31.43,5.85Q1696.84,433.76,1679.89,421.9Z"/><path class="cls-1" d="M1825,295.39h-29V271.66h29v-17q0-14.79,6.78-25.88A46.22,46.22,0,0,1,1850,211.72a53.44,53.44,0,0,1,25.27-6q13.24,0,23.11,3.7V235c-3.69-1.44-7.19-2.62-10.47-3.55a43.85,43.85,0,0,0-11.71-1.38,24.29,24.29,0,0,0-17.57,7.24q-7.39,7.24-7.4,20.19v14.17h40.38v23.73h-40.38V428.83H1825Z"/><path class="cls-1" d="M1938.76,422.67a77.57,77.57,0,0,1-28.82-30.2,91.52,91.52,0,0,1,0-84.44,77.5,77.5,0,0,1,28.82-30.2q18.48-11.1,41.6-11.1t41.6,11.1a77.57,77.57,0,0,1,28.82,30.2,91.52,91.52,0,0,1,0,84.44,77.64,77.64,0,0,1-28.82,30.2q-18.48,11.08-41.6,11.09T1938.76,422.67Zm68.57-19.88a53.52,53.52,0,0,0,20-20.8q7.55-13.56,7.55-31.74t-7.55-31.74a53.61,53.61,0,0,0-20-20.81,52.9,52.9,0,0,0-27-7.24,53.71,53.71,0,0,0-27.12,7.24,53.14,53.14,0,0,0-20.18,20.81q-7.56,13.56-7.55,31.74t7.55,31.74a53,53,0,0,0,20.18,20.8,53.61,53.61,0,0,0,27.12,7.24A52.8,52.8,0,0,0,2007.33,402.79Z"/><path class="cls-1" d="M2082.37,271.66h25v25.27h1.23q4.62-12.94,17.88-21.57a50.06,50.06,0,0,1,27.73-8.63q10.78,0,18.49,3.39v28.05a48.91,48.91,0,0,0-22.19-4.94,36.53,36.53,0,0,0-20.95,6.49,46.61,46.61,0,0,0-15.26,17.45,50.49,50.49,0,0,0-5.7,23.63v88h-26.19Z"/><path class="cls-1" d="M2191.77,271.66h25v23.11H2218q6.78-12,20.34-20a55.47,55.47,0,0,1,28.66-8q17.26,0,30.05,8.32a46.68,46.68,0,0,1,18.34,22.19,64.19,64.19,0,0,1,22-22.19q13.71-8.31,31.9-8.32,27.1,0,40.83,16.49t13.71,44.84V428.83h-25.88V332.06q0-21.87-8.94-31.74t-26.5-9.86a35.91,35.91,0,0,0-21.27,6.78,45.73,45.73,0,0,0-14.94,18.18,56.93,56.93,0,0,0-5.4,24.66v88.75H2294.7V332.37q0-22.19-8.94-32.05t-26.19-9.86a35.38,35.38,0,0,0-21.27,6.93,46.78,46.78,0,0,0-14.94,18.49,57.92,57.92,0,0,0-5.4,24.81v88.14h-26.19Z"/><path class="cls-1" d="M2525.83,208.18h25.88V403.87h96.77v25H2525.83Z"/><path class="cls-1" d="M2697.17,423a74.8,74.8,0,0,1-27.89-29.74q-10-19-10-42.69a93.73,93.73,0,0,1,9.39-41.91,76.18,76.18,0,0,1,26.66-30.51q17.25-11.4,40.06-11.4,23.11,0,40.07,10.33a68.62,68.62,0,0,1,26,28.5q9.08,18.19,9.09,41.61a30.5,30.5,0,0,1-.93,8H2685.46q.93,17.88,8.63,30.2a50.24,50.24,0,0,0,19.57,18.49,53.08,53.08,0,0,0,24.81,6.16q30.2,0,46.53-28.35l22.19,10.79a79.2,79.2,0,0,1-27.58,30.2q-17.42,11.08-42.07,11.09Q2715,433.76,2697.17,423Zm85.67-89.38a51.14,51.14,0,0,0-5.54-19.72,42.19,42.19,0,0,0-15.57-16.64q-10.62-6.78-26.65-6.78-18.49,0-31.28,11.87T2687,333.6Z"/><path class="cls-1" d="M2859.73,487.38q-18-12.93-24.2-31.12l23.73-10.17a46.92,46.92,0,0,0,17.42,22q12.17,8.47,28.81,8.48,24.35,0,37.75-13.59t13.41-38.8V406.64h-1.24q-7.69,12-21.72,19.57t-31.9,7.55a68.19,68.19,0,0,1-37.13-10.59q-16.8-10.6-26.66-29.61t-9.86-43.31q0-24,9.86-43.16t26.66-29.76a68.2,68.2,0,0,1,37.13-10.6q17.86,0,31.9,7.55a56.64,56.64,0,0,1,21.72,19.88h1.24v-22.5h25v151q0,37.9-21,57.78t-55.16,19.88Q2877.76,500.33,2859.73,487.38Zm71.49-84.55q11.57-7.18,18.49-20.65t6.94-31.93q0-18.78-6.94-32.24t-18.49-20.5a50.31,50.31,0,0,0-51.62.15A50.94,50.94,0,0,0,2861,318.32q-6.93,13.47-6.94,31.93t6.94,32.08Q2867.89,396,2879.6,403a49.25,49.25,0,0,0,25.89,7A47.66,47.66,0,0,0,2931.22,402.83Z"/><path class="cls-1" d="M3032.15,427a50.78,50.78,0,0,1-21-18.64,49.92,49.92,0,0,1-7.39-27q0-25,18.79-39t47.46-14a107.41,107.41,0,0,1,26.35,3.08q12.18,3.07,18.65,7.09V329q0-17.57-12.33-28.2t-31.13-10.63a52.48,52.48,0,0,0-24.34,5.7,44.57,44.57,0,0,0-17.57,15.87L3010,296.93a63.15,63.15,0,0,1,25.42-22.19,79.84,79.84,0,0,1,35.91-8q32,0,50.38,16.8T3140,329.29v99.54h-25v-22.5h-1.24q-6.78,11.42-20.34,19.42a58.84,58.84,0,0,1-30.5,8Q3045.71,433.76,3032.15,427Zm57.93-23.11a51.43,51.43,0,0,0,18.19-18.18,48,48,0,0,0,6.78-25,65.1,65.1,0,0,0-18.19-8,82.78,82.78,0,0,0-22.8-3.08q-21.57,0-32.51,8.94a28.45,28.45,0,0,0-10.94,23.11,25.7,25.7,0,0,0,9.86,21q9.86,8,25,8A47.39,47.39,0,0,0,3090.08,403.87Z"/><path class="cls-1" d="M3198.87,422.82a76.35,76.35,0,0,1-28.35-29.89q-10.17-19-10.17-42.68t10.17-42.84a75,75,0,0,1,28.35-29.89q18.18-10.78,41-10.79,25.57,0,43,11.87a65,65,0,0,1,24.81,31.58l-23.73,9.87q-5.86-14.49-17.41-22t-27.9-7.55a47.8,47.8,0,0,0-25.88,7.55,54.8,54.8,0,0,0-19.26,21.11q-7.24,13.56-7.25,31.13t7.25,31.12a54.65,54.65,0,0,0,19.26,21.11,47.71,47.71,0,0,0,25.88,7.55q16.65,0,28.67-7.7a46.16,46.16,0,0,0,17.87-21.88l23.42,9.86a69.17,69.17,0,0,1-25.73,31.43q-17.73,12-43,12Q3217,433.76,3198.87,422.82Z"/><path class="cls-1" d="M3378.84,419l-65-147.31h28.35l49.31,116.8h.61l47.46-116.8h28.35L3370.83,495.4h-27.12Z"/><path class="cls-1" d="M3465.28,423.4a17.72,17.72,0,0,1-5.7-13.36,17.43,17.43,0,0,1,5.7-13.07,19.57,19.57,0,0,1,14-5.43A19.17,19.17,0,0,1,3493,397a17.43,17.43,0,0,1,5.7,13.07,17.72,17.72,0,0,1-5.7,13.36,19.17,19.17,0,0,1-13.71,5.43A19.57,19.57,0,0,1,3465.28,423.4Z"/><path class="cls-1" d="M920,655.43H810V585h294.25v70.4h-110v323.4H920Z"/><path class="cls-1" d="M1155.38,968.11a138.6,138.6,0,0,1-53.08-53.35q-19-33.82-19-76.18,0-41.79,19-75.9a138.14,138.14,0,0,1,53.08-53.62q34.09-19.53,77.55-19.53,42.9,0,77,19.53A138.19,138.19,0,0,1,1363,762.68q19,34.11,19,75.9,0,42.36-19,76.18a138.65,138.65,0,0,1-53.07,53.35q-34.11,19.51-77,19.52Q1189.47,987.63,1155.38,968.11Zm116-56.93a72.63,72.63,0,0,0,28-28.6q10.44-18.69,10.45-44,0-24.75-10.45-43.45a72.7,72.7,0,0,0-28-28.6,79.81,79.81,0,0,0-77,0,74.51,74.51,0,0,0-28.33,28.6q-10.72,18.71-10.72,43.45t10.72,43.73q10.73,19,28.33,28.87a79.81,79.81,0,0,0,77,0Z"/><path class="cls-1" d="M1466.67,1082.51q-35.2-23.92-47.3-57.48l67.65-27.5a72.45,72.45,0,0,0,27,33q18.15,12.09,41.25,12.1,34.1,0,54.18-20.9t20.07-59.4v-22h-4.4a85.31,85.31,0,0,1-34.65,28.6q-21.45,9.9-49,9.9A123.93,123.93,0,0,1,1476.85,961q-30-17.88-48.13-50.6t-18.15-76.18q0-43.44,18.15-76.17t48.13-50.6a124,124,0,0,1,64.62-17.88q27.49,0,49,9.9a85.39,85.39,0,0,1,34.65,28.6h4.4v-29.7h69.3V959.58q0,45.09-17.6,78.1a122.9,122.9,0,0,1-50.05,50.88q-32.46,17.87-75.9,17.87Q1501.87,1106.43,1466.67,1082.51ZM1608,892.21q21.45-21.16,21.45-58,0-37.95-21.17-58.57t-52-20.63q-30.81,0-52.25,20.9t-21.45,58.3q0,37.41,21.45,58.3t52.25,20.9Q1586.56,913.38,1608,892.21Z"/><path class="cls-1" d="M1811.52,968.38A137.76,137.76,0,0,1,1759,915.31q-19-33.82-19-76.18a153.42,153.42,0,0,1,18.7-74.52,144,144,0,0,1,51.7-54.73q33-20.34,73.7-20.35,43.44,0,74.8,18.7a122,122,0,0,1,47.58,51.15q16.21,32.46,16.22,72a171,171,0,0,1-1.65,24.2H1810.42q5.49,33.55,26.68,50.88T1888,923.83q24.75,0,42.63-10.72a79.3,79.3,0,0,0,28.32-28.88l58.3,28.6q-42.9,74.8-130.35,74.8Q1845.07,987.63,1811.52,968.38Zm141.9-163.9q-1.11-13.2-9.62-26.12t-23.65-21.45q-15.14-8.52-35.48-8.53-25.86,0-44.27,15.13t-26.68,41Z"/><path class="cls-1" d="M2142.62,981.18q-17.61-6.43-28.6-17.66-25.86-25.24-25.85-71.8V759.93h-49v-61.6h49v-79.2h72v79.2H2229v61.6h-68.75V879.26q0,22.07,9.35,31.67,7.69,9,26.4,9.05,10.44,0,17.32-2.75a133.63,133.63,0,0,0,17.88-9.35v70.4a135,135,0,0,1-50.05,9.35A111.29,111.29,0,0,1,2142.62,981.18Z"/><path class="cls-1" d="M2280.66,585h72.05v99.55l-4.4,48.95h4.4q12.09-19.8,35.2-31.9a106.31,106.31,0,0,1,50.05-12.1q51.15,0,78.38,30.53t27.22,84.42V978.83h-72V813.28q0-26.94-14.57-41.8t-38.78-14.85q-28.6,0-47,23.1t-18.43,56.65V978.83h-72.05Z"/><path class="cls-1" d="M2656.86,968.38a137.79,137.79,0,0,1-52.53-53.07q-19-33.82-19-76.18a153.42,153.42,0,0,1,18.7-74.52,144,144,0,0,1,51.7-54.73q33-20.34,73.7-20.35,43.44,0,74.8,18.7a122,122,0,0,1,47.57,51.15q16.22,32.46,16.23,72a169.51,169.51,0,0,1-1.66,24.2H2655.76q5.49,33.55,26.67,50.88t50.88,17.32q24.75,0,42.62-10.72a79.33,79.33,0,0,0,28.33-28.88l58.3,28.6q-42.9,74.8-130.35,74.8Q2690.41,987.63,2656.86,968.38Zm141.9-163.9q-1.11-13.2-9.63-26.12t-23.65-21.45q-15.14-8.52-35.47-8.53-25.86,0-44.28,15.13t-26.67,41Z"/><path class="cls-1" d="M2912.6,698.33h67.65v37.4h4.4q10.44-19.8,32.45-33a92.3,92.3,0,0,1,48.4-13.2,91.24,91.24,0,0,1,35.2,6.6v71.5a235.09,235.09,0,0,0-25-8,91.77,91.77,0,0,0-21.73-2.48q-31.9,0-50.6,23.16t-18.7,58.45v140H2912.6Z"/><path class="cls-1" d="M3096.57,965.3q-14-13.54-14-32.66a42.89,42.89,0,0,1,14-32.38q14-13.28,33.83-13.28t33.82,13.28a42.88,42.88,0,0,1,14,32.38q0,19.11-14,32.66a49,49,0,0,1-67.65,0Z"/></svg>