<svg id="Layer_1" data-name="Layer 1" xmlns="http://www.w3.org/2000/svg" viewBox="0 0 1000 1000"><defs><style>.cls-1{fill:#676c72;}</style></defs><title>05 LBWNT SQ Vert</title><path class="cls-1" d="M73.13,51.1H89.79V177H152v16.06H73.13Z"/><path class="cls-1" d="M183.37,189.29a48,48,0,0,1-17.94-19.13A57.81,57.81,0,0,1,159,142.7a60.31,60.31,0,0,1,6.05-27A49,49,0,0,1,182.18,96.1,45.74,45.74,0,0,1,208,88.77q14.88,0,25.78,6.64a44.08,44.08,0,0,1,16.75,18.34q5.85,11.7,5.85,26.77a20,20,0,0,1-.59,5.15H175.83q.6,11.51,5.56,19.43A32.28,32.28,0,0,0,194,177a34.16,34.16,0,0,0,16,4q19.42,0,29.94-18.24l14.27,6.94a50.92,50.92,0,0,1-17.74,19.43q-11.21,7.14-27.07,7.14A49.22,49.22,0,0,1,183.37,189.29Zm55.12-57.5a33.06,33.06,0,0,0-3.57-12.69,27.2,27.2,0,0,0-10-10.7Q218.07,104,207.76,104a28.48,28.48,0,0,0-20.13,7.63q-8.24,7.64-10.8,20.12Z"/><path class="cls-1" d="M296.48,194.21a25.79,25.79,0,0,1-8.82-5.45,24.77,24.77,0,0,1-6-8.88,33.56,33.56,0,0,1-2-12.31V107.21H262.08V91.94h17.64V63.39h16.86V91.94h24.58v15.27H296.58v56.33q0,8.52,3.17,12.57,3.76,4.45,10.9,4.46a20.54,20.54,0,0,0,11.11-3.37v16.45a25.83,25.83,0,0,1-6.05,2,43.07,43.07,0,0,1-7.83.59A31.41,31.41,0,0,1,296.48,194.21Z"/><path class="cls-1" d="M334.84,86.79l9.72-14.87a11.29,11.29,0,0,1-9.12-11.31,12.26,12.26,0,0,1,3.67-9,12,12,0,0,1,8.82-3.66,12.52,12.52,0,0,1,12.69,12.68,15.28,15.28,0,0,1-1.29,6.15,48.78,48.78,0,0,1-4.06,7.14l-12.5,18Z"/><path class="cls-1" d="M377.08,188.6a41.68,41.68,0,0,1-15.47-19.53l15.07-6.74a30.27,30.27,0,0,0,11.2,14.07,28.84,28.84,0,0,0,16.36,5,32.18,32.18,0,0,0,16.26-3.87q6.74-3.86,6.74-11a12,12,0,0,0-5.36-10.21q-5.34-3.87-16.85-6.64l-12.29-3.17q-12.09-3-19.83-10.12t-7.73-18.44a24.07,24.07,0,0,1,5.25-15.36,33.64,33.64,0,0,1,14-10.21,49.29,49.29,0,0,1,18.84-3.57,48.22,48.22,0,0,1,23.69,5.75,32.52,32.52,0,0,1,14.77,16.06L427,117.32q-6.74-13.48-24-13.48a27.17,27.17,0,0,0-14.57,3.86q-6.25,3.87-6.25,9.82a11,11,0,0,0,4.36,9q4.37,3.46,13.09,5.65L414.35,136q14.86,3.76,22.41,11.2a24.52,24.52,0,0,1,7.53,18.14,26.27,26.27,0,0,1-5.35,16.36,34.07,34.07,0,0,1-14.48,10.8,52.51,52.51,0,0,1-20.22,3.77Q388,196.23,377.08,188.6Z"/><path class="cls-1" d="M73.13,229.75h51a42.53,42.53,0,0,1,20.12,5,38.74,38.74,0,0,1,15,13.68A35.77,35.77,0,0,1,164.73,268a31.36,31.36,0,0,1-5.25,18.05A34.29,34.29,0,0,1,145.3,298v.8A35.86,35.86,0,0,1,162.75,311a32.46,32.46,0,0,1,6.74,20.42,37.86,37.86,0,0,1-5.85,20.72A40.45,40.45,0,0,1,148,366.55a44.69,44.69,0,0,1-21.12,5.16H73.13Zm51,61.46a23.43,23.43,0,0,0,12.59-3.37,23.87,23.87,0,0,0,8.42-8.62,21.62,21.62,0,0,0,3-10.81,21.89,21.89,0,0,0-2.88-10.61,23.69,23.69,0,0,0-8.13-8.62,22.06,22.06,0,0,0-12.19-3.37H89.79v45.4Zm3.76,64.44a23.42,23.42,0,0,0,12.79-3.57,24.87,24.87,0,0,0,8.73-9.22,24.09,24.09,0,0,0,3.07-11.6,23.49,23.49,0,0,0-3.17-11.6,24.7,24.7,0,0,0-8.93-9.12,25.22,25.22,0,0,0-13.28-3.47H89.79v48.58Z"/><path class="cls-1" d="M194.77,364.17q-9.63-10.69-9.62-29.93V270.59H202v61.07q0,14.47,6.55,21.21t17.64,6.74a26.1,26.1,0,0,0,15.17-4.56,30.92,30.92,0,0,0,10.31-11.89,34.22,34.22,0,0,0,3.67-15.47v-57.1h16.85V371.71H256.13V357h-.79q-4.17,7.53-13.29,12.69a38.94,38.94,0,0,1-19.43,5.15Q204.38,374.88,194.77,364.17Z"/><path class="cls-1" d="M294.59,248.58a11.61,11.61,0,0,1-3.57-8.52,11.34,11.34,0,0,1,3.57-8.43,12.21,12.21,0,0,1,17.05,0,11.34,11.34,0,0,1,3.57,8.43,11.8,11.8,0,0,1-3.47,8.52,12.08,12.08,0,0,1-17.15,0Zm.2,22h16.66V371.71H294.79Z"/><path class="cls-1" d="M334.05,229.75H350.9v142H334.05Z"/><path class="cls-1" d="M389.27,367.94a48.56,48.56,0,0,1-17.35-19.13,63.2,63.2,0,0,1,0-55.22,48.51,48.51,0,0,1,17.35-19.23,44.89,44.89,0,0,1,24.48-6.94,41,41,0,0,1,20.82,5.25,38.35,38.35,0,0,1,13.88,13h.79l-.79-14.08V229.75H465.3v142H449.24V356.84h-.79a38.94,38.94,0,0,1-13.88,12.79,41,41,0,0,1-20.82,5.25A44.89,44.89,0,0,1,389.27,367.94Zm43-13.08a34.76,34.76,0,0,0,12.29-13.49,46.2,46.2,0,0,0,0-40.44,34.66,34.66,0,0,0-12.29-13.48,31,31,0,0,0-33,0A34.32,34.32,0,0,0,386.89,301a45.77,45.77,0,0,0,0,40.24,34.35,34.35,0,0,0,12.39,13.59,31.05,31.05,0,0,0,33,0Z"/><path class="cls-1" d="M73.13,410H91.77l25.77,104.29,2.38,9.71h.8l3-9.71L155.41,410h17.45L203.2,514.28l3,9.71H207l28-114h18.64L215.29,552H197.84L167.71,449.24l-3.18-11.1h-.79l-3.37,11.1L129,552H111.6Z"/><path class="cls-1" d="M265.45,410H282.3v41.83l-.79,13.88h.79q4.17-7.74,13.19-12.89a39.12,39.12,0,0,1,19.72-5.15q18.45,0,28.16,10.8t9.71,28.65V552H336.23V489.69q0-13.68-6.94-20.22t-18-6.55a24.47,24.47,0,0,0-14.57,4.76,35,35,0,0,0-14.38,28V552H265.45Z"/><path class="cls-1" d="M384.81,550.76a32.64,32.64,0,0,1-13.48-12,32,32,0,0,1-4.76-17.35q0-16,12.09-25.08t30.53-9a69.15,69.15,0,0,1,17,2,44.26,44.26,0,0,1,12,4.56v-6.14q0-11.31-7.93-18.14t-20-6.84a33.83,33.83,0,0,0-15.67,3.66,28.68,28.68,0,0,0-11.3,10.21l-12.69-9.51a40.6,40.6,0,0,1,16.36-14.28,51.42,51.42,0,0,1,23.1-5.15q20.61,0,32.41,10.8t11.8,29.45v64H438.14V537.47h-.79A36.1,36.1,0,0,1,424.26,550a37.84,37.84,0,0,1-19.63,5.16A43.8,43.8,0,0,1,384.81,550.76Zm37.27-14.87a33.12,33.12,0,0,0,11.7-11.7,30.82,30.82,0,0,0,4.36-16.06,41.93,41.93,0,0,0-11.7-5.16,53.16,53.16,0,0,0-14.67-2q-13.87,0-20.91,5.75a18.31,18.31,0,0,0-7,14.87,16.52,16.52,0,0,0,6.34,13.48q6.34,5.16,16.06,5.16A30.47,30.47,0,0,0,422.08,535.89Z"/><path class="cls-1" d="M499.11,553.1a25.89,25.89,0,0,1-8.82-5.45,24.86,24.86,0,0,1-6-8.88,33.84,33.84,0,0,1-2-12.32V466.1H464.71V450.83h17.65V422.28h16.85v28.55h24.58V466.1H499.21v56.33q0,8.52,3.17,12.57,3.76,4.46,10.91,4.46a20.55,20.55,0,0,0,11.1-3.38v16.46a25.8,25.8,0,0,1-6,2,42.07,42.07,0,0,1-7.83.6A31.62,31.62,0,0,1,499.11,553.1Z"/><path class="cls-1" d="M537.47,445.67l9.72-14.87a10.82,10.82,0,0,1-6.35-3.66,11,11,0,0,1-2.77-7.64,12.25,12.25,0,0,1,3.67-9,12,12,0,0,1,8.82-3.67,12.53,12.53,0,0,1,12.69,12.69,15.28,15.28,0,0,1-1.29,6.15,48.78,48.78,0,0,1-4.06,7.14l-12.5,18Z"/><path class="cls-1" d="M579.71,547.49A41.68,41.68,0,0,1,564.24,528l15.07-6.74a30.27,30.27,0,0,0,11.2,14.07,28.84,28.84,0,0,0,16.36,5,32.18,32.18,0,0,0,16.26-3.87q6.74-3.87,6.74-11a12,12,0,0,0-5.35-10.21q-5.35-3.87-16.86-6.64l-12.29-3.18q-12.09-3-19.83-10.11t-7.73-18.44a24.07,24.07,0,0,1,5.25-15.36,33.64,33.64,0,0,1,14-10.21,49.29,49.29,0,0,1,18.84-3.57,48.11,48.11,0,0,1,23.69,5.75,32.52,32.52,0,0,1,14.77,16.06l-14.67,6.74q-6.74-13.48-24-13.48a27.08,27.08,0,0,0-14.57,3.86q-6.25,3.87-6.25,9.82a11,11,0,0,0,4.36,9q4.37,3.46,13.09,5.65L617,494.85q14.87,3.76,22.41,11.2a24.51,24.51,0,0,1,7.53,18.14,26.27,26.27,0,0,1-5.35,16.36,34.07,34.07,0,0,1-14.48,10.8,52.51,52.51,0,0,1-20.22,3.77Q590.61,555.12,579.71,547.49Z"/><path class="cls-1" d="M73.13,587.05H93.75l71.18,113h.79l-.79-27.36V587.05h16.85V729H164.34L89.79,610.64H89l.8,27.37v91H73.13Z"/><path class="cls-1" d="M225.2,725.24a48,48,0,0,1-17.94-19.13,57.8,57.8,0,0,1-6.44-27.46,60.23,60.23,0,0,1,6-27A48.91,48.91,0,0,1,224,632.06q11.1-7.34,25.78-7.34,14.86,0,25.77,6.64a44.17,44.17,0,0,1,16.76,18.34,59.22,59.22,0,0,1,5.85,26.77,19.66,19.66,0,0,1-.6,5.16h-79.9q.59,11.49,5.55,19.43A32.32,32.32,0,0,0,235.81,713a34.11,34.11,0,0,0,16,4q19.43,0,29.94-18.24L296,705.62a50.92,50.92,0,0,1-17.74,19.43q-11.21,7.13-27.06,7.13A49.28,49.28,0,0,1,225.2,725.24Zm55.12-57.49a33,33,0,0,0-3.57-12.69,27.09,27.09,0,0,0-10-10.71Q259.9,640,249.59,640a28.56,28.56,0,0,0-20.13,7.63q-8.22,7.64-10.8,20.13Z"/><path class="cls-1" d="M337.62,677.66l-35.09-49.77h19l26.17,37.48,25.18-37.48h19.63l-35.29,49.77L393.33,729H373.7l-26.37-38.86L321.56,729H301.93Z"/><path class="cls-1" d="M431.9,730.17a26,26,0,0,1-8.83-5.46,24.81,24.81,0,0,1-5.95-8.88,33.79,33.79,0,0,1-2-12.31V643.16H397.5V627.89h17.64V599.34H432v28.55h24.59v15.27H432V699.5q0,8.5,3.18,12.56,3.76,4.47,10.9,4.46a20.57,20.57,0,0,0,11.11-3.37v16.46a26.43,26.43,0,0,1-6.05,2,42.18,42.18,0,0,1-7.83.59A31.62,31.62,0,0,1,431.9,730.17Z"/><path class="cls-1" d="M475.12,725.52a11.4,11.4,0,0,1-3.67-8.6,11.18,11.18,0,0,1,3.67-8.4,12.57,12.57,0,0,1,9-3.5,12.35,12.35,0,0,1,8.82,3.5,11.18,11.18,0,0,1,3.67,8.4,11.4,11.4,0,0,1-3.67,8.6,12.34,12.34,0,0,1-8.82,3.49A12.56,12.56,0,0,1,475.12,725.52Z"/><path class="cls-1" d="M112.79,789.49H73.13V764.12H179.21v25.37H139.55V906.08H112.79Z"/><path class="cls-1" d="M197.65,902.21A50,50,0,0,1,178.51,883a58.34,58.34,0,0,1,0-54.82,49.73,49.73,0,0,1,19.14-19.33,58.63,58.63,0,0,1,55.71,0,49.77,49.77,0,0,1,19.13,19.33,58.34,58.34,0,0,1,0,54.82,50,50,0,0,1-19.13,19.23,58.63,58.63,0,0,1-55.71,0Zm41.83-20.52a26.19,26.19,0,0,0,10.11-10.31,32,32,0,0,0,3.77-15.86,31.63,31.63,0,0,0-3.77-15.67,26.1,26.1,0,0,0-10.11-10.3,28.77,28.77,0,0,0-27.76,0,26.81,26.81,0,0,0-10.21,10.3,31,31,0,0,0-3.86,15.67,31.54,31.54,0,0,0,3.86,15.76,26.7,26.7,0,0,0,10.21,10.41,28.77,28.77,0,0,0,27.76,0Z"/><path class="cls-1" d="M309.87,943.45q-12.71-8.62-17.06-20.72l24.39-9.91a26.12,26.12,0,0,0,24.59,16.26q12.29,0,19.53-7.54t7.23-21.41V892.2H367a30.88,30.88,0,0,1-12.49,10.31,41.68,41.68,0,0,1-17.65,3.57,44.68,44.68,0,0,1-23.3-6.45,47.59,47.59,0,0,1-17.35-18.24q-6.54-11.79-6.54-27.46t6.54-27.46a47.73,47.73,0,0,1,17.35-18.24,44.77,44.77,0,0,1,23.3-6.44,41.68,41.68,0,0,1,17.65,3.57A30.8,30.8,0,0,1,367,815.67h1.58V805h25v94.18q0,16.25-6.34,28.15a44.35,44.35,0,0,1-18,18.34q-11.7,6.43-27.36,6.44Q322.54,952.07,309.87,943.45Zm50.95-68.6q7.73-7.64,7.73-20.92,0-13.68-7.63-21.11a27.3,27.3,0,0,0-37.57.1q-7.74,7.53-7.74,21t7.74,21a26,26,0,0,0,18.83,7.53A25.56,25.56,0,0,0,360.82,874.85Z"/><path class="cls-1" d="M434.18,902.31a49.71,49.71,0,0,1-18.93-19.13,57.73,57.73,0,0,1-.1-54.33,52,52,0,0,1,18.63-19.73,49.61,49.61,0,0,1,26.57-7.33q15.66,0,27,6.74A44,44,0,0,1,504.47,827a57.36,57.36,0,0,1,5.85,26,61,61,0,0,1-.6,8.72H433.78q2,12.11,9.62,18.34a28,28,0,0,0,18.34,6.25,29.31,29.31,0,0,0,15.37-3.87A28.55,28.55,0,0,0,487.32,872l21,10.31q-15.46,27-47,27A53.65,53.65,0,0,1,434.18,902.31Zm51.15-59.08a20,20,0,0,0-3.47-9.42,24.33,24.33,0,0,0-8.52-7.74A25.73,25.73,0,0,0,460.55,823a24.38,24.38,0,0,0-16,5.45A30.64,30.64,0,0,0,435,843.23Z"/><path class="cls-1" d="M553.54,906.93a27.32,27.32,0,0,1-10.31-6.37q-9.33-9.1-9.32-25.88V827.17H516.26V805h17.65V776.41h26V805h24.78v22.21H559.88v43q0,8,3.37,11.42,2.78,3.25,9.52,3.26a16.93,16.93,0,0,0,6.24-1,48,48,0,0,0,6.45-3.37v25.38a48.81,48.81,0,0,1-18.05,3.37A40.21,40.21,0,0,1,553.54,906.93Z"/><path class="cls-1" d="M603.3,764.12h26V800l-1.58,17.65h1.58A31.66,31.66,0,0,1,642,806.15a38.28,38.28,0,0,1,18-4.36q18.45,0,28.26,11t9.81,30.44v62.85h-26V846.4q0-9.72-5.26-15.07t-14-5.35a20.76,20.76,0,0,0-17,8.32q-6.64,8.33-6.64,20.42v51.36h-26Z"/><path class="cls-1" d="M738.91,902.31A49.71,49.71,0,0,1,720,883.18a57.73,57.73,0,0,1-.1-54.33,52,52,0,0,1,18.64-19.73,49.58,49.58,0,0,1,26.56-7.33q15.66,0,27,6.74A44,44,0,0,1,809.2,827a57.23,57.23,0,0,1,5.85,26,61,61,0,0,1-.6,8.72H738.52q2,12.11,9.61,18.34a28,28,0,0,0,18.34,6.25,29.31,29.31,0,0,0,15.37-3.87A28.47,28.47,0,0,0,792.05,872l21,10.31q-15.47,27-47,27A53.66,53.66,0,0,1,738.91,902.31Zm51.16-59.08a20.18,20.18,0,0,0-3.47-9.42,24.28,24.28,0,0,0-8.53-7.74A25.73,25.73,0,0,0,765.28,823a24.38,24.38,0,0,0-16,5.45,30.55,30.55,0,0,0-9.61,14.78Z"/><path class="cls-1" d="M831.11,805h24.38v13.48h1.59a30.49,30.49,0,0,1,11.7-11.89,33.17,33.17,0,0,1,17.44-4.76,32.79,32.79,0,0,1,12.69,2.38v25.77a83.08,83.08,0,0,0-9-2.87,32.71,32.71,0,0,0-7.83-.9q-11.5,0-18.24,8.35t-6.74,21.07v50.49h-26Z"/><path class="cls-1" d="M897.43,901.2a15.75,15.75,0,0,1-5.06-11.77,15.44,15.44,0,0,1,5.06-11.68,17.93,17.93,0,0,1,24.38,0,15.47,15.47,0,0,1,5.06,11.68,15.79,15.79,0,0,1-5.06,11.77,17.67,17.67,0,0,1-24.38,0Z"/></svg>