<svg id="Layer_1" data-name="Layer 1" xmlns="http://www.w3.org/2000/svg" viewBox="0 0 1000 1000"><defs><style>.cls-1{fill:#676c72;}</style></defs><title>LBWNT Sq Vertical</title><path class="cls-1" d="M96.17,67.41h16.2v122.4h60.52v15.61H96.17Z"/><path class="cls-1" d="M203.35,201.76a46.84,46.84,0,0,1-17.45-18.6,56.2,56.2,0,0,1-6.26-26.7,58.55,58.55,0,0,1,5.88-26.21,47.51,47.51,0,0,1,16.67-19.09A44.45,44.45,0,0,1,227.25,104q14.46,0,25.06,6.46a43,43,0,0,1,16.29,17.83,57.57,57.57,0,0,1,5.68,26,19,19,0,0,1-.58,5H196q.58,11.19,5.4,18.89a31.43,31.43,0,0,0,12.24,11.57,33.23,33.23,0,0,0,15.52,3.85q18.88,0,29.1-17.73l13.88,6.75a49.5,49.5,0,0,1-17.25,18.89Q244,208.5,228.6,208.51A47.88,47.88,0,0,1,203.35,201.76Zm53.58-55.9a32,32,0,0,0-3.47-12.34,26.36,26.36,0,0,0-9.73-10.41q-6.64-4.23-16.67-4.24a27.75,27.75,0,0,0-19.57,7.42q-8,7.42-10.5,19.57Z"/><path class="cls-1" d="M313.31,206.55a25.21,25.21,0,0,1-8.57-5.31,24.1,24.1,0,0,1-5.79-8.63,32.93,32.93,0,0,1-1.92-12V122H279.87V107.11H297V79.36h16.38v27.75h23.9V122h-23.9v54.77q0,8.28,3.08,12.22,3.66,4.34,10.61,4.33A20,20,0,0,0,337.89,190v16a25.46,25.46,0,0,1-5.88,1.93,41.68,41.68,0,0,1-7.61.58A30.85,30.85,0,0,1,313.31,206.55Z"/><path class="cls-1" d="M350.61,102.1l9.45-14.45a11,11,0,0,1-8.87-11,11.92,11.92,0,0,1,3.57-8.77,11.66,11.66,0,0,1,8.57-3.57,12.19,12.19,0,0,1,12.34,12.34,15,15,0,0,1-1.25,6,47.3,47.3,0,0,1-3.95,6.93l-12.15,17.54Z"/><path class="cls-1" d="M391.67,201.09a40.47,40.47,0,0,1-15-19l14.65-6.56a29.38,29.38,0,0,0,10.89,13.69,28.09,28.09,0,0,0,15.9,4.82,31.25,31.25,0,0,0,15.81-3.76q6.54-3.76,6.55-10.7a11.66,11.66,0,0,0-5.2-9.92q-5.21-3.76-16.39-6.46l-12-3.09q-11.76-2.88-19.28-9.83t-7.51-17.92a23.4,23.4,0,0,1,5.1-14.94,32.69,32.69,0,0,1,13.59-9.93A48,48,0,0,1,417.12,104a46.93,46.93,0,0,1,23,5.59,31.62,31.62,0,0,1,14.36,15.61l-14.26,6.56q-6.56-13.11-23.33-13.11a26.3,26.3,0,0,0-14.16,3.76q-6.08,3.77-6.08,9.54a10.69,10.69,0,0,0,4.24,8.77q4.24,3.38,12.73,5.5l14.26,3.66q14.46,3.66,21.78,10.89A23.86,23.86,0,0,1,457,178.44a25.53,25.53,0,0,1-5.21,15.9,33.09,33.09,0,0,1-14.07,10.5,51.08,51.08,0,0,1-19.66,3.67Q402.27,208.51,391.67,201.09Z"/><path class="cls-1" d="M96.17,238.79h49.54a41.46,41.46,0,0,1,19.57,4.82,37.79,37.79,0,0,1,14.55,13.3,34.8,34.8,0,0,1,5.4,19.08,30.47,30.47,0,0,1-5.11,17.54,33.31,33.31,0,0,1-13.78,11.57v.77a34.86,34.86,0,0,1,17,11.95,31.56,31.56,0,0,1,6.55,19.86,36.82,36.82,0,0,1-5.68,20.14,39.43,39.43,0,0,1-15.23,14,43.38,43.38,0,0,1-20.53,5H96.17Zm53.21,122.4a22.73,22.73,0,0,0,12.43-3.47,24.1,24.1,0,0,0,8.48-9,23.35,23.35,0,0,0,3-11.28,22.72,22.72,0,0,0-3.09-11.27,23.86,23.86,0,0,0-8.67-8.87A24.5,24.5,0,0,0,148.6,314H112.37v47.22Zm-3.67-62.64A22.82,22.82,0,0,0,158,295.27a23.18,23.18,0,0,0,8.2-8.39,20.45,20.45,0,0,0,.09-20.81,23,23,0,0,0-7.9-8.39,21.54,21.54,0,0,0-11.86-3.28H112.37v44.15Z"/><path class="cls-1" d="M214.43,369.48q-9.36-10.41-9.35-29.11V278.5h16.38v59.37q0,14.07,6.37,20.62T245,365.05a25.44,25.44,0,0,0,14.75-4.44,30.08,30.08,0,0,0,10-11.56,33.16,33.16,0,0,0,3.57-15V278.5H289.7v98.31H274.09V362.54h-.77q-4.05,7.33-12.92,12.34a37.8,37.8,0,0,1-18.89,5Q223.78,379.89,214.43,369.48Z"/><path class="cls-1" d="M311.48,257.1a11.31,11.31,0,0,1-3.47-8.29,11,11,0,0,1,3.47-8.19,11.88,11.88,0,0,1,16.58,0,11,11,0,0,1,3.47,8.19,11.49,11.49,0,0,1-3.37,8.29,11.76,11.76,0,0,1-16.68,0Zm.19,21.4h16.2v98.31h-16.2Z"/><path class="cls-1" d="M349.84,238.79h16.38v138H349.84Z"/><path class="cls-1" d="M403.53,373.14a47.12,47.12,0,0,1-16.87-18.6,61.46,61.46,0,0,1,0-53.68,47.07,47.07,0,0,1,16.87-18.7,43.66,43.66,0,0,1,23.8-6.74,39.86,39.86,0,0,1,20.24,5.1,37.22,37.22,0,0,1,13.49,12.63h.77l-.77-13.69V238.79h16.39v138H461.83V362.35h-.77a37.8,37.8,0,0,1-13.49,12.43,39.77,39.77,0,0,1-20.24,5.11A43.67,43.67,0,0,1,403.53,373.14Zm41.82-12.72a33.72,33.72,0,0,0,11.95-13.11,44.93,44.93,0,0,0,0-39.32,33.86,33.86,0,0,0-11.95-13.11,30.17,30.17,0,0,0-32.09,0,33.45,33.45,0,0,0-12.05,13.21,44.52,44.52,0,0,0,0,39.13,33.36,33.36,0,0,0,12.05,13.2,30.12,30.12,0,0,0,32.09,0Z"/><path class="cls-1" d="M84,410.17h18.12l25.06,101.4,2.31,9.44h.77l2.89-9.44L164,410.17h17l29.49,101.4,2.89,9.44h.77l27.18-110.84h18.12l-37.2,138h-17L176,448.34l-3.09-10.79h-.77l-3.28,10.79-30.45,99.85h-17Z"/><path class="cls-1" d="M271,410.17h16.39v40.68l-.77,13.49h.77a32.12,32.12,0,0,1,12.82-12.53,38,38,0,0,1,19.18-5q17.92,0,27.37,10.5t9.44,27.86v63H339.82V487.66q0-13.29-6.75-19.66t-17.54-6.36a23.78,23.78,0,0,0-14.17,4.63,34.08,34.08,0,0,0-14,27.18v54.74H271Z"/><path class="cls-1" d="M387.05,547a31.64,31.64,0,0,1-13.11-11.66,31.15,31.15,0,0,1-4.63-16.86q0-15.61,11.76-24.39t29.69-8.77a66.86,66.86,0,0,1,16.48,1.93,42.55,42.55,0,0,1,11.66,4.43v-6q0-11-7.71-17.64t-19.47-6.65A32.92,32.92,0,0,0,396.49,465a27.85,27.85,0,0,0-11,9.93l-12.33-9.25a39.35,39.35,0,0,1,15.9-13.88,49.92,49.92,0,0,1,22.46-5q20,0,31.51,10.5t11.47,28.63v62.26H438.9V534.12h-.77a35.18,35.18,0,0,1-12.73,12.14,36.78,36.78,0,0,1-19.08,5A42.43,42.43,0,0,1,387.05,547Zm36.23-14.45a32.14,32.14,0,0,0,11.38-11.38,30,30,0,0,0,4.24-15.61,40.65,40.65,0,0,0-11.37-5,51.94,51.94,0,0,0-14.27-1.93q-13.5,0-20.34,5.59a17.82,17.82,0,0,0-6.84,14.46,16.09,16.09,0,0,0,6.17,13.11q6.17,5,15.61,5A29.69,29.69,0,0,0,423.28,532.58Z"/><path class="cls-1" d="M498.17,549.31a25.08,25.08,0,0,1-8.58-5.3,24.08,24.08,0,0,1-5.78-8.63,32.71,32.71,0,0,1-1.93-12V464.73H464.73V449.88h17.15V422.12h16.39v27.76h23.9v14.85h-23.9V519.5c0,5.51,1,9.59,3.08,12.21Q505,536,512,536.05a20,20,0,0,0,10.8-3.28v16a25.46,25.46,0,0,1-5.88,1.93,41.92,41.92,0,0,1-7.62.57A30.58,30.58,0,0,1,498.17,549.31Z"/><path class="cls-1" d="M535.47,444.87l9.44-14.46a10.5,10.5,0,0,1-6.16-3.56,10.62,10.62,0,0,1-2.7-7.42,11.91,11.91,0,0,1,3.56-8.77,11.7,11.7,0,0,1,8.58-3.57,12.19,12.19,0,0,1,12.34,12.34,14.81,14.81,0,0,1-1.26,6,45.55,45.55,0,0,1-3.95,6.94l-12.14,17.54Z"/><path class="cls-1" d="M576.53,543.85a40.48,40.48,0,0,1-15-19l14.65-6.56A29.43,29.43,0,0,0,587,532a28.1,28.1,0,0,0,15.91,4.82,31.34,31.34,0,0,0,15.8-3.76q6.56-3.76,6.56-10.7a11.7,11.7,0,0,0-5.21-9.93q-5.21-3.75-16.38-6.45l-12-3.09Q580,500,572.48,493.06T565,475.13a23.34,23.34,0,0,1,5.11-14.93,32.56,32.56,0,0,1,13.59-9.93A47.75,47.75,0,0,1,602,446.8a46.83,46.83,0,0,1,23,5.59A31.67,31.67,0,0,1,639.37,468l-14.27,6.56q-6.55-13.11-23.32-13.11a26.33,26.33,0,0,0-14.17,3.76q-6.08,3.75-6.07,9.54a10.68,10.68,0,0,0,4.24,8.77Q590,486.9,598.5,489l14.27,3.67q14.46,3.66,21.78,10.89a23.81,23.81,0,0,1,7.32,17.63,25.55,25.55,0,0,1-5.2,15.91,33.09,33.09,0,0,1-14.07,10.5,51.07,51.07,0,0,1-19.66,3.66Q587.13,551.27,576.53,543.85Z"/><path class="cls-1" d="M96.17,581.56h20l69.2,109.87h.77l-.77-26.6V581.56h16.39v138h-17L112.37,604.5h-.78l.78,26.6v88.47H96.17Z"/><path class="cls-1" d="M244,715.91a46.84,46.84,0,0,1-17.45-18.6,56.31,56.31,0,0,1-6.26-26.7,58.55,58.55,0,0,1,5.88-26.21,47.58,47.58,0,0,1,16.67-19.09,44.45,44.45,0,0,1,25.06-7.13q14.46,0,25.06,6.46a42.88,42.88,0,0,1,16.29,17.83q5.69,11.37,5.68,26a19.41,19.41,0,0,1-.57,5H236.69q.59,11.19,5.4,18.89A31.43,31.43,0,0,0,254.33,704a33.24,33.24,0,0,0,15.52,3.86q18.88,0,29.1-17.74l13.88,6.75a49.5,49.5,0,0,1-17.25,18.89q-10.89,6.93-26.31,6.94A47.88,47.88,0,0,1,244,715.91ZM297.61,660a32.13,32.13,0,0,0-3.47-12.34,26.46,26.46,0,0,0-9.74-10.41Q277.76,633,267.73,633a27.71,27.71,0,0,0-19.57,7.43q-8,7.41-10.5,19.56Z"/><path class="cls-1" d="M353.31,669.65l-34.12-48.38H337.7l25.44,36.43,24.48-36.43h19.09L372.4,669.65l35.08,49.92H388.39l-25.63-37.78L337.7,719.57H318.62Z"/><path class="cls-1" d="M445,720.7a25.3,25.3,0,0,1-8.58-5.3,24.2,24.2,0,0,1-5.78-8.64,32.71,32.71,0,0,1-1.93-12V636.11H411.53V621.27h17.15V593.51h16.39v27.76H469v14.84h-23.9v54.77q0,8.28,3.08,12.22,3.66,4.33,10.6,4.33a20,20,0,0,0,10.8-3.28v16a25.46,25.46,0,0,1-5.88,1.93,40.92,40.92,0,0,1-7.62.58A30.8,30.8,0,0,1,445,720.7Z"/><path class="cls-1" d="M487,716.18a11.09,11.09,0,0,1-3.57-8.36,10.87,10.87,0,0,1,3.57-8.17,12.22,12.22,0,0,1,8.77-3.4,12,12,0,0,1,8.58,3.4,10.9,10.9,0,0,1,3.56,8.17,11.12,11.12,0,0,1-3.56,8.36,12,12,0,0,1-8.58,3.39A12.25,12.25,0,0,1,487,716.18Z"/><path class="cls-1" d="M124.51,777.61H86V752.94H189.08v24.67H150.53V891h-26Z"/><path class="cls-1" d="M207,887.2a48.57,48.57,0,0,1-18.6-18.7,56.73,56.73,0,0,1,0-53.3A48.4,48.4,0,0,1,207,796.41a57,57,0,0,1,54.17,0,48.47,48.47,0,0,1,18.6,18.79,56.73,56.73,0,0,1,0,53.3,48.64,48.64,0,0,1-18.6,18.7,57,57,0,0,1-54.17,0Zm40.67-20a25.53,25.53,0,0,0,9.84-10,31.18,31.18,0,0,0,3.66-15.42,30.87,30.87,0,0,0-3.66-15.23,25.5,25.5,0,0,0-9.84-10,28,28,0,0,0-27,0,26.12,26.12,0,0,0-9.93,10A30.07,30.07,0,0,0,207,841.8a30.58,30.58,0,0,0,3.76,15.33,26,26,0,0,0,9.93,10.12,28,28,0,0,0,27,0Z"/><path class="cls-1" d="M316.11,927.29q-12.33-8.38-16.58-20.14l23.71-9.64a25.36,25.36,0,0,0,23.91,15.81q11.94,0,19-7.33t7-20.82v-7.71h-1.54a30,30,0,0,1-12.15,10A40.54,40.54,0,0,1,342.33,891a43.41,43.41,0,0,1-22.65-6.27A46.13,46.13,0,0,1,302.81,867q-6.36-11.48-6.36-26.7t6.36-26.7a46.27,46.27,0,0,1,16.87-17.73,43.49,43.49,0,0,1,22.65-6.26A40.38,40.38,0,0,1,359.48,793a29.87,29.87,0,0,1,12.15,10h1.54V792.65h24.29v91.56q0,15.81-6.17,27.37a43.12,43.12,0,0,1-17.54,17.83q-11.38,6.27-26.6,6.27Q328.45,935.68,316.11,927.29Zm49.54-66.69q7.52-7.43,7.52-20.34,0-13.31-7.42-20.53a26.55,26.55,0,0,0-36.53.1q-7.52,7.32-7.52,20.43t7.52,20.43A25.22,25.22,0,0,0,347.53,868,24.84,24.84,0,0,0,365.65,860.6Z"/><path class="cls-1" d="M437,887.29a48.25,48.25,0,0,1-18.41-18.6,56.08,56.08,0,0,1-.09-52.81,50.46,50.46,0,0,1,18.12-19.18,48.17,48.17,0,0,1,25.83-7.13q15.22,0,26.21,6.55a42.79,42.79,0,0,1,16.68,17.93A55.8,55.8,0,0,1,511,839.3a59.35,59.35,0,0,1-.58,8.48H436.59q1.92,11.76,9.35,17.83a27.23,27.23,0,0,0,17.83,6.07,28.48,28.48,0,0,0,14.94-3.76,27.74,27.74,0,0,0,9.92-10.12l20.43,10Q494,894,463.38,894A52.08,52.08,0,0,1,437,887.29Zm49.73-57.44a19.44,19.44,0,0,0-3.37-9.15,23.46,23.46,0,0,0-8.29-7.52,24.91,24.91,0,0,0-12.43-3,23.71,23.71,0,0,0-15.52,5.3,29.81,29.81,0,0,0-9.35,14.36Z"/><path class="cls-1" d="M553,891.78a26.52,26.52,0,0,1-10-6.19q-9.06-8.85-9.06-25.16V814.24H516.77V792.65h17.16V764.89h25.25v27.76h24.1v21.59h-24.1v41.82q0,7.73,3.28,11.1,2.7,3.17,9.25,3.17a16.54,16.54,0,0,0,6.07-1,47.17,47.17,0,0,0,6.27-3.28v24.67A47.21,47.21,0,0,1,566.51,894,38.87,38.87,0,0,1,553,891.78Z"/><path class="cls-1" d="M601.39,752.94h25.25v34.89L625.1,805h1.54A30.68,30.68,0,0,1,639,793.81a37.19,37.19,0,0,1,17.54-4.24q17.93,0,27.47,10.69t9.54,29.59V891H668.28v-58q0-9.45-5.11-14.65t-13.59-5.21a20.18,20.18,0,0,0-16.48,8.1q-6.47,8.09-6.46,19.85V891H601.39Z"/><path class="cls-1" d="M733.24,887.29a48.18,48.18,0,0,1-18.41-18.6,56.12,56.12,0,0,1-.1-52.81,50.46,50.46,0,0,1,18.12-19.18,48.17,48.17,0,0,1,25.83-7.13q15.23,0,26.22,6.55a42.77,42.77,0,0,1,16.67,17.93,55.68,55.68,0,0,1,5.69,25.25,60.84,60.84,0,0,1-.58,8.48H732.85q1.93,11.76,9.35,17.83A27.25,27.25,0,0,0,760,871.68,28.48,28.48,0,0,0,775,867.92a27.69,27.69,0,0,0,9.93-10.12l20.43,10Q790.3,894,759.65,894A52.08,52.08,0,0,1,733.24,887.29ZM783,829.85a19.55,19.55,0,0,0-3.37-9.15,23.63,23.63,0,0,0-8.29-7.52,24.94,24.94,0,0,0-12.43-3,23.67,23.67,0,0,0-15.52,5.3A29.74,29.74,0,0,0,734,829.85Z"/><path class="cls-1" d="M822.87,792.65h23.71v13.11h1.54a29.71,29.71,0,0,1,11.37-11.57,32.41,32.41,0,0,1,17-4.62,32,32,0,0,1,12.33,2.31v25.06a81.13,81.13,0,0,0-8.77-2.8,32,32,0,0,0-7.61-.87q-11.19,0-17.74,8.12t-6.55,20.49V891H822.87Z"/><path class="cls-1" d="M887.35,886.21a15.32,15.32,0,0,1-4.92-11.44,15,15,0,0,1,4.92-11.35,17.42,17.42,0,0,1,23.7,0A15,15,0,0,1,916,874.77a15.32,15.32,0,0,1-4.92,11.44,17.16,17.16,0,0,1-23.7,0Z"/></svg>