<svg id="Layer_1" data-name="Layer 1" xmlns="http://www.w3.org/2000/svg" viewBox="0 0 1000 1000"><defs><style>.cls-1{fill:#676c72;}</style></defs><title>LTLT Sq Vertical</title><path class="cls-1" d="M95.31,238.79H111.5v122.4H172v15.62H95.31Z"/><path class="cls-1" d="M202.48,373.14A46.7,46.7,0,0,1,185,354.54a56.31,56.31,0,0,1-6.26-26.7,58.58,58.58,0,0,1,5.88-26.21,47.49,47.49,0,0,1,16.67-19.08q10.8-7.14,25.06-7.13,14.46,0,25.06,6.45a42.88,42.88,0,0,1,16.29,17.83,57.48,57.48,0,0,1,5.68,26,19.52,19.52,0,0,1-.57,5H195.15q.58,11.17,5.4,18.89a31.4,31.4,0,0,0,12.24,11.56,33.12,33.12,0,0,0,15.52,3.86q18.88,0,29.11-17.74l13.87,6.75A49.5,49.5,0,0,1,254,373q-10.89,6.94-26.31,6.94A47.88,47.88,0,0,1,202.48,373.14Zm53.59-55.9a32,32,0,0,0-3.47-12.33,26.39,26.39,0,0,0-9.74-10.41q-6.65-4.25-16.67-4.24a27.7,27.7,0,0,0-19.57,7.42q-8,7.43-10.5,19.56Z"/><path class="cls-1" d="M312.45,377.93a25.3,25.3,0,0,1-8.58-5.3,24.2,24.2,0,0,1-5.78-8.64,32.71,32.71,0,0,1-1.93-12V293.34H279V278.5h17.16V250.74h16.38V278.5h23.9v14.84h-23.9v54.77q0,8.28,3.09,12.22,3.66,4.34,10.6,4.33A20,20,0,0,0,337,361.39v16a24.84,24.84,0,0,1-5.88,1.93,40.81,40.81,0,0,1-7.61.58A30.76,30.76,0,0,1,312.45,377.93Z"/><path class="cls-1" d="M349.74,273.49,359.19,259a11,11,0,0,1-8.87-11,11.92,11.92,0,0,1,3.57-8.77,11.71,11.71,0,0,1,8.58-3.56A12.16,12.16,0,0,1,374.8,248a14.82,14.82,0,0,1-1.25,6A46.42,46.42,0,0,1,369.6,261L357.46,278.5Z"/><path class="cls-1" d="M390.8,372.47a40.53,40.53,0,0,1-15-19l14.65-6.55a29.4,29.4,0,0,0,10.89,13.68,28,28,0,0,0,15.9,4.82A31.25,31.25,0,0,0,433,361.67q6.56-3.75,6.55-10.69a11.68,11.68,0,0,0-5.2-9.93q-5.21-3.76-16.39-6.46l-12-3.08q-11.76-2.89-19.27-9.83t-7.52-17.93a23.39,23.39,0,0,1,5.11-14.94,32.73,32.73,0,0,1,13.59-9.93,47.9,47.9,0,0,1,18.31-3.46,46.87,46.87,0,0,1,23,5.58,31.6,31.6,0,0,1,14.36,15.62l-14.26,6.55q-6.56-13.1-23.32-13.11a26.42,26.42,0,0,0-14.17,3.76q-6.08,3.76-6.07,9.55a10.69,10.69,0,0,0,4.24,8.77q4.23,3.36,12.72,5.49L427,321.29q14.46,3.66,21.78,10.89a23.82,23.82,0,0,1,7.33,17.64,25.52,25.52,0,0,1-5.2,15.9,33.06,33.06,0,0,1-14.08,10.51,51,51,0,0,1-19.66,3.66Q401.4,379.89,390.8,372.47Z"/><path class="cls-1" d="M123.64,425.79H84.9V410.17h93.68v15.62H140v122.4H123.64Z"/><path class="cls-1" d="M180.5,449.88h15.62v15.81h.77q2.9-8.1,11.18-13.49a31.27,31.27,0,0,1,17.35-5.4A28.65,28.65,0,0,1,237,448.92v17.54a30.68,30.68,0,0,0-13.88-3.08,22.85,22.85,0,0,0-13.1,4.05,29.24,29.24,0,0,0-9.55,10.92,31.53,31.53,0,0,0-3.56,14.78v55.06H180.5Z"/><path class="cls-1" d="M257.22,547a31.67,31.67,0,0,1-13.1-11.66,31.15,31.15,0,0,1-4.63-16.86q0-15.61,11.76-24.39t29.68-8.77a66.75,66.75,0,0,1,16.48,1.93,42.51,42.51,0,0,1,11.67,4.43v-6q0-11-7.71-17.64t-19.47-6.65A32.92,32.92,0,0,0,266.67,465a27.85,27.85,0,0,0-11,9.93l-12.33-9.25a39.35,39.35,0,0,1,15.9-13.88,49.88,49.88,0,0,1,22.45-5q20.06,0,31.52,10.5t11.47,28.63v62.26H309.08V534.12h-.77a35.18,35.18,0,0,1-12.73,12.14,36.78,36.78,0,0,1-19.08,5A42.51,42.51,0,0,1,257.22,547Zm36.24-14.45a32.14,32.14,0,0,0,11.38-11.38,30,30,0,0,0,4.24-15.61,40.59,40.59,0,0,0-11.38-5,51.87,51.87,0,0,0-14.26-1.93q-13.5,0-20.34,5.59a17.82,17.82,0,0,0-6.84,14.46,16.06,16.06,0,0,0,6.17,13.11q6.17,5,15.61,5A29.69,29.69,0,0,0,293.46,532.58Z"/><path class="cls-1" d="M343.58,449.88h15.61v14.46H360Q364,457,372.88,451.91a37.17,37.17,0,0,1,18.89-5.11q17.73,0,27.08,10.31t9.35,28.05v63H411.82V487.66q0-13.68-6.56-19.85t-17.93-6.17a23.93,23.93,0,0,0-14.16,4.43,29.89,29.89,0,0,0-9.74,11.67A34.59,34.59,0,0,0,360,492.87v55.32H343.58Z"/><path class="cls-1" d="M454.8,543.85a40.4,40.4,0,0,1-15-19l14.64-6.56A29.45,29.45,0,0,0,465.31,532a28.07,28.07,0,0,0,15.9,4.82,31.31,31.31,0,0,0,15.8-3.76q6.56-3.76,6.56-10.7a11.7,11.7,0,0,0-5.21-9.93Q493.16,508.68,482,506l-12-3.09q-11.76-2.89-19.28-9.83t-7.52-17.93a23.4,23.4,0,0,1,5.11-14.93,32.69,32.69,0,0,1,13.59-9.93,47.79,47.79,0,0,1,18.31-3.47,46.83,46.83,0,0,1,23,5.59A31.62,31.62,0,0,1,517.64,468l-14.26,6.56q-6.56-13.11-23.33-13.11a26.33,26.33,0,0,0-14.17,3.76q-6.06,3.75-6.07,9.54a10.68,10.68,0,0,0,4.24,8.77q4.24,3.38,12.72,5.49L491,492.68q14.46,3.66,21.78,10.89a23.82,23.82,0,0,1,7.33,17.63,25.56,25.56,0,0,1-5.21,15.91,33.09,33.09,0,0,1-14.07,10.5,51.07,51.07,0,0,1-19.66,3.66Q465.4,551.27,454.8,543.85Z"/><path class="cls-1" d="M545.59,464.73H527.47V449.88h18.12v-10.6a30.4,30.4,0,0,1,4.24-16.19,28.88,28.88,0,0,1,11.37-10.7A33.42,33.42,0,0,1,577,408.63,40.9,40.9,0,0,1,591.46,411v16q-3.47-1.33-6.55-2.21a27.2,27.2,0,0,0-7.32-.87,15.17,15.17,0,0,0-11,4.53Q562,432.92,562,441v8.86h25.25v14.85H562v83.46H545.59Z"/><path class="cls-1" d="M616.72,544.33a48.43,48.43,0,0,1-18-18.89,57.19,57.19,0,0,1,0-52.81,48.43,48.43,0,0,1,18-18.89,52.25,52.25,0,0,1,52,0,48.52,48.52,0,0,1,18,18.89,57.27,57.27,0,0,1,0,52.81,48.52,48.52,0,0,1-18,18.89,52.25,52.25,0,0,1-52,0Zm42.89-12.43a33.48,33.48,0,0,0,12.53-13,44.12,44.12,0,0,0,0-39.71,33.55,33.55,0,0,0-12.53-13,33.06,33.06,0,0,0-16.87-4.53,33.5,33.5,0,0,0-29.59,17.54,44.12,44.12,0,0,0,0,39.71,33.71,33.71,0,0,0,46.46,13Z"/><path class="cls-1" d="M706.54,449.88h15.62v15.81h.77q2.9-8.1,11.18-13.49a31.27,31.27,0,0,1,17.35-5.4A28.65,28.65,0,0,1,763,448.92v17.54a30.68,30.68,0,0,0-13.88-3.08,22.85,22.85,0,0,0-13.1,4.05,29.24,29.24,0,0,0-9.55,10.92,31.53,31.53,0,0,0-3.56,14.78v55.06H706.54Z"/><path class="cls-1" d="M755,449.88h15.62v14.46h.77a33.94,33.94,0,0,1,12.72-12.53,34.69,34.69,0,0,1,17.93-5A33.68,33.68,0,0,1,820.8,452a29.16,29.16,0,0,1,11.47,13.88A40.15,40.15,0,0,1,846.05,452a37.7,37.7,0,0,1,20-5.2q17,0,25.54,10.31t8.58,28.05v63H883.93V487.66q0-13.68-5.59-19.85t-16.58-6.17a22.5,22.5,0,0,0-13.3,4.24,28.73,28.73,0,0,0-9.35,11.37,35.63,35.63,0,0,0-3.37,15.43v55.51H819.36V487.86q0-13.89-5.6-20.05t-16.38-6.17a22.12,22.12,0,0,0-13.3,4.34,29.26,29.26,0,0,0-9.35,11.56,36.25,36.25,0,0,0-3.37,15.52v55.13H755Z"/><path class="cls-1" d="M95.31,581.56H111.5V704H172v15.61H95.31Z"/><path class="cls-1" d="M202.48,715.91A46.84,46.84,0,0,1,185,697.31a56.31,56.31,0,0,1-6.26-26.7,58.55,58.55,0,0,1,5.88-26.21,47.58,47.58,0,0,1,16.67-19.09,44.45,44.45,0,0,1,25.06-7.13q14.46,0,25.06,6.46a42.88,42.88,0,0,1,16.29,17.83q5.68,11.37,5.68,26a19.41,19.41,0,0,1-.57,5H195.15q.58,11.19,5.4,18.89A31.43,31.43,0,0,0,212.79,704a33.24,33.24,0,0,0,15.52,3.86q18.88,0,29.11-17.74l13.87,6.75A49.5,49.5,0,0,1,254,715.72q-10.89,6.93-26.31,6.94A47.88,47.88,0,0,1,202.48,715.91ZM256.07,660a32.13,32.13,0,0,0-3.47-12.34,26.39,26.39,0,0,0-9.74-10.41Q236.22,633,226.19,633a27.71,27.71,0,0,0-19.57,7.43q-8,7.41-10.5,19.56Z"/><path class="cls-1" d="M304.16,756.2q-11.28-8.1-15.14-19.47l14.85-6.36a29.37,29.37,0,0,0,10.89,13.78,30.75,30.75,0,0,0,18,5.3q15.23,0,23.61-8.5t8.39-24.27v-11H364a36.06,36.06,0,0,1-13.59,12.25,41.52,41.52,0,0,1-19.95,4.72A42.65,42.65,0,0,1,307.24,716a46.78,46.78,0,0,1-16.67-18.52q-6.18-11.88-6.17-27.09a58.07,58.07,0,0,1,6.17-27,46.64,46.64,0,0,1,16.67-18.61,42.65,42.65,0,0,1,23.23-6.63,41.52,41.52,0,0,1,19.95,4.72A35.54,35.54,0,0,1,364,635.34h.77V621.27h15.61v94.45q0,23.7-13.11,36.14t-34.5,12.43Q315.42,764.29,304.16,756.2Zm44.72-52.89a32.1,32.1,0,0,0,11.56-12.92q4.33-8.42,4.34-20,0-11.74-4.34-20.16a31.45,31.45,0,0,0-11.56-12.83,31.45,31.45,0,0,0-32.29.1,31.81,31.81,0,0,0-11.66,12.92q-4.35,8.41-4.34,20t4.34,20.07a30.36,30.36,0,0,0,27.85,17.33A29.78,29.78,0,0,0,348.88,703.31Z"/><path class="cls-1" d="M412,718.42a31.76,31.76,0,0,1-13.1-11.67,31.12,31.12,0,0,1-4.63-16.86q0-15.61,11.76-24.39t29.68-8.77a67.23,67.23,0,0,1,16.48,1.93,42.8,42.8,0,0,1,11.67,4.44v-6q0-11-7.71-17.64t-19.47-6.65a32.8,32.8,0,0,0-15.23,3.57,27.82,27.82,0,0,0-11,9.92l-12.34-9.25A39.51,39.51,0,0,1,414,623.19a49.88,49.88,0,0,1,22.45-5q20.06,0,31.52,10.51t11.47,28.62v62.26H463.86V705.5h-.78a35,35,0,0,1-12.72,12.15,36.78,36.78,0,0,1-19.08,5A42.64,42.64,0,0,1,412,718.42ZM448.24,704a32.2,32.2,0,0,0,11.38-11.37A30.08,30.08,0,0,0,463.86,677a40.88,40.88,0,0,0-11.38-5A51.87,51.87,0,0,0,438.22,670q-13.5,0-20.34,5.59A17.82,17.82,0,0,0,411,690.08a16.06,16.06,0,0,0,6.17,13.11q6.17,5,15.61,5A29.59,29.59,0,0,0,448.24,704Z"/><path class="cls-1" d="M516.29,715.81a47.69,47.69,0,0,1-17.74-18.69,59.41,59.41,0,0,1,0-53.49,46.86,46.86,0,0,1,17.74-18.7,49.24,49.24,0,0,1,25.63-6.75q16,0,26.89,7.42a40.65,40.65,0,0,1,15.52,19.76l-14.84,6.17a28.76,28.76,0,0,0-10.89-13.78Q551.37,633,541.15,633A29.88,29.88,0,0,0,525,637.75,34.32,34.32,0,0,0,512.91,651a44.11,44.11,0,0,0,0,38.94A34.25,34.25,0,0,0,525,703.09a29.88,29.88,0,0,0,16.19,4.73A32.53,32.53,0,0,0,559.08,703a28.84,28.84,0,0,0,11.18-13.69l14.65,6.17a43.28,43.28,0,0,1-16.1,19.66q-11.09,7.51-26.89,7.52A48.65,48.65,0,0,1,516.29,715.81Z"/><path class="cls-1" d="M628.86,713.41l-40.68-92.14h17.74l30.84,73.05h.38l29.69-73.05h17.73L623.84,761.21h-17Z"/><path class="cls-1" d="M682.92,716.18a11.12,11.12,0,0,1-3.56-8.36,10.9,10.9,0,0,1,3.56-8.17,12.24,12.24,0,0,1,8.78-3.4,12,12,0,0,1,8.57,3.4,10.87,10.87,0,0,1,3.57,8.17,11.09,11.09,0,0,1-3.57,8.36,12,12,0,0,1-8.57,3.39A12.27,12.27,0,0,1,682.92,716.18Z"/><path class="cls-1" d="M123.64,777.61H85.09V752.94H188.22v24.67H149.66V891h-26Z"/><path class="cls-1" d="M206.14,887.2a48.71,48.71,0,0,1-18.6-18.7,56.73,56.73,0,0,1,0-53.3,48.53,48.53,0,0,1,18.6-18.79,57,57,0,0,1,54.17,0,48.4,48.4,0,0,1,18.6,18.79,56.73,56.73,0,0,1,0,53.3,48.57,48.57,0,0,1-18.6,18.7,57,57,0,0,1-54.17,0Zm40.68-20a25.51,25.51,0,0,0,9.83-10,31.07,31.07,0,0,0,3.66-15.42,30.76,30.76,0,0,0-3.66-15.23,25.48,25.48,0,0,0-9.83-10,28,28,0,0,0-27,0,26.19,26.19,0,0,0-9.93,10,30.17,30.17,0,0,0-3.76,15.23,30.69,30.69,0,0,0,3.76,15.33,26.06,26.06,0,0,0,9.93,10.12,28,28,0,0,0,27,0Z"/><path class="cls-1" d="M315.24,927.29q-12.33-8.38-16.57-20.14l23.71-9.64a25.33,25.33,0,0,0,23.9,15.81q12,0,19-7.33t7-20.82v-7.71h-1.54a29.94,29.94,0,0,1-12.14,10A40.61,40.61,0,0,1,341.46,891a43.41,43.41,0,0,1-22.65-6.27A46.2,46.2,0,0,1,301.94,867q-6.36-11.48-6.36-26.7t6.36-26.7a46.34,46.34,0,0,1,16.87-17.73,43.49,43.49,0,0,1,22.65-6.26A40.46,40.46,0,0,1,358.62,793a29.84,29.84,0,0,1,12.14,10h1.54V792.65h24.29v91.56q0,15.81-6.17,27.37a43.06,43.06,0,0,1-17.54,17.83q-11.37,6.27-26.6,6.27Q327.58,935.68,315.24,927.29Zm49.54-66.69q7.53-7.43,7.52-20.34,0-13.31-7.42-20.53a26.55,26.55,0,0,0-36.53.1q-7.52,7.32-7.51,20.43t7.51,20.43A25.24,25.24,0,0,0,346.67,868,24.84,24.84,0,0,0,364.78,860.6Z"/><path class="cls-1" d="M436.11,887.29a48.18,48.18,0,0,1-18.41-18.6,56.12,56.12,0,0,1-.1-52.81,50.46,50.46,0,0,1,18.12-19.18,48.17,48.17,0,0,1,25.83-7.13q15.22,0,26.22,6.55a42.77,42.77,0,0,1,16.67,17.93,55.68,55.68,0,0,1,5.69,25.25,60.84,60.84,0,0,1-.58,8.48H435.72q1.92,11.76,9.35,17.83a27.23,27.23,0,0,0,17.83,6.07,28.48,28.48,0,0,0,14.94-3.76,27.85,27.85,0,0,0,9.93-10.12l20.43,10q-15,26.2-45.69,26.21A52,52,0,0,1,436.11,887.29Zm49.73-57.44a19.46,19.46,0,0,0-3.38-9.15,23.51,23.51,0,0,0-8.28-7.52,25,25,0,0,0-12.44-3,23.66,23.66,0,0,0-15.51,5.3,29.67,29.67,0,0,0-9.35,14.36Z"/><path class="cls-1" d="M552.14,891.78a26.52,26.52,0,0,1-10-6.19q-9.06-8.85-9.06-25.16V814.24H515.91V792.65h17.15V764.89h25.25v27.76h24.1v21.59h-24.1v41.82q0,7.73,3.28,11.1,2.7,3.17,9.25,3.17a16.51,16.51,0,0,0,6.07-1,46.56,46.56,0,0,0,6.27-3.28v24.67A47.17,47.17,0,0,1,565.64,894,38.91,38.91,0,0,1,552.14,891.78Z"/><path class="cls-1" d="M600.53,752.94h25.25v34.89L624.24,805h1.54a30.65,30.65,0,0,1,12.33-11.18,37.22,37.22,0,0,1,17.54-4.24q17.94,0,27.47,10.69t9.54,29.59V891H667.41v-58q0-9.45-5.11-14.65t-13.58-5.21a20.19,20.19,0,0,0-16.49,8.1q-6.45,8.09-6.45,19.85V891H600.53Z"/><path class="cls-1" d="M732.37,887.29A48.25,48.25,0,0,1,714,868.69a56.08,56.08,0,0,1-.09-52.81A50.39,50.39,0,0,1,732,796.7a48.15,48.15,0,0,1,25.83-7.13q15.23,0,26.21,6.55a42.71,42.71,0,0,1,16.67,17.93,55.68,55.68,0,0,1,5.69,25.25,59.35,59.35,0,0,1-.58,8.48H732q1.92,11.76,9.34,17.83a27.25,27.25,0,0,0,17.83,6.07,28.43,28.43,0,0,0,14.94-3.76A27.69,27.69,0,0,0,784,857.8l20.43,10q-15,26.2-45.68,26.21A52.08,52.08,0,0,1,732.37,887.29Zm49.73-57.44a19.55,19.55,0,0,0-3.37-9.15,23.55,23.55,0,0,0-8.29-7.52,24.94,24.94,0,0,0-12.43-3,23.69,23.69,0,0,0-15.52,5.3,29.74,29.74,0,0,0-9.35,14.36Z"/><path class="cls-1" d="M822,792.65h23.71v13.11h1.54a29.67,29.67,0,0,1,11.38-11.57,32.35,32.35,0,0,1,17-4.62,32,32,0,0,1,12.34,2.31v25.06a81.21,81.21,0,0,0-8.78-2.8,32,32,0,0,0-7.61-.87q-11.17,0-17.73,8.12t-6.56,20.49V891H822Z"/><path class="cls-1" d="M886.48,886.21a15.32,15.32,0,0,1-4.92-11.44,15,15,0,0,1,4.92-11.35,17.44,17.44,0,0,1,23.71,0,15.06,15.06,0,0,1,4.91,11.35,15.35,15.35,0,0,1-4.91,11.44,17.17,17.17,0,0,1-23.71,0Z"/></svg>