<svg id="Layer_1" data-name="Layer 1" xmlns="http://www.w3.org/2000/svg" viewBox="0 0 3000 1000"><defs><style>.cls-1{fill:#676c72;}.cls-2{fill:#fbbc04;}.cls-3{fill:#0f9d58;}.cls-4{fill:#4285f4;}.cls-5{fill:#ea4335;}</style></defs><title>01 DEVFEST BWNTL Logo</title><path class="cls-1" d="M695.06,724.13h25.7a21.45,21.45,0,0,1,10.15,2.5,19.55,19.55,0,0,1,7.55,6.9,18.09,18.09,0,0,1,2.8,9.9,15.86,15.86,0,0,1-2.65,9.1,17.3,17.3,0,0,1-7.15,6v.4a18.06,18.06,0,0,1,8.8,6.2,16.38,16.38,0,0,1,3.4,10.3,19.17,19.17,0,0,1-2.95,10.45,20.51,20.51,0,0,1-7.9,7.25,22.6,22.6,0,0,1-10.65,2.6h-27.1Zm25.7,31a11.87,11.87,0,0,0,6.35-1.7,12.19,12.19,0,0,0,4.25-4.35,11,11,0,0,0,1.5-5.45,11.1,11.1,0,0,0-1.45-5.35,11.94,11.94,0,0,0-4.1-4.35,11.1,11.1,0,0,0-6.15-1.7h-17.7v22.9Zm1.9,32.5a11.82,11.82,0,0,0,6.45-1.8,12.56,12.56,0,0,0,4.4-4.65,12.14,12.14,0,0,0,1.55-5.85,11.88,11.88,0,0,0-1.6-5.85,12.4,12.4,0,0,0-4.5-4.6,12.71,12.71,0,0,0-6.7-1.75h-18.8v24.5Z"/><path class="cls-1" d="M756.41,791.93q-4.86-5.4-4.85-15.1v-32.1h8.5v30.8q0,7.29,3.3,10.7a11.84,11.84,0,0,0,8.9,3.4,13.25,13.25,0,0,0,7.65-2.3,15.81,15.81,0,0,0,5.2-6,17.28,17.28,0,0,0,1.85-7.8v-28.8h8.5v51h-8.1v-7.4H787a16.94,16.94,0,0,1-6.7,6.4,19.67,19.67,0,0,1-9.8,2.6Q761.25,797.33,756.41,791.93Z"/><path class="cls-1" d="M806.75,733.63a5.88,5.88,0,0,1-1.8-4.3,5.69,5.69,0,0,1,1.8-4.25,6.16,6.16,0,0,1,8.6,0,5.69,5.69,0,0,1,1.8,4.25,6,6,0,0,1-1.75,4.3,5.8,5.8,0,0,1-4.35,1.8A5.88,5.88,0,0,1,806.75,733.63Zm.1,11.1h8.4v51h-8.4Z"/><path class="cls-1" d="M826.65,724.13h8.5v71.6h-8.5Z"/><path class="cls-1" d="M854.5,793.83a24.7,24.7,0,0,1-8.75-9.65,32,32,0,0,1,0-27.85,24.51,24.51,0,0,1,8.75-9.7,22.65,22.65,0,0,1,12.35-3.5,20.58,20.58,0,0,1,10.5,2.65,19.21,19.21,0,0,1,7,6.55h.4l-.4-7.1v-21.1h8.5v71.6h-8.1v-7.5h-.4a19.68,19.68,0,0,1-7,6.45,20.68,20.68,0,0,1-10.5,2.65A22.74,22.74,0,0,1,854.5,793.83Zm21.71-6.6a17.64,17.64,0,0,0,6.2-6.8,23.4,23.4,0,0,0,0-20.4,17.57,17.57,0,0,0-6.2-6.8,15.64,15.64,0,0,0-16.65,0,17.25,17.25,0,0,0-6.25,6.85,23.09,23.09,0,0,0,0,20.3,17.32,17.32,0,0,0,6.25,6.85,15.64,15.64,0,0,0,16.65,0Z"/><path class="cls-1" d="M916.05,724.13h9.4l13,52.6,1.2,4.9h.4l1.5-4.9,16-52.6h8.8l15.3,52.6,1.5,4.9h.4l14.1-57.5h9.4l-19.3,71.6H979l-15.2-51.8-1.6-5.6h-.4l-1.7,5.6-15.8,51.8h-8.8Z"/><path class="cls-1" d="M1013.05,724.13h8.5v21.1l-.4,7h.4a16.66,16.66,0,0,1,6.65-6.5,19.66,19.66,0,0,1,10-2.6q9.3,0,14.2,5.45t4.9,14.45v32.7h-8.5v-31.4q0-6.9-3.5-10.2a12.71,12.71,0,0,0-9.1-3.3,12.38,12.38,0,0,0-7.35,2.4,17.67,17.67,0,0,0-7.25,14.1v28.4h-8.5Z"/><path class="cls-1" d="M1073.25,795.13a16.57,16.57,0,0,1-6.8-6,16.22,16.22,0,0,1-2.4-8.75,14.9,14.9,0,0,1,6.1-12.65q6.11-4.56,15.4-4.55a34.57,34.57,0,0,1,8.55,1,21.7,21.7,0,0,1,6.05,2.3v-3.1a11.47,11.47,0,0,0-4-9.15,14.9,14.9,0,0,0-10.1-3.45,17,17,0,0,0-7.9,1.85,14.41,14.41,0,0,0-5.7,5.15l-6.4-4.8a20.39,20.39,0,0,1,8.25-7.2,25.82,25.82,0,0,1,11.65-2.6q10.41,0,16.35,5.45t6,14.85v32.3h-8.1v-7.3h-.4a18.24,18.24,0,0,1-6.6,6.3,19.11,19.11,0,0,1-9.9,2.6A22.18,22.18,0,0,1,1073.25,795.13Zm18.8-7.5a16.67,16.67,0,0,0,5.9-5.9,15.55,15.55,0,0,0,2.2-8.1,20.63,20.63,0,0,0-5.9-2.6,26.67,26.67,0,0,0-7.4-1q-7,0-10.55,2.9a9.25,9.25,0,0,0-3.55,7.5,8.36,8.36,0,0,0,3.2,6.8,12.47,12.47,0,0,0,8.1,2.6A15.42,15.42,0,0,0,1092.05,787.63Z"/><path class="cls-1" d="M1130.9,796.31a13.26,13.26,0,0,1-4.45-2.75,12.62,12.62,0,0,1-3-4.48,17.19,17.19,0,0,1-1-6.21V752.43h-8.9v-7.7h8.9v-14.4h8.5v14.4h12.4v7.7H1131v28.41c0,2.86.54,5,1.6,6.34a6.8,6.8,0,0,0,5.5,2.25,10.38,10.38,0,0,0,5.6-1.7V796a13.28,13.28,0,0,1-3.05,1,21.37,21.37,0,0,1-3.95.3A15.91,15.91,0,0,1,1130.9,796.31Z"/><path class="cls-1" d="M1150.25,742.13l4.9-7.5a5.7,5.7,0,0,1-4.6-5.7,6.19,6.19,0,0,1,1.85-4.55,6.06,6.06,0,0,1,4.45-1.85,6.32,6.32,0,0,1,6.4,6.4,7.63,7.63,0,0,1-.65,3.1,23.1,23.1,0,0,1-2,3.6l-6.3,9.1Z"/><path class="cls-1" d="M1171.55,793.48a21.11,21.11,0,0,1-7.8-9.85l7.6-3.4a15.35,15.35,0,0,0,5.65,7.1,14.61,14.61,0,0,0,8.25,2.5,16.21,16.21,0,0,0,8.2-2,6.24,6.24,0,0,0,.7-10.7,24.89,24.89,0,0,0-8.5-3.35l-6.2-1.6a22.3,22.3,0,0,1-10-5.1,12.87,12.87,0,0,1-1.25-17,16.94,16.94,0,0,1,7-5.15,24.87,24.87,0,0,1,9.5-1.8,24.22,24.22,0,0,1,12,2.9,16.34,16.34,0,0,1,7.45,8.1l-7.4,3.4q-3.39-6.81-12.1-6.8a13.68,13.68,0,0,0-7.35,1.95q-3.15,2-3.15,5a5.58,5.58,0,0,0,2.2,4.55A17.78,17.78,0,0,0,1183,765l7.4,1.9q7.5,1.89,11.3,5.65a12.34,12.34,0,0,1,3.8,9.15,13.26,13.26,0,0,1-2.7,8.25,17.23,17.23,0,0,1-7.3,5.45,26.55,26.55,0,0,1-10.2,1.9Q1177.06,797.33,1171.55,793.48Z"/><path class="cls-1" d="M1235.65,724.13h10.4l35.9,57h.4l-.4-13.8v-43.2h8.5v71.6h-8.8l-37.6-59.7h-.4l.4,13.8v45.9h-8.4Z"/><path class="cls-1" d="M1312.35,793.83a24.33,24.33,0,0,1-9-9.65,29.15,29.15,0,0,1-3.25-13.85,30.4,30.4,0,0,1,3-13.6,24.6,24.6,0,0,1,8.65-9.9,23,23,0,0,1,13-3.7,24.45,24.45,0,0,1,13,3.35,22.17,22.17,0,0,1,8.45,9.25,29.73,29.73,0,0,1,3,13.5,10,10,0,0,1-.3,2.6h-40.3a20.17,20.17,0,0,0,2.8,9.8,16.42,16.42,0,0,0,6.35,6,17.29,17.29,0,0,0,8,2q9.8,0,15.1-9.2l7.2,3.5a25.68,25.68,0,0,1-9,9.8,27,27,0,0,1-26.75.1Zm27.8-29a16.39,16.39,0,0,0-1.8-6.4,13.61,13.61,0,0,0-5-5.4,15.76,15.76,0,0,0-8.65-2.2,14.36,14.36,0,0,0-10.15,3.85,18.5,18.5,0,0,0-5.45,10.15Z"/><path class="cls-1" d="M1369.05,769.83l-17.7-25.1h9.6l13.2,18.9,12.7-18.9h9.9l-17.8,25.1,18.2,25.9h-9.9l-13.3-19.6-13,19.6h-9.9Z"/><path class="cls-1" d="M1416.6,796.31a13.16,13.16,0,0,1-4.45-2.75,12.62,12.62,0,0,1-3-4.48,17,17,0,0,1-1-6.21V752.43h-8.9v-7.7h8.9v-14.4h8.5v14.4h12.4v7.7h-12.4v28.41c0,2.86.53,5,1.6,6.34a6.8,6.8,0,0,0,5.5,2.25,10.41,10.41,0,0,0,5.6-1.7V796a13.44,13.44,0,0,1-3,1,21.37,21.37,0,0,1-4,.3A15.87,15.87,0,0,1,1416.6,796.31Z"/><path class="cls-1" d="M1503.85,783.63l6.8,8.9-6.4,4.8-5.1-6.8a23.15,23.15,0,0,1-16.7,6.8,26.47,26.47,0,0,1-13-3.3,24.77,24.77,0,0,1-9.4-9,24.34,24.34,0,0,1-3.45-12.75,22.76,22.76,0,0,1,3.4-12,27.4,27.4,0,0,1,9.2-9.25l-.1-.1a33.79,33.79,0,0,1-3.9-6.25,13.91,13.91,0,0,1-1.3-5.85,15.31,15.31,0,0,1,2.3-8.15,16.79,16.79,0,0,1,6.2-5.95,17,17,0,0,1,8.5-2.2A15.15,15.15,0,0,1,1491,726a18.63,18.63,0,0,1,5.8,8.65l-7.3,3.9a18.81,18.81,0,0,0-3.25-5.65,6.7,6.7,0,0,0-5.35-2.25,8.56,8.56,0,0,0-6.1,2.25,7.77,7.77,0,0,0-2.4,6,11,11,0,0,0,2.5,6.9l24.1,31.5,6.6-11.3,6.7,4Zm-9.4.7-20.6-27.1a18.26,18.26,0,0,0-6.9,6.35,15.6,15.6,0,0,0-2.6,8.55,17.17,17.17,0,0,0,2.4,9,16.9,16.9,0,0,0,6.55,6.25,18.9,18.9,0,0,0,9.15,2.25A15.32,15.32,0,0,0,1494.45,784.33Z"/><path class="cls-1" d="M1553,732.23h-20.1v-8.1h48.6v8.1h-20v63.5H1553Z"/><path class="cls-1" d="M1582.45,744.73h8.1v8.2h.4a13.87,13.87,0,0,1,5.8-7,16.19,16.19,0,0,1,9-2.8,14.75,14.75,0,0,1,6,1.1v9.1a15.87,15.87,0,0,0-7.2-1.6,11.85,11.85,0,0,0-6.8,2.1,15.06,15.06,0,0,0-5,5.66,16.33,16.33,0,0,0-1.85,7.67v28.57h-8.5Z"/><path class="cls-1" d="M1622.25,795.13a16.57,16.57,0,0,1-6.8-6,16.22,16.22,0,0,1-2.4-8.75,14.88,14.88,0,0,1,6.1-12.65q6.09-4.56,15.4-4.55a34.63,34.63,0,0,1,8.55,1,21.83,21.83,0,0,1,6.05,2.3v-3.1a11.47,11.47,0,0,0-4-9.15,14.91,14.91,0,0,0-10.1-3.45,16.94,16.94,0,0,0-7.9,1.85,14.41,14.41,0,0,0-5.7,5.15l-6.4-4.8a20.39,20.39,0,0,1,8.25-7.2,25.79,25.79,0,0,1,11.65-2.6q10.4,0,16.35,5.45t6,14.85v32.3h-8.1v-7.3h-.4a18.4,18.4,0,0,1-6.6,6.3,19.13,19.13,0,0,1-9.9,2.6A22.12,22.12,0,0,1,1622.25,795.13Zm18.8-7.5a16.84,16.84,0,0,0,5.9-5.9,15.55,15.55,0,0,0,2.2-8.1,20.75,20.75,0,0,0-5.9-2.6,26.67,26.67,0,0,0-7.4-1q-7,0-10.55,2.9a9.22,9.22,0,0,0-3.55,7.5,8.36,8.36,0,0,0,3.2,6.8,12.43,12.43,0,0,0,8.1,2.6A15.44,15.44,0,0,0,1641.05,787.63Z"/><path class="cls-1" d="M1667.05,744.73h8.1v7.5h.4a17,17,0,0,1,6.7-6.45,19.26,19.26,0,0,1,9.8-2.65q9.2,0,14,5.35T1711,763v32.7h-8.5v-31.4q0-7.11-3.4-10.3t-9.3-3.2a12.34,12.34,0,0,0-7.35,2.3,15.41,15.41,0,0,0-5.05,6,17.9,17.9,0,0,0-1.8,7.85v28.7h-8.5Z"/><path class="cls-1" d="M1724.75,793.48a21,21,0,0,1-7.8-9.85l7.6-3.4a15.28,15.28,0,0,0,5.65,7.1,14.61,14.61,0,0,0,8.25,2.5,16.23,16.23,0,0,0,8.2-2,6.24,6.24,0,0,0,.7-10.7,25,25,0,0,0-8.5-3.35l-6.2-1.6a22.25,22.25,0,0,1-10-5.1,12.87,12.87,0,0,1-1.25-17,16.82,16.82,0,0,1,7-5.15,24.83,24.83,0,0,1,9.5-1.8,24.25,24.25,0,0,1,12,2.9,16.39,16.39,0,0,1,7.45,8.1l-7.4,3.4q-3.4-6.81-12.1-6.8a13.68,13.68,0,0,0-7.35,1.95q-3.15,2-3.15,5a5.55,5.55,0,0,0,2.2,4.55,17.63,17.63,0,0,0,6.6,2.85l7.4,1.9q7.5,1.89,11.3,5.65a12.38,12.38,0,0,1,3.8,9.15A13.26,13.26,0,0,1,1756,790a17.29,17.29,0,0,1-7.3,5.45,26.62,26.62,0,0,1-10.2,1.9Q1730.25,797.33,1724.75,793.48Z"/><path class="cls-1" d="M1771.85,752.43h-9.4v-7.7h9.4v-5.5a15.76,15.76,0,0,1,2.2-8.4,14.93,14.93,0,0,1,5.9-5.55,17.29,17.29,0,0,1,8.2-1.95,21.38,21.38,0,0,1,7.5,1.2v8.3c-1.2-.47-2.34-.85-3.4-1.15a14.19,14.19,0,0,0-3.8-.45,7.86,7.86,0,0,0-5.7,2.35,8.74,8.74,0,0,0-2.4,6.55v4.6h13.1v7.7h-13.1v43.3h-8.5Z"/><path class="cls-1" d="M1808.75,793.73a25.17,25.17,0,0,1-9.35-9.8,29.69,29.69,0,0,1,0-27.4,25.11,25.11,0,0,1,9.35-9.8,27.11,27.11,0,0,1,27,0,25.18,25.18,0,0,1,9.35,9.8,29.69,29.69,0,0,1,0,27.4,25.25,25.25,0,0,1-9.35,9.8,27.11,27.11,0,0,1-27,0Zm22.25-6.45a17.46,17.46,0,0,0,6.5-6.75,22.88,22.88,0,0,0,0-20.6,17.33,17.33,0,0,0-6.5-6.75,17.11,17.11,0,0,0-8.75-2.35,17.35,17.35,0,0,0-8.8,2.35,17.1,17.1,0,0,0-6.55,6.75,22.88,22.88,0,0,0,0,20.6,17.23,17.23,0,0,0,6.55,6.75,17.45,17.45,0,0,0,8.8,2.35A17.21,17.21,0,0,0,1831,787.28Z"/><path class="cls-1" d="M1855.35,744.73h8.1v8.2h.4a13.87,13.87,0,0,1,5.8-7,16.19,16.19,0,0,1,9-2.8,14.75,14.75,0,0,1,6,1.1v9.1a15.87,15.87,0,0,0-7.2-1.6,11.85,11.85,0,0,0-6.8,2.1,15.06,15.06,0,0,0-5,5.66,16.33,16.33,0,0,0-1.85,7.67v28.57h-8.5Z"/><path class="cls-1" d="M1890.85,744.73h8.1v7.5h.4a17.54,17.54,0,0,1,6.6-6.5,17.92,17.92,0,0,1,9.3-2.6,17.49,17.49,0,0,1,9.75,2.7,15.15,15.15,0,0,1,6,7.2,20.79,20.79,0,0,1,7.15-7.2,19.52,19.52,0,0,1,10.35-2.7q8.79,0,13.25,5.35t4.45,14.55v32.7h-8.4v-31.4q0-7.11-2.9-10.3c-1.94-2.14-4.8-3.2-8.6-3.2a11.6,11.6,0,0,0-6.9,2.2,14.71,14.71,0,0,0-4.85,5.9,18.39,18.39,0,0,0-1.75,8v28.8h-8.5v-31.3q0-7.2-2.9-10.4c-1.94-2.14-4.77-3.2-8.5-3.2a11.44,11.44,0,0,0-6.9,2.25,15.09,15.09,0,0,0-4.85,6,18.74,18.74,0,0,0-1.75,8v28.6h-8.5Z"/><path class="cls-1" d="M1999.25,724.13h8.4v63.5h31.4v8.1h-39.8Z"/><path class="cls-1" d="M2054.85,793.83a24.26,24.26,0,0,1-9-9.65,29.15,29.15,0,0,1-3.25-13.85,30.27,30.27,0,0,1,3-13.6,24.52,24.52,0,0,1,8.65-9.9,23,23,0,0,1,13-3.7,24.45,24.45,0,0,1,13,3.35,22.24,22.24,0,0,1,8.45,9.25,29.86,29.86,0,0,1,3,13.5,10,10,0,0,1-.3,2.6h-40.3a20.17,20.17,0,0,0,2.8,9.8,16.35,16.35,0,0,0,6.35,6,17.26,17.26,0,0,0,8.05,2q9.8,0,15.1-9.2l7.2,3.5a25.75,25.75,0,0,1-9,9.8,27,27,0,0,1-26.75.1Zm27.8-29a16.74,16.74,0,0,0-1.8-6.4,13.61,13.61,0,0,0-5-5.4,15.78,15.78,0,0,0-8.65-2.2,14.35,14.35,0,0,0-10.15,3.85,18.43,18.43,0,0,0-5.45,10.15Z"/><path class="cls-1" d="M2107.59,814.73a20.57,20.57,0,0,1-7.85-10.1l7.7-3.3a15.35,15.35,0,0,0,5.65,7.15,16,16,0,0,0,9.35,2.75q7.91,0,12.25-4.41t4.35-12.59v-5.7h-.4a18.62,18.62,0,0,1-7,6.35,21.5,21.5,0,0,1-10.35,2.45,22.17,22.17,0,0,1-12-3.44,24.33,24.33,0,0,1-8.65-9.61,32.36,32.36,0,0,1,0-28.06,24.31,24.31,0,0,1,8.65-9.65,22.08,22.08,0,0,1,12-3.44,21.39,21.39,0,0,1,10.35,2.45,18.22,18.22,0,0,1,7,6.45h.4v-7.3h8.1v49q0,12.3-6.8,18.75t-17.9,6.45Q2113.44,818.93,2107.59,814.73Zm23.2-27.44a16.68,16.68,0,0,0,6-6.7,25.21,25.21,0,0,0,0-20.82,16.31,16.31,0,0,0-6-6.66,16.37,16.37,0,0,0-16.75,0,16.61,16.61,0,0,0-6.05,6.71,22.33,22.33,0,0,0-2.25,10.36,22.69,22.69,0,0,0,2.25,10.41,16.14,16.14,0,0,0,6.05,6.7,16,16,0,0,0,8.4,2.29A15.45,15.45,0,0,0,2130.79,787.29Z"/><path class="cls-1" d="M2163.54,795.13a16.57,16.57,0,0,1-6.8-6,16.22,16.22,0,0,1-2.4-8.75,14.9,14.9,0,0,1,6.1-12.65q6.11-4.56,15.4-4.55a34.57,34.57,0,0,1,8.55,1,21.7,21.7,0,0,1,6.05,2.3v-3.1a11.47,11.47,0,0,0-4-9.15,14.9,14.9,0,0,0-10.1-3.45,17,17,0,0,0-7.9,1.85,14.41,14.41,0,0,0-5.7,5.15l-6.4-4.8a20.39,20.39,0,0,1,8.25-7.2,25.82,25.82,0,0,1,11.65-2.6q10.41,0,16.35,5.45t5.95,14.85v32.3h-8.1v-7.3h-.4a18.24,18.24,0,0,1-6.6,6.3,19.11,19.11,0,0,1-9.9,2.6A22.18,22.18,0,0,1,2163.54,795.13Zm18.8-7.5a16.67,16.67,0,0,0,5.9-5.9,15.55,15.55,0,0,0,2.2-8.1,20.63,20.63,0,0,0-5.9-2.6,26.67,26.67,0,0,0-7.4-1q-7,0-10.55,2.9a9.25,9.25,0,0,0-3.55,7.5,8.36,8.36,0,0,0,3.2,6.8,12.47,12.47,0,0,0,8.1,2.6A15.42,15.42,0,0,0,2182.34,787.63Z"/><path class="cls-1" d="M2217.64,793.78a24.82,24.82,0,0,1-9.2-9.7,30.82,30.82,0,0,1,0-27.75,24.29,24.29,0,0,1,9.2-9.7,25.53,25.53,0,0,1,13.3-3.5q8.31,0,13.95,3.85a21,21,0,0,1,8.05,10.25l-7.7,3.2a14.84,14.84,0,0,0-5.65-7.15,16.11,16.11,0,0,0-9.05-2.45,15.45,15.45,0,0,0-8.4,2.45,17.74,17.74,0,0,0-6.25,6.85,22.88,22.88,0,0,0,0,20.2,17.88,17.88,0,0,0,6.25,6.85,15.53,15.53,0,0,0,8.4,2.45,16.92,16.92,0,0,0,9.3-2.5,15,15,0,0,0,5.8-7.1l7.6,3.2a22.38,22.38,0,0,1-8.35,10.2,24.25,24.25,0,0,1-13.95,3.9A25.38,25.38,0,0,1,2217.64,793.78Z"/><path class="cls-1" d="M2276,792.53l-21.1-47.8h9.2l16,37.9h.2l15.4-37.9h9.2l-31.5,72.6h-8.8Z"/><path class="cls-2" d="M979.42,430.73a49.54,49.54,0,1,1-99.08,0l-1-79.26,0-1.28a49.54,49.54,0,1,1,99.08,0l1,79.26Z"/><circle class="cls-3" cx="929.88" cy="551.11" r="49.54"/><path class="cls-4" d="M791.74,492.26l-174,100.45a49.56,49.56,0,0,1-74.32-42.87v-201A49.56,49.56,0,0,1,617.76,306l173.3,100.06.68.39h0a49.5,49.5,0,0,1,0,85.8Z"/><path class="cls-5" d="M476.22,474.12a49.14,49.14,0,0,1-18.13,18.14l-.43.25L284.11,592.71a49.54,49.54,0,1,1-49.54-85.81l99.66-57.55-99.66-57.54A49.54,49.54,0,1,1,284.11,306l174,100.45A49.52,49.52,0,0,1,476.22,474.12Z"/><path class="cls-1" d="M1050.6,339.67h66.56q33.9,0,59.17,14a96.5,96.5,0,0,1,38.83,39q13.56,25,13.56,57.32t-13.56,57.32a96.52,96.52,0,0,1-38.83,39q-25.27,14-59.17,14H1050.6Zm66.56,195.69q39.13,0,62.1-22.49t23-62.87q0-40.37-23-62.87t-62.1-22.49h-40.68V535.36Z"/><path class="cls-1" d="M1261.08,339.67h127.58v25H1287v73h91.84v24.66H1287v73h101.7v25H1261.08Z"/><path class="cls-1" d="M1404.37,339.67h29l54.55,160,7.4,21.88h1.23l7.7-21.88,57-159.95h29l-80.74,220.66h-27.12Z"/><path class="cls-1" d="M1612.7,339.67h127.58v25h-101.7v75.5h91.84v24.65h-91.84v95.54H1612.7Z"/><path class="cls-1" d="M1770.17,339.67h127.59v25h-101.7v73h91.84v24.66h-91.84v73h101.7v25H1770.17Z"/><path class="cls-1" d="M1948,549.54q-21.59-15.72-29.59-44.07l25-10.17q5.25,19.72,19.42,32.36a48.38,48.38,0,0,0,33.28,12.64q19.11,0,32.36-10.33t13.25-28.2a32.55,32.55,0,0,0-11.25-25.42q-11.25-10-36.82-18.65l-13.87-4.93q-23.43-8.31-38.21-21.88t-14.8-37.59a52.82,52.82,0,0,1,8.63-29.13,61.71,61.71,0,0,1,24-21.41,73.67,73.67,0,0,1,34.51-8q19.11,0,33.29,7.09t22.65,17.26q8.47,10.17,11.86,20l-24.65,10.48Q2034,378.2,2023,369t-28.82-9.24q-16.95,0-29,9.55t-12,24a25.83,25.83,0,0,0,10.17,21.11q10.17,8.16,30.81,15.25l14.49,4.93q28,10.17,43.76,25.43t15.71,41.45q0,21.25-10.93,35.74a64.5,64.5,0,0,1-27.59,21.27,90,90,0,0,1-34.2,6.78A78.77,78.77,0,0,1,1948,549.54Z"/><path class="cls-1" d="M2142.75,364.64h-61.94v-25h149.77v25H2169V560.33h-26.2Z"/><path class="cls-1" d="M2311.94,458.32l-74.58-118.65h30.51l56.39,92.46h1.23L2381,339.67h30.51l-73.35,118.65v102h-26.19Z"/><path class="cls-1" d="M2489.13,458.32l-74.58-118.65h30.51l56.4,92.46h1.23l55.47-92.46h30.51l-73.35,118.65v102h-26.19Z"/><path class="cls-1" d="M2644.76,550.16a109.27,109.27,0,0,1-41.15-41.45q-14.94-26.35-14.94-58.71t14.94-58.71a109.27,109.27,0,0,1,41.15-41.45q26.19-15.09,58.24-15.1,24.66,0,45.15,9.4a105.18,105.18,0,0,1,35.59,26.66L2764.94,389q-12.63-15.09-27.58-22.19T2703,359.71A88.56,88.56,0,0,0,2658.93,371,83.68,83.68,0,0,0,2627,402.7q-11.88,20.49-11.87,47.3T2627,497.31a83.65,83.65,0,0,0,31.89,31.74A88.46,88.46,0,0,0,2703,540.3q40.07,0,68.11-33l19.1,18.49a111.29,111.29,0,0,1-37.9,28.82A114.07,114.07,0,0,1,2703,565.26Q2670.95,565.26,2644.76,550.16Z"/></svg>