<svg id="Layer_1" data-name="Layer 1" xmlns="http://www.w3.org/2000/svg" viewBox="0 0 3000 500"><defs><style>.cls-1{fill:#676c72;}</style></defs><title>03 DEVFEST HASHTAG Logo Cropped (Black)</title><path class="cls-1" d="M985.42,296.84H947.2l3.7-21.57h37.91l6.47-43.45H956.76l3.39-21.57h38.21l8.94-60.71h22.8l-8.93,60.71h43.76l8.93-60.71h22.81l-8.94,60.71H1126l-3.39,21.57h-37.91l-6.47,43.45h38.52l-3.39,21.57h-38.52l-9.55,63.49h-22.81l9.55-63.49h-43.76l-9.55,63.49H975.86Zm69.95-21.57,6.48-43.45h-43.77l-6.47,43.45Z"/><path class="cls-1" d="M1154,139.67h66.56q33.9,0,59.17,14a96.5,96.5,0,0,1,38.83,39q13.56,25,13.56,57.32t-13.56,57.32a96.52,96.52,0,0,1-38.83,39q-25.28,14-59.17,14H1154Zm66.56,195.69q39.14,0,62.1-22.49t23-62.87q0-40.37-23-62.87t-62.1-22.49h-40.68V335.36Z"/><path class="cls-1" d="M1364.47,139.67h127.58v25h-101.7v73h91.84v24.66h-91.84v73h101.7v25H1364.47Z"/><path class="cls-1" d="M1507.77,139.67h29l54.55,160,7.4,21.88h1.23l7.7-21.88,57-160h29l-80.75,220.66h-27.12Z"/><path class="cls-1" d="M1716.09,139.67h127.58v25H1742v75.5h91.83v24.65H1742v95.54h-25.89Z"/><path class="cls-1" d="M1873.56,139.67h127.59v25h-101.7v73h91.84v24.66h-91.84v73h101.7v25H1873.56Z"/><path class="cls-1" d="M2051.38,349.54q-21.57-15.72-29.59-44.07l25-10.17q5.23,19.72,19.41,32.36a48.38,48.38,0,0,0,33.28,12.64q19.11,0,32.36-10.33t13.25-28.2a32.55,32.55,0,0,0-11.25-25.42q-11.25-10-36.82-18.65l-13.87-4.93q-23.43-8.31-38.21-21.88t-14.8-37.59a52.82,52.82,0,0,1,8.63-29.13,61.78,61.78,0,0,1,24-21.41,73.71,73.71,0,0,1,34.52-8q19.1,0,33.28,7.09t22.65,17.26q8.47,10.17,11.86,20l-24.65,10.48q-3.09-11.4-14-20.65t-28.82-9.24q-16.95,0-29,9.55t-12,24a25.83,25.83,0,0,0,10.17,21.11q10.17,8.16,30.81,15.25l14.49,4.93q28,10.17,43.76,25.43t15.72,41.45q0,21.25-10.94,35.74A64.5,64.5,0,0,1,2133,358.48a90,90,0,0,1-34.2,6.78A78.79,78.79,0,0,1,2051.38,349.54Z"/><path class="cls-1" d="M2246.14,164.64H2184.2v-25H2334v25h-61.63V360.33h-26.2Z"/><path class="cls-1" d="M2415.33,258.32l-74.58-118.65h30.51l56.39,92.46h1.24l55.47-92.46h30.51l-73.35,118.65v102h-26.19Z"/><path class="cls-1" d="M2592.52,258.32l-74.58-118.65h30.51l56.4,92.46h1.23l55.47-92.46h30.51l-73.34,118.65v102h-26.2Z"/><path class="cls-1" d="M2748.15,350.16A109.17,109.17,0,0,1,2707,308.71q-15-26.35-15-58.71t15-58.71a109.17,109.17,0,0,1,41.14-41.45q26.19-15.09,58.24-15.1,24.66,0,45.15,9.4a105.08,105.08,0,0,1,35.59,26.66L2868.34,189q-12.65-15.09-27.59-22.19t-34.36-7.08A88.58,88.58,0,0,0,2762.32,171a83.75,83.75,0,0,0-31.89,31.75q-11.86,20.49-11.87,47.3t11.87,47.31a83.72,83.72,0,0,0,31.89,31.74,88.49,88.49,0,0,0,44.07,11.25q40.07,0,68.11-33l19.11,18.49a111.42,111.42,0,0,1-37.91,28.82,114,114,0,0,1-49.31,10.63Q2774.34,365.26,2748.15,350.16Z"/><path class="cls-1" d="M876,230.73a49.54,49.54,0,1,1-99.08,0l-1-79.26,0-1.28a49.54,49.54,0,1,1,99.08,0l1,79.26Z"/><circle class="cls-1" cx="826.49" cy="351.11" r="49.54"/><path class="cls-1" d="M688.35,292.26l-174,100.45a49.56,49.56,0,0,1-74.32-42.87v-201A49.56,49.56,0,0,1,514.37,106l173.3,100.06.68.39h0a49.5,49.5,0,0,1,0,85.8Z"/><path class="cls-1" d="M372.83,274.12a49.14,49.14,0,0,1-18.13,18.14l-.43.25L180.72,392.71a49.54,49.54,0,1,1-49.54-85.81l99.66-57.55-99.66-57.54A49.54,49.54,0,1,1,180.72,106l174,100.45A49.52,49.52,0,0,1,372.83,274.12Z"/></svg>