<svg id="Layer_1" data-name="Layer 1" xmlns="http://www.w3.org/2000/svg" viewBox="0 0 1000 1000"><defs><style>.cls-1{fill:#ea4335;}.cls-2{fill:#4285f4;}.cls-3{fill:#fbbc04;}.cls-4{fill:#0f9d58;}</style></defs><title>01 GDG Icon</title><path class="cls-1" d="M254.19,525.7l100.69-58.13a49.54,49.54,0,1,0-49.54-85.81l-174,100.45Z"/><path class="cls-2" d="M330.06,675.11a49.54,49.54,0,0,0,24.82-92.45l-174-100.45A49.54,49.54,0,1,0,131.36,568l174,100.45A49.34,49.34,0,0,0,330.06,675.11Z"/><path class="cls-3" d="M503.13,675.11a49.38,49.38,0,0,0,24.73-6.64L701.84,568,580.56,523.63l-102.25,59a49.55,49.55,0,0,0,24.82,92.45Z"/><path class="cls-4" d="M677,574.67a49.55,49.55,0,0,0,24.82-92.46l-174-100.45a49.54,49.54,0,1,0-49.55,85.81L652.3,568A49.36,49.36,0,0,0,677,574.67Z"/></svg>