<svg id="Layer_1" data-name="Layer 1" xmlns="http://www.w3.org/2000/svg" viewBox="0 0 3000 1000"><defs><style>.cls-1{fill:#4b4b4b;}</style></defs><title>01 Logo Black</title><path class="cls-1" d="M908.85,311h136.64a93.4,93.4,0,0,1,2,11.29,115.4,115.4,0,0,1,.78,13.24A154.4,154.4,0,0,1,1040,386.1a117.16,117.16,0,0,1-25.69,42.43,129.05,129.05,0,0,1-44.77,30.76Q943.5,470.18,910,470.19a150.86,150.86,0,0,1-57.23-10.9,142.51,142.51,0,0,1-46.72-30.37,145.77,145.77,0,0,1-31.53-46.13q-11.68-26.66-11.68-58.2t11.68-58.2a146,146,0,0,1,31.53-46.13,142.51,142.51,0,0,1,46.72-30.37A150.86,150.86,0,0,1,910,179q33.86,0,60.53,11.68A135.69,135.69,0,0,1,1016.29,223l-36.2,35.43a96.88,96.88,0,0,0-30.37-22q-16.74-7.59-40.09-7.59a97.12,97.12,0,0,0-36.21,6.82,90.58,90.58,0,0,0-30,19.27A91.8,91.8,0,0,0,823,285.08q-7.59,17.71-7.59,39.51T823,364.1a90.11,90.11,0,0,0,20.63,30.17,92.83,92.83,0,0,0,30.17,19.28,98.12,98.12,0,0,0,36.6,6.81q22.19,0,37.56-6.43a88,88,0,0,0,26.28-16.54,63,63,0,0,0,13.43-17.71,100.76,100.76,0,0,0,8.76-23.95H908.85Z"/><path class="cls-1" d="M1091.82,185.22H1186q33.08,0,59.56,10.12T1290.75,224a124.47,124.47,0,0,1,28.61,44.18q9.93,25.69,9.93,56.45,0,31.16-9.93,56.84a122.57,122.57,0,0,1-28.61,44q-18.69,18.3-45.16,28.42T1186,464h-94.21Zm91.87,228.91q23,0,40.49-6.42t29.19-18.11a74.08,74.08,0,0,0,17.52-28.22,118.8,118.8,0,0,0,0-73.58,74.08,74.08,0,0,0-17.52-28.22q-11.67-11.69-29.19-18.1t-40.49-6.43h-39.32V414.13Z"/><path class="cls-1" d="M1504.08,311h136.64a91.47,91.47,0,0,1,2,11.29,113.18,113.18,0,0,1,.78,13.24,154.4,154.4,0,0,1-8.18,50.61,117.16,117.16,0,0,1-25.69,42.43,129.05,129.05,0,0,1-44.77,30.76q-26.08,10.89-59.56,10.9a150.86,150.86,0,0,1-57.23-10.9,142.36,142.36,0,0,1-46.71-30.37,145.63,145.63,0,0,1-31.54-46.13q-11.67-26.66-11.68-58.2t11.68-58.2a145.85,145.85,0,0,1,31.54-46.13A142.36,142.36,0,0,1,1448,189.89a150.86,150.86,0,0,1,57.23-10.9q33.87,0,60.53,11.68A135.73,135.73,0,0,1,1611.53,223l-36.21,35.43a97,97,0,0,0-30.36-22q-16.76-7.59-40.1-7.59a97.12,97.12,0,0,0-36.21,6.82,90.58,90.58,0,0,0-30,19.27,91.8,91.8,0,0,0-20.44,30.17q-7.59,17.71-7.59,39.51t7.59,39.51a90.11,90.11,0,0,0,20.63,30.17A92.83,92.83,0,0,0,1469,413.55a98.16,98.16,0,0,0,36.6,6.81q22.18,0,37.56-6.43a88,88,0,0,0,26.28-16.54,63,63,0,0,0,13.43-17.71,100.76,100.76,0,0,0,8.76-23.95h-87.59Z"/><path class="cls-1" d="M2008.61,419.19a138.72,138.72,0,0,1-48.67,38q-28,13-62.67,13a146.81,146.81,0,0,1-57.81-11.29A141.34,141.34,0,0,1,1762.57,382a151.66,151.66,0,0,1,0-114.84,141.34,141.34,0,0,1,76.89-76.89A146.81,146.81,0,0,1,1897.27,179q33.46,0,59,11.68a137.44,137.44,0,0,1,45.35,33.87l-37,35.82a99,99,0,0,0-28.62-23q-16.15-8.56-38.34-8.57a98.16,98.16,0,0,0-36.6,6.82,88.45,88.45,0,0,0-29.78,19.27,90.87,90.87,0,0,0-20,30.17q-7.39,17.71-7.39,39.51t7.39,39.51a90.66,90.66,0,0,0,20,30.17,88.48,88.48,0,0,0,29.78,19.28,98.16,98.16,0,0,0,36.6,6.81q23.35,0,41.46-9.54a102,102,0,0,0,32.11-27.06Z"/><path class="cls-1" d="M2040.53,464V185.22h51V464Z"/><path class="cls-1" d="M2223.5,267a106.16,106.16,0,0,1,40.68,7.6,94.39,94.39,0,0,1,53,53.13,113.89,113.89,0,0,1,0,81.76,94.45,94.45,0,0,1-53,53.14,112.81,112.81,0,0,1-81.36,0,94.45,94.45,0,0,1-53-53.14,113.89,113.89,0,0,1,0-81.76,94.39,94.39,0,0,1,53-53.13A106.12,106.12,0,0,1,2223.5,267Zm0,156.11a49.88,49.88,0,0,0,18.88-3.7,48.06,48.06,0,0,0,16.16-10.7,50.65,50.65,0,0,0,11.09-17.13,66.55,66.55,0,0,0,0-45.94,50.85,50.85,0,0,0-11.09-17.13,48.21,48.21,0,0,0-16.16-10.7,50.53,50.53,0,0,0-38,0,48.82,48.82,0,0,0-16,10.7,50.85,50.85,0,0,0-11.09,17.13,66.55,66.55,0,0,0,0,45.94,50.65,50.65,0,0,0,11.09,17.13,48.66,48.66,0,0,0,16,10.7A49.41,49.41,0,0,0,2223.5,423.08Z"/><path class="cls-1" d="M2487.44,439h-3.11a64.62,64.62,0,0,1-24.14,22.78q-15.18,8.37-34.64,8.37-36.21,0-53.92-22.19t-17.72-59.18V273.2h51V382.6q0,20.64,9.15,30.56t26.67,9.92a37.22,37.22,0,0,0,18.49-4.47,43.08,43.08,0,0,0,13.62-12.07,54.73,54.73,0,0,0,8.57-17.91,80.27,80.27,0,0,0,2.92-22V273.2h51V464h-47.89Z"/><path class="cls-1" d="M2719.08,441H2716q-7,12.08-21.8,20.63t-36.59,8.57a82.6,82.6,0,0,1-34.85-7.59,93,93,0,0,1-29.19-21,99.74,99.74,0,0,1-20.05-32.11,116.62,116.62,0,0,1,0-81.76,99.74,99.74,0,0,1,20.05-32.11,93,93,0,0,1,29.19-21,82.61,82.61,0,0,1,34.85-7.6q21.79,0,36.59,8.57t21.8,20.63h3.12L2716,268.92v-83.7h51V464h-47.88Zm-51-17.91a50.88,50.88,0,0,0,19.27-3.7,48.12,48.12,0,0,0,16.15-10.7,53.12,53.12,0,0,0,11.29-17.13,63.64,63.64,0,0,0,0-45.94,53.34,53.34,0,0,0-11.29-17.13,48.27,48.27,0,0,0-16.15-10.7,50.88,50.88,0,0,0-19.27-3.7,48.76,48.76,0,0,0-19.27,3.89,50.82,50.82,0,0,0-16.16,10.9A53.39,53.39,0,0,0,2621.36,346a61.7,61.7,0,0,0,0,45.16,53.29,53.29,0,0,0,11.29,17.13,50.65,50.65,0,0,0,16.16,10.9A48.58,48.58,0,0,0,2668.08,423.08Z"/><path class="cls-1" d="M909.47,829.59q-61.89,0-103.55-41.66Q764.66,746.29,764.66,684t41.26-103.55q41.26-42,103.55-42,63.07,0,102.39,45.54l-25.69,24.92q-30-36.21-76.7-36.21-46.32,0-77.47,31.15Q801.25,634.55,801.25,684T832,764.19q31.14,31.14,77.47,31.14,48.66,0,84.48-40.87l26.08,25.3a135.09,135.09,0,0,1-48.66,36.79A148.41,148.41,0,0,1,909.47,829.59Z"/><path class="cls-1" d="M1120.47,626.38q39.71,0,62.68,21.21t23,58.2V823.36h-34.26V796.89h-1.56q-22.18,32.7-59.17,32.7-31.53,0-52.75-18.69t-21.22-46.71q0-29.58,22.39-47.11t59.75-17.52q31.92,0,52.56,11.68v-8.17q0-18.69-14.79-31.73a50.77,50.77,0,0,0-34.65-13q-30,0-47.49,25.3l-31.54-19.85Q1069.47,626.37,1120.47,626.38ZM1074.15,765q0,14,11.87,23.35a43.67,43.67,0,0,0,27.83,9.35q22.58,0,40.3-16.74t17.71-39.32q-16.74-13.23-46.72-13.24-21.8,0-36.39,10.51T1074.15,765Z"/><path class="cls-1" d="M1282.42,544.62V823.36H1246.6V544.62Z"/><path class="cls-1" d="M1408.55,913.68a106.35,106.35,0,0,1-30-4.09,96.89,96.89,0,0,1-25.5-11.48,82.65,82.65,0,0,1-19.66-17.52A73.85,73.85,0,0,1,1321,858l33.87-14a53.68,53.68,0,0,0,20.24,26.87q14.4,10.11,33.48,10.12,29.21,0,45.55-17.52t16.35-48.27v-18.3h-1.56a70.52,70.52,0,0,1-27.44,23.94,82.09,82.09,0,0,1-37.57,8.76q-37.37,0-64.23-29.2-26.48-30-26.47-72.41t26.47-72q26.86-29.58,64.23-29.58a82.09,82.09,0,0,1,37.57,8.76,70.52,70.52,0,0,1,27.44,23.94h1.56V632.61h34.26V815.19q0,45.93-26.08,72Q1452.14,913.67,1408.55,913.68Zm1.17-116.79q26.47,0,43.21-19.08,17.52-19.06,17.52-49.83,0-30-17.52-49.44-17.13-19.45-43.21-19.46-25.7,0-43.21,19.46T1349,728q0,30.38,17.52,49.44Q1384,796.91,1409.72,796.89Z"/><path class="cls-1" d="M1618.77,626.38q39.72,0,62.68,21.21t23,58.2V823.36h-34.26V796.89h-1.56q-22.18,32.7-59.17,32.7-31.53,0-52.75-18.69t-21.22-46.71q0-29.58,22.39-47.11t59.75-17.52q31.92,0,52.56,11.68v-8.17q0-18.69-14.79-31.73a50.77,50.77,0,0,0-34.65-13q-30,0-47.49,25.3l-31.54-19.85Q1567.78,626.37,1618.77,626.38ZM1572.45,765q0,14,11.87,23.35a43.67,43.67,0,0,0,27.83,9.35q22.57,0,40.3-16.74t17.71-39.32q-16.74-13.23-46.72-13.24-21.8,0-36.39,10.51T1572.45,765Z"/><path class="cls-1" d="M1780.72,823.36H1744.9V632.61h34.26v31.14h1.56q5.44-15.18,22.38-25.89t33.29-10.7q15.57,0,26.47,4.67L1852,666.47q-6.63-2.72-21-2.72-20.25,0-35.23,16.35a54.65,54.65,0,0,0-15,38.15Z"/><path class="cls-1" d="M2060.62,632.61,1941.1,907.45h-37l44.38-96.16-78.64-178.68h38.93l56.84,137h.78l55.28-137Z"/><polygon class="cls-1" points="475.58 606.52 346.53 830.03 249.84 830.03 408.13 555.91 427.25 522.81 475.58 606.52"/><polygon class="cls-1" points="534.58 708.66 464.47 830.03 367.73 830.03 486.19 624.89 534.58 708.66"/><path class="cls-1" d="M645.32,504.44a46,46,0,0,1-6.15,23l-35,60.69-48.34-83.76-59-102.09-129-223.55h96.72l72.67,125.84,102,176.83A46,46,0,0,1,645.32,504.44Z"/><polygon class="cls-1" points="593.52 606.52 545.18 690.29 496.79 606.52 437.85 504.44 249.8 178.75 346.53 178.75 478.14 406.73 537.13 508.81 593.52 606.52"/></svg>