<svg id="Layer_1" data-name="Layer 1" xmlns="http://www.w3.org/2000/svg" viewBox="0 0 2000 800"><defs><style>.cls-1{fill:#4b4b4b;}</style></defs><title>05 #gdgyyc logo black</title><path class="cls-1" d="M672,512.45H644.77L655,443.35h-46.3l-10.21,69.1H571.23l10.22-69.1H539.57L544,417.47h41.53l6.81-46H549.79l4.08-25.87h42.21L606,279.59h27.23l-9.87,66.05h46.3l9.87-66.05h27.24l-9.87,66.05h41.87l-4.09,25.87H693.11l-6.81,46h42.56l-4.09,25.88H682.22Zm-59.23-95h46.3l6.81-46h-46.3Z"/><path class="cls-1" d="M839.84,591.44a93,93,0,0,1-26.22-3.58,84.78,84.78,0,0,1-22.3-10,72.16,72.16,0,0,1-17.19-15.32,64.61,64.61,0,0,1-10.89-19.75l29.62-12.25A46.92,46.92,0,0,0,810.56,554q12.59,8.85,29.28,8.85,25.53,0,39.83-15.32T894,505.31v-16H892.6a61.48,61.48,0,0,1-24,20.94,71.72,71.72,0,0,1-32.85,7.66q-32.68,0-56.17-25.53-23.16-26.22-23.15-63.32t23.15-63q23.49-25.86,56.17-25.87a71.72,71.72,0,0,1,32.85,7.66,61.64,61.64,0,0,1,24,20.94H894V345.64h30V505.31q0,40.16-22.81,63Q878,591.44,839.84,591.44Zm1-102.14q23.14,0,37.79-16.68Q894,456,894,429.05q0-26.22-15.32-43.24-15-17-37.79-17-22.47,0-37.79,17t-15.32,43.24q0,26.55,15.32,43.23Q818.39,489.31,840.86,489.3Z"/><path class="cls-1" d="M1030.14,517.9Q997.46,517.9,974,492q-23.16-26.22-23.15-63t23.15-63q23.49-25.86,56.17-25.87a72,72,0,0,1,33.54,7.83q15.13,7.83,23.32,20.77h1.36L1087,345.64V268.7h31.32V512.45h-30V489.3H1087q-8.18,12.94-23.32,20.77A72,72,0,0,1,1030.14,517.9Zm5.11-28.6q23.14,0,37.79-16.68,15.32-16.67,15.32-43.57,0-26.22-15.32-43.24-15-17-37.79-17-22.47,0-37.79,17t-15.32,43.24q0,26.55,15.32,43.23Q1012.77,489.31,1035.25,489.3Z"/><path class="cls-1" d="M1228.62,591.44a92.9,92.9,0,0,1-26.21-3.58,84.48,84.48,0,0,1-22.3-10,72,72,0,0,1-17.2-15.32A64.61,64.61,0,0,1,1152,542.75l29.62-12.25a46.92,46.92,0,0,0,17.7,23.49q12.59,8.85,29.28,8.85,25.53,0,39.83-15.32t14.3-42.21v-16h-1.36a61.62,61.62,0,0,1-24,20.94,71.79,71.79,0,0,1-32.86,7.66q-32.67,0-56.17-25.53-23.16-26.22-23.15-63.32t23.15-63q23.49-25.86,56.17-25.87a71.79,71.79,0,0,1,32.86,7.66,61.78,61.78,0,0,1,24,20.94h1.36V345.64h30V505.31q0,40.16-22.81,63Q1266.74,591.44,1228.62,591.44Zm1-102.14q23.14,0,37.79-16.68,15.32-16.67,15.32-43.57,0-26.22-15.32-43.24-15-17-37.79-17-22.47,0-37.79,17t-15.32,43.24q0,26.55,15.32,43.23Q1207.17,489.31,1229.64,489.3Z"/><path class="cls-1" d="M1500,345.64,1395.43,586h-32.34l38.81-84.09-68.77-156.26h34l49.71,119.83h.68l48.34-119.83Z"/><path class="cls-1" d="M1669.48,345.64,1565,586h-32.34l38.81-84.09-68.77-156.26h34l49.7,119.83h.68l48.35-119.83Z"/><path class="cls-1" d="M1759.36,517.9q-37.11,0-61.62-25.19-24.18-25.87-24.17-63.66,0-38.48,24.17-63.67,24.51-25.19,61.62-25.19,25.53,0,44.59,12.77t28.6,35.23L1804,400.11q-13.28-31.32-46.64-31.32-21.45,0-37.1,17.36-15.33,17.37-15.32,42.9t15.32,42.89q15.64,17.37,37.1,17.36,34.38,0,48.35-31.32l27.91,11.92a74.84,74.84,0,0,1-28.76,35.24Q1785.22,517.91,1759.36,517.9Z"/><polygon class="cls-1" points="324.96 451.36 234.35 606.52 166.46 606.52 277.6 416.22 291.03 393.24 324.96 451.36"/><polygon class="cls-1" points="366.39 522.26 317.16 606.52 249.23 606.52 332.41 464.11 366.39 522.26"/><path class="cls-1" d="M444.15,380.49a31.68,31.68,0,0,1-4.32,16l-24.6,42.13-34-58.15-41.42-70.87-90.62-155.2h67.91l51,87.37,71.66,122.76A31.64,31.64,0,0,1,444.15,380.49Z"/><polygon class="cls-1" points="407.78 451.36 373.83 509.51 339.86 451.36 298.47 380.49 166.43 154.38 234.35 154.38 326.76 312.65 368.18 383.52 407.78 451.36"/></svg>