<svg id="Layer_1" data-name="Layer 1" xmlns="http://www.w3.org/2000/svg" viewBox="0 0 1000 1000"><defs><style>.cls-1{fill:#ea4335;}.cls-2{fill:#4285f4;}.cls-3{fill:#fbbc04;}.cls-4{fill:#0f9d58;}.cls-5{fill:#676c72;}</style></defs><title>01 GDGYYC Logo SQ</title><path class="cls-1" d="M347,375.94l94.91-54.8a46.7,46.7,0,1,0-46.7-80.89l-164,94.69Z"/><path class="cls-2" d="M418.53,516.78a46.7,46.7,0,0,0,23.39-87.15l-164-94.69a46.7,46.7,0,0,0-46.7,80.89l164,94.68A46.49,46.49,0,0,0,418.53,516.78Z"/><path class="cls-3" d="M581.67,516.78a46.42,46.42,0,0,0,23.3-6.27l164-94.68L654.65,374l-96.38,55.65a46.71,46.71,0,0,0,23.4,87.15Z"/><path class="cls-4" d="M745.58,422.09A46.7,46.7,0,0,0,769,334.94L605,240.25a46.7,46.7,0,0,0-46.7,80.89l164,94.69A46.58,46.58,0,0,0,745.58,422.09Z"/><path class="cls-5" d="M160.53,756.83a68.25,68.25,0,0,1-25.3-25.3,72.33,72.33,0,0,1,0-71.21,68.83,68.83,0,0,1,60.16-34.48,74,74,0,0,1,27.83,5.24,56,56,0,0,1,21.45,14.81l-11.43,11.43a41.34,41.34,0,0,0-16.3-12.09A54.18,54.18,0,0,0,195.57,641a53.57,53.57,0,0,0-26.51,6.84,52,52,0,0,0-19.68,19.3Q142,679.63,142,695.92t7.4,28.77A51.87,51.87,0,0,0,169.15,744a53.76,53.76,0,0,0,26.42,6.84q13.5,0,22.59-4.22a50.5,50.5,0,0,0,15.64-11.15,40.8,40.8,0,0,0,7.87-12.65,55.74,55.74,0,0,0,3.75-16.39H195.76V691.61h64.47a56.13,56.13,0,0,1,.93,9.75,75.23,75.23,0,0,1-3.93,24.08A53.21,53.21,0,0,1,244.67,746Q226.12,766,195.39,766A68.59,68.59,0,0,1,160.53,756.83Z"/><path class="cls-5" d="M281,628.83H321.5q20.63,0,36,8.53a58.73,58.73,0,0,1,23.62,23.71q8.23,15.18,8.24,34.85t-8.24,34.86a58.73,58.73,0,0,1-23.62,23.71q-15.36,8.52-36,8.52H281Zm40.47,119q23.81,0,37.77-13.68t14-38.23q0-24.54-14-38.23T321.5,644H296.77V747.83Z"/><path class="cls-5" d="M437.13,756.83a68.17,68.17,0,0,1-25.3-25.3,72.33,72.33,0,0,1,0-71.21A68.83,68.83,0,0,1,472,625.84a73.91,73.91,0,0,1,27.83,5.24,56,56,0,0,1,21.46,14.81l-11.43,11.43a41.34,41.34,0,0,0-16.3-12.09A54.18,54.18,0,0,0,472.17,641a53.64,53.64,0,0,0-26.52,6.84A52,52,0,0,0,426,667.16q-7.41,12.47-7.4,28.76t7.4,28.77A51.8,51.8,0,0,0,445.75,744a53.73,53.73,0,0,0,26.42,6.84q13.5,0,22.58-4.22a50.43,50.43,0,0,0,15.65-11.15,40.8,40.8,0,0,0,7.87-12.65A55.74,55.74,0,0,0,522,706.42H472.36V691.61h64.46a55.23,55.23,0,0,1,.94,9.75,75.23,75.23,0,0,1-3.93,24.08A53.21,53.21,0,0,1,521.27,746Q502.72,766,472,766A68.56,68.56,0,0,1,437.13,756.83Z"/><path class="cls-5" d="M583.3,701,538,628.83H556.5l34.29,56.22h.75l33.74-56.22h18.55L599.23,701v62H583.3Z"/><path class="cls-5" d="M691.05,701,645.7,628.83h18.55l34.3,56.22h.75L733,628.83h18.55L707,701v62H691.05Z"/><path class="cls-5" d="M785.69,756.83a66.42,66.42,0,0,1-25-25.21,74.65,74.65,0,0,1,0-71.4,66.39,66.39,0,0,1,25-25.2,69.6,69.6,0,0,1,35.41-9.18,65.09,65.09,0,0,1,27.46,5.71,63.88,63.88,0,0,1,21.64,16.21l-11.43,11.06A50,50,0,0,0,842,645.33,48.13,48.13,0,0,0,821.1,641a53.78,53.78,0,0,0-26.79,6.84,50.86,50.86,0,0,0-19.4,19.3q-7.21,12.47-7.21,28.76t7.21,28.77a50.86,50.86,0,0,0,19.4,19.3,53.78,53.78,0,0,0,26.79,6.84q24.36,0,41.42-20.05L874.14,742a67.64,67.64,0,0,1-23,17.53,72.87,72.87,0,0,1-65.4-2.72Z"/></svg>