<svg id="Layer_1" data-name="Layer 1" xmlns="http://www.w3.org/2000/svg" viewBox="0 0 2000 1000"><defs><style>.cls-1{fill:#ea4335;}.cls-2{fill:#4285f4;}.cls-3{fill:#fbbc04;}.cls-4{fill:#0f9d58;}.cls-5{fill:#676c72;}</style></defs><title>01 GDG Global Logo</title><path class="cls-1" d="M348.32,525.7,449,467.57a49.54,49.54,0,0,0-49.54-85.81l-174,100.45Z"/><path class="cls-2" d="M424.19,675.11A49.55,49.55,0,0,0,449,582.66L275,482.21A49.54,49.54,0,0,0,225.48,568l174,100.45A49.34,49.34,0,0,0,424.19,675.11Z"/><path class="cls-3" d="M597.26,675.11A49.34,49.34,0,0,0,622,668.47L796,568,674.69,523.63l-102.25,59a49.55,49.55,0,0,0,24.82,92.45Z"/><path class="cls-4" d="M771.15,574.67A49.55,49.55,0,0,0,796,482.21L622,381.76a49.54,49.54,0,0,0-49.54,85.81L746.42,568A49.36,49.36,0,0,0,771.15,574.67Z"/><path class="cls-5" d="M1017.49,624.65a111.42,111.42,0,0,1-41.25-41.24Q961,557.13,961,525.36t15.27-58.05a112.23,112.23,0,0,1,98.08-56.22,120.38,120.38,0,0,1,45.37,8.56q21.22,8.55,35,24.13L1136,462.42a67.61,67.61,0,0,0-26.58-19.71,90.4,90.4,0,0,0-78.06,4.28,85,85,0,0,0-32.08,31.47q-12.07,20.32-12.07,46.9t12.07,46.89a84.5,84.5,0,0,0,32.23,31.47,87.62,87.62,0,0,0,43.08,11.15q22,0,36.82-6.87A82.61,82.61,0,0,0,1137,589.82a66.81,66.81,0,0,0,12.83-20.62,91.49,91.49,0,0,0,6.11-26.73h-81V518.33H1180a91.51,91.51,0,0,1,1.52,15.89,122.67,122.67,0,0,1-6.41,39.26,86.81,86.81,0,0,1-20.47,33.45q-30.26,32.7-80.35,32.69A111.77,111.77,0,0,1,1017.49,624.65Z"/><path class="cls-5" d="M1213.93,416h66q33.6,0,58.66,13.9a95.73,95.73,0,0,1,38.49,38.65q13.44,24.75,13.44,56.83t-13.44,56.82a95.67,95.67,0,0,1-38.49,38.65q-25.06,13.9-58.66,13.9h-66Zm66,194q38.79,0,61.56-22.31t22.76-62.32q0-40-22.76-62.33t-61.56-22.3H1239.6V610Z"/><path class="cls-5" d="M1468.43,624.65a111.27,111.27,0,0,1-41.25-41.24q-15.27-26.28-15.27-58t15.27-58.05a112.23,112.23,0,0,1,98.07-56.22,120.34,120.34,0,0,1,45.37,8.56q21.24,8.55,35,24.13L1587,462.42a67.61,67.61,0,0,0-26.58-19.71,90.4,90.4,0,0,0-78.06,4.28,85,85,0,0,0-32.08,31.47q-12.07,20.32-12.07,46.9t12.07,46.89a84.5,84.5,0,0,0,32.23,31.47,87.57,87.57,0,0,0,43.08,11.15q22,0,36.81-6.87a82.38,82.38,0,0,0,25.51-18.18,66.64,66.64,0,0,0,12.84-20.62,91.49,91.49,0,0,0,6.11-26.73h-81V518.33H1631a90.6,90.6,0,0,1,1.53,15.89,122.4,122.4,0,0,1-6.42,39.26,86.67,86.67,0,0,1-20.46,33.45q-30.25,32.7-80.36,32.69A111.76,111.76,0,0,1,1468.43,624.65Z"/></svg>