<svg id="Layer_1" data-name="Layer 1" xmlns="http://www.w3.org/2000/svg" viewBox="0 0 2500 1000"><defs><style>.cls-1{fill:gray;}.cls-2{fill:#ea4335;}.cls-3{fill:#4285f4;}.cls-4{fill:#fbbc04;}.cls-5{fill:#0f9d58;}.cls-6{fill:#676c72;}</style></defs><title>01 GDGYYC Logo LBWNT</title><path class="cls-1" d="M464.49,700.44h8.25v62.37h30.85v8h-39.1Z"/><path class="cls-1" d="M519.1,768.9a23.83,23.83,0,0,1-8.89-9.48,28.73,28.73,0,0,1-3.19-13.6,29.81,29.81,0,0,1,3-13.36,24.2,24.2,0,0,1,8.49-9.72,22.68,22.68,0,0,1,12.77-3.64,24.1,24.1,0,0,1,12.77,3.29,21.91,21.91,0,0,1,8.3,9.09,29.26,29.26,0,0,1,2.9,13.26,9.59,9.59,0,0,1-.3,2.55H515.37a19.83,19.83,0,0,0,2.75,9.63,16.05,16.05,0,0,0,6.24,5.89,16.9,16.9,0,0,0,7.9,2q9.63,0,14.83-9l7.08,3.44a25.29,25.29,0,0,1-8.79,9.62,26.48,26.48,0,0,1-26.28.1Zm27.31-28.48a16.22,16.22,0,0,0-1.77-6.29,13.46,13.46,0,0,0-5-5.3,15.52,15.52,0,0,0-8.5-2.16,14.12,14.12,0,0,0-10,3.78,18.21,18.21,0,0,0-5.35,10Z"/><path class="cls-1" d="M575.14,771.34a13,13,0,0,1-4.38-2.7,12.34,12.34,0,0,1-2.94-4.4,16.63,16.63,0,0,1-1-6.1v-29.9h-8.75v-7.56h8.75V706.53h8.34v14.15h12.18v7.56H575.18v27.91q0,4.22,1.58,6.22a6.67,6.67,0,0,0,5.4,2.21,10.21,10.21,0,0,0,5.5-1.67v8.15a12.39,12.39,0,0,1-3,1,20.63,20.63,0,0,1-3.88.3A15.7,15.7,0,0,1,575.14,771.34Z"/><path class="cls-1" d="M594.14,718.12l4.81-7.36a5.62,5.62,0,0,1-4.52-5.6,6.08,6.08,0,0,1,1.82-4.47,6,6,0,0,1,4.37-1.82,6.22,6.22,0,0,1,6.29,6.29,7.47,7.47,0,0,1-.64,3,24.87,24.87,0,0,1-2,3.54l-6.19,8.94Z"/><path class="cls-1" d="M615.06,768.56a20.67,20.67,0,0,1-7.66-9.68l7.46-3.34a15.07,15.07,0,0,0,5.55,7,14.38,14.38,0,0,0,8.11,2.45,16,16,0,0,0,8.05-1.91,6.13,6.13,0,0,0,.69-10.51,24.35,24.35,0,0,0-8.35-3.29l-6.09-1.57a22,22,0,0,1-9.82-5,12.65,12.65,0,0,1-1.23-16.75,16.7,16.7,0,0,1,6.93-5.06A24.37,24.37,0,0,1,628,719.1,23.83,23.83,0,0,1,639.76,722a16.09,16.09,0,0,1,7.32,8l-7.27,3.34q-3.33-6.68-11.88-6.68a13.49,13.49,0,0,0-7.22,1.91c-2.06,1.28-3.1,2.9-3.1,4.87a5.41,5.41,0,0,0,2.17,4.46,17.13,17.13,0,0,0,6.48,2.8l7.27,1.87q7.37,1.86,11.09,5.55a12.14,12.14,0,0,1,3.74,9,13.06,13.06,0,0,1-2.65,8.1,16.89,16.89,0,0,1-7.17,5.35,26.14,26.14,0,0,1-10,1.87Q620.46,772.34,615.06,768.56Z"/><path class="cls-1" d="M678,700.44h25.24a21.05,21.05,0,0,1,10,2.46,19.21,19.21,0,0,1,7.41,6.77,17.72,17.72,0,0,1,2.75,9.73,15.51,15.51,0,0,1-2.6,8.94,17,17,0,0,1-7,5.89v.39a17.77,17.77,0,0,1,8.64,6.09,16.06,16.06,0,0,1,3.34,10.12,18.74,18.74,0,0,1-2.9,10.26,19.94,19.94,0,0,1-7.76,7.12,22.05,22.05,0,0,1-10.46,2.56H678Zm25.24,30.45a11.67,11.67,0,0,0,6.24-1.67,11.83,11.83,0,0,0,4.17-4.27,10.46,10.46,0,0,0,.05-10.61,11.68,11.68,0,0,0-4-4.27,11,11,0,0,0-6-1.67H686.27v22.49Zm1.87,31.92a11.61,11.61,0,0,0,6.33-1.77,12.25,12.25,0,0,0,4.32-4.56,11.87,11.87,0,0,0,1.52-5.75,11.61,11.61,0,0,0-1.57-5.75,12.1,12.1,0,0,0-4.42-4.51,12.44,12.44,0,0,0-6.58-1.72H686.27v24.06Z"/><path class="cls-1" d="M738.27,767q-4.75-5.29-4.76-14.83V720.68h8.35v30.25q0,7.17,3.24,10.51a11.63,11.63,0,0,0,8.74,3.34,13,13,0,0,0,7.51-2.26,15.29,15.29,0,0,0,5.11-5.9,16.9,16.9,0,0,0,1.82-7.66V720.68h8.35v50.09h-8V763.5h-.39a16.53,16.53,0,0,1-6.58,6.28,19.18,19.18,0,0,1-9.63,2.56Q743,772.34,738.27,767Z"/><path class="cls-1" d="M787.72,709.77a5.78,5.78,0,0,1-1.76-4.22,5.61,5.61,0,0,1,1.76-4.17,6,6,0,0,1,8.45,0,5.58,5.58,0,0,1,1.77,4.17,5.82,5.82,0,0,1-1.72,4.22,6,6,0,0,1-8.5,0Zm.1,10.91h8.25v50.09h-8.25Z"/><path class="cls-1" d="M807.27,700.44h8.35v70.33h-8.35Z"/><path class="cls-1" d="M834.62,768.9a24,24,0,0,1-8.59-9.48,31.35,31.35,0,0,1,0-27.35,24,24,0,0,1,8.59-9.53,22.31,22.31,0,0,1,12.13-3.44,20.27,20.27,0,0,1,10.32,2.61,18.92,18.92,0,0,1,6.87,6.43h.4l-.4-7V700.44h8.35v70.33h-7.95V763.4h-.4a19.32,19.32,0,0,1-6.87,6.34,20.36,20.36,0,0,1-10.32,2.6A22.31,22.31,0,0,1,834.62,768.9Zm21.32-6.48a17.24,17.24,0,0,0,6.09-6.68,22.89,22.89,0,0,0,0-20,17.31,17.31,0,0,0-6.09-6.68,15.41,15.41,0,0,0-16.36,0,17,17,0,0,0-6.13,6.73,22.67,22.67,0,0,0,0,19.94,17,17,0,0,0,6.13,6.73,15.36,15.36,0,0,0,16.36,0Z"/><path class="cls-1" d="M895.08,700.44h9.23l12.77,51.67,1.18,4.81h.39l1.47-4.81,15.72-51.67h8.64l15,51.67,1.47,4.81h.39l13.85-56.48h9.23l-19,70.33h-8.64l-14.93-50.88-1.57-5.5H940l-1.67,5.5-15.52,50.88h-8.64Z"/><path class="cls-1" d="M990.35,700.44h8.34v20.73L998.3,728h.39a16.42,16.42,0,0,1,6.54-6.38,19.37,19.37,0,0,1,9.77-2.56q9.13,0,14,5.36t4.81,14.19v32.12h-8.35V739.93q0-6.78-3.44-10a12.5,12.5,0,0,0-8.94-3.24,12.12,12.12,0,0,0-7.21,2.35,17.36,17.36,0,0,0-7.13,13.85v27.9h-8.34Z"/><path class="cls-1" d="M1049.47,770.18a16.16,16.16,0,0,1-6.67-5.94,15.87,15.87,0,0,1-2.36-8.6,14.61,14.61,0,0,1,6-12.42q6-4.47,15.12-4.47a34.38,34.38,0,0,1,8.4,1,21.46,21.46,0,0,1,5.94,2.26v-3a11.29,11.29,0,0,0-3.92-9,14.65,14.65,0,0,0-9.92-3.39,16.59,16.59,0,0,0-7.76,1.82,14.11,14.11,0,0,0-5.6,5.05l-6.29-4.71a20.11,20.11,0,0,1,8.11-7.07A25.43,25.43,0,0,1,1062,719.1q10.21,0,16.06,5.36t5.84,14.58v31.73h-8V763.6h-.39a17.89,17.89,0,0,1-6.48,6.18,18.67,18.67,0,0,1-9.72,2.56A21.7,21.7,0,0,1,1049.47,770.18Zm18.47-7.37a16.39,16.39,0,0,0,5.79-5.79,15.32,15.32,0,0,0,2.16-8,20.38,20.38,0,0,0-5.79-2.55,26.11,26.11,0,0,0-7.27-1q-6.87,0-10.36,2.85a9.07,9.07,0,0,0-3.49,7.37,8.19,8.19,0,0,0,3.15,6.68,12.19,12.19,0,0,0,7.95,2.55A15.1,15.1,0,0,0,1067.94,762.81Z"/><path class="cls-1" d="M1106.1,771.34a12.84,12.84,0,0,1-4.37-2.7,12.36,12.36,0,0,1-3-4.4,16.63,16.63,0,0,1-1-6.1v-29.9h-8.74v-7.56h8.74V706.53h8.35v14.15h12.17v7.56h-12.17v27.91q0,4.22,1.57,6.22a6.67,6.67,0,0,0,5.4,2.21,10.21,10.21,0,0,0,5.5-1.67v8.15a12.39,12.39,0,0,1-3,1,20.56,20.56,0,0,1-3.88.3A15.7,15.7,0,0,1,1106.1,771.34Z"/><path class="cls-1" d="M1125.1,718.12l4.81-7.36a5.6,5.6,0,0,1-4.51-5.6,6.07,6.07,0,0,1,1.81-4.47,6,6,0,0,1,4.37-1.82,6.22,6.22,0,0,1,6.29,6.29,7.47,7.47,0,0,1-.64,3,24.87,24.87,0,0,1-2,3.54l-6.19,8.94Z"/><path class="cls-1" d="M1146,768.56a20.67,20.67,0,0,1-7.66-9.68l7.47-3.34a14.94,14.94,0,0,0,5.55,7,14.32,14.32,0,0,0,8.1,2.45,16,16,0,0,0,8-1.91,6.13,6.13,0,0,0,.69-10.51,24.35,24.35,0,0,0-8.35-3.29l-6.09-1.57a22,22,0,0,1-9.82-5,12.65,12.65,0,0,1-1.23-16.75,16.7,16.7,0,0,1,6.93-5.06,24.37,24.37,0,0,1,9.33-1.77,23.83,23.83,0,0,1,11.73,2.85,16.09,16.09,0,0,1,7.32,8l-7.27,3.34q-3.33-6.68-11.88-6.68a13.49,13.49,0,0,0-7.22,1.91q-3.09,1.92-3.09,4.87a5.43,5.43,0,0,0,2.16,4.46,17.13,17.13,0,0,0,6.48,2.8l7.27,1.87q7.37,1.86,11.1,5.55a12.17,12.17,0,0,1,3.73,9,13.06,13.06,0,0,1-2.65,8.1,16.89,16.89,0,0,1-7.17,5.35,26.14,26.14,0,0,1-10,1.87Q1151.42,772.34,1146,768.56Z"/><path class="cls-1" d="M1209,700.44h10.21l35.26,56h.4l-.4-13.56V700.44h8.35v70.33h-8.64l-36.93-58.64h-.39l.39,13.55v45.09H1209Z"/><path class="cls-1" d="M1284.31,768.9a23.83,23.83,0,0,1-8.89-9.48,28.61,28.61,0,0,1-3.19-13.6,29.81,29.81,0,0,1,3-13.36,24.12,24.12,0,0,1,8.49-9.72,22.65,22.65,0,0,1,12.77-3.64,24.1,24.1,0,0,1,12.77,3.29,21.91,21.91,0,0,1,8.3,9.09,29.26,29.26,0,0,1,2.9,13.26,9.59,9.59,0,0,1-.3,2.55h-39.58a19.83,19.83,0,0,0,2.75,9.63,15.92,15.92,0,0,0,6.24,5.89,16.9,16.9,0,0,0,7.9,2q9.63,0,14.83-9l7.07,3.44a25.21,25.21,0,0,1-8.79,9.62,26.46,26.46,0,0,1-26.27.1Zm27.31-28.48a16.58,16.58,0,0,0-1.77-6.29,13.46,13.46,0,0,0-5-5.3,15.52,15.52,0,0,0-8.5-2.16,14.12,14.12,0,0,0-10,3.78,18.21,18.21,0,0,0-5.35,10Z"/><path class="cls-1" d="M1340,745.33l-17.38-24.65H1332l13,18.56,12.47-18.56h9.73l-17.49,24.65,17.88,25.44h-9.72l-13.07-19.25L1332,770.77h-9.72Z"/><path class="cls-1" d="M1386.7,771.34a13,13,0,0,1-4.37-2.7,12.34,12.34,0,0,1-2.94-4.4,16.62,16.62,0,0,1-1-6.1v-29.9h-8.74v-7.56h8.74V706.53h8.35v14.15h12.18v7.56h-12.18v27.91c0,2.81.53,4.88,1.57,6.22a6.71,6.71,0,0,0,5.41,2.21,10.24,10.24,0,0,0,5.5-1.67v8.15a12.68,12.68,0,0,1-3,1,20.7,20.7,0,0,1-3.88.3A15.79,15.79,0,0,1,1386.7,771.34Z"/><path class="cls-1" d="M1408.11,769a5.67,5.67,0,0,1-1.81-4.26,5.57,5.57,0,0,1,1.81-4.17,6.26,6.26,0,0,1,4.47-1.73,6.13,6.13,0,0,1,4.37,1.73,5.58,5.58,0,0,1,1.82,4.17A5.68,5.68,0,0,1,1417,769a6.13,6.13,0,0,1-4.37,1.73A6.26,6.26,0,0,1,1408.11,769Z"/><path class="cls-1" d="M1465.42,713h-19.64V700.44h52.55V713h-19.65v57.76h-13.26Z"/><path class="cls-1" d="M1507.46,768.85a24.73,24.73,0,0,1-9.48-9.53,28.87,28.87,0,0,1,0-27.15,24.72,24.72,0,0,1,9.48-9.58,29,29,0,0,1,27.6,0,24.72,24.72,0,0,1,9.48,9.58,28.87,28.87,0,0,1,0,27.15,24.73,24.73,0,0,1-9.48,9.53,29,29,0,0,1-27.6,0Zm20.73-10.16a12.94,12.94,0,0,0,5-5.11,15.81,15.81,0,0,0,1.87-7.86,15.58,15.58,0,0,0-1.87-7.76,13,13,0,0,0-5-5.11,14.33,14.33,0,0,0-13.76,0,13.33,13.33,0,0,0-5,5.11,15.29,15.29,0,0,0-1.92,7.76,15.56,15.56,0,0,0,1.92,7.81,13.2,13.2,0,0,0,5,5.16,14.33,14.33,0,0,0,13.76,0Z"/><path class="cls-1" d="M1563.05,789.28A21.17,21.17,0,0,1,1554.6,779l12.09-4.91a13.67,13.67,0,0,0,21.85,4.32q3.59-3.73,3.58-10.61v-3.93h-.78a15.25,15.25,0,0,1-6.19,5.11,20.61,20.61,0,0,1-8.74,1.77,22.12,22.12,0,0,1-11.54-3.2,23.61,23.61,0,0,1-8.6-9,30.18,30.18,0,0,1,0-27.21,23.61,23.61,0,0,1,8.6-9,22.12,22.12,0,0,1,11.54-3.2,20.61,20.61,0,0,1,8.74,1.77,15.25,15.25,0,0,1,6.19,5.11h.78v-5.3h12.38v46.65a29.31,29.31,0,0,1-3.14,13.95,22,22,0,0,1-8.94,9.08,27.65,27.65,0,0,1-13.56,3.19Q1569.34,793.55,1563.05,789.28Zm25.24-34q3.84-3.78,3.83-10.36,0-6.78-3.78-10.47a13.54,13.54,0,0,0-18.61,0q-3.82,3.74-3.83,10.42t3.83,10.41a12.85,12.85,0,0,0,9.33,3.73A12.66,12.66,0,0,0,1588.29,755.3Z"/><path class="cls-1" d="M1624.63,768.9a24.62,24.62,0,0,1-9.38-9.48,28.62,28.62,0,0,1,0-26.91,25.64,25.64,0,0,1,9.23-9.77,24.59,24.59,0,0,1,13.16-3.64,25.7,25.7,0,0,1,13.36,3.34,21.76,21.76,0,0,1,8.49,9.14,28.36,28.36,0,0,1,2.9,12.86,31.69,31.69,0,0,1-.29,4.33h-37.62q1,6,4.76,9.08a13.9,13.9,0,0,0,9.09,3.09,14.5,14.5,0,0,0,7.61-1.91,14.22,14.22,0,0,0,5.06-5.16l10.41,5.11q-7.66,13.37-23.28,13.36A26.59,26.59,0,0,1,1624.63,768.9ZM1650,739.63a10,10,0,0,0-1.71-4.66,12,12,0,0,0-4.23-3.83,12.62,12.62,0,0,0-6.33-1.53,12.06,12.06,0,0,0-7.91,2.7,15.19,15.19,0,0,0-4.76,7.32Z"/><path class="cls-1" d="M1683.76,771.19a13.51,13.51,0,0,1-5.11-3.16q-4.62-4.5-4.61-12.82V731.68h-8.74v-11H1674V706.53h12.86v14.15h12.28v11H1686.9V753c0,2.62.56,4.51,1.67,5.65q1.38,1.62,4.72,1.62a8.55,8.55,0,0,0,3.09-.49,24.79,24.79,0,0,0,3.19-1.67v12.57a24.1,24.1,0,0,1-8.93,1.67A20.06,20.06,0,0,1,1683.76,771.19Z"/><path class="cls-1" d="M1708.41,700.44h12.87v17.78l-.79,8.74h.79a15.7,15.7,0,0,1,6.28-5.7,19,19,0,0,1,8.94-2.16q9.13,0,14,5.45t4.86,15.08v31.14h-12.87V741.2c0-3.2-.86-5.69-2.6-7.46a9.24,9.24,0,0,0-6.92-2.65,10.27,10.27,0,0,0-8.4,4.12,15.67,15.67,0,0,0-3.29,10.12v25.44h-12.87Z"/><path class="cls-1" d="M1775.59,768.9a24.62,24.62,0,0,1-9.38-9.48,28.58,28.58,0,0,1,0-26.91,25.75,25.75,0,0,1,9.24-9.77,24.56,24.56,0,0,1,13.16-3.64,25.64,25.64,0,0,1,13.35,3.34,21.72,21.72,0,0,1,8.5,9.14,28.36,28.36,0,0,1,2.9,12.86,30.14,30.14,0,0,1-.3,4.33H1775.4q1,6,4.76,9.08a13.9,13.9,0,0,0,9.08,3.09,14.52,14.52,0,0,0,7.62-1.91,14.2,14.2,0,0,0,5.05-5.16l10.42,5.11q-7.66,13.37-23.28,13.36A26.59,26.59,0,0,1,1775.59,768.9Zm25.34-29.27a9.87,9.87,0,0,0-1.72-4.66,11.89,11.89,0,0,0-4.22-3.83,12.62,12.62,0,0,0-6.33-1.53,12.06,12.06,0,0,0-7.91,2.7,15.21,15.21,0,0,0-4.77,7.32Z"/><path class="cls-1" d="M1821.26,720.68h12.08v6.67h.79a15.12,15.12,0,0,1,5.79-5.89,17.14,17.14,0,0,1,14.93-1.18v12.77a41.84,41.84,0,0,0-4.47-1.42,16.06,16.06,0,0,0-3.88-.45,11,11,0,0,0-9,4.14,16.08,16.08,0,0,0-3.34,10.44v25h-12.87Z"/><path class="cls-1" d="M1854.12,768.35a7.82,7.82,0,0,1-2.51-5.83,7.65,7.65,0,0,1,2.51-5.78,8.85,8.85,0,0,1,12.08,0,7.64,7.64,0,0,1,2.5,5.78,7.81,7.81,0,0,1-2.5,5.83,8.75,8.75,0,0,1-12.08,0Z"/><path class="cls-2" d="M318.82,407.26l100.69-58.13A49.54,49.54,0,0,0,370,263.32L196,363.77Z"/><path class="cls-3" d="M394.69,556.68a49.55,49.55,0,0,0,24.82-92.46l-174-100.45A49.54,49.54,0,0,0,196,449.58L370,550A49.25,49.25,0,0,0,394.69,556.68Z"/><path class="cls-4" d="M567.76,556.68A49.25,49.25,0,0,0,592.48,550l174-100.45L645.19,405.19l-102.25,59a49.55,49.55,0,0,0,24.82,92.46Z"/><path class="cls-5" d="M741.65,456.23a49.55,49.55,0,0,0,24.81-92.46l-174-100.45a49.54,49.54,0,0,0-49.54,85.81l174,100.45A49.26,49.26,0,0,0,741.65,456.23Z"/><path class="cls-6" d="M988.48,506.83a112.13,112.13,0,0,1-41.6-41.6q-15.42-26.5-15.41-58.55t15.41-58.56a113.19,113.19,0,0,1,98.92-56.7,121.34,121.34,0,0,1,45.76,8.63q21.42,8.63,35.29,24.34l-18.8,18.8a68,68,0,0,0-26.81-19.87,91.12,91.12,0,0,0-78.74,4.31,85.69,85.69,0,0,0-32.36,31.74Q958,379.88,958,406.68T970.14,454a85.25,85.25,0,0,0,32.52,31.74A88.25,88.25,0,0,0,1046.11,497q22.19,0,37.13-6.93A83.11,83.11,0,0,0,1109,471.7a67.35,67.35,0,0,0,12.94-20.8,91.86,91.86,0,0,0,6.16-27h-81.66V399.59h106a92.17,92.17,0,0,1,1.54,16,123.59,123.59,0,0,1-6.47,39.6A87.44,87.44,0,0,1,1126.85,489q-30.51,33-81,33A112.72,112.72,0,0,1,988.48,506.83Z"/><path class="cls-6" d="M1186.63,296.35h66.57q33.9,0,59.17,14a96.65,96.65,0,0,1,38.83,39q13.54,25,13.56,57.32T1351.2,464a96.56,96.56,0,0,1-38.83,39q-25.27,14-59.17,14h-66.57ZM1253.2,492q39.13,0,62.09-22.5t23-62.86q0-40.38-23-62.87t-62.09-22.5h-40.68V492Z"/><path class="cls-6" d="M1443.34,506.83a112.23,112.23,0,0,1-41.61-41.6q-15.4-26.5-15.4-58.55t15.4-58.56a113.22,113.22,0,0,1,98.93-56.7,121.34,121.34,0,0,1,45.76,8.63q21.42,8.63,35.29,24.34l-18.8,18.8a68,68,0,0,0-26.81-19.87,91.12,91.12,0,0,0-78.74,4.31A85.62,85.62,0,0,0,1425,359.37q-12.18,20.5-12.17,47.31T1425,454a85.16,85.16,0,0,0,32.51,31.74A88.31,88.31,0,0,0,1501,497q22.18,0,37.13-6.93a83.07,83.07,0,0,0,25.73-18.34,67.37,67.37,0,0,0,13-20.8,91.86,91.86,0,0,0,6.16-27h-81.67V399.59h106a92.17,92.17,0,0,1,1.54,16,123.59,123.59,0,0,1-6.47,39.6A87.44,87.44,0,0,1,1581.71,489q-30.51,33-81,33A112.69,112.69,0,0,1,1443.34,506.83Z"/><path class="cls-6" d="M1683.71,415l-74.58-118.65h30.51L1696,388.8h1.23l55.47-92.45h30.51L1709.91,415V517h-26.2Z"/><path class="cls-6" d="M1860.91,415l-74.58-118.65h30.51l56.39,92.45h1.24l55.47-92.45h30.51L1887.1,415V517h-26.19Z"/><path class="cls-6" d="M2016.53,506.83a109.17,109.17,0,0,1-41.14-41.45q-15-26.34-14.94-58.7T1975.39,348a109.24,109.24,0,0,1,41.14-41.45q26.19-15.09,58.25-15.1,24.64,0,45.15,9.4a105.05,105.05,0,0,1,35.59,26.66l-18.8,18.18q-12.63-15.11-27.58-22.19t-34.36-7.09a88.43,88.43,0,0,0-44.07,11.25,83.75,83.75,0,0,0-31.9,31.74q-11.86,20.5-11.86,47.31t11.86,47.3a83.61,83.61,0,0,0,31.9,31.74A88.33,88.33,0,0,0,2074.78,497q40,0,68.1-33L2162,482.49a111.39,111.39,0,0,1-37.9,28.81q-22.5,10.63-49.31,10.63Q2042.72,521.93,2016.53,506.83Z"/></svg>