<svg id="Layer_1" data-name="Layer 1" xmlns="http://www.w3.org/2000/svg" viewBox="0 0 2500 1000"><defs><style>.cls-1{fill:#ea4335;}.cls-2{fill:#4285f4;}.cls-3{fill:#fbbc04;}.cls-4{fill:#0f9d58;}.cls-5{fill:#676c72;}</style></defs><title>01 GDGYYC Logo</title><path class="cls-1" d="M318.82,525.7l100.69-58.13A49.54,49.54,0,0,0,370,381.76L196,482.21Z"/><path class="cls-2" d="M394.69,675.11a49.55,49.55,0,0,0,24.82-92.45l-174-100.45A49.54,49.54,0,0,0,196,568L370,668.47A49.34,49.34,0,0,0,394.69,675.11Z"/><path class="cls-3" d="M567.76,675.11a49.34,49.34,0,0,0,24.72-6.64L766.46,568,645.19,523.63l-102.25,59a49.55,49.55,0,0,0,24.82,92.45Z"/><path class="cls-4" d="M741.65,574.67a49.55,49.55,0,0,0,24.81-92.46l-174-100.45a49.54,49.54,0,0,0-49.54,85.81L716.92,568A49.36,49.36,0,0,0,741.65,574.67Z"/><path class="cls-5" d="M988.48,625.27a112.13,112.13,0,0,1-41.6-41.6q-15.42-26.5-15.41-58.55t15.41-58.56a113.19,113.19,0,0,1,98.92-56.7,121.34,121.34,0,0,1,45.76,8.63q21.42,8.63,35.29,24.34l-18.8,18.8a68.1,68.1,0,0,0-26.81-19.88,91.17,91.17,0,0,0-78.74,4.32,85.69,85.69,0,0,0-32.36,31.74Q958,498.32,958,525.12t12.17,47.3a85.4,85.4,0,0,0,32.52,31.74,88.35,88.35,0,0,0,43.45,11.25q22.19,0,37.13-6.93A83.44,83.44,0,0,0,1109,590.14a67.35,67.35,0,0,0,12.94-20.8,92,92,0,0,0,6.16-27h-81.66V518h106a92.17,92.17,0,0,1,1.54,16,123.59,123.59,0,0,1-6.47,39.6,87.52,87.52,0,0,1-20.65,33.75q-30.51,33-81,33A112.72,112.72,0,0,1,988.48,625.27Z"/><path class="cls-5" d="M1186.63,414.79h66.57q33.9,0,59.17,14a96.62,96.62,0,0,1,38.83,39q13.54,25,13.56,57.33t-13.56,57.32a96.62,96.62,0,0,1-38.83,39q-25.27,14-59.17,14h-66.57Zm66.57,195.69q39.13,0,62.09-22.5t23-62.86q0-40.38-23-62.87t-62.09-22.5h-40.68V610.48Z"/><path class="cls-5" d="M1443.34,625.27a112.23,112.23,0,0,1-41.61-41.6q-15.4-26.5-15.4-58.55t15.4-58.56a113.22,113.22,0,0,1,98.93-56.7,121.34,121.34,0,0,1,45.76,8.63q21.42,8.63,35.29,24.34l-18.8,18.8a68.17,68.17,0,0,0-26.81-19.88,89,89,0,0,0-35.13-6.93,88.1,88.1,0,0,0-43.61,11.25A85.62,85.62,0,0,0,1425,477.81q-12.18,20.51-12.17,47.31t12.17,47.3a85.3,85.3,0,0,0,32.51,31.74A88.42,88.42,0,0,0,1501,615.41q22.18,0,37.13-6.93a83.4,83.4,0,0,0,25.73-18.34,67.37,67.37,0,0,0,13-20.8,92,92,0,0,0,6.16-27h-81.67V518h106a92.17,92.17,0,0,1,1.54,16,123.59,123.59,0,0,1-6.47,39.6,87.52,87.52,0,0,1-20.65,33.75q-30.51,33-81,33A112.69,112.69,0,0,1,1443.34,625.27Z"/><path class="cls-5" d="M1683.71,533.44l-74.58-118.65h30.51l56.4,92.45h1.23l55.47-92.45h30.51l-73.34,118.65v102h-26.2Z"/><path class="cls-5" d="M1860.91,533.44l-74.58-118.65h30.51l56.39,92.45h1.24l55.47-92.45h30.51L1887.1,533.44v102h-26.19Z"/><path class="cls-5" d="M2016.53,625.27a109.17,109.17,0,0,1-41.14-41.45q-15-26.34-14.94-58.7t14.94-58.71A109.24,109.24,0,0,1,2016.53,425q26.19-15.1,58.25-15.1,24.64,0,45.15,9.4a105.15,105.15,0,0,1,35.59,26.65l-18.8,18.19q-12.63-15.11-27.58-22.19t-34.36-7.09a88.43,88.43,0,0,0-44.07,11.25,83.75,83.75,0,0,0-31.9,31.74q-11.86,20.51-11.86,47.31t11.86,47.3a83.75,83.75,0,0,0,31.9,31.74,88.43,88.43,0,0,0,44.07,11.25q40,0,68.1-33L2162,600.93a111.39,111.39,0,0,1-37.9,28.81q-22.5,10.63-49.31,10.63Q2042.72,640.37,2016.53,625.27Z"/></svg>