<svg id="Layer_1" data-name="Layer 1" xmlns="http://www.w3.org/2000/svg" viewBox="0 0 2500 1000"><defs><style>.cls-1{fill:#fff;}</style></defs><title>02 GDGYYC Logo (White)</title><path class="cls-1" d="M419.51,467.57l-89.76,51.82-79.27-45.76a59.3,59.3,0,0,0-26-7.86l145.49-84a49.54,49.54,0,1,1,49.54,85.8Z"/><path class="cls-1" d="M394.69,675.11A49.32,49.32,0,0,1,370,668.47L196,568a49.55,49.55,0,0,1,0-85.81l.71-.4a49.45,49.45,0,0,1,48.83.4l74.32,42.91,99.67,57.54a49.55,49.55,0,0,1-24.82,92.45Z"/><path class="cls-1" d="M437.64,650.33A49.52,49.52,0,0,1,370,668.47L196,568a49.55,49.55,0,0,1,0-85.81l.71-.4a49.45,49.45,0,0,1,48.83.4l74.32,42.91,99.67,57.54A49.54,49.54,0,0,1,437.64,650.33Z"/><path class="cls-1" d="M738,584.46l-145.49,84a49.54,49.54,0,1,1-49.54-85.81l89.75-51.83,5,2.87L712,576.6A59.25,59.25,0,0,0,738,584.46Z"/><path class="cls-1" d="M766.44,568h0l-.83.47a49.46,49.46,0,0,1-48.71-.47l-74.31-42.91-99.67-57.54a49.54,49.54,0,1,1,49.54-85.8l174,100.44a49.52,49.52,0,0,1,0,85.8Z"/><path class="cls-1" d="M784.59,549.88A49.16,49.16,0,0,1,766.44,568h0l-.83.47a49.46,49.46,0,0,1-48.71-.47l-74.31-42.91-99.67-57.54a49.54,49.54,0,1,1,49.54-85.8l174,100.44A49.54,49.54,0,0,1,784.59,549.88Z"/><path class="cls-1" d="M988.48,624.52a112.16,112.16,0,0,1-41.61-41.6q-15.4-26.5-15.41-58.56t15.41-58.55a113.22,113.22,0,0,1,98.93-56.7,121.38,121.38,0,0,1,45.76,8.63q21.42,8.63,35.29,24.34l-18.8,18.8A68.07,68.07,0,0,0,1081.24,441a89.09,89.09,0,0,0-35.14-6.93,88.09,88.09,0,0,0-43.6,11.25,85.62,85.62,0,0,0-32.36,31.74Q958,497.55,958,524.36t12.17,47.31a85.3,85.3,0,0,0,32.51,31.74,88.41,88.41,0,0,0,43.45,11.25q22.2,0,37.14-6.93A83.4,83.4,0,0,0,1109,589.39a67.49,67.49,0,0,0,13-20.8,92,92,0,0,0,6.16-27h-81.67V517.28h106a91.27,91.27,0,0,1,1.55,16,123.37,123.37,0,0,1-6.48,39.6,87.57,87.57,0,0,1-20.64,33.75q-30.51,33-81,33A112.69,112.69,0,0,1,988.48,624.52Z"/><path class="cls-1" d="M1186.63,414h66.56q33.9,0,59.17,14a96.5,96.5,0,0,1,38.83,39q13.56,25,13.56,57.32t-13.56,57.32a96.46,96.46,0,0,1-38.83,39q-25.26,14-59.17,14h-66.56Zm66.56,195.69q39.13,0,62.1-22.5t23-62.87q0-40.37-23-62.86t-62.1-22.5h-40.67V609.73Z"/><path class="cls-1" d="M1443.33,624.52a112.2,112.2,0,0,1-41.6-41.6q-15.4-26.5-15.41-58.56t15.41-58.55a113.19,113.19,0,0,1,98.92-56.7,121.39,121.39,0,0,1,45.77,8.63q21.42,8.63,35.28,24.34l-18.79,18.8A68,68,0,0,0,1536.09,441a89,89,0,0,0-35.13-6.93,88.09,88.09,0,0,0-43.6,11.25A85.62,85.62,0,0,0,1425,477.06q-12.18,20.49-12.17,47.3T1425,571.67a85.3,85.3,0,0,0,32.51,31.74A88.38,88.38,0,0,0,1501,614.66q22.2,0,37.14-6.93a83.4,83.4,0,0,0,25.73-18.34,67.28,67.28,0,0,0,12.94-20.8,92,92,0,0,0,6.17-27h-81.67V517.28h106a91.2,91.2,0,0,1,1.54,16,123.36,123.36,0,0,1-6.47,39.6,87.47,87.47,0,0,1-20.65,33.75q-30.5,33-81,33A112.72,112.72,0,0,1,1443.33,624.52Z"/><path class="cls-1" d="M1683.71,532.68,1609.13,414h30.51l56.4,92.45h1.23L1752.74,414h30.51L1709.9,532.68v102h-26.19Z"/><path class="cls-1" d="M1860.9,532.68,1786.33,414h30.51l56.39,92.45h1.23L1929.94,414h30.5L1887.1,532.68v102h-26.2Z"/><path class="cls-1" d="M2016.53,624.52a109.1,109.1,0,0,1-41.14-41.45q-15-26.36-15-58.71t15-58.7a109.17,109.17,0,0,1,41.14-41.45q26.19-15.1,58.25-15.1,24.64,0,45.14,9.4a105.19,105.19,0,0,1,35.6,26.65l-18.8,18.19q-12.64-15.11-27.58-22.19t-34.36-7.09a88.43,88.43,0,0,0-44.07,11.25,83.75,83.75,0,0,0-31.9,31.74q-11.86,20.49-11.86,47.3t11.86,47.31a83.75,83.75,0,0,0,31.9,31.74,88.43,88.43,0,0,0,44.07,11.25q40,0,68.1-33L2162,600.17A111.33,111.33,0,0,1,2124.08,629q-22.5,10.63-49.3,10.63Q2042.72,639.62,2016.53,624.52Z"/></svg>