<svg id="Layer_1" data-name="Layer 1" xmlns="http://www.w3.org/2000/svg" viewBox="0 0 2000 1000"><defs><style>.cls-1{fill:#fff;}</style></defs><title>02 GDG Logo (White)</title><path class="cls-1" d="M449,467.57l-89.76,51.82L280,473.63a59.3,59.3,0,0,0-26-7.86l145.49-84A49.54,49.54,0,1,1,449,467.57Z"/><path class="cls-1" d="M424.19,675.11a49.34,49.34,0,0,1-24.72-6.64L225.49,568a49.55,49.55,0,0,1,0-85.81l.7-.4a49.47,49.47,0,0,1,48.84.4l74.31,42.91L449,582.66a49.54,49.54,0,0,1-24.82,92.45Z"/><path class="cls-1" d="M467.15,650.33a49.54,49.54,0,0,1-67.68,18.14L225.49,568a49.55,49.55,0,0,1,0-85.81l.7-.4a49.47,49.47,0,0,1,48.84.4l74.31,42.91L449,582.66A49.54,49.54,0,0,1,467.15,650.33Z"/><path class="cls-1" d="M767.47,584.46,622,668.47a49.54,49.54,0,0,1-49.55-85.81l89.76-51.83,5,2.87,74.31,42.9A59.17,59.17,0,0,0,767.47,584.46Z"/><path class="cls-1" d="M795.94,568h0l-.83.47a49.44,49.44,0,0,1-48.7-.47l-74.32-42.91-99.67-57.54A49.54,49.54,0,1,1,622,381.77L796,482.21a49.51,49.51,0,0,1,0,85.8Z"/><path class="cls-1" d="M814.1,549.88A49.18,49.18,0,0,1,795.94,568h0l-.83.47a49.44,49.44,0,0,1-48.7-.47l-74.32-42.91-99.67-57.54A49.54,49.54,0,1,1,622,381.77L796,482.21A49.54,49.54,0,0,1,814.1,549.88Z"/><path class="cls-1" d="M1017.49,624.65a111.27,111.27,0,0,1-41.25-41.24Q961,557.13,961,525.36t15.27-58.05a112.23,112.23,0,0,1,98.07-56.22,120.34,120.34,0,0,1,45.37,8.56q21.24,8.55,35,24.13L1136,462.42a67.5,67.5,0,0,0-26.58-19.7,90.34,90.34,0,0,0-78.06,4.27,85,85,0,0,0-32.08,31.47q-12.07,20.32-12.07,46.9t12.07,46.89a84.5,84.5,0,0,0,32.23,31.47,87.57,87.57,0,0,0,43.08,11.15q22,0,36.81-6.87a82.38,82.38,0,0,0,25.51-18.18,66.64,66.64,0,0,0,12.84-20.62,91.41,91.41,0,0,0,6.11-26.73h-81V518.33H1180a90.69,90.69,0,0,1,1.53,15.89,122.4,122.4,0,0,1-6.42,39.26,86.57,86.57,0,0,1-20.47,33.45q-30.24,32.7-80.35,32.69A111.76,111.76,0,0,1,1017.49,624.65Z"/><path class="cls-1" d="M1213.93,416h66q33.61,0,58.66,13.9a95.75,95.75,0,0,1,38.5,38.65q13.44,24.75,13.44,56.83t-13.44,56.82a95.69,95.69,0,0,1-38.5,38.65q-25,13.9-58.66,13.9h-66Zm66,194q38.8,0,61.56-22.31t22.76-62.32q0-40-22.76-62.33t-61.56-22.3h-40.33V610Z"/><path class="cls-1" d="M1468.42,624.65a111.25,111.25,0,0,1-41.24-41.24q-15.29-26.28-15.28-58t15.28-58.05a112.2,112.2,0,0,1,98.07-56.22,120.34,120.34,0,0,1,45.37,8.56q21.23,8.55,35,24.13L1587,462.42a67.35,67.35,0,0,0-26.58-19.7,90.34,90.34,0,0,0-78.06,4.27,85,85,0,0,0-32.08,31.47q-12.06,20.32-12.06,46.9t12.06,46.89a84.53,84.53,0,0,0,32.24,31.47,87.56,87.56,0,0,0,43.07,11.15q22,0,36.82-6.87a82.38,82.38,0,0,0,25.51-18.18,66.81,66.81,0,0,0,12.83-20.62,90.78,90.78,0,0,0,6.11-26.73h-81V518.33H1631a91.66,91.66,0,0,1,1.53,15.89,122.4,122.4,0,0,1-6.42,39.26,86.69,86.69,0,0,1-20.47,33.45q-30.24,32.7-80.35,32.69A111.77,111.77,0,0,1,1468.42,624.65Z"/></svg>