<svg id="Layer_1" data-name="Layer 1" xmlns="http://www.w3.org/2000/svg" viewBox="0 0 2400 500"><defs><style>.cls-1{fill:#676c72;}</style></defs><title>03 GDGYYC Logo Cropped (Black)</title><path class="cls-1" d="M369.51,217.57l-89.76,51.82-79.27-45.76a59.3,59.3,0,0,0-26-7.86l145.49-84a49.54,49.54,0,1,1,49.54,85.8Z"/><path class="cls-1" d="M344.69,425.11A49.32,49.32,0,0,1,320,418.47L146,318a49.55,49.55,0,0,1,0-85.81l.71-.4a49.45,49.45,0,0,1,48.83.4l74.32,42.91,99.67,57.54a49.55,49.55,0,0,1-24.82,92.45Z"/><path class="cls-1" d="M387.64,400.33A49.52,49.52,0,0,1,320,418.47L146,318a49.55,49.55,0,0,1,0-85.81l.71-.4a49.45,49.45,0,0,1,48.83.4l74.32,42.91,99.67,57.54A49.54,49.54,0,0,1,387.64,400.33Z"/><path class="cls-1" d="M688,334.46l-145.49,84a49.54,49.54,0,1,1-49.54-85.81l89.75-51.83,5,2.87L662,326.6A59.25,59.25,0,0,0,688,334.46Z"/><path class="cls-1" d="M716.44,318h0l-.83.47a49.46,49.46,0,0,1-48.71-.47l-74.31-42.91-99.67-57.54a49.54,49.54,0,1,1,49.54-85.8l174,100.44a49.52,49.52,0,0,1,0,85.8Z"/><path class="cls-1" d="M734.59,299.88A49.16,49.16,0,0,1,716.44,318h0l-.83.47a49.46,49.46,0,0,1-48.71-.47l-74.31-42.91-99.67-57.54a49.54,49.54,0,1,1,49.54-85.8l174,100.44A49.54,49.54,0,0,1,734.59,299.88Z"/><path class="cls-1" d="M938.48,374.52a112.16,112.16,0,0,1-41.61-41.6q-15.4-26.51-15.41-58.56t15.41-58.55a113.22,113.22,0,0,1,98.93-56.7,121.38,121.38,0,0,1,45.76,8.63q21.42,8.63,35.29,24.34l-18.8,18.8A68.07,68.07,0,0,0,1031.24,191a89.09,89.09,0,0,0-35.14-6.93,88.09,88.09,0,0,0-43.6,11.25,85.62,85.62,0,0,0-32.36,31.74Q908,247.55,908,274.36t12.17,47.31a85.3,85.3,0,0,0,32.51,31.74,88.41,88.41,0,0,0,43.45,11.25q22.2,0,37.14-6.93A83.4,83.4,0,0,0,1059,339.39a67.49,67.49,0,0,0,13-20.8,92,92,0,0,0,6.16-27H996.41V267.28h106a91.27,91.27,0,0,1,1.55,16,123.37,123.37,0,0,1-6.48,39.6,87.57,87.57,0,0,1-20.64,33.75q-30.51,33-81,33A112.69,112.69,0,0,1,938.48,374.52Z"/><path class="cls-1" d="M1136.63,164h66.56q33.9,0,59.17,14a96.5,96.5,0,0,1,38.83,39q13.56,25,13.56,57.32t-13.56,57.32a96.46,96.46,0,0,1-38.83,39q-25.26,14-59.17,14h-66.56Zm66.56,195.69q39.13,0,62.1-22.5t23-62.87q0-40.37-23-62.86t-62.1-22.5h-40.67V359.73Z"/><path class="cls-1" d="M1393.33,374.52a112.2,112.2,0,0,1-41.6-41.6q-15.4-26.51-15.41-58.56t15.41-58.55a113.19,113.19,0,0,1,98.92-56.7,121.39,121.39,0,0,1,45.77,8.63q21.42,8.63,35.28,24.34l-18.79,18.8A68,68,0,0,0,1486.09,191a89,89,0,0,0-35.13-6.93,88.09,88.09,0,0,0-43.6,11.25A85.62,85.62,0,0,0,1375,227.06q-12.18,20.49-12.17,47.3T1375,321.67a85.3,85.3,0,0,0,32.51,31.74A88.38,88.38,0,0,0,1451,364.66q22.2,0,37.14-6.93a83.4,83.4,0,0,0,25.73-18.34,67.28,67.28,0,0,0,12.94-20.8,92,92,0,0,0,6.17-27h-81.67V267.28h106a91.2,91.2,0,0,1,1.54,16,123.36,123.36,0,0,1-6.47,39.6,87.47,87.47,0,0,1-20.65,33.75q-30.5,33-81,33A112.72,112.72,0,0,1,1393.33,374.52Z"/><path class="cls-1" d="M1633.71,282.68,1559.13,164h30.51l56.4,92.45h1.23L1702.74,164h30.51L1659.9,282.68v102h-26.19Z"/><path class="cls-1" d="M1810.9,282.68,1736.33,164h30.51l56.39,92.45h1.23L1879.94,164h30.5L1837.1,282.68v102h-26.2Z"/><path class="cls-1" d="M1966.53,374.52a109.1,109.1,0,0,1-41.14-41.45q-15-26.35-15-58.71t15-58.7a109.17,109.17,0,0,1,41.14-41.45q26.19-15.11,58.25-15.1,24.65,0,45.14,9.4a105.19,105.19,0,0,1,35.6,26.65l-18.8,18.19q-12.64-15.1-27.58-22.19t-34.36-7.09a88.43,88.43,0,0,0-44.07,11.25,83.75,83.75,0,0,0-31.9,31.74q-11.86,20.49-11.86,47.3t11.86,47.31a83.75,83.75,0,0,0,31.9,31.74,88.43,88.43,0,0,0,44.07,11.25q40,0,68.1-33L2112,350.17A111.33,111.33,0,0,1,2074.08,379q-22.5,10.63-49.3,10.63Q1992.73,389.62,1966.53,374.52Z"/></svg>