<svg id="Layer_1" data-name="Layer 1" xmlns="http://www.w3.org/2000/svg" viewBox="0 0 1000 1000"><defs><style>.cls-1{fill:#676c72;}</style></defs><title>03 GDGYYC Logo SQ (Black)</title><path class="cls-1" d="M440.34,321.14,355.73,370,281,326.85a55.94,55.94,0,0,0-24.52-7.41l137.15-79.18a46.7,46.7,0,1,1,46.7,80.88Z"/><path class="cls-1" d="M416.94,516.78a46.51,46.51,0,0,1-23.3-6.26l-164-94.7a46.69,46.69,0,0,1,0-80.88c.22-.13.43-.26.66-.38a46.61,46.61,0,0,1,46,.38l70.05,40.45,94,54.24a46.71,46.71,0,0,1-23.4,87.15Z"/><path class="cls-1" d="M457.43,493.42a46.68,46.68,0,0,1-63.79,17.1l-164-94.7a46.69,46.69,0,0,1,0-80.88c.22-.13.43-.26.66-.38a46.61,46.61,0,0,1,46,.38l70.05,40.45,94,54.24A46.69,46.69,0,0,1,457.43,493.42Z"/><path class="cls-1" d="M740.53,431.33,603.39,510.52a46.7,46.7,0,0,1-46.71-80.89l84.62-48.86,4.67,2.7,70,40.45A55.86,55.86,0,0,0,740.53,431.33Z"/><path class="cls-1" d="M767.37,415.81h0l-.79.45a46.62,46.62,0,0,1-45.91-.45l-70.05-40.44-94-54.24a46.7,46.7,0,1,1,46.71-80.88l164,94.68a46.67,46.67,0,0,1,0,80.87Z"/><path class="cls-1" d="M784.48,398.73a46.25,46.25,0,0,1-17.11,17.08h0l-.79.45a46.62,46.62,0,0,1-45.91-.45l-70.05-40.44-94-54.24a46.7,46.7,0,1,1,46.71-80.88l164,94.68A46.7,46.7,0,0,1,784.48,398.73Z"/><path class="cls-1" d="M160.53,756.83a68.25,68.25,0,0,1-25.3-25.3,72.33,72.33,0,0,1,0-71.21,68.83,68.83,0,0,1,60.16-34.48,74,74,0,0,1,27.83,5.24,56,56,0,0,1,21.45,14.81l-11.43,11.43a41.34,41.34,0,0,0-16.3-12.09A54.18,54.18,0,0,0,195.57,641a53.57,53.57,0,0,0-26.51,6.84,52,52,0,0,0-19.68,19.3Q142,679.63,142,695.93t7.4,28.76A51.87,51.87,0,0,0,169.15,744a53.65,53.65,0,0,0,26.42,6.84q13.5,0,22.59-4.21a50.67,50.67,0,0,0,15.64-11.15,41,41,0,0,0,7.87-12.65,55.81,55.81,0,0,0,3.75-16.4H195.76v-14.8h64.47a55.93,55.93,0,0,1,.93,9.74,75.23,75.23,0,0,1-3.93,24.08A53.21,53.21,0,0,1,244.67,746Q226.12,766,195.39,766A68.59,68.59,0,0,1,160.53,756.83Z"/><path class="cls-1" d="M281,628.84H321.5q20.63,0,36,8.52a58.73,58.73,0,0,1,23.62,23.71q8.23,15.18,8.24,34.86t-8.24,34.85a58.73,58.73,0,0,1-23.62,23.71q-15.36,8.52-36,8.52H281Zm40.47,119q23.81,0,37.77-13.68t14-38.22q0-24.55-14-38.23T321.5,644H296.77V747.83Z"/><path class="cls-1" d="M437.13,756.83a68.17,68.17,0,0,1-25.3-25.3,72.33,72.33,0,0,1,0-71.21A68.83,68.83,0,0,1,472,625.84a73.91,73.91,0,0,1,27.83,5.24,56,56,0,0,1,21.46,14.81l-11.43,11.43a41.34,41.34,0,0,0-16.3-12.09A54.18,54.18,0,0,0,472.17,641a53.64,53.64,0,0,0-26.52,6.84A52,52,0,0,0,426,667.16q-7.41,12.47-7.4,28.77t7.4,28.76A51.8,51.8,0,0,0,445.75,744a53.62,53.62,0,0,0,26.42,6.84q13.5,0,22.58-4.21a50.59,50.59,0,0,0,15.65-11.15,41,41,0,0,0,7.87-12.65,55.81,55.81,0,0,0,3.75-16.4H472.36v-14.8h64.46a55,55,0,0,1,.94,9.74,75.23,75.23,0,0,1-3.93,24.08A53.21,53.21,0,0,1,521.27,746Q502.72,766,472,766A68.56,68.56,0,0,1,437.13,756.83Z"/><path class="cls-1" d="M583.3,701,538,628.84H556.5l34.29,56.22h.75l33.74-56.22h18.55L599.23,701v62H583.3Z"/><path class="cls-1" d="M691.05,701,645.7,628.84h18.55l34.3,56.22h.75L733,628.84h18.55L707,701v62H691.05Z"/><path class="cls-1" d="M785.69,756.83a66.35,66.35,0,0,1-25-25.21,74.63,74.63,0,0,1,0-71.39,66.35,66.35,0,0,1,25-25.21,69.6,69.6,0,0,1,35.41-9.18,65.09,65.09,0,0,1,27.46,5.71,64,64,0,0,1,21.64,16.21l-11.43,11.06A50,50,0,0,0,842,645.33,48.13,48.13,0,0,0,821.1,641a53.78,53.78,0,0,0-26.79,6.84,50.86,50.86,0,0,0-19.4,19.3q-7.21,12.47-7.21,28.77t7.21,28.76a50.86,50.86,0,0,0,19.4,19.3,53.67,53.67,0,0,0,26.79,6.84q24.36,0,41.42-20.05L874.14,742a67.73,67.73,0,0,1-23,17.52,72.87,72.87,0,0,1-65.4-2.72Z"/></svg>