<svg id="Layer_1" data-name="Layer 1" xmlns="http://www.w3.org/2000/svg" viewBox="0 0 1000 1000"><defs><style>.cls-1{fill:#676c72;}</style></defs><title>03 GDG Icon (Black)</title><path class="cls-1" d="M354.88,467.57l-89.75,51.82-79.28-45.76a59.3,59.3,0,0,0-26-7.86l145.5-84a49.53,49.53,0,1,1,49.53,85.8Z"/><path class="cls-1" d="M330.06,675.11a49.28,49.28,0,0,1-24.71-6.64L131.36,568a49.55,49.55,0,0,1,0-85.81l.7-.4a49.47,49.47,0,0,1,48.84.4l74.31,42.91,99.67,57.54a49.54,49.54,0,0,1-24.82,92.45Z"/><path class="cls-1" d="M373,650.33a49.52,49.52,0,0,1-67.67,18.14L131.36,568a49.55,49.55,0,0,1,0-85.81l.7-.4a49.47,49.47,0,0,1,48.84.4l74.31,42.91,99.67,57.54A49.54,49.54,0,0,1,373,650.33Z"/><path class="cls-1" d="M673.34,584.46l-145.48,84a49.54,49.54,0,0,1-49.55-85.81l89.76-51.83,5,2.87,74.31,42.9A59.17,59.17,0,0,0,673.34,584.46Z"/><path class="cls-1" d="M701.82,568h0l-.84.47a49.44,49.44,0,0,1-48.7-.47L578,525.11l-99.67-57.54a49.54,49.54,0,1,1,49.55-85.8l174,100.44a49.52,49.52,0,0,1,0,85.8Z"/><path class="cls-1" d="M720,549.88A49.23,49.23,0,0,1,701.82,568h0l-.84.47a49.44,49.44,0,0,1-48.7-.47L578,525.11l-99.67-57.54a49.54,49.54,0,1,1,49.55-85.8l174,100.44A49.54,49.54,0,0,1,720,549.88Z"/></svg>