<svg id="Layer_1" data-name="Layer 1" xmlns="http://www.w3.org/2000/svg" viewBox="0 0 4800 1300"><defs><style>.cls-1{fill:#676c72;}</style></defs><title>05 LBWNT Full</title><path class="cls-1" d="M197,544.6h25.88V740.3h96.77v25H197Z"/><path class="cls-1" d="M368.38,759.4a74.8,74.8,0,0,1-27.89-29.74q-10-18.95-10-42.68a93.6,93.6,0,0,1,9.4-41.91,75.94,75.94,0,0,1,26.65-30.51q17.27-11.4,40.07-11.4,23.1,0,40.06,10.32a68.64,68.64,0,0,1,26,28.51q9.09,18.18,9.09,41.6a30.9,30.9,0,0,1-.92,8H356.67q.93,17.88,8.63,30.21a50.31,50.31,0,0,0,19.57,18.49,53.11,53.11,0,0,0,24.81,6.16q30.19,0,46.53-28.35l22.19,10.78a79.13,79.13,0,0,1-27.58,30.2q-17.42,11.1-42.07,11.1Q386.25,770.19,368.38,759.4ZM454.05,670a51.14,51.14,0,0,0-5.54-19.72,42.19,42.19,0,0,0-15.57-16.64q-10.62-6.78-26.65-6.78-18.5,0-31.28,11.86T358.21,670Z"/><path class="cls-1" d="M544.19,767.05a40.25,40.25,0,0,1-13.71-8.47,38.62,38.62,0,0,1-9.25-13.81q-3.08-7.85-3.08-19.14V631.82H490.72V608.09h27.43V563.71h26.2v44.38h38.21v23.73H544.35v87.56q0,13.23,4.93,19.53,5.85,6.95,17,6.93a31.87,31.87,0,0,0,17.25-5.24v25.58a39.78,39.78,0,0,1-9.4,3.08,65.5,65.5,0,0,1-12.17.93A49,49,0,0,1,544.19,767.05Z"/><path class="cls-1" d="M603.82,600.08,618.92,577a17.55,17.55,0,0,1-14.17-17.56,19.05,19.05,0,0,1,5.7-14,18.73,18.73,0,0,1,13.71-5.7,19.48,19.48,0,0,1,19.73,19.73,23.69,23.69,0,0,1-2,9.55A73.78,73.78,0,0,1,635.56,580l-19.41,28.05Z"/><path class="cls-1" d="M669.47,758.32a64.66,64.66,0,0,1-24-30.35l23.42-10.48q5.85,14.18,17.41,21.88a44.86,44.86,0,0,0,25.43,7.7q14.79,0,25.27-6T747.44,724q0-9.86-8.33-15.87t-26.19-10.32l-19.11-4.93Q675,688.21,663,677.12t-12-28.66a37.4,37.4,0,0,1,8.16-23.88,52.22,52.22,0,0,1,21.73-15.88,76.73,76.73,0,0,1,29.28-5.54q20.64,0,36.82,8.93t23,25l-22.8,10.47q-10.49-20.94-37.29-20.95-12.95,0-22.65,6t-9.71,15.25a17.06,17.06,0,0,0,6.78,14q6.78,5.4,20.34,8.79l22.8,5.85q23.11,5.87,34.83,17.41a38.16,38.16,0,0,1,11.71,28.2,40.87,40.87,0,0,1-8.32,25.43,52.93,52.93,0,0,1-22.5,16.79,81.65,81.65,0,0,1-31.43,5.86Q686.42,770.19,669.47,758.32Z"/><path class="cls-1" d="M867,544.6h79.2a66.25,66.25,0,0,1,31.28,7.71,60.35,60.35,0,0,1,23.27,21.26,55.7,55.7,0,0,1,8.63,30.51q0,16-8.17,28a53.31,53.31,0,0,1-22,18.49v1.23A55.8,55.8,0,0,1,1006.3,671q10.47,13.56,10.47,31.74a58.82,58.82,0,0,1-9.09,32.2,62.89,62.89,0,0,1-24.34,22.34,69.44,69.44,0,0,1-32.82,8H867Zm79.2,95.54a36.38,36.38,0,0,0,19.57-5.24,37.11,37.11,0,0,0,13.1-13.41,33.68,33.68,0,0,0,4.62-16.79A34,34,0,0,0,979,588.21a36.72,36.72,0,0,0-12.63-13.4,34.3,34.3,0,0,0-18.95-5.24H892.89v70.57Zm5.86,100.16a36.46,36.46,0,0,0,19.88-5.55,38.68,38.68,0,0,0,13.56-14.33,37.37,37.37,0,0,0,4.77-18,36.4,36.4,0,0,0-4.93-18,38.21,38.21,0,0,0-13.87-14.17,39.13,39.13,0,0,0-20.64-5.4H892.89V740.3Z"/><path class="cls-1" d="M1056.06,753.55q-14.94-16.65-14.94-46.54V608.09h26.19V703q0,22.5,10.17,33t27.43,10.48a40.61,40.61,0,0,0,23.57-7.09,48.24,48.24,0,0,0,16-18.49,53,53,0,0,0,5.7-24V608.09h26.19V765.26h-25V742.45h-1.23q-6.46,11.71-20.65,19.73a60.44,60.44,0,0,1-30.2,8Q1071,770.19,1056.06,753.55Z"/><path class="cls-1" d="M1211.23,573.88a18.07,18.07,0,0,1-5.55-13.25,17.6,17.6,0,0,1,5.55-13.1,19,19,0,0,1,26.5,0,17.6,17.6,0,0,1,5.55,13.1,18.33,18.33,0,0,1-5.4,13.25,18.77,18.77,0,0,1-26.65,0Zm.3,34.21h25.89V765.26h-25.89Z"/><path class="cls-1" d="M1272.55,544.6h26.2V765.26h-26.2Z"/><path class="cls-1" d="M1358.38,759.4a75.54,75.54,0,0,1-27-29.74q-9.87-18.95-9.87-43,0-23.73,9.87-42.83a75.39,75.39,0,0,1,27-29.9,69.89,69.89,0,0,1,38.06-10.78q18.18,0,32.36,8.16t21.57,20.19h1.23l-1.23-21.88v-65h26.2V765.26h-25V742.14h-1.23Q1443,753.86,1428.8,762t-32.36,8.17A69.9,69.9,0,0,1,1358.38,759.4Zm66.87-20.34a54,54,0,0,0,19.11-20.95q7.25-13.56,7.24-31.44t-7.24-31.43a54.07,54.07,0,0,0-19.11-21,48.23,48.23,0,0,0-51.31,0,53.42,53.42,0,0,0-19.26,21.11q-7.25,13.73-7.24,31.28t7.24,31.28a53.35,53.35,0,0,0,19.26,21.11,48.17,48.17,0,0,0,51.31,0Z"/><path class="cls-1" d="M1548.06,544.6h29l40.06,162.1,3.7,15.11H1622l4.62-15.11L1676,544.6h27.12l47.15,162.1,4.63,15.11h1.23l43.45-177.21h29L1769,765.26H1741.9l-46.84-159.64-4.93-17.26h-1.23l-5.24,17.26L1635,765.26h-27.12Z"/><path class="cls-1" d="M1847,544.6h26.2v65L1872,631.2h1.23q6.46-12,20.49-20a60.76,60.76,0,0,1,30.67-8q28.65,0,43.76,16.79t15.1,44.53V765.26H1957V668.49q0-21.27-10.78-31.43t-28-10.17a38,38,0,0,0-22.65,7.39,54.47,54.47,0,0,0-22.34,43.46v87.52H1847Z"/><path class="cls-1" d="M2032.51,763.41a50.67,50.67,0,0,1-21-18.65,49.87,49.87,0,0,1-7.4-27q0-25,18.8-39t47.46-14a107.41,107.41,0,0,1,26.35,3.08q12.16,3.09,18.64,7.09v-9.55q0-17.56-12.32-28.2T2072,626.58a52.45,52.45,0,0,0-24.34,5.7A44.43,44.43,0,0,0,2030,648.15l-19.72-14.79a63.07,63.07,0,0,1,25.42-22.19,79.8,79.8,0,0,1,35.9-8q32.06,0,50.39,16.79t18.34,45.77v99.54h-25v-22.5h-1.23q-6.78,11.4-20.34,19.42a58.85,58.85,0,0,1-30.51,8Q2046.05,770.19,2032.51,763.41Zm57.93-23.11a51.46,51.46,0,0,0,18.19-18.19,48,48,0,0,0,6.77-25,64.75,64.75,0,0,0-18.18-8,82.78,82.78,0,0,0-22.8-3.08q-21.59,0-32.51,8.93A28.47,28.47,0,0,0,2031,718.11a25.68,25.68,0,0,0,9.86,20.95q9.86,8,25,8A47.38,47.38,0,0,0,2090.44,740.3Z"/><path class="cls-1" d="M2210.17,767.05a40.3,40.3,0,0,1-13.72-8.47,38.59,38.59,0,0,1-9.24-13.81q-3.09-7.85-3.08-19.14V631.82H2156.7V608.09h27.43V563.71h26.19v44.38h38.22v23.73h-38.22v87.56q0,13.23,4.93,19.53,5.85,6.95,16.95,6.93a31.9,31.9,0,0,0,17.26-5.24v25.58a39.93,39.93,0,0,1-9.4,3.08,65.57,65.57,0,0,1-12.17.93A49,49,0,0,1,2210.17,767.05Z"/><path class="cls-1" d="M2269.8,600.08,2284.9,577a16.8,16.8,0,0,1-9.86-5.7,17,17,0,0,1-4.32-11.86,19.06,19.06,0,0,1,5.71-14,18.7,18.7,0,0,1,13.71-5.7,19.47,19.47,0,0,1,19.72,19.73,23.85,23.85,0,0,1-2,9.55,73.78,73.78,0,0,1-6.32,11.09l-19.41,28.05Z"/><path class="cls-1" d="M2335.44,758.32a64.64,64.64,0,0,1-24-30.35l23.42-10.48q5.85,14.18,17.41,21.88a44.83,44.83,0,0,0,25.42,7.7q14.79,0,25.27-6T2413.41,724q0-9.86-8.32-15.87t-26.19-10.32l-19.11-4.93Q2341,688.21,2329,677.12t-12-28.66a37.36,37.36,0,0,1,8.17-23.88,52.15,52.15,0,0,1,21.73-15.88,76.64,76.64,0,0,1,29.27-5.54q20.64,0,36.83,8.93t23,25l-22.81,10.47q-10.47-20.94-37.29-20.95-12.93,0-22.65,6t-9.7,15.25a17,17,0,0,0,6.78,14q6.77,5.4,20.33,8.79l22.81,5.85q23.11,5.87,34.82,17.41a38.12,38.12,0,0,1,11.71,28.2,40.81,40.81,0,0,1-8.32,25.43q-8.31,10.94-22.49,16.79a81.67,81.67,0,0,1-31.44,5.86Q2352.39,770.19,2335.44,758.32Z"/><path class="cls-1" d="M2533,544.6H2565l110.63,175.66h1.24l-1.24-42.52V544.6h26.2V765.26h-27.12l-115.87-184h-1.24l1.24,42.53V765.26H2533Z"/><path class="cls-1" d="M2769.35,759.4a74.73,74.73,0,0,1-27.89-29.74q-10-18.95-10-42.68a93.6,93.6,0,0,1,9.4-41.91,76,76,0,0,1,26.66-30.51q17.25-11.4,40.06-11.4,23.11,0,40.06,10.32a68.58,68.58,0,0,1,26,28.51q9.09,18.18,9.09,41.6a30.48,30.48,0,0,1-.92,8H2757.64q.92,17.88,8.62,30.21a50.38,50.38,0,0,0,19.57,18.49,53.11,53.11,0,0,0,24.81,6.16q30.2,0,46.54-28.35l22.18,10.78a79.05,79.05,0,0,1-27.58,30.2q-17.42,11.1-42.06,11.1Q2787.22,770.19,2769.35,759.4ZM2855,670a51.16,51.16,0,0,0-5.55-19.72,42.16,42.16,0,0,0-15.56-16.64q-10.63-6.78-26.66-6.78-18.49,0-31.28,11.86T2759.18,670Z"/><path class="cls-1" d="M2944.08,685.44l-54.55-77.35h29.59l40.68,58.24,39.13-58.24h30.51l-54.85,77.35,56.09,79.82h-30.51l-41-60.41-40.06,60.41h-30.51Z"/><path class="cls-1" d="M3090.61,767.05a40.35,40.35,0,0,1-13.71-8.47,38.59,38.59,0,0,1-9.24-13.81q-3.09-7.85-3.09-19.14V631.82h-27.42V608.09h27.42V563.71h26.2v44.38H3129v23.73h-38.21v87.56q0,13.23,4.93,19.53,5.85,6.95,17,6.93a31.9,31.9,0,0,0,17.26-5.24v25.58a39.93,39.93,0,0,1-9.4,3.08,65.57,65.57,0,0,1-12.17.93A49.07,49.07,0,0,1,3090.61,767.05Z"/><path class="cls-1" d="M3157.8,759.83a17.7,17.7,0,0,1-5.7-13.36,17.37,17.37,0,0,1,5.7-13.07,19.55,19.55,0,0,1,14-5.43,19.17,19.17,0,0,1,13.71,5.43,17.41,17.41,0,0,1,5.7,13.07,17.74,17.74,0,0,1-5.7,13.36,19.17,19.17,0,0,1-13.71,5.43A19.55,19.55,0,0,1,3157.8,759.83Z"/><path class="cls-1" d="M3337.61,584.05H3276V544.6h164.87v39.45h-61.63V765.26h-41.61Z"/><path class="cls-1" d="M3469.51,759.25a77.58,77.58,0,0,1-29.73-29.9q-10.64-18.95-10.64-42.68a85.94,85.94,0,0,1,10.64-42.52,77.28,77.28,0,0,1,29.73-30q19.11-10.94,43.46-10.94,24,0,43.14,10.94a77.38,77.38,0,0,1,29.74,30q10.64,19.11,10.63,42.52,0,23.75-10.63,42.68a77.67,77.67,0,0,1-29.74,29.9Q3537,770.19,3513,770.19,3488.61,770.19,3469.51,759.25Zm65-31.9a40.8,40.8,0,0,0,15.72-16q5.85-10.47,5.85-24.66,0-13.86-5.85-24.34a40.82,40.82,0,0,0-15.72-16,44.69,44.69,0,0,0-43.14,0,41.81,41.81,0,0,0-15.88,16q-6,10.47-6,24.34a49,49,0,0,0,6,24.5,41.48,41.48,0,0,0,15.88,16.18,44.69,44.69,0,0,0,43.14,0Z"/><path class="cls-1" d="M3643.94,823.35q-19.72-13.41-26.5-32.21l37.9-15.41A40.52,40.52,0,0,0,3693.55,801q19.11,0,30.36-11.71T3735.16,756V743.69h-2.47a47.86,47.86,0,0,1-19.41,16q-12,5.55-27.43,5.55a69.44,69.44,0,0,1-36.21-10,73.84,73.84,0,0,1-27-28.35q-10.17-18.33-10.17-42.68t10.17-42.69a74,74,0,0,1,27-28.35,69.52,69.52,0,0,1,36.21-10,64.92,64.92,0,0,1,27.43,5.54,47.88,47.88,0,0,1,19.41,16h2.47V608.09H3774V754.47q0,25.26-9.86,43.76a68.88,68.88,0,0,1-28.05,28.51q-18.18,10-42.53,10Q3663.66,836.75,3643.94,823.35Zm79.2-106.63q12-11.87,12-32.51,0-21.27-11.87-32.82t-29.12-11.56a40.42,40.42,0,0,0-29.28,11.71q-12,11.72-12,32.67t12,32.66a40.38,40.38,0,0,0,29.28,11.71A39.73,39.73,0,0,0,3723.14,716.72Z"/><path class="cls-1" d="M3837.16,759.4a77.22,77.22,0,0,1-29.43-29.74q-10.62-18.95-10.63-42.68a86,86,0,0,1,10.48-41.76,80.69,80.69,0,0,1,29-30.66,77.08,77.08,0,0,1,41.29-11.4q24.35,0,41.92,10.48a68.28,68.28,0,0,1,26.65,28.66q9.09,18.18,9.09,40.37a96.84,96.84,0,0,1-.92,13.56h-118q3.07,18.79,14.94,28.5t28.51,9.71q13.88,0,23.88-6a44.47,44.47,0,0,0,15.88-16.18l32.66,16q-24,41.91-73,41.91Q3856,770.19,3837.16,759.4Zm79.51-91.83a31.24,31.24,0,0,0-5.39-14.64,37.71,37.71,0,0,0-13.25-12,39.88,39.88,0,0,0-19.88-4.78q-14.49,0-24.81,8.48t-14.94,23Z"/><path class="cls-1" d="M4022.68,766.58a42.47,42.47,0,0,1-16-9.9q-14.49-14.14-14.49-40.23V642.6h-27.42V608.09h27.42V563.71h40.37v44.38h38.53V642.6h-38.53v66.87q0,12.36,5.24,17.74,4.32,5.07,14.8,5.07a26.26,26.26,0,0,0,9.7-1.54,73.36,73.36,0,0,0,10-5.24V765a75.65,75.65,0,0,1-28.05,5.24A62.47,62.47,0,0,1,4022.68,766.58Z"/><path class="cls-1" d="M4100,544.6h40.37v55.78l-2.46,27.43h2.46q6.78-11.09,19.72-17.87a59.55,59.55,0,0,1,28.05-6.78q28.65,0,43.91,17.1t15.26,47.31v97.69H4207V672.5q0-15.11-8.17-23.42t-21.73-8.33q-16,0-26.34,13t-10.33,31.74v79.82H4100Z"/><path class="cls-1" d="M4310.82,759.4a77.16,77.16,0,0,1-29.43-29.74q-10.64-18.95-10.63-42.68a86.1,86.1,0,0,1,10.47-41.76,80.84,80.84,0,0,1,29-30.66,77.12,77.12,0,0,1,41.3-11.4q24.34,0,41.91,10.48a68.36,68.36,0,0,1,26.66,28.66,89.11,89.11,0,0,1,9.09,40.37,95.32,95.32,0,0,1-.93,13.56h-118q3.07,18.79,14.95,28.5t28.5,9.71q13.88,0,23.89-6a44.52,44.52,0,0,0,15.87-16.18l32.67,16q-24,41.91-73,41.91Q4329.61,770.19,4310.82,759.4Zm79.51-91.83a31.26,31.26,0,0,0-5.4-14.64,37.62,37.62,0,0,0-13.25-12,39.86,39.86,0,0,0-19.87-4.78q-14.49,0-24.81,8.48t-14.95,23Z"/><path class="cls-1" d="M4454.12,608.09H4492V629h2.47q5.85-11.09,18.18-18.49a51.71,51.71,0,0,1,27.12-7.39,51,51,0,0,1,19.72,3.7v40.06a131.15,131.15,0,0,0-14-4.47,51.09,51.09,0,0,0-12.17-1.39q-17.88,0-28.35,13t-10.48,32.75v78.47h-40.37Z"/><path class="cls-1" d="M4557.2,757.67a24.48,24.48,0,0,1-7.86-18.29,24,24,0,0,1,7.86-18.15,27.85,27.85,0,0,1,37.9,0,24,24,0,0,1,7.86,18.15,24.48,24.48,0,0,1-7.86,18.29,27.45,27.45,0,0,1-37.9,0Z"/></svg>