<svg id="Layer_1" data-name="Layer 1" xmlns="http://www.w3.org/2000/svg" viewBox="0 0 4000 1300"><defs><style>.cls-1{fill:#676c72;}</style></defs><title>05 LTLT Bold</title><path class="cls-1" d="M925.86,655.17h-110v-70.4h294.25v70.4h-110v323.4H925.86Z"/><path class="cls-1" d="M1161.27,967.84a138.6,138.6,0,0,1-53.08-53.35q-19-33.82-19-76.17,0-41.8,19-75.9a138.17,138.17,0,0,1,53.08-53.63q34.1-19.51,77.55-19.52,42.9,0,77,19.52a138.21,138.21,0,0,1,53.07,53.63q19,34.1,19,75.9,0,42.36-19,76.17a138.65,138.65,0,0,1-53.07,53.35q-34.11,19.51-77,19.53Q1195.36,987.37,1161.27,967.84Zm116-56.92a72.63,72.63,0,0,0,28-28.6q10.44-18.71,10.45-44,0-24.75-10.45-43.45a72.63,72.63,0,0,0-28-28.6,79.81,79.81,0,0,0-77,0,74.44,74.44,0,0,0-28.33,28.6q-10.73,18.71-10.72,43.45T1172,882q10.73,19,28.33,28.88a79.81,79.81,0,0,0,77,0Z"/><path class="cls-1" d="M1472.56,1082.24q-35.2-23.92-47.3-57.47l67.65-27.5a72.45,72.45,0,0,0,26.95,33q18.15,12.09,41.25,12.1,34.1,0,54.18-20.9t20.07-59.4v-22H1631a85.31,85.31,0,0,1-34.65,28.6q-21.45,9.9-49,9.9a123.94,123.94,0,0,1-64.62-17.88q-30-17.87-48.13-50.6t-18.15-76.17q0-43.45,18.15-76.18t48.13-50.6a124,124,0,0,1,64.62-17.87q27.5,0,49,9.9a85.39,85.39,0,0,1,34.65,28.6h4.4v-29.7h69.3V959.32q0,45.09-17.6,78.1a122.88,122.88,0,0,1-50,50.87q-32.46,17.87-75.9,17.88Q1507.76,1106.17,1472.56,1082.24Zm141.35-190.3q21.45-21.16,21.45-58,0-37.95-21.17-58.58t-52-20.62q-30.81,0-52.25,20.9t-21.45,58.3q0,37.4,21.45,58.3t52.25,20.9Q1592.45,913.12,1613.91,891.94Z"/><path class="cls-1" d="M1817.42,968.12A137.81,137.81,0,0,1,1764.89,915q-19-33.82-19-76.17a153.46,153.46,0,0,1,18.7-74.53,144,144,0,0,1,51.7-54.72q33-20.34,73.7-20.35,43.44,0,74.8,18.7a122,122,0,0,1,47.57,51.15q16.21,32.46,16.23,72a169.61,169.61,0,0,1-1.66,24.2H1816.32q5.49,33.55,26.67,50.87t50.88,17.33q24.75,0,42.62-10.73A79.3,79.3,0,0,0,1964.82,884l58.3,28.6q-42.9,74.8-130.35,74.8Q1851,987.37,1817.42,968.12Zm141.9-163.9q-1.11-13.2-9.63-26.13T1926,756.64q-15.13-8.52-35.47-8.52-25.86,0-44.28,15.12t-26.67,41Z"/><path class="cls-1" d="M2148.51,980.92q-17.61-6.45-28.6-17.67-25.86-25.23-25.85-71.79V759.67h-49v-61.6h49v-79.2h72.05v79.2h68.75v61.6h-68.75V879q0,22.05,9.35,31.67,7.7,9,26.4,9.05,10.44,0,17.32-2.75a133,133,0,0,0,17.88-9.35V978a135,135,0,0,1-50,9.35A111.29,111.29,0,0,1,2148.51,980.92Z"/><path class="cls-1" d="M2286.55,584.77h72v99.55l-4.4,48.95h4.4q12.09-19.8,35.2-31.9a106.31,106.31,0,0,1,50-12.1q51.15,0,78.38,30.52t27.22,84.43V978.57h-72V813q0-26.94-14.57-41.8t-38.78-14.85q-28.61,0-47,23.1t-18.43,56.65V978.57h-72Z"/><path class="cls-1" d="M2662.75,968.12A137.81,137.81,0,0,1,2610.22,915q-19-33.82-19-76.17a153.46,153.46,0,0,1,18.7-74.53,144,144,0,0,1,51.7-54.72q33-20.34,73.7-20.35,43.44,0,74.8,18.7a122,122,0,0,1,47.57,51.15q16.22,32.46,16.23,72a171.12,171.12,0,0,1-1.65,24.2H2661.65q5.49,33.55,26.67,50.87t50.88,17.33q24.75,0,42.62-10.73A79.3,79.3,0,0,0,2810.15,884l58.3,28.6q-42.9,74.8-130.35,74.8Q2696.3,987.37,2662.75,968.12Zm141.9-163.9q-1.11-13.2-9.63-26.13t-23.65-21.45q-15.13-8.52-35.47-8.52-25.86,0-44.28,15.12t-26.67,41Z"/><path class="cls-1" d="M2918.49,698.07h67.65v37.4h4.4q10.44-19.8,32.45-33a92.3,92.3,0,0,1,48.4-13.2,91.24,91.24,0,0,1,35.2,6.6v71.5a233.16,233.16,0,0,0-25-8,91.78,91.78,0,0,0-21.73-2.47q-31.9,0-50.6,23.16t-18.7,58.44V978.57h-72.05Z"/><path class="cls-1" d="M3102.46,965q-14-13.53-14-32.66a42.91,42.91,0,0,1,14-32.38q14-13.28,33.83-13.27T3170.11,900a42.92,42.92,0,0,1,14,32.38q0,19.13-14,32.66a49,49,0,0,1-67.65,0Z"/><path class="cls-1" d="M638.62,198.23h23.1V372.86h86.35v22.27H638.62Z"/><path class="cls-1" d="M791.52,389.91a66.82,66.82,0,0,1-24.89-26.54q-8.94-16.9-8.93-38.09a83.61,83.61,0,0,1,8.38-37.4,67.85,67.85,0,0,1,23.79-27.22q15.4-10.17,35.75-10.18,20.63,0,35.75,9.22a61.19,61.19,0,0,1,23.24,25.43q8.1,16.23,8.11,37.13a27.41,27.41,0,0,1-.82,7.15H781.07q.82,15.94,7.7,26.95a44.88,44.88,0,0,0,17.46,16.5,47.38,47.38,0,0,0,22.14,5.5q27,0,41.53-25.3l19.8,9.62a70.59,70.59,0,0,1-24.62,26.95q-15.54,9.9-37.53,9.9Q807.46,399.53,791.52,389.91ZM868,310.16a45.64,45.64,0,0,0-5-17.6,37.5,37.5,0,0,0-13.89-14.85q-9.48-6-23.78-6-16.5,0-27.92,10.59t-15,27.91Z"/><path class="cls-1" d="M948.41,396.74a36,36,0,0,1-12.24-7.57,34.37,34.37,0,0,1-8.25-12.32q-2.76-7-2.75-17.08V276.06H900.69V254.88h24.48v-39.6h23.37v39.6h34.1v21.18h-34.1V354.2q0,11.81,4.4,17.43,5.22,6.18,15.13,6.18a28.51,28.51,0,0,0,15.4-4.68V396a36.13,36.13,0,0,1-8.39,2.75,58.86,58.86,0,0,1-10.86.82A43.79,43.79,0,0,1,948.41,396.74Z"/><path class="cls-1" d="M1001.62,247.73l13.47-20.62a15.68,15.68,0,0,1-12.65-15.68,17,17,0,0,1,5.09-12.51,16.69,16.69,0,0,1,12.24-5.09,17.38,17.38,0,0,1,17.6,17.6,21.26,21.26,0,0,1-1.79,8.53,65.47,65.47,0,0,1-5.64,9.9l-17.32,25Z"/><path class="cls-1" d="M1060.2,389a57.72,57.72,0,0,1-21.45-27.09l20.89-9.35A42,42,0,0,0,1075.18,372a40,40,0,0,0,22.69,6.88q13.2,0,22.55-5.36t9.35-15.27a16.69,16.69,0,0,0-7.42-14.16q-7.44-5.36-23.38-9.21l-17-4.4q-16.77-4.12-27.5-14t-10.72-25.57A33.34,33.34,0,0,1,1051,269.6a46.67,46.67,0,0,1,19.39-14.17,68.33,68.33,0,0,1,26.13-5q18.42,0,32.86,8t20.49,22.27l-20.35,9.35q-9.36-18.69-33.28-18.7a37.55,37.55,0,0,0-20.21,5.37q-8.67,5.36-8.66,13.61a15.23,15.23,0,0,0,6,12.51q6.06,4.81,18.15,7.84l20.35,5.22q20.63,5.24,31.08,15.54a34,34,0,0,1,10.45,25.16,36.41,36.41,0,0,1-7.42,22.69,47.28,47.28,0,0,1-20.08,15,72.88,72.88,0,0,1-28.05,5.22Q1075.32,399.53,1060.2,389Z"/><path class="cls-1" d="M1265.89,220.51h-55.27V198.23h133.65v22.28h-55V395.13h-23.38Z"/><path class="cls-1" d="M1347,254.88h22.27v22.55h1.1q4.13-11.55,15.95-19.25a44.69,44.69,0,0,1,24.75-7.7,40.72,40.72,0,0,1,16.5,3v25a43.73,43.73,0,0,0-19.8-4.4,32.59,32.59,0,0,0-18.7,5.79,41.66,41.66,0,0,0-13.61,15.57,45,45,0,0,0-5.09,21.09v78.55H1347Z"/><path class="cls-1" d="M1456.47,393.48a45.25,45.25,0,0,1-18.7-16.63,44.55,44.55,0,0,1-6.6-24.07q0-22.27,16.77-34.78t42.35-12.52a95.91,95.91,0,0,1,23.52,2.75q10.86,2.76,16.63,6.33V306q0-15.67-11-25.16t-27.77-9.49a46.85,46.85,0,0,0-21.73,5.09,39.74,39.74,0,0,0-15.67,14.16l-17.6-13.2a56.24,56.24,0,0,1,22.69-19.8,71.24,71.24,0,0,1,32-7.15q28.6,0,45,15t16.36,40.84v88.82h-22.28V375.06h-1.1q-6,10.17-18.15,17.32a52.47,52.47,0,0,1-27.22,7.15A60.55,60.55,0,0,1,1456.47,393.48Zm51.7-20.62a45.78,45.78,0,0,0,16.22-16.23,42.79,42.79,0,0,0,6-22.27,57.78,57.78,0,0,0-16.22-7.15,73.88,73.88,0,0,0-20.35-2.75q-19.26,0-29,8a25.43,25.43,0,0,0-9.77,20.63,22.94,22.94,0,0,0,8.8,18.7q8.8,7.15,22.28,7.15A42.35,42.35,0,0,0,1508.17,372.86Z"/><path class="cls-1" d="M1579.67,254.88h22.27v20.63h1.1q5.78-10.45,18.43-17.74a53.19,53.19,0,0,1,27-7.29q25.29,0,38.63,14.72t13.34,40v89.92H1677V308.78q0-19.51-9.35-28.32t-25.58-8.8a34.15,34.15,0,0,0-20.21,6.32A42.57,42.57,0,0,0,1608,294.62a49.31,49.31,0,0,0-5,21.59v78.92h-23.37Z"/><path class="cls-1" d="M1738.34,389a57.84,57.84,0,0,1-21.45-27.09l20.9-9.35A42,42,0,0,0,1753.33,372a40,40,0,0,0,22.69,6.88q13.2,0,22.55-5.36t9.35-15.27a16.68,16.68,0,0,0-7.43-14.16q-7.42-5.36-23.37-9.21l-17-4.4q-16.78-4.12-27.5-14t-10.73-25.57a33.35,33.35,0,0,1,7.29-21.31,46.6,46.6,0,0,1,19.39-14.17,68.28,68.28,0,0,1,26.12-5q18.42,0,32.86,8T1828,280.73l-20.35,9.35q-9.35-18.69-33.27-18.7a37.61,37.61,0,0,0-20.22,5.37q-8.65,5.36-8.66,13.61a15.24,15.24,0,0,0,6,12.51q6,4.81,18.15,7.84l20.35,5.22q20.63,5.24,31.08,15.54a34,34,0,0,1,10.45,25.16,36.42,36.42,0,0,1-7.43,22.69,47.19,47.19,0,0,1-20.07,15,72.92,72.92,0,0,1-28,5.22Q1753.46,399.53,1738.34,389Z"/><path class="cls-1" d="M1867.86,276.06H1842V254.88h25.85V239.76q0-13.2,6.05-23.1a41.2,41.2,0,0,1,16.23-15.26,47.55,47.55,0,0,1,22.55-5.37,58.61,58.61,0,0,1,20.62,3.3v22.83q-4.95-1.92-9.35-3.16a38.69,38.69,0,0,0-10.45-1.24,21.66,21.66,0,0,0-15.67,6.46q-6.6,6.47-6.6,18v12.65h36v21.18h-36V395.13h-23.38Z"/><path class="cls-1" d="M1969.34,389.63a69.19,69.19,0,0,1-25.71-26.95,81.66,81.66,0,0,1,0-75.35,69.26,69.26,0,0,1,25.71-26.95,74.56,74.56,0,0,1,74.25,0,69.26,69.26,0,0,1,25.71,26.95,81.58,81.58,0,0,1,0,75.35,69.19,69.19,0,0,1-25.71,26.95,74.56,74.56,0,0,1-74.25,0Zm61.19-17.73a47.79,47.79,0,0,0,17.87-18.57q6.73-12.09,6.74-28.32t-6.74-28.33a47.83,47.83,0,0,0-17.87-18.56,47.24,47.24,0,0,0-24.07-6.46,47.78,47.78,0,0,0-42.21,25q-6.74,12.1-6.73,28.33t6.73,28.32a48.1,48.1,0,0,0,66.28,18.57Z"/><path class="cls-1" d="M2097.49,254.88h22.28v22.55h1.1q4.13-11.55,16-19.25a44.69,44.69,0,0,1,24.75-7.7,40.79,40.79,0,0,1,16.5,3v25a43.73,43.73,0,0,0-19.8-4.4,32.56,32.56,0,0,0-18.7,5.79A41.6,41.6,0,0,0,2126,295.49a45.1,45.1,0,0,0-5.08,21.09v78.55h-23.38Z"/><path class="cls-1" d="M2195.12,254.88h22.27v20.63h1.1q6-10.72,18.15-17.88a49.56,49.56,0,0,1,25.57-7.15q15.4,0,26.82,7.43a41.61,41.61,0,0,1,16.36,19.8,57.24,57.24,0,0,1,19.66-19.8q12.24-7.43,28.47-7.43,24.2,0,36.43,14.72t12.24,40v89.92h-23.1V308.78q0-19.51-8-28.32t-23.66-8.8a32,32,0,0,0-19,6,40.9,40.9,0,0,0-13.34,16.22,50.8,50.8,0,0,0-4.81,22v79.2H2287V309.06q0-19.8-8-28.6t-23.37-8.8a31.52,31.52,0,0,0-19,6.19,41.72,41.72,0,0,0-13.34,16.5,51.64,51.64,0,0,0-4.81,22.13v78.65h-23.37Z"/><path class="cls-1" d="M2493.21,198.23h23.1V372.86h86.35v22.27H2493.21Z"/><path class="cls-1" d="M2646.11,389.91a66.82,66.82,0,0,1-24.89-26.54q-8.92-16.9-8.93-38.09a83.61,83.61,0,0,1,8.38-37.4,67.93,67.93,0,0,1,23.79-27.22q15.4-10.17,35.75-10.18,20.63,0,35.75,9.22a61.19,61.19,0,0,1,23.24,25.43q8.12,16.23,8.11,37.13a27.41,27.41,0,0,1-.82,7.15H2635.66q.83,15.94,7.7,26.95a45,45,0,0,0,17.46,16.5,47.38,47.38,0,0,0,22.14,5.5q27,0,41.53-25.3l19.8,9.62a70.59,70.59,0,0,1-24.62,26.95q-15.54,9.9-37.53,9.9Q2662.06,399.53,2646.11,389.91Zm76.45-79.75a45.64,45.64,0,0,0-4.95-17.6,37.5,37.5,0,0,0-13.89-14.85q-9.48-6-23.78-6-16.5,0-27.91,10.59t-15,27.91Z"/><path class="cls-1" d="M2791.17,447.38q-16.1-11.55-21.59-27.77l21.18-9.08a41.91,41.91,0,0,0,15.53,19.67q10.88,7.56,25.72,7.56,21.72,0,33.68-12.13t12-34.62V375.33h-1.1a51.41,51.41,0,0,1-19.39,17.47,59.12,59.12,0,0,1-28.46,6.73,60.88,60.88,0,0,1-33.14-9.45,66.79,66.79,0,0,1-23.79-26.42q-8.81-17-8.8-38.65,0-21.42,8.8-38.51t23.79-26.56a60.89,60.89,0,0,1,33.14-9.46,59.12,59.12,0,0,1,28.46,6.74A50.68,50.68,0,0,1,2876.56,275h1.1V254.88h22.27V389.63q0,33.83-18.7,51.57T2832,458.93Q2807.26,458.93,2791.17,447.38Zm63.8-75.44a45.88,45.88,0,0,0,16.5-18.44q6.18-12,6.19-28.49,0-16.75-6.19-28.77A44.86,44.86,0,0,0,2855,278a44.91,44.91,0,0,0-46.06.13,45.46,45.46,0,0,0-16.64,18.44q-6.2,12-6.19,28.49t6.19,28.63A43.28,43.28,0,0,0,2832,378.36,42.58,42.58,0,0,0,2855,371.94Z"/><path class="cls-1" d="M2945,393.48a45.25,45.25,0,0,1-18.7-16.63,44.55,44.55,0,0,1-6.6-24.07q0-22.27,16.77-34.78t42.35-12.52a95.85,95.85,0,0,1,23.52,2.75q10.86,2.76,16.63,6.33V306q0-15.67-11-25.16t-27.77-9.49a46.85,46.85,0,0,0-21.73,5.09,39.74,39.74,0,0,0-15.67,14.16l-17.6-13.2a56.24,56.24,0,0,1,22.69-19.8,71.25,71.25,0,0,1,32-7.15q28.59,0,45,15t16.36,40.84v88.82H3019V375.06h-1.1q-6,10.17-18.15,17.32a52.44,52.44,0,0,1-27.22,7.15A60.55,60.55,0,0,1,2945,393.48Zm51.7-20.62A45.88,45.88,0,0,0,3013,356.63a42.87,42.87,0,0,0,6-22.27,57.65,57.65,0,0,0-16.22-7.15,73.88,73.88,0,0,0-20.35-2.75q-19.26,0-29,8a25.43,25.43,0,0,0-9.77,20.63,22.92,22.92,0,0,0,8.81,18.7q8.79,7.15,22.27,7.15A42.32,42.32,0,0,0,2996.73,372.86Z"/><path class="cls-1" d="M3093.8,389.77a68.06,68.06,0,0,1-25.3-26.67q-9.06-16.92-9.07-38.09t9.07-38.23a66.94,66.94,0,0,1,25.3-26.67q16.23-9.63,36.58-9.63,22.83,0,38.36,10.59a58,58,0,0,1,22.14,28.19l-21.17,8.8q-5.24-12.93-15.54-19.66t-24.89-6.74a42.66,42.66,0,0,0-23.1,6.74A48.93,48.93,0,0,0,3089,297.23q-6.47,12.11-6.46,27.78t6.46,27.77a48.89,48.89,0,0,0,17.19,18.84,42.57,42.57,0,0,0,23.1,6.74q14.85,0,25.58-6.88A41.14,41.14,0,0,0,3170.8,352l20.91,8.8a61.78,61.78,0,0,1-23,28.05q-15.81,10.72-38.36,10.72Q3110,399.53,3093.8,389.77Z"/><path class="cls-1" d="M3254.4,386.33l-58-131.45h25.3l44,104.23h.55l42.35-104.23h25.3l-86.63,199.65h-24.2Z"/><path class="cls-1" d="M3331.54,390.29a15.78,15.78,0,0,1-5.09-11.92,15.5,15.5,0,0,1,5.09-11.66,17.45,17.45,0,0,1,12.51-4.85,17.13,17.13,0,0,1,12.24,4.85,15.54,15.54,0,0,1,5.09,11.66,15.82,15.82,0,0,1-5.09,11.92,17.12,17.12,0,0,1-12.24,4.84A17.44,17.44,0,0,1,3331.54,390.29Z"/></svg>