<svg id="Layer_1" data-name="Layer 1" xmlns="http://www.w3.org/2000/svg" viewBox="0 0 1000 1000"><defs><style>.cls-1{fill:#676c72;}</style></defs><title>05 LBWNT SQ Vert</title><path class="cls-1" d="M79.22,83.55h14.7V194.68h55v14.17H79.22Z"/><path class="cls-1" d="M176.52,205.53a42.55,42.55,0,0,1-15.84-16.89A51.12,51.12,0,0,1,155,164.4a53.19,53.19,0,0,1,5.34-23.8,43.13,43.13,0,0,1,15.14-17.32,40.27,40.27,0,0,1,22.75-6.48q13.13,0,22.75,5.86a39,39,0,0,1,14.78,16.19,52.14,52.14,0,0,1,5.17,23.62,17.52,17.52,0,0,1-.53,4.56H169.87q.52,10.14,4.9,17.15a28.61,28.61,0,0,0,11.11,10.5,30.21,30.21,0,0,0,14.09,3.5q17.15,0,26.42-16.11L239,188.2a44.89,44.89,0,0,1-15.66,17.15q-9.89,6.3-23.89,6.3A43.48,43.48,0,0,1,176.52,205.53Zm48.65-50.75A29.25,29.25,0,0,0,222,143.57a24,24,0,0,0-8.84-9.45q-6-3.84-15.14-3.84A25.15,25.15,0,0,0,180.28,137q-7.26,6.75-9.54,17.77Z"/><path class="cls-1" d="M276.35,209.87a23,23,0,0,1-7.79-4.81,22.09,22.09,0,0,1-5.25-7.84,30,30,0,0,1-1.75-10.87V133.07H246V119.6h15.57V94.4h14.88v25.2h21.7v13.47h-21.7V182.8q0,7.51,2.8,11.09c2.21,2.63,5.42,3.93,9.62,3.93a18.07,18.07,0,0,0,9.8-3v14.53a22.75,22.75,0,0,1-5.33,1.74,37.49,37.49,0,0,1-6.92.53A28,28,0,0,1,276.35,209.87Z"/><path class="cls-1" d="M310.21,115.05l8.58-13.12a10,10,0,0,1-8.05-10A10.82,10.82,0,0,1,314,84a10.59,10.59,0,0,1,7.78-3.24A11,11,0,0,1,333,92a13.69,13.69,0,0,1-1.13,5.43,43.43,43.43,0,0,1-3.59,6.3l-11,15.92Z"/><path class="cls-1" d="M347.49,204.91a36.71,36.71,0,0,1-13.65-17.23l13.3-6A26.74,26.74,0,0,0,357,194.15a25.46,25.46,0,0,0,14.44,4.38,28.35,28.35,0,0,0,14.35-3.42q5.94-3.41,5.95-9.71a10.6,10.6,0,0,0-4.73-9q-4.73-3.42-14.87-5.86l-10.85-2.81a38.94,38.94,0,0,1-17.5-8.92A22.51,22.51,0,0,1,341.63,129,29.62,29.62,0,0,1,354,120a43.44,43.44,0,0,1,16.62-3.15,42.42,42.42,0,0,1,20.91,5.08,28.66,28.66,0,0,1,13,14.17l-13,5.95q-6-11.9-21.17-11.9a24,24,0,0,0-12.87,3.41q-5.51,3.42-5.51,8.67a9.69,9.69,0,0,0,3.85,8c2.57,2,6.41,3.7,11.55,5l12.95,3.33q13.13,3.33,19.78,9.89a21.64,21.64,0,0,1,6.65,16,23.18,23.18,0,0,1-4.73,14.44,30,30,0,0,1-12.77,9.53,46.3,46.3,0,0,1-17.85,3.33Q357.11,211.65,347.49,204.91Z"/><path class="cls-1" d="M79.22,249.55h45A37.53,37.53,0,0,1,142,253.93,34.29,34.29,0,0,1,155.17,266a31.63,31.63,0,0,1,4.9,17.32,27.67,27.67,0,0,1-4.64,15.93,30.22,30.22,0,0,1-12.51,10.5v.7a31.69,31.69,0,0,1,15.4,10.85,28.68,28.68,0,0,1,6,18,33.43,33.43,0,0,1-5.17,18.29,35.72,35.72,0,0,1-13.82,12.69,39.43,39.43,0,0,1-18.64,4.55H79.22Zm45,54.25a20.64,20.64,0,0,0,11.11-3,21.08,21.08,0,0,0,7.44-7.61,19.12,19.12,0,0,0,2.63-9.53,19.37,19.37,0,0,0-2.54-9.37,20.91,20.91,0,0,0-7.18-7.61,19.52,19.52,0,0,0-10.76-3h-31V303.8Zm3.33,56.88a20.74,20.74,0,0,0,11.28-3.15,21.9,21.9,0,0,0,7.7-8.14,21.2,21.2,0,0,0,2.72-10.24,20.76,20.76,0,0,0-2.8-10.24,21.79,21.79,0,0,0-7.88-8.05,22.24,22.24,0,0,0-11.72-3.06H93.92v42.88Z"/><path class="cls-1" d="M186.58,368.2q-8.49-9.45-8.49-26.42V285.6H193v53.9q0,12.78,5.77,18.72t15.57,6a23,23,0,0,0,13.39-4,27.3,27.3,0,0,0,9.1-10.5A30.07,30.07,0,0,0,240,336V285.6h14.87v89.25H240.74v-13H240q-3.67,6.66-11.73,11.2a34.32,34.32,0,0,1-17.15,4.55Q195.07,377.65,186.58,368.2Z"/><path class="cls-1" d="M274.69,266.18a10.29,10.29,0,0,1-3.15-7.53,10,10,0,0,1,3.15-7.44,10.78,10.78,0,0,1,15.05,0,10,10,0,0,1,3.15,7.44,10.44,10.44,0,0,1-3.06,7.53,10.69,10.69,0,0,1-15.14,0Zm.17,19.42h14.7v89.25h-14.7Z"/><path class="cls-1" d="M309.51,249.55h14.88v125.3H309.51Z"/><path class="cls-1" d="M358.25,371.53a43,43,0,0,1-15.31-16.89,55.83,55.83,0,0,1,0-48.74,42.78,42.78,0,0,1,15.31-17,39.65,39.65,0,0,1,21.61-6.13,36.17,36.17,0,0,1,18.38,4.64,33.8,33.8,0,0,1,12.25,11.46h.7l-.7-12.43V249.55h14.87v125.3H411.19V361.72h-.7A34.36,34.36,0,0,1,398.24,373a36.17,36.17,0,0,1-18.38,4.64A39.72,39.72,0,0,1,358.25,371.53Zm38-11.56a30.65,30.65,0,0,0,10.85-11.9,40.8,40.8,0,0,0,0-35.69,30.82,30.82,0,0,0-10.85-11.91,27.43,27.43,0,0,0-29.14,0,30.39,30.39,0,0,0-10.94,12,40.45,40.45,0,0,0,0,35.53,30.23,30.23,0,0,0,10.94,12,27.32,27.32,0,0,0,29.14,0Z"/><path class="cls-1" d="M68.19,415.55H84.64l22.75,92.05,2.1,8.58h.7l2.63-8.58,28-92.05h15.4L183,507.6l2.63,8.58h.7L211,415.55h16.45l-33.77,125.3h-15.4l-26.6-90.65-2.8-9.8h-.7l-3,9.8-27.65,90.65h-15.4Z"/><path class="cls-1" d="M237.94,415.55h14.87v36.92l-.7,12.25h.7a29.19,29.19,0,0,1,11.64-11.37,34.52,34.52,0,0,1,17.41-4.55q16.27,0,24.85,9.54t8.58,25.28v57.23H300.41v-55q0-12.07-6.12-17.85t-15.93-5.77a21.68,21.68,0,0,0-12.86,4.19,31,31,0,0,0-12.69,24.68v49.7H237.94Z"/><path class="cls-1" d="M343.29,539.8a28.83,28.83,0,0,1-11.9-10.59,28.32,28.32,0,0,1-4.2-15.31q0-14.17,10.68-22.14t26.95-8a60.71,60.71,0,0,1,15,1.75,39,39,0,0,1,10.59,4v-5.42q0-10-7-16t-17.68-6a29.75,29.75,0,0,0-13.82,3.24,25.28,25.28,0,0,0-10,9l-11.2-8.4a35.77,35.77,0,0,1,14.44-12.6,45.33,45.33,0,0,1,20.39-4.55q18.19,0,28.61,9.54t10.41,26v56.53H390.37V528.07h-.7a31.92,31.92,0,0,1-11.55,11,33.47,33.47,0,0,1-17.33,4.55A38.56,38.56,0,0,1,343.29,539.8Zm32.9-13.12a29.21,29.21,0,0,0,10.33-10.33,27.27,27.27,0,0,0,3.85-14.17A36.82,36.82,0,0,0,380,497.62a47.16,47.16,0,0,0-13-1.74q-12.25,0-18.46,5.07a16.18,16.18,0,0,0-6.21,13.12A14.58,14.58,0,0,0,348,526q5.6,4.56,14.17,4.56A27,27,0,0,0,376.19,526.68Z"/><path class="cls-1" d="M444.18,541.87a22.89,22.89,0,0,1-7.79-4.81,21.83,21.83,0,0,1-5.25-7.84,29.76,29.76,0,0,1-1.75-10.87V465.07H413.81V451.6h15.58V426.4h14.87v25.2H466v13.47h-21.7V514.8q0,7.51,2.8,11.09c2.22,2.63,5.43,3.93,9.63,3.93a18.09,18.09,0,0,0,9.8-3v14.53a22.67,22.67,0,0,1-5.34,1.74,37.37,37.37,0,0,1-6.91.53A28,28,0,0,1,444.18,541.87Z"/><path class="cls-1" d="M478,447.05l8.57-13.12a10,10,0,0,1-8.05-10,10.82,10.82,0,0,1,3.24-8,10.61,10.61,0,0,1,7.79-3.24,11.06,11.06,0,0,1,11.2,11.2,13.53,13.53,0,0,1-1.14,5.43,42.51,42.51,0,0,1-3.59,6.3L485,451.6Z"/><path class="cls-1" d="M515.32,536.91a36.71,36.71,0,0,1-13.65-17.23l13.3-6a26.72,26.72,0,0,0,9.88,12.43,25.48,25.48,0,0,0,14.44,4.38,28.35,28.35,0,0,0,14.35-3.42q6-3.4,6-9.71a10.59,10.59,0,0,0-4.72-9Q550.15,505,540,502.53l-10.85-2.81a38.94,38.94,0,0,1-17.5-8.92q-6.83-6.3-6.82-16.27A21.25,21.25,0,0,1,509.45,461a29.68,29.68,0,0,1,12.34-9,43.5,43.5,0,0,1,16.63-3.15,42.48,42.48,0,0,1,20.91,5.08,28.7,28.7,0,0,1,13,14.17l-13,5.95q-6-11.89-21.18-11.9a24,24,0,0,0-12.86,3.41q-5.52,3.42-5.51,8.67a9.69,9.69,0,0,0,3.85,8q3.84,3.06,11.55,5l13,3.33q13.13,3.33,19.77,9.89a21.64,21.64,0,0,1,6.65,16,23.17,23.17,0,0,1-4.72,14.44,30,30,0,0,1-12.78,9.53,46.3,46.3,0,0,1-17.85,3.33Q524.94,543.65,515.32,536.91Z"/><path class="cls-1" d="M79.22,581.55h18.2l62.82,99.75h.7l-.7-24.15v-75.6h14.88v125.3h-15.4L93.92,602.38h-.7l.7,24.15v80.32H79.22Z"/><path class="cls-1" d="M213.44,703.53a42.55,42.55,0,0,1-15.84-16.89,51.12,51.12,0,0,1-5.68-24.24,53.18,53.18,0,0,1,5.33-23.8,43.2,43.2,0,0,1,15.14-17.32,40.29,40.29,0,0,1,22.75-6.48q13.13,0,22.75,5.86a38.92,38.92,0,0,1,14.79,16.19,52.14,52.14,0,0,1,5.16,23.62,17.55,17.55,0,0,1-.52,4.56H206.79q.53,10.14,4.9,17.15a28.68,28.68,0,0,0,11.11,10.5,30.21,30.21,0,0,0,14.09,3.5q17.15,0,26.43-16.11l12.6,6.13a44.92,44.92,0,0,1-15.67,17.15q-9.88,6.3-23.88,6.3A43.54,43.54,0,0,1,213.44,703.53Zm48.65-50.75a28.9,28.9,0,0,0-3.15-11.21,24,24,0,0,0-8.84-9.45q-6-3.84-15.13-3.84A25.17,25.17,0,0,0,217.2,635q-7.26,6.75-9.53,17.77Z"/><path class="cls-1" d="M312.66,661.53l-31-43.93h16.8l23.1,33.08,22.22-33.08h17.33L330,661.53l31.85,45.32H344.51l-23.27-34.3-22.75,34.3H281.16Z"/><path class="cls-1" d="M395.88,707.87a22.89,22.89,0,0,1-7.79-4.81,21.83,21.83,0,0,1-5.25-7.84,29.76,29.76,0,0,1-1.75-10.87V631.07H365.51V617.6h15.58V592.4H396v25.2h21.7v13.47H396V680.8q0,7.51,2.8,11.09c2.22,2.63,5.43,3.93,9.63,3.93a18.09,18.09,0,0,0,9.8-3v14.53a22.67,22.67,0,0,1-5.34,1.74,37.37,37.37,0,0,1-6.91.53A28,28,0,0,1,395.88,707.87Z"/><path class="cls-1" d="M434,703.77a10.08,10.08,0,0,1-3.24-7.59,9.89,9.89,0,0,1,3.24-7.42,11.07,11.07,0,0,1,8-3.08,10.88,10.88,0,0,1,7.79,3.08,9.91,9.91,0,0,1,3.23,7.42,10.11,10.11,0,0,1-3.23,7.59,10.92,10.92,0,0,1-7.79,3.08A11.11,11.11,0,0,1,434,703.77Z"/><path class="cls-1" d="M110.62,755.25h-40v-25.6h107v25.6h-40v117.6h-27Z"/><path class="cls-1" d="M196.22,869a50.38,50.38,0,0,1-19.3-19.4,58.85,58.85,0,0,1,0-55.3,50.17,50.17,0,0,1,19.3-19.5,59.16,59.16,0,0,1,56.2,0,50.23,50.23,0,0,1,19.3,19.5,58.85,58.85,0,0,1,0,55.3,50.45,50.45,0,0,1-19.3,19.4,59.16,59.16,0,0,1-56.2,0Zm42.2-20.7a26.51,26.51,0,0,0,10.2-10.4,32.31,32.31,0,0,0,3.8-16,31.88,31.88,0,0,0-3.8-15.8,26.51,26.51,0,0,0-10.2-10.4,29,29,0,0,0-28,0,27.09,27.09,0,0,0-10.3,10.4,31.19,31.19,0,0,0-3.9,15.8,31.75,31.75,0,0,0,3.9,15.9,26.89,26.89,0,0,0,10.3,10.5,29,29,0,0,0,28,0Z"/><path class="cls-1" d="M309.42,910.55q-12.81-8.7-17.2-20.9l24.6-10a26.3,26.3,0,0,0,24.8,16.4q12.39,0,19.7-7.6t7.3-21.6v-8H367a31.06,31.06,0,0,1-12.6,10.4,42,42,0,0,1-17.8,3.6,45.1,45.1,0,0,1-23.5-6.5,48,48,0,0,1-17.5-18.4q-6.6-11.9-6.6-27.7t6.6-27.7a48,48,0,0,1,17.5-18.4,45.1,45.1,0,0,1,23.5-6.5,42,42,0,0,1,17.8,3.6,31.06,31.06,0,0,1,12.6,10.4h1.6v-10.8h25.2v95q0,16.39-6.4,28.4a44.7,44.7,0,0,1-18.2,18.5q-11.81,6.5-27.6,6.5Q322.21,919.25,309.42,910.55Zm51.4-69.2q7.8-7.7,7.8-21.1,0-13.8-7.7-21.3a27.56,27.56,0,0,0-37.9.1q-7.8,7.61-7.8,21.2t7.8,21.2a26.19,26.19,0,0,0,19,7.6A25.81,25.81,0,0,0,360.82,841.35Z"/><path class="cls-1" d="M434.82,869.05a50.1,50.1,0,0,1-19.1-19.3,58.22,58.22,0,0,1-.1-54.8,52.34,52.34,0,0,1,18.8-19.9,50.06,50.06,0,0,1,26.8-7.4q15.79,0,27.2,6.8a44.34,44.34,0,0,1,17.3,18.6,57.81,57.81,0,0,1,5.9,26.2,62.18,62.18,0,0,1-.6,8.8h-76.6q2,12.19,9.7,18.5a28.28,28.28,0,0,0,18.5,6.3,29.59,29.59,0,0,0,15.5-3.9,28.89,28.89,0,0,0,10.3-10.5l21.2,10.4q-15.6,27.2-47.4,27.2A54.1,54.1,0,0,1,434.82,869.05Zm51.6-59.6a20.34,20.34,0,0,0-3.5-9.5,24.57,24.57,0,0,0-8.6-7.8,25.82,25.82,0,0,0-12.9-3.1,24.53,24.53,0,0,0-16.1,5.5,30.82,30.82,0,0,0-9.7,14.9Z"/><path class="cls-1" d="M555.22,873.71a27.59,27.59,0,0,1-10.4-6.43q-9.41-9.18-9.4-26.1V793.25h-17.8v-22.4h17.8v-28.8h26.2v28.8h25v22.4h-25v43.39q0,8,3.4,11.52,2.79,3.29,9.6,3.29a17,17,0,0,0,6.3-1,48.33,48.33,0,0,0,6.5-3.4v25.6a49,49,0,0,1-18.2,3.4A40.44,40.44,0,0,1,555.22,873.71Z"/><path class="cls-1" d="M605.41,729.65h26.2v36.2l-1.6,17.8h1.6a31.92,31.92,0,0,1,12.8-11.6,38.68,38.68,0,0,1,18.2-4.4q18.6,0,28.5,11.1t9.9,30.7v63.4h-26.2v-60.2q0-9.79-5.3-15.2t-14.1-5.4a20.94,20.94,0,0,0-17.1,8.4q-6.7,8.4-6.7,20.6v51.8h-26.2Z"/><path class="cls-1" d="M742.21,869.05a50.17,50.17,0,0,1-19.1-19.3A58.22,58.22,0,0,1,723,795a52.34,52.34,0,0,1,18.8-19.9,50.06,50.06,0,0,1,26.8-7.4q15.79,0,27.2,6.8a44.28,44.28,0,0,1,17.3,18.6,57.81,57.81,0,0,1,5.9,26.2,62.18,62.18,0,0,1-.6,8.8h-76.6q2,12.19,9.7,18.5a28.28,28.28,0,0,0,18.5,6.3,29.56,29.56,0,0,0,15.5-3.9,28.81,28.81,0,0,0,10.3-10.5l21.2,10.4q-15.6,27.2-47.4,27.2A54.13,54.13,0,0,1,742.21,869.05Zm51.6-59.6a20.23,20.23,0,0,0-3.5-9.5,24.48,24.48,0,0,0-8.6-7.8,25.82,25.82,0,0,0-12.9-3.1,24.54,24.54,0,0,0-16.1,5.5,30.82,30.82,0,0,0-9.7,14.9Z"/><path class="cls-1" d="M835.21,770.85h24.6v13.6h1.6a30.82,30.82,0,0,1,11.8-12,33.56,33.56,0,0,1,17.6-4.8,33.2,33.2,0,0,1,12.8,2.4v26a86.18,86.18,0,0,0-9.1-2.9,33.36,33.36,0,0,0-7.9-.9q-11.6,0-18.4,8.42t-6.8,21.26v50.92h-26.2Z"/><path class="cls-1" d="M902.11,867.93a15.91,15.91,0,0,1-5.1-11.88,15.59,15.59,0,0,1,5.1-11.77,18.08,18.08,0,0,1,24.6,0,15.59,15.59,0,0,1,5.1,11.77,15.91,15.91,0,0,1-5.1,11.88,17.84,17.84,0,0,1-24.6,0Z"/></svg>