<svg id="Layer_1" data-name="Layer 1" xmlns="http://www.w3.org/2000/svg" viewBox="0 0 1863.9 500"><defs><style>.cls-1{fill:#ea4335;}.cls-2{fill:#4285f4;}.cls-3{fill:#fbbc04;}.cls-4{fill:#0f9d58;}.cls-5{font-size:308.17px;fill:#676c72;font-family:GoogleSans-Regular, Google Sans;letter-spacing:-0.02em;}.cls-6{fill:none;}</style></defs><title>06 GDE</title><path class="cls-1" d="M398.9,250.59,500.46,192a50,50,0,0,0-50-86.56L275,206.72Z"/><path class="cls-2" d="M475.43,401.3a50,50,0,0,0,25-93.26L325,206.72a50,50,0,1,0-50,86.56L450.49,394.6A49.77,49.77,0,0,0,475.43,401.3Z"/><path class="cls-3" d="M650,401.3a49.77,49.77,0,0,0,24.94-6.7l175.5-101.32L728.11,248.5,625,308a50,50,0,0,0,25,93.26Z"/><path class="cls-4" d="M825.4,300a50,50,0,0,0,25-93.26L674.94,105.4A50,50,0,0,0,625,192L800.46,293.28A49.8,49.8,0,0,0,825.4,300Z"/><text class="cls-5" transform="translate(1003.01 343.22)">GDE</text><rect class="cls-6" x="1371.5" y="125" width="250" height="250"/><rect class="cls-6" x="1621.5" y="123.5" width="250" height="250"/></svg>