<svg id="Layer_1" data-name="Layer 1" xmlns="http://www.w3.org/2000/svg" viewBox="0 0 3879.87 500"><defs><style>.cls-1{fill:#ea4335;}.cls-2{fill:#4285f4;}.cls-3{fill:#fbbc04;}.cls-4{fill:#0f9d58;}.cls-5{font-size:308.17px;fill:#676c72;font-family:GoogleSans-Regular, Google Sans;letter-spacing:-0.02em;}.cls-6{letter-spacing:-0.02em;}.cls-7{letter-spacing:-0.02em;}.cls-8{letter-spacing:-0.04em;}.cls-9{letter-spacing:-0.05em;}.cls-10{letter-spacing:-0.03em;}.cls-11{letter-spacing:-0.02em;}.cls-12{letter-spacing:-0.05em;}.cls-13{letter-spacing:-0.04em;}.cls-14{fill:none;}</style></defs><title>07 Google for Startups Logo</title><path class="cls-1" d="M398.9,271.05l101.56-58.63a50,50,0,0,0-50-86.56L275,227.18Z"/><path class="cls-2" d="M475.43,421.76a50,50,0,0,0,25-93.25L325,227.18a50,50,0,1,0-50,86.56L450.49,415.06A49.67,49.67,0,0,0,475.43,421.76Z"/><path class="cls-3" d="M650,421.76a49.67,49.67,0,0,0,24.94-6.7l175.5-101.32L728.11,269,625,328.51a50,50,0,0,0,25,93.25Z"/><path class="cls-4" d="M825.4,320.44a50,50,0,0,0,25-93.26L674.94,125.86a50,50,0,0,0-50,86.56L800.46,313.74A49.8,49.8,0,0,0,825.4,320.44Z"/><text class="cls-5" transform="translate(1003.01 363.68)">G<tspan class="cls-6" x="242.84" y="0">oog</tspan><tspan class="cls-7" x="775.67" y="0">l</tspan><tspan class="cls-6" x="832.99" y="0">e</tspan><tspan class="cls-8" x="1000.32" y="0"> </tspan><tspan class="cls-9" x="1059.5" y="0">f</tspan><tspan class="cls-10" x="1160.58" y="0">o</tspan><tspan class="cls-11" x="1335" y="0">r</tspan><tspan class="cls-12" x="1444.41" y="0"> </tspan><tspan class="cls-13" x="1500.49" y="0">S</tspan><tspan class="cls-10" x="1659.51" y="0">t</tspan><tspan class="cls-11" x="1763.06" y="0">artu</tspan><tspan x="2310.67" y="0">p</tspan><tspan class="cls-6" x="2487.26" y="0">s</tspan></text><rect class="cls-14" x="3379.87" y="146.05" width="250" height="250"/><rect class="cls-14" x="3629.87" y="146.05" width="250" height="250"/></svg>