<svg id="Layer_1" data-name="Layer 1" xmlns="http://www.w3.org/2000/svg" viewBox="0 0 1000 1000"><defs><style>.cls-1{fill:#676c72;}</style></defs><title>07 Google for Startups Logo_1</title><path class="cls-1" d="M78.43,166.55h14.7V277.68h55v14.17H78.43Z"/><path class="cls-1" d="M175.73,288.53a42.55,42.55,0,0,1-15.84-16.89,51.12,51.12,0,0,1-5.69-24.24,53.19,53.19,0,0,1,5.34-23.8,43.13,43.13,0,0,1,15.14-17.32,40.27,40.27,0,0,1,22.75-6.48q13.13,0,22.75,5.86A39.05,39.05,0,0,1,235,221.85a52.14,52.14,0,0,1,5.16,23.62,17.52,17.52,0,0,1-.53,4.56H169.08q.53,10.14,4.9,17.15a28.61,28.61,0,0,0,11.11,10.5,30.21,30.21,0,0,0,14.09,3.5q17.15,0,26.42-16.11l12.6,6.13a44.89,44.89,0,0,1-15.66,17.15q-9.89,6.3-23.89,6.3A43.51,43.51,0,0,1,175.73,288.53Zm48.65-50.75a29.25,29.25,0,0,0-3.15-11.21,24,24,0,0,0-8.84-9.45q-6-3.84-15.14-3.84A25.15,25.15,0,0,0,179.49,220q-7.26,6.75-9.54,17.77Z"/><path class="cls-1" d="M275.56,292.87a22.94,22.94,0,0,1-7.78-4.81,21.83,21.83,0,0,1-5.25-7.84,29.76,29.76,0,0,1-1.75-10.87V216.07H245.2V202.6h15.58V177.4h14.87v25.2h21.7v13.47h-21.7V265.8q0,7.51,2.8,11.09c2.22,2.63,5.43,3.93,9.63,3.93a18.09,18.09,0,0,0,9.8-3v14.53a22.67,22.67,0,0,1-5.34,1.74,37.37,37.37,0,0,1-6.91.53A28,28,0,0,1,275.56,292.87Z"/><path class="cls-1" d="M309.43,198.05,318,184.93A10,10,0,0,1,310,175a10.82,10.82,0,0,1,3.24-8,10.61,10.61,0,0,1,7.79-3.24,11.06,11.06,0,0,1,11.2,11.2,13.53,13.53,0,0,1-1.14,5.43,43.43,43.43,0,0,1-3.59,6.3l-11,15.92Z"/><path class="cls-1" d="M346.7,287.91a36.83,36.83,0,0,1-13.65-17.23l13.3-6a26.8,26.8,0,0,0,9.89,12.43,25.48,25.48,0,0,0,14.44,4.38A28.35,28.35,0,0,0,385,278.11q5.94-3.41,6-9.71a10.6,10.6,0,0,0-4.73-9q-4.72-3.42-14.87-5.86l-10.85-2.81A38.94,38.94,0,0,1,343,241.8,22.51,22.51,0,0,1,340.84,212a29.62,29.62,0,0,1,12.34-9,43.44,43.44,0,0,1,16.62-3.15,42.49,42.49,0,0,1,20.92,5.08,28.64,28.64,0,0,1,13,14.17L390.8,225q-5.94-11.9-21.17-11.9a24,24,0,0,0-12.86,3.41q-5.52,3.42-5.52,8.67a9.72,9.72,0,0,0,3.85,8q3.86,3.06,11.55,5l13,3.33q13.13,3.33,19.78,9.89a21.64,21.64,0,0,1,6.65,16,23.18,23.18,0,0,1-4.73,14.44,30,30,0,0,1-12.77,9.53,46.3,46.3,0,0,1-17.85,3.33Q356.33,294.65,346.7,287.91Z"/><path class="cls-1" d="M104.16,346.72H69V332.55H154v14.17H119V457.85H104.16Z"/><path class="cls-1" d="M155.78,368.6H170V383h.7A24.39,24.39,0,0,1,180.8,370.7a28.5,28.5,0,0,1,15.75-4.9,26,26,0,0,1,10.5,1.92v15.93a27.85,27.85,0,0,0-12.6-2.8,20.8,20.8,0,0,0-11.9,3.68,26.6,26.6,0,0,0-8.66,9.91,28.66,28.66,0,0,0-3.24,13.42v50H155.78Z"/><path class="cls-1" d="M225.43,456.8a28.77,28.77,0,0,1-11.9-10.59,28.32,28.32,0,0,1-4.2-15.31q0-14.17,10.67-22.14t27-8a60.71,60.71,0,0,1,15,1.75,39.07,39.07,0,0,1,10.58,4v-5.42q0-10-7-16t-17.67-6A29.82,29.82,0,0,0,234,382.34a25.25,25.25,0,0,0-10,9l-11.2-8.4a35.77,35.77,0,0,1,14.44-12.6,45.32,45.32,0,0,1,20.38-4.55q18.21,0,28.62,9.54t10.41,26v56.53H272.5V445.07h-.7a31.76,31.76,0,0,1-11.55,11,33.43,33.43,0,0,1-17.32,4.55A38.53,38.53,0,0,1,225.43,456.8Zm32.9-13.12a29.18,29.18,0,0,0,10.32-10.33,27.17,27.17,0,0,0,3.85-14.17,36.62,36.62,0,0,0-10.32-4.56,47.21,47.21,0,0,0-13-1.74q-12.25,0-18.46,5.07a16.16,16.16,0,0,0-6.22,13.12,14.6,14.6,0,0,0,5.6,11.9q5.61,4.56,14.18,4.56A27,27,0,0,0,258.33,443.68Z"/><path class="cls-1" d="M303.83,368.6H318v13.12h.7q3.68-6.64,11.73-11.28a33.8,33.8,0,0,1,17.15-4.64q16.1,0,24.59,9.36t8.48,25.46v57.23H365.78v-55q0-12.42-5.95-18t-16.28-5.6a21.74,21.74,0,0,0-12.86,4,27,27,0,0,0-8.84,10.59,31.33,31.33,0,0,0-3.15,13.73v50.23H303.83Z"/><path class="cls-1" d="M404.8,453.91a36.83,36.83,0,0,1-13.65-17.23l13.3-6a26.8,26.8,0,0,0,9.89,12.43,25.48,25.48,0,0,0,14.44,4.38,28.35,28.35,0,0,0,14.35-3.42q5.94-3.41,5.95-9.71a10.6,10.6,0,0,0-4.73-9q-4.73-3.42-14.87-5.86l-10.85-2.81a38.94,38.94,0,0,1-17.5-8.92A22.51,22.51,0,0,1,398.94,378a29.62,29.62,0,0,1,12.34-9,43.44,43.44,0,0,1,16.62-3.15,42.49,42.49,0,0,1,20.92,5.08,28.64,28.64,0,0,1,13,14.17l-13,5.95q-5.94-11.89-21.17-11.9a24,24,0,0,0-12.86,3.41q-5.52,3.42-5.52,8.67a9.72,9.72,0,0,0,3.85,8q3.85,3.06,11.55,5l12.95,3.33q13.13,3.33,19.78,9.89a21.64,21.64,0,0,1,6.65,16,23.18,23.18,0,0,1-4.73,14.44,30,30,0,0,1-12.77,9.53,46.3,46.3,0,0,1-17.85,3.33Q414.42,460.65,404.8,453.91Z"/><path class="cls-1" d="M487.23,382.07H470.78V368.6h16.45V359a27.56,27.56,0,0,1,3.85-14.69,26.14,26.14,0,0,1,10.32-9.72,30.37,30.37,0,0,1,14.35-3.41,37.36,37.36,0,0,1,13.13,2.1v14.53c-2.1-.82-4.09-1.49-6-2a25,25,0,0,0-6.65-.79,13.8,13.8,0,0,0-10,4.12q-4.2,4.11-4.2,11.46v8.05H525v13.47H502.1v75.78H487.23Z"/><path class="cls-1" d="M551.8,454.35a44,44,0,0,1-16.36-17.15,52,52,0,0,1,0-47.95A44.08,44.08,0,0,1,551.8,372.1a47.45,47.45,0,0,1,47.25,0,44.18,44.18,0,0,1,16.37,17.15,52,52,0,0,1,0,47.95,44.11,44.11,0,0,1-16.37,17.15,47.45,47.45,0,0,1-47.25,0Zm38.94-11.29a30.53,30.53,0,0,0,11.38-11.81,40.1,40.1,0,0,0,0-36.05,30.53,30.53,0,0,0-11.38-11.81,30,30,0,0,0-15.31-4.11,30.41,30.41,0,0,0-26.87,15.92,40.1,40.1,0,0,0,0,36.05,30.59,30.59,0,0,0,42.18,11.81Z"/><path class="cls-1" d="M633.35,368.6h14.18V383h.7a24.34,24.34,0,0,1,10.15-12.25,28.45,28.45,0,0,1,15.75-4.9,26,26,0,0,1,10.5,1.92v15.93a27.91,27.91,0,0,0-12.6-2.8,20.76,20.76,0,0,0-11.9,3.68,26.54,26.54,0,0,0-8.67,9.91,28.65,28.65,0,0,0-3.23,13.42v50H633.35Z"/><path class="cls-1" d="M695.48,368.6h14.17v13.12h.7a31,31,0,0,1,11.55-11.37,31.53,31.53,0,0,1,16.28-4.55,30.58,30.58,0,0,1,17.06,4.73,26.48,26.48,0,0,1,10.41,12.59,36.45,36.45,0,0,1,12.52-12.59,34.17,34.17,0,0,1,18.11-4.73q15.39,0,23.18,9.36t7.79,25.46v57.23h-14.7v-55q0-12.42-5.07-18t-15.05-5.6a20.43,20.43,0,0,0-12.08,3.84,26,26,0,0,0-8.49,10.33,32.38,32.38,0,0,0-3.06,14v50.4H753.93V403.07q0-12.58-5.08-18.19T734,379.28a20.11,20.11,0,0,0-12.08,3.93,26.48,26.48,0,0,0-8.48,10.5,32.83,32.83,0,0,0-3.07,14.09v50.05H695.48Z"/><path class="cls-1" d="M78.43,498.55h14.7V609.68h55v14.17H78.43Z"/><path class="cls-1" d="M175.73,620.53a42.55,42.55,0,0,1-15.84-16.89,51.12,51.12,0,0,1-5.69-24.24,53.19,53.19,0,0,1,5.34-23.8,43.13,43.13,0,0,1,15.14-17.32,40.27,40.27,0,0,1,22.75-6.48q13.13,0,22.75,5.86A39.05,39.05,0,0,1,235,553.85a52.14,52.14,0,0,1,5.16,23.62,17.52,17.52,0,0,1-.53,4.56H169.08q.53,10.14,4.9,17.15a28.61,28.61,0,0,0,11.11,10.5,30.21,30.21,0,0,0,14.09,3.5q17.15,0,26.42-16.11l12.6,6.13a44.89,44.89,0,0,1-15.66,17.15q-9.89,6.3-23.89,6.3A43.51,43.51,0,0,1,175.73,620.53Zm48.65-50.75a29.25,29.25,0,0,0-3.15-11.21,24,24,0,0,0-8.84-9.45q-6-3.84-15.14-3.84A25.15,25.15,0,0,0,179.49,552q-7.26,6.75-9.54,17.77Z"/><path class="cls-1" d="M268,657.1q-10.25-7.35-13.74-17.67l13.48-5.78a26.64,26.64,0,0,0,9.88,12.51A27.91,27.91,0,0,0,294,651q13.82,0,21.43-7.71t7.62-22v-10h-.7A32.69,32.69,0,0,1,310,622.36a37.6,37.6,0,0,1-18.12,4.29,38.72,38.72,0,0,1-21.08-6,42.47,42.47,0,0,1-15.14-16.81,56.61,56.61,0,0,1,0-49.1,42.33,42.33,0,0,1,15.14-16.9,38.72,38.72,0,0,1,21.08-6A37.6,37.6,0,0,1,310,536.09a32.23,32.23,0,0,1,12.34,11.29h.7V534.6h14.17v85.75q0,21.52-11.9,32.81T294,664.45Q278.28,664.45,268,657.1Zm40.6-48a29.3,29.3,0,0,0,10.5-11.73,39.21,39.21,0,0,0,3.94-18.14q0-10.65-3.94-18.3a28.51,28.51,0,0,0-10.5-11.64,28.6,28.6,0,0,0-29.31.08,28.89,28.89,0,0,0-10.59,11.74,39,39,0,0,0-3.94,18.12,39.57,39.57,0,0,0,3.94,18.22A27.55,27.55,0,0,0,294,613.18,27.15,27.15,0,0,0,308.64,609.09Z"/><path class="cls-1" d="M366,622.8a28.77,28.77,0,0,1-11.9-10.59,28.32,28.32,0,0,1-4.2-15.31q0-14.17,10.67-22.14t27-8a60.74,60.74,0,0,1,15,1.75,39.07,39.07,0,0,1,10.58,4v-5.42q0-10-7-16t-17.67-6a29.79,29.79,0,0,0-13.83,3.24,25.25,25.25,0,0,0-10,9l-11.2-8.4a35.77,35.77,0,0,1,14.44-12.6,45.32,45.32,0,0,1,20.38-4.55q18.21,0,28.62,9.54t10.41,26v56.53H413V611.07h-.7a31.76,31.76,0,0,1-11.55,11,33.43,33.43,0,0,1-17.32,4.55A38.53,38.53,0,0,1,366,622.8Zm32.9-13.12a29.18,29.18,0,0,0,10.32-10.33A27.17,27.17,0,0,0,413,585.18a36.75,36.75,0,0,0-10.32-4.56,47.21,47.21,0,0,0-12.95-1.74q-12.25,0-18.46,5.07a16.16,16.16,0,0,0-6.22,13.12,14.6,14.6,0,0,0,5.6,11.9q5.61,4.56,14.18,4.56A27,27,0,0,0,398.85,609.68Z"/><path class="cls-1" d="M460.62,620.44a43.34,43.34,0,0,1-16.1-17,50.42,50.42,0,0,1-5.77-24.24,50.93,50.93,0,0,1,5.77-24.32,42.59,42.59,0,0,1,16.1-17,44.7,44.7,0,0,1,23.28-6.13q14.52,0,24.41,6.74a36.9,36.9,0,0,1,14.09,17.93l-13.48,5.6A26.12,26.12,0,0,0,499,549.56a28.41,28.41,0,0,0-15.84-4.28,27.2,27.2,0,0,0-14.7,4.28,31.15,31.15,0,0,0-10.94,12,40.06,40.06,0,0,0,0,35.35,31.08,31.08,0,0,0,10.94,12,27.12,27.12,0,0,0,14.7,4.29,29.47,29.47,0,0,0,16.27-4.38,26.18,26.18,0,0,0,10.15-12.42l13.3,5.59a39.19,39.19,0,0,1-14.61,17.85q-10.06,6.84-24.41,6.83A44.29,44.29,0,0,1,460.62,620.44Z"/><path class="cls-1" d="M562.82,618.25,525.9,534.6H542l28,66.33h.35L597.3,534.6h16.1l-55.13,127h-15.4Z"/><path class="cls-1" d="M611.91,620.77a10.08,10.08,0,0,1-3.24-7.59,9.89,9.89,0,0,1,3.24-7.42,11.08,11.08,0,0,1,8-3.08,10.88,10.88,0,0,1,7.79,3.08,9.89,9.89,0,0,1,3.24,7.42,10.08,10.08,0,0,1-3.24,7.59,10.92,10.92,0,0,1-7.79,3.08A11.12,11.12,0,0,1,611.91,620.77Z"/><path class="cls-1" d="M109.83,672.25h-40v-25.6h107v25.6h-40v117.6h-27Z"/><path class="cls-1" d="M195.43,786a50.38,50.38,0,0,1-19.3-19.4,58.85,58.85,0,0,1,0-55.3,50.17,50.17,0,0,1,19.3-19.5,59.16,59.16,0,0,1,56.2,0,50.17,50.17,0,0,1,19.3,19.5,58.85,58.85,0,0,1,0,55.3,50.38,50.38,0,0,1-19.3,19.4,59.16,59.16,0,0,1-56.2,0Zm42.2-20.7a26.38,26.38,0,0,0,10.2-10.4,32.31,32.31,0,0,0,3.8-16,31.88,31.88,0,0,0-3.8-15.8,26.38,26.38,0,0,0-10.2-10.4,29,29,0,0,0-28,0,27.09,27.09,0,0,0-10.3,10.4,31.19,31.19,0,0,0-3.9,15.8,31.75,31.75,0,0,0,3.9,15.9,26.89,26.89,0,0,0,10.3,10.5,29,29,0,0,0,28,0Z"/><path class="cls-1" d="M308.63,827.55q-12.79-8.7-17.2-20.9l24.6-10a26.3,26.3,0,0,0,24.8,16.4q12.41,0,19.7-7.6t7.3-21.6v-8h-1.6a31.06,31.06,0,0,1-12.6,10.4,42,42,0,0,1-17.8,3.6,45.13,45.13,0,0,1-23.5-6.5,48,48,0,0,1-17.5-18.4q-6.6-11.9-6.6-27.7t6.6-27.7a48,48,0,0,1,17.5-18.4,45.13,45.13,0,0,1,23.5-6.5,42,42,0,0,1,17.8,3.6,31.06,31.06,0,0,1,12.6,10.4h1.6v-10.8H393v95q0,16.39-6.4,28.4a44.64,44.64,0,0,1-18.2,18.5q-11.81,6.5-27.6,6.5Q321.43,836.25,308.63,827.55Zm51.4-69.2q7.8-7.7,7.8-21.1,0-13.8-7.7-21.3a27.56,27.56,0,0,0-37.9.1q-7.8,7.61-7.8,21.2t7.8,21.2a26.19,26.19,0,0,0,19,7.6A25.81,25.81,0,0,0,360,758.35Z"/><path class="cls-1" d="M434,786.05a50.17,50.17,0,0,1-19.1-19.3,58.22,58.22,0,0,1-.1-54.8,52.34,52.34,0,0,1,18.8-19.9,50.06,50.06,0,0,1,26.8-7.4q15.79,0,27.2,6.8a44.28,44.28,0,0,1,17.3,18.6,57.81,57.81,0,0,1,5.9,26.2,62.18,62.18,0,0,1-.6,8.8h-76.6q2,12.19,9.7,18.5a28.28,28.28,0,0,0,18.5,6.3,29.56,29.56,0,0,0,15.5-3.9,28.81,28.81,0,0,0,10.3-10.5l21.2,10.4q-15.6,27.2-47.4,27.2A54.13,54.13,0,0,1,434,786.05Zm51.6-59.6a20.23,20.23,0,0,0-3.5-9.5,24.48,24.48,0,0,0-8.6-7.8,25.82,25.82,0,0,0-12.9-3.1,24.54,24.54,0,0,0-16.1,5.5,30.82,30.82,0,0,0-9.7,14.9Z"/><path class="cls-1" d="M554.43,790.71a27.59,27.59,0,0,1-10.4-6.43q-9.4-9.18-9.4-26.1V710.25h-17.8v-22.4h17.8v-28.8h26.2v28.8h25v22.4h-25v43.39q0,8,3.4,11.52,2.79,3.29,9.6,3.29a17,17,0,0,0,6.3-1,48.33,48.33,0,0,0,6.5-3.4v25.6a49,49,0,0,1-18.2,3.4A40.44,40.44,0,0,1,554.43,790.71Z"/><path class="cls-1" d="M604.63,646.65h26.2v36.2l-1.6,17.8h1.6a31.86,31.86,0,0,1,12.8-11.6,38.65,38.65,0,0,1,18.2-4.4q18.6,0,28.5,11.1t9.9,30.7v63.4H674v-60.2q0-9.79-5.3-15.2t-14.1-5.4a20.92,20.92,0,0,0-17.1,8.4q-6.71,8.4-6.7,20.6v51.8h-26.2Z"/><path class="cls-1" d="M741.42,786.05a50.17,50.17,0,0,1-19.1-19.3,58.22,58.22,0,0,1-.1-54.8,52.42,52.42,0,0,1,18.8-19.9,50.08,50.08,0,0,1,26.8-7.4q15.81,0,27.2,6.8a44.28,44.28,0,0,1,17.3,18.6,57.68,57.68,0,0,1,5.9,26.2,62.18,62.18,0,0,1-.6,8.8H741q2,12.19,9.7,18.5a28.3,28.3,0,0,0,18.5,6.3,29.56,29.56,0,0,0,15.5-3.9,28.73,28.73,0,0,0,10.3-10.5l21.2,10.4q-15.6,27.2-47.4,27.2A54.15,54.15,0,0,1,741.42,786.05Zm51.6-59.6a20.12,20.12,0,0,0-3.5-9.5,24.4,24.4,0,0,0-8.6-7.8,25.77,25.77,0,0,0-12.9-3.1,24.56,24.56,0,0,0-16.1,5.5,30.89,30.89,0,0,0-9.7,14.9Z"/><path class="cls-1" d="M834.42,687.85H859v13.6h1.6a30.82,30.82,0,0,1,11.8-12,33.56,33.56,0,0,1,17.6-4.8,33.16,33.16,0,0,1,12.8,2.4v26a85.45,85.45,0,0,0-9.1-2.9,33.36,33.36,0,0,0-7.9-.9q-11.6,0-18.4,8.42t-6.8,21.26v50.92h-26.2Z"/><path class="cls-1" d="M901.32,784.93a15.91,15.91,0,0,1-5.1-11.88,15.59,15.59,0,0,1,5.1-11.77,18.08,18.08,0,0,1,24.6,0,15.59,15.59,0,0,1,5.1,11.77,15.91,15.91,0,0,1-5.1,11.88,17.84,17.84,0,0,1-24.6,0Z"/></svg>