<svg id="Layer_1" data-name="Layer 1" xmlns="http://www.w3.org/2000/svg" viewBox="0 0 4545.21 500"><defs><style>.cls-1{font-size:308.17px;fill:#676c72;font-family:GoogleSans-Regular, Google Sans;letter-spacing:-0.03em;}.cls-2{letter-spacing:-0.03em;}.cls-3{letter-spacing:-0.02em;}.cls-4{letter-spacing:-0.02em;}.cls-5{letter-spacing:-0.05em;}.cls-6{letter-spacing:-0.04em;}.cls-7{letter-spacing:-0.02em;}.cls-8{letter-spacing:-0.04em;}.cls-9{letter-spacing:-0.03em;}.cls-10{fill:#ea4335;}.cls-11{fill:#4285f4;}.cls-12{fill:#fbbc04;}.cls-13{fill:#0f9d58;}.cls-14{fill:none;}</style></defs><title>08 Developer Student Clubs Logo</title><text class="cls-1" transform="translate(1003.01 343.22)">D<tspan class="cls-2" x="205.86" y="0">e</tspan><tspan x="370.11" y="0">v</tspan><tspan class="cls-3" x="517.73" y="0">e</tspan><tspan class="cls-4" x="685.06" y="0">lo</tspan><tspan class="cls-3" x="918.35" y="0">per</tspan><tspan class="cls-5" x="1373.21" y="0"> </tspan><tspan class="cls-6" x="1429.3" y="0">S</tspan><tspan class="cls-7" x="1588.31" y="0">t</tspan><tspan class="cls-4" x="1694.94" y="0">ud</tspan><tspan class="cls-3" x="2037.94" y="0">e</tspan><tspan class="cls-6" x="2205.28" y="0">n</tspan><tspan class="cls-3" x="2364.29" y="0">t</tspan><tspan class="cls-8" x="2470.92" y="0"> </tspan><tspan class="cls-9" x="2530.09" y="0">C</tspan><tspan class="cls-3" x="2749.2" y="0">lu</tspan><tspan class="cls-4" x="2974.78" y="0">b</tspan><tspan class="cls-3" x="3152.6" y="0">s</tspan></text><path class="cls-10" d="M398.9,250.59,500.47,192a50,50,0,1,0-50-86.56L275,206.72Z"/><path class="cls-11" d="M475.43,401.3a50,50,0,0,0,25-93.26L325,206.72a50,50,0,0,0-50,86.56L450.49,394.6A49.8,49.8,0,0,0,475.43,401.3Z"/><path class="cls-12" d="M650,401.3A49.83,49.83,0,0,0,675,394.6L850.44,293.28,728.11,248.5,625,308a50,50,0,0,0,25,93.26Z"/><path class="cls-13" d="M825.41,300a50,50,0,0,0,25-93.26L675,105.4A50,50,0,1,0,625,192l175.5,101.32A49.77,49.77,0,0,0,825.41,300Z"/><rect class="cls-14" x="4045.21" y="130.33" width="250" height="250"/><rect class="cls-14" x="4295.21" y="116.8" width="250" height="250"/></svg>