<svg id="Layer_1" data-name="Layer 1" xmlns="http://www.w3.org/2000/svg" viewBox="0 0 1840.38 500"><defs><style>.cls-1{font-size:308.17px;fill:#676c72;font-family:GoogleSans-Regular, Google Sans;letter-spacing:-0.02em;}.cls-2{fill:#ea4335;}.cls-3{fill:#4285f4;}.cls-4{fill:#fbbc04;}.cls-5{fill:#0f9d58;}.cls-6{fill:none;}</style></defs><title>08 DSC Logo</title><text class="cls-1" transform="translate(991.25 343.22)">DSC</text><path class="cls-2" d="M387.14,250.59,488.7,192a50,50,0,0,0-50-86.56L263.23,206.72Z"/><path class="cls-3" d="M463.67,401.3a50,50,0,0,0,25-93.25L313.21,206.72a50,50,0,0,0-50,86.56L438.73,394.6A49.67,49.67,0,0,0,463.67,401.3Z"/><path class="cls-4" d="M638.24,401.3a49.67,49.67,0,0,0,24.94-6.7L838.67,293.28,716.34,248.5,613.21,308.05a50,50,0,0,0,25,93.25Z"/><path class="cls-5" d="M813.64,300a50,50,0,0,0,25-93.26L663.18,105.4a50,50,0,0,0-50,86.56L788.7,293.28A49.77,49.77,0,0,0,813.64,300Z"/><rect class="cls-6" x="1340.64" y="107.97" width="250" height="250"/><rect class="cls-6" x="1590.64" y="107.97" width="250" height="250"/></svg>