<svg id="Layer_1" data-name="Layer 1" xmlns="http://www.w3.org/2000/svg" viewBox="0 0 4800 2234.65"><defs><style>.cls-1{fill:#676c72;}</style></defs><title>Artboard 50</title><path class="cls-1" d="M1325.86,1193.72h-110v-70.4h294.25v70.4h-110v323.4h-74.25Z"/><path class="cls-1" d="M1561.27,1506.39a138.6,138.6,0,0,1-53.08-53.35q-19-33.82-19-76.17,0-41.79,19-75.9a138.17,138.17,0,0,1,53.08-53.63q34.1-19.52,77.55-19.52,42.9,0,77,19.52a138.21,138.21,0,0,1,53.07,53.63q19,34.11,19,75.9,0,42.36-19,76.17a138.65,138.65,0,0,1-53.07,53.35q-34.11,19.52-77,19.53Q1595.36,1525.92,1561.27,1506.39Zm116-56.92a72.63,72.63,0,0,0,28-28.6q10.44-18.69,10.45-44,0-24.75-10.45-43.45a72.7,72.7,0,0,0-28-28.6,79.81,79.81,0,0,0-77,0,74.51,74.51,0,0,0-28.33,28.6q-10.73,18.7-10.72,43.45t10.72,43.72q10.73,19,28.33,28.88a79.81,79.81,0,0,0,77,0Z"/><path class="cls-1" d="M1872.56,1620.79q-35.2-23.93-47.3-57.47l67.65-27.5a72.45,72.45,0,0,0,26.95,33q18.15,12.09,41.25,12.1,34.1,0,54.18-20.9t20.07-59.4v-22H2031a85.31,85.31,0,0,1-34.65,28.6q-21.45,9.9-49,9.9a123.94,123.94,0,0,1-64.62-17.88q-30-17.87-48.13-50.6t-18.15-76.17q0-43.44,18.15-76.18t48.13-50.6a124,124,0,0,1,64.62-17.87q27.5,0,49,9.9a85.39,85.39,0,0,1,34.65,28.6h4.4v-29.7h69.3v261.25q0,45.09-17.6,78.1a122.88,122.88,0,0,1-50,50.87q-32.46,17.87-75.9,17.88Q1907.76,1644.72,1872.56,1620.79Zm141.35-190.3q21.45-21.16,21.45-58,0-38-21.17-58.58t-52-20.62q-30.81,0-52.25,20.9t-21.45,58.3q0,37.41,21.45,58.3t52.25,20.9Q1992.45,1451.67,2013.91,1430.49Z"/><path class="cls-1" d="M2217.42,1506.67a137.81,137.81,0,0,1-52.53-53.08q-19-33.83-19-76.17a153.49,153.49,0,0,1,18.7-74.53,144,144,0,0,1,51.7-54.72q33-20.34,73.7-20.35,43.44,0,74.8,18.7a122,122,0,0,1,47.57,51.15q16.21,32.46,16.23,72a169.51,169.51,0,0,1-1.66,24.2H2216.32q5.49,33.55,26.67,50.87t50.88,17.33q24.75,0,42.62-10.73a79.3,79.3,0,0,0,28.33-28.87l58.3,28.6q-42.9,74.81-130.35,74.8Q2251,1525.92,2217.42,1506.67Zm141.9-163.9q-1.11-13.2-9.63-26.13T2326,1295.19q-15.14-8.52-35.47-8.52-25.86,0-44.28,15.12t-26.67,41Z"/><path class="cls-1" d="M2548.51,1519.47q-17.61-6.43-28.6-17.67-25.86-25.23-25.85-71.79V1298.22h-48.95v-61.6h48.95v-79.2h72.05v79.2h68.75v61.6h-68.75v119.33q0,22.07,9.35,31.67,7.7,9,26.4,9,10.44,0,17.32-2.75a133,133,0,0,0,17.88-9.35v70.4a135,135,0,0,1-50,9.35A111.29,111.29,0,0,1,2548.51,1519.47Z"/><path class="cls-1" d="M2686.55,1123.32h72v99.55l-4.4,49h4.4q12.09-19.8,35.2-31.9a106.31,106.31,0,0,1,50-12.1q51.15,0,78.38,30.52t27.22,84.43v174.35h-72V1351.57q0-26.94-14.57-41.8t-38.78-14.85q-28.61,0-47,23.1t-18.43,56.65v142.45h-72Z"/><path class="cls-1" d="M3062.75,1506.67a137.81,137.81,0,0,1-52.53-53.08q-19-33.83-19-76.17a153.49,153.49,0,0,1,18.7-74.53,144,144,0,0,1,51.7-54.72q33-20.34,73.7-20.35,43.44,0,74.8,18.7a122,122,0,0,1,47.57,51.15q16.22,32.46,16.23,72a171,171,0,0,1-1.65,24.2H3061.65q5.49,33.55,26.67,50.87t50.88,17.33q24.75,0,42.62-10.73a79.3,79.3,0,0,0,28.33-28.87l58.3,28.6q-42.9,74.81-130.35,74.8Q3096.3,1525.92,3062.75,1506.67Zm141.9-163.9q-1.11-13.2-9.63-26.13t-23.65-21.45q-15.13-8.52-35.47-8.52-25.86,0-44.28,15.12t-26.67,41Z"/><path class="cls-1" d="M3318.49,1236.62h67.65V1274h4.4q10.44-19.8,32.45-33a92.3,92.3,0,0,1,48.4-13.2,91.24,91.24,0,0,1,35.2,6.6v71.5a235.46,235.46,0,0,0-25-8,91.78,91.78,0,0,0-21.73-2.47q-31.9,0-50.6,23.16t-18.7,58.44v140h-72.05Z"/><path class="cls-1" d="M3502.46,1503.58q-14-13.53-14-32.65a42.88,42.88,0,0,1,14-32.38q14-13.27,33.83-13.28t33.82,13.28a42.89,42.89,0,0,1,14,32.38q0,19.11-14,32.65a49,49,0,0,1-67.65,0Z"/><path class="cls-1" d="M255.43,674.33h70.68A59.09,59.09,0,0,1,354,681.2a54,54,0,0,1,20.76,19,49.7,49.7,0,0,1,7.7,27.23q0,14.3-7.29,25a47.52,47.52,0,0,1-19.66,16.5V770a49.77,49.77,0,0,1,24.2,17.05,45,45,0,0,1,9.35,28.33A52.55,52.55,0,0,1,381,844.14a56.12,56.12,0,0,1-21.73,19.94A62,62,0,0,1,330,871.23H255.43Zm70.68,85.25a32.5,32.5,0,0,0,17.46-4.67,33.22,33.22,0,0,0,11.69-12,30,30,0,0,0,4.12-15,30.38,30.38,0,0,0-4-14.71,32.89,32.89,0,0,0-11.27-12,30.7,30.7,0,0,0-16.91-4.67H278.53v63ZM331.33,849A32.53,32.53,0,0,0,349.07,844a34.62,34.62,0,0,0,12.1-12.79,33.32,33.32,0,0,0,4.26-16.09A32.54,32.54,0,0,0,361,799a34.16,34.16,0,0,0-12.37-12.65,35.05,35.05,0,0,0-18.43-4.81h-51.7V849Z"/><path class="cls-1" d="M424.14,860.78q-13.33-14.85-13.34-41.52V731h23.38v84.7q0,20.09,9.07,29.43t24.48,9.34a36.23,36.23,0,0,0,21-6.32,42.8,42.8,0,0,0,14.3-16.5,47.22,47.22,0,0,0,5.09-21.45V731h23.38V871.23H509.25V850.88h-1.1q-5.77,10.46-18.42,17.6a53.91,53.91,0,0,1-27,7.15Q437.48,875.63,424.14,860.78Z"/><path class="cls-1" d="M562.6,700.45a16.12,16.12,0,0,1-5-11.82,15.7,15.7,0,0,1,5-11.69,16.94,16.94,0,0,1,23.65,0,15.7,15.7,0,0,1,5,11.69,16.38,16.38,0,0,1-4.81,11.82,16.74,16.74,0,0,1-23.79,0Zm.27,30.53H586V871.23h-23.1Z"/><path class="cls-1" d="M617.32,674.33H640.7v196.9H617.32Z"/><path class="cls-1" d="M693.91,866a67.58,67.58,0,0,1-24.06-26.54q-8.8-16.92-8.8-38.36,0-21.18,8.8-38.23a67.38,67.38,0,0,1,24.06-26.68,62.45,62.45,0,0,1,34-9.62q16.22,0,28.87,7.29t19.25,18h1.1L776,732.36v-58h23.38v196.9H777.1V850.61H776q-6.6,10.46-19.25,17.73t-28.87,7.29A62.45,62.45,0,0,1,693.91,866Zm59.68-18.15a48.42,48.42,0,0,0,17-18.7q6.45-12.1,6.46-28t-6.46-28.05a48.28,48.28,0,0,0-17-18.7,43,43,0,0,0-45.79,0,47.68,47.68,0,0,0-17.19,18.83q-6.47,12.24-6.46,27.92T690.61,829a47.71,47.71,0,0,0,17.19,18.84,43.07,43.07,0,0,0,45.79,0Z"/><path class="cls-1" d="M863.17,674.33H889L924.77,819l3.3,13.47h1.1L933.3,819l44-144.65h24.2L1043.57,819l4.13,13.47h1.1l38.77-158.12h25.85l-53.07,196.9h-24.2l-41.8-142.45-4.4-15.4h-1.1l-4.68,15.4L940.72,871.23h-24.2Z"/><path class="cls-1" d="M1129.92,674.33h23.38v58l-1.11,19.25h1.11q5.76-10.74,18.28-17.88a54.17,54.17,0,0,1,27.36-7.15q25.59,0,39.06,15t13.47,39.74v89.92h-23.38V784.88q0-19-9.62-28t-25-9.07a33.88,33.88,0,0,0-20.21,6.6,48.59,48.59,0,0,0-19.93,38.77v78.1h-23.38Z"/><path class="cls-1" d="M1295.47,869.58a45.27,45.27,0,0,1-18.7-16.64,44.49,44.49,0,0,1-6.6-24.06q0-22.27,16.78-34.79t42.35-12.51a95.82,95.82,0,0,1,23.51,2.75q10.86,2.76,16.64,6.33v-8.53q0-15.68-11-25.16t-27.78-9.49a46.84,46.84,0,0,0-21.72,5.09,39.69,39.69,0,0,0-15.68,14.16l-17.6-13.2a56.24,56.24,0,0,1,22.69-19.8,71.12,71.12,0,0,1,32-7.15q28.59,0,45,15t16.36,40.84v88.82h-22.27V851.16h-1.1q-6.06,10.17-18.15,17.32a52.5,52.5,0,0,1-27.23,7.15A60.71,60.71,0,0,1,1295.47,869.58Zm51.7-20.63a45.77,45.77,0,0,0,16.23-16.22,42.79,42.79,0,0,0,6-22.28,58,58,0,0,0-16.23-7.14,73.5,73.5,0,0,0-20.35-2.75q-19.24,0-29,8a25.4,25.4,0,0,0-9.76,20.63,22.94,22.94,0,0,0,8.8,18.7q8.79,7.14,22.27,7.15A42.24,42.24,0,0,0,1347.17,849Z"/><path class="cls-1" d="M1454,872.83a35.84,35.84,0,0,1-12.24-7.56,34.37,34.37,0,0,1-8.25-12.32q-2.76-7-2.75-17.08V752.16H1406.3V731h24.47v-39.6h23.37V731h34.11v21.18h-34.11v78.13q0,11.82,4.41,17.43,5.22,6.19,15.12,6.19a28.48,28.48,0,0,0,15.4-4.68v22.83a36.13,36.13,0,0,1-8.39,2.75,58.86,58.86,0,0,1-10.86.82A43.83,43.83,0,0,1,1454,872.83Z"/><path class="cls-1" d="M1507.22,723.83l13.47-20.63a15,15,0,0,1-8.8-5.08,15.19,15.19,0,0,1-3.85-10.59,17,17,0,0,1,5.09-12.51,16.69,16.69,0,0,1,12.24-5.09,17.38,17.38,0,0,1,17.6,17.6,21.3,21.3,0,0,1-1.79,8.53,65,65,0,0,1-5.64,9.89l-17.32,25Z"/><path class="cls-1" d="M1565.8,865A57.67,57.67,0,0,1,1544.35,838l20.9-9.34a42,42,0,0,0,15.54,19.52,40,40,0,0,0,22.68,6.88q13.2,0,22.55-5.37t9.35-15.26a16.66,16.66,0,0,0-7.42-14.16q-7.42-5.37-23.38-9.21l-17-4.4q-16.77-4.12-27.5-14T1549.3,767a33.34,33.34,0,0,1,7.29-21.32A46.55,46.55,0,0,1,1576,731.53a68.37,68.37,0,0,1,26.13-4.95q18.42,0,32.86,8a45.09,45.09,0,0,1,20.49,22.27l-20.35,9.35q-9.36-18.7-33.28-18.7a37.66,37.66,0,0,0-20.21,5.36q-8.65,5.37-8.66,13.61a15.23,15.23,0,0,0,6,12.52q6,4.81,18.15,7.84L1617.5,792q20.63,5.24,31.07,15.54A34,34,0,0,1,1659,832.73a36.43,36.43,0,0,1-7.42,22.69,47.22,47.22,0,0,1-20.08,15,72.85,72.85,0,0,1-28,5.22Q1580.93,875.63,1565.8,865Z"/><path class="cls-1" d="M1742.07,674.33h28.6l98.72,156.75h1.1l-1.1-38V674.33h23.38v196.9h-24.2l-103.4-164.17h-1.1l1.1,38V871.23h-23.1Z"/><path class="cls-1" d="M1953,866a66.89,66.89,0,0,1-24.89-26.54q-8.94-16.92-8.93-38.09a83.61,83.61,0,0,1,8.38-37.4,67.85,67.85,0,0,1,23.79-27.22q15.4-10.18,35.75-10.18,20.63,0,35.75,9.21a61.28,61.28,0,0,1,23.24,25.44q8.1,16.23,8.11,37.13a27.41,27.41,0,0,1-.82,7.15H1942.54q.82,15.94,7.7,26.94A44.74,44.74,0,0,0,1967.7,849a47.38,47.38,0,0,0,22.14,5.5q27,0,41.53-25.29l19.8,9.62a70.59,70.59,0,0,1-24.62,27q-15.54,9.9-37.53,9.9Q1968.94,875.63,1953,866Zm76.45-79.75a45.64,45.64,0,0,0-5-17.6,37.5,37.5,0,0,0-13.89-14.85q-9.48-6-23.78-6-16.5,0-27.92,10.58t-15,27.92Z"/><path class="cls-1" d="M2108.92,800l-48.68-69h26.4l36.3,52,34.93-52h27.22l-49,69,50.05,71.22H2159l-36.58-53.9-35.75,53.9h-27.22Z"/><path class="cls-1" d="M2239.68,872.83a35.84,35.84,0,0,1-12.24-7.56,34.37,34.37,0,0,1-8.25-12.32q-2.76-7-2.75-17.08V752.16H2192V731h24.48v-39.6h23.37V731h34.1v21.18h-34.1v78.13q0,11.82,4.4,17.43,5.22,6.19,15.13,6.19a28.51,28.51,0,0,0,15.4-4.68v22.83a36.13,36.13,0,0,1-8.39,2.75,58.86,58.86,0,0,1-10.86.82A43.79,43.79,0,0,1,2239.68,872.83Z"/><path class="cls-1" d="M2299.63,866.38a15.78,15.78,0,0,1-5.09-11.92,15.5,15.5,0,0,1,5.09-11.66,17.45,17.45,0,0,1,12.51-4.85,17.15,17.15,0,0,1,12.24,4.85,15.53,15.53,0,0,1,5.08,11.66,15.81,15.81,0,0,1-5.08,11.92,17.11,17.11,0,0,1-12.24,4.85A17.41,17.41,0,0,1,2299.63,866.38Z"/><path class="cls-1" d="M2449.09,696.61h-55.28V674.33h133.65v22.28h-55V871.23h-23.37Z"/><path class="cls-1" d="M2530.21,731h22.27v22.55h1.1q4.13-11.55,16-19.25a44.69,44.69,0,0,1,24.75-7.7,40.72,40.72,0,0,1,16.5,3v25a43.73,43.73,0,0,0-19.8-4.4,32.59,32.59,0,0,0-18.7,5.79,41.66,41.66,0,0,0-13.61,15.57,45,45,0,0,0-5.09,21.09v78.55h-23.37Z"/><path class="cls-1" d="M2639.66,869.58a45.27,45.27,0,0,1-18.7-16.64,44.49,44.49,0,0,1-6.6-24.06q0-22.27,16.78-34.79t42.35-12.51a95.77,95.77,0,0,1,23.51,2.75q10.86,2.76,16.64,6.33v-8.53q0-15.68-11-25.16t-27.78-9.49a46.84,46.84,0,0,0-21.72,5.09,39.69,39.69,0,0,0-15.68,14.16l-17.6-13.2a56.24,56.24,0,0,1,22.69-19.8,71.12,71.12,0,0,1,32-7.15q28.59,0,45,15t16.36,40.84v88.82h-22.27V851.16h-1.1q-6.06,10.17-18.15,17.32a52.5,52.5,0,0,1-27.23,7.15A60.71,60.71,0,0,1,2639.66,869.58Zm51.7-20.63a45.77,45.77,0,0,0,16.23-16.22,42.79,42.79,0,0,0,6-22.28,58,58,0,0,0-16.23-7.14,73.5,73.5,0,0,0-20.35-2.75q-19.24,0-29,8a25.4,25.4,0,0,0-9.76,20.63,22.94,22.94,0,0,0,8.8,18.7q8.79,7.14,22.27,7.15A42.24,42.24,0,0,0,2691.36,849Z"/><path class="cls-1" d="M2762.86,731h22.27v20.63h1.1q5.78-10.46,18.43-17.74a53.09,53.09,0,0,1,27-7.29q25.29,0,38.64,14.71t13.33,40v89.92h-23.37V784.88q0-19.51-9.35-28.32t-25.58-8.8a34.17,34.17,0,0,0-20.21,6.32,42.5,42.5,0,0,0-13.89,16.64,49.28,49.28,0,0,0-4.95,21.59v78.92h-23.37Z"/><path class="cls-1" d="M2921.53,865A57.8,57.8,0,0,1,2900.08,838l20.9-9.34a42,42,0,0,0,15.54,19.52,40.1,40.1,0,0,0,22.69,6.88q13.2,0,22.55-5.37t9.35-15.26a16.67,16.67,0,0,0-7.43-14.16q-7.42-5.37-23.37-9.21l-17-4.4q-16.78-4.12-27.5-14T2905,767a33.4,33.4,0,0,1,7.29-21.32,46.65,46.65,0,0,1,19.39-14.16,68.28,68.28,0,0,1,26.12-4.95q18.42,0,32.87,8a45.07,45.07,0,0,1,20.48,22.27l-20.35,9.35q-9.35-18.7-33.27-18.7a37.63,37.63,0,0,0-20.21,5.36q-8.67,5.37-8.67,13.61a15.26,15.26,0,0,0,6.05,12.52q6,4.81,18.15,7.84l20.35,5.22q20.63,5.24,31.08,15.54a34,34,0,0,1,10.45,25.16,36.44,36.44,0,0,1-7.43,22.69,47.19,47.19,0,0,1-20.07,15,72.92,72.92,0,0,1-28.05,5.22Q2936.65,875.63,2921.53,865Z"/><path class="cls-1" d="M3051.06,752.16h-25.85V731h25.85V715.86q0-13.2,6.05-23.1a41.27,41.27,0,0,1,16.22-15.27,47.66,47.66,0,0,1,22.55-5.36,58.7,58.7,0,0,1,20.63,3.3v22.83q-5-1.93-9.35-3.17a39.17,39.17,0,0,0-10.45-1.23,21.64,21.64,0,0,0-15.68,6.46q-6.6,6.46-6.6,18V731h36v21.18h-36V871.23h-23.37Z"/><path class="cls-1" d="M3152.53,865.73a69.19,69.19,0,0,1-25.71-27,81.66,81.66,0,0,1,0-75.35,69.26,69.26,0,0,1,25.71-26.95,74.56,74.56,0,0,1,74.25,0,69.26,69.26,0,0,1,25.71,26.95,81.58,81.58,0,0,1,0,75.35,69.19,69.19,0,0,1-25.71,27,74.56,74.56,0,0,1-74.25,0ZM3213.72,848a47.72,47.72,0,0,0,17.88-18.56q6.74-12.09,6.73-28.32t-6.73-28.33a47.78,47.78,0,0,0-17.88-18.56,47.11,47.11,0,0,0-24.06-6.46,47.75,47.75,0,0,0-42.21,25q-6.75,12.11-6.74,28.33t6.74,28.32a47.33,47.33,0,0,0,18,18.56,47.82,47.82,0,0,0,24.2,6.46A47.11,47.11,0,0,0,3213.72,848Z"/><path class="cls-1" d="M3280.68,731H3303v22.55h1.1q4.13-11.55,16-19.25a44.69,44.69,0,0,1,24.75-7.7,40.79,40.79,0,0,1,16.5,3v25a43.73,43.73,0,0,0-19.8-4.4,32.56,32.56,0,0,0-18.7,5.79,41.58,41.58,0,0,0-13.61,15.57,44.93,44.93,0,0,0-5.09,21.09v78.55h-23.38Z"/><path class="cls-1" d="M3378.31,731h22.27v20.63h1.1q6-10.74,18.15-17.88a49.47,49.47,0,0,1,25.58-7.15q15.39,0,26.81,7.43a41.56,41.56,0,0,1,16.36,19.8,57.16,57.16,0,0,1,19.66-19.8q12.24-7.43,28.47-7.43,24.2,0,36.44,14.71t12.23,40v89.92h-23.1V784.88q0-19.51-8-28.32t-23.65-8.8a32.05,32.05,0,0,0-19,6A40.9,40.9,0,0,0,3498.34,770a51,51,0,0,0-4.81,22v79.2h-23.37V785.16q0-19.81-8-28.6t-23.37-8.8a31.57,31.57,0,0,0-19,6.18,41.86,41.86,0,0,0-13.34,16.5,51.86,51.86,0,0,0-4.81,22.14v78.65h-23.37Z"/><path class="cls-1" d="M3676.41,674.33h23.1V849h86.35v22.28H3676.41Z"/><path class="cls-1" d="M3829.31,866a66.75,66.75,0,0,1-24.89-26.54q-8.94-16.92-8.94-38.09a83.48,83.48,0,0,1,8.39-37.4,67.85,67.85,0,0,1,23.79-27.22q15.39-10.18,35.75-10.18,20.63,0,35.75,9.21a61.26,61.26,0,0,1,23.23,25.44q8.12,16.23,8.11,37.13a27.41,27.41,0,0,1-.82,7.15H3818.86q.82,15.94,7.7,26.94A44.74,44.74,0,0,0,3844,849a47.35,47.35,0,0,0,22.14,5.5q26.94,0,41.52-25.29l19.8,9.62a70.65,70.65,0,0,1-24.61,27q-15.54,9.9-37.54,9.9Q3845.26,875.63,3829.31,866Zm76.44-79.75a45.44,45.44,0,0,0-4.94-17.6,37.65,37.65,0,0,0-13.89-14.85q-9.49-6-23.79-6-16.5,0-27.91,10.58t-15,27.92Z"/><path class="cls-1" d="M3974.36,923.48q-16.08-11.55-21.59-27.78l21.18-9.07a41.79,41.79,0,0,0,15.54,19.66q10.86,7.56,25.71,7.57,21.72,0,33.69-12.13t12-34.62V851.43h-1.1a51.39,51.39,0,0,1-19.39,17.46,59.09,59.09,0,0,1-28.46,6.74,60.88,60.88,0,0,1-33.14-9.45A66.93,66.93,0,0,1,3955,839.76q-8.8-17-8.8-38.65,0-21.42,8.8-38.52T3978.76,736a60.81,60.81,0,0,1,33.14-9.46,59.09,59.09,0,0,1,28.46,6.74,50.52,50.52,0,0,1,19.39,17.74h1.1V731h22.27V865.73q0,33.82-18.7,51.56T4015.2,935Q3990.45,935,3974.36,923.48Zm63.8-75.45a45.7,45.7,0,0,0,16.5-18.43q6.2-12,6.19-28.49,0-16.77-6.19-28.77a44.75,44.75,0,0,0-16.5-18.3,44.94,44.94,0,0,0-46.06.14,45.47,45.47,0,0,0-16.64,18.44q-6.18,12-6.19,28.49t6.19,28.63a43.29,43.29,0,0,0,39.74,24.71A42.47,42.47,0,0,0,4038.16,848Z"/><path class="cls-1" d="M4128.22,869.58a45.27,45.27,0,0,1-18.7-16.64,44.49,44.49,0,0,1-6.6-24.06q0-22.27,16.78-34.79t42.35-12.51a95.77,95.77,0,0,1,23.51,2.75q10.86,2.76,16.64,6.33v-8.53q0-15.68-11-25.16t-27.78-9.49a46.84,46.84,0,0,0-21.72,5.09A39.69,39.69,0,0,0,4126,766.73l-17.6-13.2a56.31,56.31,0,0,1,22.69-19.8,71.15,71.15,0,0,1,32-7.15q28.59,0,45,15t16.36,40.84v88.82H4202.2V851.16h-1.1Q4195,861.33,4183,868.48a52.5,52.5,0,0,1-27.23,7.15A60.71,60.71,0,0,1,4128.22,869.58Zm51.7-20.63a45.77,45.77,0,0,0,16.23-16.22,42.79,42.79,0,0,0,6.05-22.28,58,58,0,0,0-16.23-7.14,73.5,73.5,0,0,0-20.35-2.75q-19.24,0-29,8a25.4,25.4,0,0,0-9.76,20.63,22.94,22.94,0,0,0,8.8,18.7q8.79,7.14,22.27,7.15A42.24,42.24,0,0,0,4179.92,849Z"/><path class="cls-1" d="M4277,865.87a68.09,68.09,0,0,1-25.3-26.68q-9.07-16.91-9.08-38.08t9.08-38.23A67,67,0,0,1,4277,736.2q16.22-9.62,36.57-9.62,22.83,0,38.37,10.59a58,58,0,0,1,22.13,28.19l-21.17,8.8q-5.23-12.93-15.54-19.67t-24.89-6.73a42.65,42.65,0,0,0-23.1,6.73,48.93,48.93,0,0,0-17.18,18.84q-6.46,12.1-6.47,27.78t6.47,27.77a48.79,48.79,0,0,0,17.18,18.84,42.65,42.65,0,0,0,23.1,6.73q14.85,0,25.58-6.87A41.16,41.16,0,0,0,4354,828.06l20.9,8.8a61.75,61.75,0,0,1-23,28q-15.82,10.73-38.37,10.72A69.59,69.59,0,0,1,4277,865.87Z"/><path class="cls-1" d="M4437.59,862.43l-58-131.45h25.3l44,104.22h.55L4491.77,731h25.3l-86.62,199.65h-24.21Z"/><path class="cls-1" d="M4514.73,866.38a15.81,15.81,0,0,1-5.08-11.92,15.53,15.53,0,0,1,5.08-11.66,17.47,17.47,0,0,1,12.51-4.85,17.11,17.11,0,0,1,12.24,4.85,15.54,15.54,0,0,1,5.09,11.66,15.82,15.82,0,0,1-5.09,11.92,17.07,17.07,0,0,1-12.24,4.85A17.42,17.42,0,0,1,4514.73,866.38Z"/></svg>