<svg id="Layer_1" data-name="Layer 1" xmlns="http://www.w3.org/2000/svg" viewBox="0 0 4800 1300"><defs><style>.cls-1{fill:#676c72;}</style></defs><title>Artboard 46</title><path class="cls-1" d="M168.53,544.6h25.89V740.3h96.76v25H168.53Z"/><path class="cls-1" d="M339.87,759.4A74.87,74.87,0,0,1,312,729.66Q302,710.71,302,687a93.6,93.6,0,0,1,9.4-41.91A76,76,0,0,1,338,614.56q17.26-11.4,40.07-11.4,23.12,0,40.06,10.32a68.58,68.58,0,0,1,26,28.51q9.09,18.18,9.09,41.6a30.9,30.9,0,0,1-.92,8H328.16q.93,17.88,8.63,30.21a50.31,50.31,0,0,0,19.57,18.49,53.11,53.11,0,0,0,24.81,6.16q30.19,0,46.53-28.35l22.19,10.78a79.05,79.05,0,0,1-27.58,30.2q-17.42,11.1-42.07,11.1Q357.76,770.19,339.87,759.4ZM425.55,670A51.34,51.34,0,0,0,420,650.31a42.23,42.23,0,0,0-15.56-16.64q-10.63-6.78-26.66-6.78-18.5,0-31.28,11.86T329.7,670Z"/><path class="cls-1" d="M515.68,767.05A40.35,40.35,0,0,1,502,758.58a38.75,38.75,0,0,1-9.25-13.81q-3.08-7.85-3.08-19.14V631.82H462.21V608.09h27.43V563.71h26.2v44.38h38.21v23.73H515.84v87.56q0,13.23,4.93,19.53,5.85,6.95,17,6.93A31.93,31.93,0,0,0,555,740.6v25.58a40.08,40.08,0,0,1-9.4,3.08,65.69,65.69,0,0,1-12.18.93A49,49,0,0,1,515.68,767.05Z"/><path class="cls-1" d="M575.31,600.08,590.42,577a17.55,17.55,0,0,1-14.18-17.56,19.09,19.09,0,0,1,5.7-14,18.73,18.73,0,0,1,13.71-5.7,19.47,19.47,0,0,1,19.73,19.73,23.69,23.69,0,0,1-2,9.55A73.6,73.6,0,0,1,607.06,580l-19.42,28.05Z"/><path class="cls-1" d="M641,758.32a64.66,64.66,0,0,1-24-30.35l23.42-10.48q5.85,14.18,17.41,21.88a44.86,44.86,0,0,0,25.43,7.7q14.79,0,25.27-6T718.93,724q0-9.86-8.32-15.87t-26.2-10.32l-19.11-4.93q-18.79-4.64-30.81-15.72t-12-28.66a37.4,37.4,0,0,1,8.16-23.88,52.28,52.28,0,0,1,21.73-15.88,76.73,76.73,0,0,1,29.28-5.54q20.64,0,36.82,8.93t23,25l-22.8,10.47q-10.49-20.94-37.29-20.95-12.95,0-22.65,6T649,647.84a17.06,17.06,0,0,0,6.78,14q6.78,5.4,20.34,8.79l22.81,5.85q23.1,5.87,34.82,17.41a38.16,38.16,0,0,1,11.71,28.2,40.81,40.81,0,0,1-8.32,25.43,52.93,52.93,0,0,1-22.5,16.79,81.65,81.65,0,0,1-31.43,5.86Q657.91,770.19,641,758.32Z"/><path class="cls-1" d="M871.47,569.57H809.53v-25H959.3v25H897.67V765.26h-26.2Z"/><path class="cls-1" d="M962.38,608.09h25v25.27h1.23q4.62-12.95,17.88-21.57a50.06,50.06,0,0,1,27.73-8.63q10.78,0,18.49,3.39v28a49,49,0,0,0-22.19-4.93,36.45,36.45,0,0,0-21,6.49,46.61,46.61,0,0,0-15.26,17.45,50.46,50.46,0,0,0-5.7,23.63v88H962.38Z"/><path class="cls-1" d="M1085,763.41a50.67,50.67,0,0,1-21-18.65,49.87,49.87,0,0,1-7.4-27q0-25,18.8-39t47.46-14a107.41,107.41,0,0,1,26.35,3.08q12.17,3.09,18.64,7.09v-9.55q0-17.56-12.32-28.2t-31.13-10.63a52.45,52.45,0,0,0-24.34,5.7,44.43,44.43,0,0,0-17.57,15.87l-19.72-14.79a63,63,0,0,1,25.42-22.19,79.8,79.8,0,0,1,35.9-8q32.05,0,50.39,16.79t18.34,45.77v99.54h-25v-22.5h-1.23q-6.78,11.4-20.34,19.42a58.85,58.85,0,0,1-30.51,8Q1098.59,770.19,1085,763.41ZM1143,740.3a51.35,51.35,0,0,0,18.18-18.19,47.94,47.94,0,0,0,6.78-25,64.75,64.75,0,0,0-18.18-8,82.78,82.78,0,0,0-22.8-3.08q-21.59,0-32.52,8.93a28.5,28.5,0,0,0-10.94,23.12,25.69,25.69,0,0,0,9.87,20.95q9.86,8,25,8A47.38,47.38,0,0,0,1143,740.3Z"/><path class="cls-1" d="M1223.09,608.09h25V631.2h1.23q6.46-11.7,20.65-19.88a59.53,59.53,0,0,1,30.2-8.16q28.35,0,43.3,16.49t14.94,44.83V765.26h-26.19V668.49q0-21.88-10.48-31.74t-28.66-9.86A38.2,38.2,0,0,0,1270.4,634a47.6,47.6,0,0,0-15.56,18.64,55.21,55.21,0,0,0-5.55,24.19v88.45h-26.2Z"/><path class="cls-1" d="M1400.91,758.32a64.72,64.72,0,0,1-24-30.35l23.42-10.48q5.85,14.18,17.42,21.88a44.81,44.81,0,0,0,25.42,7.7q14.79,0,25.27-6T1478.88,724q0-9.86-8.32-15.87t-26.2-10.32l-19.1-4.93q-18.81-4.64-30.82-15.72t-12-28.66a37.36,37.36,0,0,1,8.17-23.88,52.18,52.18,0,0,1,21.72-15.88,76.73,76.73,0,0,1,29.28-5.54q20.64,0,36.83,8.93t23,25l-22.81,10.47q-10.48-20.94-37.29-20.95-12.94,0-22.65,6t-9.71,15.25a17.06,17.06,0,0,0,6.78,14q6.78,5.4,20.34,8.79l22.81,5.85q23.12,5.87,34.82,17.41a38.12,38.12,0,0,1,11.71,28.2,40.81,40.81,0,0,1-8.32,25.43,52.93,52.93,0,0,1-22.5,16.79,81.65,81.65,0,0,1-31.43,5.86Q1417.86,770.19,1400.91,758.32Z"/><path class="cls-1" d="M1546.06,631.82h-29V608.09h29v-17q0-14.79,6.78-25.89a46.13,46.13,0,0,1,18.18-17.1,53.29,53.29,0,0,1,25.27-6q13.24,0,23.11,3.7v25.58c-3.69-1.44-7.19-2.62-10.47-3.55a43.85,43.85,0,0,0-11.72-1.39,24.25,24.25,0,0,0-17.56,7.25q-7.39,7.24-7.4,20.18v14.18h40.37v23.73h-40.37V765.26h-26.19Z"/><path class="cls-1" d="M1659.78,759.09a77.5,77.5,0,0,1-28.82-30.2,91.52,91.52,0,0,1,0-84.44,77.63,77.63,0,0,1,28.82-30.2q18.48-11.09,41.6-11.09t41.6,11.09a77.71,77.71,0,0,1,28.82,30.2,91.52,91.52,0,0,1,0,84.44,77.57,77.57,0,0,1-28.82,30.2q-18.48,11.1-41.6,11.1T1659.78,759.09Zm68.57-19.87a53.54,53.54,0,0,0,20-20.81q7.55-13.54,7.55-31.74t-7.55-31.74a53.58,53.58,0,0,0-20-20.8,52.8,52.8,0,0,0-27-7.24,53.51,53.51,0,0,0-47.3,28q-7.56,13.56-7.55,31.74t7.55,31.74a53.07,53.07,0,0,0,20.18,20.81,53.61,53.61,0,0,0,27.12,7.24A52.8,52.8,0,0,0,1728.35,739.22Z"/><path class="cls-1" d="M1803.39,608.09h25v25.27h1.23q4.62-12.95,17.88-21.57a50.06,50.06,0,0,1,27.73-8.63q10.79,0,18.49,3.39v28a49,49,0,0,0-22.19-4.93,36.45,36.45,0,0,0-21,6.49,46.61,46.61,0,0,0-15.26,17.45,50.46,50.46,0,0,0-5.7,23.63v88h-26.19Z"/><path class="cls-1" d="M1912.79,608.09h25V631.2H1939q6.78-12,20.34-20a55.47,55.47,0,0,1,28.66-8q17.26,0,30,8.32a46.63,46.63,0,0,1,18.34,22.19,64.11,64.11,0,0,1,22-22.19q13.71-8.33,31.9-8.32,27.1,0,40.83,16.49t13.71,44.83V765.26H2119V668.49q0-21.88-8.94-31.74t-26.5-9.86a35.91,35.91,0,0,0-21.27,6.78,45.73,45.73,0,0,0-14.94,18.18,56.86,56.86,0,0,0-5.4,24.65v88.76h-26.19V668.8q0-22.18-8.94-32t-26.19-9.86a35.38,35.38,0,0,0-21.27,6.93,46.71,46.71,0,0,0-14.94,18.49,57.92,57.92,0,0,0-5.4,24.81v88.14h-26.19Z"/><path class="cls-1" d="M2246.85,544.6h25.88V740.3h96.77v25H2246.85Z"/><path class="cls-1" d="M2418.19,759.4a74.73,74.73,0,0,1-27.89-29.74q-10-18.95-10-42.68a93.73,93.73,0,0,1,9.39-41.91,76,76,0,0,1,26.66-30.51q17.25-11.4,40.06-11.4,23.11,0,40.07,10.32a68.71,68.71,0,0,1,26,28.51q9.07,18.18,9.09,41.6a30.45,30.45,0,0,1-.93,8H2406.48q.93,17.88,8.63,30.21a50.31,50.31,0,0,0,19.57,18.49,53.08,53.08,0,0,0,24.81,6.16q30.2,0,46.53-28.35l22.19,10.78a79.13,79.13,0,0,1-27.58,30.2q-17.41,11.1-42.07,11.1Q2436.06,770.19,2418.19,759.4ZM2503.86,670a51.14,51.14,0,0,0-5.54-19.72,42.19,42.19,0,0,0-15.57-16.64q-10.62-6.78-26.65-6.78-18.49,0-31.28,11.86T2408,670Z"/><path class="cls-1" d="M2580.75,823.81q-18-12.94-24.2-31.12l23.73-10.17a47,47,0,0,0,17.42,22q12.16,8.48,28.81,8.47,24.34,0,37.75-13.58t13.41-38.81V743.07h-1.24a57.52,57.52,0,0,1-21.72,19.57q-14,7.54-31.9,7.55a68.2,68.2,0,0,1-37.13-10.6Q2568.88,749,2559,730t-9.86-43.32q0-24,9.86-43.16t26.66-29.75a68.11,68.11,0,0,1,37.13-10.6q17.86,0,31.9,7.55a56.56,56.56,0,0,1,21.72,19.88h1.24v-22.5h25v151q0,37.9-21,57.79t-55.16,19.87Q2598.77,836.75,2580.75,823.81Zm71.49-84.55a51.26,51.26,0,0,0,18.49-20.66q6.95-13.46,6.94-31.93,0-18.78-6.94-32.23t-18.49-20.51a50.34,50.34,0,0,0-51.62.16A50.87,50.87,0,0,0,2582,654.75q-6.93,13.46-6.94,31.92t6.94,32.09q6.93,13.62,18.64,20.66a49.34,49.34,0,0,0,25.89,7A47.66,47.66,0,0,0,2652.24,739.26Z"/><path class="cls-1" d="M2753.17,763.41a50.67,50.67,0,0,1-21-18.65,49.87,49.87,0,0,1-7.39-27q0-25,18.79-39t47.46-14a107.41,107.41,0,0,1,26.35,3.08q12.18,3.09,18.65,7.09v-9.55q0-17.56-12.33-28.2t-31.13-10.63a52.48,52.48,0,0,0-24.34,5.7,44.5,44.5,0,0,0-17.57,15.87L2731,633.36a63.07,63.07,0,0,1,25.42-22.19,79.84,79.84,0,0,1,35.91-8q32,0,50.38,16.79T2861,665.72v99.54h-25v-22.5h-1.24q-6.78,11.4-20.34,19.42a58.84,58.84,0,0,1-30.5,8Q2766.73,770.19,2753.17,763.41Zm57.93-23.11a51.38,51.38,0,0,0,18.19-18.19,48,48,0,0,0,6.78-25,64.82,64.82,0,0,0-18.19-8,82.78,82.78,0,0,0-22.8-3.08q-21.57,0-32.51,8.93a28.47,28.47,0,0,0-10.94,23.12,25.68,25.68,0,0,0,9.86,20.95q9.86,8,25,8A47.38,47.38,0,0,0,2811.1,740.3Z"/><path class="cls-1" d="M2919.89,759.25a76.31,76.31,0,0,1-28.35-29.9q-10.17-18.95-10.17-42.68t10.17-42.83a75.06,75.06,0,0,1,28.35-29.9q18.18-10.79,41-10.78,25.57,0,43,11.86a65,65,0,0,1,24.81,31.59L3005,656.47q-5.86-14.47-17.41-22t-27.9-7.55a47.8,47.8,0,0,0-25.88,7.55,54.73,54.73,0,0,0-19.26,21.11q-7.24,13.56-7.25,31.12t7.25,31.13a54.73,54.73,0,0,0,19.26,21.11,47.8,47.8,0,0,0,25.88,7.55q16.65,0,28.67-7.71a46.07,46.07,0,0,0,17.87-21.88l23.42,9.87a69.17,69.17,0,0,1-25.73,31.43q-17.73,12-43,12Q2938.07,770.19,2919.89,759.25Z"/><path class="cls-1" d="M3099.86,755.4l-65-147.31h28.35l49.31,116.8h.61l47.46-116.8h28.35l-97.07,223.73h-27.12Z"/><path class="cls-1" d="M3186.3,759.83a17.74,17.74,0,0,1-5.7-13.36,17.41,17.41,0,0,1,5.7-13.07,19.57,19.57,0,0,1,14-5.43A19.17,19.17,0,0,1,3214,733.4a17.41,17.41,0,0,1,5.7,13.07,17.74,17.74,0,0,1-5.7,13.36,19.17,19.17,0,0,1-13.71,5.43A19.57,19.57,0,0,1,3186.3,759.83Z"/><path class="cls-1" d="M3366.12,584.05h-61.64V544.6h164.88v39.45h-61.64V765.26h-41.6Z"/><path class="cls-1" d="M3498,759.25a77.67,77.67,0,0,1-29.74-29.9q-10.62-18.95-10.63-42.68a86,86,0,0,1,10.63-42.52,77.38,77.38,0,0,1,29.74-30q19.11-10.94,43.45-10.94,24,0,43.15,10.94a77.38,77.38,0,0,1,29.74,30Q3625,663.26,3625,686.67q0,23.75-10.63,42.68a77.67,77.67,0,0,1-29.74,29.9q-19.11,10.93-43.15,10.94Q3517.13,770.19,3498,759.25Zm65-31.9a40.71,40.71,0,0,0,15.71-16q5.85-10.47,5.86-24.66,0-13.86-5.86-24.34a40.73,40.73,0,0,0-15.71-16,44.71,44.71,0,0,0-43.15,0,41.79,41.79,0,0,0-15.87,16q-6,10.47-6,24.34a48.88,48.88,0,0,0,6,24.5,41.46,41.46,0,0,0,15.87,16.18,44.71,44.71,0,0,0,43.15,0Z"/><path class="cls-1" d="M3672.45,823.35q-19.74-13.41-26.51-32.21l37.91-15.41A40.52,40.52,0,0,0,3722.06,801q19.11,0,30.36-11.71T3763.67,756V743.69h-2.47a47.82,47.82,0,0,1-19.42,16q-12,5.55-27.42,5.55a69.41,69.41,0,0,1-36.21-10,73.84,73.84,0,0,1-27-28.35Q3641,708.56,3641,684.21t10.17-42.69a74,74,0,0,1,27-28.35,69.5,69.5,0,0,1,36.21-10q15.41,0,27.42,5.54a47.85,47.85,0,0,1,19.42,16h2.47V608.09h38.83V754.47q0,25.26-9.87,43.76a68.8,68.8,0,0,1-28,28.51q-18.2,10-42.53,10Q3692.17,836.75,3672.45,823.35Zm79.2-106.63q12-11.87,12-32.51,0-21.27-11.87-32.82t-29.12-11.56a40.41,40.41,0,0,0-29.28,11.71q-12,11.72-12,32.67t12,32.66a40.36,40.36,0,0,0,29.28,11.71A39.77,39.77,0,0,0,3751.65,716.72Z"/><path class="cls-1" d="M3865.67,759.4a77.22,77.22,0,0,1-29.43-29.74q-10.63-18.95-10.63-42.68a86,86,0,0,1,10.48-41.76,80.69,80.69,0,0,1,29-30.66,77.06,77.06,0,0,1,41.29-11.4q24.34,0,41.91,10.48a68.3,68.3,0,0,1,26.66,28.66q9.09,18.18,9.09,40.37a96.84,96.84,0,0,1-.92,13.56h-118q3.08,18.79,14.94,28.5t28.51,9.71q13.86,0,23.88-6a44.37,44.37,0,0,0,15.87-16.18l32.67,16q-24,41.91-73,41.91Q3884.48,770.19,3865.67,759.4Zm79.51-91.83a31.24,31.24,0,0,0-5.39-14.64,37.79,37.79,0,0,0-13.25-12,39.9,39.9,0,0,0-19.88-4.78q-14.49,0-24.81,8.48t-14.95,23Z"/><path class="cls-1" d="M4051.19,766.58a42.39,42.39,0,0,1-16-9.9q-14.51-14.14-14.49-40.23V642.6h-27.43V608.09h27.43V563.71h40.37v44.38h38.52V642.6h-38.52v66.87q0,12.36,5.24,17.74,4.32,5.07,14.79,5.07a26.32,26.32,0,0,0,9.71-1.54,73.94,73.94,0,0,0,10-5.24V765a75.69,75.69,0,0,1-28.05,5.24A62.43,62.43,0,0,1,4051.19,766.58Z"/><path class="cls-1" d="M4128.54,544.6h40.37v55.78l-2.47,27.43h2.47q6.77-11.09,19.72-17.87a59.55,59.55,0,0,1,28.05-6.78q28.65,0,43.91,17.1t15.25,47.31v97.69h-40.37V672.5q0-15.11-8.16-23.42t-21.73-8.33q-16,0-26.35,13t-10.32,31.74v79.82h-40.37Z"/><path class="cls-1" d="M4339.33,759.4a77.09,77.09,0,0,1-29.43-29.74q-10.63-18.95-10.64-42.68a86,86,0,0,1,10.48-41.76,80.69,80.69,0,0,1,29-30.66,77.11,77.11,0,0,1,41.29-11.4q24.34,0,41.92,10.48a68.28,68.28,0,0,1,26.65,28.66,89,89,0,0,1,9.1,40.37,95.32,95.32,0,0,1-.93,13.56h-118q3.07,18.79,14.95,28.5t28.5,9.71q13.88,0,23.89-6a44.52,44.52,0,0,0,15.87-16.18l32.66,16q-24,41.91-73,41.91Q4358.12,770.19,4339.33,759.4Zm79.5-91.83a31.24,31.24,0,0,0-5.39-14.64,37.71,37.71,0,0,0-13.25-12,39.88,39.88,0,0,0-19.88-4.78q-14.49,0-24.81,8.48t-14.94,23Z"/><path class="cls-1" d="M4482.62,608.09h37.91V629H4523q5.85-11.09,18.19-18.49a51.69,51.69,0,0,1,27.12-7.39,51,51,0,0,1,19.72,3.7v40.06a131.15,131.15,0,0,0-14-4.47,51.18,51.18,0,0,0-12.18-1.39q-17.86,0-28.35,13T4523,686.79v78.47h-40.37Z"/><path class="cls-1" d="M4585.71,757.67a24.48,24.48,0,0,1-7.86-18.29,24,24,0,0,1,7.86-18.15,27.85,27.85,0,0,1,37.9,0,24,24,0,0,1,7.86,18.15,24.48,24.48,0,0,1-7.86,18.29,27.45,27.45,0,0,1-37.9,0Z"/></svg>