<svg id="Layer_1" data-name="Layer 1" xmlns="http://www.w3.org/2000/svg" viewBox="0 0 2500 1000"><defs><style>.cls-1{fill:#ea4335;}.cls-2{fill:#4285f4;}.cls-3{fill:#fbbc04;}.cls-4{fill:#0f9d58;}.cls-5{fill:#676c72;}</style></defs><title>01 GDGYYC Logo</title><path class="cls-1" d="M402.22,525.7l100.69-58.13a49.54,49.54,0,0,0-49.54-85.81l-174,100.45Z"/><path class="cls-2" d="M478.09,675.11a49.55,49.55,0,0,0,24.82-92.45l-174-100.45A49.54,49.54,0,0,0,279.38,568l174,100.45A49.34,49.34,0,0,0,478.09,675.11Z"/><path class="cls-3" d="M651.16,675.11a49.32,49.32,0,0,0,24.72-6.64L849.87,568,728.59,523.63l-102.25,59a49.55,49.55,0,0,0,24.82,92.45Z"/><path class="cls-4" d="M825.05,574.67a49.55,49.55,0,0,0,24.82-92.46l-174-100.45a49.54,49.54,0,0,0-49.54,85.81L800.32,568A49.42,49.42,0,0,0,825.05,574.67Z"/><path class="cls-5" d="M1071.88,625.27a112.2,112.2,0,0,1-41.6-41.6q-15.42-26.5-15.41-58.55t15.41-58.56a113.19,113.19,0,0,1,98.92-56.7,121.43,121.43,0,0,1,45.77,8.63q21.4,8.63,35.28,24.34l-18.8,18.8a68,68,0,0,0-26.81-19.88,91.17,91.17,0,0,0-78.74,4.32,85.66,85.66,0,0,0-32.35,31.74q-12.18,20.51-12.18,47.31t12.18,47.3a85.3,85.3,0,0,0,32.51,31.74,88.38,88.38,0,0,0,43.45,11.25q22.18,0,37.14-6.93a83.52,83.52,0,0,0,25.73-18.34,67.35,67.35,0,0,0,12.94-20.8,91.7,91.7,0,0,0,6.16-27h-81.66V518h106a91.2,91.2,0,0,1,1.54,16,123.59,123.59,0,0,1-6.47,39.6,87.4,87.4,0,0,1-20.65,33.75q-30.51,33-81,33A112.72,112.72,0,0,1,1071.88,625.27Z"/><path class="cls-5" d="M1270,414.79h66.57q33.9,0,59.17,14a96.56,96.56,0,0,1,38.83,39q13.56,25,13.56,57.33t-13.56,57.32a96.56,96.56,0,0,1-38.83,39q-25.27,14-59.17,14H1270Zm66.57,195.69q39.14,0,62.1-22.5t23-62.86q0-40.38-23-62.87t-62.1-22.5h-40.68V610.48Z"/><path class="cls-5" d="M1526.74,625.27a112.2,112.2,0,0,1-41.6-41.6q-15.42-26.5-15.41-58.55t15.41-58.56a113.19,113.19,0,0,1,98.92-56.7,121.34,121.34,0,0,1,45.76,8.63q21.42,8.63,35.29,24.34l-18.8,18.8a68.1,68.1,0,0,0-26.81-19.88,91.17,91.17,0,0,0-78.74,4.32,85.69,85.69,0,0,0-32.36,31.74q-12.18,20.51-12.17,47.31t12.17,47.3a85.4,85.4,0,0,0,32.52,31.74,88.38,88.38,0,0,0,43.45,11.25q22.19,0,37.13-6.93a83.44,83.44,0,0,0,25.74-18.34,67.35,67.35,0,0,0,12.94-20.8,92,92,0,0,0,6.16-27h-81.66V518h106a92.17,92.17,0,0,1,1.54,16,123.59,123.59,0,0,1-6.47,39.6,87.52,87.52,0,0,1-20.65,33.75q-30.51,33-81,33A112.72,112.72,0,0,1,1526.74,625.27Z"/><path class="cls-5" d="M1767.12,533.44l-74.58-118.65h30.51l56.39,92.45h1.23l55.48-92.45h30.51l-73.35,118.65v102h-26.19Z"/><path class="cls-5" d="M1944.31,533.44l-74.58-118.65h30.51l56.4,92.45h1.23l55.47-92.45h30.51l-73.34,118.65v102h-26.2Z"/><path class="cls-5" d="M2099.94,625.27a109,109,0,0,1-41.14-41.45q-15-26.34-15-58.7t15-58.71A109.1,109.1,0,0,1,2099.94,425q26.19-15.1,58.24-15.1,24.66,0,45.15,9.4a105.15,105.15,0,0,1,35.59,26.65l-18.8,18.19q-12.63-15.11-27.58-22.19t-34.36-7.09a88.49,88.49,0,0,0-44.07,11.25,83.72,83.72,0,0,0-31.89,31.74q-11.88,20.51-11.87,47.31t11.87,47.3a83.72,83.72,0,0,0,31.89,31.74,88.49,88.49,0,0,0,44.07,11.25q40.07,0,68.11-33l19.1,18.49a111.39,111.39,0,0,1-37.9,28.81q-22.5,10.63-49.31,10.63Q2126.13,640.37,2099.94,625.27Z"/></svg>