<svg id="Layer_1" data-name="Layer 1" xmlns="http://www.w3.org/2000/svg" viewBox="0 0 1000 1000"><defs><style>.cls-1{fill:#ea4335;}.cls-2{fill:#4285f4;}.cls-3{fill:#fbbc04;}.cls-4{fill:#0f9d58;}</style></defs><title>01 GDG Icon</title><path class="cls-1" d="M337.6,500.59l100.68-58.13a49.54,49.54,0,1,0-49.54-85.81l-174,100.45Z"/><path class="cls-2" d="M413.47,650a49.55,49.55,0,0,0,24.81-92.46L264.3,457.1a49.54,49.54,0,0,0-49.54,85.81l174,100.44A49.26,49.26,0,0,0,413.47,650Z"/><path class="cls-3" d="M586.54,650a49.25,49.25,0,0,0,24.72-6.65l174-100.44L664,498.51l-102.24,59A49.55,49.55,0,0,0,586.54,650Z"/><path class="cls-4" d="M760.42,549.55a49.55,49.55,0,0,0,24.82-92.45l-174-100.45a49.54,49.54,0,1,0-49.54,85.81l174,100.45A49.34,49.34,0,0,0,760.42,549.55Z"/></svg>