<svg id="Layer_1" data-name="Layer 1" xmlns="http://www.w3.org/2000/svg" viewBox="0 0 2000 1000"><defs><style>.cls-1{fill:#ea4335;}.cls-2{fill:#4285f4;}.cls-3{fill:#fbbc04;}.cls-4{fill:#0f9d58;}.cls-5{fill:#676c72;}</style></defs><title>01 GDG Global Logo</title><path class="cls-1" d="M431.72,525.7l100.69-58.13a49.54,49.54,0,0,0-49.54-85.81l-174,100.45Z"/><path class="cls-2" d="M507.59,675.11a49.55,49.55,0,0,0,24.82-92.45l-174-100.45A49.54,49.54,0,1,0,308.89,568l174,100.45A49.34,49.34,0,0,0,507.59,675.11Z"/><path class="cls-3" d="M680.66,675.11a49.38,49.38,0,0,0,24.73-6.64L879.37,568,758.09,523.63l-102.25,59a49.55,49.55,0,0,0,24.82,92.45Z"/><path class="cls-4" d="M854.55,574.67a49.55,49.55,0,0,0,24.82-92.46l-174-100.45a49.54,49.54,0,1,0-49.55,85.81L829.83,568A49.36,49.36,0,0,0,854.55,574.67Z"/><path class="cls-5" d="M1100.89,624.65a111.32,111.32,0,0,1-41.24-41.24q-15.29-26.28-15.28-58t15.28-58.05a112.2,112.2,0,0,1,98.07-56.22,120.34,120.34,0,0,1,45.37,8.56q21.23,8.55,35,24.13l-18.64,18.64a67.47,67.47,0,0,0-26.58-19.71,90.4,90.4,0,0,0-78.06,4.28,85,85,0,0,0-32.08,31.47q-12.06,20.32-12.06,46.9t12.06,46.89A84.53,84.53,0,0,0,1115,603.72,87.56,87.56,0,0,0,1158,614.87q22,0,36.82-6.87a82.38,82.38,0,0,0,25.51-18.18,66.81,66.81,0,0,0,12.83-20.62,90.85,90.85,0,0,0,6.11-26.73h-81V518.33h105.1a91.57,91.57,0,0,1,1.53,15.89,122.4,122.4,0,0,1-6.42,39.26,86.69,86.69,0,0,1-20.47,33.45q-30.24,32.7-80.35,32.69A111.77,111.77,0,0,1,1100.89,624.65Z"/><path class="cls-5" d="M1297.34,416h66q33.6,0,58.66,13.9a95.67,95.67,0,0,1,38.49,38.65q13.44,24.75,13.45,56.83t-13.45,56.82A95.61,95.61,0,0,1,1422,620.83q-25.07,13.9-58.66,13.9h-66Zm66,194q38.79,0,61.56-22.31t22.76-62.32q0-40-22.76-62.33t-61.56-22.3H1323V610Z"/><path class="cls-5" d="M1551.83,624.65a111.42,111.42,0,0,1-41.25-41.24q-15.27-26.28-15.27-58t15.27-58.05a112.23,112.23,0,0,1,98.08-56.22,120.38,120.38,0,0,1,45.37,8.56q21.23,8.55,35,24.13l-18.64,18.64a67.61,67.61,0,0,0-26.58-19.71,90.4,90.4,0,0,0-78.06,4.28,85,85,0,0,0-32.08,31.47q-12.08,20.32-12.07,46.9t12.07,46.89a84.57,84.57,0,0,0,32.23,31.47A87.62,87.62,0,0,0,1609,614.87q22,0,36.82-6.87a82.5,82.5,0,0,0,25.51-18.18,66.81,66.81,0,0,0,12.83-20.62,91.17,91.17,0,0,0,6.11-26.73h-81V518.33h105.1a91.51,91.51,0,0,1,1.52,15.89,122.67,122.67,0,0,1-6.41,39.26A86.81,86.81,0,0,1,1689,606.93q-30.26,32.7-80.35,32.69A111.77,111.77,0,0,1,1551.83,624.65Z"/></svg>