<svg id="Layer_1" data-name="Layer 1" xmlns="http://www.w3.org/2000/svg" viewBox="0 0 2400 500"><defs><style>.cls-1{fill:#ea4335;}.cls-2{fill:#4285f4;}.cls-3{fill:#fbbc04;}.cls-4{fill:#0f9d58;}.cls-5{fill:#676c72;}</style></defs><title>01 GDGYYC Cropped Logo</title><path class="cls-1" d="M352.22,250.59l100.69-58.13a49.54,49.54,0,0,0-49.54-85.81l-174,100.45Z"/><path class="cls-2" d="M428.09,400a49.55,49.55,0,0,0,24.82-92.46l-174-100.44a49.54,49.54,0,1,0-49.55,85.81l174,100.44A49.25,49.25,0,0,0,428.09,400Z"/><path class="cls-3" d="M601.16,400a49.23,49.23,0,0,0,24.72-6.65l174-100.44-121.28-44.4-102.25,59A49.55,49.55,0,0,0,601.16,400Z"/><path class="cls-4" d="M775.05,299.55a49.55,49.55,0,0,0,24.82-92.45l-174-100.45a49.54,49.54,0,0,0-49.54,85.81l174,100.45A49.41,49.41,0,0,0,775.05,299.55Z"/><path class="cls-5" d="M1021.88,350.16a112.23,112.23,0,0,1-41.6-41.61Q964.86,282.06,964.87,250t15.41-58.55a113.17,113.17,0,0,1,98.92-56.71,121.43,121.43,0,0,1,45.77,8.63q21.4,8.64,35.28,24.35l-18.8,18.8a67.93,67.93,0,0,0-26.81-19.88A91.21,91.21,0,0,0,1035.9,171a85.69,85.69,0,0,0-32.35,31.75q-12.18,20.49-12.18,47.3t12.18,47.31a85.3,85.3,0,0,0,32.51,31.74,88.38,88.38,0,0,0,43.45,11.25q22.18,0,37.14-6.94A83.19,83.19,0,0,0,1142.38,315a67.23,67.23,0,0,0,12.94-20.8,91.56,91.56,0,0,0,6.16-27h-81.66V242.91h106a91.4,91.4,0,0,1,1.54,16,123.64,123.64,0,0,1-6.47,39.6,87.36,87.36,0,0,1-20.65,33.74q-30.51,33-81,33A112.72,112.72,0,0,1,1021.88,350.16Z"/><path class="cls-5" d="M1220,139.67h66.57q33.9,0,59.17,14a96.56,96.56,0,0,1,38.83,39q13.56,25,13.56,57.32t-13.56,57.32a96.59,96.59,0,0,1-38.83,39q-25.27,14-59.17,14H1220Zm66.57,195.69q39.14,0,62.1-22.49t23-62.87q0-40.37-23-62.87t-62.1-22.49h-40.68V335.36Z"/><path class="cls-5" d="M1476.74,350.16a112.23,112.23,0,0,1-41.6-41.61q-15.42-26.49-15.41-58.55t15.41-58.55a113.17,113.17,0,0,1,98.92-56.71,121.34,121.34,0,0,1,45.76,8.63q21.42,8.64,35.29,24.35l-18.8,18.8a68,68,0,0,0-26.81-19.88,91.21,91.21,0,0,0-78.74,4.31,85.71,85.71,0,0,0-32.36,31.75q-12.18,20.49-12.17,47.3t12.17,47.31a85.4,85.4,0,0,0,32.52,31.74,88.38,88.38,0,0,0,43.45,11.25q22.19,0,37.13-6.94A83.11,83.11,0,0,0,1597.24,315a67.23,67.23,0,0,0,12.94-20.8,91.87,91.87,0,0,0,6.16-27h-81.66V242.91h106a92.36,92.36,0,0,1,1.54,16,123.64,123.64,0,0,1-6.47,39.6,87.48,87.48,0,0,1-20.65,33.74q-30.51,33-81,33A112.72,112.72,0,0,1,1476.74,350.16Z"/><path class="cls-5" d="M1717.12,258.32l-74.58-118.65h30.51l56.39,92.46h1.23l55.48-92.46h30.51l-73.35,118.65v102h-26.19Z"/><path class="cls-5" d="M1894.31,258.32l-74.58-118.65h30.51l56.4,92.46h1.23l55.47-92.46h30.51l-73.34,118.65v102h-26.2Z"/><path class="cls-5" d="M2049.94,350.16a109.17,109.17,0,0,1-41.14-41.45q-15-26.35-15-58.71t15-58.71a109.17,109.17,0,0,1,41.14-41.45q26.19-15.09,58.24-15.1,24.66,0,45.15,9.4a105.18,105.18,0,0,1,35.59,26.66L2170.12,189q-12.63-15.09-27.58-22.19t-34.36-7.08A88.58,88.58,0,0,0,2064.11,171a83.75,83.75,0,0,0-31.89,31.75q-11.88,20.49-11.87,47.3t11.87,47.31a83.72,83.72,0,0,0,31.89,31.74,88.49,88.49,0,0,0,44.07,11.25q40.07,0,68.11-33l19.1,18.49a111.29,111.29,0,0,1-37.9,28.82,114.07,114.07,0,0,1-49.31,10.63Q2076.13,365.26,2049.94,350.16Z"/></svg>