<svg id="Layer_1" data-name="Layer 1" xmlns="http://www.w3.org/2000/svg" viewBox="0 0 4800 500"><defs><style>.cls-1{fill:#676c72;}</style></defs><title>010 LBWNT Hz Cropped Tagline_1</title><path class="cls-1" d="M168.53,139.39h25.89V335.08h96.76v25H168.53Z"/><path class="cls-1" d="M339.87,354.19A74.87,74.87,0,0,1,312,324.45q-10-18.94-10-42.68a93.6,93.6,0,0,1,9.4-41.91A76,76,0,0,1,338,209.35Q355.29,198,378.09,198q23.12,0,40.06,10.32a68.58,68.58,0,0,1,26,28.51q9.09,18.18,9.09,41.6a31,31,0,0,1-.92,8H328.16q.93,17.88,8.63,30.2a50.17,50.17,0,0,0,19.57,18.49,53,53,0,0,0,24.81,6.17q30.19,0,46.53-28.36l22.19,10.79a79.05,79.05,0,0,1-27.58,30.2Q404.9,365,380.24,365,357.76,365,339.87,354.19Zm85.68-89.37A51.29,51.29,0,0,0,420,245.1q-4.94-9.87-15.56-16.65t-26.66-6.78q-18.5,0-31.28,11.87t-16.8,31.28Z"/><path class="cls-1" d="M515.68,361.84A40.5,40.5,0,0,1,502,353.37a38.84,38.84,0,0,1-9.25-13.81q-3.08-7.85-3.08-19.14V226.61H462.21V202.88h27.43V158.5h26.2v44.38h38.21v23.73H515.84v87.56q0,13.23,4.93,19.53,5.85,6.93,17,6.93A31.93,31.93,0,0,0,555,335.39V361a41,41,0,0,1-9.4,3.08,65.69,65.69,0,0,1-12.18.93A49,49,0,0,1,515.68,361.84Z"/><path class="cls-1" d="M575.31,194.86l15.11-23.11a17.55,17.55,0,0,1-14.18-17.57,19.08,19.08,0,0,1,5.7-14,18.69,18.69,0,0,1,13.71-5.7,19.47,19.47,0,0,1,19.73,19.72,23.74,23.74,0,0,1-2,9.56,73.6,73.6,0,0,1-6.31,11.09l-19.42,28Z"/><path class="cls-1" d="M641,353.11a64.75,64.75,0,0,1-24-30.35l23.42-10.48q5.85,14.18,17.41,21.88a44.86,44.86,0,0,0,25.43,7.7q14.79,0,25.27-6t10.48-17.1q0-9.86-8.32-15.87t-26.2-10.33l-19.11-4.93q-18.79-4.62-30.81-15.71t-12-28.66a37.45,37.45,0,0,1,8.16-23.89,52.35,52.35,0,0,1,21.73-15.87A76.54,76.54,0,0,1,681.64,198q20.64,0,36.82,8.93t23,25l-22.8,10.48q-10.49-21-37.29-20.95-12.95,0-22.65,6T649,242.63a17.08,17.08,0,0,0,6.78,14q6.78,5.4,20.34,8.79l22.81,5.85q23.1,5.86,34.82,17.41a38.16,38.16,0,0,1,11.71,28.2,40.78,40.78,0,0,1-8.32,25.42,52.87,52.87,0,0,1-22.5,16.8A81.65,81.65,0,0,1,683.18,365Q657.91,365,641,353.11Z"/><path class="cls-1" d="M871.47,164.35H809.53v-25H959.3v25H897.67V360h-26.2Z"/><path class="cls-1" d="M962.38,202.88h25v25.27h1.23q4.62-12.94,17.88-21.58a50,50,0,0,1,27.73-8.62q10.78,0,18.49,3.38v28a48.88,48.88,0,0,0-22.19-4.93,36.52,36.52,0,0,0-21,6.48,46.69,46.69,0,0,0-15.26,17.45,50.49,50.49,0,0,0-5.7,23.63v88H962.38Z"/><path class="cls-1" d="M1085,358.2a50.74,50.74,0,0,1-21-18.65,49.92,49.92,0,0,1-7.4-27q0-25,18.8-39t47.46-14a107.41,107.41,0,0,1,26.35,3.08q12.17,3.09,18.64,7.09V260.2q0-17.56-12.32-28.2t-31.13-10.63a52.45,52.45,0,0,0-24.34,5.7,44.43,44.43,0,0,0-17.57,15.87l-19.72-14.79A62.93,62.93,0,0,1,1088.27,206a79.8,79.8,0,0,1,35.9-8q32.05,0,50.39,16.79t18.34,45.76V360h-25V337.55h-1.23q-6.78,11.4-20.34,19.41a58.86,58.86,0,0,1-30.51,8Q1098.59,365,1085,358.2ZM1143,335.08a51.32,51.32,0,0,0,18.18-18.18,47.94,47.94,0,0,0,6.78-25,64.46,64.46,0,0,0-18.18-8,82.4,82.4,0,0,0-22.8-3.09q-21.59,0-32.52,8.94a28.49,28.49,0,0,0-10.94,23.11,25.7,25.7,0,0,0,9.87,21q9.86,8,25,8A47.39,47.39,0,0,0,1143,335.08Z"/><path class="cls-1" d="M1223.09,202.88h25V226h1.23q6.46-11.72,20.65-19.88a59.53,59.53,0,0,1,30.2-8.16q28.35,0,43.3,16.48t14.94,44.84V360h-26.19V263.28q0-21.88-10.48-31.74t-28.66-9.87a38.27,38.27,0,0,0-22.65,7.09,47.63,47.63,0,0,0-15.56,18.65,55.21,55.21,0,0,0-5.55,24.19V360h-26.2Z"/><path class="cls-1" d="M1400.91,353.11a64.81,64.81,0,0,1-24-30.35l23.42-10.48q5.85,14.18,17.42,21.88a44.81,44.81,0,0,0,25.42,7.7q14.79,0,25.27-6t10.48-17.1q0-9.86-8.32-15.87t-26.2-10.33l-19.1-4.93q-18.81-4.62-30.82-15.71t-12-28.66a37.4,37.4,0,0,1,8.17-23.89,52.25,52.25,0,0,1,21.72-15.87,76.54,76.54,0,0,1,29.28-5.54q20.64,0,36.83,8.93t23,25l-22.81,10.48q-10.48-21-37.29-20.95-12.94,0-22.65,6t-9.71,15.25a17.08,17.08,0,0,0,6.78,14q6.78,5.4,20.34,8.79l22.81,5.85q23.12,5.86,34.82,17.41a38.12,38.12,0,0,1,11.71,28.2,40.78,40.78,0,0,1-8.32,25.42,52.87,52.87,0,0,1-22.5,16.8,81.65,81.65,0,0,1-31.43,5.86Q1417.86,365,1400.91,353.11Z"/><path class="cls-1" d="M1546.06,226.61h-29V202.88h29V185.93q0-14.81,6.78-25.89a46.06,46.06,0,0,1,18.18-17.1,53.29,53.29,0,0,1,25.27-6q13.24,0,23.11,3.69V166.2c-3.69-1.43-7.19-2.62-10.47-3.54a43.44,43.44,0,0,0-11.72-1.39,24.28,24.28,0,0,0-17.56,7.24q-7.39,7.25-7.4,20.19v14.18h40.37v23.73h-40.37V360h-26.19Z"/><path class="cls-1" d="M1659.78,353.88a77.5,77.5,0,0,1-28.82-30.2,91.52,91.52,0,0,1,0-84.44,77.57,77.57,0,0,1,28.82-30.2q18.48-11.1,41.6-11.09T1743,209a77.64,77.64,0,0,1,28.82,30.2,91.52,91.52,0,0,1,0,84.44,77.57,77.57,0,0,1-28.82,30.2q-18.48,11.1-41.6,11.1T1659.78,353.88ZM1728.35,334a53.52,53.52,0,0,0,20-20.8q7.55-13.56,7.55-31.74t-7.55-31.74a53.58,53.58,0,0,0-20-20.8,52.81,52.81,0,0,0-27-7.25,53.54,53.54,0,0,0-47.3,28.05q-7.56,13.56-7.55,31.74t7.55,31.74a53,53,0,0,0,20.18,20.8,53.62,53.62,0,0,0,27.12,7.25A52.81,52.81,0,0,0,1728.35,334Z"/><path class="cls-1" d="M1803.39,202.88h25v25.27h1.23q4.62-12.94,17.88-21.58a50,50,0,0,1,27.73-8.62q10.79,0,18.49,3.38v28a48.91,48.91,0,0,0-22.19-4.93,36.52,36.52,0,0,0-21,6.48,46.69,46.69,0,0,0-15.26,17.45,50.49,50.49,0,0,0-5.7,23.63v88h-26.19Z"/><path class="cls-1" d="M1912.79,202.88h25V226H1939q6.78-12,20.34-20a55.47,55.47,0,0,1,28.66-8q17.26,0,30,8.32a46.61,46.61,0,0,1,18.34,22.18,64.08,64.08,0,0,1,22-22.18q13.71-8.33,31.9-8.32,27.1,0,40.83,16.48t13.71,44.84V360H2119V263.28q0-21.88-8.94-31.74t-26.5-9.87a36,36,0,0,0-21.27,6.78,45.83,45.83,0,0,0-14.94,18.19,56.86,56.86,0,0,0-5.4,24.65V360h-26.19V263.59q0-22.2-8.94-32t-26.19-9.87a35.39,35.39,0,0,0-21.27,6.94,46.64,46.64,0,0,0-14.94,18.49,57.88,57.88,0,0,0-5.4,24.81V360h-26.19Z"/><path class="cls-1" d="M2246.85,139.39h25.88V335.08h96.77v25H2246.85Z"/><path class="cls-1" d="M2418.19,354.19a74.73,74.73,0,0,1-27.89-29.74q-10-18.94-10-42.68a93.73,93.73,0,0,1,9.39-41.91,76,76,0,0,1,26.66-30.51q17.25-11.4,40.06-11.4,23.11,0,40.07,10.32a68.71,68.71,0,0,1,26,28.51q9.07,18.18,9.09,41.6a30.5,30.5,0,0,1-.93,8H2406.48q.93,17.88,8.63,30.2a50.17,50.17,0,0,0,19.57,18.49,53,53,0,0,0,24.81,6.17q30.2,0,46.53-28.36l22.19,10.79a79.13,79.13,0,0,1-27.58,30.2q-17.41,11.1-42.07,11.1Q2436.06,365,2418.19,354.19Zm85.67-89.37a51.1,51.1,0,0,0-5.54-19.72q-4.93-9.87-15.57-16.65t-26.65-6.78q-18.49,0-31.28,11.87T2408,264.82Z"/><path class="cls-1" d="M2580.75,418.6q-18-12.94-24.2-31.13l23.73-10.17a47,47,0,0,0,17.42,22q12.16,8.48,28.81,8.47,24.34,0,37.75-13.59t13.41-38.8V337.86h-1.24q-7.69,12-21.72,19.57t-31.9,7.55a68.2,68.2,0,0,1-37.13-10.6q-16.8-10.59-26.66-29.6t-9.86-43.32q0-24,9.86-43.16t26.66-29.76A68.19,68.19,0,0,1,2622.81,198q17.86,0,31.9,7.54a56.72,56.72,0,0,1,21.72,19.88h1.24V202.88h25v151q0,37.9-21,57.78t-55.16,19.88Q2598.77,431.54,2580.75,418.6Zm71.49-84.55a51.26,51.26,0,0,0,18.49-20.66q6.95-13.47,6.94-31.93,0-18.78-6.94-32.24t-18.49-20.5a50.31,50.31,0,0,0-51.62.15A50.94,50.94,0,0,0,2582,249.53q-6.93,13.47-6.94,31.93t6.94,32.08q6.93,13.63,18.64,20.67a49.34,49.34,0,0,0,25.89,7A47.66,47.66,0,0,0,2652.24,334.05Z"/><path class="cls-1" d="M2753.17,358.2a50.74,50.74,0,0,1-21-18.65,49.91,49.91,0,0,1-7.39-27q0-25,18.79-39t47.46-14a107.41,107.41,0,0,1,26.35,3.08q12.18,3.09,18.65,7.09V260.2q0-17.56-12.33-28.2t-31.13-10.63a52.48,52.48,0,0,0-24.34,5.7,44.5,44.5,0,0,0-17.57,15.87L2731,228.15A63,63,0,0,1,2756.4,206a79.84,79.84,0,0,1,35.91-8q32,0,50.38,16.79T2861,260.5V360h-25V337.55h-1.24q-6.78,11.4-20.34,19.41a58.85,58.85,0,0,1-30.5,8Q2766.73,365,2753.17,358.2Zm57.93-23.12a51.35,51.35,0,0,0,18.19-18.18,48,48,0,0,0,6.78-25,64.53,64.53,0,0,0-18.19-8,82.4,82.4,0,0,0-22.8-3.09q-21.57,0-32.51,8.94a28.46,28.46,0,0,0-10.94,23.11,25.7,25.7,0,0,0,9.86,21q9.86,8,25,8A47.39,47.39,0,0,0,2811.1,335.08Z"/><path class="cls-1" d="M2919.89,354a76.28,76.28,0,0,1-28.35-29.89q-10.17-18.94-10.17-42.68t10.17-42.84a75,75,0,0,1,28.35-29.89q18.18-10.78,41-10.78,25.57,0,43,11.86a65,65,0,0,1,24.81,31.59L3005,251.26q-5.86-14.49-17.41-22t-27.9-7.55a47.8,47.8,0,0,0-25.88,7.55,54.87,54.87,0,0,0-19.26,21.11q-7.24,13.57-7.25,31.13t7.25,31.13a54.8,54.8,0,0,0,19.26,21.11,47.8,47.8,0,0,0,25.88,7.55q16.65,0,28.67-7.71a46.12,46.12,0,0,0,17.87-21.88l23.42,9.86A69.2,69.2,0,0,1,3003.87,353q-17.73,12-43,12Q2938.07,365,2919.89,354Z"/><path class="cls-1" d="M3099.86,350.18l-65-147.3h28.35l49.31,116.79h.61l47.46-116.79h28.35l-97.07,223.73h-27.12Z"/><path class="cls-1" d="M3186.3,354.61a17.72,17.72,0,0,1-5.7-13.35,17.41,17.41,0,0,1,5.7-13.07,19.57,19.57,0,0,1,14-5.43,19.17,19.17,0,0,1,13.71,5.43,17.41,17.41,0,0,1,5.7,13.07,17.72,17.72,0,0,1-5.7,13.35,19.17,19.17,0,0,1-13.71,5.43A19.57,19.57,0,0,1,3186.3,354.61Z"/><path class="cls-1" d="M3366.12,178.84h-61.64V139.39h164.88v39.45h-61.64V360h-41.6Z"/><path class="cls-1" d="M3498,354a77.64,77.64,0,0,1-29.74-29.89q-10.62-18.94-10.63-42.68a86.07,86.07,0,0,1,10.63-42.53,77.42,77.42,0,0,1,29.74-30q19.11-10.95,43.45-10.94,24,0,43.15,10.94a77.42,77.42,0,0,1,29.74,30Q3625,258,3625,281.46q0,23.73-10.63,42.68A77.64,77.64,0,0,1,3584.62,354q-19.11,11-43.15,11Q3517.13,365,3498,354Zm65-31.89a40.67,40.67,0,0,0,15.71-16q5.85-10.47,5.86-24.65,0-13.87-5.86-24.35a40.71,40.71,0,0,0-15.71-16,44.71,44.71,0,0,0-43.15,0,41.76,41.76,0,0,0-15.87,16q-6,10.49-6,24.35a48.88,48.88,0,0,0,6,24.5,41.46,41.46,0,0,0,15.87,16.18,44.71,44.71,0,0,0,43.15,0Z"/><path class="cls-1" d="M3672.45,418.14q-19.74-13.41-26.51-32.21l37.91-15.41a40.53,40.53,0,0,0,38.21,25.27q19.11,0,30.36-11.71t11.25-33.28V338.47h-2.47a47.77,47.77,0,0,1-19.42,16q-12,5.55-27.42,5.54a69.4,69.4,0,0,1-36.21-10,73.92,73.92,0,0,1-27-28.35Q3641,303.35,3641,279t10.17-42.68a74,74,0,0,1,27-28.35,69.5,69.5,0,0,1,36.21-10q15.41,0,27.42,5.54a47.77,47.77,0,0,1,19.42,16h2.47V202.88h38.83V349.26q0,25.26-9.87,43.76a68.8,68.8,0,0,1-28,28.51q-18.2,10-42.53,10Q3692.17,431.54,3672.45,418.14Zm79.2-106.63q12-11.86,12-32.52,0-21.25-11.87-32.82t-29.12-11.55a40.36,40.36,0,0,0-29.28,11.71q-12,11.71-12,32.66t12,32.67a40.36,40.36,0,0,0,29.28,11.71A39.77,39.77,0,0,0,3751.65,311.51Z"/><path class="cls-1" d="M3865.67,354.19a77.22,77.22,0,0,1-29.43-29.74q-10.63-18.94-10.63-42.68A86,86,0,0,1,3836.09,240a80.62,80.62,0,0,1,29-30.66,77.06,77.06,0,0,1,41.29-11.4q24.34,0,41.91,10.47a68.36,68.36,0,0,1,26.66,28.66q9.09,18.19,9.09,40.37a96.73,96.73,0,0,1-.92,13.56h-118q3.08,18.81,14.94,28.51t28.51,9.71q13.86,0,23.88-6A44.37,44.37,0,0,0,3948.26,307l32.67,16q-24,41.93-73,41.92Q3884.48,365,3865.67,354.19Zm79.51-91.84a31.17,31.17,0,0,0-5.39-14.63,37.7,37.7,0,0,0-13.25-12,39.8,39.8,0,0,0-19.88-4.78q-14.49,0-24.81,8.47t-14.95,23Z"/><path class="cls-1" d="M4051.19,361.36a42.27,42.27,0,0,1-16-9.9q-14.51-14.13-14.49-40.22V237.39h-27.43V202.88h27.43V158.5h40.37v44.38h38.52v34.51h-38.52v66.87q0,12.35,5.24,17.74,4.32,5.07,14.79,5.07a26.32,26.32,0,0,0,9.71-1.54,75.12,75.12,0,0,0,10-5.24v39.45a75.69,75.69,0,0,1-28.05,5.24A62.19,62.19,0,0,1,4051.19,361.36Z"/><path class="cls-1" d="M4128.54,139.39h40.37v55.78l-2.47,27.43h2.47q6.77-11.1,19.72-17.88a59.66,59.66,0,0,1,28.05-6.77q28.65,0,43.91,17.1t15.25,47.3V360h-40.37V267.28q0-15.09-8.16-23.42t-21.73-8.32q-16,0-26.35,13t-10.32,31.74V360h-40.37Z"/><path class="cls-1" d="M4339.33,354.19a77.09,77.09,0,0,1-29.43-29.74q-10.63-18.94-10.64-42.68A86,86,0,0,1,4309.74,240a80.62,80.62,0,0,1,29-30.66A77.11,77.11,0,0,1,4380,198q24.34,0,41.92,10.47a68.33,68.33,0,0,1,26.65,28.66,89,89,0,0,1,9.1,40.37,95.22,95.22,0,0,1-.93,13.56h-118q3.07,18.81,14.95,28.51t28.5,9.71q13.88,0,23.89-6A44.52,44.52,0,0,0,4421.92,307l32.66,16q-24,41.93-73,41.92Q4358.12,365,4339.33,354.19Zm79.5-91.84a31.17,31.17,0,0,0-5.39-14.63,37.61,37.61,0,0,0-13.25-12,39.77,39.77,0,0,0-19.88-4.78q-14.49,0-24.81,8.47t-14.94,23Z"/><path class="cls-1" d="M4482.62,202.88h37.91v21H4523q5.85-11.09,18.19-18.49a53.9,53.9,0,0,1,46.84-3.7v40.07a128.9,128.9,0,0,0-14-4.47,51.18,51.18,0,0,0-12.18-1.39q-17.86,0-28.35,13T4523,281.58V360h-40.37Z"/><path class="cls-1" d="M4585.71,352.46a24.5,24.5,0,0,1-7.86-18.3,24,24,0,0,1,7.86-18.14,27.85,27.85,0,0,1,37.9,0,24,24,0,0,1,7.86,18.14,24.5,24.5,0,0,1-7.86,18.3,27.48,27.48,0,0,1-37.9,0Z"/></svg>