<svg id="Layer_1" data-name="Layer 1" xmlns="http://www.w3.org/2000/svg" viewBox="0 0 4000 1300"><defs><style>.cls-1{fill:#676c72;}</style></defs><title>010 LBWNT Stacked Bold Tagline</title><path class="cls-1" d="M925.86,655.17h-110v-70.4h294.25v70.4h-110v323.4H925.86Z"/><path class="cls-1" d="M1161.27,967.84a138.6,138.6,0,0,1-53.08-53.35q-19-33.82-19-76.17,0-41.8,19-75.9a138.17,138.17,0,0,1,53.08-53.63q34.1-19.51,77.55-19.52,42.9,0,77,19.52a138.21,138.21,0,0,1,53.07,53.63q19,34.1,19,75.9,0,42.36-19,76.17a138.65,138.65,0,0,1-53.07,53.35q-34.11,19.51-77,19.53Q1195.36,987.37,1161.27,967.84Zm116-56.92a72.63,72.63,0,0,0,28-28.6q10.44-18.71,10.45-44,0-24.75-10.45-43.45a72.63,72.63,0,0,0-28-28.6,79.81,79.81,0,0,0-77,0,74.44,74.44,0,0,0-28.33,28.6q-10.73,18.71-10.72,43.45T1172,882q10.73,19,28.33,28.88a79.81,79.81,0,0,0,77,0Z"/><path class="cls-1" d="M1472.56,1082.24q-35.2-23.92-47.3-57.47l67.65-27.5a72.45,72.45,0,0,0,26.95,33q18.15,12.09,41.25,12.1,34.1,0,54.18-20.9t20.07-59.4v-22H1631a85.31,85.31,0,0,1-34.65,28.6q-21.45,9.9-49,9.9a123.94,123.94,0,0,1-64.62-17.88q-30-17.87-48.13-50.6t-18.15-76.17q0-43.45,18.15-76.18t48.13-50.6a124,124,0,0,1,64.62-17.87q27.5,0,49,9.9a85.39,85.39,0,0,1,34.65,28.6h4.4v-29.7h69.3V959.32q0,45.09-17.6,78.1a122.88,122.88,0,0,1-50,50.87q-32.46,17.87-75.9,17.88Q1507.76,1106.17,1472.56,1082.24Zm141.35-190.3q21.45-21.16,21.45-58,0-37.95-21.17-58.58t-52-20.62q-30.81,0-52.25,20.9t-21.45,58.3q0,37.4,21.45,58.3t52.25,20.9Q1592.45,913.12,1613.91,891.94Z"/><path class="cls-1" d="M1817.42,968.12A137.81,137.81,0,0,1,1764.89,915q-19-33.82-19-76.17a153.46,153.46,0,0,1,18.7-74.53,144,144,0,0,1,51.7-54.72q33-20.34,73.7-20.35,43.44,0,74.8,18.7a122,122,0,0,1,47.57,51.15q16.21,32.46,16.23,72a169.61,169.61,0,0,1-1.66,24.2H1816.32q5.49,33.55,26.67,50.87t50.88,17.33q24.75,0,42.62-10.73A79.3,79.3,0,0,0,1964.82,884l58.3,28.6q-42.9,74.8-130.35,74.8Q1851,987.37,1817.42,968.12Zm141.9-163.9q-1.11-13.2-9.63-26.13T1926,756.64q-15.13-8.52-35.47-8.52-25.86,0-44.28,15.12t-26.67,41Z"/><path class="cls-1" d="M2148.51,980.92q-17.61-6.45-28.6-17.67-25.86-25.23-25.85-71.79V759.67h-49v-61.6h49v-79.2h72.05v79.2h68.75v61.6h-68.75V879q0,22.05,9.35,31.67,7.7,9,26.4,9.05,10.44,0,17.32-2.75a133,133,0,0,0,17.88-9.35V978a135,135,0,0,1-50,9.35A111.29,111.29,0,0,1,2148.51,980.92Z"/><path class="cls-1" d="M2286.55,584.77h72v99.55l-4.4,48.95h4.4q12.09-19.8,35.2-31.9a106.31,106.31,0,0,1,50-12.1q51.15,0,78.38,30.52t27.22,84.43V978.57h-72V813q0-26.94-14.57-41.8t-38.78-14.85q-28.61,0-47,23.1t-18.43,56.65V978.57h-72Z"/><path class="cls-1" d="M2662.75,968.12A137.81,137.81,0,0,1,2610.22,915q-19-33.82-19-76.17a153.46,153.46,0,0,1,18.7-74.53,144,144,0,0,1,51.7-54.72q33-20.34,73.7-20.35,43.44,0,74.8,18.7a122,122,0,0,1,47.57,51.15q16.22,32.46,16.23,72a171.12,171.12,0,0,1-1.65,24.2H2661.65q5.49,33.55,26.67,50.87t50.88,17.33q24.75,0,42.62-10.73A79.3,79.3,0,0,0,2810.15,884l58.3,28.6q-42.9,74.8-130.35,74.8Q2696.3,987.37,2662.75,968.12Zm141.9-163.9q-1.11-13.2-9.63-26.13t-23.65-21.45q-15.13-8.52-35.47-8.52-25.86,0-44.28,15.12t-26.67,41Z"/><path class="cls-1" d="M2918.49,698.07h67.65v37.4h4.4q10.44-19.8,32.45-33a92.3,92.3,0,0,1,48.4-13.2,91.24,91.24,0,0,1,35.2,6.6v71.5a233.16,233.16,0,0,0-25-8,91.78,91.78,0,0,0-21.73-2.47q-31.9,0-50.6,23.16t-18.7,58.44V978.57h-72.05Z"/><path class="cls-1" d="M3102.46,965q-14-13.53-14-32.66a42.91,42.91,0,0,1,14-32.38q14-13.28,33.83-13.27T3170.11,900a42.92,42.92,0,0,1,14,32.38q0,19.13-14,32.66a49,49,0,0,1-67.65,0Z"/><path class="cls-1" d="M664.06,198.23h23.1V372.86h86.35v22.27H664.06Z"/><path class="cls-1" d="M817,389.91a66.82,66.82,0,0,1-24.89-26.54q-8.94-16.9-8.93-38.09a83.61,83.61,0,0,1,8.38-37.4,67.85,67.85,0,0,1,23.79-27.22q15.41-10.17,35.75-10.18,20.63,0,35.75,9.22a61.19,61.19,0,0,1,23.24,25.43q8.1,16.23,8.11,37.13a27.41,27.41,0,0,1-.82,7.15H806.51q.82,15.94,7.7,26.95a44.88,44.88,0,0,0,17.46,16.5,47.38,47.38,0,0,0,22.14,5.5q27,0,41.53-25.3l19.8,9.62a70.59,70.59,0,0,1-24.62,26.95q-15.54,9.9-37.54,9.9Q832.91,399.53,817,389.91Zm76.45-79.75a45.64,45.64,0,0,0-4.95-17.6,37.5,37.5,0,0,0-13.89-14.85q-9.48-6-23.78-6-16.5,0-27.92,10.59t-15,27.91Z"/><path class="cls-1" d="M973.84,396.74a36,36,0,0,1-12.23-7.57,34.37,34.37,0,0,1-8.25-12.32q-2.76-7-2.75-17.08V276.06H926.13V254.88h24.48v-39.6H974v39.6h34.1v21.18H974V354.2q0,11.81,4.4,17.43,5.22,6.18,15.13,6.18a28.51,28.51,0,0,0,15.4-4.68V396a36.13,36.13,0,0,1-8.39,2.75,58.86,58.86,0,0,1-10.86.82A43.88,43.88,0,0,1,973.84,396.74Z"/><path class="cls-1" d="M1027.06,247.73l13.47-20.62a15.68,15.68,0,0,1-12.65-15.68,17,17,0,0,1,5.09-12.51,16.69,16.69,0,0,1,12.24-5.09,17.38,17.38,0,0,1,17.6,17.6A21.26,21.26,0,0,1,1061,220a66.35,66.35,0,0,1-5.64,9.9l-17.32,25Z"/><path class="cls-1" d="M1085.63,389a57.84,57.84,0,0,1-21.45-27.09l20.9-9.35A42,42,0,0,0,1100.62,372a40,40,0,0,0,22.69,6.88q13.2,0,22.55-5.36t9.35-15.27a16.68,16.68,0,0,0-7.43-14.16q-7.42-5.36-23.37-9.21l-17.05-4.4q-16.78-4.12-27.5-14t-10.73-25.57a33.35,33.35,0,0,1,7.29-21.31,46.67,46.67,0,0,1,19.39-14.17,68.28,68.28,0,0,1,26.12-5q18.42,0,32.87,8t20.48,22.27l-20.35,9.35q-9.35-18.69-33.27-18.7a37.55,37.55,0,0,0-20.21,5.37q-8.67,5.36-8.67,13.61a15.24,15.24,0,0,0,6,12.51q6,4.81,18.15,7.84l20.35,5.22q20.63,5.24,31.08,15.54a34,34,0,0,1,10.45,25.16,36.44,36.44,0,0,1-7.43,22.69,47.19,47.19,0,0,1-20.07,15,72.92,72.92,0,0,1-28,5.22Q1100.75,399.53,1085.63,389Z"/><path class="cls-1" d="M1261.91,198.23h70.67a59.1,59.1,0,0,1,27.91,6.88,53.92,53.92,0,0,1,20.77,19,49.7,49.7,0,0,1,7.7,27.23,43.5,43.5,0,0,1-7.29,25,47.52,47.52,0,0,1-19.66,16.5v1.1a49.82,49.82,0,0,1,24.2,17.05,45,45,0,0,1,9.35,28.33,52.54,52.54,0,0,1-8.12,28.74A56.21,56.21,0,0,1,1365.72,388a62,62,0,0,1-29.29,7.15h-74.52Zm70.67,85.25a32.48,32.48,0,0,0,17.46-4.67,33.2,33.2,0,0,0,11.69-12,30.09,30.09,0,0,0,4.13-15,30.46,30.46,0,0,0-4-14.71,32.79,32.79,0,0,0-11.28-12,30.67,30.67,0,0,0-16.91-4.67H1285v63Zm5.23,89.38a32.48,32.48,0,0,0,17.73-4.95,34.31,34.31,0,0,0,12.1-12.79,33.31,33.31,0,0,0,4.27-16.09,32.47,32.47,0,0,0-4.4-16.08,34.12,34.12,0,0,0-12.38-12.65,35,35,0,0,0-18.42-4.82H1285v67.38Z"/><path class="cls-1" d="M1430.61,384.68q-13.33-14.85-13.33-41.52V254.88h23.37v84.7q0,20.09,9.08,29.43t24.47,9.35a36.27,36.27,0,0,0,21-6.33,42.88,42.88,0,0,0,14.3-16.5,47.35,47.35,0,0,0,5.09-21.45v-79.2H1538V395.13h-22.27V374.78h-1.1q-5.78,10.46-18.43,17.6a53.88,53.88,0,0,1-27,7.15Q1443.95,399.53,1430.61,384.68Z"/><path class="cls-1" d="M1569.07,224.36a16.14,16.14,0,0,1-5-11.83,15.68,15.68,0,0,1,5-11.68,16.92,16.92,0,0,1,23.65,0,15.68,15.68,0,0,1,5,11.68,16.36,16.36,0,0,1-4.81,11.83,16.77,16.77,0,0,1-23.79,0Zm.28,30.52h23.1V395.13h-23.1Z"/><path class="cls-1" d="M1623.8,198.23h23.37v196.9H1623.8Z"/><path class="cls-1" d="M1700.39,389.91a67.37,67.37,0,0,1-24.06-26.54q-8.8-16.9-8.8-38.36,0-21.18,8.8-38.23a67.2,67.2,0,0,1,24.06-26.67,62.31,62.31,0,0,1,34-9.63,56.91,56.91,0,0,1,28.88,7.29q12.64,7.29,19.25,18h1.1l-1.1-19.52v-58h23.37v196.9h-22.27V374.51h-1.1q-6.6,10.46-19.25,17.74t-28.88,7.28A62.39,62.39,0,0,1,1700.39,389.91Zm59.67-18.15a48.2,48.2,0,0,0,17-18.7q6.47-12.1,6.47-28.05T1777.11,297a48.2,48.2,0,0,0-17-18.7,43,43,0,0,0-45.78,0,47.57,47.57,0,0,0-17.19,18.84q-6.46,12.24-6.46,27.91t6.46,27.91a47.57,47.57,0,0,0,17.19,18.84,43,43,0,0,0,45.78,0Z"/><path class="cls-1" d="M1869.65,198.23h25.85l35.75,144.65,3.3,13.48h1.1l4.12-13.48,44-144.65H2008l42.08,144.65,4.12,13.48h1.1l38.78-158.13h25.85l-53.08,196.9h-24.2l-41.8-142.45-4.4-15.4h-1.1l-4.67,15.4L1947.2,395.13H1923Z"/><path class="cls-1" d="M2136.4,198.23h23.37v58l-1.1,19.25h1.1q5.78-10.72,18.29-17.88a54.25,54.25,0,0,1,27.36-7.15q25.57,0,39,15t13.47,39.74v89.92h-23.37V308.78q0-19-9.63-28t-25-9.07a34,34,0,0,0-20.21,6.6A48.56,48.56,0,0,0,2159.77,317v78.1H2136.4Z"/><path class="cls-1" d="M2302,393.48a45.25,45.25,0,0,1-18.7-16.63,44.55,44.55,0,0,1-6.6-24.07q0-22.27,16.77-34.78t42.35-12.52a95.77,95.77,0,0,1,23.51,2.75q10.86,2.76,16.64,6.33V306q0-15.67-11-25.16t-27.77-9.49a46.85,46.85,0,0,0-21.73,5.09,39.74,39.74,0,0,0-15.67,14.16l-17.6-13.2a56.28,56.28,0,0,1,22.68-19.8,71.31,71.31,0,0,1,32-7.15q28.61,0,45,15t16.37,40.84v88.82h-22.28V375.06h-1.1q-6,10.17-18.15,17.32a52.47,52.47,0,0,1-27.22,7.15A60.68,60.68,0,0,1,2302,393.48Zm51.7-20.62a45.78,45.78,0,0,0,16.22-16.23,42.79,42.79,0,0,0,6.05-22.27,57.78,57.78,0,0,0-16.22-7.15,73.88,73.88,0,0,0-20.35-2.75q-19.26,0-29,8a25.42,25.42,0,0,0-9.76,20.63,22.94,22.94,0,0,0,8.8,18.7q8.8,7.15,22.28,7.15A42.35,42.35,0,0,0,2353.65,372.86Z"/><path class="cls-1" d="M2460.48,396.74a36,36,0,0,1-12.24-7.57,34.63,34.63,0,0,1-8.25-12.32,46.88,46.88,0,0,1-2.75-17.08V276.06h-24.47V254.88h24.47v-39.6h23.38v39.6h34.1v21.18h-34.1V354.2q0,11.81,4.4,17.43,5.22,6.18,15.13,6.18a28.45,28.45,0,0,0,15.39-4.68V396a36.06,36.06,0,0,1-8.38,2.75,59,59,0,0,1-10.87.82A43.87,43.87,0,0,1,2460.48,396.74Z"/><path class="cls-1" d="M2513.69,247.73l13.48-20.62a15,15,0,0,1-8.8-5.09,15.19,15.19,0,0,1-3.85-10.59,17,17,0,0,1,5.09-12.51,16.67,16.67,0,0,1,12.23-5.09,17.37,17.37,0,0,1,17.6,17.6,21.25,21.25,0,0,1-1.78,8.53,67.25,67.25,0,0,1-5.64,9.9l-17.33,25Z"/><path class="cls-1" d="M2572.27,389a57.84,57.84,0,0,1-21.45-27.09l20.9-9.35A42,42,0,0,0,2587.26,372a40,40,0,0,0,22.69,6.88q13.2,0,22.55-5.36t9.35-15.27a16.68,16.68,0,0,0-7.43-14.16q-7.43-5.36-23.37-9.21l-17.05-4.4q-16.78-4.12-27.5-14t-10.73-25.57a33.35,33.35,0,0,1,7.29-21.31,46.6,46.6,0,0,1,19.39-14.17,68.28,68.28,0,0,1,26.12-5q18.42,0,32.86,8t20.49,22.27l-20.35,9.35q-9.34-18.69-33.27-18.7a37.61,37.61,0,0,0-20.22,5.37q-8.65,5.36-8.66,13.61a15.24,15.24,0,0,0,6,12.51q6,4.81,18.15,7.84l20.35,5.22q20.63,5.24,31.08,15.54a34,34,0,0,1,10.45,25.16,36.44,36.44,0,0,1-7.43,22.69,47.19,47.19,0,0,1-20.07,15,72.92,72.92,0,0,1-28.05,5.22Q2587.39,399.53,2572.27,389Z"/><path class="cls-1" d="M2748.54,198.23h28.6L2875.87,355h1.1l-1.1-38V198.23h23.37v196.9H2875L2771.64,231h-1.1l1.1,38V395.13h-23.1Z"/><path class="cls-1" d="M2959.47,389.91a66.68,66.68,0,0,1-24.89-26.54q-8.94-16.9-8.94-38.09a83.48,83.48,0,0,1,8.39-37.4,67.85,67.85,0,0,1,23.79-27.22q15.39-10.17,35.75-10.18,20.63,0,35.75,9.22a61.17,61.17,0,0,1,23.23,25.43q8.11,16.23,8.12,37.13a27.38,27.38,0,0,1-.83,7.15H2949q.83,15.94,7.7,26.95a44.88,44.88,0,0,0,17.46,16.5,47.35,47.35,0,0,0,22.14,5.5q26.94,0,41.52-25.3l19.8,9.62A70.65,70.65,0,0,1,3033,389.63q-15.54,9.9-37.54,9.9Q2975.42,399.53,2959.47,389.91Zm76.45-79.75a45.64,45.64,0,0,0-5-17.6,37.65,37.65,0,0,0-13.89-14.85q-9.49-6-23.79-6-16.5,0-27.91,10.59t-15,27.91Z"/><path class="cls-1" d="M3115.39,323.91l-48.67-69h26.39l36.3,52,34.93-52h27.22l-48.95,69,50,71.22h-27.22l-36.58-53.9-35.75,53.9h-27.22Z"/><path class="cls-1" d="M3246.15,396.74a36,36,0,0,1-12.24-7.57,34.37,34.37,0,0,1-8.25-12.32,46.88,46.88,0,0,1-2.75-17.08V276.06h-24.47V254.88h24.47v-39.6h23.38v39.6h34.1v21.18h-34.1V354.2q0,11.81,4.4,17.43,5.22,6.18,15.12,6.18a28.48,28.48,0,0,0,15.4-4.68V396a36.06,36.06,0,0,1-8.38,2.75,59,59,0,0,1-10.87.82A43.87,43.87,0,0,1,3246.15,396.74Z"/><path class="cls-1" d="M3306.1,390.29a15.83,15.83,0,0,1-5.09-11.92,15.52,15.52,0,0,1,5.09-11.66,17.45,17.45,0,0,1,12.51-4.85,17.11,17.11,0,0,1,12.24,4.85,15.52,15.52,0,0,1,5.09,11.66,15.83,15.83,0,0,1-5.09,11.92,17.1,17.1,0,0,1-12.24,4.84A17.44,17.44,0,0,1,3306.1,390.29Z"/></svg>