<svg id="Layer_1" data-name="Layer 1" xmlns="http://www.w3.org/2000/svg" viewBox="0 0 4800 500"><defs><style>.cls-1{fill:#676c72;}</style></defs><title>012 BWNTL Tagline</title><path class="cls-1" d="M255.43,151.55h70.68A59.09,59.09,0,0,1,354,158.42a53.92,53.92,0,0,1,20.76,19,49.66,49.66,0,0,1,7.7,27.22q0,14.31-7.29,25a47.52,47.52,0,0,1-19.66,16.5v1.1a49.7,49.7,0,0,1,24.2,17.05,45,45,0,0,1,9.35,28.32A52.56,52.56,0,0,1,381,321.36a56.12,56.12,0,0,1-21.73,19.94A62,62,0,0,1,330,348.45H255.43Zm70.68,85.25a32.51,32.51,0,0,0,17.46-4.68,33.12,33.12,0,0,0,11.69-12,30,30,0,0,0,4.12-15,30.35,30.35,0,0,0-4-14.71,32.89,32.89,0,0,0-11.27-12,30.62,30.62,0,0,0-16.91-4.68H278.53v63Zm5.22,89.37a32.45,32.45,0,0,0,17.74-4.95,34.52,34.52,0,0,0,12.1-12.78,33.32,33.32,0,0,0,4.26-16.09,32.54,32.54,0,0,0-4.4-16.09,34.16,34.16,0,0,0-12.37-12.65,35.05,35.05,0,0,0-18.43-4.81h-51.7v67.37Z"/><path class="cls-1" d="M424.14,338q-13.33-14.85-13.34-41.53V208.2h23.38v84.7q0,20.09,9.07,29.42t24.48,9.35a36.23,36.23,0,0,0,21-6.32,42.94,42.94,0,0,0,14.3-16.5,47.22,47.22,0,0,0,5.09-21.45V208.2h23.38V348.45H509.25V328.1h-1.1q-5.77,10.45-18.42,17.6a54,54,0,0,1-27,7.15Q437.48,352.85,424.14,338Z"/><path class="cls-1" d="M562.6,177.67a16.12,16.12,0,0,1-5-11.82,15.7,15.7,0,0,1,5-11.69,16.94,16.94,0,0,1,23.65,0,15.7,15.7,0,0,1,5,11.69,16.38,16.38,0,0,1-4.81,11.82,16.77,16.77,0,0,1-23.79,0Zm.27,30.53H586V348.45h-23.1Z"/><path class="cls-1" d="M617.32,151.55H640.7v196.9H617.32Z"/><path class="cls-1" d="M693.91,343.22a67.49,67.49,0,0,1-24.06-26.53q-8.8-16.92-8.8-38.37,0-21.17,8.8-38.22a67.31,67.31,0,0,1,24.06-26.68,62.45,62.45,0,0,1,34-9.62q16.22,0,28.87,7.29t19.25,18h1.1L776,209.57v-58h23.38v196.9H777.1V327.82H776q-6.6,10.46-19.25,17.74t-28.87,7.29A62.37,62.37,0,0,1,693.91,343.22Zm59.68-18.15a48.32,48.32,0,0,0,17-18.69q6.45-12.11,6.46-28.06t-6.46-28a48.31,48.31,0,0,0-17-18.71,43,43,0,0,0-45.79,0,47.71,47.71,0,0,0-17.19,18.84q-6.47,12.24-6.46,27.91t6.46,27.92a47.62,47.62,0,0,0,17.19,18.83,43,43,0,0,0,45.79,0Z"/><path class="cls-1" d="M863.17,151.55H889L924.77,296.2l3.3,13.47h1.1l4.13-13.47,44-144.65h24.2l42.07,144.65,4.13,13.47h1.1l38.77-158.12h25.85l-53.07,196.9h-24.2L994.35,206,990,190.6h-1.1L984.17,206,940.72,348.45h-24.2Z"/><path class="cls-1" d="M1129.92,151.55h23.38v58l-1.11,19.25h1.11q5.76-10.73,18.28-17.87a54.17,54.17,0,0,1,27.36-7.15q25.59,0,39.06,15t13.47,39.74v89.92h-23.38V262.1q0-19-9.62-28.05t-25-9.08a34,34,0,0,0-20.21,6.6,48.59,48.59,0,0,0-19.93,38.78v78.1h-23.38Z"/><path class="cls-1" d="M1295.47,346.8a45.27,45.27,0,0,1-18.7-16.64,44.52,44.52,0,0,1-6.6-24.06q0-22.28,16.78-34.79t42.35-12.51a95.82,95.82,0,0,1,23.51,2.75q10.86,2.74,16.64,6.33v-8.53q0-15.68-11-25.16t-27.78-9.49a46.84,46.84,0,0,0-21.72,5.09A39.69,39.69,0,0,0,1293.27,244l-17.6-13.2a56.24,56.24,0,0,1,22.69-19.8,71.12,71.12,0,0,1,32-7.15q28.59,0,45,15t16.36,40.83v88.83h-22.27V328.38h-1.1q-6.06,10.17-18.15,17.32a52.6,52.6,0,0,1-27.23,7.15A60.71,60.71,0,0,1,1295.47,346.8Zm51.7-20.63A45.94,45.94,0,0,0,1363.4,310a42.82,42.82,0,0,0,6-22.28,57.71,57.71,0,0,0-16.23-7.14,73.5,73.5,0,0,0-20.35-2.75q-19.24,0-29,8a25.4,25.4,0,0,0-9.76,20.63,22.92,22.92,0,0,0,8.8,18.69q8.79,7.15,22.27,7.15A42.23,42.23,0,0,0,1347.17,326.17Z"/><path class="cls-1" d="M1454,350.05a35.84,35.84,0,0,1-12.24-7.56,34.37,34.37,0,0,1-8.25-12.32,46.71,46.71,0,0,1-2.75-17.08V229.38H1406.3V208.2h24.47V168.6h23.37v39.6h34.11v21.18h-34.11v78.13q0,11.81,4.41,17.43,5.22,6.19,15.12,6.18a28.47,28.47,0,0,0,15.4-4.67v22.83a37.1,37.1,0,0,1-8.39,2.75,59.75,59.75,0,0,1-10.86.82A43.83,43.83,0,0,1,1454,350.05Z"/><path class="cls-1" d="M1507.22,201.05l13.47-20.63a15,15,0,0,1-8.8-5.08,15.19,15.19,0,0,1-3.85-10.59,17,17,0,0,1,5.09-12.51,16.69,16.69,0,0,1,12.24-5.09,17.38,17.38,0,0,1,17.6,17.6,21.3,21.3,0,0,1-1.79,8.53,65.44,65.44,0,0,1-5.64,9.89l-17.32,25Z"/><path class="cls-1" d="M1565.8,342.26a57.67,57.67,0,0,1-21.45-27.09l20.9-9.35a41.92,41.92,0,0,0,15.54,19.53,40,40,0,0,0,22.68,6.87q13.2,0,22.55-5.36t9.35-15.26a16.65,16.65,0,0,0-7.42-14.16q-7.42-5.37-23.38-9.22l-17-4.4q-16.77-4.12-27.5-14t-10.72-25.58a33.33,33.33,0,0,1,7.29-21.31A46.55,46.55,0,0,1,1576,208.75a68.37,68.37,0,0,1,26.13-4.95q18.42,0,32.86,8a45.09,45.09,0,0,1,20.49,22.27l-20.35,9.35q-9.36-18.71-33.28-18.7a37.66,37.66,0,0,0-20.21,5.36q-8.65,5.37-8.66,13.61a15.23,15.23,0,0,0,6,12.52q6,4.81,18.15,7.84l20.35,5.22q20.63,5.22,31.07,15.54A34,34,0,0,1,1659,310a36.43,36.43,0,0,1-7.42,22.69,47.2,47.2,0,0,1-20.08,15,72.66,72.66,0,0,1-28,5.23Q1580.93,352.85,1565.8,342.26Z"/><path class="cls-1" d="M1742.07,151.55h28.6l98.72,156.75h1.1l-1.1-37.95V151.55h23.38v196.9h-24.2l-103.4-164.17h-1.1l1.1,37.94V348.45h-23.1Z"/><path class="cls-1" d="M1953,343.22a66.79,66.79,0,0,1-24.89-26.53q-8.94-16.92-8.93-38.09a83.61,83.61,0,0,1,8.38-37.4A67.88,67.88,0,0,1,1951.34,214q15.4-10.17,35.75-10.17,20.63,0,35.75,9.21a61.22,61.22,0,0,1,23.24,25.44q8.1,16.23,8.11,37.12a27.36,27.36,0,0,1-.82,7.15H1942.54q.82,16,7.7,26.95a44.74,44.74,0,0,0,17.46,16.5,47.38,47.38,0,0,0,22.14,5.5q27,0,41.53-25.29l19.8,9.62A70.59,70.59,0,0,1,2026.55,343q-15.54,9.9-37.53,9.9Q1968.94,352.85,1953,343.22Zm76.45-79.75a45.59,45.59,0,0,0-5-17.59A37.5,37.5,0,0,0,2010.6,231q-9.48-6.06-23.78-6.06-16.5,0-27.92,10.59t-15,27.91Z"/><path class="cls-1" d="M2108.92,277.22l-48.68-69h26.4l36.3,52,34.93-52h27.22l-49,69,50.05,71.23H2159l-36.58-53.9-35.75,53.9h-27.22Z"/><path class="cls-1" d="M2239.68,350.05a35.84,35.84,0,0,1-12.24-7.56,34.37,34.37,0,0,1-8.25-12.32,46.71,46.71,0,0,1-2.75-17.08V229.38H2192V208.2h24.48V168.6h23.37v39.6h34.1v21.18h-34.1v78.13q0,11.81,4.4,17.43,5.22,6.19,15.13,6.18a28.5,28.5,0,0,0,15.4-4.67v22.83a37.1,37.1,0,0,1-8.39,2.75,59.75,59.75,0,0,1-10.86.82A43.79,43.79,0,0,1,2239.68,350.05Z"/><path class="cls-1" d="M2299.63,343.6a15.78,15.78,0,0,1-5.09-11.92,15.5,15.5,0,0,1,5.09-11.66,17.45,17.45,0,0,1,12.51-4.85,17.15,17.15,0,0,1,12.24,4.85,15.53,15.53,0,0,1,5.08,11.66,15.81,15.81,0,0,1-5.08,11.92,17.15,17.15,0,0,1-12.24,4.85A17.45,17.45,0,0,1,2299.63,343.6Z"/><path class="cls-1" d="M2449.09,171.62h-55.28V149.35h133.65v22.27h-55V346.25h-23.37Z"/><path class="cls-1" d="M2530.21,206h22.27v22.55h1.1q4.13-11.55,16-19.25a44.69,44.69,0,0,1,24.75-7.7,40.9,40.9,0,0,1,16.5,3v25a43.73,43.73,0,0,0-19.8-4.4,32.59,32.59,0,0,0-18.7,5.79,41.66,41.66,0,0,0-13.61,15.57,45,45,0,0,0-5.09,21.09v78.55h-23.37Z"/><path class="cls-1" d="M2639.66,344.6A45.27,45.27,0,0,1,2621,328a44.52,44.52,0,0,1-6.6-24.06q0-22.27,16.78-34.79t42.35-12.51a95.77,95.77,0,0,1,23.51,2.75q10.86,2.76,16.64,6.33v-8.53q0-15.67-11-25.16t-27.78-9.49a46.84,46.84,0,0,0-21.72,5.09,39.69,39.69,0,0,0-15.68,14.16l-17.6-13.2a56.24,56.24,0,0,1,22.69-19.8,71.12,71.12,0,0,1,32-7.15q28.59,0,45,15t16.36,40.84v88.82h-22.27V326.18h-1.1q-6.06,10.17-18.15,17.32a52.5,52.5,0,0,1-27.23,7.15A60.71,60.71,0,0,1,2639.66,344.6Zm51.7-20.63a45.77,45.77,0,0,0,16.23-16.22,42.82,42.82,0,0,0,6-22.28,57.71,57.71,0,0,0-16.23-7.14,73.5,73.5,0,0,0-20.35-2.75q-19.24,0-29,8a25.4,25.4,0,0,0-9.76,20.63,22.94,22.94,0,0,0,8.8,18.7q8.79,7.14,22.27,7.15A42.24,42.24,0,0,0,2691.36,324Z"/><path class="cls-1" d="M2762.86,206h22.27v20.62h1.1q5.78-10.44,18.43-17.73a53.09,53.09,0,0,1,27-7.29q25.29,0,38.64,14.71t13.33,40v89.92h-23.37V259.9q0-19.53-9.35-28.32t-25.58-8.8a34.1,34.1,0,0,0-20.21,6.32,42.5,42.5,0,0,0-13.89,16.64,49.28,49.28,0,0,0-4.95,21.59v78.92h-23.37Z"/><path class="cls-1" d="M2921.53,340.06A57.8,57.8,0,0,1,2900.08,313l20.9-9.35a42,42,0,0,0,15.54,19.53,40.1,40.1,0,0,0,22.69,6.88q13.2,0,22.55-5.37t9.35-15.26a16.67,16.67,0,0,0-7.43-14.16q-7.42-5.37-23.37-9.21l-17-4.41q-16.78-4.11-27.5-14T2905,242a33.4,33.4,0,0,1,7.29-21.32,46.65,46.65,0,0,1,19.39-14.16,68.28,68.28,0,0,1,26.12-5q18.42,0,32.87,8a45.07,45.07,0,0,1,20.48,22.27l-20.35,9.35q-9.35-18.7-33.27-18.7a37.63,37.63,0,0,0-20.21,5.36q-8.67,5.37-8.67,13.61a15.26,15.26,0,0,0,6.05,12.52q6,4.81,18.15,7.84l20.35,5.22q20.63,5.24,31.08,15.54a34,34,0,0,1,10.45,25.16,36.44,36.44,0,0,1-7.43,22.69,47.19,47.19,0,0,1-20.07,15,72.92,72.92,0,0,1-28.05,5.22Q2936.65,350.65,2921.53,340.06Z"/><path class="cls-1" d="M3051.06,227.18h-25.85V206h25.85V190.88q0-13.2,6.05-23.1a41.27,41.27,0,0,1,16.22-15.27,47.66,47.66,0,0,1,22.55-5.36,58.7,58.7,0,0,1,20.63,3.3v22.83q-5-1.93-9.35-3.17a39.17,39.17,0,0,0-10.45-1.23,21.64,21.64,0,0,0-15.68,6.46q-6.6,6.47-6.6,18V206h36v21.18h-36V346.25h-23.37Z"/><path class="cls-1" d="M3152.53,340.75a69.19,69.19,0,0,1-25.71-26.95,81.66,81.66,0,0,1,0-75.35,69.26,69.26,0,0,1,25.71-26.95,74.56,74.56,0,0,1,74.25,0,69.26,69.26,0,0,1,25.71,26.95,81.58,81.58,0,0,1,0,75.35,69.19,69.19,0,0,1-25.71,26.95,74.56,74.56,0,0,1-74.25,0ZM3213.72,323a47.72,47.72,0,0,0,17.88-18.56q6.74-12.1,6.73-28.33t-6.73-28.32a47.78,47.78,0,0,0-17.88-18.56,47.11,47.11,0,0,0-24.06-6.46,47.75,47.75,0,0,0-42.21,25q-6.75,12.1-6.74,28.32t6.74,28.33a47.33,47.33,0,0,0,18,18.56,47.82,47.82,0,0,0,24.2,6.46A47.11,47.11,0,0,0,3213.72,323Z"/><path class="cls-1" d="M3280.68,206H3303v22.55h1.1q4.13-11.55,16-19.25a44.69,44.69,0,0,1,24.75-7.7,41,41,0,0,1,16.5,3v25a43.73,43.73,0,0,0-19.8-4.4,32.56,32.56,0,0,0-18.7,5.79,41.58,41.58,0,0,0-13.61,15.57,44.93,44.93,0,0,0-5.09,21.09v78.55h-23.38Z"/><path class="cls-1" d="M3378.31,206h22.27v20.62h1.1q6-10.73,18.15-17.87a49.47,49.47,0,0,1,25.58-7.15q15.39,0,26.81,7.43a41.56,41.56,0,0,1,16.36,19.8,57.16,57.16,0,0,1,19.66-19.8q12.24-7.42,28.47-7.43,24.2,0,36.44,14.71t12.23,40v89.92h-23.1V259.9q0-19.53-8-28.32t-23.65-8.8a32,32,0,0,0-19,6.05,40.9,40.9,0,0,0-13.34,16.22,51,51,0,0,0-4.81,22v79.2h-23.37V260.18q0-19.81-8-28.6t-23.37-8.8a31.57,31.57,0,0,0-19,6.18,41.86,41.86,0,0,0-13.34,16.5,51.86,51.86,0,0,0-4.81,22.14v78.65h-23.37Z"/><path class="cls-1" d="M3676.41,149.35h23.1V324h86.35v22.28H3676.41Z"/><path class="cls-1" d="M3829.31,341a66.75,66.75,0,0,1-24.89-26.54q-8.94-16.92-8.94-38.09a83.48,83.48,0,0,1,8.39-37.4,67.79,67.79,0,0,1,23.79-27.22q15.39-10.18,35.75-10.18,20.63,0,35.75,9.21a61.26,61.26,0,0,1,23.23,25.44q8.12,16.23,8.11,37.13a27.46,27.46,0,0,1-.82,7.15H3818.86q.82,15.95,7.7,26.94A44.74,44.74,0,0,0,3844,324a47.35,47.35,0,0,0,22.14,5.5q26.94,0,41.52-25.29l19.8,9.62a70.65,70.65,0,0,1-24.61,26.95q-15.54,9.9-37.54,9.9Q3845.26,350.65,3829.31,341Zm76.44-79.75a45.4,45.4,0,0,0-4.94-17.6,37.65,37.65,0,0,0-13.89-14.85q-9.49-6.06-23.79-6.05-16.5,0-27.91,10.58t-15,27.92Z"/><path class="cls-1" d="M3974.36,398.5q-16.08-11.55-21.59-27.78l21.18-9.07a41.84,41.84,0,0,0,15.54,19.66q10.86,7.56,25.71,7.57,21.72,0,33.69-12.13t12-34.63V326.45h-1.1a51.39,51.39,0,0,1-19.39,17.46,59.09,59.09,0,0,1-28.46,6.74,60.88,60.88,0,0,1-33.14-9.45A66.93,66.93,0,0,1,3955,314.78q-8.8-17-8.8-38.66,0-21.4,8.8-38.51t23.79-26.55a60.81,60.81,0,0,1,33.14-9.46,59.09,59.09,0,0,1,28.46,6.74,50.52,50.52,0,0,1,19.39,17.74h1.1V206h22.27V340.75q0,33.83-18.7,51.56t-49.22,17.74Q3990.45,410.05,3974.36,398.5Zm63.8-75.45a45.7,45.7,0,0,0,16.5-18.43q6.2-12,6.19-28.5,0-16.75-6.19-28.76a44.75,44.75,0,0,0-16.5-18.3,44.94,44.94,0,0,0-46.06.14,45.47,45.47,0,0,0-16.64,18.44q-6.18,12-6.19,28.48t6.19,28.64a43.29,43.29,0,0,0,39.74,24.71A42.47,42.47,0,0,0,4038.16,323.05Z"/><path class="cls-1" d="M4128.22,344.6a45.27,45.27,0,0,1-18.7-16.64,44.52,44.52,0,0,1-6.6-24.06q0-22.27,16.78-34.79t42.35-12.51a95.77,95.77,0,0,1,23.51,2.75q10.86,2.76,16.64,6.33v-8.53q0-15.67-11-25.16t-27.78-9.49a46.84,46.84,0,0,0-21.72,5.09A39.69,39.69,0,0,0,4126,241.75l-17.6-13.2a56.31,56.31,0,0,1,22.69-19.8,71.15,71.15,0,0,1,32-7.15q28.59,0,45,15t16.36,40.84v88.82H4202.2V326.18h-1.1Q4195,336.35,4183,343.5a52.5,52.5,0,0,1-27.23,7.15A60.71,60.71,0,0,1,4128.22,344.6Zm51.7-20.63a45.77,45.77,0,0,0,16.23-16.22,42.82,42.82,0,0,0,6.05-22.28,57.71,57.71,0,0,0-16.23-7.14,73.5,73.5,0,0,0-20.35-2.75q-19.24,0-29,8a25.4,25.4,0,0,0-9.76,20.63,22.94,22.94,0,0,0,8.8,18.7q8.79,7.14,22.27,7.15A42.24,42.24,0,0,0,4179.92,324Z"/><path class="cls-1" d="M4277,340.89a68.09,68.09,0,0,1-25.3-26.68q-9.07-16.9-9.08-38.09t9.08-38.22a67,67,0,0,1,25.3-26.68q16.22-9.61,36.57-9.62,22.83,0,38.37,10.59a58,58,0,0,1,22.13,28.19l-21.17,8.8q-5.23-12.93-15.54-19.67t-24.89-6.73a42.65,42.65,0,0,0-23.1,6.73,48.93,48.93,0,0,0-17.18,18.84q-6.46,12.11-6.47,27.77t6.47,27.78a48.79,48.79,0,0,0,17.18,18.84,42.65,42.65,0,0,0,23.1,6.73q14.85,0,25.58-6.87A41.16,41.16,0,0,0,4354,303.08l20.9,8.8a61.75,61.75,0,0,1-23,28.05q-15.82,10.72-38.37,10.72A69.59,69.59,0,0,1,4277,340.89Z"/><path class="cls-1" d="M4437.59,337.45l-58-131.45h25.3l44,104.22h.55L4491.77,206h25.3l-86.62,199.65h-24.21Z"/><path class="cls-1" d="M4514.73,341.4a15.81,15.81,0,0,1-5.08-11.92,15.53,15.53,0,0,1,5.08-11.66,17.47,17.47,0,0,1,12.51-4.85,17.11,17.11,0,0,1,12.24,4.85,15.54,15.54,0,0,1,5.09,11.66,15.82,15.82,0,0,1-5.09,11.92,17.11,17.11,0,0,1-12.24,4.85A17.47,17.47,0,0,1,4514.73,341.4Z"/></svg>