<svg id="Layer_1" data-name="Layer 1" xmlns="http://www.w3.org/2000/svg" viewBox="0 0 2400 500"><defs><style>.cls-1{fill:#fff;}</style></defs><title>02 GDGYYC Cropped Logo (White)</title><path class="cls-1" d="M452.91,192.46l-89.76,51.81-79.27-45.76a59.43,59.43,0,0,0-26-7.86l145.49-84a49.54,49.54,0,0,1,49.54,85.81Z"/><path class="cls-1" d="M428.09,400a49.34,49.34,0,0,1-24.72-6.64l-174-100.46a49.53,49.53,0,0,1,0-85.8c.23-.14.46-.28.7-.41a49.5,49.5,0,0,1,48.84.41L353.24,250l99.67,57.54A49.55,49.55,0,0,1,428.09,400Z"/><path class="cls-1" d="M471,375.22a49.52,49.52,0,0,1-67.67,18.14l-174-100.46a49.53,49.53,0,0,1,0-85.8c.23-.14.46-.28.7-.41a49.5,49.5,0,0,1,48.84.41L353.24,250l99.67,57.54A49.54,49.54,0,0,1,471,375.22Z"/><path class="cls-1" d="M771.37,309.35l-145.48,84a49.55,49.55,0,0,1-49.55-85.82l89.76-51.82,4.95,2.86,74.32,42.91A59.3,59.3,0,0,0,771.37,309.35Z"/><path class="cls-1" d="M799.84,292.89h0l-.83.48a49.49,49.49,0,0,1-48.71-.48L676,250l-99.67-57.54a49.54,49.54,0,1,1,49.55-85.81l174,100.45a49.5,49.5,0,0,1,0,85.79Z"/><path class="cls-1" d="M818,274.77a49.23,49.23,0,0,1-18.16,18.12h0l-.83.48a49.49,49.49,0,0,1-48.71-.48L676,250l-99.67-57.54a49.54,49.54,0,1,1,49.55-85.81l174,100.45A49.54,49.54,0,0,1,818,274.77Z"/><path class="cls-1" d="M1021.88,349.41a112.33,112.33,0,0,1-41.61-41.61q-15.4-26.49-15.4-58.55t15.4-58.55A113.21,113.21,0,0,1,1079.2,134a121.34,121.34,0,0,1,45.76,8.63q21.42,8.64,35.29,24.35l-18.8,18.79a68.07,68.07,0,0,0-26.81-19.87,91.12,91.12,0,0,0-78.74,4.31,85.69,85.69,0,0,0-32.36,31.74q-12.18,20.51-12.17,47.31t12.17,47.3a85.32,85.32,0,0,0,32.51,31.75,88.41,88.41,0,0,0,43.46,11.24q22.18,0,37.13-6.93a83.07,83.07,0,0,0,25.73-18.34,67.37,67.37,0,0,0,13-20.8,91.87,91.87,0,0,0,6.16-27h-81.66V242.16h106a92.36,92.36,0,0,1,1.54,16,123.64,123.64,0,0,1-6.47,39.6,87.48,87.48,0,0,1-20.65,33.74q-30.51,33-81,33A112.82,112.82,0,0,1,1021.88,349.41Z"/><path class="cls-1" d="M1220,138.92h66.57q33.89,0,59.17,14a96.71,96.71,0,0,1,38.83,39q13.55,25,13.56,57.32t-13.56,57.32a96.56,96.56,0,0,1-38.83,39q-25.27,14-59.17,14H1220Zm66.57,195.69q39.14,0,62.09-22.49t23-62.87q0-40.37-23-62.87t-62.09-22.49h-40.68V334.61Z"/><path class="cls-1" d="M1476.74,349.41a112.26,112.26,0,0,1-41.61-41.61q-15.41-26.49-15.41-58.55t15.41-58.55A113.21,113.21,0,0,1,1534.06,134a121.38,121.38,0,0,1,45.76,8.63q21.42,8.64,35.29,24.35l-18.8,18.79a68.14,68.14,0,0,0-26.81-19.87,91.12,91.12,0,0,0-78.74,4.31,85.62,85.62,0,0,0-32.36,31.74q-12.18,20.51-12.17,47.31t12.17,47.3a85.25,85.25,0,0,0,32.51,31.75,88.41,88.41,0,0,0,43.46,11.24q22.19,0,37.13-6.93a83.07,83.07,0,0,0,25.73-18.34,67.37,67.37,0,0,0,13-20.8,91.87,91.87,0,0,0,6.16-27h-81.67V242.16h106a92.36,92.36,0,0,1,1.54,16,123.64,123.64,0,0,1-6.47,39.6,87.48,87.48,0,0,1-20.65,33.74q-30.51,33-81,33A112.79,112.79,0,0,1,1476.74,349.41Z"/><path class="cls-1" d="M1717.11,257.57l-74.58-118.65H1673l56.4,92.46h1.23l55.47-92.46h30.51l-73.34,118.65v102h-26.2Z"/><path class="cls-1" d="M1894.31,257.57l-74.58-118.65h30.51l56.39,92.46h1.24l55.47-92.46h30.51L1920.5,257.57v102h-26.19Z"/><path class="cls-1" d="M2049.93,349.41A109.24,109.24,0,0,1,2008.79,308q-15-26.35-14.94-58.71t14.94-58.71a109.24,109.24,0,0,1,41.14-41.45q26.19-15.09,58.25-15.1,24.65,0,45.15,9.4a105.05,105.05,0,0,1,35.59,26.66l-18.8,18.18q-12.64-15.09-27.58-22.19T2108.18,159a88.54,88.54,0,0,0-44.07,11.25,83.75,83.75,0,0,0-31.9,31.74q-11.87,20.51-11.86,47.31t11.86,47.3a83.7,83.7,0,0,0,31.9,31.75,88.43,88.43,0,0,0,44.07,11.24q40.05,0,68.1-33l19.11,18.49a111.26,111.26,0,0,1-37.9,28.81,113.93,113.93,0,0,1-49.31,10.64Q2076.13,364.51,2049.93,349.41Z"/></svg>