<svg id="Layer_1" data-name="Layer 1" xmlns="http://www.w3.org/2000/svg" viewBox="0 0 2500 1000"><defs><style>.cls-1{fill:#fff;}</style></defs><title>02 GDGYYC Logo (White)</title><path class="cls-1" d="M502.91,467.57l-89.76,51.82-79.27-45.76a59.3,59.3,0,0,0-26-7.86l145.49-84a49.54,49.54,0,0,1,49.54,85.8Z"/><path class="cls-1" d="M478.09,675.11a49.34,49.34,0,0,1-24.72-6.64L279.39,568a49.54,49.54,0,0,1,0-85.81l.7-.4a49.47,49.47,0,0,1,48.84.4l74.31,42.91,99.67,57.54a49.55,49.55,0,0,1-24.82,92.45Z"/><path class="cls-1" d="M521,650.33a49.52,49.52,0,0,1-67.67,18.14L279.39,568a49.54,49.54,0,0,1,0-85.81l.7-.4a49.47,49.47,0,0,1,48.84.4l74.31,42.91,99.67,57.54A49.52,49.52,0,0,1,521,650.33Z"/><path class="cls-1" d="M821.37,584.46l-145.48,84a49.54,49.54,0,0,1-49.55-85.81l89.76-51.83,4.95,2.87,74.32,42.9A59.17,59.17,0,0,0,821.37,584.46Z"/><path class="cls-1" d="M849.84,568h0l-.83.47a49.46,49.46,0,0,1-48.71-.47L726,525.11l-99.67-57.54a49.54,49.54,0,1,1,49.55-85.8l174,100.44a49.51,49.51,0,0,1,0,85.8Z"/><path class="cls-1" d="M868,549.88A49.26,49.26,0,0,1,849.84,568h0l-.83.47a49.46,49.46,0,0,1-48.71-.47L726,525.11l-99.67-57.54a49.54,49.54,0,1,1,49.55-85.8l174,100.44A49.54,49.54,0,0,1,868,549.88Z"/><path class="cls-1" d="M1071.88,624.52a112.23,112.23,0,0,1-41.61-41.6q-15.4-26.5-15.4-58.56t15.4-58.55a113.22,113.22,0,0,1,98.93-56.7,121.34,121.34,0,0,1,45.76,8.63q21.42,8.63,35.29,24.34l-18.8,18.8A68,68,0,0,0,1164.64,441a89,89,0,0,0-35.13-6.93,88.1,88.1,0,0,0-43.61,11.25,85.69,85.69,0,0,0-32.36,31.74q-12.18,20.49-12.17,47.3t12.17,47.31a85.37,85.37,0,0,0,32.51,31.74,88.42,88.42,0,0,0,43.46,11.25q22.18,0,37.13-6.93a83.4,83.4,0,0,0,25.73-18.34,67.49,67.49,0,0,0,13-20.8,92,92,0,0,0,6.16-27h-81.66V517.28h106a92.17,92.17,0,0,1,1.54,16,123.64,123.64,0,0,1-6.47,39.6,87.59,87.59,0,0,1-20.65,33.75q-30.51,33-81,33A112.72,112.72,0,0,1,1071.88,624.52Z"/><path class="cls-1" d="M1270,414h66.57q33.89,0,59.17,14a96.62,96.62,0,0,1,38.83,39q13.55,25,13.56,57.32t-13.56,57.32a96.59,96.59,0,0,1-38.83,39q-25.27,14-59.17,14H1270Zm66.57,195.69q39.14,0,62.09-22.5t23-62.87q0-40.37-23-62.86T1336.6,439h-40.68V609.73Z"/><path class="cls-1" d="M1526.74,624.52a112.16,112.16,0,0,1-41.61-41.6q-15.41-26.5-15.41-58.56t15.41-58.55a113.22,113.22,0,0,1,98.93-56.7,121.38,121.38,0,0,1,45.76,8.63q21.42,8.63,35.29,24.34l-18.8,18.8A68.07,68.07,0,0,0,1619.5,441a89,89,0,0,0-35.13-6.93,88.1,88.1,0,0,0-43.61,11.25,85.62,85.62,0,0,0-32.36,31.74q-12.18,20.49-12.17,47.3t12.17,47.31a85.3,85.3,0,0,0,32.51,31.74,88.42,88.42,0,0,0,43.46,11.25q22.19,0,37.13-6.93a83.4,83.4,0,0,0,25.73-18.34,67.49,67.49,0,0,0,13-20.8,92,92,0,0,0,6.16-27h-81.67V517.28h106a92.17,92.17,0,0,1,1.54,16,123.64,123.64,0,0,1-6.47,39.6,87.59,87.59,0,0,1-20.65,33.75q-30.51,33-81,33A112.69,112.69,0,0,1,1526.74,624.52Z"/><path class="cls-1" d="M1767.11,532.68,1692.53,414H1723l56.4,92.45h1.23L1836.14,414h30.51l-73.34,118.64v102h-26.2Z"/><path class="cls-1" d="M1944.31,532.68,1869.73,414h30.51l56.39,92.45h1.24L2013.34,414h30.51L1970.5,532.68v102h-26.19Z"/><path class="cls-1" d="M2099.93,624.52a109.1,109.1,0,0,1-41.14-41.45q-15-26.36-14.94-58.71t14.94-58.7a109.17,109.17,0,0,1,41.14-41.45q26.19-15.1,58.25-15.1,24.65,0,45.15,9.4a105.15,105.15,0,0,1,35.59,26.65l-18.8,18.19q-12.64-15.11-27.58-22.19t-34.36-7.09a88.43,88.43,0,0,0-44.07,11.25,83.75,83.75,0,0,0-31.9,31.74q-11.86,20.49-11.86,47.3t11.86,47.31a83.75,83.75,0,0,0,31.9,31.74,88.43,88.43,0,0,0,44.07,11.25q40.05,0,68.1-33l19.11,18.49a111.29,111.29,0,0,1-37.9,28.82q-22.5,10.63-49.31,10.63Q2126.13,639.62,2099.93,624.52Z"/></svg>