<svg id="Layer_1" data-name="Layer 1" xmlns="http://www.w3.org/2000/svg" viewBox="0 0 2500 1000"><defs><style>.cls-1{fill:#676c72;}</style></defs><title>03 GDGYYC Logo BWNTLT (Black)</title><path class="cls-1" d="M412.13,672h21.34A17.77,17.77,0,0,1,441.9,674a16.2,16.2,0,0,1,6.27,5.73A15,15,0,0,1,450.5,688a13.11,13.11,0,0,1-2.21,7.56,14.26,14.26,0,0,1-5.93,5v.33a15.12,15.12,0,0,1,7.31,5.15,13.62,13.62,0,0,1,2.82,8.56,15.85,15.85,0,0,1-2.45,8.67,17,17,0,0,1-6.56,6,18.73,18.73,0,0,1-8.85,2.15h-22.5Zm21.34,25.75a9.74,9.74,0,0,0,5.27-1.42,9.92,9.92,0,0,0,3.53-3.61,9,9,0,0,0,1.25-4.52,9.21,9.21,0,0,0-1.2-4.45,10,10,0,0,0-3.41-3.61,9.27,9.27,0,0,0-5.11-1.41H419.1v19Zm1.58,27a9.82,9.82,0,0,0,5.36-1.5,10.38,10.38,0,0,0,3.65-3.86,10.05,10.05,0,0,0,1.29-4.86,9.89,9.89,0,0,0-1.33-4.86,10.37,10.37,0,0,0-3.74-3.82,10.64,10.64,0,0,0-5.56-1.45H419.1v20.35Z"/><path class="cls-1" d="M463.08,728.26q-4-4.49-4-12.54V689.06h7.06v25.58q0,6.06,2.74,8.88a9.8,9.8,0,0,0,7.39,2.83,11,11,0,0,0,6.35-1.91,12.93,12.93,0,0,0,4.32-5,14.24,14.24,0,0,0,1.54-6.48V689.06h7.06v42.35h-6.73v-6.14h-.33a14,14,0,0,1-5.57,5.31,16.26,16.26,0,0,1-8.14,2.16Q467.1,732.74,463.08,728.26Z"/><path class="cls-1" d="M504.89,679.84a4.87,4.87,0,0,1-1.49-3.57,4.73,4.73,0,0,1,1.49-3.53,5.12,5.12,0,0,1,7.14,0,4.74,4.74,0,0,1,1.5,3.53,5,5,0,0,1-1.46,3.57,4.82,4.82,0,0,1-3.61,1.5A4.88,4.88,0,0,1,504.89,679.84Zm.08,9.22h7v42.35h-7Z"/><path class="cls-1" d="M521.42,672h7.06v59.46h-7.06Z"/><path class="cls-1" d="M544.55,729.84a20.31,20.31,0,0,1-7.27-8,26.47,26.47,0,0,1,0-23.13,20.26,20.26,0,0,1,7.27-8.05,18.8,18.8,0,0,1,10.25-2.91,17.2,17.2,0,0,1,8.72,2.2,16,16,0,0,1,5.82,5.44h.33l-.33-5.9V672h7.06v59.46h-6.73v-6.22h-.33a16.28,16.28,0,0,1-5.82,5.35,17.1,17.1,0,0,1-8.72,2.2A18.88,18.88,0,0,1,544.55,729.84Zm18-5.48a14.63,14.63,0,0,0,5.15-5.65,19.37,19.37,0,0,0,0-16.94,14.56,14.56,0,0,0-5.15-5.65,13,13,0,0,0-13.83,0,14.34,14.34,0,0,0-5.19,5.69,19.2,19.2,0,0,0,0,16.86,14.41,14.41,0,0,0,5.19,5.69,13,13,0,0,0,13.83,0Z"/><path class="cls-1" d="M595.66,672h7.81l10.8,43.69,1,4.06h.33l1.25-4.06L630.13,672h7.31l12.7,43.69,1.25,4.06h.33L663.43,672h7.81l-16,59.46H647.9l-12.62-43L634,683.74h-.33l-1.42,4.65-13.12,43h-7.31Z"/><path class="cls-1" d="M676.22,672h7.06v17.52l-.33,5.82h.33a13.81,13.81,0,0,1,5.52-5.4,16.35,16.35,0,0,1,8.26-2.16q7.73,0,11.8,4.53c2.71,3,4.07,7,4.07,12v27.15h-7.06V705.34c0-3.82-1-6.65-2.91-8.47a10.57,10.57,0,0,0-7.56-2.74,10.23,10.23,0,0,0-6.1,2,14.68,14.68,0,0,0-6,11.71v23.58h-7.06Z"/><path class="cls-1" d="M726.22,730.92a13.71,13.71,0,0,1-5.65-5,13.43,13.43,0,0,1-2-7.27,12.36,12.36,0,0,1,5.07-10.5q5.07-3.78,12.79-3.78a29,29,0,0,1,7.1.83,18.66,18.66,0,0,1,5,1.91v-2.57a9.52,9.52,0,0,0-3.33-7.6,12.37,12.37,0,0,0-8.38-2.87,14.1,14.1,0,0,0-6.57,1.54,11.93,11.93,0,0,0-4.73,4.28l-5.31-4a16.93,16.93,0,0,1,6.85-6,21.46,21.46,0,0,1,9.67-2.16q8.64,0,13.58,4.53t4.94,12.33v26.82h-6.72v-6.06h-.34a15.11,15.11,0,0,1-5.48,5.23,15.84,15.84,0,0,1-8.22,2.16A18.39,18.39,0,0,1,726.22,730.92Zm15.61-6.23a13.86,13.86,0,0,0,4.9-4.9,12.91,12.91,0,0,0,1.83-6.73,17.91,17.91,0,0,0-4.9-2.16,22.45,22.45,0,0,0-6.15-.83q-5.82,0-8.76,2.41a7.67,7.67,0,0,0-3,6.23,6.92,6.92,0,0,0,2.66,5.65,10.3,10.3,0,0,0,6.72,2.15A12.77,12.77,0,0,0,741.83,724.69Z"/><path class="cls-1" d="M774.09,731.9a10.8,10.8,0,0,1-3.69-2.29,10.33,10.33,0,0,1-2.49-3.72,13.92,13.92,0,0,1-.84-5.15V695.45h-7.39v-6.39h7.39v-12h7.06v12h10.3v6.39h-10.3v23.6a8.58,8.58,0,0,0,1.33,5.27,5.66,5.66,0,0,0,4.57,1.86,8.59,8.59,0,0,0,4.65-1.41v6.89a10.41,10.41,0,0,1-2.53.83,17.42,17.42,0,0,1-3.28.25A13.3,13.3,0,0,1,774.09,731.9Z"/><path class="cls-1" d="M790.16,686.9l4.07-6.23a4.71,4.71,0,0,1-3.82-4.73,5.11,5.11,0,0,1,1.54-3.78,5,5,0,0,1,3.69-1.54,5.26,5.26,0,0,1,5.32,5.32,6.41,6.41,0,0,1-.54,2.57,20.2,20.2,0,0,1-1.7,3l-5.24,7.56Z"/><path class="cls-1" d="M807.85,729.55a17.53,17.53,0,0,1-6.48-8.18l6.32-2.83a12.62,12.62,0,0,0,4.69,5.9,12.13,12.13,0,0,0,6.85,2.07A13.56,13.56,0,0,0,826,724.9a5.07,5.07,0,0,0,2.82-4.61,5,5,0,0,0-2.24-4.28,20.62,20.62,0,0,0-7.06-2.78l-5.15-1.33a18.45,18.45,0,0,1-8.3-4.24,10.69,10.69,0,0,1-1-14.16,14.07,14.07,0,0,1,5.86-4.27,20.53,20.53,0,0,1,7.89-1.5,20.15,20.15,0,0,1,9.92,2.41,13.64,13.64,0,0,1,6.19,6.73l-6.15,2.82q-2.82-5.64-10-5.65a11.34,11.34,0,0,0-6.1,1.62,4.75,4.75,0,0,0-2.62,4.11,4.61,4.61,0,0,0,1.83,3.78,14.52,14.52,0,0,0,5.48,2.37l6.15,1.58q6.22,1.57,9.38,4.69a10.28,10.28,0,0,1,3.16,7.6,11,11,0,0,1-2.25,6.85,14.24,14.24,0,0,1-6.06,4.53,22,22,0,0,1-8.47,1.57A19.39,19.39,0,0,1,807.85,729.55Z"/><path class="cls-1" d="M861.09,672h8.63l29.82,47.34h.33l-.33-11.46V672h7.06v59.46h-7.31l-31.23-49.58h-.33l.33,11.46v38.12h-7Z"/><path class="cls-1" d="M924.78,729.84a20.16,20.16,0,0,1-7.51-8,24.21,24.21,0,0,1-2.7-11.5A25.18,25.18,0,0,1,917.1,699a20.44,20.44,0,0,1,7.19-8.23,19.17,19.17,0,0,1,10.79-3.07,20.42,20.42,0,0,1,10.8,2.78,18.62,18.62,0,0,1,7,7.68,24.82,24.82,0,0,1,2.45,11.22,8.55,8.55,0,0,1-.25,2.16H921.63A16.68,16.68,0,0,0,924,719.7a13.55,13.55,0,0,0,5.28,5,14.27,14.27,0,0,0,6.68,1.66q8.15,0,12.54-7.64l6,2.9a21.25,21.25,0,0,1-7.43,8.14,22.43,22.43,0,0,1-22.22.09Zm23.09-24.09a13.8,13.8,0,0,0-1.49-5.31,11.44,11.44,0,0,0-4.2-4.49,13.17,13.17,0,0,0-7.18-1.82,12,12,0,0,0-8.43,3.19,15.36,15.36,0,0,0-4.53,8.43Z"/><path class="cls-1" d="M971.87,709.9l-14.7-20.84h8l11,15.7,10.55-15.7h8.22L980.09,709.9l15.12,21.51H987l-11-16.27-10.79,16.27h-8.23Z"/><path class="cls-1" d="M1011.36,731.9a10.7,10.7,0,0,1-3.69-2.29,10.48,10.48,0,0,1-2.5-3.72,14.14,14.14,0,0,1-.83-5.15V695.45H997v-6.39h7.39v-12h7.06v12h10.3v6.39h-10.3v23.6a8.58,8.58,0,0,0,1.33,5.27,5.66,5.66,0,0,0,4.57,1.86,8.59,8.59,0,0,0,4.65-1.41v6.89a10.41,10.41,0,0,1-2.53.83,17.42,17.42,0,0,1-3.28.25A13.3,13.3,0,0,1,1011.36,731.9Z"/><path class="cls-1" d="M1029.47,730a4.76,4.76,0,0,1-1.54-3.6,4.68,4.68,0,0,1,1.54-3.52,5.23,5.23,0,0,1,3.77-1.46,5.15,5.15,0,0,1,3.7,1.46,4.72,4.72,0,0,1,1.54,3.52,4.79,4.79,0,0,1-1.54,3.6,5.15,5.15,0,0,1-3.7,1.46A5.23,5.23,0,0,1,1029.47,730Z"/><path class="cls-1" d="M1074.6,678.68h-16.69V672h40.36v6.73h-16.61v52.73h-7.06Z"/><path class="cls-1" d="M1099.1,689.06h6.73v6.81h.33a11.54,11.54,0,0,1,4.82-5.81,13.49,13.49,0,0,1,7.47-2.33,12.44,12.44,0,0,1,5,.91v7.56a13.23,13.23,0,0,0-6-1.33,9.87,9.87,0,0,0-5.65,1.75,12.53,12.53,0,0,0-4.11,4.7,13.56,13.56,0,0,0-1.54,6.37v23.72h-7.06Z"/><path class="cls-1" d="M1132.16,730.92a13.71,13.71,0,0,1-5.65-5,13.43,13.43,0,0,1-2-7.27,12.36,12.36,0,0,1,5.07-10.5q5.07-3.78,12.79-3.78a29,29,0,0,1,7.1.83,18.66,18.66,0,0,1,5,1.91v-2.57a9.52,9.52,0,0,0-3.33-7.6,12.37,12.37,0,0,0-8.38-2.87,14.1,14.1,0,0,0-6.57,1.54,11.93,11.93,0,0,0-4.73,4.28l-5.31-4a16.93,16.93,0,0,1,6.85-6,21.46,21.46,0,0,1,9.67-2.16q8.64,0,13.58,4.53t4.94,12.33v26.82h-6.72v-6.06h-.34a15,15,0,0,1-5.48,5.23,15.84,15.84,0,0,1-8.22,2.16A18.39,18.39,0,0,1,1132.16,730.92Zm15.61-6.23a13.86,13.86,0,0,0,4.9-4.9,12.91,12.91,0,0,0,1.83-6.73,17.91,17.91,0,0,0-4.9-2.16,22.45,22.45,0,0,0-6.15-.83q-5.82,0-8.76,2.41a7.67,7.67,0,0,0-3,6.23,7,7,0,0,0,2.66,5.65,10.31,10.31,0,0,0,6.73,2.15A12.76,12.76,0,0,0,1147.77,724.69Z"/><path class="cls-1" d="M1169.36,689.06h6.73v6.23h.33a14.24,14.24,0,0,1,5.56-5.36,16.13,16.13,0,0,1,8.14-2.2q7.65,0,11.67,4.44c2.69,3,4,7,4,12.09v27.15h-7.06V705.34q0-5.9-2.82-8.56a10.84,10.84,0,0,0-7.73-2.65,10.25,10.25,0,0,0-6.1,1.91,12.81,12.81,0,0,0-4.2,5,15,15,0,0,0-1.49,6.52v23.83h-7.06Z"/><path class="cls-1" d="M1217.28,729.55a17.41,17.41,0,0,1-6.48-8.18l6.31-2.83a12.64,12.64,0,0,0,4.7,5.9,12.1,12.1,0,0,0,6.85,2.07,13.59,13.59,0,0,0,6.81-1.61,5.19,5.19,0,0,0,.58-8.89,20.71,20.71,0,0,0-7.06-2.78l-5.15-1.33a18.4,18.4,0,0,1-8.3-4.24,10.69,10.69,0,0,1-1-14.16,14,14,0,0,1,5.85-4.27,20.6,20.6,0,0,1,7.89-1.5,20.16,20.16,0,0,1,9.93,2.41,13.62,13.62,0,0,1,6.18,6.73l-6.14,2.82q-2.82-5.64-10-5.65a11.32,11.32,0,0,0-6.1,1.62,4.75,4.75,0,0,0-2.62,4.11,4.61,4.61,0,0,0,1.83,3.78,14.45,14.45,0,0,0,5.48,2.37l6.14,1.58c4.16,1,7.28,2.61,9.39,4.69a10.27,10.27,0,0,1,3.15,7.6,11,11,0,0,1-2.24,6.85,14.3,14.3,0,0,1-6.06,4.53,22,22,0,0,1-8.47,1.57A19.36,19.36,0,0,1,1217.28,729.55Z"/><path class="cls-1" d="M1256.4,695.45h-7.81v-6.39h7.81v-4.57a13.05,13.05,0,0,1,1.82-7,12.41,12.41,0,0,1,4.9-4.61,14.38,14.38,0,0,1,6.81-1.62,17.82,17.82,0,0,1,6.23,1v6.9q-1.5-.58-2.82-1a11.77,11.77,0,0,0-3.16-.37,6.53,6.53,0,0,0-4.73,1.95,7.26,7.26,0,0,0-2,5.44v3.82h10.88v6.39h-10.88v36h-7Z"/><path class="cls-1" d="M1287,729.75a20.81,20.81,0,0,1-7.76-8.14,24.58,24.58,0,0,1,0-22.75,20.88,20.88,0,0,1,7.76-8.14,22.51,22.51,0,0,1,22.42,0,20.9,20.9,0,0,1,7.77,8.14,24.66,24.66,0,0,1,0,22.75,20.83,20.83,0,0,1-7.77,8.14,22.51,22.51,0,0,1-22.42,0Zm18.48-5.35a14.45,14.45,0,0,0,5.4-5.61,19,19,0,0,0,0-17.11,14.49,14.49,0,0,0-5.4-5.6,14.25,14.25,0,0,0-7.27-2,14.43,14.43,0,0,0-12.75,7.55,19,19,0,0,0,0,17.11,14.53,14.53,0,0,0,20,5.61Z"/><path class="cls-1" d="M1325.74,689.06h6.73v6.81h.33a11.54,11.54,0,0,1,4.82-5.81,13.49,13.49,0,0,1,7.47-2.33,12.44,12.44,0,0,1,5,.91v7.56a13.23,13.23,0,0,0-6-1.33,9.87,9.87,0,0,0-5.65,1.75,12.53,12.53,0,0,0-4.11,4.7,13.56,13.56,0,0,0-1.54,6.37v23.72h-7.06Z"/><path class="cls-1" d="M1355.22,689.06H1362v6.23h.33a14.72,14.72,0,0,1,5.48-5.4,15,15,0,0,1,7.73-2.16,14.57,14.57,0,0,1,8.1,2.24,12.65,12.65,0,0,1,4.94,6,17.32,17.32,0,0,1,5.93-6,16.31,16.31,0,0,1,8.6-2.24q7.31,0,11,4.44c2.47,3,3.7,7,3.7,12.09v27.15h-7V705.34q0-5.9-2.4-8.56t-7.15-2.65a9.74,9.74,0,0,0-5.73,1.82,12.31,12.31,0,0,0-4,4.9,15.36,15.36,0,0,0-1.46,6.65v23.91H1383v-26c0-4-.8-6.86-2.41-8.64s-4-2.65-7.06-2.65a9.57,9.57,0,0,0-5.73,1.86,12.59,12.59,0,0,0-4,5,15.56,15.56,0,0,0-1.46,6.68v23.75h-7.06Z"/><path class="cls-1" d="M1445.25,672h7v52.74h26.07v6.72h-33Z"/><path class="cls-1" d="M1491.42,729.84a20.16,20.16,0,0,1-7.51-8,24.21,24.21,0,0,1-2.7-11.5,25.18,25.18,0,0,1,2.53-11.29,20.49,20.49,0,0,1,7.18-8.23,19.23,19.23,0,0,1,10.8-3.07,20.42,20.42,0,0,1,10.8,2.78,18.62,18.62,0,0,1,7,7.68,24.82,24.82,0,0,1,2.45,11.22,8.55,8.55,0,0,1-.25,2.16h-33.47a16.68,16.68,0,0,0,2.32,8.13,13.55,13.55,0,0,0,5.28,5,14.27,14.27,0,0,0,6.68,1.66q8.15,0,12.54-7.64l6,2.9a21.25,21.25,0,0,1-7.43,8.14,22.43,22.43,0,0,1-22.22.09Zm23.09-24.09a13.8,13.8,0,0,0-1.49-5.31,11.44,11.44,0,0,0-4.2-4.49,13.17,13.17,0,0,0-7.18-1.82,12,12,0,0,0-8.43,3.19,15.36,15.36,0,0,0-4.53,8.43Z"/><path class="cls-1" d="M1535.23,747.19a17,17,0,0,1-6.52-8.38l6.4-2.74a12.62,12.62,0,0,0,4.69,5.93,13.17,13.17,0,0,0,7.76,2.29q6.57,0,10.18-3.66t3.61-10.46v-4.74H1561a15.59,15.59,0,0,1-5.86,5.28,17.9,17.9,0,0,1-8.59,2,18.4,18.4,0,0,1-10-2.85,20.26,20.26,0,0,1-7.19-8,26.93,26.93,0,0,1,0-23.3,20.11,20.11,0,0,1,7.19-8,18.33,18.33,0,0,1,10-2.86,17.79,17.79,0,0,1,8.59,2,15.28,15.28,0,0,1,5.86,5.35h.33v-6.06h6.73v40.69q0,10.21-5.65,15.58t-14.87,5.35Q1540.09,750.68,1535.23,747.19Zm19.27-22.78a13.88,13.88,0,0,0,5-5.57,18.49,18.49,0,0,0,1.87-8.6,18.7,18.7,0,0,0-1.87-8.69,13.63,13.63,0,0,0-5-5.53,13.13,13.13,0,0,0-6.94-1.89,13,13,0,0,0-7,1.94,13.68,13.68,0,0,0-5,5.56,20.83,20.83,0,0,0,0,17.25,13.09,13.09,0,0,0,12,7.47A12.9,12.9,0,0,0,1554.5,724.41Z"/><path class="cls-1" d="M1581.7,730.92a13.71,13.71,0,0,1-5.65-5,13.43,13.43,0,0,1-2-7.27,12.36,12.36,0,0,1,5.07-10.5q5.07-3.78,12.79-3.78a29,29,0,0,1,7.1.83,18.66,18.66,0,0,1,5,1.91v-2.57a9.52,9.52,0,0,0-3.33-7.6,12.37,12.37,0,0,0-8.38-2.87,14.1,14.1,0,0,0-6.57,1.54,11.93,11.93,0,0,0-4.73,4.28l-5.31-4a16.93,16.93,0,0,1,6.85-6,21.46,21.46,0,0,1,9.67-2.16q8.64,0,13.58,4.53t4.94,12.33v26.82H1604v-6.06h-.34a15,15,0,0,1-5.48,5.23,15.84,15.84,0,0,1-8.22,2.16A18.39,18.39,0,0,1,1581.7,730.92Zm15.61-6.23a13.86,13.86,0,0,0,4.9-4.9,12.91,12.91,0,0,0,1.83-6.73,17.91,17.91,0,0,0-4.9-2.16,22.45,22.45,0,0,0-6.15-.83q-5.82,0-8.76,2.41a7.67,7.67,0,0,0-3,6.23,7,7,0,0,0,2.66,5.65,10.31,10.31,0,0,0,6.73,2.15A12.76,12.76,0,0,0,1597.31,724.69Z"/><path class="cls-1" d="M1626.62,729.79a20.62,20.62,0,0,1-7.64-8,24,24,0,0,1-2.74-11.5,24.29,24.29,0,0,1,2.74-11.55,20.29,20.29,0,0,1,7.64-8.05,21.23,21.23,0,0,1,11.05-2.91,20.12,20.12,0,0,1,11.59,3.2,17.55,17.55,0,0,1,6.68,8.51l-6.39,2.66a12.47,12.47,0,0,0-4.7-5.94,13.38,13.38,0,0,0-7.51-2,12.86,12.86,0,0,0-7,2,14.75,14.75,0,0,0-5.19,5.69,19,19,0,0,0,0,16.77,14.68,14.68,0,0,0,5.19,5.69,12.87,12.87,0,0,0,7,2,14,14,0,0,0,7.72-2.08,12.41,12.41,0,0,0,4.82-5.89l6.31,2.65a18.6,18.6,0,0,1-6.93,8.47,20.18,20.18,0,0,1-11.59,3.24A21,21,0,0,1,1626.62,729.79Z"/><path class="cls-1" d="M1675.13,728.76l-17.53-39.7h7.64l13.29,31.47h.17l12.79-31.47h7.64L1673,749.35h-7.31Z"/><path class="cls-1" d="M1698.42,730a4.76,4.76,0,0,1-1.54-3.6,4.68,4.68,0,0,1,1.54-3.52,5.24,5.24,0,0,1,3.78-1.46,5.12,5.12,0,0,1,3.69,1.46,4.68,4.68,0,0,1,1.54,3.52,4.76,4.76,0,0,1-1.54,3.6,5.12,5.12,0,0,1-3.69,1.46A5.24,5.24,0,0,1,1698.42,730Z"/><path class="cls-1" d="M1746.88,682.58h-16.61V672h44.43v10.63h-16.61v48.83h-11.21Z"/><path class="cls-1" d="M1782.42,729.79a20.93,20.93,0,0,1-8-8,24.39,24.39,0,0,1,0-23,20.79,20.79,0,0,1,8-8.1,24.56,24.56,0,0,1,23.34,0,20.79,20.79,0,0,1,8,8.1,24.39,24.39,0,0,1,0,23,20.93,20.93,0,0,1-8,8,24.56,24.56,0,0,1-23.34,0ZM1800,721.2a11,11,0,0,0,4.23-4.32,13.42,13.42,0,0,0,1.58-6.64,13.24,13.24,0,0,0-1.58-6.56,10.86,10.86,0,0,0-4.23-4.32,12,12,0,0,0-11.63,0,11.18,11.18,0,0,0-4.28,4.32,13,13,0,0,0-1.62,6.56,13.18,13.18,0,0,0,1.62,6.6,11.22,11.22,0,0,0,4.28,4.36,12.09,12.09,0,0,0,11.63,0Z"/><path class="cls-1" d="M1829.43,747.07a17.79,17.79,0,0,1-7.14-8.68l10.21-4.15a10.94,10.94,0,0,0,10.3,6.81,10.79,10.79,0,0,0,8.18-3.16q3-3.15,3-9V725.6h-.66a13,13,0,0,1-5.24,4.32,17.39,17.39,0,0,1-7.39,1.49,18.74,18.74,0,0,1-9.76-2.69,20,20,0,0,1-7.26-7.65,25.5,25.5,0,0,1,0-23,20,20,0,0,1,7.26-7.64,18.75,18.75,0,0,1,9.76-2.7,17.39,17.39,0,0,1,7.39,1.5,12.86,12.86,0,0,1,5.24,4.31h.66v-4.48h10.47v39.45a24.72,24.72,0,0,1-2.66,11.79,18.53,18.53,0,0,1-7.56,7.68,23.39,23.39,0,0,1-11.46,2.7Q1834.75,750.68,1829.43,747.07Zm21.34-28.74q3.24-3.2,3.24-8.76,0-5.73-3.2-8.84a11.42,11.42,0,0,0-15.73,0q-3.24,3.15-3.24,8.8t3.24,8.81a10.88,10.88,0,0,0,7.89,3.15A10.67,10.67,0,0,0,1850.77,718.33Z"/><path class="cls-1" d="M1881.5,729.84a20.79,20.79,0,0,1-7.93-8,24.12,24.12,0,0,1,0-22.75,21.76,21.76,0,0,1,7.8-8.27,20.87,20.87,0,0,1,11.13-3.07,21.69,21.69,0,0,1,11.3,2.82,18.46,18.46,0,0,1,7.18,7.73,24,24,0,0,1,2.45,10.88,25.21,25.21,0,0,1-.25,3.65h-31.81a12,12,0,0,0,4,7.68,11.71,11.71,0,0,0,7.68,2.62,12.27,12.27,0,0,0,6.44-1.62,11.93,11.93,0,0,0,4.28-4.36l8.8,4.32q-6.48,11.29-19.68,11.29A22.53,22.53,0,0,1,1881.5,729.84Zm21.43-24.75a8.4,8.4,0,0,0-1.46-4,10.21,10.21,0,0,0-3.57-3.24,10.8,10.8,0,0,0-5.35-1.28,10.2,10.2,0,0,0-6.69,2.28,12.78,12.78,0,0,0-4,6.19Z"/><path class="cls-1" d="M1931.49,731.77a11.38,11.38,0,0,1-4.31-2.67q-3.92-3.81-3.91-10.84v-19.9h-7.39v-9.3h7.39v-12h10.88v12h10.38v9.3h-10.38v18q0,3.33,1.41,4.78c.78.91,2.11,1.37,4,1.37a7.08,7.08,0,0,0,2.62-.42,19,19,0,0,0,2.7-1.41v10.63a20.43,20.43,0,0,1-7.56,1.41A16.8,16.8,0,0,1,1931.49,731.77Z"/><path class="cls-1" d="M1952.34,672h10.88v15l-.67,7.39h.67a13.3,13.3,0,0,1,5.31-4.81,16.05,16.05,0,0,1,7.56-1.83q7.73,0,11.84,4.61t4.11,12.75v26.32h-10.88v-25a8.64,8.64,0,0,0-2.2-6.31,7.83,7.83,0,0,0-5.86-2.25,8.71,8.71,0,0,0-7.1,3.49,13.32,13.32,0,0,0-2.78,8.55v21.51h-10.88Z"/><path class="cls-1" d="M2009.14,729.84a20.86,20.86,0,0,1-7.93-8,24.2,24.2,0,0,1,0-22.75,21.78,21.78,0,0,1,7.81-8.27,20.84,20.84,0,0,1,11.13-3.07,21.65,21.65,0,0,1,11.29,2.82,18.4,18.4,0,0,1,7.18,7.73,23.9,23.9,0,0,1,2.46,10.88,26.71,26.71,0,0,1-.25,3.65H2009a11.92,11.92,0,0,0,4,7.68,11.71,11.71,0,0,0,7.68,2.62,12.26,12.26,0,0,0,6.43-1.62,11.93,11.93,0,0,0,4.28-4.36l8.8,4.32q-6.46,11.29-19.68,11.29A22.53,22.53,0,0,1,2009.14,729.84Zm21.43-24.75a8.38,8.38,0,0,0-1.45-4,10.21,10.21,0,0,0-3.57-3.24,10.84,10.84,0,0,0-5.36-1.28,10.24,10.24,0,0,0-6.69,2.28,12.83,12.83,0,0,0-4,6.19Z"/><path class="cls-1" d="M2047.76,689.06H2058v5.65h.66a12.8,12.8,0,0,1,4.9-5,13.91,13.91,0,0,1,7.31-2,13.62,13.62,0,0,1,5.31,1v10.79a35.4,35.4,0,0,0-3.78-1.2,13.73,13.73,0,0,0-3.28-.37,9.31,9.31,0,0,0-7.64,3.49,13.62,13.62,0,0,0-2.82,8.83v21.14h-10.88Z"/><path class="cls-1" d="M2075.54,729.37a6.61,6.61,0,0,1-2.12-4.93,6.5,6.5,0,0,1,2.12-4.89,7.53,7.53,0,0,1,10.22,0,6.49,6.49,0,0,1,2.11,4.89,6.6,6.6,0,0,1-2.11,4.93,7.42,7.42,0,0,1-10.22,0Z"/><path class="cls-1" d="M502.91,341.77l-89.76,51.82-79.27-45.76a59.3,59.3,0,0,0-26-7.86l145.49-84a49.54,49.54,0,0,1,49.54,85.8Z"/><path class="cls-1" d="M478.09,549.32a49.34,49.34,0,0,1-24.72-6.64l-174-100.46a49.53,49.53,0,0,1,0-85.8c.23-.14.46-.28.7-.41a49.43,49.43,0,0,1,48.84.41l74.31,42.9,99.67,57.54a49.55,49.55,0,0,1-24.82,92.46Z"/><path class="cls-1" d="M521,524.53a49.52,49.52,0,0,1-67.67,18.15l-174-100.46a49.53,49.53,0,0,1,0-85.8c.23-.14.46-.28.7-.41a49.43,49.43,0,0,1,48.84.41l74.31,42.9,99.67,57.54A49.52,49.52,0,0,1,521,524.53Z"/><path class="cls-1" d="M821.37,458.67l-145.48,84a49.55,49.55,0,0,1-49.55-85.82L716.1,405l4.95,2.87,74.32,42.91A59.3,59.3,0,0,0,821.37,458.67Z"/><path class="cls-1" d="M849.84,442.21h0l-.83.48a49.49,49.49,0,0,1-48.71-.48L726,399.31l-99.67-57.54A49.54,49.54,0,1,1,675.89,256l174,100.45a49.5,49.5,0,0,1,0,85.79Z"/><path class="cls-1" d="M868,424.09a49.23,49.23,0,0,1-18.16,18.12h0l-.83.48a49.49,49.49,0,0,1-48.71-.48L726,399.31l-99.67-57.54A49.54,49.54,0,1,1,675.89,256l174,100.45A49.53,49.53,0,0,1,868,424.09Z"/><path class="cls-1" d="M1071.88,498.72a112.23,112.23,0,0,1-41.61-41.6q-15.4-26.5-15.4-58.55t15.4-58.56a113.22,113.22,0,0,1,98.93-56.7,121.34,121.34,0,0,1,45.76,8.63q21.42,8.63,35.29,24.34l-18.8,18.8a68,68,0,0,0-26.81-19.87,91.12,91.12,0,0,0-78.74,4.31,85.69,85.69,0,0,0-32.36,31.74q-12.18,20.5-12.17,47.31t12.17,47.3a85.23,85.23,0,0,0,32.51,31.74,88.31,88.31,0,0,0,43.46,11.25q22.18,0,37.13-6.93a83.07,83.07,0,0,0,25.73-18.34,67.37,67.37,0,0,0,13-20.8,91.87,91.87,0,0,0,6.16-27h-81.66V391.48h106a92.17,92.17,0,0,1,1.54,16,123.59,123.59,0,0,1-6.47,39.6,87.44,87.44,0,0,1-20.65,33.75q-30.51,33-81,33A112.72,112.72,0,0,1,1071.88,498.72Z"/><path class="cls-1" d="M1270,288.24h66.57q33.89,0,59.17,14a96.65,96.65,0,0,1,38.83,39q13.55,25,13.56,57.32t-13.56,57.32a96.56,96.56,0,0,1-38.83,39q-25.27,14-59.17,14H1270Zm66.57,195.69q39.14,0,62.09-22.5t23-62.86q0-40.36-23-62.87t-62.09-22.5h-40.68V483.93Z"/><path class="cls-1" d="M1526.74,498.72a112.16,112.16,0,0,1-41.61-41.6q-15.41-26.5-15.41-58.55T1485.13,340a113.22,113.22,0,0,1,98.93-56.7,121.38,121.38,0,0,1,45.76,8.63q21.42,8.63,35.29,24.34l-18.8,18.8a68,68,0,0,0-26.81-19.87,91.12,91.12,0,0,0-78.74,4.31,85.62,85.62,0,0,0-32.36,31.74q-12.18,20.5-12.17,47.31t12.17,47.3a85.16,85.16,0,0,0,32.51,31.74,88.31,88.31,0,0,0,43.46,11.25q22.19,0,37.13-6.93a83.07,83.07,0,0,0,25.73-18.34,67.37,67.37,0,0,0,13-20.8,91.87,91.87,0,0,0,6.16-27h-81.67V391.48h106a92.17,92.17,0,0,1,1.54,16,123.59,123.59,0,0,1-6.47,39.6,87.44,87.44,0,0,1-20.65,33.75q-30.51,33-81,33A112.69,112.69,0,0,1,1526.74,498.72Z"/><path class="cls-1" d="M1767.11,406.89l-74.58-118.65H1723l56.4,92.45h1.23l55.47-92.45h30.51l-73.34,118.65v102h-26.2Z"/><path class="cls-1" d="M1944.31,406.89l-74.58-118.65h30.51l56.39,92.45h1.24l55.47-92.45h30.51L1970.5,406.89v102h-26.19Z"/><path class="cls-1" d="M2099.93,498.72a109.1,109.1,0,0,1-41.14-41.45q-15-26.34-14.94-58.7t14.94-58.71a109.17,109.17,0,0,1,41.14-41.45q26.19-15.09,58.25-15.1,24.65,0,45.15,9.4a105.05,105.05,0,0,1,35.59,26.66l-18.8,18.18q-12.64-15.1-27.58-22.19t-34.36-7.09a88.43,88.43,0,0,0-44.07,11.25,83.75,83.75,0,0,0-31.9,31.74q-11.86,20.5-11.86,47.31t11.86,47.3a83.61,83.61,0,0,0,31.9,31.74,88.33,88.33,0,0,0,44.07,11.25q40.05,0,68.1-33l19.11,18.49a111.39,111.39,0,0,1-37.9,28.81q-22.5,10.63-49.31,10.63Q2126.13,513.82,2099.93,498.72Z"/></svg>