<svg id="Layer_1" data-name="Layer 1" xmlns="http://www.w3.org/2000/svg" viewBox="0 0 2000 1000"><defs><style>.cls-1{fill:#676c72;}</style></defs><title>03 GDG Logo (Black)</title><path class="cls-1" d="M532.42,467.57l-89.76,51.82-79.27-45.76a59.34,59.34,0,0,0-26-7.86l145.5-84a49.54,49.54,0,0,1,49.54,85.8Z"/><path class="cls-1" d="M507.59,675.11a49.28,49.28,0,0,1-24.71-6.64L308.89,568a49.55,49.55,0,0,1,0-85.81l.7-.4a49.47,49.47,0,0,1,48.84.4l74.31,42.91,99.68,57.54a49.55,49.55,0,0,1-24.83,92.45Z"/><path class="cls-1" d="M550.55,650.33a49.52,49.52,0,0,1-67.67,18.14L308.89,568a49.55,49.55,0,0,1,0-85.81l.7-.4a49.47,49.47,0,0,1,48.84.4l74.31,42.91,99.68,57.54A49.54,49.54,0,0,1,550.55,650.33Z"/><path class="cls-1" d="M850.87,584.46l-145.48,84a49.54,49.54,0,0,1-49.55-85.81l89.76-51.83,5,2.87,74.31,42.9A59.17,59.17,0,0,0,850.87,584.46Z"/><path class="cls-1" d="M879.35,568h0l-.84.47a49.44,49.44,0,0,1-48.7-.47l-74.32-42.91-99.67-57.54a49.54,49.54,0,1,1,49.55-85.8l174,100.44a49.52,49.52,0,0,1,0,85.8Z"/><path class="cls-1" d="M897.5,549.88A49.23,49.23,0,0,1,879.35,568h0l-.84.47a49.44,49.44,0,0,1-48.7-.47l-74.32-42.91-99.67-57.54a49.54,49.54,0,1,1,49.55-85.8l174,100.44A49.54,49.54,0,0,1,897.5,549.88Z"/><path class="cls-1" d="M1100.89,624.65a111.25,111.25,0,0,1-41.24-41.24q-15.29-26.28-15.28-58t15.28-58.05a112.2,112.2,0,0,1,98.07-56.22,120.38,120.38,0,0,1,45.37,8.56q21.23,8.55,35,24.13l-18.64,18.64a67.5,67.5,0,0,0-26.58-19.7,90.34,90.34,0,0,0-78.06,4.27,85,85,0,0,0-32.08,31.47q-12.07,20.32-12.07,46.9t12.07,46.89a84.57,84.57,0,0,0,32.23,31.47A87.62,87.62,0,0,0,1158,614.87q22,0,36.82-6.87a82.5,82.5,0,0,0,25.51-18.18,66.81,66.81,0,0,0,12.83-20.62,91.41,91.41,0,0,0,6.11-26.73h-81V518.33h105.09a90.69,90.69,0,0,1,1.53,15.89,122.67,122.67,0,0,1-6.41,39.26,86.81,86.81,0,0,1-20.47,33.45q-30.25,32.7-80.35,32.69A111.77,111.77,0,0,1,1100.89,624.65Z"/><path class="cls-1" d="M1297.33,416h66q33.6,0,58.65,13.9a95.75,95.75,0,0,1,38.5,38.65q13.44,24.75,13.44,56.83t-13.44,56.82a95.69,95.69,0,0,1-38.5,38.65q-25.05,13.9-58.65,13.9h-66Zm66,194q38.79,0,61.56-22.31t22.76-62.32q0-40-22.76-62.33t-61.56-22.3H1323V610Z"/><path class="cls-1" d="M1551.82,624.65a111.25,111.25,0,0,1-41.24-41.24q-15.28-26.28-15.28-58t15.28-58.05a112.2,112.2,0,0,1,98.07-56.22,120.34,120.34,0,0,1,45.37,8.56q21.23,8.55,35,24.13l-18.63,18.64a67.5,67.5,0,0,0-26.58-19.7,90.34,90.34,0,0,0-78.06,4.27,84.89,84.89,0,0,0-32.08,31.47q-12.08,20.32-12.07,46.9t12.07,46.89a84.5,84.5,0,0,0,32.23,31.47A87.57,87.57,0,0,0,1609,614.87q22,0,36.81-6.87a82.38,82.38,0,0,0,25.51-18.18,66.62,66.62,0,0,0,12.83-20.62,90.78,90.78,0,0,0,6.11-26.73h-81V518.33h105.1a90.69,90.69,0,0,1,1.53,15.89,122.4,122.4,0,0,1-6.42,39.26A86.69,86.69,0,0,1,1689,606.93q-30.24,32.7-80.35,32.69A111.8,111.8,0,0,1,1551.82,624.65Z"/></svg>