<svg id="Layer_1" data-name="Layer 1" xmlns="http://www.w3.org/2000/svg" viewBox="0 0 4545.21 500"><defs><style>.cls-1{font-size:308.17px;fill:#676c72;font-family:GoogleSans-Regular, Google Sans;letter-spacing:-0.02em;}.cls-2{letter-spacing:-0.02em;}.cls-3{letter-spacing:-0.02em;}.cls-4{letter-spacing:-0.04em;}.cls-5{letter-spacing:-0.03em;}.cls-6{letter-spacing:-0.05em;}.cls-7{letter-spacing:-0.03em;}.cls-8{letter-spacing:-0.05em;}.cls-9{letter-spacing:-0.04em;}.cls-10{letter-spacing:-0.02em;}.cls-11{fill:none;}.cls-12{fill:#ea4335;}.cls-13{fill:#4285f4;}.cls-14{fill:#0f9d58;}.cls-15{fill:#fbbc04;}</style></defs><title>06 Google Cloud for Startups Logo</title><text class="cls-1" transform="translate(802.37 363.68)">G<tspan class="cls-2" x="242.84" y="0">oog</tspan><tspan class="cls-3" x="775.67" y="0">l</tspan><tspan class="cls-2" x="832.99" y="0">e</tspan><tspan class="cls-4" x="1000.32" y="0"> </tspan><tspan class="cls-5" x="1059.5" y="0">C</tspan><tspan class="cls-3" x="1278.61" y="0">lou</tspan><tspan class="cls-2" x="1677.08" y="0">d</tspan><tspan class="cls-4" x="1856.44" y="0"> </tspan><tspan class="cls-6" x="1915.61" y="0">f</tspan><tspan class="cls-7" x="2016.69" y="0">o</tspan><tspan class="cls-2" x="2191.12" y="0">r</tspan><tspan class="cls-8" x="2300.52" y="0"> </tspan><tspan class="cls-9" x="2356.6" y="0">S</tspan><tspan class="cls-5" x="2515.62" y="0">t</tspan><tspan class="cls-10" x="2619.17" y="0">artu</tspan><tspan x="3166.79" y="0">p</tspan><tspan class="cls-10" x="3343.37" y="0">s</tspan></text><rect class="cls-11" x="3379.87" y="146.05" width="250" height="250"/><rect class="cls-11" x="4295.21" y="145.49" width="250" height="250"/><rect class="cls-11" x="0.9" y="125" width="250" height="250"/><path class="cls-12" d="M591.15,113.7h0l-2.6,16.43-39,39-13.15-.68c-40.09-32.45-98.8-27.32-133.53,10.82l-.42.43a126.07,126.07,0,0,0-97.62,20.57h0A180.45,180.45,0,0,1,342.84,129C407,56.36,520,49,591.15,113.7Z"/><path class="cls-13" d="M699.92,305.2c-.54,70-57.76,125.82-127.8,125.28H474.47V352.42h97.65c26.92,0,48.75-21.29,48.75-48.21a48.76,48.76,0,0,0-48.75-48.76v-9.72a97.39,97.39,0,0,0-35.75-77.24l54.78-54.78a175.93,175.93,0,0,1,53,85.45A126.84,126.84,0,0,1,699.92,305.2Z"/><path class="cls-14" d="M474.47,352.42v78.06H377A126.56,126.56,0,0,1,300.4,404.6h0L357,348a48,48,0,0,0,20,4.39Z"/><path class="cls-15" d="M478,227l-56.56,56.56A48.75,48.75,0,1,0,357,348L300.4,404.59A126.71,126.71,0,1,1,478,227Z"/></svg>