<svg id="Layer_1" data-name="Layer 1" xmlns="http://www.w3.org/2000/svg" viewBox="0 0 4641.44 500"><defs><style>.cls-1{font-size:308.17px;fill:#676c72;font-family:GoogleSans-Regular, Google Sans;letter-spacing:-0.02em;}.cls-2{letter-spacing:-0.02em;}.cls-3{letter-spacing:-0.02em;}.cls-4{letter-spacing:-0.04em;}.cls-5{letter-spacing:-0.03em;}.cls-6{letter-spacing:-0.02em;}.cls-7{letter-spacing:-0.02em;}.cls-8{letter-spacing:-0.02em;}.cls-9{letter-spacing:-0.02em;}.cls-10{letter-spacing:-0.03em;}.cls-11{fill:none;}.cls-12{fill:#ea4335;}.cls-13{fill:#4285f4;}.cls-14{fill:#0f9d58;}.cls-15{fill:#fbbc04;}</style></defs><title>08 Google Cloud Certification</title><text class="cls-1" transform="translate(801.47 343.22)">G<tspan class="cls-2" x="242.84" y="0">oog</tspan><tspan class="cls-3" x="775.67" y="0">l</tspan><tspan class="cls-2" x="832.99" y="0">e</tspan><tspan class="cls-4" x="1000.32" y="0"> </tspan><tspan class="cls-5" x="1059.5" y="0">C</tspan><tspan class="cls-3" x="1278.61" y="0">lou</tspan><tspan class="cls-2" x="1677.08" y="0">d</tspan><tspan class="cls-4" x="1856.44" y="0" xml:space="preserve"> C</tspan><tspan class="cls-6" x="2131.64" y="0">e</tspan><tspan class="cls-7" x="2298.97" y="0">rt</tspan><tspan class="cls-2" x="2523.94" y="0">if</tspan><tspan x="2587.42" y="0">ic</tspan><tspan class="cls-5" x="2923.33" y="0">a</tspan><tspan class="cls-8" x="3077.73" y="0">t</tspan><tspan class="cls-9" x="3185.89" y="0">i</tspan><tspan class="cls-10" x="3247.84" y="0">o</tspan><tspan class="cls-6" x="3422.26" y="0">n</tspan></text><rect class="cls-11" x="4391.44" y="125" width="250" height="250"/><rect class="cls-11" y="125" width="250" height="250"/><path class="cls-12" d="M590.25,113.7h0l-2.6,16.43-39,39-13.15-.68c-40.09-32.45-98.8-27.32-133.53,10.82l-.42.43a126.07,126.07,0,0,0-97.62,20.57h0A180.45,180.45,0,0,1,341.94,129C406.06,56.36,519.13,49,590.25,113.7Z"/><path class="cls-13" d="M699,305.2c-.54,70-57.76,125.82-127.8,125.28H473.57V352.42h97.65c26.92,0,48.75-21.29,48.75-48.21a48.76,48.76,0,0,0-48.75-48.76v-9.72a97.39,97.39,0,0,0-35.75-77.24l54.78-54.78a175.93,175.93,0,0,1,53,85.45A126.84,126.84,0,0,1,699,305.2Z"/><path class="cls-14" d="M473.57,352.42v78.06H376.06A126.56,126.56,0,0,1,299.5,404.6h0L356.06,348a48,48,0,0,0,20,4.39Z"/><path class="cls-15" d="M477.13,227l-56.56,56.56A48.75,48.75,0,1,0,356.06,348L299.5,404.59A126.71,126.71,0,1,1,477.13,227Z"/><rect class="cls-11" x="2484.64" y="82.69" width="250" height="250"/></svg>